  0
SECTION
  2
HEADER
  9
$ACADVER
  1
AC1009
  9
$EXTMIN
 10
0.0
 20
0.0
 30
0.0
  9
$EXTMAX
 10
1000.0
 20
1000.0
 30
0.0
  9
$FILLMODE
 70
 0
  9
$SPLFRAME
 70
 1
  0
ENDSEC
  0
SECTION
  2
TABLES
  0
TABLE
  2
LAYER
 70
1
  0
LAYER
  2
0
 70
     0
 62
     7
  6
CONTINUOUS
  0
ENDTAB
  0
ENDSEC
  0
SECTION
  2
ENTITIES
  0
LINE
  8
0
 62
     0
 10
285.47
 20
40.8615
 30
0.0
 11
283.132
 21
40.8615
 31
0.0
  0
LINE
  8
0
 62
     0
 10
283.132
 20
40.8615
 30
0.0
 11
283.132
 21
54.5606
 31
0.0
  0
LINE
  8
0
 62
     0
 10
283.132
 20
54.5606
 30
0.0
 11
269.131
 21
54.5606
 31
0.0
  0
LINE
  8
0
 62
     0
 10
269.131
 20
54.5606
 30
0.0
 11
269.131
 21
40.5613
 31
0.0
  0
LINE
  8
0
 62
     0
 10
269.131
 20
40.5613
 30
0.0
 11
280.85
 21
40.5613
 31
0.0
  0
LINE
  8
0
 62
     0
 10
280.85
 20
40.5613
 30
0.0
 11
280.5
 21
40.3849
 31
0.0
  0
LINE
  8
0
 62
     0
 10
280.5
 20
40.3849
 30
0.0
 11
279.947
 21
39.8307
 31
0.0
  0
LINE
  8
0
 62
     0
 10
279.947
 20
39.8307
 30
0.0
 11
279.593
 21
39.1336
 31
0.0
  0
LINE
  8
0
 62
     0
 10
279.593
 20
39.1336
 30
0.0
 11
279.47
 21
38.3618
 31
0.0
  0
LINE
  8
0
 62
     0
 10
279.47
 20
38.3618
 30
0.0
 11
279.593
 21
37.5888
 31
0.0
  0
LINE
  8
0
 62
     0
 10
279.593
 20
37.5888
 30
0.0
 11
279.947
 21
36.8914
 31
0.0
  0
LINE
  8
0
 62
     0
 10
279.947
 20
36.8914
 30
0.0
 11
280.5
 21
36.3375
 31
0.0
  0
LINE
  8
0
 62
     0
 10
280.5
 20
36.3375
 30
0.0
 11
281.196
 21
35.9833
 31
0.0
  0
LINE
  8
0
 62
     0
 10
281.196
 20
35.9833
 30
0.0
 11
281.969
 21
35.8606
 31
0.0
  0
LINE
  8
0
 62
     0
 10
281.969
 20
35.8606
 30
0.0
 11
285.47
 21
35.8606
 31
0.0
  0
LINE
  8
0
 62
     0
 10
285.47
 20
35.8606
 30
0.0
 11
285.47
 21
0.0964629
 31
0.0
  0
LINE
  8
0
 62
     0
 10
285.47
 20
0.0964629
 30
0.0
 11
0.0937066
 21
0.0964629
 31
0.0
  0
LINE
  8
0
 62
     0
 10
0.0937066
 20
0.0964629
 30
0.0
 11
0.0937066
 21
35.8606
 31
0.0
  0
LINE
  8
0
 62
     0
 10
0.0937066
 20
35.8606
 30
0.0
 11
3.59392
 21
35.8606
 31
0.0
  0
LINE
  8
0
 62
     0
 10
3.59392
 20
35.8606
 30
0.0
 11
4.367
 21
35.9833
 31
0.0
  0
LINE
  8
0
 62
     0
 10
4.367
 20
35.9833
 30
0.0
 11
5.06293
 21
36.3375
 31
0.0
  0
LINE
  8
0
 62
     0
 10
5.06293
 20
36.3375
 30
0.0
 11
5.61689
 21
36.8914
 31
0.0
  0
LINE
  8
0
 62
     0
 10
5.61689
 20
36.8914
 30
0.0
 11
5.97242
 21
37.5888
 31
0.0
  0
LINE
  8
0
 62
     0
 10
5.97242
 20
37.5888
 30
0.0
 11
6.09367
 21
38.3603
 31
0.0
  0
LINE
  8
0
 62
     0
 10
6.09367
 20
38.3603
 30
0.0
 11
5.97242
 21
39.1336
 31
0.0
  0
LINE
  8
0
 62
     0
 10
5.97242
 20
39.1336
 30
0.0
 11
5.61689
 21
39.8307
 31
0.0
  0
LINE
  8
0
 62
     0
 10
5.61689
 20
39.8307
 30
0.0
 11
5.06293
 21
40.3849
 31
0.0
  0
LINE
  8
0
 62
     0
 10
5.06293
 20
40.3849
 30
0.0
 11
4.71428
 21
40.5613
 31
0.0
  0
LINE
  8
0
 62
     0
 10
4.71428
 20
40.5613
 30
0.0
 11
16.4317
 21
40.5613
 31
0.0
  0
LINE
  8
0
 62
     0
 10
16.4317
 20
40.5613
 30
0.0
 11
16.4317
 21
54.5606
 31
0.0
  0
LINE
  8
0
 62
     0
 10
16.4317
 20
54.5606
 30
0.0
 11
2.43086
 21
54.5606
 31
0.0
  0
LINE
  8
0
 62
     0
 10
2.43086
 20
54.5606
 30
0.0
 11
2.43086
 21
40.8615
 31
0.0
  0
LINE
  8
0
 62
     0
 10
2.43086
 20
40.8615
 30
0.0
 11
0.0937066
 21
40.8615
 31
0.0
  0
LINE
  8
0
 62
     0
 10
0.0937066
 20
40.8615
 30
0.0
 11
0.0937066
 21
95.0239
 31
0.0
  0
LINE
  8
0
 62
     0
 10
0.0937066
 20
95.0239
 30
0.0
 11
285.47
 21
95.0239
 31
0.0
  0
LINE
  8
0
 62
     0
 10
285.47
 20
95.0239
 30
0.0
 11
285.47
 21
40.8615
 31
0.0
  0
LINE
  8
0
 62
     0
 10
135.782
 20
16.4621
 30
0.0
 11
135.782
 21
11.7615
 31
0.0
  0
LINE
  8
0
 62
     0
 10
135.782
 20
11.7615
 30
0.0
 11
89.0076
 21
11.7615
 31
0.0
  0
LINE
  8
0
 62
     0
 10
89.0076
 20
11.7615
 30
0.0
 11
89.0076
 21
14.9917
 31
0.0
  0
LINE
  8
0
 62
     0
 10
89.0076
 20
14.9917
 30
0.0
 11
82.2579
 21
14.9917
 31
0.0
  0
LINE
  8
0
 62
     0
 10
82.2579
 20
14.9917
 30
0.0
 11
82.2579
 21
11.7615
 31
0.0
  0
LINE
  8
0
 62
     0
 10
82.2579
 20
11.7615
 30
0.0
 11
81.4324
 21
11.7615
 31
0.0
  0
LINE
  8
0
 62
     0
 10
81.4324
 20
11.7615
 30
0.0
 11
81.4324
 21
8.96278
 31
0.0
  0
LINE
  8
0
 62
     0
 10
81.4324
 20
8.96278
 30
0.0
 11
82.2579
 21
8.96278
 31
0.0
  0
LINE
  8
0
 62
     0
 10
82.2579
 20
8.96278
 30
0.0
 11
82.2579
 21
2.69269
 31
0.0
  0
LINE
  8
0
 62
     0
 10
82.2579
 20
2.69269
 30
0.0
 11
83.9819
 21
2.69269
 31
0.0
  0
LINE
  8
0
 62
     0
 10
83.9819
 20
2.69269
 30
0.0
 11
83.9819
 21
1.49242
 31
0.0
  0
LINE
  8
0
 62
     0
 10
83.9819
 20
1.49242
 30
0.0
 11
87.2822
 21
1.49242
 31
0.0
  0
LINE
  8
0
 62
     0
 10
87.2822
 20
1.49242
 30
0.0
 11
87.2822
 21
2.69269
 31
0.0
  0
LINE
  8
0
 62
     0
 10
87.2822
 20
2.69269
 30
0.0
 11
89.0076
 21
2.69269
 31
0.0
  0
LINE
  8
0
 62
     0
 10
89.0076
 20
2.69269
 30
0.0
 11
89.0076
 21
7.16167
 31
0.0
  0
LINE
  8
0
 62
     0
 10
89.0076
 20
7.16167
 30
0.0
 11
135.782
 21
7.16167
 31
0.0
  0
LINE
  8
0
 62
     0
 10
135.782
 20
7.16167
 30
0.0
 11
135.782
 21
2.46255
 31
0.0
  0
LINE
  8
0
 62
     0
 10
135.782
 20
2.46255
 30
0.0
 11
149.782
 21
2.46255
 31
0.0
  0
LINE
  8
0
 62
     0
 10
149.782
 20
2.46255
 30
0.0
 11
149.782
 21
7.16167
 31
0.0
  0
LINE
  8
0
 62
     0
 10
149.782
 20
7.16167
 30
0.0
 11
196.557
 21
7.16167
 31
0.0
  0
LINE
  8
0
 62
     0
 10
196.557
 20
7.16167
 30
0.0
 11
196.557
 21
2.69269
 31
0.0
  0
LINE
  8
0
 62
     0
 10
196.557
 20
2.69269
 30
0.0
 11
198.282
 21
2.69269
 31
0.0
  0
LINE
  8
0
 62
     0
 10
198.282
 20
2.69269
 30
0.0
 11
198.282
 21
1.49242
 31
0.0
  0
LINE
  8
0
 62
     0
 10
198.282
 20
1.49242
 30
0.0
 11
201.581
 21
1.49242
 31
0.0
  0
LINE
  8
0
 62
     0
 10
201.581
 20
1.49242
 30
0.0
 11
201.581
 21
2.69269
 31
0.0
  0
LINE
  8
0
 62
     0
 10
201.581
 20
2.69269
 30
0.0
 11
203.306
 21
2.69269
 31
0.0
  0
LINE
  8
0
 62
     0
 10
203.306
 20
2.69269
 30
0.0
 11
203.306
 21
8.96278
 31
0.0
  0
LINE
  8
0
 62
     0
 10
203.306
 20
8.96278
 30
0.0
 11
204.133
 21
8.96278
 31
0.0
  0
LINE
  8
0
 62
     0
 10
204.133
 20
8.96278
 30
0.0
 11
204.133
 21
11.7615
 31
0.0
  0
LINE
  8
0
 62
     0
 10
204.133
 20
11.7615
 30
0.0
 11
203.306
 21
11.7615
 31
0.0
  0
LINE
  8
0
 62
     0
 10
203.306
 20
11.7615
 30
0.0
 11
203.306
 21
14.9917
 31
0.0
  0
LINE
  8
0
 62
     0
 10
203.306
 20
14.9917
 30
0.0
 11
196.557
 21
14.9917
 31
0.0
  0
LINE
  8
0
 62
     0
 10
196.557
 20
14.9917
 30
0.0
 11
196.557
 21
11.7615
 31
0.0
  0
LINE
  8
0
 62
     0
 10
196.557
 20
11.7615
 30
0.0
 11
192.098
 21
11.7615
 31
0.0
  0
LINE
  8
0
 62
     0
 10
192.098
 20
11.7615
 30
0.0
 11
191.556
 21
12.0385
 31
0.0
  0
LINE
  8
0
 62
     0
 10
191.556
 20
12.0385
 30
0.0
 11
190.783
 21
12.1612
 31
0.0
  0
LINE
  8
0
 62
     0
 10
190.783
 20
12.1612
 30
0.0
 11
190.009
 21
12.0385
 31
0.0
  0
LINE
  8
0
 62
     0
 10
190.009
 20
12.0385
 30
0.0
 11
189.466
 21
11.7615
 31
0.0
  0
LINE
  8
0
 62
     0
 10
189.466
 20
11.7615
 30
0.0
 11
149.782
 21
11.7615
 31
0.0
  0
LINE
  8
0
 62
     0
 10
149.782
 20
11.7615
 30
0.0
 11
149.782
 21
16.4621
 31
0.0
  0
LINE
  8
0
 62
     0
 10
149.782
 20
16.4621
 30
0.0
 11
135.782
 21
16.4621
 31
0.0
  0
LINE
  8
0
 62
     0
 10
31.0059
 20
16.4621
 30
0.0
 11
45.0067
 21
16.4621
 31
0.0
  0
LINE
  8
0
 62
     0
 10
45.0067
 20
16.4621
 30
0.0
 11
45.0067
 21
2.46255
 31
0.0
  0
LINE
  8
0
 62
     0
 10
45.0067
 20
2.46255
 30
0.0
 11
31.0059
 21
2.46255
 31
0.0
  0
LINE
  8
0
 62
     0
 10
31.0059
 20
2.46255
 30
0.0
 11
31.0059
 21
16.4621
 31
0.0
  0
LINE
  8
0
 62
     0
 10
54.8185
 20
16.4621
 30
0.0
 11
68.8192
 21
16.4621
 31
0.0
  0
LINE
  8
0
 62
     0
 10
68.8192
 20
16.4621
 30
0.0
 11
68.8192
 21
2.46255
 31
0.0
  0
LINE
  8
0
 62
     0
 10
68.8192
 20
2.46255
 30
0.0
 11
54.8185
 21
2.46255
 31
0.0
  0
LINE
  8
0
 62
     0
 10
54.8185
 20
2.46255
 30
0.0
 11
54.8185
 21
16.4621
 31
0.0
  0
LINE
  8
0
 62
     0
 10
216.745
 20
16.4621
 30
0.0
 11
230.746
 21
16.4621
 31
0.0
  0
LINE
  8
0
 62
     0
 10
230.746
 20
16.4621
 30
0.0
 11
230.746
 21
2.46255
 31
0.0
  0
LINE
  8
0
 62
     0
 10
230.746
 20
2.46255
 30
0.0
 11
216.745
 21
2.46255
 31
0.0
  0
LINE
  8
0
 62
     0
 10
216.745
 20
2.46255
 30
0.0
 11
216.745
 21
16.4621
 31
0.0
  0
LINE
  8
0
 62
     0
 10
240.556
 20
16.4621
 30
0.0
 11
254.557
 21
16.4621
 31
0.0
  0
LINE
  8
0
 62
     0
 10
254.557
 20
16.4621
 30
0.0
 11
254.557
 21
2.46255
 31
0.0
  0
LINE
  8
0
 62
     0
 10
254.557
 20
2.46255
 30
0.0
 11
240.556
 21
2.46255
 31
0.0
  0
LINE
  8
0
 62
     0
 10
240.556
 20
2.46255
 30
0.0
 11
240.556
 21
16.4621
 31
0.0
  0
LINE
  8
0
 62
     0
 10
2.43086
 20
35.512
 30
0.0
 11
16.4317
 21
35.512
 31
0.0
  0
LINE
  8
0
 62
     0
 10
16.4317
 20
35.512
 30
0.0
 11
16.4317
 21
21.5126
 31
0.0
  0
LINE
  8
0
 62
     0
 10
16.4317
 20
21.5126
 30
0.0
 11
2.43086
 21
21.5126
 31
0.0
  0
LINE
  8
0
 62
     0
 10
2.43086
 20
21.5126
 30
0.0
 11
2.43086
 21
35.512
 31
0.0
  0
LINE
  8
0
 62
     0
 10
21.4809
 20
35.512
 30
0.0
 11
35.4817
 21
35.512
 31
0.0
  0
LINE
  8
0
 62
     0
 10
35.4817
 20
35.512
 30
0.0
 11
35.4817
 21
21.5126
 31
0.0
  0
LINE
  8
0
 62
     0
 10
35.4817
 20
21.5126
 30
0.0
 11
21.4809
 21
21.5126
 31
0.0
  0
LINE
  8
0
 62
     0
 10
21.4809
 20
21.5126
 30
0.0
 11
21.4809
 21
35.512
 31
0.0
  0
LINE
  8
0
 62
     0
 10
40.531
 20
35.512
 30
0.0
 11
54.5317
 21
35.512
 31
0.0
  0
LINE
  8
0
 62
     0
 10
54.5317
 20
35.512
 30
0.0
 11
54.5317
 21
21.5126
 31
0.0
  0
LINE
  8
0
 62
     0
 10
54.5317
 20
21.5126
 30
0.0
 11
40.531
 21
21.5126
 31
0.0
  0
LINE
  8
0
 62
     0
 10
40.531
 20
21.5126
 30
0.0
 11
40.531
 21
35.512
 31
0.0
  0
LINE
  8
0
 62
     0
 10
59.581
 20
35.512
 30
0.0
 11
73.5817
 21
35.512
 31
0.0
  0
LINE
  8
0
 62
     0
 10
73.5817
 20
35.512
 30
0.0
 11
73.5817
 21
21.5126
 31
0.0
  0
LINE
  8
0
 62
     0
 10
73.5817
 20
21.5126
 30
0.0
 11
59.581
 21
21.5126
 31
0.0
  0
LINE
  8
0
 62
     0
 10
59.581
 20
21.5126
 30
0.0
 11
59.581
 21
35.512
 31
0.0
  0
LINE
  8
0
 62
     0
 10
78.6324
 20
35.512
 30
0.0
 11
92.6317
 21
35.512
 31
0.0
  0
LINE
  8
0
 62
     0
 10
92.6317
 20
35.512
 30
0.0
 11
92.6317
 21
21.5126
 31
0.0
  0
LINE
  8
0
 62
     0
 10
92.6317
 20
21.5126
 30
0.0
 11
78.6324
 21
21.5126
 31
0.0
  0
LINE
  8
0
 62
     0
 10
78.6324
 20
21.5126
 30
0.0
 11
78.6324
 21
35.512
 31
0.0
  0
LINE
  8
0
 62
     0
 10
97.6824
 20
35.512
 30
0.0
 11
111.682
 21
35.512
 31
0.0
  0
LINE
  8
0
 62
     0
 10
111.682
 20
35.512
 30
0.0
 11
111.682
 21
21.5126
 31
0.0
  0
LINE
  8
0
 62
     0
 10
111.682
 20
21.5126
 30
0.0
 11
97.6824
 21
21.5126
 31
0.0
  0
LINE
  8
0
 62
     0
 10
97.6824
 20
21.5126
 30
0.0
 11
97.6824
 21
35.512
 31
0.0
  0
LINE
  8
0
 62
     0
 10
116.732
 20
35.512
 30
0.0
 11
130.732
 21
35.512
 31
0.0
  0
LINE
  8
0
 62
     0
 10
130.732
 20
35.512
 30
0.0
 11
130.732
 21
21.5126
 31
0.0
  0
LINE
  8
0
 62
     0
 10
130.732
 20
21.5126
 30
0.0
 11
116.732
 21
21.5126
 31
0.0
  0
LINE
  8
0
 62
     0
 10
116.732
 20
21.5126
 30
0.0
 11
116.732
 21
35.512
 31
0.0
  0
LINE
  8
0
 62
     0
 10
135.782
 20
35.512
 30
0.0
 11
149.782
 21
35.512
 31
0.0
  0
LINE
  8
0
 62
     0
 10
149.782
 20
35.512
 30
0.0
 11
149.782
 21
21.5126
 31
0.0
  0
LINE
  8
0
 62
     0
 10
149.782
 20
21.5126
 30
0.0
 11
135.782
 21
21.5126
 31
0.0
  0
LINE
  8
0
 62
     0
 10
135.782
 20
21.5126
 30
0.0
 11
135.782
 21
35.512
 31
0.0
  0
LINE
  8
0
 62
     0
 10
154.831
 20
35.512
 30
0.0
 11
168.832
 21
35.512
 31
0.0
  0
LINE
  8
0
 62
     0
 10
168.832
 20
35.512
 30
0.0
 11
168.832
 21
21.5126
 31
0.0
  0
LINE
  8
0
 62
     0
 10
168.832
 20
21.5126
 30
0.0
 11
154.831
 21
21.5126
 31
0.0
  0
LINE
  8
0
 62
     0
 10
154.831
 20
21.5126
 30
0.0
 11
154.831
 21
35.512
 31
0.0
  0
LINE
  8
0
 62
     0
 10
173.882
 20
35.512
 30
0.0
 11
187.882
 21
35.512
 31
0.0
  0
LINE
  8
0
 62
     0
 10
187.882
 20
35.512
 30
0.0
 11
187.882
 21
21.5126
 31
0.0
  0
LINE
  8
0
 62
     0
 10
187.882
 20
21.5126
 30
0.0
 11
173.882
 21
21.5126
 31
0.0
  0
LINE
  8
0
 62
     0
 10
173.882
 20
21.5126
 30
0.0
 11
173.882
 21
35.512
 31
0.0
  0
LINE
  8
0
 62
     0
 10
192.931
 20
35.512
 30
0.0
 11
206.932
 21
35.512
 31
0.0
  0
LINE
  8
0
 62
     0
 10
206.932
 20
35.512
 30
0.0
 11
206.932
 21
21.5126
 31
0.0
  0
LINE
  8
0
 62
     0
 10
206.932
 20
21.5126
 30
0.0
 11
192.931
 21
21.5126
 31
0.0
  0
LINE
  8
0
 62
     0
 10
192.931
 20
21.5126
 30
0.0
 11
192.931
 21
35.512
 31
0.0
  0
LINE
  8
0
 62
     0
 10
211.982
 20
35.512
 30
0.0
 11
225.982
 21
35.512
 31
0.0
  0
LINE
  8
0
 62
     0
 10
225.982
 20
35.512
 30
0.0
 11
225.982
 21
21.5126
 31
0.0
  0
LINE
  8
0
 62
     0
 10
225.982
 20
21.5126
 30
0.0
 11
211.982
 21
21.5126
 31
0.0
  0
LINE
  8
0
 62
     0
 10
211.982
 20
21.5126
 30
0.0
 11
211.982
 21
35.512
 31
0.0
  0
LINE
  8
0
 62
     0
 10
231.032
 20
35.512
 30
0.0
 11
245.032
 21
35.512
 31
0.0
  0
LINE
  8
0
 62
     0
 10
245.032
 20
35.512
 30
0.0
 11
245.032
 21
21.5126
 31
0.0
  0
LINE
  8
0
 62
     0
 10
245.032
 20
21.5126
 30
0.0
 11
231.032
 21
21.5126
 31
0.0
  0
LINE
  8
0
 62
     0
 10
231.032
 20
21.5126
 30
0.0
 11
231.032
 21
35.512
 31
0.0
  0
LINE
  8
0
 62
     0
 10
250.081
 20
35.512
 30
0.0
 11
264.082
 21
35.512
 31
0.0
  0
LINE
  8
0
 62
     0
 10
264.082
 20
35.512
 30
0.0
 11
264.082
 21
21.5126
 31
0.0
  0
LINE
  8
0
 62
     0
 10
264.082
 20
21.5126
 30
0.0
 11
250.081
 21
21.5126
 31
0.0
  0
LINE
  8
0
 62
     0
 10
250.081
 20
21.5126
 30
0.0
 11
250.081
 21
35.512
 31
0.0
  0
LINE
  8
0
 62
     0
 10
269.131
 20
35.512
 30
0.0
 11
283.132
 21
35.512
 31
0.0
  0
LINE
  8
0
 62
     0
 10
283.132
 20
35.512
 30
0.0
 11
283.132
 21
21.5126
 31
0.0
  0
LINE
  8
0
 62
     0
 10
283.132
 20
21.5126
 30
0.0
 11
269.131
 21
21.5126
 31
0.0
  0
LINE
  8
0
 62
     0
 10
269.131
 20
21.5126
 30
0.0
 11
269.131
 21
35.512
 31
0.0
  0
LINE
  8
0
 62
     0
 10
21.4809
 20
54.5606
 30
0.0
 11
35.4817
 21
54.5606
 31
0.0
  0
LINE
  8
0
 62
     0
 10
35.4817
 20
54.5606
 30
0.0
 11
35.4817
 21
40.5613
 31
0.0
  0
LINE
  8
0
 62
     0
 10
35.4817
 20
40.5613
 30
0.0
 11
21.4809
 21
40.5613
 31
0.0
  0
LINE
  8
0
 62
     0
 10
21.4809
 20
40.5613
 30
0.0
 11
21.4809
 21
54.5606
 31
0.0
  0
LINE
  8
0
 62
     0
 10
40.531
 20
54.5606
 30
0.0
 11
54.5317
 21
54.5606
 31
0.0
  0
LINE
  8
0
 62
     0
 10
54.5317
 20
54.5606
 30
0.0
 11
54.5317
 21
40.5613
 31
0.0
  0
LINE
  8
0
 62
     0
 10
54.5317
 20
40.5613
 30
0.0
 11
40.531
 21
40.5613
 31
0.0
  0
LINE
  8
0
 62
     0
 10
40.531
 20
40.5613
 30
0.0
 11
40.531
 21
54.5606
 31
0.0
  0
LINE
  8
0
 62
     0
 10
59.581
 20
54.5606
 30
0.0
 11
73.5817
 21
54.5606
 31
0.0
  0
LINE
  8
0
 62
     0
 10
73.5817
 20
54.5606
 30
0.0
 11
73.5817
 21
40.5613
 31
0.0
  0
LINE
  8
0
 62
     0
 10
73.5817
 20
40.5613
 30
0.0
 11
59.581
 21
40.5613
 31
0.0
  0
LINE
  8
0
 62
     0
 10
59.581
 20
40.5613
 30
0.0
 11
59.581
 21
54.5606
 31
0.0
  0
LINE
  8
0
 62
     0
 10
78.6324
 20
54.5606
 30
0.0
 11
92.6317
 21
54.5606
 31
0.0
  0
LINE
  8
0
 62
     0
 10
92.6317
 20
54.5606
 30
0.0
 11
92.6317
 21
40.5613
 31
0.0
  0
LINE
  8
0
 62
     0
 10
92.6317
 20
40.5613
 30
0.0
 11
78.6324
 21
40.5613
 31
0.0
  0
LINE
  8
0
 62
     0
 10
78.6324
 20
40.5613
 30
0.0
 11
78.6324
 21
54.5606
 31
0.0
  0
LINE
  8
0
 62
     0
 10
97.6824
 20
54.5606
 30
0.0
 11
111.682
 21
54.5606
 31
0.0
  0
LINE
  8
0
 62
     0
 10
111.682
 20
54.5606
 30
0.0
 11
111.682
 21
40.5613
 31
0.0
  0
LINE
  8
0
 62
     0
 10
111.682
 20
40.5613
 30
0.0
 11
97.6824
 21
40.5613
 31
0.0
  0
LINE
  8
0
 62
     0
 10
97.6824
 20
40.5613
 30
0.0
 11
97.6824
 21
54.5606
 31
0.0
  0
LINE
  8
0
 62
     0
 10
116.732
 20
54.5606
 30
0.0
 11
116.732
 21
40.5613
 31
0.0
  0
LINE
  8
0
 62
     0
 10
116.732
 20
40.5613
 30
0.0
 11
130.732
 21
40.5613
 31
0.0
  0
LINE
  8
0
 62
     0
 10
130.732
 20
40.5613
 30
0.0
 11
130.732
 21
46.5377
 31
0.0
  0
LINE
  8
0
 62
     0
 10
130.732
 20
46.5377
 30
0.0
 11
130.86
 21
46.7886
 31
0.0
  0
LINE
  8
0
 62
     0
 10
130.86
 20
46.7886
 30
0.0
 11
130.984
 21
47.5601
 31
0.0
  0
LINE
  8
0
 62
     0
 10
130.984
 20
47.5601
 30
0.0
 11
130.86
 21
48.3348
 31
0.0
  0
LINE
  8
0
 62
     0
 10
130.86
 20
48.3348
 30
0.0
 11
130.732
 21
48.5856
 31
0.0
  0
LINE
  8
0
 62
     0
 10
130.732
 20
48.5856
 30
0.0
 11
130.732
 21
54.5606
 31
0.0
  0
LINE
  8
0
 62
     0
 10
130.732
 20
54.5606
 30
0.0
 11
116.732
 21
54.5606
 31
0.0
  0
LINE
  8
0
 62
     0
 10
135.782
 20
54.5606
 30
0.0
 11
149.782
 21
54.5606
 31
0.0
  0
LINE
  8
0
 62
     0
 10
149.782
 20
54.5606
 30
0.0
 11
149.782
 21
40.5613
 31
0.0
  0
LINE
  8
0
 62
     0
 10
149.782
 20
40.5613
 30
0.0
 11
135.782
 21
40.5613
 31
0.0
  0
LINE
  8
0
 62
     0
 10
135.782
 20
40.5613
 30
0.0
 11
135.782
 21
54.5606
 31
0.0
  0
LINE
  8
0
 62
     0
 10
154.831
 20
54.5606
 30
0.0
 11
168.832
 21
54.5606
 31
0.0
  0
LINE
  8
0
 62
     0
 10
168.832
 20
54.5606
 30
0.0
 11
168.832
 21
40.5613
 31
0.0
  0
LINE
  8
0
 62
     0
 10
168.832
 20
40.5613
 30
0.0
 11
154.831
 21
40.5613
 31
0.0
  0
LINE
  8
0
 62
     0
 10
154.831
 20
40.5613
 30
0.0
 11
154.831
 21
54.5606
 31
0.0
  0
LINE
  8
0
 62
     0
 10
173.882
 20
54.5606
 30
0.0
 11
187.882
 21
54.5606
 31
0.0
  0
LINE
  8
0
 62
     0
 10
187.882
 20
54.5606
 30
0.0
 11
187.882
 21
40.5613
 31
0.0
  0
LINE
  8
0
 62
     0
 10
187.882
 20
40.5613
 30
0.0
 11
173.882
 21
40.5613
 31
0.0
  0
LINE
  8
0
 62
     0
 10
173.882
 20
40.5613
 30
0.0
 11
173.882
 21
54.5606
 31
0.0
  0
LINE
  8
0
 62
     0
 10
192.931
 20
54.5606
 30
0.0
 11
206.932
 21
54.5606
 31
0.0
  0
LINE
  8
0
 62
     0
 10
206.932
 20
54.5606
 30
0.0
 11
206.932
 21
40.5613
 31
0.0
  0
LINE
  8
0
 62
     0
 10
206.932
 20
40.5613
 30
0.0
 11
192.931
 21
40.5613
 31
0.0
  0
LINE
  8
0
 62
     0
 10
192.931
 20
40.5613
 30
0.0
 11
192.931
 21
54.5606
 31
0.0
  0
LINE
  8
0
 62
     0
 10
211.982
 20
54.5606
 30
0.0
 11
225.982
 21
54.5606
 31
0.0
  0
LINE
  8
0
 62
     0
 10
225.982
 20
54.5606
 30
0.0
 11
225.982
 21
40.5613
 31
0.0
  0
LINE
  8
0
 62
     0
 10
225.982
 20
40.5613
 30
0.0
 11
211.982
 21
40.5613
 31
0.0
  0
LINE
  8
0
 62
     0
 10
211.982
 20
40.5613
 30
0.0
 11
211.982
 21
54.5606
 31
0.0
  0
LINE
  8
0
 62
     0
 10
231.032
 20
54.5606
 30
0.0
 11
245.032
 21
54.5606
 31
0.0
  0
LINE
  8
0
 62
     0
 10
245.032
 20
54.5606
 30
0.0
 11
245.032
 21
40.5613
 31
0.0
  0
LINE
  8
0
 62
     0
 10
245.032
 20
40.5613
 30
0.0
 11
231.032
 21
40.5613
 31
0.0
  0
LINE
  8
0
 62
     0
 10
231.032
 20
40.5613
 30
0.0
 11
231.032
 21
54.5606
 31
0.0
  0
LINE
  8
0
 62
     0
 10
250.081
 20
54.5606
 30
0.0
 11
264.082
 21
54.5606
 31
0.0
  0
LINE
  8
0
 62
     0
 10
264.082
 20
54.5606
 30
0.0
 11
264.082
 21
40.5613
 31
0.0
  0
LINE
  8
0
 62
     0
 10
264.082
 20
40.5613
 30
0.0
 11
250.081
 21
40.5613
 31
0.0
  0
LINE
  8
0
 62
     0
 10
250.081
 20
40.5613
 30
0.0
 11
250.081
 21
54.5606
 31
0.0
  0
LINE
  8
0
 62
     0
 10
2.43086
 20
73.612
 30
0.0
 11
16.4317
 21
73.612
 31
0.0
  0
LINE
  8
0
 62
     0
 10
16.4317
 20
73.612
 30
0.0
 11
16.4317
 21
59.6124
 31
0.0
  0
LINE
  8
0
 62
     0
 10
16.4317
 20
59.6124
 30
0.0
 11
2.43086
 21
59.6124
 31
0.0
  0
LINE
  8
0
 62
     0
 10
2.43086
 20
59.6124
 30
0.0
 11
2.43086
 21
73.612
 31
0.0
  0
LINE
  8
0
 62
     0
 10
21.4809
 20
73.612
 30
0.0
 11
35.4817
 21
73.612
 31
0.0
  0
LINE
  8
0
 62
     0
 10
35.4817
 20
73.612
 30
0.0
 11
35.4817
 21
59.6124
 31
0.0
  0
LINE
  8
0
 62
     0
 10
35.4817
 20
59.6124
 30
0.0
 11
21.4809
 21
59.6124
 31
0.0
  0
LINE
  8
0
 62
     0
 10
21.4809
 20
59.6124
 30
0.0
 11
21.4809
 21
73.612
 31
0.0
  0
LINE
  8
0
 62
     0
 10
40.531
 20
73.612
 30
0.0
 11
54.5317
 21
73.612
 31
0.0
  0
LINE
  8
0
 62
     0
 10
54.5317
 20
73.612
 30
0.0
 11
54.5317
 21
59.6124
 31
0.0
  0
LINE
  8
0
 62
     0
 10
54.5317
 20
59.6124
 30
0.0
 11
40.531
 21
59.6124
 31
0.0
  0
LINE
  8
0
 62
     0
 10
40.531
 20
59.6124
 30
0.0
 11
40.531
 21
73.612
 31
0.0
  0
LINE
  8
0
 62
     0
 10
59.581
 20
73.612
 30
0.0
 11
73.5817
 21
73.612
 31
0.0
  0
LINE
  8
0
 62
     0
 10
73.5817
 20
73.612
 30
0.0
 11
73.5817
 21
59.6124
 31
0.0
  0
LINE
  8
0
 62
     0
 10
73.5817
 20
59.6124
 30
0.0
 11
59.581
 21
59.6124
 31
0.0
  0
LINE
  8
0
 62
     0
 10
59.581
 20
59.6124
 30
0.0
 11
59.581
 21
73.612
 31
0.0
  0
LINE
  8
0
 62
     0
 10
78.6324
 20
73.612
 30
0.0
 11
92.6317
 21
73.612
 31
0.0
  0
LINE
  8
0
 62
     0
 10
92.6317
 20
73.612
 30
0.0
 11
92.6317
 21
59.6124
 31
0.0
  0
LINE
  8
0
 62
     0
 10
92.6317
 20
59.6124
 30
0.0
 11
78.6324
 21
59.6124
 31
0.0
  0
LINE
  8
0
 62
     0
 10
78.6324
 20
59.6124
 30
0.0
 11
78.6324
 21
73.612
 31
0.0
  0
LINE
  8
0
 62
     0
 10
97.6824
 20
73.612
 30
0.0
 11
111.682
 21
73.612
 31
0.0
  0
LINE
  8
0
 62
     0
 10
111.682
 20
73.612
 30
0.0
 11
111.682
 21
59.6124
 31
0.0
  0
LINE
  8
0
 62
     0
 10
111.682
 20
59.6124
 30
0.0
 11
97.6824
 21
59.6124
 31
0.0
  0
LINE
  8
0
 62
     0
 10
97.6824
 20
59.6124
 30
0.0
 11
97.6824
 21
73.612
 31
0.0
  0
LINE
  8
0
 62
     0
 10
116.732
 20
73.612
 30
0.0
 11
130.732
 21
73.612
 31
0.0
  0
LINE
  8
0
 62
     0
 10
130.732
 20
73.612
 30
0.0
 11
130.732
 21
59.6124
 31
0.0
  0
LINE
  8
0
 62
     0
 10
130.732
 20
59.6124
 30
0.0
 11
116.732
 21
59.6124
 31
0.0
  0
LINE
  8
0
 62
     0
 10
116.732
 20
59.6124
 30
0.0
 11
116.732
 21
73.612
 31
0.0
  0
LINE
  8
0
 62
     0
 10
135.782
 20
73.612
 30
0.0
 11
149.782
 21
73.612
 31
0.0
  0
LINE
  8
0
 62
     0
 10
149.782
 20
73.612
 30
0.0
 11
149.782
 21
59.6124
 31
0.0
  0
LINE
  8
0
 62
     0
 10
149.782
 20
59.6124
 30
0.0
 11
135.782
 21
59.6124
 31
0.0
  0
LINE
  8
0
 62
     0
 10
135.782
 20
59.6124
 30
0.0
 11
135.782
 21
73.612
 31
0.0
  0
LINE
  8
0
 62
     0
 10
154.831
 20
73.612
 30
0.0
 11
168.832
 21
73.612
 31
0.0
  0
LINE
  8
0
 62
     0
 10
168.832
 20
73.612
 30
0.0
 11
168.832
 21
59.6124
 31
0.0
  0
LINE
  8
0
 62
     0
 10
168.832
 20
59.6124
 30
0.0
 11
154.831
 21
59.6124
 31
0.0
  0
LINE
  8
0
 62
     0
 10
154.831
 20
59.6124
 30
0.0
 11
154.831
 21
73.612
 31
0.0
  0
LINE
  8
0
 62
     0
 10
173.882
 20
73.612
 30
0.0
 11
187.882
 21
73.612
 31
0.0
  0
LINE
  8
0
 62
     0
 10
187.882
 20
73.612
 30
0.0
 11
187.882
 21
59.6124
 31
0.0
  0
LINE
  8
0
 62
     0
 10
187.882
 20
59.6124
 30
0.0
 11
173.882
 21
59.6124
 31
0.0
  0
LINE
  8
0
 62
     0
 10
173.882
 20
59.6124
 30
0.0
 11
173.882
 21
73.612
 31
0.0
  0
LINE
  8
0
 62
     0
 10
192.931
 20
73.612
 30
0.0
 11
206.932
 21
73.612
 31
0.0
  0
LINE
  8
0
 62
     0
 10
206.932
 20
73.612
 30
0.0
 11
206.932
 21
59.6124
 31
0.0
  0
LINE
  8
0
 62
     0
 10
206.932
 20
59.6124
 30
0.0
 11
192.931
 21
59.6124
 31
0.0
  0
LINE
  8
0
 62
     0
 10
192.931
 20
59.6124
 30
0.0
 11
192.931
 21
73.612
 31
0.0
  0
LINE
  8
0
 62
     0
 10
211.982
 20
73.612
 30
0.0
 11
225.982
 21
73.612
 31
0.0
  0
LINE
  8
0
 62
     0
 10
225.982
 20
73.612
 30
0.0
 11
225.982
 21
59.6124
 31
0.0
  0
LINE
  8
0
 62
     0
 10
225.982
 20
59.6124
 30
0.0
 11
211.982
 21
59.6124
 31
0.0
  0
LINE
  8
0
 62
     0
 10
211.982
 20
59.6124
 30
0.0
 11
211.982
 21
73.612
 31
0.0
  0
LINE
  8
0
 62
     0
 10
231.032
 20
73.612
 30
0.0
 11
245.032
 21
73.612
 31
0.0
  0
LINE
  8
0
 62
     0
 10
245.032
 20
73.612
 30
0.0
 11
245.032
 21
59.6124
 31
0.0
  0
LINE
  8
0
 62
     0
 10
245.032
 20
59.6124
 30
0.0
 11
231.032
 21
59.6124
 31
0.0
  0
LINE
  8
0
 62
     0
 10
231.032
 20
59.6124
 30
0.0
 11
231.032
 21
73.612
 31
0.0
  0
LINE
  8
0
 62
     0
 10
250.081
 20
73.612
 30
0.0
 11
264.082
 21
73.612
 31
0.0
  0
LINE
  8
0
 62
     0
 10
264.082
 20
73.612
 30
0.0
 11
264.082
 21
59.6124
 31
0.0
  0
LINE
  8
0
 62
     0
 10
264.082
 20
59.6124
 30
0.0
 11
250.081
 21
59.6124
 31
0.0
  0
LINE
  8
0
 62
     0
 10
250.081
 20
59.6124
 30
0.0
 11
250.081
 21
73.612
 31
0.0
  0
LINE
  8
0
 62
     0
 10
269.131
 20
73.612
 30
0.0
 11
283.132
 21
73.612
 31
0.0
  0
LINE
  8
0
 62
     0
 10
283.132
 20
73.612
 30
0.0
 11
283.132
 21
59.6124
 31
0.0
  0
LINE
  8
0
 62
     0
 10
283.132
 20
59.6124
 30
0.0
 11
269.131
 21
59.6124
 31
0.0
  0
LINE
  8
0
 62
     0
 10
269.131
 20
59.6124
 30
0.0
 11
269.131
 21
73.612
 31
0.0
  0
LINE
  8
0
 62
     0
 10
2.43086
 20
92.662
 30
0.0
 11
16.4317
 21
92.662
 31
0.0
  0
LINE
  8
0
 62
     0
 10
16.4317
 20
92.662
 30
0.0
 11
16.4317
 21
78.6624
 31
0.0
  0
LINE
  8
0
 62
     0
 10
16.4317
 20
78.6624
 30
0.0
 11
2.43086
 21
78.6624
 31
0.0
  0
LINE
  8
0
 62
     0
 10
2.43086
 20
78.6624
 30
0.0
 11
2.43086
 21
92.662
 31
0.0
  0
LINE
  8
0
 62
     0
 10
21.4809
 20
92.662
 30
0.0
 11
35.4817
 21
92.662
 31
0.0
  0
LINE
  8
0
 62
     0
 10
35.4817
 20
92.662
 30
0.0
 11
35.4817
 21
78.6624
 31
0.0
  0
LINE
  8
0
 62
     0
 10
35.4817
 20
78.6624
 30
0.0
 11
21.4809
 21
78.6624
 31
0.0
  0
LINE
  8
0
 62
     0
 10
21.4809
 20
78.6624
 30
0.0
 11
21.4809
 21
92.662
 31
0.0
  0
LINE
  8
0
 62
     0
 10
40.531
 20
92.662
 30
0.0
 11
54.5317
 21
92.662
 31
0.0
  0
LINE
  8
0
 62
     0
 10
54.5317
 20
92.662
 30
0.0
 11
54.5317
 21
78.6624
 31
0.0
  0
LINE
  8
0
 62
     0
 10
54.5317
 20
78.6624
 30
0.0
 11
40.531
 21
78.6624
 31
0.0
  0
LINE
  8
0
 62
     0
 10
40.531
 20
78.6624
 30
0.0
 11
40.531
 21
92.662
 31
0.0
  0
LINE
  8
0
 62
     0
 10
59.581
 20
92.662
 30
0.0
 11
73.5817
 21
92.662
 31
0.0
  0
LINE
  8
0
 62
     0
 10
73.5817
 20
92.662
 30
0.0
 11
73.5817
 21
78.6624
 31
0.0
  0
LINE
  8
0
 62
     0
 10
73.5817
 20
78.6624
 30
0.0
 11
59.581
 21
78.6624
 31
0.0
  0
LINE
  8
0
 62
     0
 10
59.581
 20
78.6624
 30
0.0
 11
59.581
 21
92.662
 31
0.0
  0
LINE
  8
0
 62
     0
 10
78.6324
 20
92.662
 30
0.0
 11
92.6317
 21
92.662
 31
0.0
  0
LINE
  8
0
 62
     0
 10
92.6317
 20
92.662
 30
0.0
 11
92.6317
 21
78.6624
 31
0.0
  0
LINE
  8
0
 62
     0
 10
92.6317
 20
78.6624
 30
0.0
 11
78.6324
 21
78.6624
 31
0.0
  0
LINE
  8
0
 62
     0
 10
78.6324
 20
78.6624
 30
0.0
 11
78.6324
 21
92.662
 31
0.0
  0
LINE
  8
0
 62
     0
 10
97.6824
 20
92.662
 30
0.0
 11
111.682
 21
92.662
 31
0.0
  0
LINE
  8
0
 62
     0
 10
111.682
 20
92.662
 30
0.0
 11
111.682
 21
78.6624
 31
0.0
  0
LINE
  8
0
 62
     0
 10
111.682
 20
78.6624
 30
0.0
 11
97.6824
 21
78.6624
 31
0.0
  0
LINE
  8
0
 62
     0
 10
97.6824
 20
78.6624
 30
0.0
 11
97.6824
 21
92.662
 31
0.0
  0
LINE
  8
0
 62
     0
 10
116.732
 20
92.662
 30
0.0
 11
130.732
 21
92.662
 31
0.0
  0
LINE
  8
0
 62
     0
 10
130.732
 20
92.662
 30
0.0
 11
130.732
 21
78.6624
 31
0.0
  0
LINE
  8
0
 62
     0
 10
130.732
 20
78.6624
 30
0.0
 11
116.732
 21
78.6624
 31
0.0
  0
LINE
  8
0
 62
     0
 10
116.732
 20
78.6624
 30
0.0
 11
116.732
 21
92.662
 31
0.0
  0
LINE
  8
0
 62
     0
 10
135.782
 20
92.662
 30
0.0
 11
149.782
 21
92.662
 31
0.0
  0
LINE
  8
0
 62
     0
 10
149.782
 20
92.662
 30
0.0
 11
149.782
 21
78.6624
 31
0.0
  0
LINE
  8
0
 62
     0
 10
149.782
 20
78.6624
 30
0.0
 11
135.782
 21
78.6624
 31
0.0
  0
LINE
  8
0
 62
     0
 10
135.782
 20
78.6624
 30
0.0
 11
135.782
 21
92.662
 31
0.0
  0
LINE
  8
0
 62
     0
 10
154.831
 20
92.662
 30
0.0
 11
168.832
 21
92.662
 31
0.0
  0
LINE
  8
0
 62
     0
 10
168.832
 20
92.662
 30
0.0
 11
168.832
 21
78.6624
 31
0.0
  0
LINE
  8
0
 62
     0
 10
168.832
 20
78.6624
 30
0.0
 11
154.831
 21
78.6624
 31
0.0
  0
LINE
  8
0
 62
     0
 10
154.831
 20
78.6624
 30
0.0
 11
154.831
 21
92.662
 31
0.0
  0
LINE
  8
0
 62
     0
 10
173.882
 20
92.662
 30
0.0
 11
187.882
 21
92.662
 31
0.0
  0
LINE
  8
0
 62
     0
 10
187.882
 20
92.662
 30
0.0
 11
187.882
 21
78.6624
 31
0.0
  0
LINE
  8
0
 62
     0
 10
187.882
 20
78.6624
 30
0.0
 11
173.882
 21
78.6624
 31
0.0
  0
LINE
  8
0
 62
     0
 10
173.882
 20
78.6624
 30
0.0
 11
173.882
 21
92.662
 31
0.0
  0
LINE
  8
0
 62
     0
 10
192.931
 20
92.662
 30
0.0
 11
206.932
 21
92.662
 31
0.0
  0
LINE
  8
0
 62
     0
 10
206.932
 20
92.662
 30
0.0
 11
206.932
 21
78.6624
 31
0.0
  0
LINE
  8
0
 62
     0
 10
206.932
 20
78.6624
 30
0.0
 11
192.931
 21
78.6624
 31
0.0
  0
LINE
  8
0
 62
     0
 10
192.931
 20
78.6624
 30
0.0
 11
192.931
 21
92.662
 31
0.0
  0
LINE
  8
0
 62
     0
 10
211.982
 20
92.662
 30
0.0
 11
225.982
 21
92.662
 31
0.0
  0
LINE
  8
0
 62
     0
 10
225.982
 20
92.662
 30
0.0
 11
225.982
 21
78.6624
 31
0.0
  0
LINE
  8
0
 62
     0
 10
225.982
 20
78.6624
 30
0.0
 11
211.982
 21
78.6624
 31
0.0
  0
LINE
  8
0
 62
     0
 10
211.982
 20
78.6624
 30
0.0
 11
211.982
 21
92.662
 31
0.0
  0
LINE
  8
0
 62
     0
 10
231.032
 20
92.662
 30
0.0
 11
245.032
 21
92.662
 31
0.0
  0
LINE
  8
0
 62
     0
 10
245.032
 20
92.662
 30
0.0
 11
245.032
 21
78.6624
 31
0.0
  0
LINE
  8
0
 62
     0
 10
245.032
 20
78.6624
 30
0.0
 11
231.032
 21
78.6624
 31
0.0
  0
LINE
  8
0
 62
     0
 10
231.032
 20
78.6624
 30
0.0
 11
231.032
 21
92.662
 31
0.0
  0
LINE
  8
0
 62
     0
 10
250.081
 20
92.662
 30
0.0
 11
264.082
 21
92.662
 31
0.0
  0
LINE
  8
0
 62
     0
 10
264.082
 20
92.662
 30
0.0
 11
264.082
 21
78.6624
 31
0.0
  0
LINE
  8
0
 62
     0
 10
264.082
 20
78.6624
 30
0.0
 11
250.081
 21
78.6624
 31
0.0
  0
LINE
  8
0
 62
     0
 10
250.081
 20
78.6624
 30
0.0
 11
250.081
 21
92.662
 31
0.0
  0
LINE
  8
0
 62
     0
 10
269.131
 20
92.662
 30
0.0
 11
283.132
 21
92.662
 31
0.0
  0
LINE
  8
0
 62
     0
 10
283.132
 20
92.662
 30
0.0
 11
283.132
 21
78.6624
 31
0.0
  0
LINE
  8
0
 62
     0
 10
283.132
 20
78.6624
 30
0.0
 11
269.131
 21
78.6624
 31
0.0
  0
LINE
  8
0
 62
     0
 10
269.131
 20
78.6624
 30
0.0
 11
269.131
 21
92.662
 31
0.0
  0
ENDSEC
  0
EOF
