G04 #@! TF.GenerationSoftware,KiCad,Pcbnew,(5.1.4-0-10_14)*
G04 #@! TF.CreationDate,2019-12-14T20:50:31+01:00*
G04 #@! TF.ProjectId,tripel,74726970-656c-42e6-9b69-6361645f7063,rev?*
G04 #@! TF.SameCoordinates,Original*
G04 #@! TF.FileFunction,Legend,Bot*
G04 #@! TF.FilePolarity,Positive*
%FSLAX46Y46*%
G04 Gerber Fmt 4.6, Leading zero omitted, Abs format (unit mm)*
G04 Created by KiCad (PCBNEW (5.1.4-0-10_14)) date 2019-12-14 20:50:31*
%MOMM*%
%LPD*%
G04 APERTURE LIST*
%ADD10C,0.300000*%
%ADD11C,2.000000*%
%ADD12C,0.150000*%
%ADD13C,0.120000*%
%ADD14C,0.200000*%
%ADD15C,0.381000*%
%ADD16C,0.100000*%
G04 APERTURE END LIST*
D10*
X132692857Y-38828571D02*
X132692857Y-40042857D01*
X132621428Y-40185714D01*
X132550000Y-40257142D01*
X132407142Y-40328571D01*
X132121428Y-40328571D01*
X131978571Y-40257142D01*
X131907142Y-40185714D01*
X131835714Y-40042857D01*
X131835714Y-38828571D01*
X131192857Y-40257142D02*
X130978571Y-40328571D01*
X130621428Y-40328571D01*
X130478571Y-40257142D01*
X130407142Y-40185714D01*
X130335714Y-40042857D01*
X130335714Y-39900000D01*
X130407142Y-39757142D01*
X130478571Y-39685714D01*
X130621428Y-39614285D01*
X130907142Y-39542857D01*
X131050000Y-39471428D01*
X131121428Y-39400000D01*
X131192857Y-39257142D01*
X131192857Y-39114285D01*
X131121428Y-38971428D01*
X131050000Y-38900000D01*
X130907142Y-38828571D01*
X130550000Y-38828571D01*
X130335714Y-38900000D01*
X129192857Y-39542857D02*
X128978571Y-39614285D01*
X128907142Y-39685714D01*
X128835714Y-39828571D01*
X128835714Y-40042857D01*
X128907142Y-40185714D01*
X128978571Y-40257142D01*
X129121428Y-40328571D01*
X129692857Y-40328571D01*
X129692857Y-38828571D01*
X129192857Y-38828571D01*
X129050000Y-38900000D01*
X128978571Y-38971428D01*
X128907142Y-39114285D01*
X128907142Y-39257142D01*
X128978571Y-39400000D01*
X129050000Y-39471428D01*
X129192857Y-39542857D01*
X129692857Y-39542857D01*
D11*
X172918534Y-95181445D02*
X163521607Y-98601646D01*
X164868956Y-114834045D02*
X178293136Y-109948043D01*
X168032532Y-81757264D01*
X154608351Y-86643267D01*
X139363013Y-124117449D02*
X152787193Y-119231447D01*
X142526589Y-91040668D01*
X259022849Y-48661361D02*
X242913833Y-54524563D01*
X261228945Y-79783740D02*
X250968341Y-51592962D01*
X227668494Y-91998746D02*
X232179419Y-75154364D01*
X243777511Y-86135543D02*
X233516907Y-57944764D01*
X222777562Y-61853566D01*
X220581326Y-64173185D01*
X219727509Y-66004203D01*
X219362291Y-69177639D01*
X220828092Y-73204893D01*
X223147710Y-75401129D01*
X224978728Y-76254947D01*
X228152165Y-76620164D01*
X238891509Y-72711363D01*
X215586732Y-96396147D02*
X205326128Y-68205369D01*
X202162552Y-101282149D02*
X191901948Y-73091371D01*
X181162603Y-77000172D01*
X178966368Y-79319791D01*
X178112550Y-81150809D01*
X177747332Y-84324245D01*
X179213133Y-88351500D01*
X181532751Y-90547735D01*
X183363769Y-91401553D01*
X186537206Y-91766771D01*
X197276550Y-87857969D01*
X163726999Y-48597807D02*
X147617982Y-54461009D01*
X165933095Y-79720187D02*
X155672490Y-51529408D01*
X132372644Y-91935192D02*
X136883568Y-75090810D01*
X148481660Y-86071989D02*
X138221056Y-57881211D01*
X127481712Y-61790012D01*
X125285476Y-64109631D01*
X124431658Y-65940649D01*
X124066441Y-69114085D01*
X125532241Y-73141339D01*
X127851860Y-75337575D01*
X129682878Y-76191393D01*
X132856314Y-76556611D01*
X143595658Y-72647809D01*
X120290882Y-96332594D02*
X110030277Y-68141815D01*
X106866701Y-101218596D02*
X96606097Y-73027817D01*
X85866753Y-76936619D01*
X83670517Y-79256237D01*
X82816699Y-81087255D01*
X82451482Y-84260692D01*
X83917282Y-88287946D01*
X86236901Y-90484182D01*
X88067919Y-91338000D01*
X91241355Y-91703217D01*
X101980699Y-87794415D01*
X73301321Y-96712602D02*
X63904394Y-100132803D01*
X65251743Y-116365202D02*
X78675923Y-111479200D01*
X68415319Y-83288421D01*
X54991138Y-88174424D01*
X39745800Y-125648606D02*
X53169980Y-120762604D01*
X42909376Y-92571825D01*
D12*
X116266369Y-118524404D02*
X116266369Y-117952976D01*
X115266369Y-118238690D02*
X116266369Y-118238690D01*
X115266369Y-117476785D02*
X115313988Y-117572023D01*
X115361607Y-117619642D01*
X115456845Y-117667261D01*
X115742559Y-117667261D01*
X115837797Y-117619642D01*
X115885416Y-117572023D01*
X115933035Y-117476785D01*
X115933035Y-117333928D01*
X115885416Y-117238690D01*
X115837797Y-117191071D01*
X115742559Y-117143452D01*
X115456845Y-117143452D01*
X115361607Y-117191071D01*
X115313988Y-117238690D01*
X115266369Y-117333928D01*
X115266369Y-117476785D01*
X115266369Y-115810119D02*
X115313988Y-115905357D01*
X115409226Y-115952976D01*
X116266369Y-115952976D01*
X115313988Y-115048214D02*
X115266369Y-115143452D01*
X115266369Y-115333928D01*
X115313988Y-115429166D01*
X115409226Y-115476785D01*
X115790178Y-115476785D01*
X115885416Y-115429166D01*
X115933035Y-115333928D01*
X115933035Y-115143452D01*
X115885416Y-115048214D01*
X115790178Y-115000595D01*
X115694940Y-115000595D01*
X115599702Y-115476785D01*
X115933035Y-114714880D02*
X115933035Y-114333928D01*
X115266369Y-114572023D02*
X116123511Y-114572023D01*
X116218750Y-114524404D01*
X116266369Y-114429166D01*
X116266369Y-114333928D01*
X115933035Y-114143452D02*
X115933035Y-113762500D01*
X116266369Y-114000595D02*
X115409226Y-114000595D01*
X115313988Y-113952976D01*
X115266369Y-113857738D01*
X115266369Y-113762500D01*
X115266369Y-112667261D02*
X116266369Y-112667261D01*
X116266369Y-112286309D01*
X116218750Y-112191071D01*
X116171130Y-112143452D01*
X116075892Y-112095833D01*
X115933035Y-112095833D01*
X115837797Y-112143452D01*
X115790178Y-112191071D01*
X115742559Y-112286309D01*
X115742559Y-112667261D01*
X115361607Y-111095833D02*
X115313988Y-111143452D01*
X115266369Y-111286309D01*
X115266369Y-111381547D01*
X115313988Y-111524404D01*
X115409226Y-111619642D01*
X115504464Y-111667261D01*
X115694940Y-111714880D01*
X115837797Y-111714880D01*
X116028273Y-111667261D01*
X116123511Y-111619642D01*
X116218750Y-111524404D01*
X116266369Y-111381547D01*
X116266369Y-111286309D01*
X116218750Y-111143452D01*
X116171130Y-111095833D01*
X115790178Y-110333928D02*
X115742559Y-110191071D01*
X115694940Y-110143452D01*
X115599702Y-110095833D01*
X115456845Y-110095833D01*
X115361607Y-110143452D01*
X115313988Y-110191071D01*
X115266369Y-110286309D01*
X115266369Y-110667261D01*
X116266369Y-110667261D01*
X116266369Y-110333928D01*
X116218750Y-110238690D01*
X116171130Y-110191071D01*
X116075892Y-110143452D01*
X115980654Y-110143452D01*
X115885416Y-110191071D01*
X115837797Y-110238690D01*
X115790178Y-110333928D01*
X115790178Y-110667261D01*
X202483630Y-109524404D02*
X202483630Y-110095833D01*
X203483630Y-109810119D02*
X202483630Y-109810119D01*
X203483630Y-110572023D02*
X203436011Y-110476785D01*
X203388392Y-110429166D01*
X203293154Y-110381547D01*
X203007440Y-110381547D01*
X202912202Y-110429166D01*
X202864583Y-110476785D01*
X202816964Y-110572023D01*
X202816964Y-110714880D01*
X202864583Y-110810119D01*
X202912202Y-110857738D01*
X203007440Y-110905357D01*
X203293154Y-110905357D01*
X203388392Y-110857738D01*
X203436011Y-110810119D01*
X203483630Y-110714880D01*
X203483630Y-110572023D01*
X203483630Y-112095833D02*
X202816964Y-112095833D01*
X203007440Y-112095833D02*
X202912202Y-112143452D01*
X202864583Y-112191071D01*
X202816964Y-112286309D01*
X202816964Y-112381547D01*
X203483630Y-112714880D02*
X202816964Y-112714880D01*
X202483630Y-112714880D02*
X202531250Y-112667261D01*
X202578869Y-112714880D01*
X202531250Y-112762500D01*
X202483630Y-112714880D01*
X202578869Y-112714880D01*
X202816964Y-113619642D02*
X203626488Y-113619642D01*
X203721726Y-113572023D01*
X203769345Y-113524404D01*
X203816964Y-113429166D01*
X203816964Y-113286309D01*
X203769345Y-113191071D01*
X203436011Y-113619642D02*
X203483630Y-113524404D01*
X203483630Y-113333928D01*
X203436011Y-113238690D01*
X203388392Y-113191071D01*
X203293154Y-113143452D01*
X203007440Y-113143452D01*
X202912202Y-113191071D01*
X202864583Y-113238690D01*
X202816964Y-113333928D01*
X202816964Y-113524404D01*
X202864583Y-113619642D01*
X203483630Y-114095833D02*
X202483630Y-114095833D01*
X203483630Y-114524404D02*
X202959821Y-114524404D01*
X202864583Y-114476785D01*
X202816964Y-114381547D01*
X202816964Y-114238690D01*
X202864583Y-114143452D01*
X202912202Y-114095833D01*
X202816964Y-114857738D02*
X202816964Y-115238690D01*
X202483630Y-115000595D02*
X203340773Y-115000595D01*
X203436011Y-115048214D01*
X203483630Y-115143452D01*
X203483630Y-115238690D01*
X203483630Y-116333928D02*
X202483630Y-116333928D01*
X202483630Y-116714880D01*
X202531250Y-116810119D01*
X202578869Y-116857738D01*
X202674107Y-116905357D01*
X202816964Y-116905357D01*
X202912202Y-116857738D01*
X202959821Y-116810119D01*
X203007440Y-116714880D01*
X203007440Y-116333928D01*
X203388392Y-117905357D02*
X203436011Y-117857738D01*
X203483630Y-117714880D01*
X203483630Y-117619642D01*
X203436011Y-117476785D01*
X203340773Y-117381547D01*
X203245535Y-117333928D01*
X203055059Y-117286309D01*
X202912202Y-117286309D01*
X202721726Y-117333928D01*
X202626488Y-117381547D01*
X202531250Y-117476785D01*
X202483630Y-117619642D01*
X202483630Y-117714880D01*
X202531250Y-117857738D01*
X202578869Y-117905357D01*
X202959821Y-118667261D02*
X203007440Y-118810119D01*
X203055059Y-118857738D01*
X203150297Y-118905357D01*
X203293154Y-118905357D01*
X203388392Y-118857738D01*
X203436011Y-118810119D01*
X203483630Y-118714880D01*
X203483630Y-118333928D01*
X202483630Y-118333928D01*
X202483630Y-118667261D01*
X202531250Y-118762500D01*
X202578869Y-118810119D01*
X202674107Y-118857738D01*
X202769345Y-118857738D01*
X202864583Y-118810119D01*
X202912202Y-118762500D01*
X202959821Y-118667261D01*
X202959821Y-118333928D01*
X202880505Y-71900595D02*
X202880505Y-72472023D01*
X203880505Y-72186309D02*
X202880505Y-72186309D01*
X203880505Y-72948214D02*
X203832886Y-72852976D01*
X203785267Y-72805357D01*
X203690029Y-72757738D01*
X203404315Y-72757738D01*
X203309077Y-72805357D01*
X203261458Y-72852976D01*
X203213839Y-72948214D01*
X203213839Y-73091071D01*
X203261458Y-73186309D01*
X203309077Y-73233928D01*
X203404315Y-73281547D01*
X203690029Y-73281547D01*
X203785267Y-73233928D01*
X203832886Y-73186309D01*
X203880505Y-73091071D01*
X203880505Y-72948214D01*
X203880505Y-74614880D02*
X203832886Y-74519642D01*
X203737648Y-74472023D01*
X202880505Y-74472023D01*
X203832886Y-75376785D02*
X203880505Y-75281547D01*
X203880505Y-75091071D01*
X203832886Y-74995833D01*
X203737648Y-74948214D01*
X203356696Y-74948214D01*
X203261458Y-74995833D01*
X203213839Y-75091071D01*
X203213839Y-75281547D01*
X203261458Y-75376785D01*
X203356696Y-75424404D01*
X203451934Y-75424404D01*
X203547172Y-74948214D01*
X203213839Y-75710119D02*
X203213839Y-76091071D01*
X203880505Y-75852976D02*
X203023363Y-75852976D01*
X202928125Y-75900595D01*
X202880505Y-75995833D01*
X202880505Y-76091071D01*
X203213839Y-76281547D02*
X203213839Y-76662500D01*
X202880505Y-76424404D02*
X203737648Y-76424404D01*
X203832886Y-76472023D01*
X203880505Y-76567261D01*
X203880505Y-76662500D01*
X203880505Y-77757738D02*
X202880505Y-77757738D01*
X202880505Y-78138690D01*
X202928125Y-78233928D01*
X202975744Y-78281547D01*
X203070982Y-78329166D01*
X203213839Y-78329166D01*
X203309077Y-78281547D01*
X203356696Y-78233928D01*
X203404315Y-78138690D01*
X203404315Y-77757738D01*
X203785267Y-79329166D02*
X203832886Y-79281547D01*
X203880505Y-79138690D01*
X203880505Y-79043452D01*
X203832886Y-78900595D01*
X203737648Y-78805357D01*
X203642410Y-78757738D01*
X203451934Y-78710119D01*
X203309077Y-78710119D01*
X203118601Y-78757738D01*
X203023363Y-78805357D01*
X202928125Y-78900595D01*
X202880505Y-79043452D01*
X202880505Y-79138690D01*
X202928125Y-79281547D01*
X202975744Y-79329166D01*
X203356696Y-80091071D02*
X203404315Y-80233928D01*
X203451934Y-80281547D01*
X203547172Y-80329166D01*
X203690029Y-80329166D01*
X203785267Y-80281547D01*
X203832886Y-80233928D01*
X203880505Y-80138690D01*
X203880505Y-79757738D01*
X202880505Y-79757738D01*
X202880505Y-80091071D01*
X202928125Y-80186309D01*
X202975744Y-80233928D01*
X203070982Y-80281547D01*
X203166220Y-80281547D01*
X203261458Y-80233928D01*
X203309077Y-80186309D01*
X203356696Y-80091071D01*
X203356696Y-79757738D01*
X116266369Y-61850595D02*
X116266369Y-61279166D01*
X115266369Y-61564880D02*
X116266369Y-61564880D01*
X115266369Y-60802976D02*
X115313988Y-60898214D01*
X115361607Y-60945833D01*
X115456845Y-60993452D01*
X115742559Y-60993452D01*
X115837797Y-60945833D01*
X115885416Y-60898214D01*
X115933035Y-60802976D01*
X115933035Y-60660119D01*
X115885416Y-60564880D01*
X115837797Y-60517261D01*
X115742559Y-60469642D01*
X115456845Y-60469642D01*
X115361607Y-60517261D01*
X115313988Y-60564880D01*
X115266369Y-60660119D01*
X115266369Y-60802976D01*
X115266369Y-59279166D02*
X115933035Y-59279166D01*
X115742559Y-59279166D02*
X115837797Y-59231547D01*
X115885416Y-59183928D01*
X115933035Y-59088690D01*
X115933035Y-58993452D01*
X115266369Y-58660119D02*
X115933035Y-58660119D01*
X116266369Y-58660119D02*
X116218750Y-58707738D01*
X116171130Y-58660119D01*
X116218750Y-58612500D01*
X116266369Y-58660119D01*
X116171130Y-58660119D01*
X115933035Y-57755357D02*
X115123511Y-57755357D01*
X115028273Y-57802976D01*
X114980654Y-57850595D01*
X114933035Y-57945833D01*
X114933035Y-58088690D01*
X114980654Y-58183928D01*
X115313988Y-57755357D02*
X115266369Y-57850595D01*
X115266369Y-58041071D01*
X115313988Y-58136309D01*
X115361607Y-58183928D01*
X115456845Y-58231547D01*
X115742559Y-58231547D01*
X115837797Y-58183928D01*
X115885416Y-58136309D01*
X115933035Y-58041071D01*
X115933035Y-57850595D01*
X115885416Y-57755357D01*
X115266369Y-57279166D02*
X116266369Y-57279166D01*
X115266369Y-56850595D02*
X115790178Y-56850595D01*
X115885416Y-56898214D01*
X115933035Y-56993452D01*
X115933035Y-57136309D01*
X115885416Y-57231547D01*
X115837797Y-57279166D01*
X115933035Y-56517261D02*
X115933035Y-56136309D01*
X116266369Y-56374404D02*
X115409226Y-56374404D01*
X115313988Y-56326785D01*
X115266369Y-56231547D01*
X115266369Y-56136309D01*
X115266369Y-55041071D02*
X116266369Y-55041071D01*
X116266369Y-54660119D01*
X116218750Y-54564880D01*
X116171130Y-54517261D01*
X116075892Y-54469642D01*
X115933035Y-54469642D01*
X115837797Y-54517261D01*
X115790178Y-54564880D01*
X115742559Y-54660119D01*
X115742559Y-55041071D01*
X115361607Y-53469642D02*
X115313988Y-53517261D01*
X115266369Y-53660119D01*
X115266369Y-53755357D01*
X115313988Y-53898214D01*
X115409226Y-53993452D01*
X115504464Y-54041071D01*
X115694940Y-54088690D01*
X115837797Y-54088690D01*
X116028273Y-54041071D01*
X116123511Y-53993452D01*
X116218750Y-53898214D01*
X116266369Y-53755357D01*
X116266369Y-53660119D01*
X116218750Y-53517261D01*
X116171130Y-53469642D01*
X115790178Y-52707738D02*
X115742559Y-52564880D01*
X115694940Y-52517261D01*
X115599702Y-52469642D01*
X115456845Y-52469642D01*
X115361607Y-52517261D01*
X115313988Y-52564880D01*
X115266369Y-52660119D01*
X115266369Y-53041071D01*
X116266369Y-53041071D01*
X116266369Y-52707738D01*
X116218750Y-52612500D01*
X116171130Y-52564880D01*
X116075892Y-52517261D01*
X115980654Y-52517261D01*
X115885416Y-52564880D01*
X115837797Y-52612500D01*
X115790178Y-52707738D01*
X115790178Y-53041071D01*
X166503601Y-91299255D02*
X166503601Y-90299255D01*
X166170267Y-91013541D01*
X165836934Y-90299255D01*
X165836934Y-91299255D01*
X165360744Y-91299255D02*
X165360744Y-90632589D01*
X165360744Y-90299255D02*
X165408363Y-90346875D01*
X165360744Y-90394494D01*
X165313125Y-90346875D01*
X165360744Y-90299255D01*
X165360744Y-90394494D01*
X164455982Y-91299255D02*
X164455982Y-90299255D01*
X164455982Y-91251636D02*
X164551220Y-91299255D01*
X164741696Y-91299255D01*
X164836934Y-91251636D01*
X164884553Y-91204017D01*
X164932172Y-91108779D01*
X164932172Y-90823065D01*
X164884553Y-90727827D01*
X164836934Y-90680208D01*
X164741696Y-90632589D01*
X164551220Y-90632589D01*
X164455982Y-90680208D01*
X163551220Y-91299255D02*
X163551220Y-90299255D01*
X163551220Y-91251636D02*
X163646458Y-91299255D01*
X163836934Y-91299255D01*
X163932172Y-91251636D01*
X163979791Y-91204017D01*
X164027410Y-91108779D01*
X164027410Y-90823065D01*
X163979791Y-90727827D01*
X163932172Y-90680208D01*
X163836934Y-90632589D01*
X163646458Y-90632589D01*
X163551220Y-90680208D01*
X162932172Y-91299255D02*
X163027410Y-91251636D01*
X163075029Y-91156398D01*
X163075029Y-90299255D01*
X162170267Y-91251636D02*
X162265505Y-91299255D01*
X162455982Y-91299255D01*
X162551220Y-91251636D01*
X162598839Y-91156398D01*
X162598839Y-90775446D01*
X162551220Y-90680208D01*
X162455982Y-90632589D01*
X162265505Y-90632589D01*
X162170267Y-90680208D01*
X162122648Y-90775446D01*
X162122648Y-90870684D01*
X162598839Y-90965922D01*
X160932172Y-91299255D02*
X160932172Y-90299255D01*
X160551220Y-90299255D01*
X160455982Y-90346875D01*
X160408363Y-90394494D01*
X160360744Y-90489732D01*
X160360744Y-90632589D01*
X160408363Y-90727827D01*
X160455982Y-90775446D01*
X160551220Y-90823065D01*
X160932172Y-90823065D01*
X159360744Y-91204017D02*
X159408363Y-91251636D01*
X159551220Y-91299255D01*
X159646458Y-91299255D01*
X159789315Y-91251636D01*
X159884553Y-91156398D01*
X159932172Y-91061160D01*
X159979791Y-90870684D01*
X159979791Y-90727827D01*
X159932172Y-90537351D01*
X159884553Y-90442113D01*
X159789315Y-90346875D01*
X159646458Y-90299255D01*
X159551220Y-90299255D01*
X159408363Y-90346875D01*
X159360744Y-90394494D01*
X158598839Y-90775446D02*
X158455982Y-90823065D01*
X158408363Y-90870684D01*
X158360744Y-90965922D01*
X158360744Y-91108779D01*
X158408363Y-91204017D01*
X158455982Y-91251636D01*
X158551220Y-91299255D01*
X158932172Y-91299255D01*
X158932172Y-90299255D01*
X158598839Y-90299255D01*
X158503601Y-90346875D01*
X158455982Y-90394494D01*
X158408363Y-90489732D01*
X158408363Y-90584970D01*
X158455982Y-90680208D01*
X158503601Y-90727827D01*
X158598839Y-90775446D01*
X158932172Y-90775446D01*
X157027410Y-91299255D02*
X157122648Y-91251636D01*
X157170267Y-91204017D01*
X157217886Y-91108779D01*
X157217886Y-90823065D01*
X157170267Y-90727827D01*
X157122648Y-90680208D01*
X157027410Y-90632589D01*
X156884553Y-90632589D01*
X156789315Y-90680208D01*
X156741696Y-90727827D01*
X156694077Y-90823065D01*
X156694077Y-91108779D01*
X156741696Y-91204017D01*
X156789315Y-91251636D01*
X156884553Y-91299255D01*
X157027410Y-91299255D01*
X156265505Y-90632589D02*
X156265505Y-91299255D01*
X156265505Y-90727827D02*
X156217886Y-90680208D01*
X156122648Y-90632589D01*
X155979791Y-90632589D01*
X155884553Y-90680208D01*
X155836934Y-90775446D01*
X155836934Y-91299255D01*
X155217886Y-91299255D02*
X155313125Y-91251636D01*
X155360744Y-91156398D01*
X155360744Y-90299255D01*
X154932172Y-90632589D02*
X154694077Y-91299255D01*
X154455982Y-90632589D02*
X154694077Y-91299255D01*
X154789315Y-91537351D01*
X154836934Y-91584970D01*
X154932172Y-91632589D01*
X127635000Y-38100000D02*
X134112000Y-38100000D01*
X126887500Y-45777000D02*
X126887500Y-36377000D01*
X134687500Y-45777000D02*
X126887500Y-45777000D01*
X134687500Y-36377000D02*
X134687500Y-45777000D01*
X134687500Y-36377000D02*
X126887500Y-36377000D01*
D13*
X200437500Y-127168750D02*
X196437500Y-126168750D01*
X198437500Y-134168750D02*
X194437500Y-133168750D01*
X200437500Y-127168750D02*
X197437500Y-130168750D01*
X195437500Y-122168750D02*
X199437500Y-123168750D01*
X193437500Y-129168750D02*
X197437500Y-130168750D01*
X197437500Y-130168750D02*
X200437500Y-127168750D01*
X193437500Y-129168750D02*
X192437500Y-125168750D01*
X200437500Y-127168750D02*
X199437500Y-123168750D01*
X188437500Y-124168750D02*
X192437500Y-125168750D01*
X193437500Y-129168750D02*
X197437500Y-130168750D01*
X198437500Y-134168750D02*
X197437500Y-130168750D01*
X190437500Y-132168750D02*
X194437500Y-133168750D01*
X193437500Y-129168750D02*
X192437500Y-125168750D01*
X191437500Y-136168750D02*
X190437500Y-132168750D01*
X195437500Y-122168750D02*
X192437500Y-125168750D01*
X200437500Y-127168750D02*
X199437500Y-123168750D01*
X191437500Y-136168750D02*
X190437500Y-132168750D01*
X193437500Y-129168750D02*
X189437500Y-128168750D01*
X194437500Y-133168750D02*
X193437500Y-129168750D01*
X197437500Y-130168750D02*
X196437500Y-126168750D01*
X188437500Y-124168750D02*
X192437500Y-125168750D01*
X192437500Y-125168750D02*
X195437500Y-122168750D01*
X189437500Y-128168750D02*
X188437500Y-124168750D01*
X192437500Y-125168750D02*
X196437500Y-126168750D01*
X192437500Y-125168750D02*
X189437500Y-128168750D01*
X197437500Y-130168750D02*
X194437500Y-133168750D01*
X194437500Y-133168750D02*
X191437500Y-136168750D01*
X190437500Y-132168750D02*
X189437500Y-128168750D01*
X193437500Y-129168750D02*
X190437500Y-132168750D01*
X198437500Y-134168750D02*
X197437500Y-130168750D01*
X196437500Y-126168750D02*
X193437500Y-129168750D01*
X196437500Y-126168750D02*
X195437500Y-122168750D01*
X190437500Y-132168750D02*
X193437500Y-129168750D01*
X195437500Y-122168750D02*
X199437500Y-123168750D01*
X190437500Y-132168750D02*
X187437500Y-135168750D01*
X199437500Y-123168750D02*
X196437500Y-126168750D01*
X195437500Y-122168750D02*
X191437500Y-121168750D01*
X197437500Y-115168750D02*
X194437500Y-118168750D01*
X192437500Y-110168750D02*
X196437500Y-111168750D01*
X190437500Y-117168750D02*
X194437500Y-118168750D01*
X194437500Y-118168750D02*
X197437500Y-115168750D01*
X190437500Y-117168750D02*
X189437500Y-113168750D01*
X197437500Y-115168750D02*
X196437500Y-111168750D01*
X185437500Y-112168750D02*
X189437500Y-113168750D01*
X190437500Y-117168750D02*
X194437500Y-118168750D01*
X195437500Y-122168750D02*
X194437500Y-118168750D01*
X187437500Y-120168750D02*
X191437500Y-121168750D01*
X190437500Y-117168750D02*
X189437500Y-113168750D01*
X188437500Y-124168750D02*
X187437500Y-120168750D01*
X192437500Y-110168750D02*
X189437500Y-113168750D01*
X197437500Y-115168750D02*
X196437500Y-111168750D01*
X188437500Y-124168750D02*
X187437500Y-120168750D01*
X190437500Y-117168750D02*
X186437500Y-116168750D01*
X191437500Y-121168750D02*
X190437500Y-117168750D01*
X194437500Y-118168750D02*
X193437500Y-114168750D01*
X185437500Y-112168750D02*
X189437500Y-113168750D01*
X189437500Y-113168750D02*
X192437500Y-110168750D01*
X192437500Y-125168750D02*
X191437500Y-121168750D01*
X186437500Y-116168750D02*
X185437500Y-112168750D01*
X189437500Y-113168750D02*
X193437500Y-114168750D01*
X189437500Y-113168750D02*
X186437500Y-116168750D01*
X194437500Y-118168750D02*
X191437500Y-121168750D01*
X191437500Y-121168750D02*
X188437500Y-124168750D01*
X187437500Y-120168750D02*
X186437500Y-116168750D01*
X190437500Y-117168750D02*
X187437500Y-120168750D01*
X195437500Y-122168750D02*
X194437500Y-118168750D01*
X193437500Y-114168750D02*
X190437500Y-117168750D01*
X193437500Y-114168750D02*
X192437500Y-110168750D01*
X187437500Y-120168750D02*
X190437500Y-117168750D01*
X192437500Y-110168750D02*
X196437500Y-111168750D01*
X187437500Y-120168750D02*
X184437500Y-123168750D01*
X196437500Y-111168750D02*
X193437500Y-114168750D01*
X197437500Y-115168750D02*
X193437500Y-114168750D01*
X160437500Y-102168750D02*
X164437500Y-103168750D01*
X164437500Y-103168750D02*
X167437500Y-100168750D01*
X167437500Y-115168750D02*
X166437500Y-111168750D01*
X161437500Y-106168750D02*
X160437500Y-102168750D01*
X164437500Y-103168750D02*
X168437500Y-104168750D01*
X164437500Y-103168750D02*
X161437500Y-106168750D01*
X169437500Y-108168750D02*
X166437500Y-111168750D01*
X166437500Y-111168750D02*
X163437500Y-114168750D01*
X162437500Y-110168750D02*
X161437500Y-106168750D01*
X165437500Y-107168750D02*
X162437500Y-110168750D01*
X170437500Y-112168750D02*
X169437500Y-108168750D01*
X168437500Y-104168750D02*
X165437500Y-107168750D01*
X168437500Y-104168750D02*
X167437500Y-100168750D01*
X162437500Y-110168750D02*
X165437500Y-107168750D01*
X167437500Y-100168750D02*
X171437500Y-101168750D01*
X162437500Y-110168750D02*
X159437500Y-113168750D01*
X160437500Y-102168750D02*
X164437500Y-103168750D01*
X165437500Y-107168750D02*
X169437500Y-108168750D01*
X169437500Y-108168750D02*
X172437500Y-105168750D01*
X165437500Y-107168750D02*
X164437500Y-103168750D01*
X167437500Y-100168750D02*
X164437500Y-103168750D01*
X172437500Y-105168750D02*
X171437500Y-101168750D01*
X171437500Y-101168750D02*
X168437500Y-104168750D01*
X172437500Y-105168750D02*
X168437500Y-104168750D01*
X167437500Y-100168750D02*
X171437500Y-101168750D01*
X165437500Y-107168750D02*
X169437500Y-108168750D01*
X169437500Y-108168750D02*
X168437500Y-104168750D01*
X172437500Y-105168750D02*
X171437500Y-101168750D01*
X163437500Y-114168750D02*
X162437500Y-110168750D01*
X170437500Y-112168750D02*
X169437500Y-108168750D01*
X170437500Y-112168750D02*
X166437500Y-111168750D01*
X166437500Y-111168750D02*
X165437500Y-107168750D01*
X172437500Y-105168750D02*
X169437500Y-108168750D01*
X165437500Y-107168750D02*
X164437500Y-103168750D01*
X162437500Y-110168750D02*
X166437500Y-111168750D01*
X165437500Y-107168750D02*
X161437500Y-106168750D01*
X163437500Y-114168750D02*
X162437500Y-110168750D01*
X156437500Y-101168750D02*
X153437500Y-104168750D01*
X156437500Y-101168750D02*
X155437500Y-97168750D01*
X158437500Y-109168750D02*
X155437500Y-112168750D01*
X150437500Y-107168750D02*
X153437500Y-104168750D01*
X155437500Y-97168750D02*
X159437500Y-98168750D01*
X157437500Y-105168750D02*
X160437500Y-102168750D01*
X153437500Y-104168750D02*
X152437500Y-100168750D01*
X155437500Y-97168750D02*
X152437500Y-100168750D01*
X160437500Y-102168750D02*
X159437500Y-98168750D01*
X159437500Y-98168750D02*
X156437500Y-101168750D01*
X160437500Y-102168750D02*
X156437500Y-101168750D01*
X155437500Y-97168750D02*
X159437500Y-98168750D01*
X153437500Y-104168750D02*
X157437500Y-105168750D01*
X157437500Y-105168750D02*
X156437500Y-101168750D01*
X160437500Y-102168750D02*
X159437500Y-98168750D01*
X151437500Y-111168750D02*
X150437500Y-107168750D01*
X150437500Y-107168750D02*
X147437500Y-110168750D01*
X148437500Y-99168750D02*
X152437500Y-100168750D01*
X155437500Y-112168750D02*
X158437500Y-109168750D01*
X151437500Y-111168750D02*
X150437500Y-107168750D01*
X151437500Y-111168750D02*
X155437500Y-112168750D01*
X158437500Y-109168750D02*
X157437500Y-105168750D01*
X160437500Y-102168750D02*
X157437500Y-105168750D01*
X153437500Y-104168750D02*
X152437500Y-100168750D01*
X153437500Y-104168750D02*
X150437500Y-107168750D01*
X158437500Y-109168750D02*
X157437500Y-105168750D01*
X157437500Y-105168750D02*
X154437500Y-108168750D01*
X154437500Y-108168750D02*
X151437500Y-111168750D01*
X154437500Y-108168750D02*
X153437500Y-104168750D01*
X158437500Y-109168750D02*
X154437500Y-108168750D01*
X153437500Y-104168750D02*
X157437500Y-105168750D01*
X151437500Y-111168750D02*
X155437500Y-112168750D01*
X153437500Y-104168750D02*
X149437500Y-103168750D01*
X152437500Y-100168750D02*
X149437500Y-103168750D01*
X155437500Y-112168750D02*
X154437500Y-108168750D01*
X150437500Y-107168750D02*
X154437500Y-108168750D01*
X148437500Y-99168750D02*
X152437500Y-100168750D01*
X152437500Y-100168750D02*
X155437500Y-97168750D01*
X150437500Y-107168750D02*
X149437500Y-103168750D01*
X149437500Y-103168750D02*
X148437500Y-99168750D01*
X152437500Y-100168750D02*
X156437500Y-101168750D01*
X151437500Y-111168750D02*
X147437500Y-110168750D01*
X155437500Y-112168750D02*
X159437500Y-113168750D01*
X155437500Y-112168750D02*
X152437500Y-115168750D01*
X160437500Y-117168750D02*
X159437500Y-113168750D01*
X159437500Y-113168750D02*
X156437500Y-116168750D01*
X156437500Y-116168750D02*
X155437500Y-112168750D01*
X155437500Y-112168750D02*
X159437500Y-113168750D01*
X160437500Y-117168750D02*
X159437500Y-113168750D01*
X152437500Y-115168750D02*
X155437500Y-112168750D01*
X148437500Y-114168750D02*
X147437500Y-110168750D01*
X147437500Y-110168750D02*
X144437500Y-113168750D01*
X143437500Y-109168750D02*
X147437500Y-110168750D01*
X145437500Y-102168750D02*
X142437500Y-105168750D01*
X146437500Y-106168750D02*
X142437500Y-105168750D01*
X141437500Y-101168750D02*
X145437500Y-102168750D01*
X141437500Y-101168750D02*
X145437500Y-102168750D01*
X137437500Y-115168750D02*
X133437500Y-114168750D01*
X139437500Y-108168750D02*
X138437500Y-104168750D01*
X141437500Y-101168750D02*
X138437500Y-104168750D01*
X146437500Y-106168750D02*
X145437500Y-102168750D01*
X143437500Y-109168750D02*
X146437500Y-106168750D01*
X142437500Y-105168750D02*
X141437500Y-101168750D01*
X142437500Y-105168750D02*
X139437500Y-108168750D01*
X144437500Y-113168750D02*
X141437500Y-116168750D01*
X137437500Y-115168750D02*
X136437500Y-111168750D01*
X136437500Y-111168750D02*
X133437500Y-114168750D01*
X144437500Y-113168750D02*
X143437500Y-109168750D01*
X146437500Y-106168750D02*
X143437500Y-109168750D01*
X139437500Y-108168750D02*
X138437500Y-104168750D01*
X139437500Y-108168750D02*
X136437500Y-111168750D01*
X144437500Y-113168750D02*
X143437500Y-109168750D01*
X143437500Y-109168750D02*
X140437500Y-112168750D01*
X140437500Y-112168750D02*
X137437500Y-115168750D01*
X140437500Y-112168750D02*
X139437500Y-108168750D01*
X137437500Y-115168750D02*
X141437500Y-116168750D01*
X139437500Y-108168750D02*
X135437500Y-107168750D01*
X138437500Y-104168750D02*
X135437500Y-107168750D01*
X141437500Y-116168750D02*
X140437500Y-112168750D01*
X136437500Y-111168750D02*
X140437500Y-112168750D01*
X134437500Y-103168750D02*
X138437500Y-104168750D01*
X138437500Y-104168750D02*
X141437500Y-101168750D01*
X136437500Y-111168750D02*
X135437500Y-107168750D01*
X135437500Y-107168750D02*
X134437500Y-103168750D01*
X138437500Y-104168750D02*
X142437500Y-105168750D01*
X134437500Y-103168750D02*
X138437500Y-104168750D01*
X141437500Y-116168750D02*
X144437500Y-113168750D01*
X137437500Y-115168750D02*
X136437500Y-111168750D01*
X137437500Y-115168750D02*
X141437500Y-116168750D01*
X144437500Y-113168750D02*
X140437500Y-112168750D01*
X139437500Y-108168750D02*
X143437500Y-109168750D01*
X136437500Y-111168750D02*
X139437500Y-108168750D01*
X139437500Y-108168750D02*
X143437500Y-109168750D01*
X143437500Y-109168750D02*
X142437500Y-105168750D01*
X146437500Y-106168750D02*
X145437500Y-102168750D01*
X134437500Y-103168750D02*
X131437500Y-106168750D01*
X135437500Y-107168750D02*
X131437500Y-106168750D01*
X130437500Y-102168750D02*
X134437500Y-103168750D01*
X130437500Y-102168750D02*
X134437500Y-103168750D01*
X126437500Y-116168750D02*
X122437500Y-115168750D01*
X128437500Y-109168750D02*
X127437500Y-105168750D01*
X130437500Y-102168750D02*
X127437500Y-105168750D01*
X135437500Y-107168750D02*
X134437500Y-103168750D01*
X132437500Y-110168750D02*
X135437500Y-107168750D01*
X131437500Y-106168750D02*
X130437500Y-102168750D01*
X131437500Y-106168750D02*
X128437500Y-109168750D01*
X133437500Y-114168750D02*
X130437500Y-117168750D01*
X126437500Y-116168750D02*
X125437500Y-112168750D01*
X125437500Y-112168750D02*
X122437500Y-115168750D01*
X133437500Y-114168750D02*
X132437500Y-110168750D01*
X135437500Y-107168750D02*
X132437500Y-110168750D01*
X128437500Y-109168750D02*
X127437500Y-105168750D01*
X128437500Y-109168750D02*
X125437500Y-112168750D01*
X133437500Y-114168750D02*
X132437500Y-110168750D01*
X132437500Y-110168750D02*
X129437500Y-113168750D01*
X129437500Y-113168750D02*
X126437500Y-116168750D01*
X129437500Y-113168750D02*
X128437500Y-109168750D01*
X126437500Y-116168750D02*
X130437500Y-117168750D01*
X128437500Y-109168750D02*
X124437500Y-108168750D01*
X127437500Y-105168750D02*
X124437500Y-108168750D01*
X130437500Y-117168750D02*
X129437500Y-113168750D01*
X125437500Y-112168750D02*
X129437500Y-113168750D01*
X123437500Y-104168750D02*
X127437500Y-105168750D01*
X127437500Y-105168750D02*
X130437500Y-102168750D01*
X125437500Y-112168750D02*
X124437500Y-108168750D01*
X124437500Y-108168750D02*
X123437500Y-104168750D01*
X127437500Y-105168750D02*
X131437500Y-106168750D01*
X123437500Y-104168750D02*
X127437500Y-105168750D01*
X130437500Y-117168750D02*
X133437500Y-114168750D01*
X126437500Y-116168750D02*
X125437500Y-112168750D01*
X126437500Y-116168750D02*
X130437500Y-117168750D01*
X133437500Y-114168750D02*
X129437500Y-113168750D01*
X128437500Y-109168750D02*
X132437500Y-110168750D01*
X125437500Y-112168750D02*
X128437500Y-109168750D01*
X128437500Y-109168750D02*
X132437500Y-110168750D01*
X132437500Y-110168750D02*
X131437500Y-106168750D01*
X135437500Y-107168750D02*
X134437500Y-103168750D01*
X133437500Y-129168750D02*
X130437500Y-132168750D01*
X134437500Y-133168750D02*
X130437500Y-132168750D01*
X129437500Y-128168750D02*
X133437500Y-129168750D01*
X129437500Y-128168750D02*
X133437500Y-129168750D01*
X125437500Y-142168750D02*
X121437500Y-141168750D01*
X127437500Y-135168750D02*
X126437500Y-131168750D01*
X129437500Y-128168750D02*
X126437500Y-131168750D01*
X134437500Y-133168750D02*
X133437500Y-129168750D01*
X131437500Y-136168750D02*
X134437500Y-133168750D01*
X130437500Y-132168750D02*
X129437500Y-128168750D01*
X130437500Y-132168750D02*
X127437500Y-135168750D01*
X132437500Y-140168750D02*
X129437500Y-143168750D01*
X125437500Y-142168750D02*
X124437500Y-138168750D01*
X124437500Y-138168750D02*
X121437500Y-141168750D01*
X132437500Y-140168750D02*
X131437500Y-136168750D01*
X134437500Y-133168750D02*
X131437500Y-136168750D01*
X127437500Y-135168750D02*
X126437500Y-131168750D01*
X127437500Y-135168750D02*
X124437500Y-138168750D01*
X132437500Y-140168750D02*
X131437500Y-136168750D01*
X131437500Y-136168750D02*
X128437500Y-139168750D01*
X128437500Y-139168750D02*
X125437500Y-142168750D01*
X128437500Y-139168750D02*
X127437500Y-135168750D01*
X125437500Y-142168750D02*
X129437500Y-143168750D01*
X127437500Y-135168750D02*
X123437500Y-134168750D01*
X126437500Y-131168750D02*
X123437500Y-134168750D01*
X129437500Y-143168750D02*
X128437500Y-139168750D01*
X124437500Y-138168750D02*
X128437500Y-139168750D01*
X122437500Y-130168750D02*
X126437500Y-131168750D01*
X126437500Y-131168750D02*
X129437500Y-128168750D01*
X124437500Y-138168750D02*
X123437500Y-134168750D01*
X123437500Y-134168750D02*
X122437500Y-130168750D01*
X126437500Y-131168750D02*
X130437500Y-132168750D01*
X122437500Y-130168750D02*
X126437500Y-131168750D01*
X129437500Y-143168750D02*
X132437500Y-140168750D01*
X125437500Y-142168750D02*
X124437500Y-138168750D01*
X125437500Y-142168750D02*
X129437500Y-143168750D01*
X132437500Y-140168750D02*
X128437500Y-139168750D01*
X127437500Y-135168750D02*
X131437500Y-136168750D01*
X124437500Y-138168750D02*
X127437500Y-135168750D01*
X127437500Y-135168750D02*
X131437500Y-136168750D01*
X131437500Y-136168750D02*
X130437500Y-132168750D01*
X134437500Y-133168750D02*
X133437500Y-129168750D01*
X129437500Y-128168750D02*
X125437500Y-127168750D01*
X131437500Y-121168750D02*
X130437500Y-117168750D01*
X133437500Y-114168750D02*
X130437500Y-117168750D01*
X138437500Y-119168750D02*
X137437500Y-115168750D01*
X137437500Y-115168750D02*
X134437500Y-118168750D01*
X138437500Y-119168750D02*
X134437500Y-118168750D01*
X133437500Y-114168750D02*
X137437500Y-115168750D01*
X131437500Y-121168750D02*
X135437500Y-122168750D01*
X135437500Y-122168750D02*
X134437500Y-118168750D01*
X138437500Y-119168750D02*
X137437500Y-115168750D01*
X129437500Y-128168750D02*
X128437500Y-124168750D01*
X128437500Y-124168750D02*
X125437500Y-127168750D01*
X136437500Y-126168750D02*
X135437500Y-122168750D01*
X138437500Y-119168750D02*
X135437500Y-122168750D01*
X131437500Y-121168750D02*
X130437500Y-117168750D01*
X131437500Y-121168750D02*
X128437500Y-124168750D01*
X136437500Y-126168750D02*
X135437500Y-122168750D01*
X135437500Y-122168750D02*
X132437500Y-125168750D01*
X132437500Y-125168750D02*
X129437500Y-128168750D01*
X132437500Y-125168750D02*
X131437500Y-121168750D01*
X129437500Y-128168750D02*
X133437500Y-129168750D01*
X131437500Y-121168750D02*
X127437500Y-120168750D01*
X130437500Y-117168750D02*
X127437500Y-120168750D01*
X133437500Y-129168750D02*
X132437500Y-125168750D01*
X128437500Y-124168750D02*
X132437500Y-125168750D01*
X126437500Y-116168750D02*
X130437500Y-117168750D01*
X130437500Y-117168750D02*
X133437500Y-114168750D01*
X128437500Y-124168750D02*
X127437500Y-120168750D01*
X127437500Y-120168750D02*
X126437500Y-116168750D01*
X130437500Y-117168750D02*
X134437500Y-118168750D01*
X126437500Y-116168750D02*
X130437500Y-117168750D01*
X133437500Y-129168750D02*
X136437500Y-126168750D01*
X129437500Y-128168750D02*
X128437500Y-124168750D01*
X129437500Y-128168750D02*
X133437500Y-129168750D01*
X136437500Y-126168750D02*
X132437500Y-125168750D01*
X131437500Y-121168750D02*
X135437500Y-122168750D01*
X134437500Y-118168750D02*
X131437500Y-121168750D01*
X134437500Y-118168750D02*
X133437500Y-114168750D01*
X136437500Y-126168750D02*
X133437500Y-129168750D01*
X128437500Y-124168750D02*
X131437500Y-121168750D01*
X133437500Y-114168750D02*
X137437500Y-115168750D01*
X135437500Y-122168750D02*
X138437500Y-119168750D01*
X133437500Y-129168750D02*
X137437500Y-130168750D01*
X140437500Y-142168750D02*
X143437500Y-139168750D01*
X136437500Y-141168750D02*
X135437500Y-137168750D01*
X136437500Y-141168750D02*
X140437500Y-142168750D01*
X143437500Y-139168750D02*
X139437500Y-138168750D01*
X138437500Y-134168750D02*
X142437500Y-135168750D01*
X141437500Y-131168750D02*
X138437500Y-134168750D01*
X141437500Y-131168750D02*
X140437500Y-127168750D01*
X143437500Y-139168750D02*
X140437500Y-142168750D01*
X135437500Y-137168750D02*
X138437500Y-134168750D01*
X140437500Y-127168750D02*
X144437500Y-128168750D01*
X142437500Y-135168750D02*
X145437500Y-132168750D01*
X138437500Y-134168750D02*
X137437500Y-130168750D01*
X140437500Y-127168750D02*
X137437500Y-130168750D01*
X145437500Y-132168750D02*
X144437500Y-128168750D01*
X144437500Y-128168750D02*
X141437500Y-131168750D01*
X145437500Y-132168750D02*
X141437500Y-131168750D01*
X140437500Y-127168750D02*
X144437500Y-128168750D01*
X138437500Y-134168750D02*
X142437500Y-135168750D01*
X142437500Y-135168750D02*
X141437500Y-131168750D01*
X145437500Y-132168750D02*
X144437500Y-128168750D01*
X136437500Y-141168750D02*
X135437500Y-137168750D01*
X135437500Y-137168750D02*
X132437500Y-140168750D01*
X143437500Y-139168750D02*
X142437500Y-135168750D01*
X145437500Y-132168750D02*
X142437500Y-135168750D01*
X138437500Y-134168750D02*
X137437500Y-130168750D01*
X138437500Y-134168750D02*
X135437500Y-137168750D01*
X143437500Y-139168750D02*
X142437500Y-135168750D01*
X142437500Y-135168750D02*
X139437500Y-138168750D01*
X139437500Y-138168750D02*
X136437500Y-141168750D01*
X139437500Y-138168750D02*
X138437500Y-134168750D01*
X136437500Y-141168750D02*
X140437500Y-142168750D01*
X138437500Y-134168750D02*
X134437500Y-133168750D01*
X137437500Y-130168750D02*
X134437500Y-133168750D01*
X140437500Y-142168750D02*
X139437500Y-138168750D01*
X135437500Y-137168750D02*
X139437500Y-138168750D01*
X133437500Y-129168750D02*
X137437500Y-130168750D01*
X137437500Y-130168750D02*
X140437500Y-127168750D01*
X135437500Y-137168750D02*
X134437500Y-133168750D01*
X134437500Y-133168750D02*
X133437500Y-129168750D01*
X137437500Y-130168750D02*
X141437500Y-131168750D01*
X136437500Y-141168750D02*
X132437500Y-140168750D01*
X147437500Y-125168750D02*
X143437500Y-124168750D01*
X142437500Y-120168750D02*
X146437500Y-121168750D01*
X145437500Y-117168750D02*
X142437500Y-120168750D01*
X145437500Y-117168750D02*
X144437500Y-113168750D01*
X147437500Y-125168750D02*
X144437500Y-128168750D01*
X139437500Y-123168750D02*
X142437500Y-120168750D01*
X144437500Y-113168750D02*
X148437500Y-114168750D01*
X146437500Y-121168750D02*
X149437500Y-118168750D01*
X142437500Y-120168750D02*
X141437500Y-116168750D01*
X144437500Y-113168750D02*
X141437500Y-116168750D01*
X149437500Y-118168750D02*
X148437500Y-114168750D01*
X148437500Y-114168750D02*
X145437500Y-117168750D01*
X149437500Y-118168750D02*
X145437500Y-117168750D01*
X144437500Y-113168750D02*
X148437500Y-114168750D01*
X142437500Y-120168750D02*
X146437500Y-121168750D01*
X146437500Y-121168750D02*
X145437500Y-117168750D01*
X149437500Y-118168750D02*
X148437500Y-114168750D01*
X140437500Y-127168750D02*
X139437500Y-123168750D01*
X139437500Y-123168750D02*
X136437500Y-126168750D01*
X137437500Y-115168750D02*
X141437500Y-116168750D01*
X144437500Y-128168750D02*
X147437500Y-125168750D01*
X140437500Y-127168750D02*
X139437500Y-123168750D01*
X140437500Y-127168750D02*
X144437500Y-128168750D01*
X147437500Y-125168750D02*
X146437500Y-121168750D01*
X149437500Y-118168750D02*
X146437500Y-121168750D01*
X142437500Y-120168750D02*
X141437500Y-116168750D01*
X142437500Y-120168750D02*
X139437500Y-123168750D01*
X147437500Y-125168750D02*
X146437500Y-121168750D01*
X146437500Y-121168750D02*
X143437500Y-124168750D01*
X143437500Y-124168750D02*
X140437500Y-127168750D01*
X143437500Y-124168750D02*
X142437500Y-120168750D01*
X140437500Y-127168750D02*
X144437500Y-128168750D01*
X142437500Y-120168750D02*
X138437500Y-119168750D01*
X141437500Y-116168750D02*
X138437500Y-119168750D01*
X144437500Y-128168750D02*
X143437500Y-124168750D01*
X139437500Y-123168750D02*
X143437500Y-124168750D01*
X137437500Y-115168750D02*
X141437500Y-116168750D01*
X141437500Y-116168750D02*
X144437500Y-113168750D01*
X139437500Y-123168750D02*
X138437500Y-119168750D01*
X138437500Y-119168750D02*
X137437500Y-115168750D01*
X141437500Y-116168750D02*
X145437500Y-117168750D01*
X140437500Y-127168750D02*
X136437500Y-126168750D01*
X152437500Y-145168750D02*
X148437500Y-144168750D01*
X147437500Y-140168750D02*
X151437500Y-141168750D01*
X150437500Y-137168750D02*
X147437500Y-140168750D01*
X150437500Y-137168750D02*
X149437500Y-133168750D01*
X152437500Y-145168750D02*
X149437500Y-148168750D01*
X144437500Y-143168750D02*
X147437500Y-140168750D01*
X149437500Y-133168750D02*
X153437500Y-134168750D01*
X151437500Y-141168750D02*
X154437500Y-138168750D01*
X147437500Y-140168750D02*
X146437500Y-136168750D01*
X149437500Y-133168750D02*
X146437500Y-136168750D01*
X154437500Y-138168750D02*
X153437500Y-134168750D01*
X153437500Y-134168750D02*
X150437500Y-137168750D01*
X154437500Y-138168750D02*
X150437500Y-137168750D01*
X149437500Y-133168750D02*
X153437500Y-134168750D01*
X147437500Y-140168750D02*
X151437500Y-141168750D01*
X151437500Y-141168750D02*
X150437500Y-137168750D01*
X154437500Y-138168750D02*
X153437500Y-134168750D01*
X145437500Y-147168750D02*
X144437500Y-143168750D01*
X144437500Y-143168750D02*
X141437500Y-146168750D01*
X142437500Y-135168750D02*
X146437500Y-136168750D01*
X149437500Y-148168750D02*
X152437500Y-145168750D01*
X145437500Y-147168750D02*
X144437500Y-143168750D01*
X145437500Y-147168750D02*
X149437500Y-148168750D01*
X152437500Y-145168750D02*
X151437500Y-141168750D01*
X154437500Y-138168750D02*
X151437500Y-141168750D01*
X147437500Y-140168750D02*
X146437500Y-136168750D01*
X147437500Y-140168750D02*
X144437500Y-143168750D01*
X152437500Y-145168750D02*
X151437500Y-141168750D01*
X151437500Y-141168750D02*
X148437500Y-144168750D01*
X148437500Y-144168750D02*
X145437500Y-147168750D01*
X148437500Y-144168750D02*
X147437500Y-140168750D01*
X145437500Y-147168750D02*
X149437500Y-148168750D01*
X147437500Y-140168750D02*
X143437500Y-139168750D01*
X146437500Y-136168750D02*
X143437500Y-139168750D01*
X149437500Y-148168750D02*
X148437500Y-144168750D01*
X144437500Y-143168750D02*
X148437500Y-144168750D01*
X142437500Y-135168750D02*
X146437500Y-136168750D01*
X146437500Y-136168750D02*
X149437500Y-133168750D01*
X144437500Y-143168750D02*
X143437500Y-139168750D01*
X143437500Y-139168750D02*
X142437500Y-135168750D01*
X146437500Y-136168750D02*
X150437500Y-137168750D01*
X145437500Y-147168750D02*
X141437500Y-146168750D01*
X159437500Y-143168750D02*
X156437500Y-146168750D01*
X159437500Y-143168750D02*
X158437500Y-139168750D01*
X161437500Y-151168750D02*
X158437500Y-154168750D01*
X153437500Y-149168750D02*
X156437500Y-146168750D01*
X158437500Y-139168750D02*
X162437500Y-140168750D01*
X160437500Y-147168750D02*
X163437500Y-144168750D01*
X156437500Y-146168750D02*
X155437500Y-142168750D01*
X158437500Y-139168750D02*
X155437500Y-142168750D01*
X163437500Y-144168750D02*
X162437500Y-140168750D01*
X162437500Y-140168750D02*
X159437500Y-143168750D01*
X163437500Y-144168750D02*
X159437500Y-143168750D01*
X158437500Y-139168750D02*
X162437500Y-140168750D01*
X156437500Y-146168750D02*
X160437500Y-147168750D01*
X160437500Y-147168750D02*
X159437500Y-143168750D01*
X163437500Y-144168750D02*
X162437500Y-140168750D01*
X154437500Y-153168750D02*
X153437500Y-149168750D01*
X153437500Y-149168750D02*
X150437500Y-152168750D01*
X151437500Y-141168750D02*
X155437500Y-142168750D01*
X158437500Y-154168750D02*
X161437500Y-151168750D01*
X154437500Y-153168750D02*
X153437500Y-149168750D01*
X154437500Y-153168750D02*
X158437500Y-154168750D01*
X161437500Y-151168750D02*
X160437500Y-147168750D01*
X163437500Y-144168750D02*
X160437500Y-147168750D01*
X156437500Y-146168750D02*
X155437500Y-142168750D01*
X156437500Y-146168750D02*
X153437500Y-149168750D01*
X161437500Y-151168750D02*
X160437500Y-147168750D01*
X160437500Y-147168750D02*
X157437500Y-150168750D01*
X157437500Y-150168750D02*
X154437500Y-153168750D01*
X157437500Y-150168750D02*
X156437500Y-146168750D01*
X161437500Y-151168750D02*
X157437500Y-150168750D01*
X156437500Y-146168750D02*
X160437500Y-147168750D01*
X154437500Y-153168750D02*
X158437500Y-154168750D01*
X156437500Y-146168750D02*
X152437500Y-145168750D01*
X155437500Y-142168750D02*
X152437500Y-145168750D01*
X158437500Y-154168750D02*
X157437500Y-150168750D01*
X153437500Y-149168750D02*
X157437500Y-150168750D01*
X151437500Y-141168750D02*
X155437500Y-142168750D01*
X155437500Y-142168750D02*
X158437500Y-139168750D01*
X153437500Y-149168750D02*
X152437500Y-145168750D01*
X152437500Y-145168750D02*
X151437500Y-141168750D01*
X155437500Y-142168750D02*
X159437500Y-143168750D01*
X154437500Y-153168750D02*
X150437500Y-152168750D01*
X170437500Y-142168750D02*
X167437500Y-145168750D01*
X170437500Y-142168750D02*
X169437500Y-138168750D01*
X172437500Y-150168750D02*
X169437500Y-153168750D01*
X164437500Y-148168750D02*
X167437500Y-145168750D01*
X169437500Y-138168750D02*
X173437500Y-139168750D01*
X171437500Y-146168750D02*
X174437500Y-143168750D01*
X167437500Y-145168750D02*
X166437500Y-141168750D01*
X169437500Y-138168750D02*
X166437500Y-141168750D01*
X174437500Y-143168750D02*
X173437500Y-139168750D01*
X173437500Y-139168750D02*
X170437500Y-142168750D01*
X174437500Y-143168750D02*
X170437500Y-142168750D01*
X169437500Y-138168750D02*
X173437500Y-139168750D01*
X167437500Y-145168750D02*
X171437500Y-146168750D01*
X171437500Y-146168750D02*
X170437500Y-142168750D01*
X174437500Y-143168750D02*
X173437500Y-139168750D01*
X165437500Y-152168750D02*
X164437500Y-148168750D01*
X164437500Y-148168750D02*
X161437500Y-151168750D01*
X162437500Y-140168750D02*
X166437500Y-141168750D01*
X169437500Y-153168750D02*
X172437500Y-150168750D01*
X165437500Y-152168750D02*
X164437500Y-148168750D01*
X165437500Y-152168750D02*
X169437500Y-153168750D01*
X172437500Y-150168750D02*
X171437500Y-146168750D01*
X174437500Y-143168750D02*
X171437500Y-146168750D01*
X167437500Y-145168750D02*
X166437500Y-141168750D01*
X167437500Y-145168750D02*
X164437500Y-148168750D01*
X172437500Y-150168750D02*
X171437500Y-146168750D01*
X171437500Y-146168750D02*
X168437500Y-149168750D01*
X168437500Y-149168750D02*
X165437500Y-152168750D01*
X168437500Y-149168750D02*
X167437500Y-145168750D01*
X172437500Y-150168750D02*
X168437500Y-149168750D01*
X167437500Y-145168750D02*
X171437500Y-146168750D01*
X165437500Y-152168750D02*
X169437500Y-153168750D01*
X167437500Y-145168750D02*
X163437500Y-144168750D01*
X166437500Y-141168750D02*
X163437500Y-144168750D01*
X169437500Y-153168750D02*
X168437500Y-149168750D01*
X164437500Y-148168750D02*
X168437500Y-149168750D01*
X162437500Y-140168750D02*
X166437500Y-141168750D01*
X166437500Y-141168750D02*
X169437500Y-138168750D01*
X164437500Y-148168750D02*
X163437500Y-144168750D01*
X163437500Y-144168750D02*
X162437500Y-140168750D01*
X166437500Y-141168750D02*
X170437500Y-142168750D01*
X165437500Y-152168750D02*
X161437500Y-151168750D01*
X184437500Y-138168750D02*
X181437500Y-141168750D01*
X184437500Y-138168750D02*
X183437500Y-134168750D01*
X186437500Y-146168750D02*
X183437500Y-149168750D01*
X178437500Y-144168750D02*
X181437500Y-141168750D01*
X183437500Y-134168750D02*
X187437500Y-135168750D01*
X185437500Y-142168750D02*
X188437500Y-139168750D01*
X181437500Y-141168750D02*
X180437500Y-137168750D01*
X183437500Y-134168750D02*
X180437500Y-137168750D01*
X188437500Y-139168750D02*
X187437500Y-135168750D01*
X187437500Y-135168750D02*
X184437500Y-138168750D01*
X188437500Y-139168750D02*
X184437500Y-138168750D01*
X183437500Y-134168750D02*
X187437500Y-135168750D01*
X181437500Y-141168750D02*
X185437500Y-142168750D01*
X185437500Y-142168750D02*
X184437500Y-138168750D01*
X188437500Y-139168750D02*
X187437500Y-135168750D01*
X179437500Y-148168750D02*
X178437500Y-144168750D01*
X178437500Y-144168750D02*
X175437500Y-147168750D01*
X176437500Y-136168750D02*
X180437500Y-137168750D01*
X183437500Y-149168750D02*
X186437500Y-146168750D01*
X179437500Y-148168750D02*
X178437500Y-144168750D01*
X179437500Y-148168750D02*
X183437500Y-149168750D01*
X186437500Y-146168750D02*
X185437500Y-142168750D01*
X188437500Y-139168750D02*
X185437500Y-142168750D01*
X181437500Y-141168750D02*
X180437500Y-137168750D01*
X181437500Y-141168750D02*
X178437500Y-144168750D01*
X186437500Y-146168750D02*
X185437500Y-142168750D01*
X185437500Y-142168750D02*
X182437500Y-145168750D01*
X182437500Y-145168750D02*
X179437500Y-148168750D01*
X182437500Y-145168750D02*
X181437500Y-141168750D01*
X186437500Y-146168750D02*
X182437500Y-145168750D01*
X181437500Y-141168750D02*
X185437500Y-142168750D01*
X179437500Y-148168750D02*
X183437500Y-149168750D01*
X181437500Y-141168750D02*
X177437500Y-140168750D01*
X180437500Y-137168750D02*
X177437500Y-140168750D01*
X183437500Y-149168750D02*
X182437500Y-145168750D01*
X178437500Y-144168750D02*
X182437500Y-145168750D01*
X176437500Y-136168750D02*
X180437500Y-137168750D01*
X180437500Y-137168750D02*
X183437500Y-134168750D01*
X178437500Y-144168750D02*
X177437500Y-140168750D01*
X177437500Y-140168750D02*
X176437500Y-136168750D01*
X180437500Y-137168750D02*
X184437500Y-138168750D01*
X179437500Y-148168750D02*
X175437500Y-147168750D01*
X184437500Y-108168750D02*
X181437500Y-111168750D01*
X184437500Y-108168750D02*
X183437500Y-104168750D01*
X186437500Y-116168750D02*
X183437500Y-119168750D01*
X178437500Y-114168750D02*
X181437500Y-111168750D01*
X183437500Y-104168750D02*
X187437500Y-105168750D01*
X185437500Y-112168750D02*
X188437500Y-109168750D01*
X181437500Y-111168750D02*
X180437500Y-107168750D01*
X183437500Y-104168750D02*
X180437500Y-107168750D01*
X188437500Y-109168750D02*
X187437500Y-105168750D01*
X187437500Y-105168750D02*
X184437500Y-108168750D01*
X188437500Y-109168750D02*
X184437500Y-108168750D01*
X183437500Y-104168750D02*
X187437500Y-105168750D01*
X181437500Y-111168750D02*
X185437500Y-112168750D01*
X185437500Y-112168750D02*
X184437500Y-108168750D01*
X188437500Y-109168750D02*
X187437500Y-105168750D01*
X179437500Y-118168750D02*
X178437500Y-114168750D01*
X178437500Y-114168750D02*
X175437500Y-117168750D01*
X176437500Y-106168750D02*
X180437500Y-107168750D01*
X183437500Y-119168750D02*
X186437500Y-116168750D01*
X179437500Y-118168750D02*
X178437500Y-114168750D01*
X179437500Y-118168750D02*
X183437500Y-119168750D01*
X186437500Y-116168750D02*
X185437500Y-112168750D01*
X188437500Y-109168750D02*
X185437500Y-112168750D01*
X181437500Y-111168750D02*
X180437500Y-107168750D01*
X181437500Y-111168750D02*
X178437500Y-114168750D01*
X186437500Y-116168750D02*
X185437500Y-112168750D01*
X185437500Y-112168750D02*
X182437500Y-115168750D01*
X182437500Y-115168750D02*
X179437500Y-118168750D01*
X182437500Y-115168750D02*
X181437500Y-111168750D01*
X186437500Y-116168750D02*
X182437500Y-115168750D01*
X181437500Y-111168750D02*
X185437500Y-112168750D01*
X179437500Y-118168750D02*
X183437500Y-119168750D01*
X181437500Y-111168750D02*
X177437500Y-110168750D01*
X180437500Y-107168750D02*
X177437500Y-110168750D01*
X183437500Y-119168750D02*
X182437500Y-115168750D01*
X178437500Y-114168750D02*
X182437500Y-115168750D01*
X176437500Y-106168750D02*
X180437500Y-107168750D01*
X180437500Y-107168750D02*
X183437500Y-104168750D01*
X178437500Y-114168750D02*
X177437500Y-110168750D01*
X177437500Y-110168750D02*
X176437500Y-106168750D01*
X180437500Y-107168750D02*
X184437500Y-108168750D01*
X179437500Y-118168750D02*
X175437500Y-117168750D01*
X178437500Y-129168750D02*
X181437500Y-126168750D01*
X183437500Y-119168750D02*
X187437500Y-120168750D01*
X185437500Y-127168750D02*
X188437500Y-124168750D01*
X181437500Y-126168750D02*
X180437500Y-122168750D01*
X183437500Y-119168750D02*
X180437500Y-122168750D01*
X188437500Y-124168750D02*
X187437500Y-120168750D01*
X187437500Y-120168750D02*
X184437500Y-123168750D01*
X184437500Y-123168750D02*
X181437500Y-126168750D01*
X184437500Y-123168750D02*
X183437500Y-119168750D01*
X188437500Y-124168750D02*
X184437500Y-123168750D01*
X183437500Y-119168750D02*
X187437500Y-120168750D01*
X181437500Y-126168750D02*
X185437500Y-127168750D01*
X185437500Y-127168750D02*
X184437500Y-123168750D01*
X188437500Y-124168750D02*
X187437500Y-120168750D01*
X179437500Y-133168750D02*
X178437500Y-129168750D01*
X178437500Y-129168750D02*
X175437500Y-132168750D01*
X176437500Y-121168750D02*
X180437500Y-122168750D01*
X183437500Y-134168750D02*
X186437500Y-131168750D01*
X179437500Y-133168750D02*
X178437500Y-129168750D01*
X179437500Y-133168750D02*
X183437500Y-134168750D01*
X186437500Y-131168750D02*
X185437500Y-127168750D01*
X188437500Y-124168750D02*
X185437500Y-127168750D01*
X181437500Y-126168750D02*
X180437500Y-122168750D01*
X181437500Y-126168750D02*
X178437500Y-129168750D01*
X186437500Y-131168750D02*
X185437500Y-127168750D01*
X185437500Y-127168750D02*
X182437500Y-130168750D01*
X182437500Y-130168750D02*
X179437500Y-133168750D01*
X182437500Y-130168750D02*
X181437500Y-126168750D01*
X186437500Y-131168750D02*
X182437500Y-130168750D01*
X181437500Y-126168750D02*
X185437500Y-127168750D01*
X179437500Y-133168750D02*
X183437500Y-134168750D01*
X181437500Y-126168750D02*
X177437500Y-125168750D01*
X180437500Y-122168750D02*
X177437500Y-125168750D01*
X183437500Y-134168750D02*
X182437500Y-130168750D01*
X178437500Y-129168750D02*
X182437500Y-130168750D01*
X176437500Y-121168750D02*
X180437500Y-122168750D01*
X180437500Y-122168750D02*
X183437500Y-119168750D01*
X178437500Y-129168750D02*
X177437500Y-125168750D01*
X179437500Y-133168750D02*
X175437500Y-132168750D01*
X177437500Y-125168750D02*
X176437500Y-121168750D01*
X186437500Y-131168750D02*
X183437500Y-134168750D01*
X180437500Y-122168750D02*
X184437500Y-123168750D01*
X164437500Y-133168750D02*
X168437500Y-134168750D01*
X168437500Y-134168750D02*
X167437500Y-130168750D01*
X172437500Y-135168750D02*
X168437500Y-134168750D01*
X169437500Y-138168750D02*
X168437500Y-134168750D01*
X167437500Y-130168750D02*
X171437500Y-131168750D01*
X165437500Y-137168750D02*
X169437500Y-138168750D01*
X169437500Y-138168750D02*
X172437500Y-135168750D01*
X165437500Y-137168750D02*
X164437500Y-133168750D01*
X167437500Y-130168750D02*
X164437500Y-133168750D01*
X172437500Y-135168750D02*
X171437500Y-131168750D01*
X171437500Y-131168750D02*
X168437500Y-134168750D01*
X168437500Y-134168750D02*
X165437500Y-137168750D01*
X178437500Y-129168750D02*
X177437500Y-125168750D01*
X171437500Y-131168750D02*
X175437500Y-132168750D01*
X174437500Y-128168750D02*
X178437500Y-129168750D01*
X173437500Y-139168750D02*
X176437500Y-136168750D01*
X174437500Y-128168750D02*
X173437500Y-124168750D01*
X176437500Y-121168750D02*
X173437500Y-124168750D01*
X176437500Y-136168750D02*
X175437500Y-132168750D01*
X175437500Y-132168750D02*
X172437500Y-135168750D01*
X177437500Y-125168750D02*
X174437500Y-128168750D01*
X177437500Y-125168750D02*
X176437500Y-121168750D01*
X176437500Y-136168750D02*
X172437500Y-135168750D01*
X173437500Y-124168750D02*
X177437500Y-125168750D01*
X168437500Y-119168750D02*
X171437500Y-116168750D01*
X164437500Y-118168750D02*
X163437500Y-114168750D01*
X166437500Y-111168750D02*
X163437500Y-114168750D01*
X171437500Y-116168750D02*
X170437500Y-112168750D01*
X170437500Y-112168750D02*
X167437500Y-115168750D01*
X167437500Y-115168750D02*
X164437500Y-118168750D01*
X167437500Y-115168750D02*
X166437500Y-111168750D01*
X171437500Y-116168750D02*
X167437500Y-115168750D01*
X166437500Y-111168750D02*
X170437500Y-112168750D01*
X164437500Y-118168750D02*
X168437500Y-119168750D01*
X168437500Y-119168750D02*
X167437500Y-115168750D01*
X163437500Y-114168750D02*
X167437500Y-115168750D01*
X173437500Y-124168750D02*
X176437500Y-121168750D01*
X169437500Y-123168750D02*
X168437500Y-119168750D01*
X171437500Y-116168750D02*
X168437500Y-119168750D01*
X176437500Y-121168750D02*
X175437500Y-117168750D01*
X175437500Y-117168750D02*
X172437500Y-120168750D01*
X172437500Y-120168750D02*
X169437500Y-123168750D01*
X172437500Y-120168750D02*
X171437500Y-116168750D01*
X176437500Y-121168750D02*
X172437500Y-120168750D01*
X171437500Y-116168750D02*
X175437500Y-117168750D01*
X169437500Y-123168750D02*
X173437500Y-124168750D01*
X173437500Y-124168750D02*
X172437500Y-120168750D01*
X168437500Y-119168750D02*
X172437500Y-120168750D01*
X171437500Y-131168750D02*
X174437500Y-128168750D01*
X167437500Y-130168750D02*
X166437500Y-126168750D01*
X169437500Y-123168750D02*
X166437500Y-126168750D01*
X174437500Y-128168750D02*
X173437500Y-124168750D01*
X173437500Y-124168750D02*
X170437500Y-127168750D01*
X170437500Y-127168750D02*
X167437500Y-130168750D01*
X170437500Y-127168750D02*
X169437500Y-123168750D01*
X174437500Y-128168750D02*
X170437500Y-127168750D01*
X169437500Y-123168750D02*
X173437500Y-124168750D01*
X167437500Y-130168750D02*
X171437500Y-131168750D01*
X171437500Y-131168750D02*
X170437500Y-127168750D01*
X166437500Y-126168750D02*
X170437500Y-127168750D01*
X166437500Y-126168750D02*
X169437500Y-123168750D01*
X162437500Y-125168750D02*
X161437500Y-121168750D01*
X164437500Y-118168750D02*
X161437500Y-121168750D01*
X169437500Y-123168750D02*
X168437500Y-119168750D01*
X168437500Y-119168750D02*
X165437500Y-122168750D01*
X165437500Y-122168750D02*
X162437500Y-125168750D01*
X165437500Y-122168750D02*
X164437500Y-118168750D01*
X169437500Y-123168750D02*
X165437500Y-122168750D01*
X164437500Y-118168750D02*
X168437500Y-119168750D01*
X162437500Y-125168750D02*
X166437500Y-126168750D01*
X166437500Y-126168750D02*
X165437500Y-122168750D01*
X161437500Y-121168750D02*
X165437500Y-122168750D01*
X164437500Y-133168750D02*
X163437500Y-129168750D01*
X159437500Y-128168750D02*
X163437500Y-129168750D01*
X162437500Y-125168750D02*
X159437500Y-128168750D01*
X167437500Y-130168750D02*
X166437500Y-126168750D01*
X166437500Y-126168750D02*
X163437500Y-129168750D01*
X163437500Y-129168750D02*
X160437500Y-132168750D01*
X163437500Y-129168750D02*
X162437500Y-125168750D01*
X167437500Y-130168750D02*
X163437500Y-129168750D01*
X162437500Y-125168750D02*
X166437500Y-126168750D01*
X160437500Y-132168750D02*
X164437500Y-133168750D01*
X164437500Y-133168750D02*
X167437500Y-130168750D01*
X160437500Y-132168750D02*
X159437500Y-128168750D01*
X164437500Y-118168750D02*
X160437500Y-117168750D01*
X159437500Y-113168750D02*
X163437500Y-114168750D01*
X157437500Y-120168750D02*
X161437500Y-121168750D01*
X161437500Y-121168750D02*
X164437500Y-118168750D01*
X157437500Y-120168750D02*
X156437500Y-116168750D01*
X164437500Y-118168750D02*
X163437500Y-114168750D01*
X163437500Y-114168750D02*
X160437500Y-117168750D01*
X160437500Y-117168750D02*
X157437500Y-120168750D01*
X160437500Y-117168750D02*
X159437500Y-113168750D01*
X156437500Y-116168750D02*
X160437500Y-117168750D01*
X161437500Y-121168750D02*
X160437500Y-117168750D01*
X159437500Y-113168750D02*
X156437500Y-116168750D01*
X150437500Y-122168750D02*
X154437500Y-123168750D01*
X154437500Y-123168750D02*
X157437500Y-120168750D01*
X150437500Y-122168750D02*
X149437500Y-118168750D01*
X157437500Y-120168750D02*
X156437500Y-116168750D01*
X156437500Y-116168750D02*
X153437500Y-119168750D01*
X153437500Y-119168750D02*
X150437500Y-122168750D01*
X153437500Y-119168750D02*
X152437500Y-115168750D01*
X149437500Y-118168750D02*
X153437500Y-119168750D01*
X154437500Y-123168750D02*
X153437500Y-119168750D01*
X152437500Y-115168750D02*
X149437500Y-118168750D01*
X152437500Y-115168750D02*
X156437500Y-116168750D01*
X157437500Y-120168750D02*
X153437500Y-119168750D01*
X153437500Y-134168750D02*
X152437500Y-130168750D01*
X160437500Y-132168750D02*
X159437500Y-128168750D01*
X159437500Y-128168750D02*
X156437500Y-131168750D01*
X156437500Y-131168750D02*
X153437500Y-134168750D01*
X156437500Y-131168750D02*
X155437500Y-127168750D01*
X152437500Y-130168750D02*
X156437500Y-131168750D01*
X157437500Y-135168750D02*
X156437500Y-131168750D01*
X155437500Y-127168750D02*
X159437500Y-128168750D01*
X160437500Y-132168750D02*
X156437500Y-131168750D01*
X153437500Y-134168750D02*
X157437500Y-135168750D01*
X157437500Y-135168750D02*
X160437500Y-132168750D01*
X155437500Y-127168750D02*
X152437500Y-130168750D01*
X165437500Y-137168750D02*
X164437500Y-133168750D01*
X164437500Y-133168750D02*
X161437500Y-136168750D01*
X161437500Y-136168750D02*
X158437500Y-139168750D01*
X161437500Y-136168750D02*
X160437500Y-132168750D01*
X157437500Y-135168750D02*
X161437500Y-136168750D01*
X162437500Y-140168750D02*
X161437500Y-136168750D01*
X160437500Y-132168750D02*
X164437500Y-133168750D01*
X165437500Y-137168750D02*
X161437500Y-136168750D01*
X158437500Y-139168750D02*
X162437500Y-140168750D01*
X162437500Y-140168750D02*
X165437500Y-137168750D01*
X160437500Y-132168750D02*
X157437500Y-135168750D01*
X158437500Y-139168750D02*
X157437500Y-135168750D01*
X162437500Y-125168750D02*
X161437500Y-121168750D01*
X161437500Y-121168750D02*
X158437500Y-124168750D01*
X158437500Y-124168750D02*
X155437500Y-127168750D01*
X158437500Y-124168750D02*
X157437500Y-120168750D01*
X154437500Y-123168750D02*
X158437500Y-124168750D01*
X159437500Y-128168750D02*
X158437500Y-124168750D01*
X157437500Y-120168750D02*
X161437500Y-121168750D01*
X162437500Y-125168750D02*
X158437500Y-124168750D01*
X155437500Y-127168750D02*
X159437500Y-128168750D01*
X159437500Y-128168750D02*
X162437500Y-125168750D01*
X157437500Y-120168750D02*
X154437500Y-123168750D01*
X148437500Y-129168750D02*
X147437500Y-125168750D01*
X150437500Y-122168750D02*
X154437500Y-123168750D01*
X155437500Y-127168750D02*
X154437500Y-123168750D01*
X154437500Y-123168750D02*
X151437500Y-126168750D01*
X150437500Y-122168750D02*
X147437500Y-125168750D01*
X151437500Y-126168750D02*
X150437500Y-122168750D01*
X147437500Y-125168750D02*
X151437500Y-126168750D01*
X155437500Y-127168750D02*
X151437500Y-126168750D01*
X152437500Y-130168750D02*
X155437500Y-127168750D01*
X151437500Y-126168750D02*
X148437500Y-129168750D01*
X152437500Y-130168750D02*
X151437500Y-126168750D01*
X148437500Y-129168750D02*
X152437500Y-130168750D01*
X95256250Y-57334375D02*
X99256250Y-58334375D01*
X99256250Y-58334375D02*
X98256250Y-54334375D01*
X98256250Y-54334375D02*
X95256250Y-57334375D01*
X99256250Y-58334375D02*
X102256250Y-55334375D01*
X102256250Y-55334375D02*
X98256250Y-54334375D01*
X94256250Y-53334375D02*
X98256250Y-54334375D01*
X98256250Y-54334375D02*
X97256250Y-50334375D01*
X97256250Y-50334375D02*
X94256250Y-53334375D01*
X101256250Y-51334375D02*
X98256250Y-54334375D01*
X102256250Y-55334375D02*
X101256250Y-51334375D01*
X97256250Y-50334375D02*
X101256250Y-51334375D01*
X95256250Y-57334375D02*
X94256250Y-53334375D01*
X104256250Y-48334375D02*
X101256250Y-51334375D01*
X106256250Y-56334375D02*
X109256250Y-53334375D01*
X102256250Y-55334375D02*
X106256250Y-56334375D01*
X109256250Y-53334375D02*
X105256250Y-52334375D01*
X104256250Y-48334375D02*
X108256250Y-49334375D01*
X106256250Y-56334375D02*
X105256250Y-52334375D01*
X101256250Y-51334375D02*
X105256250Y-52334375D01*
X105256250Y-52334375D02*
X104256250Y-48334375D01*
X105256250Y-52334375D02*
X102256250Y-55334375D01*
X108256250Y-49334375D02*
X105256250Y-52334375D01*
X109256250Y-53334375D02*
X108256250Y-49334375D01*
X105256250Y-67334375D02*
X104256250Y-63334375D01*
X107256250Y-60334375D02*
X104256250Y-63334375D01*
X109256250Y-68334375D02*
X112256250Y-65334375D01*
X105256250Y-67334375D02*
X109256250Y-68334375D01*
X112256250Y-65334375D02*
X108256250Y-64334375D01*
X107256250Y-60334375D02*
X111256250Y-61334375D01*
X109256250Y-68334375D02*
X108256250Y-64334375D01*
X104256250Y-63334375D02*
X108256250Y-64334375D01*
X108256250Y-64334375D02*
X107256250Y-60334375D01*
X108256250Y-64334375D02*
X105256250Y-67334375D01*
X111256250Y-61334375D02*
X108256250Y-64334375D01*
X112256250Y-65334375D02*
X111256250Y-61334375D01*
X102256250Y-55334375D02*
X99256250Y-58334375D01*
X104256250Y-63334375D02*
X107256250Y-60334375D01*
X100256250Y-62334375D02*
X104256250Y-63334375D01*
X107256250Y-60334375D02*
X103256250Y-59334375D01*
X102256250Y-55334375D02*
X106256250Y-56334375D01*
X104256250Y-63334375D02*
X103256250Y-59334375D01*
X99256250Y-58334375D02*
X103256250Y-59334375D01*
X103256250Y-59334375D02*
X102256250Y-55334375D01*
X103256250Y-59334375D02*
X100256250Y-62334375D01*
X106256250Y-56334375D02*
X103256250Y-59334375D01*
X107256250Y-60334375D02*
X106256250Y-56334375D01*
X100256250Y-62334375D02*
X99256250Y-58334375D01*
X104256250Y-48334375D02*
X100256250Y-47334375D01*
X99256250Y-43334375D02*
X103256250Y-44334375D01*
X99256250Y-43334375D02*
X96256250Y-46334375D01*
X101256250Y-51334375D02*
X100256250Y-47334375D01*
X96256250Y-46334375D02*
X100256250Y-47334375D01*
X100256250Y-47334375D02*
X99256250Y-43334375D01*
X100256250Y-47334375D02*
X97256250Y-50334375D01*
X103256250Y-44334375D02*
X100256250Y-47334375D01*
X104256250Y-48334375D02*
X103256250Y-44334375D01*
X97256250Y-50334375D02*
X96256250Y-46334375D01*
X101256250Y-51334375D02*
X104256250Y-48334375D01*
X97256250Y-50334375D02*
X101256250Y-51334375D01*
X106256250Y-41334375D02*
X103256250Y-44334375D01*
X108256250Y-49334375D02*
X107256250Y-45334375D01*
X103256250Y-44334375D02*
X107256250Y-45334375D01*
X107256250Y-45334375D02*
X106256250Y-41334375D01*
X107256250Y-45334375D02*
X104256250Y-48334375D01*
X110256250Y-42334375D02*
X107256250Y-45334375D01*
X111256250Y-46334375D02*
X110256250Y-42334375D01*
X104256250Y-48334375D02*
X103256250Y-44334375D01*
X108256250Y-49334375D02*
X111256250Y-46334375D01*
X104256250Y-48334375D02*
X108256250Y-49334375D01*
X106256250Y-41334375D02*
X110256250Y-42334375D01*
X111256250Y-46334375D02*
X107256250Y-45334375D01*
X107256250Y-60334375D02*
X106256250Y-56334375D01*
X111256250Y-61334375D02*
X114256250Y-58334375D01*
X107256250Y-60334375D02*
X111256250Y-61334375D01*
X109256250Y-53334375D02*
X113256250Y-54334375D01*
X114256250Y-58334375D02*
X110256250Y-57334375D01*
X110256250Y-57334375D02*
X109256250Y-53334375D01*
X110256250Y-57334375D02*
X107256250Y-60334375D01*
X113256250Y-54334375D02*
X110256250Y-57334375D01*
X114256250Y-58334375D02*
X113256250Y-54334375D01*
X109256250Y-53334375D02*
X106256250Y-56334375D01*
X106256250Y-56334375D02*
X110256250Y-57334375D01*
X111256250Y-61334375D02*
X110256250Y-57334375D01*
X108256250Y-49334375D02*
X112256250Y-50334375D01*
X113256250Y-54334375D02*
X112256250Y-50334375D01*
X109256250Y-53334375D02*
X113256250Y-54334375D01*
X111256250Y-46334375D02*
X115256250Y-47334375D01*
X116256250Y-51334375D02*
X112256250Y-50334375D01*
X112256250Y-50334375D02*
X111256250Y-46334375D01*
X112256250Y-50334375D02*
X109256250Y-53334375D01*
X115256250Y-47334375D02*
X112256250Y-50334375D01*
X116256250Y-51334375D02*
X115256250Y-47334375D01*
X111256250Y-46334375D02*
X108256250Y-49334375D01*
X109256250Y-53334375D02*
X108256250Y-49334375D01*
X113256250Y-54334375D02*
X116256250Y-51334375D01*
X113256250Y-54334375D02*
X117256250Y-55334375D01*
X118256250Y-59334375D02*
X117256250Y-55334375D01*
X114256250Y-58334375D02*
X118256250Y-59334375D01*
X116256250Y-51334375D02*
X120256250Y-52334375D01*
X121256250Y-56334375D02*
X117256250Y-55334375D01*
X117256250Y-55334375D02*
X116256250Y-51334375D01*
X117256250Y-55334375D02*
X114256250Y-58334375D01*
X120256250Y-52334375D02*
X117256250Y-55334375D01*
X121256250Y-56334375D02*
X120256250Y-52334375D01*
X116256250Y-51334375D02*
X113256250Y-54334375D01*
X114256250Y-58334375D02*
X113256250Y-54334375D01*
X118256250Y-59334375D02*
X121256250Y-56334375D01*
X115256250Y-47334375D02*
X119256250Y-48334375D01*
X120256250Y-52334375D02*
X119256250Y-48334375D01*
X116256250Y-51334375D02*
X120256250Y-52334375D01*
X118256250Y-44334375D02*
X122256250Y-45334375D01*
X123256250Y-49334375D02*
X119256250Y-48334375D01*
X119256250Y-48334375D02*
X118256250Y-44334375D01*
X119256250Y-48334375D02*
X116256250Y-51334375D01*
X122256250Y-45334375D02*
X119256250Y-48334375D01*
X123256250Y-49334375D02*
X122256250Y-45334375D01*
X118256250Y-44334375D02*
X115256250Y-47334375D01*
X116256250Y-51334375D02*
X115256250Y-47334375D01*
X120256250Y-52334375D02*
X123256250Y-49334375D01*
X110256250Y-42334375D02*
X114256250Y-43334375D01*
X115256250Y-47334375D02*
X114256250Y-43334375D01*
X111256250Y-46334375D02*
X115256250Y-47334375D01*
X113256250Y-39334375D02*
X117256250Y-40334375D01*
X118256250Y-44334375D02*
X114256250Y-43334375D01*
X114256250Y-43334375D02*
X113256250Y-39334375D01*
X114256250Y-43334375D02*
X111256250Y-46334375D01*
X117256250Y-40334375D02*
X114256250Y-43334375D01*
X118256250Y-44334375D02*
X117256250Y-40334375D01*
X113256250Y-39334375D02*
X110256250Y-42334375D01*
X111256250Y-46334375D02*
X110256250Y-42334375D01*
X115256250Y-47334375D02*
X118256250Y-44334375D01*
X120256250Y-52334375D02*
X124256250Y-53334375D01*
X123256250Y-64334375D02*
X119256250Y-63334375D01*
X124256250Y-53334375D02*
X123256250Y-49334375D01*
X124256250Y-53334375D02*
X121256250Y-56334375D01*
X122256250Y-60334375D02*
X119256250Y-63334375D01*
X123256250Y-64334375D02*
X122256250Y-60334375D01*
X123256250Y-49334375D02*
X120256250Y-52334375D01*
X121256250Y-56334375D02*
X120256250Y-52334375D01*
X120256250Y-67334375D02*
X123256250Y-64334375D01*
X121256250Y-56334375D02*
X125256250Y-57334375D01*
X118256250Y-59334375D02*
X122256250Y-60334375D01*
X125256250Y-57334375D02*
X124256250Y-53334375D01*
X115256250Y-62334375D02*
X112256250Y-65334375D01*
X118256250Y-59334375D02*
X115256250Y-62334375D01*
X119256250Y-63334375D02*
X118256250Y-59334375D01*
X114256250Y-58334375D02*
X111256250Y-61334375D01*
X112256250Y-65334375D02*
X111256250Y-61334375D01*
X116256250Y-66334375D02*
X119256250Y-63334375D01*
X112256250Y-65334375D02*
X116256250Y-66334375D01*
X114256250Y-58334375D02*
X118256250Y-59334375D01*
X116256250Y-66334375D02*
X115256250Y-62334375D01*
X119256250Y-63334375D02*
X115256250Y-62334375D01*
X115256250Y-62334375D02*
X114256250Y-58334375D01*
X111256250Y-61334375D02*
X115256250Y-62334375D01*
X127256250Y-50334375D02*
X131256250Y-51334375D01*
X133256250Y-59334375D02*
X130256250Y-62334375D01*
X124256250Y-53334375D02*
X123256250Y-49334375D01*
X126256250Y-61334375D02*
X122256250Y-60334375D01*
X125256250Y-57334375D02*
X124256250Y-53334375D01*
X127256250Y-50334375D02*
X130256250Y-47334375D01*
X123256250Y-49334375D02*
X127256250Y-50334375D01*
X125256250Y-57334375D02*
X129256250Y-58334375D01*
X130256250Y-62334375D02*
X129256250Y-58334375D01*
X127256250Y-50334375D02*
X124256250Y-53334375D01*
X128256250Y-54334375D02*
X124256250Y-53334375D01*
X126256250Y-61334375D02*
X130256250Y-62334375D01*
X128256250Y-54334375D02*
X132256250Y-55334375D01*
X133256250Y-59334375D02*
X129256250Y-58334375D01*
X129256250Y-58334375D02*
X128256250Y-54334375D01*
X129256250Y-58334375D02*
X126256250Y-61334375D01*
X132256250Y-55334375D02*
X129256250Y-58334375D01*
X133256250Y-59334375D02*
X132256250Y-55334375D01*
X128256250Y-54334375D02*
X125256250Y-57334375D01*
X128256250Y-54334375D02*
X127256250Y-50334375D01*
X135256250Y-52334375D02*
X132256250Y-55334375D01*
X133256250Y-59334375D02*
X132256250Y-55334375D01*
X126256250Y-61334375D02*
X130256250Y-62334375D01*
X126256250Y-61334375D02*
X125256250Y-57334375D01*
X130256250Y-62334375D02*
X133256250Y-59334375D01*
X123256250Y-49334375D02*
X127256250Y-50334375D01*
X125256250Y-57334375D02*
X122256250Y-60334375D01*
X126256250Y-61334375D02*
X125256250Y-57334375D01*
X135256250Y-52334375D02*
X134256250Y-48334375D01*
X132256250Y-55334375D02*
X131256250Y-51334375D01*
X128256250Y-54334375D02*
X132256250Y-55334375D01*
X130256250Y-47334375D02*
X134256250Y-48334375D01*
X135256250Y-52334375D02*
X131256250Y-51334375D01*
X131256250Y-51334375D02*
X130256250Y-47334375D01*
X131256250Y-51334375D02*
X128256250Y-54334375D01*
X134256250Y-48334375D02*
X131256250Y-51334375D01*
X135256250Y-52334375D02*
X134256250Y-48334375D01*
X130256250Y-47334375D02*
X127256250Y-50334375D01*
X128256250Y-54334375D02*
X127256250Y-50334375D01*
X132256250Y-55334375D02*
X135256250Y-52334375D01*
X130256250Y-47334375D02*
X134256250Y-48334375D01*
X125256250Y-57334375D02*
X128256250Y-54334375D01*
X126256250Y-46334375D02*
X122256250Y-45334375D01*
X127256250Y-35334375D02*
X131256250Y-36334375D01*
X124256250Y-38334375D02*
X123256250Y-34334375D01*
X125256250Y-42334375D02*
X124256250Y-38334375D01*
X127256250Y-35334375D02*
X130256250Y-32334375D01*
X123256250Y-34334375D02*
X127256250Y-35334375D01*
X125256250Y-42334375D02*
X129256250Y-43334375D01*
X130256250Y-47334375D02*
X129256250Y-43334375D01*
X127256250Y-35334375D02*
X124256250Y-38334375D01*
X128256250Y-39334375D02*
X124256250Y-38334375D01*
X126256250Y-46334375D02*
X130256250Y-47334375D01*
X128256250Y-39334375D02*
X132256250Y-40334375D01*
X133256250Y-44334375D02*
X129256250Y-43334375D01*
X129256250Y-43334375D02*
X128256250Y-39334375D01*
X129256250Y-43334375D02*
X126256250Y-46334375D01*
X132256250Y-40334375D02*
X129256250Y-43334375D01*
X133256250Y-44334375D02*
X132256250Y-40334375D01*
X128256250Y-39334375D02*
X125256250Y-42334375D01*
X128256250Y-39334375D02*
X127256250Y-35334375D01*
X135256250Y-37334375D02*
X132256250Y-40334375D01*
X133256250Y-44334375D02*
X132256250Y-40334375D01*
X126256250Y-46334375D02*
X130256250Y-47334375D01*
X126256250Y-46334375D02*
X125256250Y-42334375D01*
X130256250Y-47334375D02*
X133256250Y-44334375D01*
X123256250Y-34334375D02*
X127256250Y-35334375D01*
X125256250Y-42334375D02*
X122256250Y-45334375D01*
X126256250Y-46334375D02*
X125256250Y-42334375D01*
X135256250Y-37334375D02*
X134256250Y-33334375D01*
X132256250Y-40334375D02*
X131256250Y-36334375D01*
X128256250Y-39334375D02*
X132256250Y-40334375D01*
X130256250Y-32334375D02*
X134256250Y-33334375D01*
X135256250Y-37334375D02*
X131256250Y-36334375D01*
X134256250Y-33334375D02*
X131256250Y-36334375D01*
X135256250Y-37334375D02*
X134256250Y-33334375D01*
X130256250Y-32334375D02*
X127256250Y-35334375D01*
X128256250Y-39334375D02*
X127256250Y-35334375D01*
X132256250Y-40334375D02*
X135256250Y-37334375D01*
X130256250Y-32334375D02*
X134256250Y-33334375D01*
X125256250Y-42334375D02*
X128256250Y-39334375D01*
X133256250Y-44334375D02*
X130256250Y-47334375D01*
X131256250Y-36334375D02*
X130256250Y-32334375D01*
X131256250Y-36334375D02*
X128256250Y-39334375D01*
X126256250Y-76334375D02*
X122256250Y-75334375D01*
X127256250Y-65334375D02*
X131256250Y-66334375D01*
X124256250Y-68334375D02*
X123256250Y-64334375D01*
X125256250Y-72334375D02*
X124256250Y-68334375D01*
X127256250Y-65334375D02*
X130256250Y-62334375D01*
X123256250Y-64334375D02*
X127256250Y-65334375D01*
X125256250Y-72334375D02*
X129256250Y-73334375D01*
X130256250Y-77334375D02*
X129256250Y-73334375D01*
X127256250Y-65334375D02*
X124256250Y-68334375D01*
X128256250Y-69334375D02*
X124256250Y-68334375D01*
X126256250Y-76334375D02*
X130256250Y-77334375D01*
X128256250Y-69334375D02*
X132256250Y-70334375D01*
X133256250Y-74334375D02*
X129256250Y-73334375D01*
X129256250Y-73334375D02*
X128256250Y-69334375D01*
X129256250Y-73334375D02*
X126256250Y-76334375D01*
X132256250Y-70334375D02*
X129256250Y-73334375D01*
X133256250Y-74334375D02*
X132256250Y-70334375D01*
X128256250Y-69334375D02*
X125256250Y-72334375D01*
X128256250Y-69334375D02*
X127256250Y-65334375D01*
X135256250Y-67334375D02*
X132256250Y-70334375D01*
X133256250Y-74334375D02*
X132256250Y-70334375D01*
X126256250Y-76334375D02*
X130256250Y-77334375D01*
X126256250Y-76334375D02*
X125256250Y-72334375D01*
X130256250Y-77334375D02*
X133256250Y-74334375D01*
X123256250Y-64334375D02*
X127256250Y-65334375D01*
X125256250Y-72334375D02*
X122256250Y-75334375D01*
X126256250Y-76334375D02*
X125256250Y-72334375D01*
X135256250Y-67334375D02*
X134256250Y-63334375D01*
X132256250Y-70334375D02*
X131256250Y-66334375D01*
X128256250Y-69334375D02*
X132256250Y-70334375D01*
X130256250Y-62334375D02*
X134256250Y-63334375D01*
X135256250Y-67334375D02*
X131256250Y-66334375D01*
X134256250Y-63334375D02*
X131256250Y-66334375D01*
X135256250Y-67334375D02*
X134256250Y-63334375D01*
X130256250Y-62334375D02*
X127256250Y-65334375D01*
X128256250Y-69334375D02*
X127256250Y-65334375D01*
X132256250Y-70334375D02*
X135256250Y-67334375D01*
X130256250Y-62334375D02*
X134256250Y-63334375D01*
X125256250Y-72334375D02*
X128256250Y-69334375D01*
X133256250Y-74334375D02*
X130256250Y-77334375D01*
X131256250Y-66334375D02*
X130256250Y-62334375D01*
X131256250Y-66334375D02*
X128256250Y-69334375D01*
X112256250Y-80334375D02*
X108256250Y-79334375D01*
X113256250Y-69334375D02*
X117256250Y-70334375D01*
X110256250Y-72334375D02*
X109256250Y-68334375D01*
X111256250Y-76334375D02*
X110256250Y-72334375D01*
X113256250Y-69334375D02*
X116256250Y-66334375D01*
X109256250Y-68334375D02*
X113256250Y-69334375D01*
X111256250Y-76334375D02*
X115256250Y-77334375D01*
X116256250Y-81334375D02*
X115256250Y-77334375D01*
X113256250Y-69334375D02*
X110256250Y-72334375D01*
X114256250Y-73334375D02*
X110256250Y-72334375D01*
X112256250Y-80334375D02*
X116256250Y-81334375D01*
X114256250Y-73334375D02*
X118256250Y-74334375D01*
X119256250Y-78334375D02*
X115256250Y-77334375D01*
X115256250Y-77334375D02*
X114256250Y-73334375D01*
X115256250Y-77334375D02*
X112256250Y-80334375D01*
X118256250Y-74334375D02*
X115256250Y-77334375D01*
X119256250Y-78334375D02*
X118256250Y-74334375D01*
X114256250Y-73334375D02*
X111256250Y-76334375D01*
X114256250Y-73334375D02*
X113256250Y-69334375D01*
X121256250Y-71334375D02*
X118256250Y-74334375D01*
X119256250Y-78334375D02*
X118256250Y-74334375D01*
X112256250Y-80334375D02*
X116256250Y-81334375D01*
X112256250Y-80334375D02*
X111256250Y-76334375D01*
X116256250Y-81334375D02*
X119256250Y-78334375D01*
X109256250Y-68334375D02*
X113256250Y-69334375D01*
X111256250Y-76334375D02*
X108256250Y-79334375D01*
X112256250Y-80334375D02*
X111256250Y-76334375D01*
X121256250Y-71334375D02*
X120256250Y-67334375D01*
X118256250Y-74334375D02*
X117256250Y-70334375D01*
X114256250Y-73334375D02*
X118256250Y-74334375D01*
X116256250Y-66334375D02*
X120256250Y-67334375D01*
X121256250Y-71334375D02*
X117256250Y-70334375D01*
X120256250Y-67334375D02*
X117256250Y-70334375D01*
X121256250Y-71334375D02*
X120256250Y-67334375D01*
X116256250Y-66334375D02*
X113256250Y-69334375D01*
X114256250Y-73334375D02*
X113256250Y-69334375D01*
X118256250Y-74334375D02*
X121256250Y-71334375D01*
X116256250Y-66334375D02*
X120256250Y-67334375D01*
X111256250Y-76334375D02*
X114256250Y-73334375D01*
X119256250Y-78334375D02*
X116256250Y-81334375D01*
X117256250Y-70334375D02*
X116256250Y-66334375D01*
X117256250Y-70334375D02*
X114256250Y-73334375D01*
X101256250Y-81334375D02*
X97256250Y-80334375D01*
X102256250Y-70334375D02*
X106256250Y-71334375D01*
X99256250Y-73334375D02*
X98256250Y-69334375D01*
X100256250Y-77334375D02*
X99256250Y-73334375D01*
X102256250Y-70334375D02*
X105256250Y-67334375D01*
X98256250Y-69334375D02*
X102256250Y-70334375D01*
X100256250Y-77334375D02*
X104256250Y-78334375D01*
X105256250Y-82334375D02*
X104256250Y-78334375D01*
X102256250Y-70334375D02*
X99256250Y-73334375D01*
X103256250Y-74334375D02*
X99256250Y-73334375D01*
X101256250Y-81334375D02*
X105256250Y-82334375D01*
X103256250Y-74334375D02*
X107256250Y-75334375D01*
X108256250Y-79334375D02*
X104256250Y-78334375D01*
X104256250Y-78334375D02*
X103256250Y-74334375D01*
X104256250Y-78334375D02*
X101256250Y-81334375D01*
X107256250Y-75334375D02*
X104256250Y-78334375D01*
X108256250Y-79334375D02*
X107256250Y-75334375D01*
X103256250Y-74334375D02*
X100256250Y-77334375D01*
X103256250Y-74334375D02*
X102256250Y-70334375D01*
X110256250Y-72334375D02*
X107256250Y-75334375D01*
X108256250Y-79334375D02*
X107256250Y-75334375D01*
X101256250Y-81334375D02*
X105256250Y-82334375D01*
X101256250Y-81334375D02*
X100256250Y-77334375D01*
X105256250Y-82334375D02*
X108256250Y-79334375D01*
X98256250Y-69334375D02*
X102256250Y-70334375D01*
X100256250Y-77334375D02*
X97256250Y-80334375D01*
X101256250Y-81334375D02*
X100256250Y-77334375D01*
X110256250Y-72334375D02*
X109256250Y-68334375D01*
X107256250Y-75334375D02*
X106256250Y-71334375D01*
X103256250Y-74334375D02*
X107256250Y-75334375D01*
X105256250Y-67334375D02*
X109256250Y-68334375D01*
X110256250Y-72334375D02*
X106256250Y-71334375D01*
X109256250Y-68334375D02*
X106256250Y-71334375D01*
X110256250Y-72334375D02*
X109256250Y-68334375D01*
X105256250Y-67334375D02*
X102256250Y-70334375D01*
X103256250Y-74334375D02*
X102256250Y-70334375D01*
X107256250Y-75334375D02*
X110256250Y-72334375D01*
X105256250Y-67334375D02*
X109256250Y-68334375D01*
X100256250Y-77334375D02*
X103256250Y-74334375D01*
X108256250Y-79334375D02*
X105256250Y-82334375D01*
X106256250Y-71334375D02*
X105256250Y-67334375D01*
X106256250Y-71334375D02*
X103256250Y-74334375D01*
X92256250Y-75334375D02*
X88256250Y-74334375D01*
X93256250Y-64334375D02*
X97256250Y-65334375D01*
X90256250Y-67334375D02*
X89256250Y-63334375D01*
X91256250Y-71334375D02*
X90256250Y-67334375D01*
X93256250Y-64334375D02*
X96256250Y-61334375D01*
X89256250Y-63334375D02*
X93256250Y-64334375D01*
X91256250Y-71334375D02*
X95256250Y-72334375D01*
X96256250Y-76334375D02*
X95256250Y-72334375D01*
X93256250Y-64334375D02*
X90256250Y-67334375D01*
X94256250Y-68334375D02*
X90256250Y-67334375D01*
X92256250Y-75334375D02*
X96256250Y-76334375D01*
X95256250Y-72334375D02*
X94256250Y-68334375D01*
X95256250Y-72334375D02*
X92256250Y-75334375D01*
X98256250Y-69334375D02*
X95256250Y-72334375D01*
X99256250Y-73334375D02*
X98256250Y-69334375D01*
X94256250Y-68334375D02*
X91256250Y-71334375D01*
X94256250Y-68334375D02*
X93256250Y-64334375D01*
X101256250Y-66334375D02*
X98256250Y-69334375D01*
X99256250Y-73334375D02*
X98256250Y-69334375D01*
X92256250Y-75334375D02*
X96256250Y-76334375D01*
X92256250Y-75334375D02*
X91256250Y-71334375D01*
X96256250Y-76334375D02*
X99256250Y-73334375D01*
X89256250Y-63334375D02*
X93256250Y-64334375D01*
X91256250Y-71334375D02*
X88256250Y-74334375D01*
X92256250Y-75334375D02*
X91256250Y-71334375D01*
X101256250Y-66334375D02*
X100256250Y-62334375D01*
X98256250Y-69334375D02*
X97256250Y-65334375D01*
X94256250Y-68334375D02*
X98256250Y-69334375D01*
X96256250Y-61334375D02*
X100256250Y-62334375D01*
X101256250Y-66334375D02*
X97256250Y-65334375D01*
X100256250Y-62334375D02*
X97256250Y-65334375D01*
X101256250Y-66334375D02*
X100256250Y-62334375D01*
X96256250Y-61334375D02*
X93256250Y-64334375D01*
X94256250Y-68334375D02*
X93256250Y-64334375D01*
X98256250Y-69334375D02*
X101256250Y-66334375D01*
X96256250Y-61334375D02*
X100256250Y-62334375D01*
X91256250Y-71334375D02*
X94256250Y-68334375D01*
X99256250Y-73334375D02*
X96256250Y-76334375D01*
X97256250Y-65334375D02*
X96256250Y-61334375D01*
X97256250Y-65334375D02*
X94256250Y-68334375D01*
X94256250Y-68334375D02*
X98256250Y-69334375D01*
X99256250Y-73334375D02*
X95256250Y-72334375D01*
X87256250Y-55334375D02*
X83256250Y-54334375D01*
X88256250Y-44334375D02*
X92256250Y-45334375D01*
X85256250Y-47334375D02*
X84256250Y-43334375D01*
X86256250Y-51334375D02*
X85256250Y-47334375D01*
X88256250Y-44334375D02*
X91256250Y-41334375D01*
X84256250Y-43334375D02*
X88256250Y-44334375D01*
X86256250Y-51334375D02*
X90256250Y-52334375D01*
X91256250Y-56334375D02*
X90256250Y-52334375D01*
X88256250Y-44334375D02*
X85256250Y-47334375D01*
X89256250Y-48334375D02*
X85256250Y-47334375D01*
X87256250Y-55334375D02*
X91256250Y-56334375D01*
X90256250Y-52334375D02*
X89256250Y-48334375D01*
X90256250Y-52334375D02*
X87256250Y-55334375D01*
X93256250Y-49334375D02*
X90256250Y-52334375D01*
X94256250Y-53334375D02*
X93256250Y-49334375D01*
X89256250Y-48334375D02*
X86256250Y-51334375D01*
X89256250Y-48334375D02*
X88256250Y-44334375D01*
X96256250Y-46334375D02*
X93256250Y-49334375D01*
X94256250Y-53334375D02*
X93256250Y-49334375D01*
X87256250Y-55334375D02*
X91256250Y-56334375D01*
X87256250Y-55334375D02*
X86256250Y-51334375D01*
X91256250Y-56334375D02*
X94256250Y-53334375D01*
X84256250Y-43334375D02*
X88256250Y-44334375D01*
X86256250Y-51334375D02*
X83256250Y-54334375D01*
X87256250Y-55334375D02*
X86256250Y-51334375D01*
X96256250Y-46334375D02*
X95256250Y-42334375D01*
X93256250Y-49334375D02*
X92256250Y-45334375D01*
X89256250Y-48334375D02*
X93256250Y-49334375D01*
X91256250Y-41334375D02*
X95256250Y-42334375D01*
X96256250Y-46334375D02*
X92256250Y-45334375D01*
X95256250Y-42334375D02*
X92256250Y-45334375D01*
X96256250Y-46334375D02*
X95256250Y-42334375D01*
X91256250Y-41334375D02*
X88256250Y-44334375D01*
X89256250Y-48334375D02*
X88256250Y-44334375D01*
X93256250Y-49334375D02*
X96256250Y-46334375D01*
X91256250Y-41334375D02*
X95256250Y-42334375D01*
X86256250Y-51334375D02*
X89256250Y-48334375D01*
X94256250Y-53334375D02*
X91256250Y-56334375D01*
X92256250Y-45334375D02*
X91256250Y-41334375D01*
X92256250Y-45334375D02*
X89256250Y-48334375D01*
X89256250Y-48334375D02*
X93256250Y-49334375D01*
X94256250Y-53334375D02*
X90256250Y-52334375D01*
X83256250Y-69334375D02*
X79256250Y-68334375D01*
X84256250Y-58334375D02*
X88256250Y-59334375D01*
X81256250Y-61334375D02*
X80256250Y-57334375D01*
X82256250Y-65334375D02*
X81256250Y-61334375D01*
X84256250Y-58334375D02*
X87256250Y-55334375D01*
X80256250Y-57334375D02*
X84256250Y-58334375D01*
X82256250Y-65334375D02*
X86256250Y-66334375D01*
X87256250Y-70334375D02*
X86256250Y-66334375D01*
X84256250Y-58334375D02*
X81256250Y-61334375D01*
X85256250Y-62334375D02*
X81256250Y-61334375D01*
X83256250Y-69334375D02*
X87256250Y-70334375D01*
X86256250Y-66334375D02*
X85256250Y-62334375D01*
X86256250Y-66334375D02*
X83256250Y-69334375D01*
X89256250Y-63334375D02*
X86256250Y-66334375D01*
X90256250Y-67334375D02*
X89256250Y-63334375D01*
X85256250Y-62334375D02*
X82256250Y-65334375D01*
X85256250Y-62334375D02*
X84256250Y-58334375D01*
X92256250Y-60334375D02*
X89256250Y-63334375D01*
X90256250Y-67334375D02*
X89256250Y-63334375D01*
X82256250Y-65334375D02*
X79256250Y-68334375D01*
X83256250Y-69334375D02*
X82256250Y-65334375D01*
X92256250Y-60334375D02*
X91256250Y-56334375D01*
X89256250Y-63334375D02*
X88256250Y-59334375D01*
X85256250Y-62334375D02*
X89256250Y-63334375D01*
X87256250Y-55334375D02*
X91256250Y-56334375D01*
X92256250Y-60334375D02*
X88256250Y-59334375D01*
X91256250Y-56334375D02*
X88256250Y-59334375D01*
X92256250Y-60334375D02*
X91256250Y-56334375D01*
X87256250Y-55334375D02*
X84256250Y-58334375D01*
X85256250Y-62334375D02*
X84256250Y-58334375D01*
X89256250Y-63334375D02*
X92256250Y-60334375D01*
X87256250Y-55334375D02*
X91256250Y-56334375D01*
X82256250Y-65334375D02*
X85256250Y-62334375D01*
X90256250Y-67334375D02*
X87256250Y-70334375D01*
X88256250Y-59334375D02*
X87256250Y-55334375D01*
X88256250Y-59334375D02*
X85256250Y-62334375D01*
X85256250Y-62334375D02*
X89256250Y-63334375D01*
X90256250Y-67334375D02*
X86256250Y-66334375D01*
X83256250Y-69334375D02*
X87256250Y-70334375D01*
X83256250Y-69334375D02*
X82256250Y-65334375D01*
X87256250Y-70334375D02*
X90256250Y-67334375D01*
X80256250Y-57334375D02*
X84256250Y-58334375D01*
X82256250Y-50334375D02*
X85256250Y-47334375D01*
X80256250Y-42334375D02*
X84256250Y-43334375D01*
X75256250Y-52334375D02*
X78256250Y-49334375D01*
X83256250Y-54334375D02*
X80256250Y-57334375D01*
X81256250Y-46334375D02*
X80256250Y-42334375D01*
X81256250Y-46334375D02*
X78256250Y-49334375D01*
X78256250Y-49334375D02*
X82256250Y-50334375D01*
X83256250Y-54334375D02*
X79256250Y-53334375D01*
X76256250Y-56334375D02*
X80256250Y-57334375D01*
X76256250Y-56334375D02*
X75256250Y-52334375D01*
X80256250Y-57334375D02*
X83256250Y-54334375D01*
X73256250Y-44334375D02*
X77256250Y-45334375D01*
X77256250Y-45334375D02*
X81256250Y-46334375D01*
X74256250Y-48334375D02*
X73256250Y-44334375D01*
X75256250Y-52334375D02*
X74256250Y-48334375D01*
X77256250Y-45334375D02*
X80256250Y-42334375D01*
X73256250Y-44334375D02*
X77256250Y-45334375D01*
X75256250Y-52334375D02*
X79256250Y-53334375D01*
X80256250Y-57334375D02*
X79256250Y-53334375D01*
X77256250Y-45334375D02*
X74256250Y-48334375D01*
X78256250Y-49334375D02*
X74256250Y-48334375D01*
X76256250Y-56334375D02*
X80256250Y-57334375D01*
X79256250Y-53334375D02*
X78256250Y-49334375D01*
X79256250Y-53334375D02*
X76256250Y-56334375D01*
X82256250Y-50334375D02*
X79256250Y-53334375D01*
X83256250Y-54334375D02*
X82256250Y-50334375D01*
X78256250Y-49334375D02*
X75256250Y-52334375D01*
X78256250Y-49334375D02*
X77256250Y-45334375D01*
X85256250Y-47334375D02*
X82256250Y-50334375D01*
X83256250Y-54334375D02*
X82256250Y-50334375D01*
X75256250Y-52334375D02*
X72256250Y-55334375D01*
X76256250Y-56334375D02*
X75256250Y-52334375D01*
X85256250Y-47334375D02*
X84256250Y-43334375D01*
X82256250Y-50334375D02*
X81256250Y-46334375D01*
X78256250Y-49334375D02*
X82256250Y-50334375D01*
X80256250Y-42334375D02*
X84256250Y-43334375D01*
X85256250Y-47334375D02*
X81256250Y-46334375D01*
X84256250Y-43334375D02*
X81256250Y-46334375D01*
X85256250Y-47334375D02*
X84256250Y-43334375D01*
X80256250Y-42334375D02*
X77256250Y-45334375D01*
X78256250Y-49334375D02*
X77256250Y-45334375D01*
X76256250Y-56334375D02*
X72256250Y-55334375D01*
X81256250Y-61334375D02*
X80256250Y-57334375D01*
X78256250Y-64334375D02*
X77256250Y-60334375D01*
X74256250Y-63334375D02*
X78256250Y-64334375D01*
X71256250Y-66334375D02*
X74256250Y-63334375D01*
X74256250Y-63334375D02*
X78256250Y-64334375D01*
X79256250Y-68334375D02*
X75256250Y-67334375D01*
X72256250Y-70334375D02*
X76256250Y-71334375D01*
X72256250Y-70334375D02*
X71256250Y-66334375D01*
X76256250Y-71334375D02*
X79256250Y-68334375D01*
X69256250Y-58334375D02*
X73256250Y-59334375D01*
X73256250Y-59334375D02*
X77256250Y-60334375D01*
X70256250Y-62334375D02*
X69256250Y-58334375D01*
X71256250Y-66334375D02*
X70256250Y-62334375D01*
X73256250Y-59334375D02*
X76256250Y-56334375D01*
X69256250Y-58334375D02*
X73256250Y-59334375D01*
X71256250Y-66334375D02*
X75256250Y-67334375D01*
X76256250Y-71334375D02*
X75256250Y-67334375D01*
X73256250Y-59334375D02*
X70256250Y-62334375D01*
X74256250Y-63334375D02*
X70256250Y-62334375D01*
X72256250Y-70334375D02*
X76256250Y-71334375D01*
X75256250Y-67334375D02*
X74256250Y-63334375D01*
X75256250Y-67334375D02*
X72256250Y-70334375D01*
X78256250Y-64334375D02*
X75256250Y-67334375D01*
X79256250Y-68334375D02*
X78256250Y-64334375D01*
X74256250Y-63334375D02*
X71256250Y-66334375D01*
X74256250Y-63334375D02*
X73256250Y-59334375D01*
X81256250Y-61334375D02*
X78256250Y-64334375D01*
X79256250Y-68334375D02*
X78256250Y-64334375D01*
X71256250Y-66334375D02*
X68256250Y-69334375D01*
X72256250Y-70334375D02*
X71256250Y-66334375D01*
X79256250Y-68334375D02*
X76256250Y-71334375D01*
X77256250Y-60334375D02*
X74256250Y-63334375D01*
X77256250Y-60334375D02*
X76256250Y-56334375D01*
X78256250Y-64334375D02*
X81256250Y-61334375D01*
X81256250Y-61334375D02*
X80256250Y-57334375D01*
X76256250Y-56334375D02*
X73256250Y-59334375D01*
X74256250Y-63334375D02*
X73256250Y-59334375D01*
X72256250Y-70334375D02*
X68256250Y-69334375D01*
X76256250Y-56334375D02*
X80256250Y-57334375D01*
X76256250Y-56334375D02*
X80256250Y-57334375D01*
X81256250Y-61334375D02*
X77256250Y-60334375D01*
X80256250Y-57334375D02*
X77256250Y-60334375D01*
X82256250Y-35334375D02*
X81256250Y-31334375D01*
X79256250Y-38334375D02*
X78256250Y-34334375D01*
X75256250Y-37334375D02*
X79256250Y-38334375D01*
X72256250Y-40334375D02*
X75256250Y-37334375D01*
X75256250Y-37334375D02*
X79256250Y-38334375D01*
X80256250Y-42334375D02*
X76256250Y-41334375D01*
X73256250Y-44334375D02*
X77256250Y-45334375D01*
X73256250Y-44334375D02*
X72256250Y-40334375D01*
X77256250Y-45334375D02*
X80256250Y-42334375D01*
X70256250Y-32334375D02*
X74256250Y-33334375D01*
X74256250Y-33334375D02*
X78256250Y-34334375D01*
X71256250Y-36334375D02*
X70256250Y-32334375D01*
X72256250Y-40334375D02*
X71256250Y-36334375D01*
X74256250Y-33334375D02*
X77256250Y-30334375D01*
X70256250Y-32334375D02*
X74256250Y-33334375D01*
X72256250Y-40334375D02*
X76256250Y-41334375D01*
X77256250Y-45334375D02*
X76256250Y-41334375D01*
X74256250Y-33334375D02*
X71256250Y-36334375D01*
X75256250Y-37334375D02*
X71256250Y-36334375D01*
X73256250Y-44334375D02*
X77256250Y-45334375D01*
X76256250Y-41334375D02*
X75256250Y-37334375D01*
X76256250Y-41334375D02*
X73256250Y-44334375D01*
X79256250Y-38334375D02*
X76256250Y-41334375D01*
X80256250Y-42334375D02*
X79256250Y-38334375D01*
X75256250Y-37334375D02*
X72256250Y-40334375D01*
X75256250Y-37334375D02*
X74256250Y-33334375D01*
X82256250Y-35334375D02*
X79256250Y-38334375D01*
X80256250Y-42334375D02*
X79256250Y-38334375D01*
X72256250Y-40334375D02*
X69256250Y-43334375D01*
X73256250Y-44334375D02*
X72256250Y-40334375D01*
X80256250Y-42334375D02*
X77256250Y-45334375D01*
X78256250Y-34334375D02*
X75256250Y-37334375D01*
X78256250Y-34334375D02*
X77256250Y-30334375D01*
X79256250Y-38334375D02*
X82256250Y-35334375D01*
X82256250Y-35334375D02*
X81256250Y-31334375D01*
X77256250Y-30334375D02*
X74256250Y-33334375D01*
X75256250Y-37334375D02*
X74256250Y-33334375D01*
X73256250Y-44334375D02*
X69256250Y-43334375D01*
X77256250Y-30334375D02*
X81256250Y-31334375D01*
X77256250Y-30334375D02*
X81256250Y-31334375D01*
X82256250Y-35334375D02*
X78256250Y-34334375D01*
X81256250Y-31334375D02*
X78256250Y-34334375D01*
X93256250Y-34334375D02*
X92256250Y-30334375D01*
X90256250Y-37334375D02*
X89256250Y-33334375D01*
X86256250Y-36334375D02*
X90256250Y-37334375D01*
X83256250Y-39334375D02*
X86256250Y-36334375D01*
X86256250Y-36334375D02*
X90256250Y-37334375D01*
X91256250Y-41334375D02*
X87256250Y-40334375D01*
X84256250Y-43334375D02*
X88256250Y-44334375D01*
X84256250Y-43334375D02*
X83256250Y-39334375D01*
X88256250Y-44334375D02*
X91256250Y-41334375D01*
X81256250Y-31334375D02*
X85256250Y-32334375D01*
X85256250Y-32334375D02*
X89256250Y-33334375D01*
X82256250Y-35334375D02*
X81256250Y-31334375D01*
X83256250Y-39334375D02*
X82256250Y-35334375D01*
X85256250Y-32334375D02*
X88256250Y-29334375D01*
X81256250Y-31334375D02*
X85256250Y-32334375D01*
X83256250Y-39334375D02*
X87256250Y-40334375D01*
X88256250Y-44334375D02*
X87256250Y-40334375D01*
X85256250Y-32334375D02*
X82256250Y-35334375D01*
X86256250Y-36334375D02*
X82256250Y-35334375D01*
X84256250Y-43334375D02*
X88256250Y-44334375D01*
X87256250Y-40334375D02*
X86256250Y-36334375D01*
X87256250Y-40334375D02*
X84256250Y-43334375D01*
X90256250Y-37334375D02*
X87256250Y-40334375D01*
X91256250Y-41334375D02*
X90256250Y-37334375D01*
X86256250Y-36334375D02*
X83256250Y-39334375D01*
X86256250Y-36334375D02*
X85256250Y-32334375D01*
X93256250Y-34334375D02*
X90256250Y-37334375D01*
X91256250Y-41334375D02*
X90256250Y-37334375D01*
X83256250Y-39334375D02*
X80256250Y-42334375D01*
X84256250Y-43334375D02*
X83256250Y-39334375D01*
X91256250Y-41334375D02*
X88256250Y-44334375D01*
X89256250Y-33334375D02*
X86256250Y-36334375D01*
X89256250Y-33334375D02*
X88256250Y-29334375D01*
X90256250Y-37334375D02*
X93256250Y-34334375D01*
X93256250Y-34334375D02*
X92256250Y-30334375D01*
X88256250Y-29334375D02*
X85256250Y-32334375D01*
X86256250Y-36334375D02*
X85256250Y-32334375D01*
X84256250Y-43334375D02*
X80256250Y-42334375D01*
X88256250Y-29334375D02*
X92256250Y-30334375D01*
X88256250Y-29334375D02*
X92256250Y-30334375D01*
X93256250Y-34334375D02*
X89256250Y-33334375D01*
X92256250Y-30334375D02*
X89256250Y-33334375D01*
X90256250Y-37334375D02*
X94256250Y-38334375D01*
X94256250Y-38334375D02*
X91256250Y-41334375D01*
X95256250Y-42334375D02*
X94256250Y-38334375D01*
X99256250Y-43334375D02*
X102256250Y-40334375D01*
X107256250Y-45334375D02*
X106256250Y-41334375D01*
X102256250Y-40334375D02*
X106256250Y-41334375D01*
X103256250Y-44334375D02*
X102256250Y-40334375D01*
X106256250Y-41334375D02*
X103256250Y-44334375D01*
X107256250Y-45334375D02*
X106256250Y-41334375D01*
X102256250Y-40334375D02*
X99256250Y-43334375D01*
X102256250Y-40334375D02*
X106256250Y-41334375D01*
X98256250Y-39334375D02*
X94256250Y-38334375D01*
X99256250Y-28334375D02*
X103256250Y-29334375D01*
X96256250Y-31334375D02*
X95256250Y-27334375D01*
X97256250Y-35334375D02*
X96256250Y-31334375D01*
X99256250Y-28334375D02*
X102256250Y-25334375D01*
X95256250Y-27334375D02*
X99256250Y-28334375D01*
X97256250Y-35334375D02*
X101256250Y-36334375D01*
X102256250Y-40334375D02*
X101256250Y-36334375D01*
X99256250Y-28334375D02*
X96256250Y-31334375D01*
X100256250Y-32334375D02*
X96256250Y-31334375D01*
X98256250Y-39334375D02*
X102256250Y-40334375D01*
X100256250Y-32334375D02*
X104256250Y-33334375D01*
X105256250Y-37334375D02*
X101256250Y-36334375D01*
X101256250Y-36334375D02*
X100256250Y-32334375D01*
X101256250Y-36334375D02*
X98256250Y-39334375D01*
X104256250Y-33334375D02*
X101256250Y-36334375D01*
X105256250Y-37334375D02*
X104256250Y-33334375D01*
X100256250Y-32334375D02*
X97256250Y-35334375D01*
X100256250Y-32334375D02*
X99256250Y-28334375D01*
X107256250Y-30334375D02*
X104256250Y-33334375D01*
X105256250Y-37334375D02*
X104256250Y-33334375D01*
X98256250Y-39334375D02*
X102256250Y-40334375D01*
X98256250Y-39334375D02*
X97256250Y-35334375D01*
X102256250Y-40334375D02*
X105256250Y-37334375D01*
X95256250Y-27334375D02*
X99256250Y-28334375D01*
X97256250Y-35334375D02*
X94256250Y-38334375D01*
X98256250Y-39334375D02*
X97256250Y-35334375D01*
X107256250Y-30334375D02*
X106256250Y-26334375D01*
X104256250Y-33334375D02*
X103256250Y-29334375D01*
X100256250Y-32334375D02*
X104256250Y-33334375D01*
X102256250Y-25334375D02*
X106256250Y-26334375D01*
X107256250Y-30334375D02*
X103256250Y-29334375D01*
X106256250Y-26334375D02*
X103256250Y-29334375D01*
X107256250Y-30334375D02*
X106256250Y-26334375D01*
X102256250Y-25334375D02*
X99256250Y-28334375D01*
X100256250Y-32334375D02*
X99256250Y-28334375D01*
X104256250Y-33334375D02*
X107256250Y-30334375D01*
X102256250Y-25334375D02*
X106256250Y-26334375D01*
X97256250Y-35334375D02*
X100256250Y-32334375D01*
X105256250Y-37334375D02*
X102256250Y-40334375D01*
X103256250Y-29334375D02*
X102256250Y-25334375D01*
X103256250Y-29334375D02*
X100256250Y-32334375D01*
X110256250Y-42334375D02*
X109256250Y-38334375D01*
X112256250Y-35334375D02*
X108256250Y-34334375D01*
X109256250Y-38334375D02*
X113256250Y-39334375D01*
X112256250Y-35334375D02*
X111256250Y-31334375D01*
X119256250Y-33334375D02*
X116256250Y-36334375D01*
X113256250Y-39334375D02*
X112256250Y-35334375D01*
X117256250Y-40334375D02*
X113256250Y-39334375D01*
X117256250Y-40334375D02*
X116256250Y-36334375D01*
X110256250Y-42334375D02*
X109256250Y-38334375D01*
X119256250Y-33334375D02*
X118256250Y-29334375D01*
X116256250Y-36334375D02*
X115256250Y-32334375D01*
X112256250Y-35334375D02*
X116256250Y-36334375D01*
X114256250Y-28334375D02*
X118256250Y-29334375D01*
X119256250Y-33334375D02*
X115256250Y-32334375D01*
X118256250Y-29334375D02*
X115256250Y-32334375D01*
X119256250Y-33334375D02*
X118256250Y-29334375D01*
X114256250Y-28334375D02*
X111256250Y-31334375D01*
X112256250Y-35334375D02*
X111256250Y-31334375D01*
X116256250Y-36334375D02*
X119256250Y-33334375D01*
X112256250Y-35334375D02*
X116256250Y-36334375D01*
X107256250Y-30334375D02*
X111256250Y-31334375D01*
X109256250Y-38334375D02*
X106256250Y-41334375D01*
X114256250Y-28334375D02*
X118256250Y-29334375D01*
X109256250Y-38334375D02*
X112256250Y-35334375D01*
X115256250Y-32334375D02*
X114256250Y-28334375D01*
X115256250Y-32334375D02*
X112256250Y-35334375D01*
X117256250Y-40334375D02*
X116256250Y-36334375D01*
X112256250Y-35334375D02*
X109256250Y-38334375D01*
X109256250Y-38334375D02*
X108256250Y-34334375D01*
X113256250Y-39334375D02*
X110256250Y-42334375D01*
X116256250Y-36334375D02*
X113256250Y-39334375D01*
X111256250Y-31334375D02*
X108256250Y-34334375D01*
X111256250Y-31334375D02*
X115256250Y-32334375D01*
X108256250Y-34334375D02*
X107256250Y-30334375D01*
X114256250Y-43334375D02*
X113256250Y-39334375D01*
X111256250Y-31334375D02*
X114256250Y-28334375D01*
X107256250Y-30334375D02*
X111256250Y-31334375D01*
X144256250Y-43334375D02*
X140256250Y-42334375D01*
X143256250Y-39334375D02*
X140256250Y-42334375D01*
X134256250Y-48334375D02*
X131256250Y-51334375D01*
X139256250Y-38334375D02*
X143256250Y-39334375D01*
X134256250Y-48334375D02*
X137256250Y-45334375D01*
X140256250Y-42334375D02*
X139256250Y-38334375D01*
X140256250Y-42334375D02*
X137256250Y-45334375D01*
X142256250Y-50334375D02*
X141256250Y-46334375D01*
X137256250Y-45334375D02*
X134256250Y-48334375D01*
X134256250Y-48334375D02*
X133256250Y-44334375D01*
X138256250Y-49334375D02*
X135256250Y-52334375D01*
X141256250Y-46334375D02*
X138256250Y-49334375D01*
X136256250Y-41334375D02*
X133256250Y-44334375D01*
X136256250Y-41334375D02*
X140256250Y-42334375D01*
X133256250Y-44334375D02*
X132256250Y-40334375D01*
X139256250Y-53334375D02*
X138256250Y-49334375D01*
X136256250Y-41334375D02*
X139256250Y-38334375D01*
X132256250Y-40334375D02*
X136256250Y-41334375D01*
X141256250Y-46334375D02*
X140256250Y-42334375D01*
X138256250Y-49334375D02*
X137256250Y-45334375D01*
X137256250Y-45334375D02*
X133256250Y-44334375D01*
X135256250Y-52334375D02*
X134256250Y-48334375D01*
X144256250Y-43334375D02*
X143256250Y-39334375D01*
X139256250Y-38334375D02*
X136256250Y-41334375D01*
X135256250Y-52334375D02*
X134256250Y-48334375D01*
X137256250Y-45334375D02*
X136256250Y-41334375D01*
X134256250Y-48334375D02*
X138256250Y-49334375D01*
X142256250Y-50334375D02*
X141256250Y-46334375D01*
X137256250Y-45334375D02*
X141256250Y-46334375D01*
X132256250Y-40334375D02*
X136256250Y-41334375D01*
X144256250Y-43334375D02*
X143256250Y-39334375D01*
X137256250Y-45334375D02*
X136256250Y-41334375D01*
X141256250Y-46334375D02*
X144256250Y-43334375D01*
X137256250Y-45334375D02*
X141256250Y-46334375D01*
X139256250Y-38334375D02*
X143256250Y-39334375D01*
X144256250Y-43334375D02*
X141256250Y-46334375D01*
X142256250Y-50334375D02*
X138256250Y-49334375D01*
X146256250Y-51334375D02*
X143256250Y-54334375D01*
X137256250Y-60334375D02*
X134256250Y-63334375D01*
X142256250Y-50334375D02*
X146256250Y-51334375D01*
X137256250Y-60334375D02*
X140256250Y-57334375D01*
X143256250Y-54334375D02*
X142256250Y-50334375D01*
X143256250Y-54334375D02*
X140256250Y-57334375D01*
X145256250Y-62334375D02*
X144256250Y-58334375D01*
X140256250Y-57334375D02*
X137256250Y-60334375D01*
X137256250Y-60334375D02*
X136256250Y-56334375D01*
X141256250Y-61334375D02*
X138256250Y-64334375D01*
X144256250Y-58334375D02*
X141256250Y-61334375D01*
X139256250Y-53334375D02*
X136256250Y-56334375D01*
X139256250Y-53334375D02*
X143256250Y-54334375D01*
X136256250Y-56334375D02*
X135256250Y-52334375D01*
X139256250Y-53334375D02*
X142256250Y-50334375D01*
X135256250Y-52334375D02*
X139256250Y-53334375D01*
X144256250Y-58334375D02*
X143256250Y-54334375D01*
X141256250Y-61334375D02*
X140256250Y-57334375D01*
X140256250Y-57334375D02*
X136256250Y-56334375D01*
X138256250Y-64334375D02*
X137256250Y-60334375D01*
X147256250Y-55334375D02*
X146256250Y-51334375D01*
X142256250Y-50334375D02*
X139256250Y-53334375D01*
X138256250Y-64334375D02*
X137256250Y-60334375D01*
X140256250Y-57334375D02*
X139256250Y-53334375D01*
X137256250Y-60334375D02*
X141256250Y-61334375D01*
X145256250Y-62334375D02*
X144256250Y-58334375D01*
X140256250Y-57334375D02*
X144256250Y-58334375D01*
X135256250Y-52334375D02*
X139256250Y-53334375D01*
X147256250Y-55334375D02*
X146256250Y-51334375D01*
X140256250Y-57334375D02*
X139256250Y-53334375D01*
X144256250Y-58334375D02*
X147256250Y-55334375D01*
X140256250Y-57334375D02*
X144256250Y-58334375D01*
X142256250Y-50334375D02*
X146256250Y-51334375D01*
X147256250Y-55334375D02*
X144256250Y-58334375D01*
X145256250Y-62334375D02*
X141256250Y-61334375D01*
X147256250Y-55334375D02*
X143256250Y-54334375D01*
X242506250Y-55334375D02*
X238506250Y-54334375D01*
X240506250Y-62334375D02*
X236506250Y-61334375D01*
X242506250Y-55334375D02*
X239506250Y-58334375D01*
X237506250Y-50334375D02*
X241506250Y-51334375D01*
X235506250Y-57334375D02*
X239506250Y-58334375D01*
X239506250Y-58334375D02*
X242506250Y-55334375D01*
X235506250Y-57334375D02*
X234506250Y-53334375D01*
X242506250Y-55334375D02*
X241506250Y-51334375D01*
X230506250Y-52334375D02*
X234506250Y-53334375D01*
X235506250Y-57334375D02*
X239506250Y-58334375D01*
X240506250Y-62334375D02*
X239506250Y-58334375D01*
X232506250Y-60334375D02*
X236506250Y-61334375D01*
X235506250Y-57334375D02*
X234506250Y-53334375D01*
X233506250Y-64334375D02*
X232506250Y-60334375D01*
X237506250Y-50334375D02*
X234506250Y-53334375D01*
X242506250Y-55334375D02*
X241506250Y-51334375D01*
X233506250Y-64334375D02*
X232506250Y-60334375D01*
X235506250Y-57334375D02*
X231506250Y-56334375D01*
X236506250Y-61334375D02*
X235506250Y-57334375D01*
X239506250Y-58334375D02*
X238506250Y-54334375D01*
X230506250Y-52334375D02*
X234506250Y-53334375D01*
X234506250Y-53334375D02*
X237506250Y-50334375D01*
X231506250Y-56334375D02*
X230506250Y-52334375D01*
X234506250Y-53334375D02*
X238506250Y-54334375D01*
X234506250Y-53334375D02*
X231506250Y-56334375D01*
X239506250Y-58334375D02*
X236506250Y-61334375D01*
X236506250Y-61334375D02*
X233506250Y-64334375D01*
X232506250Y-60334375D02*
X231506250Y-56334375D01*
X235506250Y-57334375D02*
X232506250Y-60334375D01*
X240506250Y-62334375D02*
X239506250Y-58334375D01*
X238506250Y-54334375D02*
X235506250Y-57334375D01*
X238506250Y-54334375D02*
X237506250Y-50334375D01*
X232506250Y-60334375D02*
X235506250Y-57334375D01*
X237506250Y-50334375D02*
X241506250Y-51334375D01*
X232506250Y-60334375D02*
X229506250Y-63334375D01*
X241506250Y-51334375D02*
X238506250Y-54334375D01*
X237506250Y-50334375D02*
X233506250Y-49334375D01*
X239506250Y-43334375D02*
X236506250Y-46334375D01*
X234506250Y-38334375D02*
X238506250Y-39334375D01*
X232506250Y-45334375D02*
X236506250Y-46334375D01*
X236506250Y-46334375D02*
X239506250Y-43334375D01*
X232506250Y-45334375D02*
X231506250Y-41334375D01*
X239506250Y-43334375D02*
X238506250Y-39334375D01*
X227506250Y-40334375D02*
X231506250Y-41334375D01*
X232506250Y-45334375D02*
X236506250Y-46334375D01*
X237506250Y-50334375D02*
X236506250Y-46334375D01*
X229506250Y-48334375D02*
X233506250Y-49334375D01*
X232506250Y-45334375D02*
X231506250Y-41334375D01*
X230506250Y-52334375D02*
X229506250Y-48334375D01*
X234506250Y-38334375D02*
X231506250Y-41334375D01*
X239506250Y-43334375D02*
X238506250Y-39334375D01*
X230506250Y-52334375D02*
X229506250Y-48334375D01*
X232506250Y-45334375D02*
X228506250Y-44334375D01*
X233506250Y-49334375D02*
X232506250Y-45334375D01*
X236506250Y-46334375D02*
X235506250Y-42334375D01*
X227506250Y-40334375D02*
X231506250Y-41334375D01*
X231506250Y-41334375D02*
X234506250Y-38334375D01*
X234506250Y-53334375D02*
X233506250Y-49334375D01*
X228506250Y-44334375D02*
X227506250Y-40334375D01*
X231506250Y-41334375D02*
X235506250Y-42334375D01*
X231506250Y-41334375D02*
X228506250Y-44334375D01*
X236506250Y-46334375D02*
X233506250Y-49334375D01*
X233506250Y-49334375D02*
X230506250Y-52334375D01*
X229506250Y-48334375D02*
X228506250Y-44334375D01*
X232506250Y-45334375D02*
X229506250Y-48334375D01*
X237506250Y-50334375D02*
X236506250Y-46334375D01*
X235506250Y-42334375D02*
X232506250Y-45334375D01*
X235506250Y-42334375D02*
X234506250Y-38334375D01*
X229506250Y-48334375D02*
X232506250Y-45334375D01*
X234506250Y-38334375D02*
X238506250Y-39334375D01*
X229506250Y-48334375D02*
X226506250Y-51334375D01*
X238506250Y-39334375D02*
X235506250Y-42334375D01*
X239506250Y-43334375D02*
X235506250Y-42334375D01*
X202506250Y-30334375D02*
X206506250Y-31334375D01*
X206506250Y-31334375D02*
X209506250Y-28334375D01*
X209506250Y-43334375D02*
X208506250Y-39334375D01*
X203506250Y-34334375D02*
X202506250Y-30334375D01*
X206506250Y-31334375D02*
X210506250Y-32334375D01*
X206506250Y-31334375D02*
X203506250Y-34334375D01*
X211506250Y-36334375D02*
X208506250Y-39334375D01*
X208506250Y-39334375D02*
X205506250Y-42334375D01*
X204506250Y-38334375D02*
X203506250Y-34334375D01*
X207506250Y-35334375D02*
X204506250Y-38334375D01*
X212506250Y-40334375D02*
X211506250Y-36334375D01*
X210506250Y-32334375D02*
X207506250Y-35334375D01*
X210506250Y-32334375D02*
X209506250Y-28334375D01*
X204506250Y-38334375D02*
X207506250Y-35334375D01*
X209506250Y-28334375D02*
X213506250Y-29334375D01*
X204506250Y-38334375D02*
X201506250Y-41334375D01*
X202506250Y-30334375D02*
X206506250Y-31334375D01*
X207506250Y-35334375D02*
X211506250Y-36334375D01*
X211506250Y-36334375D02*
X214506250Y-33334375D01*
X207506250Y-35334375D02*
X206506250Y-31334375D01*
X209506250Y-28334375D02*
X206506250Y-31334375D01*
X214506250Y-33334375D02*
X213506250Y-29334375D01*
X213506250Y-29334375D02*
X210506250Y-32334375D01*
X214506250Y-33334375D02*
X210506250Y-32334375D01*
X209506250Y-28334375D02*
X213506250Y-29334375D01*
X207506250Y-35334375D02*
X211506250Y-36334375D01*
X211506250Y-36334375D02*
X210506250Y-32334375D01*
X214506250Y-33334375D02*
X213506250Y-29334375D01*
X205506250Y-42334375D02*
X204506250Y-38334375D01*
X212506250Y-40334375D02*
X211506250Y-36334375D01*
X212506250Y-40334375D02*
X208506250Y-39334375D01*
X208506250Y-39334375D02*
X207506250Y-35334375D01*
X214506250Y-33334375D02*
X211506250Y-36334375D01*
X207506250Y-35334375D02*
X206506250Y-31334375D01*
X204506250Y-38334375D02*
X208506250Y-39334375D01*
X207506250Y-35334375D02*
X203506250Y-34334375D01*
X205506250Y-42334375D02*
X204506250Y-38334375D01*
X198506250Y-29334375D02*
X195506250Y-32334375D01*
X198506250Y-29334375D02*
X197506250Y-25334375D01*
X200506250Y-37334375D02*
X197506250Y-40334375D01*
X192506250Y-35334375D02*
X195506250Y-32334375D01*
X197506250Y-25334375D02*
X201506250Y-26334375D01*
X199506250Y-33334375D02*
X202506250Y-30334375D01*
X195506250Y-32334375D02*
X194506250Y-28334375D01*
X197506250Y-25334375D02*
X194506250Y-28334375D01*
X202506250Y-30334375D02*
X201506250Y-26334375D01*
X201506250Y-26334375D02*
X198506250Y-29334375D01*
X202506250Y-30334375D02*
X198506250Y-29334375D01*
X197506250Y-25334375D02*
X201506250Y-26334375D01*
X195506250Y-32334375D02*
X199506250Y-33334375D01*
X199506250Y-33334375D02*
X198506250Y-29334375D01*
X202506250Y-30334375D02*
X201506250Y-26334375D01*
X193506250Y-39334375D02*
X192506250Y-35334375D01*
X192506250Y-35334375D02*
X189506250Y-38334375D01*
X190506250Y-27334375D02*
X194506250Y-28334375D01*
X197506250Y-40334375D02*
X200506250Y-37334375D01*
X193506250Y-39334375D02*
X192506250Y-35334375D01*
X193506250Y-39334375D02*
X197506250Y-40334375D01*
X200506250Y-37334375D02*
X199506250Y-33334375D01*
X202506250Y-30334375D02*
X199506250Y-33334375D01*
X195506250Y-32334375D02*
X194506250Y-28334375D01*
X195506250Y-32334375D02*
X192506250Y-35334375D01*
X200506250Y-37334375D02*
X199506250Y-33334375D01*
X199506250Y-33334375D02*
X196506250Y-36334375D01*
X196506250Y-36334375D02*
X193506250Y-39334375D01*
X196506250Y-36334375D02*
X195506250Y-32334375D01*
X200506250Y-37334375D02*
X196506250Y-36334375D01*
X195506250Y-32334375D02*
X199506250Y-33334375D01*
X193506250Y-39334375D02*
X197506250Y-40334375D01*
X195506250Y-32334375D02*
X191506250Y-31334375D01*
X194506250Y-28334375D02*
X191506250Y-31334375D01*
X197506250Y-40334375D02*
X196506250Y-36334375D01*
X192506250Y-35334375D02*
X196506250Y-36334375D01*
X190506250Y-27334375D02*
X194506250Y-28334375D01*
X194506250Y-28334375D02*
X197506250Y-25334375D01*
X192506250Y-35334375D02*
X191506250Y-31334375D01*
X191506250Y-31334375D02*
X190506250Y-27334375D01*
X194506250Y-28334375D02*
X198506250Y-29334375D01*
X193506250Y-39334375D02*
X189506250Y-38334375D01*
X197506250Y-40334375D02*
X201506250Y-41334375D01*
X197506250Y-40334375D02*
X194506250Y-43334375D01*
X202506250Y-45334375D02*
X201506250Y-41334375D01*
X201506250Y-41334375D02*
X198506250Y-44334375D01*
X198506250Y-44334375D02*
X197506250Y-40334375D01*
X197506250Y-40334375D02*
X201506250Y-41334375D01*
X202506250Y-45334375D02*
X201506250Y-41334375D01*
X194506250Y-43334375D02*
X197506250Y-40334375D01*
X190506250Y-42334375D02*
X189506250Y-38334375D01*
X189506250Y-38334375D02*
X186506250Y-41334375D01*
X185506250Y-37334375D02*
X189506250Y-38334375D01*
X187506250Y-30334375D02*
X184506250Y-33334375D01*
X188506250Y-34334375D02*
X184506250Y-33334375D01*
X183506250Y-29334375D02*
X187506250Y-30334375D01*
X183506250Y-29334375D02*
X187506250Y-30334375D01*
X179506250Y-43334375D02*
X175506250Y-42334375D01*
X181506250Y-36334375D02*
X180506250Y-32334375D01*
X183506250Y-29334375D02*
X180506250Y-32334375D01*
X188506250Y-34334375D02*
X187506250Y-30334375D01*
X185506250Y-37334375D02*
X188506250Y-34334375D01*
X184506250Y-33334375D02*
X183506250Y-29334375D01*
X184506250Y-33334375D02*
X181506250Y-36334375D01*
X186506250Y-41334375D02*
X183506250Y-44334375D01*
X179506250Y-43334375D02*
X178506250Y-39334375D01*
X178506250Y-39334375D02*
X175506250Y-42334375D01*
X186506250Y-41334375D02*
X185506250Y-37334375D01*
X188506250Y-34334375D02*
X185506250Y-37334375D01*
X181506250Y-36334375D02*
X180506250Y-32334375D01*
X181506250Y-36334375D02*
X178506250Y-39334375D01*
X186506250Y-41334375D02*
X185506250Y-37334375D01*
X185506250Y-37334375D02*
X182506250Y-40334375D01*
X182506250Y-40334375D02*
X179506250Y-43334375D01*
X182506250Y-40334375D02*
X181506250Y-36334375D01*
X179506250Y-43334375D02*
X183506250Y-44334375D01*
X181506250Y-36334375D02*
X177506250Y-35334375D01*
X180506250Y-32334375D02*
X177506250Y-35334375D01*
X183506250Y-44334375D02*
X182506250Y-40334375D01*
X178506250Y-39334375D02*
X182506250Y-40334375D01*
X176506250Y-31334375D02*
X180506250Y-32334375D01*
X180506250Y-32334375D02*
X183506250Y-29334375D01*
X178506250Y-39334375D02*
X177506250Y-35334375D01*
X177506250Y-35334375D02*
X176506250Y-31334375D01*
X180506250Y-32334375D02*
X184506250Y-33334375D01*
X176506250Y-31334375D02*
X180506250Y-32334375D01*
X183506250Y-44334375D02*
X186506250Y-41334375D01*
X179506250Y-43334375D02*
X178506250Y-39334375D01*
X179506250Y-43334375D02*
X183506250Y-44334375D01*
X186506250Y-41334375D02*
X182506250Y-40334375D01*
X181506250Y-36334375D02*
X185506250Y-37334375D01*
X178506250Y-39334375D02*
X181506250Y-36334375D01*
X181506250Y-36334375D02*
X185506250Y-37334375D01*
X185506250Y-37334375D02*
X184506250Y-33334375D01*
X188506250Y-34334375D02*
X187506250Y-30334375D01*
X176506250Y-31334375D02*
X173506250Y-34334375D01*
X177506250Y-35334375D02*
X173506250Y-34334375D01*
X172506250Y-30334375D02*
X176506250Y-31334375D01*
X172506250Y-30334375D02*
X176506250Y-31334375D01*
X168506250Y-44334375D02*
X164506250Y-43334375D01*
X170506250Y-37334375D02*
X169506250Y-33334375D01*
X172506250Y-30334375D02*
X169506250Y-33334375D01*
X177506250Y-35334375D02*
X176506250Y-31334375D01*
X174506250Y-38334375D02*
X177506250Y-35334375D01*
X173506250Y-34334375D02*
X172506250Y-30334375D01*
X173506250Y-34334375D02*
X170506250Y-37334375D01*
X175506250Y-42334375D02*
X172506250Y-45334375D01*
X168506250Y-44334375D02*
X167506250Y-40334375D01*
X167506250Y-40334375D02*
X164506250Y-43334375D01*
X175506250Y-42334375D02*
X174506250Y-38334375D01*
X177506250Y-35334375D02*
X174506250Y-38334375D01*
X170506250Y-37334375D02*
X169506250Y-33334375D01*
X170506250Y-37334375D02*
X167506250Y-40334375D01*
X175506250Y-42334375D02*
X174506250Y-38334375D01*
X174506250Y-38334375D02*
X171506250Y-41334375D01*
X171506250Y-41334375D02*
X168506250Y-44334375D01*
X171506250Y-41334375D02*
X170506250Y-37334375D01*
X168506250Y-44334375D02*
X172506250Y-45334375D01*
X170506250Y-37334375D02*
X166506250Y-36334375D01*
X169506250Y-33334375D02*
X166506250Y-36334375D01*
X172506250Y-45334375D02*
X171506250Y-41334375D01*
X167506250Y-40334375D02*
X171506250Y-41334375D01*
X165506250Y-32334375D02*
X169506250Y-33334375D01*
X169506250Y-33334375D02*
X172506250Y-30334375D01*
X167506250Y-40334375D02*
X166506250Y-36334375D01*
X166506250Y-36334375D02*
X165506250Y-32334375D01*
X169506250Y-33334375D02*
X173506250Y-34334375D01*
X165506250Y-32334375D02*
X169506250Y-33334375D01*
X172506250Y-45334375D02*
X175506250Y-42334375D01*
X168506250Y-44334375D02*
X167506250Y-40334375D01*
X168506250Y-44334375D02*
X172506250Y-45334375D01*
X175506250Y-42334375D02*
X171506250Y-41334375D01*
X170506250Y-37334375D02*
X174506250Y-38334375D01*
X167506250Y-40334375D02*
X170506250Y-37334375D01*
X170506250Y-37334375D02*
X174506250Y-38334375D01*
X174506250Y-38334375D02*
X173506250Y-34334375D01*
X177506250Y-35334375D02*
X176506250Y-31334375D01*
X175506250Y-57334375D02*
X172506250Y-60334375D01*
X176506250Y-61334375D02*
X172506250Y-60334375D01*
X171506250Y-56334375D02*
X175506250Y-57334375D01*
X171506250Y-56334375D02*
X175506250Y-57334375D01*
X167506250Y-70334375D02*
X163506250Y-69334375D01*
X169506250Y-63334375D02*
X168506250Y-59334375D01*
X171506250Y-56334375D02*
X168506250Y-59334375D01*
X176506250Y-61334375D02*
X175506250Y-57334375D01*
X173506250Y-64334375D02*
X176506250Y-61334375D01*
X172506250Y-60334375D02*
X171506250Y-56334375D01*
X172506250Y-60334375D02*
X169506250Y-63334375D01*
X174506250Y-68334375D02*
X171506250Y-71334375D01*
X167506250Y-70334375D02*
X166506250Y-66334375D01*
X166506250Y-66334375D02*
X163506250Y-69334375D01*
X174506250Y-68334375D02*
X173506250Y-64334375D01*
X176506250Y-61334375D02*
X173506250Y-64334375D01*
X169506250Y-63334375D02*
X168506250Y-59334375D01*
X169506250Y-63334375D02*
X166506250Y-66334375D01*
X174506250Y-68334375D02*
X173506250Y-64334375D01*
X173506250Y-64334375D02*
X170506250Y-67334375D01*
X170506250Y-67334375D02*
X167506250Y-70334375D01*
X170506250Y-67334375D02*
X169506250Y-63334375D01*
X167506250Y-70334375D02*
X171506250Y-71334375D01*
X169506250Y-63334375D02*
X165506250Y-62334375D01*
X168506250Y-59334375D02*
X165506250Y-62334375D01*
X171506250Y-71334375D02*
X170506250Y-67334375D01*
X166506250Y-66334375D02*
X170506250Y-67334375D01*
X164506250Y-58334375D02*
X168506250Y-59334375D01*
X168506250Y-59334375D02*
X171506250Y-56334375D01*
X166506250Y-66334375D02*
X165506250Y-62334375D01*
X165506250Y-62334375D02*
X164506250Y-58334375D01*
X168506250Y-59334375D02*
X172506250Y-60334375D01*
X164506250Y-58334375D02*
X168506250Y-59334375D01*
X171506250Y-71334375D02*
X174506250Y-68334375D01*
X167506250Y-70334375D02*
X166506250Y-66334375D01*
X167506250Y-70334375D02*
X171506250Y-71334375D01*
X174506250Y-68334375D02*
X170506250Y-67334375D01*
X169506250Y-63334375D02*
X173506250Y-64334375D01*
X166506250Y-66334375D02*
X169506250Y-63334375D01*
X169506250Y-63334375D02*
X173506250Y-64334375D01*
X173506250Y-64334375D02*
X172506250Y-60334375D01*
X176506250Y-61334375D02*
X175506250Y-57334375D01*
X171506250Y-56334375D02*
X167506250Y-55334375D01*
X173506250Y-49334375D02*
X172506250Y-45334375D01*
X175506250Y-42334375D02*
X172506250Y-45334375D01*
X180506250Y-47334375D02*
X179506250Y-43334375D01*
X179506250Y-43334375D02*
X176506250Y-46334375D01*
X180506250Y-47334375D02*
X176506250Y-46334375D01*
X175506250Y-42334375D02*
X179506250Y-43334375D01*
X173506250Y-49334375D02*
X177506250Y-50334375D01*
X177506250Y-50334375D02*
X176506250Y-46334375D01*
X180506250Y-47334375D02*
X179506250Y-43334375D01*
X171506250Y-56334375D02*
X170506250Y-52334375D01*
X170506250Y-52334375D02*
X167506250Y-55334375D01*
X178506250Y-54334375D02*
X177506250Y-50334375D01*
X180506250Y-47334375D02*
X177506250Y-50334375D01*
X173506250Y-49334375D02*
X172506250Y-45334375D01*
X173506250Y-49334375D02*
X170506250Y-52334375D01*
X178506250Y-54334375D02*
X177506250Y-50334375D01*
X177506250Y-50334375D02*
X174506250Y-53334375D01*
X174506250Y-53334375D02*
X171506250Y-56334375D01*
X174506250Y-53334375D02*
X173506250Y-49334375D01*
X171506250Y-56334375D02*
X175506250Y-57334375D01*
X173506250Y-49334375D02*
X169506250Y-48334375D01*
X172506250Y-45334375D02*
X169506250Y-48334375D01*
X175506250Y-57334375D02*
X174506250Y-53334375D01*
X170506250Y-52334375D02*
X174506250Y-53334375D01*
X168506250Y-44334375D02*
X172506250Y-45334375D01*
X172506250Y-45334375D02*
X175506250Y-42334375D01*
X170506250Y-52334375D02*
X169506250Y-48334375D01*
X169506250Y-48334375D02*
X168506250Y-44334375D01*
X172506250Y-45334375D02*
X176506250Y-46334375D01*
X168506250Y-44334375D02*
X172506250Y-45334375D01*
X175506250Y-57334375D02*
X178506250Y-54334375D01*
X171506250Y-56334375D02*
X170506250Y-52334375D01*
X171506250Y-56334375D02*
X175506250Y-57334375D01*
X178506250Y-54334375D02*
X174506250Y-53334375D01*
X173506250Y-49334375D02*
X177506250Y-50334375D01*
X176506250Y-46334375D02*
X173506250Y-49334375D01*
X176506250Y-46334375D02*
X175506250Y-42334375D01*
X178506250Y-54334375D02*
X175506250Y-57334375D01*
X170506250Y-52334375D02*
X173506250Y-49334375D01*
X175506250Y-42334375D02*
X179506250Y-43334375D01*
X177506250Y-50334375D02*
X180506250Y-47334375D01*
X175506250Y-57334375D02*
X179506250Y-58334375D01*
X182506250Y-70334375D02*
X185506250Y-67334375D01*
X178506250Y-69334375D02*
X177506250Y-65334375D01*
X178506250Y-69334375D02*
X182506250Y-70334375D01*
X185506250Y-67334375D02*
X181506250Y-66334375D01*
X180506250Y-62334375D02*
X184506250Y-63334375D01*
X183506250Y-59334375D02*
X180506250Y-62334375D01*
X183506250Y-59334375D02*
X182506250Y-55334375D01*
X185506250Y-67334375D02*
X182506250Y-70334375D01*
X177506250Y-65334375D02*
X180506250Y-62334375D01*
X182506250Y-55334375D02*
X186506250Y-56334375D01*
X184506250Y-63334375D02*
X187506250Y-60334375D01*
X180506250Y-62334375D02*
X179506250Y-58334375D01*
X182506250Y-55334375D02*
X179506250Y-58334375D01*
X187506250Y-60334375D02*
X186506250Y-56334375D01*
X186506250Y-56334375D02*
X183506250Y-59334375D01*
X187506250Y-60334375D02*
X183506250Y-59334375D01*
X182506250Y-55334375D02*
X186506250Y-56334375D01*
X180506250Y-62334375D02*
X184506250Y-63334375D01*
X184506250Y-63334375D02*
X183506250Y-59334375D01*
X187506250Y-60334375D02*
X186506250Y-56334375D01*
X178506250Y-69334375D02*
X177506250Y-65334375D01*
X177506250Y-65334375D02*
X174506250Y-68334375D01*
X185506250Y-67334375D02*
X184506250Y-63334375D01*
X187506250Y-60334375D02*
X184506250Y-63334375D01*
X180506250Y-62334375D02*
X179506250Y-58334375D01*
X180506250Y-62334375D02*
X177506250Y-65334375D01*
X185506250Y-67334375D02*
X184506250Y-63334375D01*
X184506250Y-63334375D02*
X181506250Y-66334375D01*
X181506250Y-66334375D02*
X178506250Y-69334375D01*
X181506250Y-66334375D02*
X180506250Y-62334375D01*
X178506250Y-69334375D02*
X182506250Y-70334375D01*
X180506250Y-62334375D02*
X176506250Y-61334375D01*
X179506250Y-58334375D02*
X176506250Y-61334375D01*
X182506250Y-70334375D02*
X181506250Y-66334375D01*
X177506250Y-65334375D02*
X181506250Y-66334375D01*
X175506250Y-57334375D02*
X179506250Y-58334375D01*
X179506250Y-58334375D02*
X182506250Y-55334375D01*
X177506250Y-65334375D02*
X176506250Y-61334375D01*
X176506250Y-61334375D02*
X175506250Y-57334375D01*
X179506250Y-58334375D02*
X183506250Y-59334375D01*
X178506250Y-69334375D02*
X174506250Y-68334375D01*
X189506250Y-53334375D02*
X185506250Y-52334375D01*
X184506250Y-48334375D02*
X188506250Y-49334375D01*
X187506250Y-45334375D02*
X184506250Y-48334375D01*
X187506250Y-45334375D02*
X186506250Y-41334375D01*
X189506250Y-53334375D02*
X186506250Y-56334375D01*
X181506250Y-51334375D02*
X184506250Y-48334375D01*
X186506250Y-41334375D02*
X190506250Y-42334375D01*
X188506250Y-49334375D02*
X191506250Y-46334375D01*
X184506250Y-48334375D02*
X183506250Y-44334375D01*
X186506250Y-41334375D02*
X183506250Y-44334375D01*
X191506250Y-46334375D02*
X190506250Y-42334375D01*
X190506250Y-42334375D02*
X187506250Y-45334375D01*
X191506250Y-46334375D02*
X187506250Y-45334375D01*
X186506250Y-41334375D02*
X190506250Y-42334375D01*
X184506250Y-48334375D02*
X188506250Y-49334375D01*
X188506250Y-49334375D02*
X187506250Y-45334375D01*
X191506250Y-46334375D02*
X190506250Y-42334375D01*
X182506250Y-55334375D02*
X181506250Y-51334375D01*
X181506250Y-51334375D02*
X178506250Y-54334375D01*
X179506250Y-43334375D02*
X183506250Y-44334375D01*
X186506250Y-56334375D02*
X189506250Y-53334375D01*
X182506250Y-55334375D02*
X181506250Y-51334375D01*
X182506250Y-55334375D02*
X186506250Y-56334375D01*
X189506250Y-53334375D02*
X188506250Y-49334375D01*
X191506250Y-46334375D02*
X188506250Y-49334375D01*
X184506250Y-48334375D02*
X183506250Y-44334375D01*
X184506250Y-48334375D02*
X181506250Y-51334375D01*
X189506250Y-53334375D02*
X188506250Y-49334375D01*
X188506250Y-49334375D02*
X185506250Y-52334375D01*
X185506250Y-52334375D02*
X182506250Y-55334375D01*
X185506250Y-52334375D02*
X184506250Y-48334375D01*
X182506250Y-55334375D02*
X186506250Y-56334375D01*
X184506250Y-48334375D02*
X180506250Y-47334375D01*
X183506250Y-44334375D02*
X180506250Y-47334375D01*
X186506250Y-56334375D02*
X185506250Y-52334375D01*
X181506250Y-51334375D02*
X185506250Y-52334375D01*
X179506250Y-43334375D02*
X183506250Y-44334375D01*
X183506250Y-44334375D02*
X186506250Y-41334375D01*
X181506250Y-51334375D02*
X180506250Y-47334375D01*
X180506250Y-47334375D02*
X179506250Y-43334375D01*
X183506250Y-44334375D02*
X187506250Y-45334375D01*
X182506250Y-55334375D02*
X178506250Y-54334375D01*
X194506250Y-73334375D02*
X190506250Y-72334375D01*
X189506250Y-68334375D02*
X193506250Y-69334375D01*
X192506250Y-65334375D02*
X189506250Y-68334375D01*
X192506250Y-65334375D02*
X191506250Y-61334375D01*
X194506250Y-73334375D02*
X191506250Y-76334375D01*
X186506250Y-71334375D02*
X189506250Y-68334375D01*
X191506250Y-61334375D02*
X195506250Y-62334375D01*
X193506250Y-69334375D02*
X196506250Y-66334375D01*
X189506250Y-68334375D02*
X188506250Y-64334375D01*
X191506250Y-61334375D02*
X188506250Y-64334375D01*
X196506250Y-66334375D02*
X195506250Y-62334375D01*
X195506250Y-62334375D02*
X192506250Y-65334375D01*
X196506250Y-66334375D02*
X192506250Y-65334375D01*
X191506250Y-61334375D02*
X195506250Y-62334375D01*
X189506250Y-68334375D02*
X193506250Y-69334375D01*
X193506250Y-69334375D02*
X192506250Y-65334375D01*
X196506250Y-66334375D02*
X195506250Y-62334375D01*
X187506250Y-75334375D02*
X186506250Y-71334375D01*
X186506250Y-71334375D02*
X183506250Y-74334375D01*
X184506250Y-63334375D02*
X188506250Y-64334375D01*
X191506250Y-76334375D02*
X194506250Y-73334375D01*
X187506250Y-75334375D02*
X186506250Y-71334375D01*
X187506250Y-75334375D02*
X191506250Y-76334375D01*
X194506250Y-73334375D02*
X193506250Y-69334375D01*
X196506250Y-66334375D02*
X193506250Y-69334375D01*
X189506250Y-68334375D02*
X188506250Y-64334375D01*
X189506250Y-68334375D02*
X186506250Y-71334375D01*
X194506250Y-73334375D02*
X193506250Y-69334375D01*
X193506250Y-69334375D02*
X190506250Y-72334375D01*
X190506250Y-72334375D02*
X187506250Y-75334375D01*
X190506250Y-72334375D02*
X189506250Y-68334375D01*
X187506250Y-75334375D02*
X191506250Y-76334375D01*
X189506250Y-68334375D02*
X185506250Y-67334375D01*
X188506250Y-64334375D02*
X185506250Y-67334375D01*
X191506250Y-76334375D02*
X190506250Y-72334375D01*
X186506250Y-71334375D02*
X190506250Y-72334375D01*
X184506250Y-63334375D02*
X188506250Y-64334375D01*
X188506250Y-64334375D02*
X191506250Y-61334375D01*
X186506250Y-71334375D02*
X185506250Y-67334375D01*
X185506250Y-67334375D02*
X184506250Y-63334375D01*
X188506250Y-64334375D02*
X192506250Y-65334375D01*
X187506250Y-75334375D02*
X183506250Y-74334375D01*
X201506250Y-71334375D02*
X198506250Y-74334375D01*
X201506250Y-71334375D02*
X200506250Y-67334375D01*
X203506250Y-79334375D02*
X200506250Y-82334375D01*
X195506250Y-77334375D02*
X198506250Y-74334375D01*
X200506250Y-67334375D02*
X204506250Y-68334375D01*
X202506250Y-75334375D02*
X205506250Y-72334375D01*
X198506250Y-74334375D02*
X197506250Y-70334375D01*
X200506250Y-67334375D02*
X197506250Y-70334375D01*
X205506250Y-72334375D02*
X204506250Y-68334375D01*
X204506250Y-68334375D02*
X201506250Y-71334375D01*
X205506250Y-72334375D02*
X201506250Y-71334375D01*
X200506250Y-67334375D02*
X204506250Y-68334375D01*
X198506250Y-74334375D02*
X202506250Y-75334375D01*
X202506250Y-75334375D02*
X201506250Y-71334375D01*
X205506250Y-72334375D02*
X204506250Y-68334375D01*
X196506250Y-81334375D02*
X195506250Y-77334375D01*
X195506250Y-77334375D02*
X192506250Y-80334375D01*
X193506250Y-69334375D02*
X197506250Y-70334375D01*
X200506250Y-82334375D02*
X203506250Y-79334375D01*
X196506250Y-81334375D02*
X195506250Y-77334375D01*
X196506250Y-81334375D02*
X200506250Y-82334375D01*
X203506250Y-79334375D02*
X202506250Y-75334375D01*
X205506250Y-72334375D02*
X202506250Y-75334375D01*
X198506250Y-74334375D02*
X197506250Y-70334375D01*
X198506250Y-74334375D02*
X195506250Y-77334375D01*
X203506250Y-79334375D02*
X202506250Y-75334375D01*
X202506250Y-75334375D02*
X199506250Y-78334375D01*
X199506250Y-78334375D02*
X196506250Y-81334375D01*
X199506250Y-78334375D02*
X198506250Y-74334375D01*
X203506250Y-79334375D02*
X199506250Y-78334375D01*
X198506250Y-74334375D02*
X202506250Y-75334375D01*
X196506250Y-81334375D02*
X200506250Y-82334375D01*
X198506250Y-74334375D02*
X194506250Y-73334375D01*
X197506250Y-70334375D02*
X194506250Y-73334375D01*
X200506250Y-82334375D02*
X199506250Y-78334375D01*
X195506250Y-77334375D02*
X199506250Y-78334375D01*
X193506250Y-69334375D02*
X197506250Y-70334375D01*
X197506250Y-70334375D02*
X200506250Y-67334375D01*
X195506250Y-77334375D02*
X194506250Y-73334375D01*
X194506250Y-73334375D02*
X193506250Y-69334375D01*
X197506250Y-70334375D02*
X201506250Y-71334375D01*
X196506250Y-81334375D02*
X192506250Y-80334375D01*
X212506250Y-70334375D02*
X209506250Y-73334375D01*
X212506250Y-70334375D02*
X211506250Y-66334375D01*
X214506250Y-78334375D02*
X211506250Y-81334375D01*
X206506250Y-76334375D02*
X209506250Y-73334375D01*
X211506250Y-66334375D02*
X215506250Y-67334375D01*
X213506250Y-74334375D02*
X216506250Y-71334375D01*
X209506250Y-73334375D02*
X208506250Y-69334375D01*
X211506250Y-66334375D02*
X208506250Y-69334375D01*
X216506250Y-71334375D02*
X215506250Y-67334375D01*
X215506250Y-67334375D02*
X212506250Y-70334375D01*
X216506250Y-71334375D02*
X212506250Y-70334375D01*
X211506250Y-66334375D02*
X215506250Y-67334375D01*
X209506250Y-73334375D02*
X213506250Y-74334375D01*
X213506250Y-74334375D02*
X212506250Y-70334375D01*
X216506250Y-71334375D02*
X215506250Y-67334375D01*
X207506250Y-80334375D02*
X206506250Y-76334375D01*
X206506250Y-76334375D02*
X203506250Y-79334375D01*
X204506250Y-68334375D02*
X208506250Y-69334375D01*
X211506250Y-81334375D02*
X214506250Y-78334375D01*
X207506250Y-80334375D02*
X206506250Y-76334375D01*
X207506250Y-80334375D02*
X211506250Y-81334375D01*
X214506250Y-78334375D02*
X213506250Y-74334375D01*
X216506250Y-71334375D02*
X213506250Y-74334375D01*
X209506250Y-73334375D02*
X208506250Y-69334375D01*
X209506250Y-73334375D02*
X206506250Y-76334375D01*
X214506250Y-78334375D02*
X213506250Y-74334375D01*
X213506250Y-74334375D02*
X210506250Y-77334375D01*
X210506250Y-77334375D02*
X207506250Y-80334375D01*
X210506250Y-77334375D02*
X209506250Y-73334375D01*
X214506250Y-78334375D02*
X210506250Y-77334375D01*
X209506250Y-73334375D02*
X213506250Y-74334375D01*
X207506250Y-80334375D02*
X211506250Y-81334375D01*
X209506250Y-73334375D02*
X205506250Y-72334375D01*
X208506250Y-69334375D02*
X205506250Y-72334375D01*
X211506250Y-81334375D02*
X210506250Y-77334375D01*
X206506250Y-76334375D02*
X210506250Y-77334375D01*
X204506250Y-68334375D02*
X208506250Y-69334375D01*
X208506250Y-69334375D02*
X211506250Y-66334375D01*
X206506250Y-76334375D02*
X205506250Y-72334375D01*
X205506250Y-72334375D02*
X204506250Y-68334375D01*
X208506250Y-69334375D02*
X212506250Y-70334375D01*
X207506250Y-80334375D02*
X203506250Y-79334375D01*
X226506250Y-66334375D02*
X223506250Y-69334375D01*
X226506250Y-66334375D02*
X225506250Y-62334375D01*
X228506250Y-74334375D02*
X225506250Y-77334375D01*
X220506250Y-72334375D02*
X223506250Y-69334375D01*
X225506250Y-62334375D02*
X229506250Y-63334375D01*
X227506250Y-70334375D02*
X230506250Y-67334375D01*
X223506250Y-69334375D02*
X222506250Y-65334375D01*
X225506250Y-62334375D02*
X222506250Y-65334375D01*
X230506250Y-67334375D02*
X229506250Y-63334375D01*
X229506250Y-63334375D02*
X226506250Y-66334375D01*
X230506250Y-67334375D02*
X226506250Y-66334375D01*
X225506250Y-62334375D02*
X229506250Y-63334375D01*
X223506250Y-69334375D02*
X227506250Y-70334375D01*
X227506250Y-70334375D02*
X226506250Y-66334375D01*
X230506250Y-67334375D02*
X229506250Y-63334375D01*
X221506250Y-76334375D02*
X220506250Y-72334375D01*
X220506250Y-72334375D02*
X217506250Y-75334375D01*
X218506250Y-64334375D02*
X222506250Y-65334375D01*
X225506250Y-77334375D02*
X228506250Y-74334375D01*
X221506250Y-76334375D02*
X220506250Y-72334375D01*
X221506250Y-76334375D02*
X225506250Y-77334375D01*
X228506250Y-74334375D02*
X227506250Y-70334375D01*
X230506250Y-67334375D02*
X227506250Y-70334375D01*
X223506250Y-69334375D02*
X222506250Y-65334375D01*
X223506250Y-69334375D02*
X220506250Y-72334375D01*
X228506250Y-74334375D02*
X227506250Y-70334375D01*
X227506250Y-70334375D02*
X224506250Y-73334375D01*
X224506250Y-73334375D02*
X221506250Y-76334375D01*
X224506250Y-73334375D02*
X223506250Y-69334375D01*
X228506250Y-74334375D02*
X224506250Y-73334375D01*
X223506250Y-69334375D02*
X227506250Y-70334375D01*
X221506250Y-76334375D02*
X225506250Y-77334375D01*
X223506250Y-69334375D02*
X219506250Y-68334375D01*
X222506250Y-65334375D02*
X219506250Y-68334375D01*
X225506250Y-77334375D02*
X224506250Y-73334375D01*
X220506250Y-72334375D02*
X224506250Y-73334375D01*
X218506250Y-64334375D02*
X222506250Y-65334375D01*
X222506250Y-65334375D02*
X225506250Y-62334375D01*
X220506250Y-72334375D02*
X219506250Y-68334375D01*
X219506250Y-68334375D02*
X218506250Y-64334375D01*
X222506250Y-65334375D02*
X226506250Y-66334375D01*
X221506250Y-76334375D02*
X217506250Y-75334375D01*
X226506250Y-36334375D02*
X223506250Y-39334375D01*
X226506250Y-36334375D02*
X225506250Y-32334375D01*
X228506250Y-44334375D02*
X225506250Y-47334375D01*
X220506250Y-42334375D02*
X223506250Y-39334375D01*
X225506250Y-32334375D02*
X229506250Y-33334375D01*
X227506250Y-40334375D02*
X230506250Y-37334375D01*
X223506250Y-39334375D02*
X222506250Y-35334375D01*
X225506250Y-32334375D02*
X222506250Y-35334375D01*
X230506250Y-37334375D02*
X229506250Y-33334375D01*
X229506250Y-33334375D02*
X226506250Y-36334375D01*
X230506250Y-37334375D02*
X226506250Y-36334375D01*
X225506250Y-32334375D02*
X229506250Y-33334375D01*
X223506250Y-39334375D02*
X227506250Y-40334375D01*
X227506250Y-40334375D02*
X226506250Y-36334375D01*
X230506250Y-37334375D02*
X229506250Y-33334375D01*
X221506250Y-46334375D02*
X220506250Y-42334375D01*
X220506250Y-42334375D02*
X217506250Y-45334375D01*
X218506250Y-34334375D02*
X222506250Y-35334375D01*
X225506250Y-47334375D02*
X228506250Y-44334375D01*
X221506250Y-46334375D02*
X220506250Y-42334375D01*
X221506250Y-46334375D02*
X225506250Y-47334375D01*
X228506250Y-44334375D02*
X227506250Y-40334375D01*
X230506250Y-37334375D02*
X227506250Y-40334375D01*
X223506250Y-39334375D02*
X222506250Y-35334375D01*
X223506250Y-39334375D02*
X220506250Y-42334375D01*
X228506250Y-44334375D02*
X227506250Y-40334375D01*
X227506250Y-40334375D02*
X224506250Y-43334375D01*
X224506250Y-43334375D02*
X221506250Y-46334375D01*
X224506250Y-43334375D02*
X223506250Y-39334375D01*
X228506250Y-44334375D02*
X224506250Y-43334375D01*
X223506250Y-39334375D02*
X227506250Y-40334375D01*
X221506250Y-46334375D02*
X225506250Y-47334375D01*
X223506250Y-39334375D02*
X219506250Y-38334375D01*
X222506250Y-35334375D02*
X219506250Y-38334375D01*
X225506250Y-47334375D02*
X224506250Y-43334375D01*
X220506250Y-42334375D02*
X224506250Y-43334375D01*
X218506250Y-34334375D02*
X222506250Y-35334375D01*
X222506250Y-35334375D02*
X225506250Y-32334375D01*
X220506250Y-42334375D02*
X219506250Y-38334375D01*
X219506250Y-38334375D02*
X218506250Y-34334375D01*
X222506250Y-35334375D02*
X226506250Y-36334375D01*
X221506250Y-46334375D02*
X217506250Y-45334375D01*
X220506250Y-57334375D02*
X223506250Y-54334375D01*
X225506250Y-47334375D02*
X229506250Y-48334375D01*
X227506250Y-55334375D02*
X230506250Y-52334375D01*
X223506250Y-54334375D02*
X222506250Y-50334375D01*
X225506250Y-47334375D02*
X222506250Y-50334375D01*
X230506250Y-52334375D02*
X229506250Y-48334375D01*
X229506250Y-48334375D02*
X226506250Y-51334375D01*
X226506250Y-51334375D02*
X223506250Y-54334375D01*
X226506250Y-51334375D02*
X225506250Y-47334375D01*
X230506250Y-52334375D02*
X226506250Y-51334375D01*
X225506250Y-47334375D02*
X229506250Y-48334375D01*
X223506250Y-54334375D02*
X227506250Y-55334375D01*
X227506250Y-55334375D02*
X226506250Y-51334375D01*
X230506250Y-52334375D02*
X229506250Y-48334375D01*
X221506250Y-61334375D02*
X220506250Y-57334375D01*
X220506250Y-57334375D02*
X217506250Y-60334375D01*
X218506250Y-49334375D02*
X222506250Y-50334375D01*
X225506250Y-62334375D02*
X228506250Y-59334375D01*
X221506250Y-61334375D02*
X220506250Y-57334375D01*
X221506250Y-61334375D02*
X225506250Y-62334375D01*
X228506250Y-59334375D02*
X227506250Y-55334375D01*
X230506250Y-52334375D02*
X227506250Y-55334375D01*
X223506250Y-54334375D02*
X222506250Y-50334375D01*
X223506250Y-54334375D02*
X220506250Y-57334375D01*
X228506250Y-59334375D02*
X227506250Y-55334375D01*
X227506250Y-55334375D02*
X224506250Y-58334375D01*
X224506250Y-58334375D02*
X221506250Y-61334375D01*
X224506250Y-58334375D02*
X223506250Y-54334375D01*
X228506250Y-59334375D02*
X224506250Y-58334375D01*
X223506250Y-54334375D02*
X227506250Y-55334375D01*
X221506250Y-61334375D02*
X225506250Y-62334375D01*
X223506250Y-54334375D02*
X219506250Y-53334375D01*
X222506250Y-50334375D02*
X219506250Y-53334375D01*
X225506250Y-62334375D02*
X224506250Y-58334375D01*
X220506250Y-57334375D02*
X224506250Y-58334375D01*
X218506250Y-49334375D02*
X222506250Y-50334375D01*
X222506250Y-50334375D02*
X225506250Y-47334375D01*
X220506250Y-57334375D02*
X219506250Y-53334375D01*
X221506250Y-61334375D02*
X217506250Y-60334375D01*
X219506250Y-53334375D02*
X218506250Y-49334375D01*
X228506250Y-59334375D02*
X225506250Y-62334375D01*
X222506250Y-50334375D02*
X226506250Y-51334375D01*
X206506250Y-61334375D02*
X210506250Y-62334375D01*
X210506250Y-62334375D02*
X209506250Y-58334375D01*
X214506250Y-63334375D02*
X210506250Y-62334375D01*
X211506250Y-66334375D02*
X210506250Y-62334375D01*
X209506250Y-58334375D02*
X213506250Y-59334375D01*
X207506250Y-65334375D02*
X211506250Y-66334375D01*
X211506250Y-66334375D02*
X214506250Y-63334375D01*
X207506250Y-65334375D02*
X206506250Y-61334375D01*
X209506250Y-58334375D02*
X206506250Y-61334375D01*
X214506250Y-63334375D02*
X213506250Y-59334375D01*
X213506250Y-59334375D02*
X210506250Y-62334375D01*
X210506250Y-62334375D02*
X207506250Y-65334375D01*
X220506250Y-57334375D02*
X219506250Y-53334375D01*
X213506250Y-59334375D02*
X217506250Y-60334375D01*
X216506250Y-56334375D02*
X220506250Y-57334375D01*
X215506250Y-67334375D02*
X218506250Y-64334375D01*
X216506250Y-56334375D02*
X215506250Y-52334375D01*
X218506250Y-49334375D02*
X215506250Y-52334375D01*
X218506250Y-64334375D02*
X217506250Y-60334375D01*
X217506250Y-60334375D02*
X214506250Y-63334375D01*
X219506250Y-53334375D02*
X216506250Y-56334375D01*
X219506250Y-53334375D02*
X218506250Y-49334375D01*
X218506250Y-64334375D02*
X214506250Y-63334375D01*
X215506250Y-52334375D02*
X219506250Y-53334375D01*
X210506250Y-47334375D02*
X213506250Y-44334375D01*
X206506250Y-46334375D02*
X205506250Y-42334375D01*
X208506250Y-39334375D02*
X205506250Y-42334375D01*
X213506250Y-44334375D02*
X212506250Y-40334375D01*
X212506250Y-40334375D02*
X209506250Y-43334375D01*
X209506250Y-43334375D02*
X206506250Y-46334375D01*
X209506250Y-43334375D02*
X208506250Y-39334375D01*
X213506250Y-44334375D02*
X209506250Y-43334375D01*
X208506250Y-39334375D02*
X212506250Y-40334375D01*
X206506250Y-46334375D02*
X210506250Y-47334375D01*
X210506250Y-47334375D02*
X209506250Y-43334375D01*
X205506250Y-42334375D02*
X209506250Y-43334375D01*
X215506250Y-52334375D02*
X218506250Y-49334375D01*
X211506250Y-51334375D02*
X210506250Y-47334375D01*
X213506250Y-44334375D02*
X210506250Y-47334375D01*
X218506250Y-49334375D02*
X217506250Y-45334375D01*
X217506250Y-45334375D02*
X214506250Y-48334375D01*
X214506250Y-48334375D02*
X211506250Y-51334375D01*
X214506250Y-48334375D02*
X213506250Y-44334375D01*
X218506250Y-49334375D02*
X214506250Y-48334375D01*
X213506250Y-44334375D02*
X217506250Y-45334375D01*
X211506250Y-51334375D02*
X215506250Y-52334375D01*
X215506250Y-52334375D02*
X214506250Y-48334375D01*
X210506250Y-47334375D02*
X214506250Y-48334375D01*
X213506250Y-59334375D02*
X216506250Y-56334375D01*
X209506250Y-58334375D02*
X208506250Y-54334375D01*
X211506250Y-51334375D02*
X208506250Y-54334375D01*
X216506250Y-56334375D02*
X215506250Y-52334375D01*
X215506250Y-52334375D02*
X212506250Y-55334375D01*
X212506250Y-55334375D02*
X209506250Y-58334375D01*
X212506250Y-55334375D02*
X211506250Y-51334375D01*
X216506250Y-56334375D02*
X212506250Y-55334375D01*
X211506250Y-51334375D02*
X215506250Y-52334375D01*
X209506250Y-58334375D02*
X213506250Y-59334375D01*
X213506250Y-59334375D02*
X212506250Y-55334375D01*
X208506250Y-54334375D02*
X212506250Y-55334375D01*
X208506250Y-54334375D02*
X211506250Y-51334375D01*
X204506250Y-53334375D02*
X203506250Y-49334375D01*
X206506250Y-46334375D02*
X203506250Y-49334375D01*
X211506250Y-51334375D02*
X210506250Y-47334375D01*
X210506250Y-47334375D02*
X207506250Y-50334375D01*
X207506250Y-50334375D02*
X204506250Y-53334375D01*
X207506250Y-50334375D02*
X206506250Y-46334375D01*
X211506250Y-51334375D02*
X207506250Y-50334375D01*
X206506250Y-46334375D02*
X210506250Y-47334375D01*
X204506250Y-53334375D02*
X208506250Y-54334375D01*
X208506250Y-54334375D02*
X207506250Y-50334375D01*
X203506250Y-49334375D02*
X207506250Y-50334375D01*
X206506250Y-61334375D02*
X205506250Y-57334375D01*
X201506250Y-56334375D02*
X205506250Y-57334375D01*
X204506250Y-53334375D02*
X201506250Y-56334375D01*
X209506250Y-58334375D02*
X208506250Y-54334375D01*
X208506250Y-54334375D02*
X205506250Y-57334375D01*
X205506250Y-57334375D02*
X202506250Y-60334375D01*
X205506250Y-57334375D02*
X204506250Y-53334375D01*
X209506250Y-58334375D02*
X205506250Y-57334375D01*
X204506250Y-53334375D02*
X208506250Y-54334375D01*
X202506250Y-60334375D02*
X206506250Y-61334375D01*
X206506250Y-61334375D02*
X209506250Y-58334375D01*
X202506250Y-60334375D02*
X201506250Y-56334375D01*
X206506250Y-46334375D02*
X202506250Y-45334375D01*
X201506250Y-41334375D02*
X205506250Y-42334375D01*
X199506250Y-48334375D02*
X203506250Y-49334375D01*
X203506250Y-49334375D02*
X206506250Y-46334375D01*
X199506250Y-48334375D02*
X198506250Y-44334375D01*
X206506250Y-46334375D02*
X205506250Y-42334375D01*
X205506250Y-42334375D02*
X202506250Y-45334375D01*
X202506250Y-45334375D02*
X199506250Y-48334375D01*
X202506250Y-45334375D02*
X201506250Y-41334375D01*
X198506250Y-44334375D02*
X202506250Y-45334375D01*
X203506250Y-49334375D02*
X202506250Y-45334375D01*
X201506250Y-41334375D02*
X198506250Y-44334375D01*
X192506250Y-50334375D02*
X196506250Y-51334375D01*
X196506250Y-51334375D02*
X199506250Y-48334375D01*
X192506250Y-50334375D02*
X191506250Y-46334375D01*
X199506250Y-48334375D02*
X198506250Y-44334375D01*
X198506250Y-44334375D02*
X195506250Y-47334375D01*
X195506250Y-47334375D02*
X192506250Y-50334375D01*
X195506250Y-47334375D02*
X194506250Y-43334375D01*
X191506250Y-46334375D02*
X195506250Y-47334375D01*
X196506250Y-51334375D02*
X195506250Y-47334375D01*
X194506250Y-43334375D02*
X191506250Y-46334375D01*
X194506250Y-43334375D02*
X198506250Y-44334375D01*
X199506250Y-48334375D02*
X195506250Y-47334375D01*
X195506250Y-62334375D02*
X194506250Y-58334375D01*
X202506250Y-60334375D02*
X201506250Y-56334375D01*
X201506250Y-56334375D02*
X198506250Y-59334375D01*
X198506250Y-59334375D02*
X195506250Y-62334375D01*
X198506250Y-59334375D02*
X197506250Y-55334375D01*
X194506250Y-58334375D02*
X198506250Y-59334375D01*
X199506250Y-63334375D02*
X198506250Y-59334375D01*
X197506250Y-55334375D02*
X201506250Y-56334375D01*
X202506250Y-60334375D02*
X198506250Y-59334375D01*
X195506250Y-62334375D02*
X199506250Y-63334375D01*
X199506250Y-63334375D02*
X202506250Y-60334375D01*
X197506250Y-55334375D02*
X194506250Y-58334375D01*
X207506250Y-65334375D02*
X206506250Y-61334375D01*
X206506250Y-61334375D02*
X203506250Y-64334375D01*
X203506250Y-64334375D02*
X200506250Y-67334375D01*
X203506250Y-64334375D02*
X202506250Y-60334375D01*
X199506250Y-63334375D02*
X203506250Y-64334375D01*
X204506250Y-68334375D02*
X203506250Y-64334375D01*
X202506250Y-60334375D02*
X206506250Y-61334375D01*
X207506250Y-65334375D02*
X203506250Y-64334375D01*
X200506250Y-67334375D02*
X204506250Y-68334375D01*
X204506250Y-68334375D02*
X207506250Y-65334375D01*
X202506250Y-60334375D02*
X199506250Y-63334375D01*
X200506250Y-67334375D02*
X199506250Y-63334375D01*
X204506250Y-53334375D02*
X203506250Y-49334375D01*
X203506250Y-49334375D02*
X200506250Y-52334375D01*
X200506250Y-52334375D02*
X197506250Y-55334375D01*
X200506250Y-52334375D02*
X199506250Y-48334375D01*
X196506250Y-51334375D02*
X200506250Y-52334375D01*
X201506250Y-56334375D02*
X200506250Y-52334375D01*
X199506250Y-48334375D02*
X203506250Y-49334375D01*
X204506250Y-53334375D02*
X200506250Y-52334375D01*
X197506250Y-55334375D02*
X201506250Y-56334375D01*
X201506250Y-56334375D02*
X204506250Y-53334375D01*
X199506250Y-48334375D02*
X196506250Y-51334375D01*
X190506250Y-57334375D02*
X189506250Y-53334375D01*
X192506250Y-50334375D02*
X196506250Y-51334375D01*
X197506250Y-55334375D02*
X196506250Y-51334375D01*
X196506250Y-51334375D02*
X193506250Y-54334375D01*
X192506250Y-50334375D02*
X189506250Y-53334375D01*
X193506250Y-54334375D02*
X192506250Y-50334375D01*
X189506250Y-53334375D02*
X193506250Y-54334375D01*
X197506250Y-55334375D02*
X193506250Y-54334375D01*
X194506250Y-58334375D02*
X197506250Y-55334375D01*
X193506250Y-54334375D02*
X190506250Y-57334375D01*
X194506250Y-58334375D02*
X193506250Y-54334375D01*
X190506250Y-57334375D02*
X194506250Y-58334375D01*
D14*
X114490625Y-80271500D02*
G75*
G02X114240625Y-80521500I-250000J0D01*
G01*
X111640625Y-80521500D02*
G75*
G02X111390625Y-80271500I0J250000D01*
G01*
X111390625Y-80262500D02*
X111390625Y-72062500D01*
X114240625Y-80521500D02*
X111640625Y-80521500D01*
X114490625Y-80262500D02*
X114490625Y-72062500D01*
X114240625Y-71803500D02*
X111640625Y-71803500D01*
X114240625Y-71803500D02*
G75*
G02X114490625Y-72053500I0J-250000D01*
G01*
X111390625Y-72053500D02*
G75*
G02X111640625Y-71803500I250000J0D01*
G01*
X204307000Y-71990000D02*
G75*
G02X204557000Y-71740000I250000J0D01*
G01*
X207157000Y-71740000D02*
G75*
G02X207407000Y-71990000I0J-250000D01*
G01*
X207407000Y-71999000D02*
X207407000Y-80199000D01*
X204557000Y-71740000D02*
X207157000Y-71740000D01*
X204307000Y-71999000D02*
X204307000Y-80199000D01*
X204557000Y-80458000D02*
X207157000Y-80458000D01*
X204557000Y-80458000D02*
G75*
G02X204307000Y-80208000I0J250000D01*
G01*
X207407000Y-80208000D02*
G75*
G02X207157000Y-80458000I-250000J0D01*
G01*
X114707000Y-61259000D02*
G75*
G02X114457000Y-61509000I-250000J0D01*
G01*
X111857000Y-61509000D02*
G75*
G02X111607000Y-61259000I0J250000D01*
G01*
X111607000Y-61250000D02*
X111607000Y-53050000D01*
X114457000Y-61509000D02*
X111857000Y-61509000D01*
X114707000Y-61250000D02*
X114707000Y-53050000D01*
X114457000Y-52791000D02*
X111857000Y-52791000D01*
X114457000Y-52791000D02*
G75*
G02X114707000Y-53041000I0J-250000D01*
G01*
X111607000Y-53041000D02*
G75*
G02X111857000Y-52791000I250000J0D01*
G01*
X207331250Y-61315000D02*
G75*
G02X207081250Y-61565000I-250000J0D01*
G01*
X204481250Y-61565000D02*
G75*
G02X204231250Y-61315000I0J250000D01*
G01*
X204231250Y-61306000D02*
X204231250Y-53106000D01*
X207081250Y-61565000D02*
X204481250Y-61565000D01*
X207331250Y-61306000D02*
X207331250Y-53106000D01*
X207081250Y-52847000D02*
X204481250Y-52847000D01*
X207081250Y-52847000D02*
G75*
G02X207331250Y-53097000I0J-250000D01*
G01*
X204231250Y-53097000D02*
G75*
G02X204481250Y-52847000I250000J0D01*
G01*
X114893750Y-124150000D02*
G75*
G02X114643750Y-124400000I-250000J0D01*
G01*
X112043750Y-124400000D02*
G75*
G02X111793750Y-124150000I0J250000D01*
G01*
X111793750Y-124150000D02*
X111793750Y-104450000D01*
X114643750Y-124400000D02*
X112043750Y-124400000D01*
X114893750Y-124150000D02*
X114893750Y-104450000D01*
X114643750Y-104200000D02*
X112043750Y-104200000D01*
X114643750Y-104200000D02*
G75*
G02X114893750Y-104450000I0J-250000D01*
G01*
X111793750Y-104450000D02*
G75*
G02X112043750Y-104200000I250000J0D01*
G01*
X207050000Y-124150000D02*
G75*
G02X206800000Y-124400000I-250000J0D01*
G01*
X204200000Y-124400000D02*
G75*
G02X203950000Y-124150000I0J250000D01*
G01*
X203950000Y-124150000D02*
X203950000Y-104450000D01*
X206800000Y-124400000D02*
X204200000Y-124400000D01*
X207050000Y-124150000D02*
X207050000Y-104450000D01*
X206800000Y-104200000D02*
X204200000Y-104200000D01*
X206800000Y-104200000D02*
G75*
G02X207050000Y-104450000I0J-250000D01*
G01*
X203950000Y-104450000D02*
G75*
G02X204200000Y-104200000I250000J0D01*
G01*
X184812500Y-61131500D02*
G75*
G02X185062500Y-60881500I250000J0D01*
G01*
X187662500Y-60881500D02*
G75*
G02X187912500Y-61131500I0J-250000D01*
G01*
X187662500Y-60881500D02*
X185062500Y-60881500D01*
X187912500Y-72137500D02*
X187912500Y-61137500D01*
X187662500Y-72393500D02*
X185062500Y-72393500D01*
X184812500Y-72137500D02*
X184812500Y-61137500D01*
X185062500Y-72393500D02*
G75*
G02X184812500Y-72143500I0J250000D01*
G01*
X187912500Y-72143500D02*
G75*
G02X187662500Y-72393500I-250000J0D01*
G01*
D15*
X184153500Y-76703750D02*
X184153500Y-94483750D01*
X184153500Y-94483750D02*
X153673500Y-94483750D01*
X153673500Y-94483750D02*
X153673500Y-76703750D01*
X153673500Y-76703750D02*
X184153500Y-76703750D01*
X184153500Y-91943750D02*
X181613500Y-91943750D01*
X181613500Y-91943750D02*
X181613500Y-94483750D01*
D14*
X143575000Y-93662500D02*
G75*
G02X143825000Y-93912500I0J-250000D01*
G01*
X143825000Y-96512500D02*
G75*
G02X143575000Y-96762500I-250000J0D01*
G01*
X143825000Y-96512500D02*
X143825000Y-93912500D01*
X137075000Y-96762500D02*
X143575000Y-96762500D01*
X136825000Y-96512500D02*
X136825000Y-93912500D01*
X137075000Y-93662500D02*
X143575000Y-93662500D01*
X136825000Y-93912500D02*
G75*
G02X137075000Y-93662500I250000J0D01*
G01*
X137075000Y-96762500D02*
G75*
G02X136825000Y-96512500I0J250000D01*
G01*
D12*
X183949404Y-61771875D02*
X184044642Y-61724255D01*
X184187500Y-61724255D01*
X184330357Y-61771875D01*
X184425595Y-61867113D01*
X184473214Y-61962351D01*
X184520833Y-62152827D01*
X184520833Y-62295684D01*
X184473214Y-62486160D01*
X184425595Y-62581398D01*
X184330357Y-62676636D01*
X184187500Y-62724255D01*
X184092261Y-62724255D01*
X183949404Y-62676636D01*
X183901785Y-62629017D01*
X183901785Y-62295684D01*
X184092261Y-62295684D01*
X183473214Y-62724255D02*
X183473214Y-61724255D01*
X182901785Y-62724255D01*
X182901785Y-61724255D01*
X182425595Y-62724255D02*
X182425595Y-61724255D01*
X182187500Y-61724255D01*
X182044642Y-61771875D01*
X181949404Y-61867113D01*
X181901785Y-61962351D01*
X181854166Y-62152827D01*
X181854166Y-62295684D01*
X181901785Y-62486160D01*
X181949404Y-62581398D01*
X182044642Y-62676636D01*
X182187500Y-62724255D01*
X182425595Y-62724255D01*
X184465327Y-65105505D02*
X184465327Y-64105505D01*
X184227232Y-64105505D01*
X184084375Y-64153125D01*
X183989136Y-64248363D01*
X183941517Y-64343601D01*
X183893898Y-64534077D01*
X183893898Y-64676934D01*
X183941517Y-64867410D01*
X183989136Y-64962648D01*
X184084375Y-65057886D01*
X184227232Y-65105505D01*
X184465327Y-65105505D01*
X183465327Y-64724553D02*
X182703422Y-64724553D01*
X183084375Y-65105505D02*
X183084375Y-64343601D01*
X184465327Y-69074255D02*
X184465327Y-68074255D01*
X184227232Y-68074255D01*
X184084375Y-68121875D01*
X183989136Y-68217113D01*
X183941517Y-68312351D01*
X183893898Y-68502827D01*
X183893898Y-68645684D01*
X183941517Y-68836160D01*
X183989136Y-68931398D01*
X184084375Y-69026636D01*
X184227232Y-69074255D01*
X184465327Y-69074255D01*
X183465327Y-68693303D02*
X182703422Y-68693303D01*
X184520833Y-70455505D02*
X184187500Y-71455505D01*
X183854166Y-70455505D01*
X182949404Y-71360267D02*
X182997023Y-71407886D01*
X183139880Y-71455505D01*
X183235119Y-71455505D01*
X183377976Y-71407886D01*
X183473214Y-71312648D01*
X183520833Y-71217410D01*
X183568452Y-71026934D01*
X183568452Y-70884077D01*
X183520833Y-70693601D01*
X183473214Y-70598363D01*
X183377976Y-70503125D01*
X183235119Y-70455505D01*
X183139880Y-70455505D01*
X182997023Y-70503125D01*
X182949404Y-70550744D01*
X181949404Y-71360267D02*
X181997023Y-71407886D01*
X182139880Y-71455505D01*
X182235119Y-71455505D01*
X182377976Y-71407886D01*
X182473214Y-71312648D01*
X182520833Y-71217410D01*
X182568452Y-71026934D01*
X182568452Y-70884077D01*
X182520833Y-70693601D01*
X182473214Y-70598363D01*
X182377976Y-70503125D01*
X182235119Y-70455505D01*
X182139880Y-70455505D01*
X181997023Y-70503125D01*
X181949404Y-70550744D01*
X165122648Y-89219642D02*
X165170267Y-89267261D01*
X165313125Y-89314880D01*
X165408363Y-89314880D01*
X165551220Y-89267261D01*
X165646458Y-89172023D01*
X165694077Y-89076785D01*
X165741696Y-88886309D01*
X165741696Y-88743452D01*
X165694077Y-88552976D01*
X165646458Y-88457738D01*
X165551220Y-88362500D01*
X165408363Y-88314880D01*
X165313125Y-88314880D01*
X165170267Y-88362500D01*
X165122648Y-88410119D01*
X164694077Y-89314880D02*
X164694077Y-88314880D01*
X164265505Y-89314880D02*
X164265505Y-88791071D01*
X164313125Y-88695833D01*
X164408363Y-88648214D01*
X164551220Y-88648214D01*
X164646458Y-88695833D01*
X164694077Y-88743452D01*
X163789315Y-89314880D02*
X163789315Y-88648214D01*
X163789315Y-88314880D02*
X163836934Y-88362500D01*
X163789315Y-88410119D01*
X163741696Y-88362500D01*
X163789315Y-88314880D01*
X163789315Y-88410119D01*
X163313125Y-88648214D02*
X163313125Y-89648214D01*
X163313125Y-88695833D02*
X163217886Y-88648214D01*
X163027410Y-88648214D01*
X162932172Y-88695833D01*
X162884553Y-88743452D01*
X162836934Y-88838690D01*
X162836934Y-89124404D01*
X162884553Y-89219642D01*
X162932172Y-89267261D01*
X163027410Y-89314880D01*
X163217886Y-89314880D01*
X163313125Y-89267261D01*
X161694077Y-89267261D02*
X161598839Y-89314880D01*
X161408363Y-89314880D01*
X161313125Y-89267261D01*
X161265505Y-89172023D01*
X161265505Y-89124404D01*
X161313125Y-89029166D01*
X161408363Y-88981547D01*
X161551220Y-88981547D01*
X161646458Y-88933928D01*
X161694077Y-88838690D01*
X161694077Y-88791071D01*
X161646458Y-88695833D01*
X161551220Y-88648214D01*
X161408363Y-88648214D01*
X161313125Y-88695833D01*
X160836934Y-89314880D02*
X160836934Y-88648214D01*
X160836934Y-88314880D02*
X160884553Y-88362500D01*
X160836934Y-88410119D01*
X160789315Y-88362500D01*
X160836934Y-88314880D01*
X160836934Y-88410119D01*
X159932172Y-89314880D02*
X159932172Y-88314880D01*
X159932172Y-89267261D02*
X160027410Y-89314880D01*
X160217886Y-89314880D01*
X160313125Y-89267261D01*
X160360744Y-89219642D01*
X160408363Y-89124404D01*
X160408363Y-88838690D01*
X160360744Y-88743452D01*
X160313125Y-88695833D01*
X160217886Y-88648214D01*
X160027410Y-88648214D01*
X159932172Y-88695833D01*
X159075029Y-89267261D02*
X159170267Y-89314880D01*
X159360744Y-89314880D01*
X159455982Y-89267261D01*
X159503601Y-89172023D01*
X159503601Y-88791071D01*
X159455982Y-88695833D01*
X159360744Y-88648214D01*
X159170267Y-88648214D01*
X159075029Y-88695833D01*
X159027410Y-88791071D01*
X159027410Y-88886309D01*
X159503601Y-88981547D01*
X157408363Y-89314880D02*
X157408363Y-88314880D01*
X157408363Y-89267261D02*
X157503601Y-89314880D01*
X157694077Y-89314880D01*
X157789315Y-89267261D01*
X157836934Y-89219642D01*
X157884553Y-89124404D01*
X157884553Y-88838690D01*
X157836934Y-88743452D01*
X157789315Y-88695833D01*
X157694077Y-88648214D01*
X157503601Y-88648214D01*
X157408363Y-88695833D01*
X156789315Y-89314880D02*
X156884553Y-89267261D01*
X156932172Y-89219642D01*
X156979791Y-89124404D01*
X156979791Y-88838690D01*
X156932172Y-88743452D01*
X156884553Y-88695833D01*
X156789315Y-88648214D01*
X156646458Y-88648214D01*
X156551220Y-88695833D01*
X156503601Y-88743452D01*
X156455982Y-88838690D01*
X156455982Y-89124404D01*
X156503601Y-89219642D01*
X156551220Y-89267261D01*
X156646458Y-89314880D01*
X156789315Y-89314880D01*
X156122648Y-88648214D02*
X155932172Y-89314880D01*
X155741696Y-88838690D01*
X155551220Y-89314880D01*
X155360744Y-88648214D01*
X154979791Y-88648214D02*
X154979791Y-89314880D01*
X154979791Y-88743452D02*
X154932172Y-88695833D01*
X154836934Y-88648214D01*
X154694077Y-88648214D01*
X154598839Y-88695833D01*
X154551220Y-88791071D01*
X154551220Y-89314880D01*
D16*
X154893500Y-75404416D02*
X154926833Y-75504416D01*
X154960166Y-75537750D01*
X155026833Y-75571083D01*
X155126833Y-75571083D01*
X155193500Y-75537750D01*
X155226833Y-75504416D01*
X155260166Y-75437750D01*
X155260166Y-75171083D01*
X154560166Y-75171083D01*
X154560166Y-75404416D01*
X154593500Y-75471083D01*
X154626833Y-75504416D01*
X154693500Y-75537750D01*
X154760166Y-75537750D01*
X154826833Y-75504416D01*
X154860166Y-75471083D01*
X154893500Y-75404416D01*
X154893500Y-75171083D01*
X154560166Y-76204416D02*
X154560166Y-75871083D01*
X154893500Y-75837750D01*
X154860166Y-75871083D01*
X154826833Y-75937750D01*
X154826833Y-76104416D01*
X154860166Y-76171083D01*
X154893500Y-76204416D01*
X154960166Y-76237750D01*
X155126833Y-76237750D01*
X155193500Y-76204416D01*
X155226833Y-76171083D01*
X155260166Y-76104416D01*
X155260166Y-75937750D01*
X155226833Y-75871083D01*
X155193500Y-75837750D01*
X157433500Y-75404416D02*
X157466833Y-75504416D01*
X157500166Y-75537750D01*
X157566833Y-75571083D01*
X157666833Y-75571083D01*
X157733500Y-75537750D01*
X157766833Y-75504416D01*
X157800166Y-75437750D01*
X157800166Y-75171083D01*
X157100166Y-75171083D01*
X157100166Y-75404416D01*
X157133500Y-75471083D01*
X157166833Y-75504416D01*
X157233500Y-75537750D01*
X157300166Y-75537750D01*
X157366833Y-75504416D01*
X157400166Y-75471083D01*
X157433500Y-75404416D01*
X157433500Y-75171083D01*
X157333500Y-76171083D02*
X157800166Y-76171083D01*
X157066833Y-76004416D02*
X157566833Y-75837750D01*
X157566833Y-76271083D01*
X159973500Y-75204416D02*
X159973500Y-75437750D01*
X160340166Y-75537750D02*
X160340166Y-75204416D01*
X159640166Y-75204416D01*
X159640166Y-75537750D01*
X159640166Y-76137750D02*
X159640166Y-76004416D01*
X159673500Y-75937750D01*
X159706833Y-75904416D01*
X159806833Y-75837750D01*
X159940166Y-75804416D01*
X160206833Y-75804416D01*
X160273500Y-75837750D01*
X160306833Y-75871083D01*
X160340166Y-75937750D01*
X160340166Y-76071083D01*
X160306833Y-76137750D01*
X160273500Y-76171083D01*
X160206833Y-76204416D01*
X160040166Y-76204416D01*
X159973500Y-76171083D01*
X159940166Y-76137750D01*
X159906833Y-76071083D01*
X159906833Y-75937750D01*
X159940166Y-75871083D01*
X159973500Y-75837750D01*
X160040166Y-75804416D01*
X162880166Y-75171083D02*
X162180166Y-75171083D01*
X162180166Y-75337750D01*
X162213500Y-75437750D01*
X162280166Y-75504416D01*
X162346833Y-75537750D01*
X162480166Y-75571083D01*
X162580166Y-75571083D01*
X162713500Y-75537750D01*
X162780166Y-75504416D01*
X162846833Y-75437750D01*
X162880166Y-75337750D01*
X162880166Y-75171083D01*
X162180166Y-75804416D02*
X162180166Y-76271083D01*
X162880166Y-75971083D01*
X165353500Y-75571083D02*
X165386833Y-75537750D01*
X165420166Y-75437750D01*
X165420166Y-75371083D01*
X165386833Y-75271083D01*
X165320166Y-75204416D01*
X165253500Y-75171083D01*
X165120166Y-75137750D01*
X165020166Y-75137750D01*
X164886833Y-75171083D01*
X164820166Y-75204416D01*
X164753500Y-75271083D01*
X164720166Y-75371083D01*
X164720166Y-75437750D01*
X164753500Y-75537750D01*
X164786833Y-75571083D01*
X164720166Y-76171083D02*
X164720166Y-76037750D01*
X164753500Y-75971083D01*
X164786833Y-75937750D01*
X164886833Y-75871083D01*
X165020166Y-75837750D01*
X165286833Y-75837750D01*
X165353500Y-75871083D01*
X165386833Y-75904416D01*
X165420166Y-75971083D01*
X165420166Y-76104416D01*
X165386833Y-76171083D01*
X165353500Y-76204416D01*
X165286833Y-76237750D01*
X165120166Y-76237750D01*
X165053500Y-76204416D01*
X165020166Y-76171083D01*
X164986833Y-76104416D01*
X164986833Y-75971083D01*
X165020166Y-75904416D01*
X165053500Y-75871083D01*
X165120166Y-75837750D01*
X167960166Y-75171083D02*
X167260166Y-75171083D01*
X167260166Y-75337750D01*
X167293500Y-75437750D01*
X167360166Y-75504416D01*
X167426833Y-75537750D01*
X167560166Y-75571083D01*
X167660166Y-75571083D01*
X167793500Y-75537750D01*
X167860166Y-75504416D01*
X167926833Y-75437750D01*
X167960166Y-75337750D01*
X167960166Y-75171083D01*
X167493500Y-76171083D02*
X167960166Y-76171083D01*
X167226833Y-76004416D02*
X167726833Y-75837750D01*
X167726833Y-76271083D01*
X170500166Y-75171083D02*
X169800166Y-75171083D01*
X169800166Y-75337750D01*
X169833500Y-75437750D01*
X169900166Y-75504416D01*
X169966833Y-75537750D01*
X170100166Y-75571083D01*
X170200166Y-75571083D01*
X170333500Y-75537750D01*
X170400166Y-75504416D01*
X170466833Y-75437750D01*
X170500166Y-75337750D01*
X170500166Y-75171083D01*
X169800166Y-76004416D02*
X169800166Y-76071083D01*
X169833500Y-76137750D01*
X169866833Y-76171083D01*
X169933500Y-76204416D01*
X170066833Y-76237750D01*
X170233500Y-76237750D01*
X170366833Y-76204416D01*
X170433500Y-76171083D01*
X170466833Y-76137750D01*
X170500166Y-76071083D01*
X170500166Y-76004416D01*
X170466833Y-75937750D01*
X170433500Y-75904416D01*
X170366833Y-75871083D01*
X170233500Y-75837750D01*
X170066833Y-75837750D01*
X169933500Y-75871083D01*
X169866833Y-75904416D01*
X169833500Y-75937750D01*
X169800166Y-76004416D01*
X173040166Y-75171083D02*
X172340166Y-75171083D01*
X172340166Y-75337750D01*
X172373500Y-75437750D01*
X172440166Y-75504416D01*
X172506833Y-75537750D01*
X172640166Y-75571083D01*
X172740166Y-75571083D01*
X172873500Y-75537750D01*
X172940166Y-75504416D01*
X173006833Y-75437750D01*
X173040166Y-75337750D01*
X173040166Y-75171083D01*
X173040166Y-76237750D02*
X173040166Y-75837750D01*
X173040166Y-76037750D02*
X172340166Y-76037750D01*
X172440166Y-75971083D01*
X172506833Y-75904416D01*
X172540166Y-75837750D01*
X174913500Y-74900416D02*
X174880166Y-74833750D01*
X174880166Y-74733750D01*
X174913500Y-74633750D01*
X174980166Y-74567083D01*
X175046833Y-74533750D01*
X175180166Y-74500416D01*
X175280166Y-74500416D01*
X175413500Y-74533750D01*
X175480166Y-74567083D01*
X175546833Y-74633750D01*
X175580166Y-74733750D01*
X175580166Y-74800416D01*
X175546833Y-74900416D01*
X175513500Y-74933750D01*
X175280166Y-74933750D01*
X175280166Y-74800416D01*
X175580166Y-75233750D02*
X174880166Y-75233750D01*
X175580166Y-75633750D01*
X174880166Y-75633750D01*
X175580166Y-75967083D02*
X174880166Y-75967083D01*
X174880166Y-76133750D01*
X174913500Y-76233750D01*
X174980166Y-76300416D01*
X175046833Y-76333750D01*
X175180166Y-76367083D01*
X175280166Y-76367083D01*
X175413500Y-76333750D01*
X175480166Y-76300416D01*
X175546833Y-76233750D01*
X175580166Y-76133750D01*
X175580166Y-75967083D01*
X177453500Y-74900416D02*
X177420166Y-74833750D01*
X177420166Y-74733750D01*
X177453500Y-74633750D01*
X177520166Y-74567083D01*
X177586833Y-74533750D01*
X177720166Y-74500416D01*
X177820166Y-74500416D01*
X177953500Y-74533750D01*
X178020166Y-74567083D01*
X178086833Y-74633750D01*
X178120166Y-74733750D01*
X178120166Y-74800416D01*
X178086833Y-74900416D01*
X178053500Y-74933750D01*
X177820166Y-74933750D01*
X177820166Y-74800416D01*
X178120166Y-75233750D02*
X177420166Y-75233750D01*
X178120166Y-75633750D01*
X177420166Y-75633750D01*
X178120166Y-75967083D02*
X177420166Y-75967083D01*
X177420166Y-76133750D01*
X177453500Y-76233750D01*
X177520166Y-76300416D01*
X177586833Y-76333750D01*
X177720166Y-76367083D01*
X177820166Y-76367083D01*
X177953500Y-76333750D01*
X178020166Y-76300416D01*
X178086833Y-76233750D01*
X178120166Y-76133750D01*
X178120166Y-75967083D01*
X180660166Y-75171083D02*
X179960166Y-75171083D01*
X179960166Y-75337750D01*
X179993500Y-75437750D01*
X180060166Y-75504416D01*
X180126833Y-75537750D01*
X180260166Y-75571083D01*
X180360166Y-75571083D01*
X180493500Y-75537750D01*
X180560166Y-75504416D01*
X180626833Y-75437750D01*
X180660166Y-75337750D01*
X180660166Y-75171083D01*
X180026833Y-75837750D02*
X179993500Y-75871083D01*
X179960166Y-75937750D01*
X179960166Y-76104416D01*
X179993500Y-76171083D01*
X180026833Y-76204416D01*
X180093500Y-76237750D01*
X180160166Y-76237750D01*
X180260166Y-76204416D01*
X180660166Y-75804416D01*
X180660166Y-76237750D01*
X183200166Y-75171083D02*
X182500166Y-75171083D01*
X182500166Y-75337750D01*
X182533500Y-75437750D01*
X182600166Y-75504416D01*
X182666833Y-75537750D01*
X182800166Y-75571083D01*
X182900166Y-75571083D01*
X183033500Y-75537750D01*
X183100166Y-75504416D01*
X183166833Y-75437750D01*
X183200166Y-75337750D01*
X183200166Y-75171083D01*
X182500166Y-75804416D02*
X182500166Y-76237750D01*
X182766833Y-76004416D01*
X182766833Y-76104416D01*
X182800166Y-76171083D01*
X182833500Y-76204416D01*
X182900166Y-76237750D01*
X183066833Y-76237750D01*
X183133500Y-76204416D01*
X183166833Y-76171083D01*
X183200166Y-76104416D01*
X183200166Y-75904416D01*
X183166833Y-75837750D01*
X183133500Y-75804416D01*
X154893500Y-95216416D02*
X154926833Y-95316416D01*
X154960166Y-95349750D01*
X155026833Y-95383083D01*
X155126833Y-95383083D01*
X155193500Y-95349750D01*
X155226833Y-95316416D01*
X155260166Y-95249750D01*
X155260166Y-94983083D01*
X154560166Y-94983083D01*
X154560166Y-95216416D01*
X154593500Y-95283083D01*
X154626833Y-95316416D01*
X154693500Y-95349750D01*
X154760166Y-95349750D01*
X154826833Y-95316416D01*
X154860166Y-95283083D01*
X154893500Y-95216416D01*
X154893500Y-94983083D01*
X154560166Y-95983083D02*
X154560166Y-95849750D01*
X154593500Y-95783083D01*
X154626833Y-95749750D01*
X154726833Y-95683083D01*
X154860166Y-95649750D01*
X155126833Y-95649750D01*
X155193500Y-95683083D01*
X155226833Y-95716416D01*
X155260166Y-95783083D01*
X155260166Y-95916416D01*
X155226833Y-95983083D01*
X155193500Y-96016416D01*
X155126833Y-96049750D01*
X154960166Y-96049750D01*
X154893500Y-96016416D01*
X154860166Y-95983083D01*
X154826833Y-95916416D01*
X154826833Y-95783083D01*
X154860166Y-95716416D01*
X154893500Y-95683083D01*
X154960166Y-95649750D01*
X157433500Y-95216416D02*
X157466833Y-95316416D01*
X157500166Y-95349750D01*
X157566833Y-95383083D01*
X157666833Y-95383083D01*
X157733500Y-95349750D01*
X157766833Y-95316416D01*
X157800166Y-95249750D01*
X157800166Y-94983083D01*
X157100166Y-94983083D01*
X157100166Y-95216416D01*
X157133500Y-95283083D01*
X157166833Y-95316416D01*
X157233500Y-95349750D01*
X157300166Y-95349750D01*
X157366833Y-95316416D01*
X157400166Y-95283083D01*
X157433500Y-95216416D01*
X157433500Y-94983083D01*
X157166833Y-95649750D02*
X157133500Y-95683083D01*
X157100166Y-95749750D01*
X157100166Y-95916416D01*
X157133500Y-95983083D01*
X157166833Y-96016416D01*
X157233500Y-96049750D01*
X157300166Y-96049750D01*
X157400166Y-96016416D01*
X157800166Y-95616416D01*
X157800166Y-96049750D01*
X159973500Y-95216416D02*
X160006833Y-95316416D01*
X160040166Y-95349750D01*
X160106833Y-95383083D01*
X160206833Y-95383083D01*
X160273500Y-95349750D01*
X160306833Y-95316416D01*
X160340166Y-95249750D01*
X160340166Y-94983083D01*
X159640166Y-94983083D01*
X159640166Y-95216416D01*
X159673500Y-95283083D01*
X159706833Y-95316416D01*
X159773500Y-95349750D01*
X159840166Y-95349750D01*
X159906833Y-95316416D01*
X159940166Y-95283083D01*
X159973500Y-95216416D01*
X159973500Y-94983083D01*
X159640166Y-95616416D02*
X159640166Y-96049750D01*
X159906833Y-95816416D01*
X159906833Y-95916416D01*
X159940166Y-95983083D01*
X159973500Y-96016416D01*
X160040166Y-96049750D01*
X160206833Y-96049750D01*
X160273500Y-96016416D01*
X160306833Y-95983083D01*
X160340166Y-95916416D01*
X160340166Y-95716416D01*
X160306833Y-95649750D01*
X160273500Y-95616416D01*
X162513500Y-95216416D02*
X162546833Y-95316416D01*
X162580166Y-95349750D01*
X162646833Y-95383083D01*
X162746833Y-95383083D01*
X162813500Y-95349750D01*
X162846833Y-95316416D01*
X162880166Y-95249750D01*
X162880166Y-94983083D01*
X162180166Y-94983083D01*
X162180166Y-95216416D01*
X162213500Y-95283083D01*
X162246833Y-95316416D01*
X162313500Y-95349750D01*
X162380166Y-95349750D01*
X162446833Y-95316416D01*
X162480166Y-95283083D01*
X162513500Y-95216416D01*
X162513500Y-94983083D01*
X162880166Y-96049750D02*
X162880166Y-95649750D01*
X162880166Y-95849750D02*
X162180166Y-95849750D01*
X162280166Y-95783083D01*
X162346833Y-95716416D01*
X162380166Y-95649750D01*
X167593500Y-95266416D02*
X167593500Y-95033083D01*
X167960166Y-95033083D02*
X167260166Y-95033083D01*
X167260166Y-95366416D01*
X167260166Y-95933083D02*
X167260166Y-95799750D01*
X167293500Y-95733083D01*
X167326833Y-95699750D01*
X167426833Y-95633083D01*
X167560166Y-95599750D01*
X167826833Y-95599750D01*
X167893500Y-95633083D01*
X167926833Y-95666416D01*
X167960166Y-95733083D01*
X167960166Y-95866416D01*
X167926833Y-95933083D01*
X167893500Y-95966416D01*
X167826833Y-95999750D01*
X167660166Y-95999750D01*
X167593500Y-95966416D01*
X167560166Y-95933083D01*
X167526833Y-95866416D01*
X167526833Y-95733083D01*
X167560166Y-95666416D01*
X167593500Y-95633083D01*
X167660166Y-95599750D01*
X165053500Y-95266416D02*
X165053500Y-95033083D01*
X165420166Y-95033083D02*
X164720166Y-95033083D01*
X164720166Y-95366416D01*
X164720166Y-95566416D02*
X164720166Y-96033083D01*
X165420166Y-95733083D01*
X170133500Y-95266416D02*
X170133500Y-95033083D01*
X170500166Y-95033083D02*
X169800166Y-95033083D01*
X169800166Y-95366416D01*
X169800166Y-95966416D02*
X169800166Y-95633083D01*
X170133500Y-95599750D01*
X170100166Y-95633083D01*
X170066833Y-95699750D01*
X170066833Y-95866416D01*
X170100166Y-95933083D01*
X170133500Y-95966416D01*
X170200166Y-95999750D01*
X170366833Y-95999750D01*
X170433500Y-95966416D01*
X170466833Y-95933083D01*
X170500166Y-95866416D01*
X170500166Y-95699750D01*
X170466833Y-95633083D01*
X170433500Y-95599750D01*
X172673500Y-95266416D02*
X172673500Y-95033083D01*
X173040166Y-95033083D02*
X172340166Y-95033083D01*
X172340166Y-95366416D01*
X172573500Y-95933083D02*
X173040166Y-95933083D01*
X172306833Y-95766416D02*
X172806833Y-95599750D01*
X172806833Y-96033083D01*
X174880166Y-94820416D02*
X175580166Y-95053750D01*
X174880166Y-95287083D01*
X175513500Y-95920416D02*
X175546833Y-95887083D01*
X175580166Y-95787083D01*
X175580166Y-95720416D01*
X175546833Y-95620416D01*
X175480166Y-95553750D01*
X175413500Y-95520416D01*
X175280166Y-95487083D01*
X175180166Y-95487083D01*
X175046833Y-95520416D01*
X174980166Y-95553750D01*
X174913500Y-95620416D01*
X174880166Y-95720416D01*
X174880166Y-95787083D01*
X174913500Y-95887083D01*
X174946833Y-95920416D01*
X175513500Y-96620416D02*
X175546833Y-96587083D01*
X175580166Y-96487083D01*
X175580166Y-96420416D01*
X175546833Y-96320416D01*
X175480166Y-96253750D01*
X175413500Y-96220416D01*
X175280166Y-96187083D01*
X175180166Y-96187083D01*
X175046833Y-96220416D01*
X174980166Y-96253750D01*
X174913500Y-96320416D01*
X174880166Y-96420416D01*
X174880166Y-96487083D01*
X174913500Y-96587083D01*
X174946833Y-96620416D01*
X178120166Y-95370416D02*
X177786833Y-95137083D01*
X178120166Y-94970416D02*
X177420166Y-94970416D01*
X177420166Y-95237083D01*
X177453500Y-95303750D01*
X177486833Y-95337083D01*
X177553500Y-95370416D01*
X177653500Y-95370416D01*
X177720166Y-95337083D01*
X177753500Y-95303750D01*
X177786833Y-95237083D01*
X177786833Y-94970416D01*
X178086833Y-95637083D02*
X178120166Y-95737083D01*
X178120166Y-95903750D01*
X178086833Y-95970416D01*
X178053500Y-96003750D01*
X177986833Y-96037083D01*
X177920166Y-96037083D01*
X177853500Y-96003750D01*
X177820166Y-95970416D01*
X177786833Y-95903750D01*
X177753500Y-95770416D01*
X177720166Y-95703750D01*
X177686833Y-95670416D01*
X177620166Y-95637083D01*
X177553500Y-95637083D01*
X177486833Y-95670416D01*
X177453500Y-95703750D01*
X177420166Y-95770416D01*
X177420166Y-95937083D01*
X177453500Y-96037083D01*
X177420166Y-96237083D02*
X177420166Y-96637083D01*
X178120166Y-96437083D02*
X177420166Y-96437083D01*
X179993500Y-95220416D02*
X179960166Y-95153750D01*
X179960166Y-95053750D01*
X179993500Y-94953750D01*
X180060166Y-94887083D01*
X180126833Y-94853750D01*
X180260166Y-94820416D01*
X180360166Y-94820416D01*
X180493500Y-94853750D01*
X180560166Y-94887083D01*
X180626833Y-94953750D01*
X180660166Y-95053750D01*
X180660166Y-95120416D01*
X180626833Y-95220416D01*
X180593500Y-95253750D01*
X180360166Y-95253750D01*
X180360166Y-95120416D01*
X180660166Y-95553750D02*
X179960166Y-95553750D01*
X180660166Y-95953750D01*
X179960166Y-95953750D01*
X180660166Y-96287083D02*
X179960166Y-96287083D01*
X179960166Y-96453750D01*
X179993500Y-96553750D01*
X180060166Y-96620416D01*
X180126833Y-96653750D01*
X180260166Y-96687083D01*
X180360166Y-96687083D01*
X180493500Y-96653750D01*
X180560166Y-96620416D01*
X180626833Y-96553750D01*
X180660166Y-96453750D01*
X180660166Y-96287083D01*
X182946166Y-95270416D02*
X182612833Y-95037083D01*
X182946166Y-94870416D02*
X182246166Y-94870416D01*
X182246166Y-95137083D01*
X182279500Y-95203750D01*
X182312833Y-95237083D01*
X182379500Y-95270416D01*
X182479500Y-95270416D01*
X182546166Y-95237083D01*
X182579500Y-95203750D01*
X182612833Y-95137083D01*
X182612833Y-94870416D01*
X182746166Y-95537083D02*
X182746166Y-95870416D01*
X182946166Y-95470416D02*
X182246166Y-95703750D01*
X182946166Y-95937083D01*
X182246166Y-96103750D02*
X182946166Y-96270416D01*
X182446166Y-96403750D01*
X182946166Y-96537083D01*
X182246166Y-96703750D01*
D12*
X140591666Y-92393154D02*
X140591666Y-92964583D01*
X140629761Y-93078869D01*
X140705952Y-93155059D01*
X140820238Y-93193154D01*
X140896428Y-93193154D01*
X140172619Y-93193154D02*
X140020238Y-93193154D01*
X139944047Y-93155059D01*
X139905952Y-93116964D01*
X139829761Y-93002678D01*
X139791666Y-92850297D01*
X139791666Y-92545535D01*
X139829761Y-92469345D01*
X139867857Y-92431250D01*
X139944047Y-92393154D01*
X140096428Y-92393154D01*
X140172619Y-92431250D01*
X140210714Y-92469345D01*
X140248809Y-92545535D01*
X140248809Y-92736011D01*
X140210714Y-92812202D01*
X140172619Y-92850297D01*
X140096428Y-92888392D01*
X139944047Y-92888392D01*
X139867857Y-92850297D01*
X139829761Y-92812202D01*
X139791666Y-92736011D01*
D16*
X142531547Y-97819940D02*
X142698214Y-97581845D01*
X142817261Y-97819940D02*
X142817261Y-97319940D01*
X142626785Y-97319940D01*
X142579166Y-97343750D01*
X142555357Y-97367559D01*
X142531547Y-97415178D01*
X142531547Y-97486607D01*
X142555357Y-97534226D01*
X142579166Y-97558035D01*
X142626785Y-97581845D01*
X142817261Y-97581845D01*
X142126785Y-97796130D02*
X142174404Y-97819940D01*
X142269642Y-97819940D01*
X142317261Y-97796130D01*
X142341071Y-97748511D01*
X142341071Y-97558035D01*
X142317261Y-97510416D01*
X142269642Y-97486607D01*
X142174404Y-97486607D01*
X142126785Y-97510416D01*
X142102976Y-97558035D01*
X142102976Y-97605654D01*
X142341071Y-97653273D01*
X141912500Y-97796130D02*
X141864880Y-97819940D01*
X141769642Y-97819940D01*
X141722023Y-97796130D01*
X141698214Y-97748511D01*
X141698214Y-97724702D01*
X141722023Y-97677083D01*
X141769642Y-97653273D01*
X141841071Y-97653273D01*
X141888690Y-97629464D01*
X141912500Y-97581845D01*
X141912500Y-97558035D01*
X141888690Y-97510416D01*
X141841071Y-97486607D01*
X141769642Y-97486607D01*
X141722023Y-97510416D01*
X141293452Y-97796130D02*
X141341071Y-97819940D01*
X141436309Y-97819940D01*
X141483928Y-97796130D01*
X141507738Y-97748511D01*
X141507738Y-97558035D01*
X141483928Y-97510416D01*
X141436309Y-97486607D01*
X141341071Y-97486607D01*
X141293452Y-97510416D01*
X141269642Y-97558035D01*
X141269642Y-97605654D01*
X141507738Y-97653273D01*
X141126785Y-97486607D02*
X140936309Y-97486607D01*
X141055357Y-97319940D02*
X141055357Y-97748511D01*
X141031547Y-97796130D01*
X140983928Y-97819940D01*
X140936309Y-97819940D01*
X139666071Y-97343750D02*
X139713690Y-97319940D01*
X139785119Y-97319940D01*
X139856547Y-97343750D01*
X139904166Y-97391369D01*
X139927976Y-97438988D01*
X139951785Y-97534226D01*
X139951785Y-97605654D01*
X139927976Y-97700892D01*
X139904166Y-97748511D01*
X139856547Y-97796130D01*
X139785119Y-97819940D01*
X139737500Y-97819940D01*
X139666071Y-97796130D01*
X139642261Y-97772321D01*
X139642261Y-97605654D01*
X139737500Y-97605654D01*
X139427976Y-97819940D02*
X139427976Y-97486607D01*
X139427976Y-97581845D02*
X139404166Y-97534226D01*
X139380357Y-97510416D01*
X139332738Y-97486607D01*
X139285119Y-97486607D01*
X139047023Y-97819940D02*
X139094642Y-97796130D01*
X139118452Y-97772321D01*
X139142261Y-97724702D01*
X139142261Y-97581845D01*
X139118452Y-97534226D01*
X139094642Y-97510416D01*
X139047023Y-97486607D01*
X138975595Y-97486607D01*
X138927976Y-97510416D01*
X138904166Y-97534226D01*
X138880357Y-97581845D01*
X138880357Y-97724702D01*
X138904166Y-97772321D01*
X138927976Y-97796130D01*
X138975595Y-97819940D01*
X139047023Y-97819940D01*
X138451785Y-97486607D02*
X138451785Y-97819940D01*
X138666071Y-97486607D02*
X138666071Y-97748511D01*
X138642261Y-97796130D01*
X138594642Y-97819940D01*
X138523214Y-97819940D01*
X138475595Y-97796130D01*
X138451785Y-97772321D01*
X138213690Y-97486607D02*
X138213690Y-97819940D01*
X138213690Y-97534226D02*
X138189880Y-97510416D01*
X138142261Y-97486607D01*
X138070833Y-97486607D01*
X138023214Y-97510416D01*
X137999404Y-97558035D01*
X137999404Y-97819940D01*
X137547023Y-97819940D02*
X137547023Y-97319940D01*
X137547023Y-97796130D02*
X137594642Y-97819940D01*
X137689880Y-97819940D01*
X137737500Y-97796130D01*
X137761309Y-97772321D01*
X137785119Y-97724702D01*
X137785119Y-97581845D01*
X137761309Y-97534226D01*
X137737500Y-97510416D01*
X137689880Y-97486607D01*
X137594642Y-97486607D01*
X137547023Y-97510416D01*
M02*
