M48
; DRILL file {KiCad (5.1.4-0-10_14)} date 2019 November 23, Saturday 19:28:12
; FORMAT={-:-/ absolute / inch / decimal}
; #@! TF.CreationDate,2019-11-23T19:28:12+01:00
; #@! TF.GenerationSoftware,Kicad,Pcbnew,(5.1.4-0-10_14)
; #@! TF.FileFunction,Plated,1,2,PTH
FMAT,2
INCH
T1C0.0157
T2C0.0276
T3C0.0430
T4C0.0590
T5C0.0630
T6C0.0787
%
G90
G05
T1
X5.529Y-4.3935
X6.3796Y-4.3335
X6.4152Y-4.3635
X7.1215Y-4.4235
X7.395Y-2.7778
X7.5109Y-4.4535
T2
X5.8371Y-3.22
X5.8371Y-3.5271
X5.8371Y-2.4707
X5.8371Y-2.7778
X5.8371Y-3.97
X5.8371Y-4.2771
X7.4594Y-3.22
X7.4594Y-3.5271
X5.2121Y-2.47
X5.2121Y-2.7771
X6.7064Y-1.7215
X6.7064Y-2.0285
X5.9621Y-3.97
X5.9621Y-4.2771
X6.7101Y-3.9692
X6.7101Y-4.2763
X5.2116Y-3.9692
X5.2116Y-4.2763
X5.8371Y-1.7215
X5.8371Y-2.0285
X7.4557Y-1.7215
X7.4557Y-2.0285
X5.9621Y-1.7215
X5.9621Y-2.0285
X5.9621Y-3.22
X5.9621Y-3.5271
X5.1495Y-1.755
X5.181Y-1.6861
X5.2125Y-1.755
X7.3434Y-3.97
X7.3434Y-4.2771
X5.0898Y-2.4707
X5.0898Y-2.7778
X7.3376Y-3.22
X7.4557Y-3.9692
X7.4557Y-4.2763
X5.0865Y-1.755
X5.118Y-1.6861
X6.6Y-1.7215
X6.6Y-2.0285
X6.7064Y-2.4707
X6.7064Y-2.7778
X7.3376Y-3.5271
X5.0898Y-3.5271
X6.5871Y-4.2771
X5.0898Y-3.22
X6.5871Y-3.97
X7.4557Y-2.4707
X7.4557Y-2.7778
X5.0898Y-3.9692
X5.0898Y-4.2763
X5.2116Y-3.22
X5.2116Y-3.5271
T3
X4.455Y-2.15
X4.4624Y-4.15
X8.1046Y-2.896
X8.1046Y-3.096
X5.4656Y-3.7485
X8.1046Y-2.996
X5.5837Y-3.7485
X4.4465Y-3.0985
X4.455Y-2.35
X4.4465Y-2.9985
X4.455Y-2.25
X4.4624Y-4.25
X4.4624Y-4.35
X4.4624Y-4.45
X4.4465Y-2.8985
X4.4624Y-4.55
X4.4624Y-4.65
X4.4624Y-4.75
X4.4624Y-4.85
X8.0906Y-4.15
X8.0906Y-4.25
X8.1016Y-2.3522
X8.0906Y-4.35
X8.0906Y-4.45
X8.0906Y-4.55
X8.0906Y-4.65
X8.0906Y-4.75
X8.0906Y-4.85
X8.1016Y-2.1522
X8.1016Y-2.2522
X6.1001Y-3.0698
X6.1001Y-3.6698
X6.2001Y-3.0698
X6.2001Y-3.6698
X6.3001Y-3.0698
X6.3001Y-3.6698
X6.4001Y-3.0698
X6.4001Y-3.6698
X6.5001Y-3.0698
X6.5001Y-3.6698
X6.6001Y-3.0698
X6.6001Y-3.6698
X6.7001Y-3.0698
X6.7001Y-3.6698
X6.8001Y-3.0698
X6.8001Y-3.6698
X5.3106Y-2.25
X4.9799Y-2.25
X5.0901Y-2.25
X5.2004Y-2.25
X6.9001Y-3.0698
X6.9001Y-3.6698
X7.0001Y-3.0698
X7.0001Y-3.6698
X7.1001Y-3.0698
X7.1001Y-3.6698
X7.2001Y-3.0698
X7.2001Y-3.6698
T4
X7.6231Y-4.0228
X7.8731Y-3.9228
X5.5621Y-4.7735
X5.8121Y-4.6735
X7.6246Y-4.7735
X7.8746Y-4.6735
X6.8739Y-3.2735
X7.1239Y-3.1735
X5.3753Y-3.2735
X5.6253Y-3.1735
X6.4996Y-4.7735
X6.7496Y-4.6735
X5.3753Y-4.0228
X5.6253Y-3.9228
X7.1239Y-3.9228
X6.6871Y-4.7735
X6.9371Y-4.6735
X6.1246Y-2.5243
X6.3746Y-2.4243
X5.3753Y-2.5243
X5.6253Y-2.4243
X4.8761Y-1.675
X7.4371Y-4.7735
X7.6871Y-4.6735
X4.6261Y-1.775
X5.3753Y-1.775
X5.6253Y-1.675
X6.8739Y-1.775
X7.1239Y-1.675
X6.8739Y-4.0228
X6.1246Y-4.7735
X7.8731Y-2.4243
X6.3746Y-4.6735
X4.6246Y-4.7735
X4.8746Y-4.6735
X4.6261Y-3.2735
X4.8121Y-4.7735
X5.0621Y-4.6735
X7.6231Y-2.5243
X6.1246Y-3.2735
X6.3746Y-3.1735
X4.8761Y-3.1735
X7.6231Y-1.775
X7.8731Y-1.675
X4.6246Y-4.0235
X7.6231Y-3.2735
X7.8731Y-3.1735
X5.3746Y-4.7735
X5.6246Y-4.6735
X6.8739Y-2.5243
X7.1239Y-2.4243
X4.8746Y-3.9235
X6.1246Y-1.775
X6.3746Y-1.675
X6.1246Y-4.0228
X6.3746Y-3.9228
X6.8746Y-4.7735
X7.1246Y-4.6735
X5.7496Y-4.7735
X5.9996Y-4.6735
X4.6261Y-2.5243
X4.8761Y-2.4243
T5
X4.996Y-1.5011
X4.996Y-1.6861
X5.3031Y-1.5011
X5.3031Y-1.6861
T6
G00X4.3518Y-3.7389
M15
G01X4.6274Y-3.7389
M16
G05
G00X7.9181Y-3.7389
M15
G01X8.1937Y-3.7389
M16
G05
T0
M30
