M48
; DRILL file {KiCad (5.1.4-0-10_14)} date 2019 December 28, Saturday 10:04:55
; FORMAT={-:-/ absolute / inch / decimal}
; #@! TF.CreationDate,2019-12-28T10:04:55+01:00
; #@! TF.GenerationSoftware,Kicad,Pcbnew,(5.1.4-0-10_14)
; #@! TF.FileFunction,NonPlated,1,2,NPTH
FMAT,2
INCH
T1C0.0670
T2C0.0709
T3C0.1200
T4C0.1570
%
G90
G05
T1
X6.9434Y-4.1235
X6.8246Y-4.8735
X7.2246Y-4.8735
X6.4746Y-1.875
X6.5434Y-4.1235
X6.8239Y-3.3735
X7.2239Y-3.3735
X6.0746Y-1.875
X6.5434Y-3.3735
X5.7253Y-4.1228
X5.3246Y-4.8735
X5.7246Y-4.8735
X6.9434Y-3.3735
X5.3253Y-4.1228
X6.8239Y-4.1228
X7.2239Y-4.1228
X4.5761Y-2.6243
X4.9761Y-2.6243
X7.1996Y-1.8735
X7.5996Y-1.8735
X7.5731Y-4.1228
X7.9731Y-4.1228
X6.4496Y-4.8735
X6.8496Y-4.8735
X7.5731Y-1.8735
X7.9731Y-1.8735
X5.0434Y-4.1235
X7.5731Y-2.6243
X7.9731Y-2.6243
X6.0746Y-2.6243
X6.4746Y-2.6243
X4.5761Y-1.875
X4.9761Y-1.875
X5.4434Y-4.1235
X6.0746Y-3.3735
X6.4746Y-3.3735
X5.0434Y-3.3735
X5.4434Y-3.3735
X6.4746Y-4.8735
X6.8239Y-1.8735
X7.2239Y-1.8735
X7.5746Y-4.8735
X7.9746Y-4.8735
X5.3253Y-2.6243
X5.7253Y-2.6243
X4.5761Y-3.3735
X4.9761Y-3.3735
X6.0746Y-4.8735
X4.5746Y-4.1235
X4.9746Y-4.1235
X5.6996Y-4.8735
X6.0996Y-4.8735
X6.0746Y-4.1228
X6.4746Y-4.1228
X7.5731Y-3.3735
X7.9731Y-3.3735
X4.5746Y-4.8735
X4.9746Y-4.8735
X6.8239Y-2.6243
X7.2239Y-2.6243
X5.3253Y-3.3735
X5.7253Y-3.3735
X5.3253Y-1.875
X5.7253Y-1.875
T2
X6.6371Y-4.8735
X7.3871Y-4.8735
X7.0121Y-2.6235
X7.4121Y-2.6235
X7.0371Y-4.8735
X7.7871Y-4.8735
X5.5121Y-4.8735
X5.9121Y-4.8735
X4.7621Y-4.8735
X5.1621Y-4.8735
X5.1371Y-2.6235
X5.5371Y-2.6235
T3
X5.8046Y-5.1485
X4.7746Y-5.1485
X6.7446Y-5.1485
X7.7746Y-5.1485
X6.2734Y-3.8485
X7.2134Y-3.8485
X6.2734Y-3.0985
X7.2134Y-3.0985
T4
X7.0239Y-3.3735
X6.2734Y-4.4485
X6.7434Y-4.1235
X7.2134Y-4.4485
X7.0246Y-4.8735
X5.3371Y-2.6235
X4.7761Y-2.6243
X5.5246Y-4.8735
X6.2734Y-3.6985
X6.7434Y-3.3735
X7.2134Y-3.6985
X4.7746Y-4.5485
X7.7746Y-4.5485
X6.2746Y-1.875
X5.5253Y-4.1228
X7.0239Y-4.1228
X7.7731Y-4.1228
X7.5871Y-4.8735
X5.2434Y-4.1235
X6.6496Y-4.8735
X7.7731Y-1.8735
X7.3996Y-1.8735
X6.2746Y-2.6243
X6.8371Y-4.8735
X7.7731Y-2.6243
X4.7761Y-1.875
X5.2434Y-3.3735
X6.2746Y-3.3735
X4.7761Y-3.3735
X7.2121Y-2.6235
X4.7746Y-4.1235
X6.7446Y-4.5485
X7.0239Y-1.8735
X7.7746Y-4.8735
X5.5253Y-2.6243
X6.2746Y-4.8735
X5.8996Y-4.8735
X4.7746Y-4.8735
X5.7121Y-4.8735
X7.0239Y-2.6243
X6.2746Y-4.1228
X5.8046Y-4.5485
X4.9621Y-4.8735
X7.7731Y-3.3735
X5.5253Y-3.3735
X5.5253Y-1.875
T0
M30
