G04 #@! TF.GenerationSoftware,KiCad,Pcbnew,(5.1.4-0-10_14)*
G04 #@! TF.CreationDate,2019-10-25T20:11:30+02:00*
G04 #@! TF.ProjectId,tripel,74726970-656c-42e6-9b69-6361645f7063,rev?*
G04 #@! TF.SameCoordinates,Original*
G04 #@! TF.FileFunction,Soldermask,Top*
G04 #@! TF.FilePolarity,Negative*
%FSLAX46Y46*%
G04 Gerber Fmt 4.6, Leading zero omitted, Abs format (unit mm)*
G04 Created by KiCad (PCBNEW (5.1.4-0-10_14)) date 2019-10-25 20:11:30*
%MOMM*%
%LPD*%
G04 APERTURE LIST*
%ADD10O,11.000000X3.900000*%
%ADD11C,2.686000*%
%ADD12O,2.400000X2.400000*%
%ADD13C,1.500000*%
%ADD14R,1.500000X1.500000*%
%ADD15C,2.101800*%
%ADD16R,2.900000X2.900000*%
%ADD17R,2.000000X2.000000*%
%ADD18C,2.000000*%
%ADD19R,2.152600X2.152600*%
%ADD20C,2.152600*%
%ADD21C,2.400000*%
%ADD22R,2.400000X2.400000*%
G04 APERTURE END LIST*
D10*
X114036000Y-94968750D03*
D11*
X177025000Y-121217500D03*
X178295000Y-118677500D03*
X183375000Y-118677500D03*
X184645000Y-121217500D03*
X129445000Y-121207500D03*
X130715000Y-118667500D03*
X135795000Y-118667500D03*
X137065000Y-121207500D03*
D12*
X126897500Y-42827000D03*
X126897500Y-38127000D03*
X134697500Y-38127000D03*
X134697500Y-42827000D03*
D13*
X129197500Y-44577000D03*
X129997500Y-42827000D03*
X130797500Y-44577000D03*
X131597500Y-42827000D03*
D14*
X132397500Y-44577000D03*
D15*
X145423750Y-85687500D03*
X135263750Y-85687500D03*
D11*
X136533750Y-83147500D03*
X142883750Y-80607500D03*
X144153750Y-83147500D03*
X137803750Y-80607500D03*
D15*
X202517500Y-47625000D03*
X192357500Y-47625000D03*
D11*
X193627500Y-45085000D03*
X199977500Y-42545000D03*
X201247500Y-45085000D03*
X194897500Y-42545000D03*
X137803750Y-61576250D03*
X144153750Y-64116250D03*
X142883750Y-61576250D03*
X136533750Y-64116250D03*
D15*
X135263750Y-66656250D03*
X145423750Y-66656250D03*
D11*
X118772500Y-80607500D03*
X125122500Y-83147500D03*
X123852500Y-80607500D03*
X117502500Y-83147500D03*
D15*
X116232500Y-85687500D03*
X126392500Y-85687500D03*
D11*
X156835000Y-61576250D03*
X163185000Y-64116250D03*
X161915000Y-61576250D03*
X155565000Y-64116250D03*
D15*
X154295000Y-66656250D03*
X164455000Y-66656250D03*
D11*
X175866250Y-61576250D03*
X182216250Y-64116250D03*
X180946250Y-61576250D03*
X174596250Y-64116250D03*
D15*
X173326250Y-66656250D03*
X183486250Y-66656250D03*
D11*
X194897500Y-61576250D03*
X201247500Y-64116250D03*
X199977500Y-61576250D03*
X193627500Y-64116250D03*
D15*
X192357500Y-66656250D03*
X202517500Y-66656250D03*
X131173750Y-123750000D03*
X121013750Y-123750000D03*
D11*
X122283750Y-121210000D03*
X128633750Y-118670000D03*
X129903750Y-121210000D03*
X123553750Y-118670000D03*
D15*
X178705000Y-123750000D03*
X168545000Y-123750000D03*
D11*
X169815000Y-121210000D03*
X176165000Y-118670000D03*
X177435000Y-121210000D03*
X171085000Y-118670000D03*
D15*
X145423750Y-104718750D03*
X135263750Y-104718750D03*
D11*
X136533750Y-102178750D03*
X142883750Y-99638750D03*
X144153750Y-102178750D03*
X137803750Y-99638750D03*
D16*
X205740000Y-54356000D03*
X205740000Y-59944000D03*
X205740000Y-57150000D03*
D17*
X151257000Y-51525000D03*
D18*
X151257000Y-43725000D03*
D17*
X129281250Y-70556250D03*
D18*
X129281250Y-62756250D03*
D17*
X189375000Y-51525000D03*
D18*
X189375000Y-43725000D03*
X186375000Y-81787500D03*
D17*
X186375000Y-89587500D03*
X132375000Y-108618750D03*
D18*
X132375000Y-100818750D03*
X129281250Y-81787500D03*
D17*
X129281250Y-89587500D03*
D18*
X148590000Y-43725000D03*
D17*
X148590000Y-51525000D03*
D18*
X189375000Y-62756250D03*
D17*
X189375000Y-70556250D03*
D18*
X170437500Y-100818750D03*
D17*
X170437500Y-108618750D03*
X129281250Y-108618750D03*
D18*
X129281250Y-100818750D03*
X132281250Y-62756250D03*
D17*
X132281250Y-70556250D03*
D18*
X132375000Y-81787500D03*
D17*
X132375000Y-89587500D03*
D18*
X189468750Y-81787500D03*
D17*
X189468750Y-89587500D03*
D18*
X189474000Y-119850000D03*
D17*
X189474000Y-127650000D03*
D18*
X118179375Y-119887500D03*
D17*
X118179375Y-127687500D03*
D18*
X167640000Y-43725000D03*
D17*
X167640000Y-51525000D03*
X151312500Y-70556250D03*
D18*
X151312500Y-62756250D03*
X189375000Y-100818750D03*
D17*
X189375000Y-108618750D03*
D18*
X141843750Y-119850000D03*
D17*
X141843750Y-127650000D03*
X151406250Y-89587500D03*
D18*
X151406250Y-81787500D03*
D17*
X170343750Y-51525000D03*
D18*
X170343750Y-43725000D03*
X170343750Y-62756250D03*
D17*
X170343750Y-70556250D03*
X151312500Y-108618750D03*
D18*
X151312500Y-100818750D03*
D15*
X145423750Y-47625000D03*
X135263750Y-47625000D03*
D11*
X136533750Y-45085000D03*
X142883750Y-42545000D03*
X144153750Y-45085000D03*
X137803750Y-42545000D03*
D15*
X164455000Y-47625000D03*
X154295000Y-47625000D03*
D11*
X155565000Y-45085000D03*
X161915000Y-42545000D03*
X163185000Y-45085000D03*
X156835000Y-42545000D03*
X175866250Y-42545000D03*
X182216250Y-45085000D03*
X180946250Y-42545000D03*
X174596250Y-45085000D03*
D15*
X173326250Y-47625000D03*
X183486250Y-47625000D03*
X126392500Y-47625000D03*
X116232500Y-47625000D03*
D11*
X117502500Y-45085000D03*
X123852500Y-42545000D03*
X125122500Y-45085000D03*
X118772500Y-42545000D03*
D15*
X126392500Y-66656250D03*
X116232500Y-66656250D03*
D11*
X117502500Y-64116250D03*
X123852500Y-61576250D03*
X125122500Y-64116250D03*
X118772500Y-61576250D03*
D15*
X202517500Y-85687500D03*
X192357500Y-85687500D03*
D11*
X193627500Y-83147500D03*
X199977500Y-80607500D03*
X201247500Y-83147500D03*
X194897500Y-80607500D03*
X194897500Y-99638750D03*
X201247500Y-102178750D03*
X199977500Y-99638750D03*
X193627500Y-102178750D03*
D15*
X192357500Y-104718750D03*
X202517500Y-104718750D03*
X183486250Y-85687500D03*
X173326250Y-85687500D03*
D11*
X174596250Y-83147500D03*
X180946250Y-80607500D03*
X182216250Y-83147500D03*
X175866250Y-80607500D03*
X175866250Y-99638750D03*
X182216250Y-102178750D03*
X180946250Y-99638750D03*
X174596250Y-102178750D03*
D15*
X173326250Y-104718750D03*
X183486250Y-104718750D03*
D11*
X156835000Y-80607500D03*
X163185000Y-83147500D03*
X161915000Y-80607500D03*
X155565000Y-83147500D03*
D15*
X154295000Y-85687500D03*
X164455000Y-85687500D03*
D11*
X156835000Y-99638750D03*
X163185000Y-102178750D03*
X161915000Y-99638750D03*
X155565000Y-102178750D03*
D15*
X154295000Y-104718750D03*
X164455000Y-104718750D03*
X154892500Y-123750000D03*
X144732500Y-123750000D03*
D11*
X146002500Y-121210000D03*
X152352500Y-118670000D03*
X153622500Y-121210000D03*
X147272500Y-118670000D03*
D15*
X126355000Y-104737500D03*
X116195000Y-104737500D03*
D11*
X117465000Y-102197500D03*
X123815000Y-99657500D03*
X125085000Y-102197500D03*
X118735000Y-99657500D03*
D19*
X182883500Y-93213750D03*
D20*
X180343500Y-93213750D03*
X177803500Y-93213750D03*
X175263500Y-93213750D03*
X172723500Y-93213750D03*
X170183500Y-93213750D03*
X167643500Y-93213750D03*
X165103500Y-93213750D03*
X162563500Y-93213750D03*
X160023500Y-93213750D03*
X157483500Y-93213750D03*
X154943500Y-93213750D03*
X154943500Y-77973750D03*
X157483500Y-77973750D03*
X160023500Y-77973750D03*
X162563500Y-77973750D03*
X165103500Y-77973750D03*
X167643500Y-77973750D03*
X170183500Y-77973750D03*
X172723500Y-77973750D03*
X175263500Y-77973750D03*
X177803500Y-77973750D03*
X180343500Y-77973750D03*
X182883500Y-77973750D03*
D16*
X113343750Y-104506000D03*
X113343750Y-107306000D03*
X113343750Y-110094000D03*
X113343750Y-115694000D03*
X113343750Y-112894000D03*
X113343750Y-121294000D03*
X113343750Y-118494000D03*
X113343750Y-124094000D03*
X205500000Y-124094000D03*
X205500000Y-118494000D03*
X205500000Y-121294000D03*
X205500000Y-112894000D03*
X205500000Y-115694000D03*
X205500000Y-110094000D03*
X205500000Y-107306000D03*
X205500000Y-104506000D03*
D11*
X156835000Y-118670000D03*
X163185000Y-121210000D03*
X161915000Y-118670000D03*
X155565000Y-121210000D03*
D15*
X154295000Y-123750000D03*
X164455000Y-123750000D03*
D21*
X126489000Y-57150000D03*
X132089000Y-57150000D03*
X129289000Y-57150000D03*
D22*
X134889000Y-57150000D03*
D17*
X186521250Y-108637500D03*
D18*
X186521250Y-100837500D03*
D15*
X202517500Y-123757500D03*
X192357500Y-123757500D03*
D11*
X193627500Y-121217500D03*
X199977500Y-118677500D03*
X201247500Y-121217500D03*
X194897500Y-118677500D03*
M02*
