M48
; DRILL file {KiCad (5.1.4-0-10_14)} date 2019 November 01, Friday 23:04:23
; FORMAT={-:-/ absolute / inch / decimal}
; #@! TF.CreationDate,2019-11-01T23:04:23+01:00
; #@! TF.GenerationSoftware,Kicad,Pcbnew,(5.1.4-0-10_14)
; #@! TF.FileFunction,Plated,1,2,PTH
FMAT,2
INCH
T1C0.0157
T2C0.0276
T3C0.0430
T4C0.0590
T5C0.0630
T6C0.0787
%
G90
G05
T1
X5.9323Y-4.2612
X6.195Y-4.3635
X6.3796Y-4.3335
X6.7474Y-3.0057
X6.7715Y-4.4235
X7.35Y-2.85
X7.395Y-2.8289
X7.4746Y-3.0285
X7.4746Y-2.9685
X7.5046Y-3.0
X7.515Y-2.28
X7.5196Y-4.4535
T2
X7.4557Y-1.7215
X7.4557Y-2.0285
X5.955Y-1.7215
X5.955Y-2.0285
X7.4557Y-3.9692
X7.4557Y-4.2763
X6.6Y-1.7215
X6.6Y-2.0285
X6.7064Y-1.7215
X6.7064Y-2.0285
X5.5844Y-5.0256
X7.4594Y-3.22
X7.4594Y-3.5271
X6.5871Y-3.97
X6.5871Y-4.2771
X7.4557Y-2.4707
X7.4557Y-2.7778
X5.0898Y-3.22
X5.0898Y-3.5271
X5.5844Y-4.7185
X6.7064Y-2.4707
X5.0898Y-3.9692
X5.0898Y-4.2763
X5.2116Y-3.9692
X5.2116Y-4.2763
X5.2116Y-3.22
X5.2116Y-3.5271
X5.8546Y-3.5271
X4.6527Y-4.72
X4.6527Y-5.0271
X5.8546Y-3.22
X5.8546Y-2.4707
X5.8546Y-2.7778
X6.7064Y-2.7778
X6.7101Y-3.9692
X5.1495Y-1.755
X5.181Y-1.6861
X5.2125Y-1.755
X5.8546Y-3.97
X5.0865Y-1.755
X5.118Y-1.6861
X7.3434Y-3.97
X7.3434Y-4.2771
X5.0898Y-2.4707
X5.0898Y-2.7778
X5.8546Y-4.2771
X7.3376Y-3.22
X7.3376Y-3.5271
X5.2079Y-2.4707
X5.2079Y-2.7778
X6.7101Y-4.2763
X5.85Y-1.7215
X5.85Y-2.0285
T3
X4.4624Y-4.15
X6.1001Y-3.0698
X6.1001Y-3.6698
X6.2001Y-3.0698
X4.4624Y-4.25
X6.2001Y-3.6698
X6.3001Y-3.0698
X6.3001Y-3.6698
X6.4001Y-3.0698
X6.4001Y-3.6698
X6.5001Y-3.0698
X6.5001Y-3.6698
X8.0906Y-4.45
X8.0906Y-4.15
X8.0906Y-4.25
X8.0906Y-4.35
X4.4624Y-4.35
X4.4624Y-4.45
X4.4624Y-4.65
X8.0906Y-4.55
X8.0906Y-4.65
X8.0906Y-4.75
X8.0906Y-4.85
X4.9799Y-2.25
X5.0901Y-2.25
X5.2004Y-2.25
X5.3106Y-2.25
X4.4624Y-4.55
X4.4624Y-4.75
X4.4624Y-4.85
X6.6001Y-3.0698
X6.6001Y-3.6698
X6.7001Y-3.0698
X6.7001Y-3.6698
X6.8001Y-3.0698
X6.8001Y-3.6698
X6.9001Y-3.0698
X6.9001Y-3.6698
X7.0001Y-3.0698
X7.0001Y-3.6698
X7.1001Y-3.0698
X7.1001Y-3.6698
X7.2001Y-3.0698
X7.2001Y-3.6698
T4
X6.6856Y-4.772
X6.7356Y-4.672
X6.9356Y-4.672
X6.9856Y-4.772
X6.8739Y-3.2735
X6.9239Y-3.1735
X7.1239Y-3.1735
X7.1739Y-3.2735
X6.1246Y-1.775
X6.1746Y-1.675
X6.3746Y-1.675
X6.4246Y-1.775
X6.8739Y-2.5243
X6.9239Y-2.4243
X7.1239Y-2.4243
X7.1739Y-2.5243
X5.3753Y-2.5243
X5.4253Y-2.4243
X5.6253Y-2.4243
X7.6231Y-4.7723
X7.6731Y-4.6723
X7.8731Y-4.6723
X7.9231Y-4.7723
X5.7481Y-4.772
X5.7981Y-4.672
X5.9981Y-4.672
X6.0481Y-4.772
X4.6261Y-3.2735
X4.6761Y-3.1735
X4.8761Y-3.1735
X4.9261Y-3.2735
X5.0963Y-4.7719
X5.6753Y-2.5243
X6.1246Y-2.5243
X6.1746Y-2.4243
X6.3746Y-2.4243
X6.4246Y-2.5243
X4.6761Y-1.675
X4.8761Y-1.675
X4.9261Y-1.775
X7.8731Y-1.675
X4.6261Y-1.775
X5.1463Y-4.6719
X5.3463Y-4.6719
X5.3963Y-4.7719
X7.6231Y-1.775
X7.6731Y-1.675
X7.9231Y-1.775
X5.3753Y-4.0228
X5.4253Y-3.9228
X5.6253Y-3.9228
X7.4371Y-4.7735
X7.4871Y-4.6735
X7.6871Y-4.6735
X7.7371Y-4.7735
X6.8739Y-1.775
X6.9239Y-1.675
X7.1239Y-1.675
X7.1739Y-1.775
X4.6761Y-2.4243
X5.6753Y-4.0228
X4.6246Y-4.0235
X4.6746Y-3.9235
X4.8746Y-3.9235
X4.9246Y-4.0235
X6.8739Y-4.0228
X6.9239Y-3.9228
X7.1239Y-3.9228
X7.1739Y-4.0228
X5.3753Y-3.2735
X5.4253Y-3.1735
X5.6253Y-3.1735
X5.6753Y-3.2735
X7.6231Y-4.0228
X7.6731Y-3.9228
X7.8731Y-3.9228
X7.9231Y-4.0228
X4.6261Y-2.5243
X4.8761Y-2.4243
X4.9261Y-2.5243
X7.6231Y-3.2735
X7.6731Y-3.1735
X6.1746Y-4.672
X6.1246Y-4.772
X6.3746Y-4.672
X6.4246Y-4.772
X7.8731Y-3.1735
X7.9231Y-3.2735
X6.1746Y-3.9228
X4.8143Y-4.772
X4.8643Y-4.672
X5.0643Y-4.672
X5.1143Y-4.772
X6.1246Y-4.0228
X6.3746Y-3.9228
X6.4246Y-4.0228
X5.3753Y-1.775
X5.4253Y-1.675
X5.6253Y-1.675
X5.6753Y-1.775
X6.1246Y-3.2735
X6.1746Y-3.1735
X6.3746Y-3.1735
X6.4246Y-3.2735
X7.6731Y-2.4243
X7.9231Y-2.5243
X6.9695Y-4.7723
X7.0195Y-4.6723
X7.2195Y-4.6723
X7.6231Y-2.5243
X7.8731Y-2.4243
X7.2695Y-4.7723
T5
X4.996Y-1.5011
X4.996Y-1.6861
X5.3031Y-1.5011
X5.3031Y-1.6861
T6
G00X4.3518Y-3.7389
M15
G01X4.6274Y-3.7389
M16
G05
T0
M30
