G04 #@! TF.GenerationSoftware,KiCad,Pcbnew,(5.1.4-0-10_14)*
G04 #@! TF.CreationDate,2019-11-16T21:14:42+01:00*
G04 #@! TF.ProjectId,tripel,74726970-656c-42e6-9b69-6361645f7063,rev?*
G04 #@! TF.SameCoordinates,Original*
G04 #@! TF.FileFunction,Soldermask,Top*
G04 #@! TF.FilePolarity,Negative*
%FSLAX46Y46*%
G04 Gerber Fmt 4.6, Leading zero omitted, Abs format (unit mm)*
G04 Created by KiCad (PCBNEW (5.1.4-0-10_14)) date 2019-11-16 21:14:42*
%MOMM*%
%LPD*%
G04 APERTURE LIST*
%ADD10C,2.101800*%
%ADD11C,2.686000*%
%ADD12R,2.900000X2.152600*%
%ADD13O,11.000000X3.900000*%
%ADD14O,2.400000X2.400000*%
%ADD15C,1.500000*%
%ADD16R,1.500000X1.500000*%
%ADD17C,2.400000*%
%ADD18R,2.400000X2.400000*%
%ADD19R,2.000000X2.000000*%
%ADD20C,2.000000*%
%ADD21R,2.152600X2.152600*%
%ADD22C,2.152600*%
G04 APERTURE END LIST*
D10*
X126355000Y-123787500D03*
X116195000Y-123787500D03*
D11*
X117465000Y-121247500D03*
X123815000Y-118707500D03*
X155565000Y-121247500D03*
X161915000Y-118707500D03*
D10*
X126392500Y-66656250D03*
X116232500Y-66656250D03*
D11*
X117502500Y-64116250D03*
X123852500Y-61576250D03*
D12*
X112940625Y-78702500D03*
X112940625Y-73622500D03*
X112940625Y-76162500D03*
X205857000Y-73559000D03*
X205857000Y-78639000D03*
X205857000Y-76099000D03*
X113157000Y-59690000D03*
X113157000Y-54610000D03*
X113157000Y-57150000D03*
X205781250Y-59746000D03*
X205781250Y-54666000D03*
X205781250Y-57206000D03*
D13*
X204618750Y-94968750D03*
D11*
X141277500Y-121247500D03*
X147627500Y-118707500D03*
X188902500Y-121247500D03*
X195252500Y-118707500D03*
X122227500Y-121247500D03*
X128577500Y-118707500D03*
X169852500Y-121247500D03*
X176202500Y-118707500D03*
D10*
X183505000Y-123787500D03*
X173345000Y-123787500D03*
D11*
X174615000Y-121247500D03*
X180965000Y-118707500D03*
D10*
X202517500Y-47625000D03*
X192357500Y-47625000D03*
D11*
X193627500Y-45085000D03*
X199977500Y-42545000D03*
D10*
X183486250Y-47625000D03*
X173326250Y-47625000D03*
D11*
X174596250Y-45085000D03*
X180946250Y-42545000D03*
D10*
X164455000Y-47625000D03*
X154295000Y-47625000D03*
D11*
X155565000Y-45085000D03*
X161915000Y-42545000D03*
D10*
X145423750Y-47625000D03*
X135263750Y-47625000D03*
D11*
X136533750Y-45085000D03*
X142883750Y-42545000D03*
D10*
X126392500Y-47625000D03*
X116232500Y-47625000D03*
D11*
X117502500Y-45085000D03*
X123852500Y-42545000D03*
D10*
X202517500Y-66656250D03*
X192357500Y-66656250D03*
D11*
X193627500Y-64116250D03*
X199977500Y-61576250D03*
D10*
X145423750Y-66656250D03*
X135263750Y-66656250D03*
D11*
X136533750Y-64116250D03*
X142883750Y-61576250D03*
D10*
X183486250Y-66656250D03*
X173326250Y-66656250D03*
D11*
X174596250Y-64116250D03*
X180946250Y-61576250D03*
D10*
X164455000Y-66656250D03*
X154295000Y-66656250D03*
D11*
X155565000Y-64116250D03*
X161915000Y-61576250D03*
D10*
X202517500Y-85687500D03*
X192357500Y-85687500D03*
D11*
X193627500Y-83147500D03*
X199977500Y-80607500D03*
D10*
X183486250Y-85687500D03*
X173326250Y-85687500D03*
D11*
X174596250Y-83147500D03*
X180946250Y-80607500D03*
D10*
X126392500Y-85687500D03*
X116232500Y-85687500D03*
D11*
X117502500Y-83147500D03*
X123852500Y-80607500D03*
D10*
X145423750Y-85687500D03*
X135263750Y-85687500D03*
D11*
X136533750Y-83147500D03*
X142883750Y-80607500D03*
D10*
X164455000Y-85687500D03*
X154295000Y-85687500D03*
D11*
X155565000Y-83147500D03*
X161915000Y-80607500D03*
D10*
X145423750Y-104718750D03*
X135263750Y-104718750D03*
D11*
X136533750Y-102178750D03*
X142883750Y-99638750D03*
D10*
X126355000Y-104737500D03*
X116195000Y-104737500D03*
D11*
X117465000Y-102197500D03*
X123815000Y-99657500D03*
D10*
X183486250Y-104718750D03*
X173326250Y-104718750D03*
D11*
X174596250Y-102178750D03*
X180946250Y-99638750D03*
D10*
X164455000Y-104718750D03*
X154295000Y-104718750D03*
D11*
X155565000Y-102178750D03*
X161915000Y-99638750D03*
D10*
X202517500Y-104718750D03*
X192357500Y-104718750D03*
D11*
X193627500Y-102178750D03*
X199977500Y-99638750D03*
D10*
X154930000Y-123787500D03*
X144770000Y-123787500D03*
D11*
X146040000Y-121247500D03*
X152390000Y-118707500D03*
D10*
X173980000Y-123787500D03*
X163820000Y-123787500D03*
D11*
X165090000Y-121247500D03*
X171440000Y-118707500D03*
D12*
X113343750Y-123190000D03*
X113343750Y-120650000D03*
X113343750Y-118110000D03*
X113343750Y-115570000D03*
X113343750Y-113030000D03*
X113343750Y-110490000D03*
X113343750Y-107950000D03*
X113343750Y-105410000D03*
X205500000Y-123190000D03*
X205500000Y-120650000D03*
X205500000Y-118110000D03*
X205500000Y-115570000D03*
X205500000Y-113030000D03*
X205500000Y-110490000D03*
X205500000Y-107950000D03*
X205500000Y-105410000D03*
D14*
X126897500Y-42827000D03*
X126897500Y-38127000D03*
X134697500Y-38127000D03*
X134697500Y-42827000D03*
D15*
X129197500Y-44577000D03*
X129997500Y-42827000D03*
X130797500Y-44577000D03*
X131597500Y-42827000D03*
D16*
X132397500Y-44577000D03*
D13*
X114036000Y-94968750D03*
D17*
X126489000Y-57150000D03*
X132089000Y-57150000D03*
X129289000Y-57150000D03*
D18*
X134889000Y-57150000D03*
D19*
X186521250Y-108637500D03*
D20*
X186521250Y-100837500D03*
D19*
X151437500Y-51525000D03*
D20*
X151437500Y-43725000D03*
D19*
X129281250Y-70556250D03*
D20*
X129281250Y-62756250D03*
X189375000Y-43725000D03*
D19*
X189375000Y-51525000D03*
D20*
X186375000Y-81787500D03*
D19*
X186375000Y-89587500D03*
X132375000Y-108618750D03*
D20*
X132375000Y-100818750D03*
D19*
X129281250Y-89587500D03*
D20*
X129281250Y-81787500D03*
D19*
X148262500Y-51525000D03*
D20*
X148262500Y-43725000D03*
D19*
X189375000Y-70556250D03*
D20*
X189375000Y-62756250D03*
X170437500Y-100818750D03*
D19*
X170437500Y-108618750D03*
D20*
X129281250Y-100818750D03*
D19*
X129281250Y-108618750D03*
D20*
X132387500Y-62737500D03*
D19*
X132387500Y-70537500D03*
D20*
X132375000Y-81787500D03*
D19*
X132375000Y-89587500D03*
D20*
X189468750Y-81787500D03*
D19*
X189468750Y-89587500D03*
D20*
X167312500Y-100837500D03*
D19*
X167312500Y-108637500D03*
D20*
X148262500Y-100837500D03*
D19*
X148262500Y-108637500D03*
D20*
X167640000Y-43725000D03*
D19*
X167640000Y-51525000D03*
X148262500Y-70556250D03*
D20*
X148262500Y-62756250D03*
D19*
X189375000Y-108618750D03*
D20*
X189375000Y-100818750D03*
D19*
X148262500Y-89587500D03*
D20*
X148262500Y-81787500D03*
D19*
X151437500Y-89587500D03*
D20*
X151437500Y-81787500D03*
D19*
X170343750Y-51525000D03*
D20*
X170343750Y-43725000D03*
D19*
X170343750Y-70556250D03*
D20*
X170343750Y-62756250D03*
X151437500Y-100837500D03*
D19*
X151437500Y-108637500D03*
D21*
X182883500Y-93213750D03*
D22*
X180343500Y-93213750D03*
X177803500Y-93213750D03*
X175263500Y-93213750D03*
X172723500Y-93213750D03*
X170183500Y-93213750D03*
X167643500Y-93213750D03*
X165103500Y-93213750D03*
X162563500Y-93213750D03*
X160023500Y-93213750D03*
X157483500Y-93213750D03*
X154943500Y-93213750D03*
X154943500Y-77973750D03*
X157483500Y-77973750D03*
X160023500Y-77973750D03*
X162563500Y-77973750D03*
X165103500Y-77973750D03*
X167643500Y-77973750D03*
X170183500Y-77973750D03*
X172723500Y-77973750D03*
X175263500Y-77973750D03*
X177803500Y-77973750D03*
X180343500Y-77973750D03*
X182883500Y-77973750D03*
D11*
X200015000Y-118707500D03*
X193665000Y-121247500D03*
D10*
X192395000Y-123787500D03*
X202555000Y-123787500D03*
X145405000Y-123787500D03*
X135245000Y-123787500D03*
D11*
X136515000Y-121247500D03*
X142865000Y-118707500D03*
M02*
