G04 #@! TF.GenerationSoftware,KiCad,Pcbnew,(5.1.4-0-10_14)*
G04 #@! TF.CreationDate,2019-12-28T10:04:53+01:00*
G04 #@! TF.ProjectId,tripel,74726970-656c-42e6-9b69-6361645f7063,rev?*
G04 #@! TF.SameCoordinates,Original*
G04 #@! TF.FileFunction,Legend,Top*
G04 #@! TF.FilePolarity,Positive*
%FSLAX46Y46*%
G04 Gerber Fmt 4.6, Leading zero omitted, Abs format (unit mm)*
G04 Created by KiCad (PCBNEW (5.1.4-0-10_14)) date 2019-12-28 10:04:53*
%MOMM*%
%LPD*%
G04 APERTURE LIST*
%ADD10C,0.150000*%
%ADD11C,0.317500*%
%ADD12C,0.381000*%
%ADD13C,0.200000*%
%ADD14C,0.203200*%
G04 APERTURE END LIST*
D10*
X134991666Y-112096130D02*
X134801190Y-112096130D01*
X134705952Y-112143750D01*
X134658333Y-112191369D01*
X134563095Y-112334226D01*
X134515476Y-112524702D01*
X134515476Y-112905654D01*
X134563095Y-113000892D01*
X134610714Y-113048511D01*
X134705952Y-113096130D01*
X134896428Y-113096130D01*
X134991666Y-113048511D01*
X135039285Y-113000892D01*
X135086904Y-112905654D01*
X135086904Y-112667559D01*
X135039285Y-112572321D01*
X134991666Y-112524702D01*
X134896428Y-112477083D01*
X134705952Y-112477083D01*
X134610714Y-112524702D01*
X134563095Y-112572321D01*
X134515476Y-112667559D01*
X135705952Y-112096130D02*
X135801190Y-112096130D01*
X135896428Y-112143750D01*
X135944047Y-112191369D01*
X135991666Y-112286607D01*
X136039285Y-112477083D01*
X136039285Y-112715178D01*
X135991666Y-112905654D01*
X135944047Y-113000892D01*
X135896428Y-113048511D01*
X135801190Y-113096130D01*
X135705952Y-113096130D01*
X135610714Y-113048511D01*
X135563095Y-113000892D01*
X135515476Y-112905654D01*
X135467857Y-112715178D01*
X135467857Y-112477083D01*
X135515476Y-112286607D01*
X135563095Y-112191369D01*
X135610714Y-112143750D01*
X135705952Y-112096130D01*
X136420238Y-113096130D02*
X137182142Y-112096130D01*
X136563095Y-112096130D02*
X136658333Y-112143750D01*
X136705952Y-112238988D01*
X136658333Y-112334226D01*
X136563095Y-112381845D01*
X136467857Y-112334226D01*
X136420238Y-112238988D01*
X136467857Y-112143750D01*
X136563095Y-112096130D01*
X137134523Y-113048511D02*
X137182142Y-112953273D01*
X137134523Y-112858035D01*
X137039285Y-112810416D01*
X136944047Y-112858035D01*
X136896428Y-112953273D01*
X136944047Y-113048511D01*
X137039285Y-113096130D01*
X137134523Y-113048511D01*
X138515476Y-113096130D02*
X138420238Y-113048511D01*
X138372619Y-113000892D01*
X138325000Y-112905654D01*
X138325000Y-112619940D01*
X138372619Y-112524702D01*
X138420238Y-112477083D01*
X138515476Y-112429464D01*
X138658333Y-112429464D01*
X138753571Y-112477083D01*
X138801190Y-112524702D01*
X138848809Y-112619940D01*
X138848809Y-112905654D01*
X138801190Y-113000892D01*
X138753571Y-113048511D01*
X138658333Y-113096130D01*
X138515476Y-113096130D01*
X139277380Y-113096130D02*
X139277380Y-112429464D01*
X139277380Y-112619940D02*
X139325000Y-112524702D01*
X139372619Y-112477083D01*
X139467857Y-112429464D01*
X139563095Y-112429464D01*
X139753571Y-112429464D02*
X140134523Y-112429464D01*
X139896428Y-112096130D02*
X139896428Y-112953273D01*
X139944047Y-113048511D01*
X140039285Y-113096130D01*
X140134523Y-113096130D01*
X140467857Y-113096130D02*
X140467857Y-112096130D01*
X140896428Y-113096130D02*
X140896428Y-112572321D01*
X140848809Y-112477083D01*
X140753571Y-112429464D01*
X140610714Y-112429464D01*
X140515476Y-112477083D01*
X140467857Y-112524702D01*
X141515476Y-113096130D02*
X141420238Y-113048511D01*
X141372619Y-113000892D01*
X141325000Y-112905654D01*
X141325000Y-112619940D01*
X141372619Y-112524702D01*
X141420238Y-112477083D01*
X141515476Y-112429464D01*
X141658333Y-112429464D01*
X141753571Y-112477083D01*
X141801190Y-112524702D01*
X141848809Y-112619940D01*
X141848809Y-112905654D01*
X141801190Y-113000892D01*
X141753571Y-113048511D01*
X141658333Y-113096130D01*
X141515476Y-113096130D01*
X142420238Y-113096130D02*
X142325000Y-113048511D01*
X142277380Y-112953273D01*
X142277380Y-112096130D01*
X142801190Y-113096130D02*
X142801190Y-112429464D01*
X142801190Y-112096130D02*
X142753571Y-112143750D01*
X142801190Y-112191369D01*
X142848809Y-112143750D01*
X142801190Y-112096130D01*
X142801190Y-112191369D01*
X143277380Y-112429464D02*
X143277380Y-113096130D01*
X143277380Y-112524702D02*
X143325000Y-112477083D01*
X143420238Y-112429464D01*
X143563095Y-112429464D01*
X143658333Y-112477083D01*
X143705952Y-112572321D01*
X143705952Y-113096130D01*
X144563095Y-113048511D02*
X144467857Y-113096130D01*
X144277380Y-113096130D01*
X144182142Y-113048511D01*
X144134523Y-112953273D01*
X144134523Y-112572321D01*
X144182142Y-112477083D01*
X144277380Y-112429464D01*
X144467857Y-112429464D01*
X144563095Y-112477083D01*
X144610714Y-112572321D01*
X144610714Y-112667559D01*
X144134523Y-112762797D01*
X145467857Y-113096130D02*
X145467857Y-112572321D01*
X145420238Y-112477083D01*
X145325000Y-112429464D01*
X145134523Y-112429464D01*
X145039285Y-112477083D01*
X145467857Y-113048511D02*
X145372619Y-113096130D01*
X145134523Y-113096130D01*
X145039285Y-113048511D01*
X144991666Y-112953273D01*
X144991666Y-112858035D01*
X145039285Y-112762797D01*
X145134523Y-112715178D01*
X145372619Y-112715178D01*
X145467857Y-112667559D01*
X145944047Y-113096130D02*
X145944047Y-112429464D01*
X145944047Y-112619940D02*
X145991666Y-112524702D01*
X146039285Y-112477083D01*
X146134523Y-112429464D01*
X146229761Y-112429464D01*
X137348809Y-113698511D02*
X136491666Y-114984226D01*
X138110714Y-114079464D02*
X138110714Y-114746130D01*
X137682142Y-114079464D02*
X137682142Y-114603273D01*
X137729761Y-114698511D01*
X137825000Y-114746130D01*
X137967857Y-114746130D01*
X138063095Y-114698511D01*
X138110714Y-114650892D01*
X139301190Y-113698511D02*
X138444047Y-114984226D01*
X139634523Y-114079464D02*
X139634523Y-115079464D01*
X139634523Y-114127083D02*
X139729761Y-114079464D01*
X139920238Y-114079464D01*
X140015476Y-114127083D01*
X140063095Y-114174702D01*
X140110714Y-114269940D01*
X140110714Y-114555654D01*
X140063095Y-114650892D01*
X140015476Y-114698511D01*
X139920238Y-114746130D01*
X139729761Y-114746130D01*
X139634523Y-114698511D01*
X140920238Y-114698511D02*
X140825000Y-114746130D01*
X140634523Y-114746130D01*
X140539285Y-114698511D01*
X140491666Y-114603273D01*
X140491666Y-114222321D01*
X140539285Y-114127083D01*
X140634523Y-114079464D01*
X140825000Y-114079464D01*
X140920238Y-114127083D01*
X140967857Y-114222321D01*
X140967857Y-114317559D01*
X140491666Y-114412797D01*
X141777380Y-114698511D02*
X141682142Y-114746130D01*
X141491666Y-114746130D01*
X141396428Y-114698511D01*
X141348809Y-114603273D01*
X141348809Y-114222321D01*
X141396428Y-114127083D01*
X141491666Y-114079464D01*
X141682142Y-114079464D01*
X141777380Y-114127083D01*
X141825000Y-114222321D01*
X141825000Y-114317559D01*
X141348809Y-114412797D01*
X142253571Y-114079464D02*
X142253571Y-114936607D01*
X142205952Y-115031845D01*
X142110714Y-115079464D01*
X142063095Y-115079464D01*
X142253571Y-113746130D02*
X142205952Y-113793750D01*
X142253571Y-113841369D01*
X142301190Y-113793750D01*
X142253571Y-113746130D01*
X142253571Y-113841369D01*
X143110714Y-114698511D02*
X143015476Y-114746130D01*
X142825000Y-114746130D01*
X142729761Y-114698511D01*
X142682142Y-114603273D01*
X142682142Y-114222321D01*
X142729761Y-114127083D01*
X142825000Y-114079464D01*
X143015476Y-114079464D01*
X143110714Y-114127083D01*
X143158333Y-114222321D01*
X143158333Y-114317559D01*
X142682142Y-114412797D01*
X143586904Y-114746130D02*
X143586904Y-113746130D01*
X144015476Y-114746130D02*
X144015476Y-114222321D01*
X143967857Y-114127083D01*
X143872619Y-114079464D01*
X143729761Y-114079464D01*
X143634523Y-114127083D01*
X143586904Y-114174702D01*
X200047095Y-130859880D02*
X200713761Y-130859880D01*
X200285190Y-131859880D01*
X201523285Y-131193214D02*
X201523285Y-131859880D01*
X201094714Y-131193214D02*
X201094714Y-131717023D01*
X201142333Y-131812261D01*
X201237571Y-131859880D01*
X201380428Y-131859880D01*
X201475666Y-131812261D01*
X201523285Y-131764642D01*
X202713761Y-131812261D02*
X202809000Y-131859880D01*
X202999476Y-131859880D01*
X203094714Y-131812261D01*
X203142333Y-131717023D01*
X203142333Y-131669404D01*
X203094714Y-131574166D01*
X202999476Y-131526547D01*
X202856619Y-131526547D01*
X202761380Y-131478928D01*
X202713761Y-131383690D01*
X202713761Y-131336071D01*
X202761380Y-131240833D01*
X202856619Y-131193214D01*
X202999476Y-131193214D01*
X203094714Y-131240833D01*
X203428047Y-131193214D02*
X203809000Y-131193214D01*
X203570904Y-130859880D02*
X203570904Y-131717023D01*
X203618523Y-131812261D01*
X203713761Y-131859880D01*
X203809000Y-131859880D01*
X204570904Y-131859880D02*
X204570904Y-131336071D01*
X204523285Y-131240833D01*
X204428047Y-131193214D01*
X204237571Y-131193214D01*
X204142333Y-131240833D01*
X204570904Y-131812261D02*
X204475666Y-131859880D01*
X204237571Y-131859880D01*
X204142333Y-131812261D01*
X204094714Y-131717023D01*
X204094714Y-131621785D01*
X204142333Y-131526547D01*
X204237571Y-131478928D01*
X204475666Y-131478928D01*
X204570904Y-131431309D01*
X205047095Y-131859880D02*
X205047095Y-130859880D01*
X205047095Y-131240833D02*
X205142333Y-131193214D01*
X205332809Y-131193214D01*
X205428047Y-131240833D01*
X205475666Y-131288452D01*
X205523285Y-131383690D01*
X205523285Y-131669404D01*
X205475666Y-131764642D01*
X205428047Y-131812261D01*
X205332809Y-131859880D01*
X205142333Y-131859880D01*
X205047095Y-131812261D01*
X182322619Y-116699255D02*
X182322619Y-116032589D01*
X182322619Y-116223065D02*
X182370238Y-116127827D01*
X182417857Y-116080208D01*
X182513095Y-116032589D01*
X182608333Y-116032589D01*
X183322619Y-116651636D02*
X183227380Y-116699255D01*
X183036904Y-116699255D01*
X182941666Y-116651636D01*
X182894047Y-116556398D01*
X182894047Y-116175446D01*
X182941666Y-116080208D01*
X183036904Y-116032589D01*
X183227380Y-116032589D01*
X183322619Y-116080208D01*
X183370238Y-116175446D01*
X183370238Y-116270684D01*
X182894047Y-116365922D01*
X183703571Y-116032589D02*
X183941666Y-116699255D01*
X184179761Y-116032589D01*
X185275000Y-115794494D02*
X185322619Y-115746875D01*
X185417857Y-115699255D01*
X185655952Y-115699255D01*
X185751190Y-115746875D01*
X185798809Y-115794494D01*
X185846428Y-115889732D01*
X185846428Y-115984970D01*
X185798809Y-116127827D01*
X185227380Y-116699255D01*
X185846428Y-116699255D01*
X186275000Y-116604017D02*
X186322619Y-116651636D01*
X186275000Y-116699255D01*
X186227380Y-116651636D01*
X186275000Y-116604017D01*
X186275000Y-116699255D01*
X187179761Y-116032589D02*
X187179761Y-116699255D01*
X186941666Y-115651636D02*
X186703571Y-116365922D01*
X187322619Y-116365922D01*
D11*
X173678869Y-114754761D02*
X174821726Y-114754761D01*
X174250297Y-116754761D02*
X174250297Y-114754761D01*
X175488392Y-116754761D02*
X175488392Y-115421428D01*
X175488392Y-115802380D02*
X175583630Y-115611904D01*
X175678869Y-115516666D01*
X175869345Y-115421428D01*
X176059821Y-115421428D01*
X176726488Y-116754761D02*
X176726488Y-115421428D01*
X176726488Y-114754761D02*
X176631250Y-114850000D01*
X176726488Y-114945238D01*
X176821726Y-114850000D01*
X176726488Y-114754761D01*
X176726488Y-114945238D01*
X177678869Y-115421428D02*
X177678869Y-117421428D01*
X177678869Y-115516666D02*
X177869345Y-115421428D01*
X178250297Y-115421428D01*
X178440773Y-115516666D01*
X178536011Y-115611904D01*
X178631250Y-115802380D01*
X178631250Y-116373809D01*
X178536011Y-116564285D01*
X178440773Y-116659523D01*
X178250297Y-116754761D01*
X177869345Y-116754761D01*
X177678869Y-116659523D01*
X180250297Y-116659523D02*
X180059821Y-116754761D01*
X179678869Y-116754761D01*
X179488392Y-116659523D01*
X179393154Y-116469047D01*
X179393154Y-115707142D01*
X179488392Y-115516666D01*
X179678869Y-115421428D01*
X180059821Y-115421428D01*
X180250297Y-115516666D01*
X180345535Y-115707142D01*
X180345535Y-115897619D01*
X179393154Y-116088095D01*
X181488392Y-116754761D02*
X181297916Y-116659523D01*
X181202678Y-116469047D01*
X181202678Y-114754761D01*
D12*
X191087500Y-81115500D02*
X191087500Y-79337500D01*
X191087500Y-92037500D02*
X191087500Y-90259500D01*
X192865500Y-92037500D02*
X191087500Y-92037500D01*
X203787500Y-92037500D02*
X202009500Y-92037500D01*
X203787500Y-90259500D02*
X203787500Y-92037500D01*
X203787500Y-79337500D02*
X203787500Y-81115500D01*
X202009500Y-79337500D02*
X203787500Y-79337500D01*
X191087500Y-79337500D02*
X192865500Y-79337500D01*
X114962500Y-43053000D02*
X114962500Y-41275000D01*
X114962500Y-53975000D02*
X114962500Y-52197000D01*
X116740500Y-53975000D02*
X114962500Y-53975000D01*
X127662500Y-53975000D02*
X125884500Y-53975000D01*
X127662500Y-52197000D02*
X127662500Y-53975000D01*
X127662500Y-41275000D02*
X127662500Y-43053000D01*
X125884500Y-41275000D02*
X127662500Y-41275000D01*
X114962500Y-41275000D02*
X116740500Y-41275000D01*
D13*
X169287500Y-68912500D02*
X171687500Y-68912500D01*
X169287500Y-69087500D02*
X171687500Y-69087500D01*
X169287500Y-69262500D02*
X171687500Y-69262500D01*
X171687500Y-69662500D02*
X169287500Y-69662500D01*
X169287500Y-69437500D02*
X171687500Y-69437500D01*
X169287500Y-69562500D02*
X171687500Y-69562500D01*
X169287500Y-69637500D02*
X169287500Y-63837500D01*
X169287500Y-63837500D02*
X171687500Y-63837500D01*
X171687500Y-63837500D02*
X171687500Y-69637500D01*
D12*
X176837500Y-60287500D02*
X178615500Y-60287500D01*
X187759500Y-60287500D02*
X189537500Y-60287500D01*
X189537500Y-60287500D02*
X189537500Y-62065500D01*
X189537500Y-71209500D02*
X189537500Y-72987500D01*
X189537500Y-72987500D02*
X187759500Y-72987500D01*
X178615500Y-72987500D02*
X176837500Y-72987500D01*
X176837500Y-72987500D02*
X176837500Y-71209500D01*
X176837500Y-62065500D02*
X176837500Y-60287500D01*
X191087500Y-43015500D02*
X191087500Y-41237500D01*
X191087500Y-53937500D02*
X191087500Y-52159500D01*
X192865500Y-53937500D02*
X191087500Y-53937500D01*
X203787500Y-53937500D02*
X202009500Y-53937500D01*
X203787500Y-52159500D02*
X203787500Y-53937500D01*
X203787500Y-41237500D02*
X203787500Y-43015500D01*
X202009500Y-41237500D02*
X203787500Y-41237500D01*
X191087500Y-41237500D02*
X192865500Y-41237500D01*
X146693750Y-52197000D02*
X146693750Y-53975000D01*
X146693750Y-41275000D02*
X146693750Y-43053000D01*
X144915750Y-41275000D02*
X146693750Y-41275000D01*
X133993750Y-41275000D02*
X135771750Y-41275000D01*
X133993750Y-43053000D02*
X133993750Y-41275000D01*
X133993750Y-53975000D02*
X133993750Y-52197000D01*
X135771750Y-53975000D02*
X133993750Y-53975000D01*
X146693750Y-53975000D02*
X144915750Y-53975000D01*
X133993750Y-62084250D02*
X133993750Y-60306250D01*
X133993750Y-73006250D02*
X133993750Y-71228250D01*
X135771750Y-73006250D02*
X133993750Y-73006250D01*
X146693750Y-73006250D02*
X144915750Y-73006250D01*
X146693750Y-71228250D02*
X146693750Y-73006250D01*
X146693750Y-60306250D02*
X146693750Y-62084250D01*
X144915750Y-60306250D02*
X146693750Y-60306250D01*
X133993750Y-60306250D02*
X135771750Y-60306250D01*
X114962500Y-62084250D02*
X114962500Y-60306250D01*
X114962500Y-73006250D02*
X114962500Y-71228250D01*
X116740500Y-73006250D02*
X114962500Y-73006250D01*
X127662500Y-73006250D02*
X125884500Y-73006250D01*
X127662500Y-71228250D02*
X127662500Y-73006250D01*
X127662500Y-60306250D02*
X127662500Y-62084250D01*
X125884500Y-60306250D02*
X127662500Y-60306250D01*
X114962500Y-60306250D02*
X116740500Y-60306250D01*
X114925000Y-119215500D02*
X114925000Y-117437500D01*
X114925000Y-130137500D02*
X114925000Y-128359500D01*
X116703000Y-130137500D02*
X114925000Y-130137500D01*
X127625000Y-130137500D02*
X125847000Y-130137500D01*
X127625000Y-128359500D02*
X127625000Y-130137500D01*
X127625000Y-117437500D02*
X127625000Y-119215500D01*
X125847000Y-117437500D02*
X127625000Y-117437500D01*
X114925000Y-117437500D02*
X116703000Y-117437500D01*
X138737500Y-119215500D02*
X138737500Y-117437500D01*
X138737500Y-130137500D02*
X138737500Y-128359500D01*
X140515500Y-130137500D02*
X138737500Y-130137500D01*
X151437500Y-130137500D02*
X149659500Y-130137500D01*
X151437500Y-128359500D02*
X151437500Y-130137500D01*
X151437500Y-117437500D02*
X151437500Y-119215500D01*
X149659500Y-117437500D02*
X151437500Y-117437500D01*
X138737500Y-117437500D02*
X140515500Y-117437500D01*
X186362500Y-119215500D02*
X186362500Y-117437500D01*
X186362500Y-130137500D02*
X186362500Y-128359500D01*
X188140500Y-130137500D02*
X186362500Y-130137500D01*
X199062500Y-130137500D02*
X197284500Y-130137500D01*
X199062500Y-128359500D02*
X199062500Y-130137500D01*
X199062500Y-117437500D02*
X199062500Y-119215500D01*
X197284500Y-117437500D02*
X199062500Y-117437500D01*
X186362500Y-117437500D02*
X188140500Y-117437500D01*
X119687500Y-119215500D02*
X119687500Y-117437500D01*
X119687500Y-130137500D02*
X119687500Y-128359500D01*
X121465500Y-130137500D02*
X119687500Y-130137500D01*
X132387500Y-130137500D02*
X130609500Y-130137500D01*
X132387500Y-128359500D02*
X132387500Y-130137500D01*
X132387500Y-117437500D02*
X132387500Y-119215500D01*
X130609500Y-117437500D02*
X132387500Y-117437500D01*
X119687500Y-117437500D02*
X121465500Y-117437500D01*
X167312500Y-119215500D02*
X167312500Y-117437500D01*
X167312500Y-130137500D02*
X167312500Y-128359500D01*
X169090500Y-130137500D02*
X167312500Y-130137500D01*
X180012500Y-130137500D02*
X178234500Y-130137500D01*
X180012500Y-128359500D02*
X180012500Y-130137500D01*
X180012500Y-117437500D02*
X180012500Y-119215500D01*
X178234500Y-117437500D02*
X180012500Y-117437500D01*
X167312500Y-117437500D02*
X169090500Y-117437500D01*
X172075000Y-119215500D02*
X172075000Y-117437500D01*
X172075000Y-130137500D02*
X172075000Y-128359500D01*
X173853000Y-130137500D02*
X172075000Y-130137500D01*
X184775000Y-130137500D02*
X182997000Y-130137500D01*
X184775000Y-128359500D02*
X184775000Y-130137500D01*
X184775000Y-117437500D02*
X184775000Y-119215500D01*
X182997000Y-117437500D02*
X184775000Y-117437500D01*
X172075000Y-117437500D02*
X173853000Y-117437500D01*
X172056250Y-43015500D02*
X172056250Y-41237500D01*
X172056250Y-53937500D02*
X172056250Y-52159500D01*
X173834250Y-53937500D02*
X172056250Y-53937500D01*
X184756250Y-53937500D02*
X182978250Y-53937500D01*
X184756250Y-52159500D02*
X184756250Y-53937500D01*
X184756250Y-41237500D02*
X184756250Y-43015500D01*
X182978250Y-41237500D02*
X184756250Y-41237500D01*
X172056250Y-41237500D02*
X173834250Y-41237500D01*
X153025000Y-43053000D02*
X153025000Y-41275000D01*
X153025000Y-53975000D02*
X153025000Y-52197000D01*
X154803000Y-53975000D02*
X153025000Y-53975000D01*
X165725000Y-53975000D02*
X163947000Y-53975000D01*
X165725000Y-52197000D02*
X165725000Y-53975000D01*
X165725000Y-41275000D02*
X165725000Y-43053000D01*
X163947000Y-41275000D02*
X165725000Y-41275000D01*
X153025000Y-41275000D02*
X154803000Y-41275000D01*
X191087500Y-62084250D02*
X191087500Y-60306250D01*
X191087500Y-73006250D02*
X191087500Y-71228250D01*
X192865500Y-73006250D02*
X191087500Y-73006250D01*
X203787500Y-73006250D02*
X202009500Y-73006250D01*
X203787500Y-71228250D02*
X203787500Y-73006250D01*
X203787500Y-60306250D02*
X203787500Y-62084250D01*
X202009500Y-60306250D02*
X203787500Y-60306250D01*
X191087500Y-60306250D02*
X192865500Y-60306250D01*
X172056250Y-62084250D02*
X172056250Y-60306250D01*
X172056250Y-73006250D02*
X172056250Y-71228250D01*
X173834250Y-73006250D02*
X172056250Y-73006250D01*
X184756250Y-73006250D02*
X182978250Y-73006250D01*
X184756250Y-71228250D02*
X184756250Y-73006250D01*
X184756250Y-60306250D02*
X184756250Y-62084250D01*
X182978250Y-60306250D02*
X184756250Y-60306250D01*
X172056250Y-60306250D02*
X173834250Y-60306250D01*
X153025000Y-62084250D02*
X153025000Y-60306250D01*
X153025000Y-73006250D02*
X153025000Y-71228250D01*
X154803000Y-73006250D02*
X153025000Y-73006250D01*
X165725000Y-73006250D02*
X163947000Y-73006250D01*
X165725000Y-71228250D02*
X165725000Y-73006250D01*
X165725000Y-60306250D02*
X165725000Y-62084250D01*
X163947000Y-60306250D02*
X165725000Y-60306250D01*
X153025000Y-60306250D02*
X154803000Y-60306250D01*
X172056250Y-81115500D02*
X172056250Y-79337500D01*
X172056250Y-92037500D02*
X172056250Y-90259500D01*
X173834250Y-92037500D02*
X172056250Y-92037500D01*
X184756250Y-92037500D02*
X182978250Y-92037500D01*
X184756250Y-90259500D02*
X184756250Y-92037500D01*
X184756250Y-79337500D02*
X184756250Y-81115500D01*
X182978250Y-79337500D02*
X184756250Y-79337500D01*
X172056250Y-79337500D02*
X173834250Y-79337500D01*
X114962500Y-81115500D02*
X114962500Y-79337500D01*
X114962500Y-92037500D02*
X114962500Y-90259500D01*
X116740500Y-92037500D02*
X114962500Y-92037500D01*
X127662500Y-92037500D02*
X125884500Y-92037500D01*
X127662500Y-90259500D02*
X127662500Y-92037500D01*
X127662500Y-79337500D02*
X127662500Y-81115500D01*
X125884500Y-79337500D02*
X127662500Y-79337500D01*
X114962500Y-79337500D02*
X116740500Y-79337500D01*
X133993750Y-81115500D02*
X133993750Y-79337500D01*
X133993750Y-92037500D02*
X133993750Y-90259500D01*
X135771750Y-92037500D02*
X133993750Y-92037500D01*
X146693750Y-92037500D02*
X144915750Y-92037500D01*
X146693750Y-90259500D02*
X146693750Y-92037500D01*
X146693750Y-79337500D02*
X146693750Y-81115500D01*
X144915750Y-79337500D02*
X146693750Y-79337500D01*
X133993750Y-79337500D02*
X135771750Y-79337500D01*
X153025000Y-81115500D02*
X153025000Y-79337500D01*
X153025000Y-92037500D02*
X153025000Y-90259500D01*
X154803000Y-92037500D02*
X153025000Y-92037500D01*
X165725000Y-92037500D02*
X163947000Y-92037500D01*
X165725000Y-90259500D02*
X165725000Y-92037500D01*
X165725000Y-79337500D02*
X165725000Y-81115500D01*
X163947000Y-79337500D02*
X165725000Y-79337500D01*
X153025000Y-79337500D02*
X154803000Y-79337500D01*
X133993750Y-100146750D02*
X133993750Y-98368750D01*
X133993750Y-111068750D02*
X133993750Y-109290750D01*
X135771750Y-111068750D02*
X133993750Y-111068750D01*
X146693750Y-111068750D02*
X144915750Y-111068750D01*
X146693750Y-109290750D02*
X146693750Y-111068750D01*
X146693750Y-98368750D02*
X146693750Y-100146750D01*
X144915750Y-98368750D02*
X146693750Y-98368750D01*
X133993750Y-98368750D02*
X135771750Y-98368750D01*
X114925000Y-100165500D02*
X114925000Y-98387500D01*
X114925000Y-111087500D02*
X114925000Y-109309500D01*
X116703000Y-111087500D02*
X114925000Y-111087500D01*
X127625000Y-111087500D02*
X125847000Y-111087500D01*
X127625000Y-109309500D02*
X127625000Y-111087500D01*
X127625000Y-98387500D02*
X127625000Y-100165500D01*
X125847000Y-98387500D02*
X127625000Y-98387500D01*
X114925000Y-98387500D02*
X116703000Y-98387500D01*
X172056250Y-100146750D02*
X172056250Y-98368750D01*
X172056250Y-111068750D02*
X172056250Y-109290750D01*
X173834250Y-111068750D02*
X172056250Y-111068750D01*
X184756250Y-111068750D02*
X182978250Y-111068750D01*
X184756250Y-109290750D02*
X184756250Y-111068750D01*
X184756250Y-98368750D02*
X184756250Y-100146750D01*
X182978250Y-98368750D02*
X184756250Y-98368750D01*
X172056250Y-98368750D02*
X173834250Y-98368750D01*
X153025000Y-100146750D02*
X153025000Y-98368750D01*
X153025000Y-111068750D02*
X153025000Y-109290750D01*
X154803000Y-111068750D02*
X153025000Y-111068750D01*
X165725000Y-111068750D02*
X163947000Y-111068750D01*
X165725000Y-109290750D02*
X165725000Y-111068750D01*
X165725000Y-98368750D02*
X165725000Y-100146750D01*
X163947000Y-98368750D02*
X165725000Y-98368750D01*
X153025000Y-98368750D02*
X154803000Y-98368750D01*
X191087500Y-100146750D02*
X191087500Y-98368750D01*
X191087500Y-111068750D02*
X191087500Y-109290750D01*
X192865500Y-111068750D02*
X191087500Y-111068750D01*
X203787500Y-111068750D02*
X202009500Y-111068750D01*
X203787500Y-109290750D02*
X203787500Y-111068750D01*
X203787500Y-98368750D02*
X203787500Y-100146750D01*
X202009500Y-98368750D02*
X203787500Y-98368750D01*
X191087500Y-98368750D02*
X192865500Y-98368750D01*
X143500000Y-119215500D02*
X143500000Y-117437500D01*
X143500000Y-130137500D02*
X143500000Y-128359500D01*
X145278000Y-130137500D02*
X143500000Y-130137500D01*
X156200000Y-130137500D02*
X154422000Y-130137500D01*
X156200000Y-128359500D02*
X156200000Y-130137500D01*
X156200000Y-117437500D02*
X156200000Y-119215500D01*
X154422000Y-117437500D02*
X156200000Y-117437500D01*
X143500000Y-117437500D02*
X145278000Y-117437500D01*
X162550000Y-119215500D02*
X162550000Y-117437500D01*
X162550000Y-130137500D02*
X162550000Y-128359500D01*
X164328000Y-130137500D02*
X162550000Y-130137500D01*
X175250000Y-130137500D02*
X173472000Y-130137500D01*
X175250000Y-128359500D02*
X175250000Y-130137500D01*
X175250000Y-117437500D02*
X175250000Y-119215500D01*
X173472000Y-117437500D02*
X175250000Y-117437500D01*
X162550000Y-117437500D02*
X164328000Y-117437500D01*
D13*
X161650000Y-117050000D02*
X161650000Y-114650000D01*
X161825000Y-117050000D02*
X161825000Y-114650000D01*
X162000000Y-117050000D02*
X162000000Y-114650000D01*
X162400000Y-114650000D02*
X162400000Y-117050000D01*
X162175000Y-117050000D02*
X162175000Y-114650000D01*
X162300000Y-117050000D02*
X162300000Y-114650000D01*
X162375000Y-117050000D02*
X156575000Y-117050000D01*
X156575000Y-117050000D02*
X156575000Y-114650000D01*
X156575000Y-114650000D02*
X162375000Y-114650000D01*
X150237500Y-49900000D02*
X152637500Y-49900000D01*
X150237500Y-50075000D02*
X152637500Y-50075000D01*
X150237500Y-50250000D02*
X152637500Y-50250000D01*
X152637500Y-50650000D02*
X150237500Y-50650000D01*
X150237500Y-50425000D02*
X152637500Y-50425000D01*
X150237500Y-50550000D02*
X152637500Y-50550000D01*
X150237500Y-50625000D02*
X150237500Y-44825000D01*
X150237500Y-44825000D02*
X152637500Y-44825000D01*
X152637500Y-44825000D02*
X152637500Y-50625000D01*
X123550000Y-59900000D02*
X123550000Y-57500000D01*
X123725000Y-59900000D02*
X123725000Y-57500000D01*
X123900000Y-59900000D02*
X123900000Y-57500000D01*
X124300000Y-57500000D02*
X124300000Y-59900000D01*
X124075000Y-59900000D02*
X124075000Y-57500000D01*
X124200000Y-59900000D02*
X124200000Y-57500000D01*
X124275000Y-59900000D02*
X118475000Y-59900000D01*
X118475000Y-59900000D02*
X118475000Y-57500000D01*
X118475000Y-57500000D02*
X124275000Y-57500000D01*
X185150000Y-54325000D02*
X190950000Y-54325000D01*
X185150000Y-56725000D02*
X185150000Y-54325000D01*
X190950000Y-56725000D02*
X185150000Y-56725000D01*
X190875000Y-56725000D02*
X190875000Y-54325000D01*
X190750000Y-56725000D02*
X190750000Y-54325000D01*
X190975000Y-54325000D02*
X190975000Y-56725000D01*
X190575000Y-56725000D02*
X190575000Y-54325000D01*
X190400000Y-56725000D02*
X190400000Y-54325000D01*
X190225000Y-56725000D02*
X190225000Y-54325000D01*
X187575000Y-82887500D02*
X187575000Y-88687500D01*
X185175000Y-82887500D02*
X187575000Y-82887500D01*
X185175000Y-88687500D02*
X185175000Y-82887500D01*
X185175000Y-88612500D02*
X187575000Y-88612500D01*
X185175000Y-88487500D02*
X187575000Y-88487500D01*
X187575000Y-88712500D02*
X185175000Y-88712500D01*
X185175000Y-88312500D02*
X187575000Y-88312500D01*
X185175000Y-88137500D02*
X187575000Y-88137500D01*
X185175000Y-87962500D02*
X187575000Y-87962500D01*
X133075000Y-98000000D02*
X133075000Y-95600000D01*
X133250000Y-98000000D02*
X133250000Y-95600000D01*
X133425000Y-98000000D02*
X133425000Y-95600000D01*
X133825000Y-95600000D02*
X133825000Y-98000000D01*
X133600000Y-98000000D02*
X133600000Y-95600000D01*
X133725000Y-98000000D02*
X133725000Y-95600000D01*
X133800000Y-98000000D02*
X128000000Y-98000000D01*
X128000000Y-98000000D02*
X128000000Y-95600000D01*
X128000000Y-95600000D02*
X133800000Y-95600000D01*
X123550000Y-78950000D02*
X123550000Y-76550000D01*
X123725000Y-78950000D02*
X123725000Y-76550000D01*
X123900000Y-78950000D02*
X123900000Y-76550000D01*
X124300000Y-76550000D02*
X124300000Y-78950000D01*
X124075000Y-78950000D02*
X124075000Y-76550000D01*
X124200000Y-78950000D02*
X124200000Y-76550000D01*
X124275000Y-78950000D02*
X118475000Y-78950000D01*
X118475000Y-78950000D02*
X118475000Y-76550000D01*
X118475000Y-76550000D02*
X124275000Y-76550000D01*
X147062500Y-49900000D02*
X149462500Y-49900000D01*
X147062500Y-50075000D02*
X149462500Y-50075000D01*
X147062500Y-50250000D02*
X149462500Y-50250000D01*
X149462500Y-50650000D02*
X147062500Y-50650000D01*
X147062500Y-50425000D02*
X149462500Y-50425000D01*
X147062500Y-50550000D02*
X149462500Y-50550000D01*
X147062500Y-50625000D02*
X147062500Y-44825000D01*
X147062500Y-44825000D02*
X149462500Y-44825000D01*
X149462500Y-44825000D02*
X149462500Y-50625000D01*
X187562500Y-101937500D02*
X187562500Y-107737500D01*
X185162500Y-101937500D02*
X187562500Y-101937500D01*
X185162500Y-107737500D02*
X185162500Y-101937500D01*
X185162500Y-107662500D02*
X187562500Y-107662500D01*
X185162500Y-107537500D02*
X187562500Y-107537500D01*
X187562500Y-107762500D02*
X185162500Y-107762500D01*
X185162500Y-107362500D02*
X187562500Y-107362500D01*
X185162500Y-107187500D02*
X187562500Y-107187500D01*
X185162500Y-107012500D02*
X187562500Y-107012500D01*
X128000000Y-92425000D02*
X133800000Y-92425000D01*
X128000000Y-94825000D02*
X128000000Y-92425000D01*
X133800000Y-94825000D02*
X128000000Y-94825000D01*
X133725000Y-94825000D02*
X133725000Y-92425000D01*
X133600000Y-94825000D02*
X133600000Y-92425000D01*
X133825000Y-92425000D02*
X133825000Y-94825000D01*
X133425000Y-94825000D02*
X133425000Y-92425000D01*
X133250000Y-94825000D02*
X133250000Y-92425000D01*
X133075000Y-94825000D02*
X133075000Y-92425000D01*
X149462500Y-63837500D02*
X149462500Y-69637500D01*
X147062500Y-63837500D02*
X149462500Y-63837500D01*
X147062500Y-69637500D02*
X147062500Y-63837500D01*
X147062500Y-69562500D02*
X149462500Y-69562500D01*
X147062500Y-69437500D02*
X149462500Y-69437500D01*
X149462500Y-69662500D02*
X147062500Y-69662500D01*
X147062500Y-69262500D02*
X149462500Y-69262500D01*
X147062500Y-69087500D02*
X149462500Y-69087500D01*
X147062500Y-68912500D02*
X149462500Y-68912500D01*
X137525000Y-76550000D02*
X143325000Y-76550000D01*
X137525000Y-78950000D02*
X137525000Y-76550000D01*
X143325000Y-78950000D02*
X137525000Y-78950000D01*
X143250000Y-78950000D02*
X143250000Y-76550000D01*
X143125000Y-78950000D02*
X143125000Y-76550000D01*
X143350000Y-76550000D02*
X143350000Y-78950000D01*
X142950000Y-78950000D02*
X142950000Y-76550000D01*
X142775000Y-78950000D02*
X142775000Y-76550000D01*
X142600000Y-78950000D02*
X142600000Y-76550000D01*
X190668750Y-82887500D02*
X190668750Y-88687500D01*
X188268750Y-82887500D02*
X190668750Y-82887500D01*
X188268750Y-88687500D02*
X188268750Y-82887500D01*
X188268750Y-88612500D02*
X190668750Y-88612500D01*
X188268750Y-88487500D02*
X190668750Y-88487500D01*
X190668750Y-88712500D02*
X188268750Y-88712500D01*
X188268750Y-88312500D02*
X190668750Y-88312500D01*
X188268750Y-88137500D02*
X190668750Y-88137500D01*
X188268750Y-87962500D02*
X190668750Y-87962500D01*
X149462500Y-101937500D02*
X149462500Y-107737500D01*
X147062500Y-101937500D02*
X149462500Y-101937500D01*
X147062500Y-107737500D02*
X147062500Y-101937500D01*
X147062500Y-107662500D02*
X149462500Y-107662500D01*
X147062500Y-107537500D02*
X149462500Y-107537500D01*
X149462500Y-107762500D02*
X147062500Y-107762500D01*
X147062500Y-107362500D02*
X149462500Y-107362500D01*
X147062500Y-107187500D02*
X149462500Y-107187500D01*
X147062500Y-107012500D02*
X149462500Y-107012500D01*
X128000000Y-114650000D02*
X133800000Y-114650000D01*
X128000000Y-117050000D02*
X128000000Y-114650000D01*
X133800000Y-117050000D02*
X128000000Y-117050000D01*
X133725000Y-117050000D02*
X133725000Y-114650000D01*
X133600000Y-117050000D02*
X133600000Y-114650000D01*
X133825000Y-114650000D02*
X133825000Y-117050000D01*
X133425000Y-117050000D02*
X133425000Y-114650000D01*
X133250000Y-117050000D02*
X133250000Y-114650000D01*
X133075000Y-117050000D02*
X133075000Y-114650000D01*
X168840000Y-44825000D02*
X168840000Y-50625000D01*
X166440000Y-44825000D02*
X168840000Y-44825000D01*
X166440000Y-50625000D02*
X166440000Y-44825000D01*
X166440000Y-50550000D02*
X168840000Y-50550000D01*
X166440000Y-50425000D02*
X168840000Y-50425000D01*
X168840000Y-50650000D02*
X166440000Y-50650000D01*
X166440000Y-50250000D02*
X168840000Y-50250000D01*
X166440000Y-50075000D02*
X168840000Y-50075000D01*
X166440000Y-49900000D02*
X168840000Y-49900000D01*
X150237500Y-68912500D02*
X152637500Y-68912500D01*
X150237500Y-69087500D02*
X152637500Y-69087500D01*
X150237500Y-69262500D02*
X152637500Y-69262500D01*
X152637500Y-69662500D02*
X150237500Y-69662500D01*
X150237500Y-69437500D02*
X152637500Y-69437500D01*
X150237500Y-69562500D02*
X152637500Y-69562500D01*
X150237500Y-69637500D02*
X150237500Y-63837500D01*
X150237500Y-63837500D02*
X152637500Y-63837500D01*
X152637500Y-63837500D02*
X152637500Y-69637500D01*
X188175000Y-106993750D02*
X190575000Y-106993750D01*
X188175000Y-107168750D02*
X190575000Y-107168750D01*
X188175000Y-107343750D02*
X190575000Y-107343750D01*
X190575000Y-107743750D02*
X188175000Y-107743750D01*
X188175000Y-107518750D02*
X190575000Y-107518750D01*
X188175000Y-107643750D02*
X190575000Y-107643750D01*
X188175000Y-107718750D02*
X188175000Y-101918750D01*
X188175000Y-101918750D02*
X190575000Y-101918750D01*
X190575000Y-101918750D02*
X190575000Y-107718750D01*
X147062500Y-87962500D02*
X149462500Y-87962500D01*
X147062500Y-88137500D02*
X149462500Y-88137500D01*
X147062500Y-88312500D02*
X149462500Y-88312500D01*
X149462500Y-88712500D02*
X147062500Y-88712500D01*
X147062500Y-88487500D02*
X149462500Y-88487500D01*
X147062500Y-88612500D02*
X149462500Y-88612500D01*
X147062500Y-88687500D02*
X147062500Y-82887500D01*
X147062500Y-82887500D02*
X149462500Y-82887500D01*
X149462500Y-82887500D02*
X149462500Y-88687500D01*
X150237500Y-87962500D02*
X152637500Y-87962500D01*
X150237500Y-88137500D02*
X152637500Y-88137500D01*
X150237500Y-88312500D02*
X152637500Y-88312500D01*
X152637500Y-88712500D02*
X150237500Y-88712500D01*
X150237500Y-88487500D02*
X152637500Y-88487500D01*
X150237500Y-88612500D02*
X152637500Y-88612500D01*
X150237500Y-88687500D02*
X150237500Y-82887500D01*
X150237500Y-82887500D02*
X152637500Y-82887500D01*
X152637500Y-82887500D02*
X152637500Y-88687500D01*
X169143750Y-49900000D02*
X171543750Y-49900000D01*
X169143750Y-50075000D02*
X171543750Y-50075000D01*
X169143750Y-50250000D02*
X171543750Y-50250000D01*
X171543750Y-50650000D02*
X169143750Y-50650000D01*
X169143750Y-50425000D02*
X171543750Y-50425000D01*
X169143750Y-50550000D02*
X171543750Y-50550000D01*
X169143750Y-50625000D02*
X169143750Y-44825000D01*
X169143750Y-44825000D02*
X171543750Y-44825000D01*
X171543750Y-44825000D02*
X171543750Y-50625000D01*
X166112500Y-68912500D02*
X168512500Y-68912500D01*
X166112500Y-69087500D02*
X168512500Y-69087500D01*
X166112500Y-69262500D02*
X168512500Y-69262500D01*
X168512500Y-69662500D02*
X166112500Y-69662500D01*
X166112500Y-69437500D02*
X168512500Y-69437500D01*
X166112500Y-69562500D02*
X168512500Y-69562500D01*
X166112500Y-69637500D02*
X166112500Y-63837500D01*
X166112500Y-63837500D02*
X168512500Y-63837500D01*
X168512500Y-63837500D02*
X168512500Y-69637500D01*
X152637500Y-101937500D02*
X152637500Y-107737500D01*
X150237500Y-101937500D02*
X152637500Y-101937500D01*
X150237500Y-107737500D02*
X150237500Y-101937500D01*
X150237500Y-107662500D02*
X152637500Y-107662500D01*
X150237500Y-107537500D02*
X152637500Y-107537500D01*
X152637500Y-107762500D02*
X150237500Y-107762500D01*
X150237500Y-107362500D02*
X152637500Y-107362500D01*
X150237500Y-107187500D02*
X152637500Y-107187500D01*
X150237500Y-107012500D02*
X152637500Y-107012500D01*
D12*
X191125000Y-117437500D02*
X192903000Y-117437500D01*
X202047000Y-117437500D02*
X203825000Y-117437500D01*
X203825000Y-117437500D02*
X203825000Y-119215500D01*
X203825000Y-128359500D02*
X203825000Y-130137500D01*
X203825000Y-130137500D02*
X202047000Y-130137500D01*
X192903000Y-130137500D02*
X191125000Y-130137500D01*
X191125000Y-130137500D02*
X191125000Y-128359500D01*
X191125000Y-119215500D02*
X191125000Y-117437500D01*
X133975000Y-119215500D02*
X133975000Y-117437500D01*
X133975000Y-130137500D02*
X133975000Y-128359500D01*
X135753000Y-130137500D02*
X133975000Y-130137500D01*
X146675000Y-130137500D02*
X144897000Y-130137500D01*
X146675000Y-128359500D02*
X146675000Y-130137500D01*
X146675000Y-117437500D02*
X146675000Y-119215500D01*
X144897000Y-117437500D02*
X146675000Y-117437500D01*
X133975000Y-117437500D02*
X135753000Y-117437500D01*
X153025000Y-117437500D02*
X154803000Y-117437500D01*
X163947000Y-117437500D02*
X165725000Y-117437500D01*
X165725000Y-117437500D02*
X165725000Y-119215500D01*
X165725000Y-128359500D02*
X165725000Y-130137500D01*
X165725000Y-130137500D02*
X163947000Y-130137500D01*
X154803000Y-130137500D02*
X153025000Y-130137500D01*
X153025000Y-130137500D02*
X153025000Y-128359500D01*
X153025000Y-119215500D02*
X153025000Y-117437500D01*
X129212500Y-62065500D02*
X129212500Y-60287500D01*
X129212500Y-72987500D02*
X129212500Y-71209500D01*
X130990500Y-72987500D02*
X129212500Y-72987500D01*
X141912500Y-72987500D02*
X140134500Y-72987500D01*
X141912500Y-71209500D02*
X141912500Y-72987500D01*
X141912500Y-60287500D02*
X141912500Y-62065500D01*
X140134500Y-60287500D02*
X141912500Y-60287500D01*
X129212500Y-60287500D02*
X130990500Y-60287500D01*
X126831250Y-81115500D02*
X126831250Y-79337500D01*
X126831250Y-92037500D02*
X126831250Y-90259500D01*
X128609250Y-92037500D02*
X126831250Y-92037500D01*
X139531250Y-92037500D02*
X137753250Y-92037500D01*
X139531250Y-90259500D02*
X139531250Y-92037500D01*
X139531250Y-79337500D02*
X139531250Y-81115500D01*
X137753250Y-79337500D02*
X139531250Y-79337500D01*
X126831250Y-79337500D02*
X128609250Y-79337500D01*
X164931250Y-81115500D02*
X164931250Y-79337500D01*
X164931250Y-92037500D02*
X164931250Y-90259500D01*
X166709250Y-92037500D02*
X164931250Y-92037500D01*
X177631250Y-92037500D02*
X175853250Y-92037500D01*
X177631250Y-90259500D02*
X177631250Y-92037500D01*
X177631250Y-79337500D02*
X177631250Y-81115500D01*
X175853250Y-79337500D02*
X177631250Y-79337500D01*
X164931250Y-79337500D02*
X166709250Y-79337500D01*
X126831250Y-98387500D02*
X128609250Y-98387500D01*
X137753250Y-98387500D02*
X139531250Y-98387500D01*
X139531250Y-98387500D02*
X139531250Y-100165500D01*
X139531250Y-109309500D02*
X139531250Y-111087500D01*
X139531250Y-111087500D02*
X137753250Y-111087500D01*
X128609250Y-111087500D02*
X126831250Y-111087500D01*
X126831250Y-111087500D02*
X126831250Y-109309500D01*
X126831250Y-100165500D02*
X126831250Y-98387500D01*
X164931250Y-98387500D02*
X166709250Y-98387500D01*
X175853250Y-98387500D02*
X177631250Y-98387500D01*
X177631250Y-98387500D02*
X177631250Y-100165500D01*
X177631250Y-109309500D02*
X177631250Y-111087500D01*
X177631250Y-111087500D02*
X175853250Y-111087500D01*
X166709250Y-111087500D02*
X164931250Y-111087500D01*
X164931250Y-111087500D02*
X164931250Y-109309500D01*
X164931250Y-100165500D02*
X164931250Y-98387500D01*
X181600000Y-41237500D02*
X183378000Y-41237500D01*
X192522000Y-41237500D02*
X194300000Y-41237500D01*
X194300000Y-41237500D02*
X194300000Y-43015500D01*
X194300000Y-52159500D02*
X194300000Y-53937500D01*
X194300000Y-53937500D02*
X192522000Y-53937500D01*
X183378000Y-53937500D02*
X181600000Y-53937500D01*
X181600000Y-53937500D02*
X181600000Y-52159500D01*
X181600000Y-43015500D02*
X181600000Y-41237500D01*
D14*
X195224071Y-90262023D02*
X195224071Y-88992023D01*
X196094928Y-90262023D02*
X195441785Y-89536309D01*
X196094928Y-88992023D02*
X195224071Y-89717738D01*
X196602928Y-88992023D02*
X197546357Y-88992023D01*
X197038357Y-89475833D01*
X197256071Y-89475833D01*
X197401214Y-89536309D01*
X197473785Y-89596785D01*
X197546357Y-89717738D01*
X197546357Y-90020119D01*
X197473785Y-90141071D01*
X197401214Y-90201547D01*
X197256071Y-90262023D01*
X196820642Y-90262023D01*
X196675500Y-90201547D01*
X196602928Y-90141071D01*
X198199500Y-90141071D02*
X198272071Y-90201547D01*
X198199500Y-90262023D01*
X198126928Y-90201547D01*
X198199500Y-90141071D01*
X198199500Y-90262023D01*
X199650928Y-88992023D02*
X198925214Y-88992023D01*
X198852642Y-89596785D01*
X198925214Y-89536309D01*
X199070357Y-89475833D01*
X199433214Y-89475833D01*
X199578357Y-89536309D01*
X199650928Y-89596785D01*
X199723500Y-89717738D01*
X199723500Y-90020119D01*
X199650928Y-90141071D01*
X199578357Y-90201547D01*
X199433214Y-90262023D01*
X199070357Y-90262023D01*
X198925214Y-90201547D01*
X198852642Y-90141071D01*
X119099071Y-52199523D02*
X119099071Y-50929523D01*
X119969928Y-52199523D02*
X119316785Y-51473809D01*
X119969928Y-50929523D02*
X119099071Y-51655238D01*
X121421357Y-52199523D02*
X120550500Y-52199523D01*
X120985928Y-52199523D02*
X120985928Y-50929523D01*
X120840785Y-51110952D01*
X120695642Y-51231904D01*
X120550500Y-51292380D01*
X122074500Y-52078571D02*
X122147071Y-52139047D01*
X122074500Y-52199523D01*
X122001928Y-52139047D01*
X122074500Y-52078571D01*
X122074500Y-52199523D01*
X123598500Y-52199523D02*
X122727642Y-52199523D01*
X123163071Y-52199523D02*
X123163071Y-50929523D01*
X123017928Y-51110952D01*
X122872785Y-51231904D01*
X122727642Y-51292380D01*
D10*
X170849404Y-67799404D02*
X170049404Y-67799404D01*
X170049404Y-67608928D01*
X170087500Y-67494642D01*
X170163690Y-67418452D01*
X170239880Y-67380357D01*
X170392261Y-67342261D01*
X170506547Y-67342261D01*
X170658928Y-67380357D01*
X170735119Y-67418452D01*
X170811309Y-67494642D01*
X170849404Y-67608928D01*
X170849404Y-67799404D01*
X170125595Y-67037500D02*
X170087500Y-66999404D01*
X170049404Y-66923214D01*
X170049404Y-66732738D01*
X170087500Y-66656547D01*
X170125595Y-66618452D01*
X170201785Y-66580357D01*
X170277976Y-66580357D01*
X170392261Y-66618452D01*
X170849404Y-67075595D01*
X170849404Y-66580357D01*
X170773214Y-66237500D02*
X170811309Y-66199404D01*
X170849404Y-66237500D01*
X170811309Y-66275595D01*
X170773214Y-66237500D01*
X170849404Y-66237500D01*
X170049404Y-65475595D02*
X170049404Y-65856547D01*
X170430357Y-65894642D01*
X170392261Y-65856547D01*
X170354166Y-65780357D01*
X170354166Y-65589880D01*
X170392261Y-65513690D01*
X170430357Y-65475595D01*
X170506547Y-65437500D01*
X170697023Y-65437500D01*
X170773214Y-65475595D01*
X170811309Y-65513690D01*
X170849404Y-65589880D01*
X170849404Y-65780357D01*
X170811309Y-65856547D01*
X170773214Y-65894642D01*
D14*
X179235119Y-70264880D02*
X179235119Y-69264880D01*
X179806547Y-70264880D02*
X179377976Y-69693452D01*
X179806547Y-69264880D02*
X179235119Y-69836309D01*
X180187500Y-69360119D02*
X180235119Y-69312500D01*
X180330357Y-69264880D01*
X180568452Y-69264880D01*
X180663690Y-69312500D01*
X180711309Y-69360119D01*
X180758928Y-69455357D01*
X180758928Y-69550595D01*
X180711309Y-69693452D01*
X180139880Y-70264880D01*
X180758928Y-70264880D01*
X181187500Y-70169642D02*
X181235119Y-70217261D01*
X181187500Y-70264880D01*
X181139880Y-70217261D01*
X181187500Y-70169642D01*
X181187500Y-70264880D01*
X182092261Y-69598214D02*
X182092261Y-70264880D01*
X181854166Y-69217261D02*
X181616071Y-69931547D01*
X182235119Y-69931547D01*
X182377976Y-70360119D02*
X183139880Y-70360119D01*
X183901785Y-70264880D02*
X183330357Y-70264880D01*
X183616071Y-70264880D02*
X183616071Y-69264880D01*
X183520833Y-69407738D01*
X183425595Y-69502976D01*
X183330357Y-69550595D01*
X184330357Y-70169642D02*
X184377976Y-70217261D01*
X184330357Y-70264880D01*
X184282738Y-70217261D01*
X184330357Y-70169642D01*
X184330357Y-70264880D01*
X185282738Y-69264880D02*
X184806547Y-69264880D01*
X184758928Y-69741071D01*
X184806547Y-69693452D01*
X184901785Y-69645833D01*
X185139880Y-69645833D01*
X185235119Y-69693452D01*
X185282738Y-69741071D01*
X185330357Y-69836309D01*
X185330357Y-70074404D01*
X185282738Y-70169642D01*
X185235119Y-70217261D01*
X185139880Y-70264880D01*
X184901785Y-70264880D01*
X184806547Y-70217261D01*
X184758928Y-70169642D01*
X186187500Y-69598214D02*
X186187500Y-70264880D01*
X185758928Y-69598214D02*
X185758928Y-70122023D01*
X185806547Y-70217261D01*
X185901785Y-70264880D01*
X186044642Y-70264880D01*
X186139880Y-70217261D01*
X186187500Y-70169642D01*
X187187500Y-70264880D02*
X186616071Y-70264880D01*
X186901785Y-70264880D02*
X186901785Y-69264880D01*
X186806547Y-69407738D01*
X186711309Y-69502976D01*
X186616071Y-69550595D01*
X195224071Y-52162023D02*
X195224071Y-50892023D01*
X196094928Y-52162023D02*
X195441785Y-51436309D01*
X196094928Y-50892023D02*
X195224071Y-51617738D01*
X197546357Y-52162023D02*
X196675500Y-52162023D01*
X197110928Y-52162023D02*
X197110928Y-50892023D01*
X196965785Y-51073452D01*
X196820642Y-51194404D01*
X196675500Y-51254880D01*
X198199500Y-52041071D02*
X198272071Y-52101547D01*
X198199500Y-52162023D01*
X198126928Y-52101547D01*
X198199500Y-52041071D01*
X198199500Y-52162023D01*
X199650928Y-50892023D02*
X198925214Y-50892023D01*
X198852642Y-51496785D01*
X198925214Y-51436309D01*
X199070357Y-51375833D01*
X199433214Y-51375833D01*
X199578357Y-51436309D01*
X199650928Y-51496785D01*
X199723500Y-51617738D01*
X199723500Y-51920119D01*
X199650928Y-52041071D01*
X199578357Y-52101547D01*
X199433214Y-52162023D01*
X199070357Y-52162023D01*
X198925214Y-52101547D01*
X198852642Y-52041071D01*
X138130321Y-44199523D02*
X138130321Y-42929523D01*
X139001178Y-44199523D02*
X138348035Y-43473809D01*
X139001178Y-42929523D02*
X138130321Y-43655238D01*
X140452607Y-44199523D02*
X139581750Y-44199523D01*
X140017178Y-44199523D02*
X140017178Y-42929523D01*
X139872035Y-43110952D01*
X139726892Y-43231904D01*
X139581750Y-43292380D01*
X141105750Y-44078571D02*
X141178321Y-44139047D01*
X141105750Y-44199523D01*
X141033178Y-44139047D01*
X141105750Y-44078571D01*
X141105750Y-44199523D01*
X141758892Y-43050476D02*
X141831464Y-42990000D01*
X141976607Y-42929523D01*
X142339464Y-42929523D01*
X142484607Y-42990000D01*
X142557178Y-43050476D01*
X142629750Y-43171428D01*
X142629750Y-43292380D01*
X142557178Y-43473809D01*
X141686321Y-44199523D01*
X142629750Y-44199523D01*
X142841369Y-72249255D02*
X142841369Y-71249255D01*
X143412797Y-72249255D02*
X142984226Y-71677827D01*
X143412797Y-71249255D02*
X142841369Y-71820684D01*
X143793750Y-71344494D02*
X143841369Y-71296875D01*
X143936607Y-71249255D01*
X144174702Y-71249255D01*
X144269940Y-71296875D01*
X144317559Y-71344494D01*
X144365178Y-71439732D01*
X144365178Y-71534970D01*
X144317559Y-71677827D01*
X143746130Y-72249255D01*
X144365178Y-72249255D01*
X144793750Y-72154017D02*
X144841369Y-72201636D01*
X144793750Y-72249255D01*
X144746130Y-72201636D01*
X144793750Y-72154017D01*
X144793750Y-72249255D01*
X145222321Y-71344494D02*
X145269940Y-71296875D01*
X145365178Y-71249255D01*
X145603273Y-71249255D01*
X145698511Y-71296875D01*
X145746130Y-71344494D01*
X145793750Y-71439732D01*
X145793750Y-71534970D01*
X145746130Y-71677827D01*
X145174702Y-72249255D01*
X145793750Y-72249255D01*
X119099071Y-71230773D02*
X119099071Y-69960773D01*
X119969928Y-71230773D02*
X119316785Y-70505059D01*
X119969928Y-69960773D02*
X119099071Y-70686488D01*
X120550500Y-70081726D02*
X120623071Y-70021250D01*
X120768214Y-69960773D01*
X121131071Y-69960773D01*
X121276214Y-70021250D01*
X121348785Y-70081726D01*
X121421357Y-70202678D01*
X121421357Y-70323630D01*
X121348785Y-70505059D01*
X120477928Y-71230773D01*
X121421357Y-71230773D01*
X122074500Y-71109821D02*
X122147071Y-71170297D01*
X122074500Y-71230773D01*
X122001928Y-71170297D01*
X122074500Y-71109821D01*
X122074500Y-71230773D01*
X123598500Y-71230773D02*
X122727642Y-71230773D01*
X123163071Y-71230773D02*
X123163071Y-69960773D01*
X123017928Y-70142202D01*
X122872785Y-70263154D01*
X122727642Y-70323630D01*
D13*
X115655654Y-127414880D02*
X115655654Y-126414880D01*
X116227083Y-127414880D02*
X115798511Y-126843452D01*
X116227083Y-126414880D02*
X115655654Y-126986309D01*
X117131845Y-126414880D02*
X116655654Y-126414880D01*
X116608035Y-126891071D01*
X116655654Y-126843452D01*
X116750892Y-126795833D01*
X116988988Y-126795833D01*
X117084226Y-126843452D01*
X117131845Y-126891071D01*
X117179464Y-126986309D01*
X117179464Y-127224404D01*
X117131845Y-127319642D01*
X117084226Y-127367261D01*
X116988988Y-127414880D01*
X116750892Y-127414880D01*
X116655654Y-127367261D01*
X116608035Y-127319642D01*
X117608035Y-127319642D02*
X117655654Y-127367261D01*
X117608035Y-127414880D01*
X117560416Y-127367261D01*
X117608035Y-127319642D01*
X117608035Y-127414880D01*
X118608035Y-127414880D02*
X118036607Y-127414880D01*
X118322321Y-127414880D02*
X118322321Y-126414880D01*
X118227083Y-126557738D01*
X118131845Y-126652976D01*
X118036607Y-126700595D01*
X118798511Y-127510119D02*
X119560416Y-127510119D01*
X120322321Y-127414880D02*
X119750892Y-127414880D01*
X120036607Y-127414880D02*
X120036607Y-126414880D01*
X119941369Y-126557738D01*
X119846130Y-126652976D01*
X119750892Y-126700595D01*
X121179464Y-126748214D02*
X121179464Y-127414880D01*
X120750892Y-126748214D02*
X120750892Y-127272023D01*
X120798511Y-127367261D01*
X120893750Y-127414880D01*
X121036607Y-127414880D01*
X121131845Y-127367261D01*
X121179464Y-127319642D01*
X122179464Y-127414880D02*
X121608035Y-127414880D01*
X121893750Y-127414880D02*
X121893750Y-126414880D01*
X121798511Y-126557738D01*
X121703273Y-126652976D01*
X121608035Y-126700595D01*
X138753869Y-127414880D02*
X138753869Y-126414880D01*
X139325297Y-127414880D02*
X138896726Y-126843452D01*
X139325297Y-126414880D02*
X138753869Y-126986309D01*
X140230059Y-126414880D02*
X139753869Y-126414880D01*
X139706250Y-126891071D01*
X139753869Y-126843452D01*
X139849107Y-126795833D01*
X140087202Y-126795833D01*
X140182440Y-126843452D01*
X140230059Y-126891071D01*
X140277678Y-126986309D01*
X140277678Y-127224404D01*
X140230059Y-127319642D01*
X140182440Y-127367261D01*
X140087202Y-127414880D01*
X139849107Y-127414880D01*
X139753869Y-127367261D01*
X139706250Y-127319642D01*
X140706250Y-127319642D02*
X140753869Y-127367261D01*
X140706250Y-127414880D01*
X140658630Y-127367261D01*
X140706250Y-127319642D01*
X140706250Y-127414880D01*
X141134821Y-126510119D02*
X141182440Y-126462500D01*
X141277678Y-126414880D01*
X141515773Y-126414880D01*
X141611011Y-126462500D01*
X141658630Y-126510119D01*
X141706250Y-126605357D01*
X141706250Y-126700595D01*
X141658630Y-126843452D01*
X141087202Y-127414880D01*
X141706250Y-127414880D01*
X141896726Y-127510119D02*
X142658630Y-127510119D01*
X143420535Y-127414880D02*
X142849107Y-127414880D01*
X143134821Y-127414880D02*
X143134821Y-126414880D01*
X143039583Y-126557738D01*
X142944345Y-126652976D01*
X142849107Y-126700595D01*
X143849107Y-127319642D02*
X143896726Y-127367261D01*
X143849107Y-127414880D01*
X143801488Y-127367261D01*
X143849107Y-127319642D01*
X143849107Y-127414880D01*
X144801488Y-126414880D02*
X144325297Y-126414880D01*
X144277678Y-126891071D01*
X144325297Y-126843452D01*
X144420535Y-126795833D01*
X144658630Y-126795833D01*
X144753869Y-126843452D01*
X144801488Y-126891071D01*
X144849107Y-126986309D01*
X144849107Y-127224404D01*
X144801488Y-127319642D01*
X144753869Y-127367261D01*
X144658630Y-127414880D01*
X144420535Y-127414880D01*
X144325297Y-127367261D01*
X144277678Y-127319642D01*
X145706250Y-126748214D02*
X145706250Y-127414880D01*
X145277678Y-126748214D02*
X145277678Y-127272023D01*
X145325297Y-127367261D01*
X145420535Y-127414880D01*
X145563392Y-127414880D01*
X145658630Y-127367261D01*
X145706250Y-127319642D01*
X146706250Y-127414880D02*
X146134821Y-127414880D01*
X146420535Y-127414880D02*
X146420535Y-126414880D01*
X146325297Y-126557738D01*
X146230059Y-126652976D01*
X146134821Y-126700595D01*
X186378869Y-131780505D02*
X186378869Y-130780505D01*
X186950297Y-131780505D02*
X186521726Y-131209077D01*
X186950297Y-130780505D02*
X186378869Y-131351934D01*
X187855059Y-130780505D02*
X187378869Y-130780505D01*
X187331250Y-131256696D01*
X187378869Y-131209077D01*
X187474107Y-131161458D01*
X187712202Y-131161458D01*
X187807440Y-131209077D01*
X187855059Y-131256696D01*
X187902678Y-131351934D01*
X187902678Y-131590029D01*
X187855059Y-131685267D01*
X187807440Y-131732886D01*
X187712202Y-131780505D01*
X187474107Y-131780505D01*
X187378869Y-131732886D01*
X187331250Y-131685267D01*
X188331250Y-131685267D02*
X188378869Y-131732886D01*
X188331250Y-131780505D01*
X188283630Y-131732886D01*
X188331250Y-131685267D01*
X188331250Y-131780505D01*
X189236011Y-131113839D02*
X189236011Y-131780505D01*
X188997916Y-130732886D02*
X188759821Y-131447172D01*
X189378869Y-131447172D01*
X189521726Y-131875744D02*
X190283630Y-131875744D01*
X191045535Y-131780505D02*
X190474107Y-131780505D01*
X190759821Y-131780505D02*
X190759821Y-130780505D01*
X190664583Y-130923363D01*
X190569345Y-131018601D01*
X190474107Y-131066220D01*
X191474107Y-131685267D02*
X191521726Y-131732886D01*
X191474107Y-131780505D01*
X191426488Y-131732886D01*
X191474107Y-131685267D01*
X191474107Y-131780505D01*
X192426488Y-130780505D02*
X191950297Y-130780505D01*
X191902678Y-131256696D01*
X191950297Y-131209077D01*
X192045535Y-131161458D01*
X192283630Y-131161458D01*
X192378869Y-131209077D01*
X192426488Y-131256696D01*
X192474107Y-131351934D01*
X192474107Y-131590029D01*
X192426488Y-131685267D01*
X192378869Y-131732886D01*
X192283630Y-131780505D01*
X192045535Y-131780505D01*
X191950297Y-131732886D01*
X191902678Y-131685267D01*
X193331250Y-131113839D02*
X193331250Y-131780505D01*
X192902678Y-131113839D02*
X192902678Y-131637648D01*
X192950297Y-131732886D01*
X193045535Y-131780505D01*
X193188392Y-131780505D01*
X193283630Y-131732886D01*
X193331250Y-131685267D01*
X194331250Y-131780505D02*
X193759821Y-131780505D01*
X194045535Y-131780505D02*
X194045535Y-130780505D01*
X193950297Y-130923363D01*
X193855059Y-131018601D01*
X193759821Y-131066220D01*
X124466369Y-131780505D02*
X124466369Y-130780505D01*
X125037797Y-131780505D02*
X124609226Y-131209077D01*
X125037797Y-130780505D02*
X124466369Y-131351934D01*
X125942559Y-130780505D02*
X125466369Y-130780505D01*
X125418750Y-131256696D01*
X125466369Y-131209077D01*
X125561607Y-131161458D01*
X125799702Y-131161458D01*
X125894940Y-131209077D01*
X125942559Y-131256696D01*
X125990178Y-131351934D01*
X125990178Y-131590029D01*
X125942559Y-131685267D01*
X125894940Y-131732886D01*
X125799702Y-131780505D01*
X125561607Y-131780505D01*
X125466369Y-131732886D01*
X125418750Y-131685267D01*
X126418750Y-131685267D02*
X126466369Y-131732886D01*
X126418750Y-131780505D01*
X126371130Y-131732886D01*
X126418750Y-131685267D01*
X126418750Y-131780505D01*
X127418750Y-131780505D02*
X126847321Y-131780505D01*
X127133035Y-131780505D02*
X127133035Y-130780505D01*
X127037797Y-130923363D01*
X126942559Y-131018601D01*
X126847321Y-131066220D01*
X127609226Y-131875744D02*
X128371130Y-131875744D01*
X129133035Y-131780505D02*
X128561607Y-131780505D01*
X128847321Y-131780505D02*
X128847321Y-130780505D01*
X128752083Y-130923363D01*
X128656845Y-131018601D01*
X128561607Y-131066220D01*
X129561607Y-131685267D02*
X129609226Y-131732886D01*
X129561607Y-131780505D01*
X129513988Y-131732886D01*
X129561607Y-131685267D01*
X129561607Y-131780505D01*
X130513988Y-130780505D02*
X130037797Y-130780505D01*
X129990178Y-131256696D01*
X130037797Y-131209077D01*
X130133035Y-131161458D01*
X130371130Y-131161458D01*
X130466369Y-131209077D01*
X130513988Y-131256696D01*
X130561607Y-131351934D01*
X130561607Y-131590029D01*
X130513988Y-131685267D01*
X130466369Y-131732886D01*
X130371130Y-131780505D01*
X130133035Y-131780505D01*
X130037797Y-131732886D01*
X129990178Y-131685267D01*
X131418750Y-131113839D02*
X131418750Y-131780505D01*
X130990178Y-131113839D02*
X130990178Y-131637648D01*
X131037797Y-131732886D01*
X131133035Y-131780505D01*
X131275892Y-131780505D01*
X131371130Y-131732886D01*
X131418750Y-131685267D01*
X132418750Y-131780505D02*
X131847321Y-131780505D01*
X132133035Y-131780505D02*
X132133035Y-130780505D01*
X132037797Y-130923363D01*
X131942559Y-131018601D01*
X131847321Y-131066220D01*
X172091369Y-127414880D02*
X172091369Y-126414880D01*
X172662797Y-127414880D02*
X172234226Y-126843452D01*
X172662797Y-126414880D02*
X172091369Y-126986309D01*
X173567559Y-126414880D02*
X173091369Y-126414880D01*
X173043750Y-126891071D01*
X173091369Y-126843452D01*
X173186607Y-126795833D01*
X173424702Y-126795833D01*
X173519940Y-126843452D01*
X173567559Y-126891071D01*
X173615178Y-126986309D01*
X173615178Y-127224404D01*
X173567559Y-127319642D01*
X173519940Y-127367261D01*
X173424702Y-127414880D01*
X173186607Y-127414880D01*
X173091369Y-127367261D01*
X173043750Y-127319642D01*
X174043750Y-127319642D02*
X174091369Y-127367261D01*
X174043750Y-127414880D01*
X173996130Y-127367261D01*
X174043750Y-127319642D01*
X174043750Y-127414880D01*
X174424702Y-126414880D02*
X175043750Y-126414880D01*
X174710416Y-126795833D01*
X174853273Y-126795833D01*
X174948511Y-126843452D01*
X174996130Y-126891071D01*
X175043750Y-126986309D01*
X175043750Y-127224404D01*
X174996130Y-127319642D01*
X174948511Y-127367261D01*
X174853273Y-127414880D01*
X174567559Y-127414880D01*
X174472321Y-127367261D01*
X174424702Y-127319642D01*
X175234226Y-127510119D02*
X175996130Y-127510119D01*
X176758035Y-127414880D02*
X176186607Y-127414880D01*
X176472321Y-127414880D02*
X176472321Y-126414880D01*
X176377083Y-126557738D01*
X176281845Y-126652976D01*
X176186607Y-126700595D01*
X177186607Y-127319642D02*
X177234226Y-127367261D01*
X177186607Y-127414880D01*
X177138988Y-127367261D01*
X177186607Y-127319642D01*
X177186607Y-127414880D01*
X178138988Y-126414880D02*
X177662797Y-126414880D01*
X177615178Y-126891071D01*
X177662797Y-126843452D01*
X177758035Y-126795833D01*
X177996130Y-126795833D01*
X178091369Y-126843452D01*
X178138988Y-126891071D01*
X178186607Y-126986309D01*
X178186607Y-127224404D01*
X178138988Y-127319642D01*
X178091369Y-127367261D01*
X177996130Y-127414880D01*
X177758035Y-127414880D01*
X177662797Y-127367261D01*
X177615178Y-127319642D01*
X179043750Y-126748214D02*
X179043750Y-127414880D01*
X178615178Y-126748214D02*
X178615178Y-127272023D01*
X178662797Y-127367261D01*
X178758035Y-127414880D01*
X178900892Y-127414880D01*
X178996130Y-127367261D01*
X179043750Y-127319642D01*
X180043750Y-127414880D02*
X179472321Y-127414880D01*
X179758035Y-127414880D02*
X179758035Y-126414880D01*
X179662797Y-126557738D01*
X179567559Y-126652976D01*
X179472321Y-126700595D01*
D14*
X178361904Y-131780505D02*
X178361904Y-130780505D01*
X178933333Y-131780505D02*
X178504761Y-131209077D01*
X178933333Y-130780505D02*
X178361904Y-131351934D01*
X179838095Y-130780505D02*
X179361904Y-130780505D01*
X179314285Y-131256696D01*
X179361904Y-131209077D01*
X179457142Y-131161458D01*
X179695238Y-131161458D01*
X179790476Y-131209077D01*
X179838095Y-131256696D01*
X179885714Y-131351934D01*
X179885714Y-131590029D01*
X179838095Y-131685267D01*
X179790476Y-131732886D01*
X179695238Y-131780505D01*
X179457142Y-131780505D01*
X179361904Y-131732886D01*
X179314285Y-131685267D01*
X180314285Y-131685267D02*
X180361904Y-131732886D01*
X180314285Y-131780505D01*
X180266666Y-131732886D01*
X180314285Y-131685267D01*
X180314285Y-131780505D01*
X181219047Y-131113839D02*
X181219047Y-131780505D01*
X180980952Y-130732886D02*
X180742857Y-131447172D01*
X181361904Y-131447172D01*
X181504761Y-131875744D02*
X182266666Y-131875744D01*
X183028571Y-131780505D02*
X182457142Y-131780505D01*
X182742857Y-131780505D02*
X182742857Y-130780505D01*
X182647619Y-130923363D01*
X182552380Y-131018601D01*
X182457142Y-131066220D01*
X183885714Y-131113839D02*
X183885714Y-131780505D01*
X183457142Y-131113839D02*
X183457142Y-131637648D01*
X183504761Y-131732886D01*
X183600000Y-131780505D01*
X183742857Y-131780505D01*
X183838095Y-131732886D01*
X183885714Y-131685267D01*
X184885714Y-131780505D02*
X184314285Y-131780505D01*
X184600000Y-131780505D02*
X184600000Y-130780505D01*
X184504761Y-130923363D01*
X184409523Y-131018601D01*
X184314285Y-131066220D01*
X176192821Y-52162023D02*
X176192821Y-50892023D01*
X177063678Y-52162023D02*
X176410535Y-51436309D01*
X177063678Y-50892023D02*
X176192821Y-51617738D01*
X178515107Y-52162023D02*
X177644250Y-52162023D01*
X178079678Y-52162023D02*
X178079678Y-50892023D01*
X177934535Y-51073452D01*
X177789392Y-51194404D01*
X177644250Y-51254880D01*
X179168250Y-52041071D02*
X179240821Y-52101547D01*
X179168250Y-52162023D01*
X179095678Y-52101547D01*
X179168250Y-52041071D01*
X179168250Y-52162023D01*
X180547107Y-51315357D02*
X180547107Y-52162023D01*
X180184250Y-50831547D02*
X179821392Y-51738690D01*
X180764821Y-51738690D01*
X157161571Y-52199523D02*
X157161571Y-50929523D01*
X158032428Y-52199523D02*
X157379285Y-51473809D01*
X158032428Y-50929523D02*
X157161571Y-51655238D01*
X159483857Y-52199523D02*
X158613000Y-52199523D01*
X159048428Y-52199523D02*
X159048428Y-50929523D01*
X158903285Y-51110952D01*
X158758142Y-51231904D01*
X158613000Y-51292380D01*
X160137000Y-52078571D02*
X160209571Y-52139047D01*
X160137000Y-52199523D01*
X160064428Y-52139047D01*
X160137000Y-52078571D01*
X160137000Y-52199523D01*
X160717571Y-50929523D02*
X161661000Y-50929523D01*
X161153000Y-51413333D01*
X161370714Y-51413333D01*
X161515857Y-51473809D01*
X161588428Y-51534285D01*
X161661000Y-51655238D01*
X161661000Y-51957619D01*
X161588428Y-52078571D01*
X161515857Y-52139047D01*
X161370714Y-52199523D01*
X160935285Y-52199523D01*
X160790142Y-52139047D01*
X160717571Y-52078571D01*
X195224071Y-71230773D02*
X195224071Y-69960773D01*
X196094928Y-71230773D02*
X195441785Y-70505059D01*
X196094928Y-69960773D02*
X195224071Y-70686488D01*
X196675500Y-70081726D02*
X196748071Y-70021250D01*
X196893214Y-69960773D01*
X197256071Y-69960773D01*
X197401214Y-70021250D01*
X197473785Y-70081726D01*
X197546357Y-70202678D01*
X197546357Y-70323630D01*
X197473785Y-70505059D01*
X196602928Y-71230773D01*
X197546357Y-71230773D01*
X198199500Y-71109821D02*
X198272071Y-71170297D01*
X198199500Y-71230773D01*
X198126928Y-71170297D01*
X198199500Y-71109821D01*
X198199500Y-71230773D01*
X199650928Y-69960773D02*
X198925214Y-69960773D01*
X198852642Y-70565535D01*
X198925214Y-70505059D01*
X199070357Y-70444583D01*
X199433214Y-70444583D01*
X199578357Y-70505059D01*
X199650928Y-70565535D01*
X199723500Y-70686488D01*
X199723500Y-70988869D01*
X199650928Y-71109821D01*
X199578357Y-71170297D01*
X199433214Y-71230773D01*
X199070357Y-71230773D01*
X198925214Y-71170297D01*
X198852642Y-71109821D01*
X173003869Y-72249255D02*
X173003869Y-71249255D01*
X173575297Y-72249255D02*
X173146726Y-71677827D01*
X173575297Y-71249255D02*
X173003869Y-71820684D01*
X173956250Y-71344494D02*
X174003869Y-71296875D01*
X174099107Y-71249255D01*
X174337202Y-71249255D01*
X174432440Y-71296875D01*
X174480059Y-71344494D01*
X174527678Y-71439732D01*
X174527678Y-71534970D01*
X174480059Y-71677827D01*
X173908630Y-72249255D01*
X174527678Y-72249255D01*
X174956250Y-72154017D02*
X175003869Y-72201636D01*
X174956250Y-72249255D01*
X174908630Y-72201636D01*
X174956250Y-72154017D01*
X174956250Y-72249255D01*
X175861011Y-71582589D02*
X175861011Y-72249255D01*
X175622916Y-71201636D02*
X175384821Y-71915922D01*
X176003869Y-71915922D01*
X157161571Y-71230773D02*
X157161571Y-69960773D01*
X158032428Y-71230773D02*
X157379285Y-70505059D01*
X158032428Y-69960773D02*
X157161571Y-70686488D01*
X158613000Y-70081726D02*
X158685571Y-70021250D01*
X158830714Y-69960773D01*
X159193571Y-69960773D01*
X159338714Y-70021250D01*
X159411285Y-70081726D01*
X159483857Y-70202678D01*
X159483857Y-70323630D01*
X159411285Y-70505059D01*
X158540428Y-71230773D01*
X159483857Y-71230773D01*
X160137000Y-71109821D02*
X160209571Y-71170297D01*
X160137000Y-71230773D01*
X160064428Y-71170297D01*
X160137000Y-71109821D01*
X160137000Y-71230773D01*
X160717571Y-69960773D02*
X161661000Y-69960773D01*
X161153000Y-70444583D01*
X161370714Y-70444583D01*
X161515857Y-70505059D01*
X161588428Y-70565535D01*
X161661000Y-70686488D01*
X161661000Y-70988869D01*
X161588428Y-71109821D01*
X161515857Y-71170297D01*
X161370714Y-71230773D01*
X160935285Y-71230773D01*
X160790142Y-71170297D01*
X160717571Y-71109821D01*
X179386571Y-91024523D02*
X179386571Y-89754523D01*
X180257428Y-91024523D02*
X179604285Y-90298809D01*
X180257428Y-89754523D02*
X179386571Y-90480238D01*
X180765428Y-89754523D02*
X181708857Y-89754523D01*
X181200857Y-90238333D01*
X181418571Y-90238333D01*
X181563714Y-90298809D01*
X181636285Y-90359285D01*
X181708857Y-90480238D01*
X181708857Y-90782619D01*
X181636285Y-90903571D01*
X181563714Y-90964047D01*
X181418571Y-91024523D01*
X180983142Y-91024523D01*
X180838000Y-90964047D01*
X180765428Y-90903571D01*
X182362000Y-90903571D02*
X182434571Y-90964047D01*
X182362000Y-91024523D01*
X182289428Y-90964047D01*
X182362000Y-90903571D01*
X182362000Y-91024523D01*
X183740857Y-90177857D02*
X183740857Y-91024523D01*
X183378000Y-89694047D02*
X183015142Y-90601190D01*
X183958571Y-90601190D01*
X119099071Y-90262023D02*
X119099071Y-88992023D01*
X119969928Y-90262023D02*
X119316785Y-89536309D01*
X119969928Y-88992023D02*
X119099071Y-89717738D01*
X120477928Y-88992023D02*
X121421357Y-88992023D01*
X120913357Y-89475833D01*
X121131071Y-89475833D01*
X121276214Y-89536309D01*
X121348785Y-89596785D01*
X121421357Y-89717738D01*
X121421357Y-90020119D01*
X121348785Y-90141071D01*
X121276214Y-90201547D01*
X121131071Y-90262023D01*
X120695642Y-90262023D01*
X120550500Y-90201547D01*
X120477928Y-90141071D01*
X122074500Y-90141071D02*
X122147071Y-90201547D01*
X122074500Y-90262023D01*
X122001928Y-90201547D01*
X122074500Y-90141071D01*
X122074500Y-90262023D01*
X123598500Y-90262023D02*
X122727642Y-90262023D01*
X123163071Y-90262023D02*
X123163071Y-88992023D01*
X123017928Y-89173452D01*
X122872785Y-89294404D01*
X122727642Y-89354880D01*
X143238244Y-89314880D02*
X143238244Y-88314880D01*
X143809672Y-89314880D02*
X143381101Y-88743452D01*
X143809672Y-88314880D02*
X143238244Y-88886309D01*
X144143005Y-88314880D02*
X144762053Y-88314880D01*
X144428720Y-88695833D01*
X144571577Y-88695833D01*
X144666815Y-88743452D01*
X144714434Y-88791071D01*
X144762053Y-88886309D01*
X144762053Y-89124404D01*
X144714434Y-89219642D01*
X144666815Y-89267261D01*
X144571577Y-89314880D01*
X144285863Y-89314880D01*
X144190625Y-89267261D01*
X144143005Y-89219642D01*
X145190625Y-89219642D02*
X145238244Y-89267261D01*
X145190625Y-89314880D01*
X145143005Y-89267261D01*
X145190625Y-89219642D01*
X145190625Y-89314880D01*
X145619196Y-88410119D02*
X145666815Y-88362500D01*
X145762053Y-88314880D01*
X146000148Y-88314880D01*
X146095386Y-88362500D01*
X146143005Y-88410119D01*
X146190625Y-88505357D01*
X146190625Y-88600595D01*
X146143005Y-88743452D01*
X145571577Y-89314880D01*
X146190625Y-89314880D01*
X157161571Y-90262023D02*
X157161571Y-88992023D01*
X158032428Y-90262023D02*
X157379285Y-89536309D01*
X158032428Y-88992023D02*
X157161571Y-89717738D01*
X158540428Y-88992023D02*
X159483857Y-88992023D01*
X158975857Y-89475833D01*
X159193571Y-89475833D01*
X159338714Y-89536309D01*
X159411285Y-89596785D01*
X159483857Y-89717738D01*
X159483857Y-90020119D01*
X159411285Y-90141071D01*
X159338714Y-90201547D01*
X159193571Y-90262023D01*
X158758142Y-90262023D01*
X158613000Y-90201547D01*
X158540428Y-90141071D01*
X160137000Y-90141071D02*
X160209571Y-90201547D01*
X160137000Y-90262023D01*
X160064428Y-90201547D01*
X160137000Y-90141071D01*
X160137000Y-90262023D01*
X160717571Y-88992023D02*
X161661000Y-88992023D01*
X161153000Y-89475833D01*
X161370714Y-89475833D01*
X161515857Y-89536309D01*
X161588428Y-89596785D01*
X161661000Y-89717738D01*
X161661000Y-90020119D01*
X161588428Y-90141071D01*
X161515857Y-90201547D01*
X161370714Y-90262023D01*
X160935285Y-90262023D01*
X160790142Y-90201547D01*
X160717571Y-90141071D01*
X141286571Y-110074523D02*
X141286571Y-108804523D01*
X142157428Y-110074523D02*
X141504285Y-109348809D01*
X142157428Y-108804523D02*
X141286571Y-109530238D01*
X143463714Y-109227857D02*
X143463714Y-110074523D01*
X143100857Y-108744047D02*
X142738000Y-109651190D01*
X143681428Y-109651190D01*
X144262000Y-109953571D02*
X144334571Y-110014047D01*
X144262000Y-110074523D01*
X144189428Y-110014047D01*
X144262000Y-109953571D01*
X144262000Y-110074523D01*
X144915142Y-108925476D02*
X144987714Y-108865000D01*
X145132857Y-108804523D01*
X145495714Y-108804523D01*
X145640857Y-108865000D01*
X145713428Y-108925476D01*
X145786000Y-109046428D01*
X145786000Y-109167380D01*
X145713428Y-109348809D01*
X144842571Y-110074523D01*
X145786000Y-110074523D01*
X119061571Y-109312023D02*
X119061571Y-108042023D01*
X119932428Y-109312023D02*
X119279285Y-108586309D01*
X119932428Y-108042023D02*
X119061571Y-108767738D01*
X121238714Y-108465357D02*
X121238714Y-109312023D01*
X120875857Y-107981547D02*
X120513000Y-108888690D01*
X121456428Y-108888690D01*
X122037000Y-109191071D02*
X122109571Y-109251547D01*
X122037000Y-109312023D01*
X121964428Y-109251547D01*
X122037000Y-109191071D01*
X122037000Y-109312023D01*
X123561000Y-109312023D02*
X122690142Y-109312023D01*
X123125571Y-109312023D02*
X123125571Y-108042023D01*
X122980428Y-108223452D01*
X122835285Y-108344404D01*
X122690142Y-108404880D01*
X179386571Y-110074523D02*
X179386571Y-108804523D01*
X180257428Y-110074523D02*
X179604285Y-109348809D01*
X180257428Y-108804523D02*
X179386571Y-109530238D01*
X181563714Y-109227857D02*
X181563714Y-110074523D01*
X181200857Y-108744047D02*
X180838000Y-109651190D01*
X181781428Y-109651190D01*
X182362000Y-109953571D02*
X182434571Y-110014047D01*
X182362000Y-110074523D01*
X182289428Y-110014047D01*
X182362000Y-109953571D01*
X182362000Y-110074523D01*
X183740857Y-109227857D02*
X183740857Y-110074523D01*
X183378000Y-108744047D02*
X183015142Y-109651190D01*
X183958571Y-109651190D01*
X157161571Y-109293273D02*
X157161571Y-108023273D01*
X158032428Y-109293273D02*
X157379285Y-108567559D01*
X158032428Y-108023273D02*
X157161571Y-108748988D01*
X159338714Y-108446607D02*
X159338714Y-109293273D01*
X158975857Y-107962797D02*
X158613000Y-108869940D01*
X159556428Y-108869940D01*
X160137000Y-109172321D02*
X160209571Y-109232797D01*
X160137000Y-109293273D01*
X160064428Y-109232797D01*
X160137000Y-109172321D01*
X160137000Y-109293273D01*
X160717571Y-108023273D02*
X161661000Y-108023273D01*
X161153000Y-108507083D01*
X161370714Y-108507083D01*
X161515857Y-108567559D01*
X161588428Y-108628035D01*
X161661000Y-108748988D01*
X161661000Y-109051369D01*
X161588428Y-109172321D01*
X161515857Y-109232797D01*
X161370714Y-109293273D01*
X160935285Y-109293273D01*
X160790142Y-109232797D01*
X160717571Y-109172321D01*
X195224071Y-109293273D02*
X195224071Y-108023273D01*
X196094928Y-109293273D02*
X195441785Y-108567559D01*
X196094928Y-108023273D02*
X195224071Y-108748988D01*
X197401214Y-108446607D02*
X197401214Y-109293273D01*
X197038357Y-107962797D02*
X196675500Y-108869940D01*
X197618928Y-108869940D01*
X198199500Y-109172321D02*
X198272071Y-109232797D01*
X198199500Y-109293273D01*
X198126928Y-109232797D01*
X198199500Y-109172321D01*
X198199500Y-109293273D01*
X199650928Y-108023273D02*
X198925214Y-108023273D01*
X198852642Y-108628035D01*
X198925214Y-108567559D01*
X199070357Y-108507083D01*
X199433214Y-108507083D01*
X199578357Y-108567559D01*
X199650928Y-108628035D01*
X199723500Y-108748988D01*
X199723500Y-109051369D01*
X199650928Y-109172321D01*
X199578357Y-109232797D01*
X199433214Y-109293273D01*
X199070357Y-109293273D01*
X198925214Y-109232797D01*
X198852642Y-109172321D01*
D13*
X148199404Y-127414880D02*
X148199404Y-126414880D01*
X148770833Y-127414880D02*
X148342261Y-126843452D01*
X148770833Y-126414880D02*
X148199404Y-126986309D01*
X149675595Y-126414880D02*
X149199404Y-126414880D01*
X149151785Y-126891071D01*
X149199404Y-126843452D01*
X149294642Y-126795833D01*
X149532738Y-126795833D01*
X149627976Y-126843452D01*
X149675595Y-126891071D01*
X149723214Y-126986309D01*
X149723214Y-127224404D01*
X149675595Y-127319642D01*
X149627976Y-127367261D01*
X149532738Y-127414880D01*
X149294642Y-127414880D01*
X149199404Y-127367261D01*
X149151785Y-127319642D01*
X150151785Y-127319642D02*
X150199404Y-127367261D01*
X150151785Y-127414880D01*
X150104166Y-127367261D01*
X150151785Y-127319642D01*
X150151785Y-127414880D01*
X150580357Y-126510119D02*
X150627976Y-126462500D01*
X150723214Y-126414880D01*
X150961309Y-126414880D01*
X151056547Y-126462500D01*
X151104166Y-126510119D01*
X151151785Y-126605357D01*
X151151785Y-126700595D01*
X151104166Y-126843452D01*
X150532738Y-127414880D01*
X151151785Y-127414880D01*
X151342261Y-127510119D02*
X152104166Y-127510119D01*
X152866071Y-127414880D02*
X152294642Y-127414880D01*
X152580357Y-127414880D02*
X152580357Y-126414880D01*
X152485119Y-126557738D01*
X152389880Y-126652976D01*
X152294642Y-126700595D01*
X153723214Y-126748214D02*
X153723214Y-127414880D01*
X153294642Y-126748214D02*
X153294642Y-127272023D01*
X153342261Y-127367261D01*
X153437500Y-127414880D01*
X153580357Y-127414880D01*
X153675595Y-127367261D01*
X153723214Y-127319642D01*
X154723214Y-127414880D02*
X154151785Y-127414880D01*
X154437500Y-127414880D02*
X154437500Y-126414880D01*
X154342261Y-126557738D01*
X154247023Y-126652976D01*
X154151785Y-126700595D01*
X164471279Y-127414880D02*
X164471279Y-126414880D01*
X165042708Y-127414880D02*
X164614136Y-126843452D01*
X165042708Y-126414880D02*
X164471279Y-126986309D01*
X165947470Y-126414880D02*
X165471279Y-126414880D01*
X165423660Y-126891071D01*
X165471279Y-126843452D01*
X165566517Y-126795833D01*
X165804613Y-126795833D01*
X165899851Y-126843452D01*
X165947470Y-126891071D01*
X165995089Y-126986309D01*
X165995089Y-127224404D01*
X165947470Y-127319642D01*
X165899851Y-127367261D01*
X165804613Y-127414880D01*
X165566517Y-127414880D01*
X165471279Y-127367261D01*
X165423660Y-127319642D01*
X166423660Y-127319642D02*
X166471279Y-127367261D01*
X166423660Y-127414880D01*
X166376041Y-127367261D01*
X166423660Y-127319642D01*
X166423660Y-127414880D01*
X166804613Y-126414880D02*
X167423660Y-126414880D01*
X167090327Y-126795833D01*
X167233184Y-126795833D01*
X167328422Y-126843452D01*
X167376041Y-126891071D01*
X167423660Y-126986309D01*
X167423660Y-127224404D01*
X167376041Y-127319642D01*
X167328422Y-127367261D01*
X167233184Y-127414880D01*
X166947470Y-127414880D01*
X166852232Y-127367261D01*
X166804613Y-127319642D01*
X167614136Y-127510119D02*
X168376041Y-127510119D01*
X169137946Y-127414880D02*
X168566517Y-127414880D01*
X168852232Y-127414880D02*
X168852232Y-126414880D01*
X168756994Y-126557738D01*
X168661755Y-126652976D01*
X168566517Y-126700595D01*
X169995089Y-126748214D02*
X169995089Y-127414880D01*
X169566517Y-126748214D02*
X169566517Y-127272023D01*
X169614136Y-127367261D01*
X169709375Y-127414880D01*
X169852232Y-127414880D01*
X169947470Y-127367261D01*
X169995089Y-127319642D01*
X170995089Y-127414880D02*
X170423660Y-127414880D01*
X170709375Y-127414880D02*
X170709375Y-126414880D01*
X170614136Y-126557738D01*
X170518898Y-126652976D01*
X170423660Y-126700595D01*
D10*
X158213095Y-116211904D02*
X158213095Y-115411904D01*
X158403571Y-115411904D01*
X158517857Y-115450000D01*
X158594047Y-115526190D01*
X158632142Y-115602380D01*
X158670238Y-115754761D01*
X158670238Y-115869047D01*
X158632142Y-116021428D01*
X158594047Y-116097619D01*
X158517857Y-116173809D01*
X158403571Y-116211904D01*
X158213095Y-116211904D01*
X159394047Y-115411904D02*
X159013095Y-115411904D01*
X158975000Y-115792857D01*
X159013095Y-115754761D01*
X159089285Y-115716666D01*
X159279761Y-115716666D01*
X159355952Y-115754761D01*
X159394047Y-115792857D01*
X159432142Y-115869047D01*
X159432142Y-116059523D01*
X159394047Y-116135714D01*
X159355952Y-116173809D01*
X159279761Y-116211904D01*
X159089285Y-116211904D01*
X159013095Y-116173809D01*
X158975000Y-116135714D01*
X159775000Y-116135714D02*
X159813095Y-116173809D01*
X159775000Y-116211904D01*
X159736904Y-116173809D01*
X159775000Y-116135714D01*
X159775000Y-116211904D01*
X160498809Y-115678571D02*
X160498809Y-116211904D01*
X160308333Y-115373809D02*
X160117857Y-115945238D01*
X160613095Y-115945238D01*
X151799404Y-48786904D02*
X150999404Y-48786904D01*
X150999404Y-48596428D01*
X151037500Y-48482142D01*
X151113690Y-48405952D01*
X151189880Y-48367857D01*
X151342261Y-48329761D01*
X151456547Y-48329761D01*
X151608928Y-48367857D01*
X151685119Y-48405952D01*
X151761309Y-48482142D01*
X151799404Y-48596428D01*
X151799404Y-48786904D01*
X151799404Y-47567857D02*
X151799404Y-48025000D01*
X151799404Y-47796428D02*
X150999404Y-47796428D01*
X151113690Y-47872619D01*
X151189880Y-47948809D01*
X151227976Y-48025000D01*
X151723214Y-47225000D02*
X151761309Y-47186904D01*
X151799404Y-47225000D01*
X151761309Y-47263095D01*
X151723214Y-47225000D01*
X151799404Y-47225000D01*
X151799404Y-46425000D02*
X151799404Y-46882142D01*
X151799404Y-46653571D02*
X150999404Y-46653571D01*
X151113690Y-46729761D01*
X151189880Y-46805952D01*
X151227976Y-46882142D01*
X120113095Y-59061904D02*
X120113095Y-58261904D01*
X120303571Y-58261904D01*
X120417857Y-58300000D01*
X120494047Y-58376190D01*
X120532142Y-58452380D01*
X120570238Y-58604761D01*
X120570238Y-58719047D01*
X120532142Y-58871428D01*
X120494047Y-58947619D01*
X120417857Y-59023809D01*
X120303571Y-59061904D01*
X120113095Y-59061904D01*
X120875000Y-58338095D02*
X120913095Y-58300000D01*
X120989285Y-58261904D01*
X121179761Y-58261904D01*
X121255952Y-58300000D01*
X121294047Y-58338095D01*
X121332142Y-58414285D01*
X121332142Y-58490476D01*
X121294047Y-58604761D01*
X120836904Y-59061904D01*
X121332142Y-59061904D01*
X121675000Y-58985714D02*
X121713095Y-59023809D01*
X121675000Y-59061904D01*
X121636904Y-59023809D01*
X121675000Y-58985714D01*
X121675000Y-59061904D01*
X122475000Y-59061904D02*
X122017857Y-59061904D01*
X122246428Y-59061904D02*
X122246428Y-58261904D01*
X122170238Y-58376190D01*
X122094047Y-58452380D01*
X122017857Y-58490476D01*
X186788095Y-55886904D02*
X186788095Y-55086904D01*
X186978571Y-55086904D01*
X187092857Y-55125000D01*
X187169047Y-55201190D01*
X187207142Y-55277380D01*
X187245238Y-55429761D01*
X187245238Y-55544047D01*
X187207142Y-55696428D01*
X187169047Y-55772619D01*
X187092857Y-55848809D01*
X186978571Y-55886904D01*
X186788095Y-55886904D01*
X188007142Y-55886904D02*
X187550000Y-55886904D01*
X187778571Y-55886904D02*
X187778571Y-55086904D01*
X187702380Y-55201190D01*
X187626190Y-55277380D01*
X187550000Y-55315476D01*
X188350000Y-55810714D02*
X188388095Y-55848809D01*
X188350000Y-55886904D01*
X188311904Y-55848809D01*
X188350000Y-55810714D01*
X188350000Y-55886904D01*
X189111904Y-55086904D02*
X188730952Y-55086904D01*
X188692857Y-55467857D01*
X188730952Y-55429761D01*
X188807142Y-55391666D01*
X188997619Y-55391666D01*
X189073809Y-55429761D01*
X189111904Y-55467857D01*
X189150000Y-55544047D01*
X189150000Y-55734523D01*
X189111904Y-55810714D01*
X189073809Y-55848809D01*
X188997619Y-55886904D01*
X188807142Y-55886904D01*
X188730952Y-55848809D01*
X188692857Y-55810714D01*
X186736904Y-86849404D02*
X185936904Y-86849404D01*
X185936904Y-86658928D01*
X185975000Y-86544642D01*
X186051190Y-86468452D01*
X186127380Y-86430357D01*
X186279761Y-86392261D01*
X186394047Y-86392261D01*
X186546428Y-86430357D01*
X186622619Y-86468452D01*
X186698809Y-86544642D01*
X186736904Y-86658928D01*
X186736904Y-86849404D01*
X185936904Y-86125595D02*
X185936904Y-85630357D01*
X186241666Y-85897023D01*
X186241666Y-85782738D01*
X186279761Y-85706547D01*
X186317857Y-85668452D01*
X186394047Y-85630357D01*
X186584523Y-85630357D01*
X186660714Y-85668452D01*
X186698809Y-85706547D01*
X186736904Y-85782738D01*
X186736904Y-86011309D01*
X186698809Y-86087500D01*
X186660714Y-86125595D01*
X186660714Y-85287500D02*
X186698809Y-85249404D01*
X186736904Y-85287500D01*
X186698809Y-85325595D01*
X186660714Y-85287500D01*
X186736904Y-85287500D01*
X186203571Y-84563690D02*
X186736904Y-84563690D01*
X185898809Y-84754166D02*
X186470238Y-84944642D01*
X186470238Y-84449404D01*
X129638095Y-97161904D02*
X129638095Y-96361904D01*
X129828571Y-96361904D01*
X129942857Y-96400000D01*
X130019047Y-96476190D01*
X130057142Y-96552380D01*
X130095238Y-96704761D01*
X130095238Y-96819047D01*
X130057142Y-96971428D01*
X130019047Y-97047619D01*
X129942857Y-97123809D01*
X129828571Y-97161904D01*
X129638095Y-97161904D01*
X130780952Y-96628571D02*
X130780952Y-97161904D01*
X130590476Y-96323809D02*
X130400000Y-96895238D01*
X130895238Y-96895238D01*
X131200000Y-97085714D02*
X131238095Y-97123809D01*
X131200000Y-97161904D01*
X131161904Y-97123809D01*
X131200000Y-97085714D01*
X131200000Y-97161904D01*
X131542857Y-96438095D02*
X131580952Y-96400000D01*
X131657142Y-96361904D01*
X131847619Y-96361904D01*
X131923809Y-96400000D01*
X131961904Y-96438095D01*
X132000000Y-96514285D01*
X132000000Y-96590476D01*
X131961904Y-96704761D01*
X131504761Y-97161904D01*
X132000000Y-97161904D01*
X120113095Y-78111904D02*
X120113095Y-77311904D01*
X120303571Y-77311904D01*
X120417857Y-77350000D01*
X120494047Y-77426190D01*
X120532142Y-77502380D01*
X120570238Y-77654761D01*
X120570238Y-77769047D01*
X120532142Y-77921428D01*
X120494047Y-77997619D01*
X120417857Y-78073809D01*
X120303571Y-78111904D01*
X120113095Y-78111904D01*
X120836904Y-77311904D02*
X121332142Y-77311904D01*
X121065476Y-77616666D01*
X121179761Y-77616666D01*
X121255952Y-77654761D01*
X121294047Y-77692857D01*
X121332142Y-77769047D01*
X121332142Y-77959523D01*
X121294047Y-78035714D01*
X121255952Y-78073809D01*
X121179761Y-78111904D01*
X120951190Y-78111904D01*
X120875000Y-78073809D01*
X120836904Y-78035714D01*
X121675000Y-78035714D02*
X121713095Y-78073809D01*
X121675000Y-78111904D01*
X121636904Y-78073809D01*
X121675000Y-78035714D01*
X121675000Y-78111904D01*
X122475000Y-78111904D02*
X122017857Y-78111904D01*
X122246428Y-78111904D02*
X122246428Y-77311904D01*
X122170238Y-77426190D01*
X122094047Y-77502380D01*
X122017857Y-77540476D01*
X148624404Y-48786904D02*
X147824404Y-48786904D01*
X147824404Y-48596428D01*
X147862500Y-48482142D01*
X147938690Y-48405952D01*
X148014880Y-48367857D01*
X148167261Y-48329761D01*
X148281547Y-48329761D01*
X148433928Y-48367857D01*
X148510119Y-48405952D01*
X148586309Y-48482142D01*
X148624404Y-48596428D01*
X148624404Y-48786904D01*
X148624404Y-47567857D02*
X148624404Y-48025000D01*
X148624404Y-47796428D02*
X147824404Y-47796428D01*
X147938690Y-47872619D01*
X148014880Y-47948809D01*
X148052976Y-48025000D01*
X148548214Y-47225000D02*
X148586309Y-47186904D01*
X148624404Y-47225000D01*
X148586309Y-47263095D01*
X148548214Y-47225000D01*
X148624404Y-47225000D01*
X147900595Y-46882142D02*
X147862500Y-46844047D01*
X147824404Y-46767857D01*
X147824404Y-46577380D01*
X147862500Y-46501190D01*
X147900595Y-46463095D01*
X147976785Y-46425000D01*
X148052976Y-46425000D01*
X148167261Y-46463095D01*
X148624404Y-46920238D01*
X148624404Y-46425000D01*
X186724404Y-105899404D02*
X185924404Y-105899404D01*
X185924404Y-105708928D01*
X185962500Y-105594642D01*
X186038690Y-105518452D01*
X186114880Y-105480357D01*
X186267261Y-105442261D01*
X186381547Y-105442261D01*
X186533928Y-105480357D01*
X186610119Y-105518452D01*
X186686309Y-105594642D01*
X186724404Y-105708928D01*
X186724404Y-105899404D01*
X186191071Y-104756547D02*
X186724404Y-104756547D01*
X185886309Y-104947023D02*
X186457738Y-105137500D01*
X186457738Y-104642261D01*
X186648214Y-104337500D02*
X186686309Y-104299404D01*
X186724404Y-104337500D01*
X186686309Y-104375595D01*
X186648214Y-104337500D01*
X186724404Y-104337500D01*
X186191071Y-103613690D02*
X186724404Y-103613690D01*
X185886309Y-103804166D02*
X186457738Y-103994642D01*
X186457738Y-103499404D01*
X129638095Y-93986904D02*
X129638095Y-93186904D01*
X129828571Y-93186904D01*
X129942857Y-93225000D01*
X130019047Y-93301190D01*
X130057142Y-93377380D01*
X130095238Y-93529761D01*
X130095238Y-93644047D01*
X130057142Y-93796428D01*
X130019047Y-93872619D01*
X129942857Y-93948809D01*
X129828571Y-93986904D01*
X129638095Y-93986904D01*
X130780952Y-93453571D02*
X130780952Y-93986904D01*
X130590476Y-93148809D02*
X130400000Y-93720238D01*
X130895238Y-93720238D01*
X131200000Y-93910714D02*
X131238095Y-93948809D01*
X131200000Y-93986904D01*
X131161904Y-93948809D01*
X131200000Y-93910714D01*
X131200000Y-93986904D01*
X132000000Y-93986904D02*
X131542857Y-93986904D01*
X131771428Y-93986904D02*
X131771428Y-93186904D01*
X131695238Y-93301190D01*
X131619047Y-93377380D01*
X131542857Y-93415476D01*
X148624404Y-67799404D02*
X147824404Y-67799404D01*
X147824404Y-67608928D01*
X147862500Y-67494642D01*
X147938690Y-67418452D01*
X148014880Y-67380357D01*
X148167261Y-67342261D01*
X148281547Y-67342261D01*
X148433928Y-67380357D01*
X148510119Y-67418452D01*
X148586309Y-67494642D01*
X148624404Y-67608928D01*
X148624404Y-67799404D01*
X147900595Y-67037500D02*
X147862500Y-66999404D01*
X147824404Y-66923214D01*
X147824404Y-66732738D01*
X147862500Y-66656547D01*
X147900595Y-66618452D01*
X147976785Y-66580357D01*
X148052976Y-66580357D01*
X148167261Y-66618452D01*
X148624404Y-67075595D01*
X148624404Y-66580357D01*
X148548214Y-66237500D02*
X148586309Y-66199404D01*
X148624404Y-66237500D01*
X148586309Y-66275595D01*
X148548214Y-66237500D01*
X148624404Y-66237500D01*
X147900595Y-65894642D02*
X147862500Y-65856547D01*
X147824404Y-65780357D01*
X147824404Y-65589880D01*
X147862500Y-65513690D01*
X147900595Y-65475595D01*
X147976785Y-65437500D01*
X148052976Y-65437500D01*
X148167261Y-65475595D01*
X148624404Y-65932738D01*
X148624404Y-65437500D01*
X139163095Y-78111904D02*
X139163095Y-77311904D01*
X139353571Y-77311904D01*
X139467857Y-77350000D01*
X139544047Y-77426190D01*
X139582142Y-77502380D01*
X139620238Y-77654761D01*
X139620238Y-77769047D01*
X139582142Y-77921428D01*
X139544047Y-77997619D01*
X139467857Y-78073809D01*
X139353571Y-78111904D01*
X139163095Y-78111904D01*
X139886904Y-77311904D02*
X140382142Y-77311904D01*
X140115476Y-77616666D01*
X140229761Y-77616666D01*
X140305952Y-77654761D01*
X140344047Y-77692857D01*
X140382142Y-77769047D01*
X140382142Y-77959523D01*
X140344047Y-78035714D01*
X140305952Y-78073809D01*
X140229761Y-78111904D01*
X140001190Y-78111904D01*
X139925000Y-78073809D01*
X139886904Y-78035714D01*
X140725000Y-78035714D02*
X140763095Y-78073809D01*
X140725000Y-78111904D01*
X140686904Y-78073809D01*
X140725000Y-78035714D01*
X140725000Y-78111904D01*
X141067857Y-77388095D02*
X141105952Y-77350000D01*
X141182142Y-77311904D01*
X141372619Y-77311904D01*
X141448809Y-77350000D01*
X141486904Y-77388095D01*
X141525000Y-77464285D01*
X141525000Y-77540476D01*
X141486904Y-77654761D01*
X141029761Y-78111904D01*
X141525000Y-78111904D01*
X189830654Y-86849404D02*
X189030654Y-86849404D01*
X189030654Y-86658928D01*
X189068750Y-86544642D01*
X189144940Y-86468452D01*
X189221130Y-86430357D01*
X189373511Y-86392261D01*
X189487797Y-86392261D01*
X189640178Y-86430357D01*
X189716369Y-86468452D01*
X189792559Y-86544642D01*
X189830654Y-86658928D01*
X189830654Y-86849404D01*
X189030654Y-86125595D02*
X189030654Y-85630357D01*
X189335416Y-85897023D01*
X189335416Y-85782738D01*
X189373511Y-85706547D01*
X189411607Y-85668452D01*
X189487797Y-85630357D01*
X189678273Y-85630357D01*
X189754464Y-85668452D01*
X189792559Y-85706547D01*
X189830654Y-85782738D01*
X189830654Y-86011309D01*
X189792559Y-86087500D01*
X189754464Y-86125595D01*
X189754464Y-85287500D02*
X189792559Y-85249404D01*
X189830654Y-85287500D01*
X189792559Y-85325595D01*
X189754464Y-85287500D01*
X189830654Y-85287500D01*
X189030654Y-84525595D02*
X189030654Y-84906547D01*
X189411607Y-84944642D01*
X189373511Y-84906547D01*
X189335416Y-84830357D01*
X189335416Y-84639880D01*
X189373511Y-84563690D01*
X189411607Y-84525595D01*
X189487797Y-84487500D01*
X189678273Y-84487500D01*
X189754464Y-84525595D01*
X189792559Y-84563690D01*
X189830654Y-84639880D01*
X189830654Y-84830357D01*
X189792559Y-84906547D01*
X189754464Y-84944642D01*
X148624404Y-105899404D02*
X147824404Y-105899404D01*
X147824404Y-105708928D01*
X147862500Y-105594642D01*
X147938690Y-105518452D01*
X148014880Y-105480357D01*
X148167261Y-105442261D01*
X148281547Y-105442261D01*
X148433928Y-105480357D01*
X148510119Y-105518452D01*
X148586309Y-105594642D01*
X148624404Y-105708928D01*
X148624404Y-105899404D01*
X147824404Y-104718452D02*
X147824404Y-105099404D01*
X148205357Y-105137500D01*
X148167261Y-105099404D01*
X148129166Y-105023214D01*
X148129166Y-104832738D01*
X148167261Y-104756547D01*
X148205357Y-104718452D01*
X148281547Y-104680357D01*
X148472023Y-104680357D01*
X148548214Y-104718452D01*
X148586309Y-104756547D01*
X148624404Y-104832738D01*
X148624404Y-105023214D01*
X148586309Y-105099404D01*
X148548214Y-105137500D01*
X148548214Y-104337500D02*
X148586309Y-104299404D01*
X148624404Y-104337500D01*
X148586309Y-104375595D01*
X148548214Y-104337500D01*
X148624404Y-104337500D01*
X147824404Y-104032738D02*
X147824404Y-103537500D01*
X148129166Y-103804166D01*
X148129166Y-103689880D01*
X148167261Y-103613690D01*
X148205357Y-103575595D01*
X148281547Y-103537500D01*
X148472023Y-103537500D01*
X148548214Y-103575595D01*
X148586309Y-103613690D01*
X148624404Y-103689880D01*
X148624404Y-103918452D01*
X148586309Y-103994642D01*
X148548214Y-104032738D01*
X129638095Y-116211904D02*
X129638095Y-115411904D01*
X129828571Y-115411904D01*
X129942857Y-115450000D01*
X130019047Y-115526190D01*
X130057142Y-115602380D01*
X130095238Y-115754761D01*
X130095238Y-115869047D01*
X130057142Y-116021428D01*
X130019047Y-116097619D01*
X129942857Y-116173809D01*
X129828571Y-116211904D01*
X129638095Y-116211904D01*
X130819047Y-115411904D02*
X130438095Y-115411904D01*
X130400000Y-115792857D01*
X130438095Y-115754761D01*
X130514285Y-115716666D01*
X130704761Y-115716666D01*
X130780952Y-115754761D01*
X130819047Y-115792857D01*
X130857142Y-115869047D01*
X130857142Y-116059523D01*
X130819047Y-116135714D01*
X130780952Y-116173809D01*
X130704761Y-116211904D01*
X130514285Y-116211904D01*
X130438095Y-116173809D01*
X130400000Y-116135714D01*
X131200000Y-116135714D02*
X131238095Y-116173809D01*
X131200000Y-116211904D01*
X131161904Y-116173809D01*
X131200000Y-116135714D01*
X131200000Y-116211904D01*
X132000000Y-116211904D02*
X131542857Y-116211904D01*
X131771428Y-116211904D02*
X131771428Y-115411904D01*
X131695238Y-115526190D01*
X131619047Y-115602380D01*
X131542857Y-115640476D01*
X168001904Y-48786904D02*
X167201904Y-48786904D01*
X167201904Y-48596428D01*
X167240000Y-48482142D01*
X167316190Y-48405952D01*
X167392380Y-48367857D01*
X167544761Y-48329761D01*
X167659047Y-48329761D01*
X167811428Y-48367857D01*
X167887619Y-48405952D01*
X167963809Y-48482142D01*
X168001904Y-48596428D01*
X168001904Y-48786904D01*
X168001904Y-47567857D02*
X168001904Y-48025000D01*
X168001904Y-47796428D02*
X167201904Y-47796428D01*
X167316190Y-47872619D01*
X167392380Y-47948809D01*
X167430476Y-48025000D01*
X167925714Y-47225000D02*
X167963809Y-47186904D01*
X168001904Y-47225000D01*
X167963809Y-47263095D01*
X167925714Y-47225000D01*
X168001904Y-47225000D01*
X167201904Y-46920238D02*
X167201904Y-46425000D01*
X167506666Y-46691666D01*
X167506666Y-46577380D01*
X167544761Y-46501190D01*
X167582857Y-46463095D01*
X167659047Y-46425000D01*
X167849523Y-46425000D01*
X167925714Y-46463095D01*
X167963809Y-46501190D01*
X168001904Y-46577380D01*
X168001904Y-46805952D01*
X167963809Y-46882142D01*
X167925714Y-46920238D01*
X151799404Y-67799404D02*
X150999404Y-67799404D01*
X150999404Y-67608928D01*
X151037500Y-67494642D01*
X151113690Y-67418452D01*
X151189880Y-67380357D01*
X151342261Y-67342261D01*
X151456547Y-67342261D01*
X151608928Y-67380357D01*
X151685119Y-67418452D01*
X151761309Y-67494642D01*
X151799404Y-67608928D01*
X151799404Y-67799404D01*
X151075595Y-67037500D02*
X151037500Y-66999404D01*
X150999404Y-66923214D01*
X150999404Y-66732738D01*
X151037500Y-66656547D01*
X151075595Y-66618452D01*
X151151785Y-66580357D01*
X151227976Y-66580357D01*
X151342261Y-66618452D01*
X151799404Y-67075595D01*
X151799404Y-66580357D01*
X151723214Y-66237500D02*
X151761309Y-66199404D01*
X151799404Y-66237500D01*
X151761309Y-66275595D01*
X151723214Y-66237500D01*
X151799404Y-66237500D01*
X150999404Y-65932738D02*
X150999404Y-65437500D01*
X151304166Y-65704166D01*
X151304166Y-65589880D01*
X151342261Y-65513690D01*
X151380357Y-65475595D01*
X151456547Y-65437500D01*
X151647023Y-65437500D01*
X151723214Y-65475595D01*
X151761309Y-65513690D01*
X151799404Y-65589880D01*
X151799404Y-65818452D01*
X151761309Y-65894642D01*
X151723214Y-65932738D01*
X189736904Y-105880654D02*
X188936904Y-105880654D01*
X188936904Y-105690178D01*
X188975000Y-105575892D01*
X189051190Y-105499702D01*
X189127380Y-105461607D01*
X189279761Y-105423511D01*
X189394047Y-105423511D01*
X189546428Y-105461607D01*
X189622619Y-105499702D01*
X189698809Y-105575892D01*
X189736904Y-105690178D01*
X189736904Y-105880654D01*
X189203571Y-104737797D02*
X189736904Y-104737797D01*
X188898809Y-104928273D02*
X189470238Y-105118750D01*
X189470238Y-104623511D01*
X189660714Y-104318750D02*
X189698809Y-104280654D01*
X189736904Y-104318750D01*
X189698809Y-104356845D01*
X189660714Y-104318750D01*
X189736904Y-104318750D01*
X188936904Y-103556845D02*
X188936904Y-103937797D01*
X189317857Y-103975892D01*
X189279761Y-103937797D01*
X189241666Y-103861607D01*
X189241666Y-103671130D01*
X189279761Y-103594940D01*
X189317857Y-103556845D01*
X189394047Y-103518750D01*
X189584523Y-103518750D01*
X189660714Y-103556845D01*
X189698809Y-103594940D01*
X189736904Y-103671130D01*
X189736904Y-103861607D01*
X189698809Y-103937797D01*
X189660714Y-103975892D01*
X148624404Y-86849404D02*
X147824404Y-86849404D01*
X147824404Y-86658928D01*
X147862500Y-86544642D01*
X147938690Y-86468452D01*
X148014880Y-86430357D01*
X148167261Y-86392261D01*
X148281547Y-86392261D01*
X148433928Y-86430357D01*
X148510119Y-86468452D01*
X148586309Y-86544642D01*
X148624404Y-86658928D01*
X148624404Y-86849404D01*
X147824404Y-85668452D02*
X147824404Y-86049404D01*
X148205357Y-86087500D01*
X148167261Y-86049404D01*
X148129166Y-85973214D01*
X148129166Y-85782738D01*
X148167261Y-85706547D01*
X148205357Y-85668452D01*
X148281547Y-85630357D01*
X148472023Y-85630357D01*
X148548214Y-85668452D01*
X148586309Y-85706547D01*
X148624404Y-85782738D01*
X148624404Y-85973214D01*
X148586309Y-86049404D01*
X148548214Y-86087500D01*
X148548214Y-85287500D02*
X148586309Y-85249404D01*
X148624404Y-85287500D01*
X148586309Y-85325595D01*
X148548214Y-85287500D01*
X148624404Y-85287500D01*
X147900595Y-84944642D02*
X147862500Y-84906547D01*
X147824404Y-84830357D01*
X147824404Y-84639880D01*
X147862500Y-84563690D01*
X147900595Y-84525595D01*
X147976785Y-84487500D01*
X148052976Y-84487500D01*
X148167261Y-84525595D01*
X148624404Y-84982738D01*
X148624404Y-84487500D01*
X151799404Y-86849404D02*
X150999404Y-86849404D01*
X150999404Y-86658928D01*
X151037500Y-86544642D01*
X151113690Y-86468452D01*
X151189880Y-86430357D01*
X151342261Y-86392261D01*
X151456547Y-86392261D01*
X151608928Y-86430357D01*
X151685119Y-86468452D01*
X151761309Y-86544642D01*
X151799404Y-86658928D01*
X151799404Y-86849404D01*
X150999404Y-86125595D02*
X150999404Y-85630357D01*
X151304166Y-85897023D01*
X151304166Y-85782738D01*
X151342261Y-85706547D01*
X151380357Y-85668452D01*
X151456547Y-85630357D01*
X151647023Y-85630357D01*
X151723214Y-85668452D01*
X151761309Y-85706547D01*
X151799404Y-85782738D01*
X151799404Y-86011309D01*
X151761309Y-86087500D01*
X151723214Y-86125595D01*
X151723214Y-85287500D02*
X151761309Y-85249404D01*
X151799404Y-85287500D01*
X151761309Y-85325595D01*
X151723214Y-85287500D01*
X151799404Y-85287500D01*
X150999404Y-84982738D02*
X150999404Y-84487500D01*
X151304166Y-84754166D01*
X151304166Y-84639880D01*
X151342261Y-84563690D01*
X151380357Y-84525595D01*
X151456547Y-84487500D01*
X151647023Y-84487500D01*
X151723214Y-84525595D01*
X151761309Y-84563690D01*
X151799404Y-84639880D01*
X151799404Y-84868452D01*
X151761309Y-84944642D01*
X151723214Y-84982738D01*
X170705654Y-48786904D02*
X169905654Y-48786904D01*
X169905654Y-48596428D01*
X169943750Y-48482142D01*
X170019940Y-48405952D01*
X170096130Y-48367857D01*
X170248511Y-48329761D01*
X170362797Y-48329761D01*
X170515178Y-48367857D01*
X170591369Y-48405952D01*
X170667559Y-48482142D01*
X170705654Y-48596428D01*
X170705654Y-48786904D01*
X170705654Y-47567857D02*
X170705654Y-48025000D01*
X170705654Y-47796428D02*
X169905654Y-47796428D01*
X170019940Y-47872619D01*
X170096130Y-47948809D01*
X170134226Y-48025000D01*
X170629464Y-47225000D02*
X170667559Y-47186904D01*
X170705654Y-47225000D01*
X170667559Y-47263095D01*
X170629464Y-47225000D01*
X170705654Y-47225000D01*
X170172321Y-46501190D02*
X170705654Y-46501190D01*
X169867559Y-46691666D02*
X170438988Y-46882142D01*
X170438988Y-46386904D01*
X167674404Y-67799404D02*
X166874404Y-67799404D01*
X166874404Y-67608928D01*
X166912500Y-67494642D01*
X166988690Y-67418452D01*
X167064880Y-67380357D01*
X167217261Y-67342261D01*
X167331547Y-67342261D01*
X167483928Y-67380357D01*
X167560119Y-67418452D01*
X167636309Y-67494642D01*
X167674404Y-67608928D01*
X167674404Y-67799404D01*
X166950595Y-67037500D02*
X166912500Y-66999404D01*
X166874404Y-66923214D01*
X166874404Y-66732738D01*
X166912500Y-66656547D01*
X166950595Y-66618452D01*
X167026785Y-66580357D01*
X167102976Y-66580357D01*
X167217261Y-66618452D01*
X167674404Y-67075595D01*
X167674404Y-66580357D01*
X167598214Y-66237500D02*
X167636309Y-66199404D01*
X167674404Y-66237500D01*
X167636309Y-66275595D01*
X167598214Y-66237500D01*
X167674404Y-66237500D01*
X167141071Y-65513690D02*
X167674404Y-65513690D01*
X166836309Y-65704166D02*
X167407738Y-65894642D01*
X167407738Y-65399404D01*
X151799404Y-105899404D02*
X150999404Y-105899404D01*
X150999404Y-105708928D01*
X151037500Y-105594642D01*
X151113690Y-105518452D01*
X151189880Y-105480357D01*
X151342261Y-105442261D01*
X151456547Y-105442261D01*
X151608928Y-105480357D01*
X151685119Y-105518452D01*
X151761309Y-105594642D01*
X151799404Y-105708928D01*
X151799404Y-105899404D01*
X151266071Y-104756547D02*
X151799404Y-104756547D01*
X150961309Y-104947023D02*
X151532738Y-105137500D01*
X151532738Y-104642261D01*
X151723214Y-104337500D02*
X151761309Y-104299404D01*
X151799404Y-104337500D01*
X151761309Y-104375595D01*
X151723214Y-104337500D01*
X151799404Y-104337500D01*
X150999404Y-104032738D02*
X150999404Y-103537500D01*
X151304166Y-103804166D01*
X151304166Y-103689880D01*
X151342261Y-103613690D01*
X151380357Y-103575595D01*
X151456547Y-103537500D01*
X151647023Y-103537500D01*
X151723214Y-103575595D01*
X151761309Y-103613690D01*
X151799404Y-103689880D01*
X151799404Y-103918452D01*
X151761309Y-103994642D01*
X151723214Y-104032738D01*
D13*
X196618154Y-127414880D02*
X196618154Y-126414880D01*
X197189583Y-127414880D02*
X196761011Y-126843452D01*
X197189583Y-126414880D02*
X196618154Y-126986309D01*
X198094345Y-126414880D02*
X197618154Y-126414880D01*
X197570535Y-126891071D01*
X197618154Y-126843452D01*
X197713392Y-126795833D01*
X197951488Y-126795833D01*
X198046726Y-126843452D01*
X198094345Y-126891071D01*
X198141964Y-126986309D01*
X198141964Y-127224404D01*
X198094345Y-127319642D01*
X198046726Y-127367261D01*
X197951488Y-127414880D01*
X197713392Y-127414880D01*
X197618154Y-127367261D01*
X197570535Y-127319642D01*
X198570535Y-127319642D02*
X198618154Y-127367261D01*
X198570535Y-127414880D01*
X198522916Y-127367261D01*
X198570535Y-127319642D01*
X198570535Y-127414880D01*
X199570535Y-127414880D02*
X198999107Y-127414880D01*
X199284821Y-127414880D02*
X199284821Y-126414880D01*
X199189583Y-126557738D01*
X199094345Y-126652976D01*
X198999107Y-126700595D01*
X199761011Y-127510119D02*
X200522916Y-127510119D01*
X201284821Y-127414880D02*
X200713392Y-127414880D01*
X200999107Y-127414880D02*
X200999107Y-126414880D01*
X200903869Y-126557738D01*
X200808630Y-126652976D01*
X200713392Y-126700595D01*
X202141964Y-126748214D02*
X202141964Y-127414880D01*
X201713392Y-126748214D02*
X201713392Y-127272023D01*
X201761011Y-127367261D01*
X201856250Y-127414880D01*
X201999107Y-127414880D01*
X202094345Y-127367261D01*
X202141964Y-127319642D01*
X202570535Y-126510119D02*
X202618154Y-126462500D01*
X202713392Y-126414880D01*
X202951488Y-126414880D01*
X203046726Y-126462500D01*
X203094345Y-126510119D01*
X203141964Y-126605357D01*
X203141964Y-126700595D01*
X203094345Y-126843452D01*
X202522916Y-127414880D01*
X203141964Y-127414880D01*
X133911904Y-131780505D02*
X133911904Y-130780505D01*
X134483333Y-131780505D02*
X134054761Y-131209077D01*
X134483333Y-130780505D02*
X133911904Y-131351934D01*
X135388095Y-130780505D02*
X134911904Y-130780505D01*
X134864285Y-131256696D01*
X134911904Y-131209077D01*
X135007142Y-131161458D01*
X135245238Y-131161458D01*
X135340476Y-131209077D01*
X135388095Y-131256696D01*
X135435714Y-131351934D01*
X135435714Y-131590029D01*
X135388095Y-131685267D01*
X135340476Y-131732886D01*
X135245238Y-131780505D01*
X135007142Y-131780505D01*
X134911904Y-131732886D01*
X134864285Y-131685267D01*
X135864285Y-131685267D02*
X135911904Y-131732886D01*
X135864285Y-131780505D01*
X135816666Y-131732886D01*
X135864285Y-131685267D01*
X135864285Y-131780505D01*
X136292857Y-130875744D02*
X136340476Y-130828125D01*
X136435714Y-130780505D01*
X136673809Y-130780505D01*
X136769047Y-130828125D01*
X136816666Y-130875744D01*
X136864285Y-130970982D01*
X136864285Y-131066220D01*
X136816666Y-131209077D01*
X136245238Y-131780505D01*
X136864285Y-131780505D01*
X137054761Y-131875744D02*
X137816666Y-131875744D01*
X138578571Y-131780505D02*
X138007142Y-131780505D01*
X138292857Y-131780505D02*
X138292857Y-130780505D01*
X138197619Y-130923363D01*
X138102380Y-131018601D01*
X138007142Y-131066220D01*
X139435714Y-131113839D02*
X139435714Y-131780505D01*
X139007142Y-131113839D02*
X139007142Y-131637648D01*
X139054761Y-131732886D01*
X139150000Y-131780505D01*
X139292857Y-131780505D01*
X139388095Y-131732886D01*
X139435714Y-131685267D01*
X139864285Y-130875744D02*
X139911904Y-130828125D01*
X140007142Y-130780505D01*
X140245238Y-130780505D01*
X140340476Y-130828125D01*
X140388095Y-130875744D01*
X140435714Y-130970982D01*
X140435714Y-131066220D01*
X140388095Y-131209077D01*
X139816666Y-131780505D01*
X140435714Y-131780505D01*
X156136904Y-131780505D02*
X156136904Y-130780505D01*
X156708333Y-131780505D02*
X156279761Y-131209077D01*
X156708333Y-130780505D02*
X156136904Y-131351934D01*
X157613095Y-130780505D02*
X157136904Y-130780505D01*
X157089285Y-131256696D01*
X157136904Y-131209077D01*
X157232142Y-131161458D01*
X157470238Y-131161458D01*
X157565476Y-131209077D01*
X157613095Y-131256696D01*
X157660714Y-131351934D01*
X157660714Y-131590029D01*
X157613095Y-131685267D01*
X157565476Y-131732886D01*
X157470238Y-131780505D01*
X157232142Y-131780505D01*
X157136904Y-131732886D01*
X157089285Y-131685267D01*
X158089285Y-131685267D02*
X158136904Y-131732886D01*
X158089285Y-131780505D01*
X158041666Y-131732886D01*
X158089285Y-131685267D01*
X158089285Y-131780505D01*
X158470238Y-130780505D02*
X159089285Y-130780505D01*
X158755952Y-131161458D01*
X158898809Y-131161458D01*
X158994047Y-131209077D01*
X159041666Y-131256696D01*
X159089285Y-131351934D01*
X159089285Y-131590029D01*
X159041666Y-131685267D01*
X158994047Y-131732886D01*
X158898809Y-131780505D01*
X158613095Y-131780505D01*
X158517857Y-131732886D01*
X158470238Y-131685267D01*
X159279761Y-131875744D02*
X160041666Y-131875744D01*
X160184523Y-130780505D02*
X160851190Y-130780505D01*
X160422619Y-131780505D01*
X161660714Y-131113839D02*
X161660714Y-131780505D01*
X161232142Y-131113839D02*
X161232142Y-131637648D01*
X161279761Y-131732886D01*
X161375000Y-131780505D01*
X161517857Y-131780505D01*
X161613095Y-131732886D01*
X161660714Y-131685267D01*
X162660714Y-131780505D02*
X162089285Y-131780505D01*
X162375000Y-131780505D02*
X162375000Y-130780505D01*
X162279761Y-130923363D01*
X162184523Y-131018601D01*
X162089285Y-131066220D01*
D14*
X131610119Y-70264880D02*
X131610119Y-69264880D01*
X132181547Y-70264880D02*
X131752976Y-69693452D01*
X132181547Y-69264880D02*
X131610119Y-69836309D01*
X132562500Y-69360119D02*
X132610119Y-69312500D01*
X132705357Y-69264880D01*
X132943452Y-69264880D01*
X133038690Y-69312500D01*
X133086309Y-69360119D01*
X133133928Y-69455357D01*
X133133928Y-69550595D01*
X133086309Y-69693452D01*
X132514880Y-70264880D01*
X133133928Y-70264880D01*
X133562500Y-70169642D02*
X133610119Y-70217261D01*
X133562500Y-70264880D01*
X133514880Y-70217261D01*
X133562500Y-70169642D01*
X133562500Y-70264880D01*
X133991071Y-69360119D02*
X134038690Y-69312500D01*
X134133928Y-69264880D01*
X134372023Y-69264880D01*
X134467261Y-69312500D01*
X134514880Y-69360119D01*
X134562500Y-69455357D01*
X134562500Y-69550595D01*
X134514880Y-69693452D01*
X133943452Y-70264880D01*
X134562500Y-70264880D01*
X134752976Y-70360119D02*
X135514880Y-70360119D01*
X136276785Y-70264880D02*
X135705357Y-70264880D01*
X135991071Y-70264880D02*
X135991071Y-69264880D01*
X135895833Y-69407738D01*
X135800595Y-69502976D01*
X135705357Y-69550595D01*
X136705357Y-70169642D02*
X136752976Y-70217261D01*
X136705357Y-70264880D01*
X136657738Y-70217261D01*
X136705357Y-70169642D01*
X136705357Y-70264880D01*
X137657738Y-69264880D02*
X137181547Y-69264880D01*
X137133928Y-69741071D01*
X137181547Y-69693452D01*
X137276785Y-69645833D01*
X137514880Y-69645833D01*
X137610119Y-69693452D01*
X137657738Y-69741071D01*
X137705357Y-69836309D01*
X137705357Y-70074404D01*
X137657738Y-70169642D01*
X137610119Y-70217261D01*
X137514880Y-70264880D01*
X137276785Y-70264880D01*
X137181547Y-70217261D01*
X137133928Y-70169642D01*
X138562500Y-69598214D02*
X138562500Y-70264880D01*
X138133928Y-69598214D02*
X138133928Y-70122023D01*
X138181547Y-70217261D01*
X138276785Y-70264880D01*
X138419642Y-70264880D01*
X138514880Y-70217261D01*
X138562500Y-70169642D01*
X139562500Y-70264880D02*
X138991071Y-70264880D01*
X139276785Y-70264880D02*
X139276785Y-69264880D01*
X139181547Y-69407738D01*
X139086309Y-69502976D01*
X138991071Y-69550595D01*
X128752678Y-89314880D02*
X128752678Y-88314880D01*
X129324107Y-89314880D02*
X128895535Y-88743452D01*
X129324107Y-88314880D02*
X128752678Y-88886309D01*
X129657440Y-88314880D02*
X130276488Y-88314880D01*
X129943154Y-88695833D01*
X130086011Y-88695833D01*
X130181250Y-88743452D01*
X130228869Y-88791071D01*
X130276488Y-88886309D01*
X130276488Y-89124404D01*
X130228869Y-89219642D01*
X130181250Y-89267261D01*
X130086011Y-89314880D01*
X129800297Y-89314880D01*
X129705059Y-89267261D01*
X129657440Y-89219642D01*
X130705059Y-89219642D02*
X130752678Y-89267261D01*
X130705059Y-89314880D01*
X130657440Y-89267261D01*
X130705059Y-89219642D01*
X130705059Y-89314880D01*
X131133630Y-88410119D02*
X131181250Y-88362500D01*
X131276488Y-88314880D01*
X131514583Y-88314880D01*
X131609821Y-88362500D01*
X131657440Y-88410119D01*
X131705059Y-88505357D01*
X131705059Y-88600595D01*
X131657440Y-88743452D01*
X131086011Y-89314880D01*
X131705059Y-89314880D01*
X131895535Y-89410119D02*
X132657440Y-89410119D01*
X133419345Y-89314880D02*
X132847916Y-89314880D01*
X133133630Y-89314880D02*
X133133630Y-88314880D01*
X133038392Y-88457738D01*
X132943154Y-88552976D01*
X132847916Y-88600595D01*
X133847916Y-89219642D02*
X133895535Y-89267261D01*
X133847916Y-89314880D01*
X133800297Y-89267261D01*
X133847916Y-89219642D01*
X133847916Y-89314880D01*
X134228869Y-88314880D02*
X134895535Y-88314880D01*
X134466964Y-89314880D01*
X135752678Y-88314880D02*
X135276488Y-88314880D01*
X135228869Y-88791071D01*
X135276488Y-88743452D01*
X135371726Y-88695833D01*
X135609821Y-88695833D01*
X135705059Y-88743452D01*
X135752678Y-88791071D01*
X135800297Y-88886309D01*
X135800297Y-89124404D01*
X135752678Y-89219642D01*
X135705059Y-89267261D01*
X135609821Y-89314880D01*
X135371726Y-89314880D01*
X135276488Y-89267261D01*
X135228869Y-89219642D01*
X136657440Y-88648214D02*
X136657440Y-89314880D01*
X136228869Y-88648214D02*
X136228869Y-89172023D01*
X136276488Y-89267261D01*
X136371726Y-89314880D01*
X136514583Y-89314880D01*
X136609821Y-89267261D01*
X136657440Y-89219642D01*
X137657440Y-89314880D02*
X137086011Y-89314880D01*
X137371726Y-89314880D02*
X137371726Y-88314880D01*
X137276488Y-88457738D01*
X137181250Y-88552976D01*
X137086011Y-88600595D01*
X166852678Y-89314880D02*
X166852678Y-88314880D01*
X167424107Y-89314880D02*
X166995535Y-88743452D01*
X167424107Y-88314880D02*
X166852678Y-88886309D01*
X167757440Y-88314880D02*
X168376488Y-88314880D01*
X168043154Y-88695833D01*
X168186011Y-88695833D01*
X168281250Y-88743452D01*
X168328869Y-88791071D01*
X168376488Y-88886309D01*
X168376488Y-89124404D01*
X168328869Y-89219642D01*
X168281250Y-89267261D01*
X168186011Y-89314880D01*
X167900297Y-89314880D01*
X167805059Y-89267261D01*
X167757440Y-89219642D01*
X168805059Y-89219642D02*
X168852678Y-89267261D01*
X168805059Y-89314880D01*
X168757440Y-89267261D01*
X168805059Y-89219642D01*
X168805059Y-89314880D01*
X169186011Y-88314880D02*
X169805059Y-88314880D01*
X169471726Y-88695833D01*
X169614583Y-88695833D01*
X169709821Y-88743452D01*
X169757440Y-88791071D01*
X169805059Y-88886309D01*
X169805059Y-89124404D01*
X169757440Y-89219642D01*
X169709821Y-89267261D01*
X169614583Y-89314880D01*
X169328869Y-89314880D01*
X169233630Y-89267261D01*
X169186011Y-89219642D01*
X169995535Y-89410119D02*
X170757440Y-89410119D01*
X170947916Y-88410119D02*
X170995535Y-88362500D01*
X171090773Y-88314880D01*
X171328869Y-88314880D01*
X171424107Y-88362500D01*
X171471726Y-88410119D01*
X171519345Y-88505357D01*
X171519345Y-88600595D01*
X171471726Y-88743452D01*
X170900297Y-89314880D01*
X171519345Y-89314880D01*
X171947916Y-89219642D02*
X171995535Y-89267261D01*
X171947916Y-89314880D01*
X171900297Y-89267261D01*
X171947916Y-89219642D01*
X171947916Y-89314880D01*
X172376488Y-88410119D02*
X172424107Y-88362500D01*
X172519345Y-88314880D01*
X172757440Y-88314880D01*
X172852678Y-88362500D01*
X172900297Y-88410119D01*
X172947916Y-88505357D01*
X172947916Y-88600595D01*
X172900297Y-88743452D01*
X172328869Y-89314880D01*
X172947916Y-89314880D01*
X173852678Y-88314880D02*
X173376488Y-88314880D01*
X173328869Y-88791071D01*
X173376488Y-88743452D01*
X173471726Y-88695833D01*
X173709821Y-88695833D01*
X173805059Y-88743452D01*
X173852678Y-88791071D01*
X173900297Y-88886309D01*
X173900297Y-89124404D01*
X173852678Y-89219642D01*
X173805059Y-89267261D01*
X173709821Y-89314880D01*
X173471726Y-89314880D01*
X173376488Y-89267261D01*
X173328869Y-89219642D01*
X174757440Y-88648214D02*
X174757440Y-89314880D01*
X174328869Y-88648214D02*
X174328869Y-89172023D01*
X174376488Y-89267261D01*
X174471726Y-89314880D01*
X174614583Y-89314880D01*
X174709821Y-89267261D01*
X174757440Y-89219642D01*
X175757440Y-89314880D02*
X175186011Y-89314880D01*
X175471726Y-89314880D02*
X175471726Y-88314880D01*
X175376488Y-88457738D01*
X175281250Y-88552976D01*
X175186011Y-88600595D01*
X128752678Y-108364880D02*
X128752678Y-107364880D01*
X129324107Y-108364880D02*
X128895535Y-107793452D01*
X129324107Y-107364880D02*
X128752678Y-107936309D01*
X130181250Y-107698214D02*
X130181250Y-108364880D01*
X129943154Y-107317261D02*
X129705059Y-108031547D01*
X130324107Y-108031547D01*
X130705059Y-108269642D02*
X130752678Y-108317261D01*
X130705059Y-108364880D01*
X130657440Y-108317261D01*
X130705059Y-108269642D01*
X130705059Y-108364880D01*
X131133630Y-107460119D02*
X131181250Y-107412500D01*
X131276488Y-107364880D01*
X131514583Y-107364880D01*
X131609821Y-107412500D01*
X131657440Y-107460119D01*
X131705059Y-107555357D01*
X131705059Y-107650595D01*
X131657440Y-107793452D01*
X131086011Y-108364880D01*
X131705059Y-108364880D01*
X131895535Y-108460119D02*
X132657440Y-108460119D01*
X133419345Y-108364880D02*
X132847916Y-108364880D01*
X133133630Y-108364880D02*
X133133630Y-107364880D01*
X133038392Y-107507738D01*
X132943154Y-107602976D01*
X132847916Y-107650595D01*
X133847916Y-108269642D02*
X133895535Y-108317261D01*
X133847916Y-108364880D01*
X133800297Y-108317261D01*
X133847916Y-108269642D01*
X133847916Y-108364880D01*
X134228869Y-107364880D02*
X134895535Y-107364880D01*
X134466964Y-108364880D01*
X135752678Y-107364880D02*
X135276488Y-107364880D01*
X135228869Y-107841071D01*
X135276488Y-107793452D01*
X135371726Y-107745833D01*
X135609821Y-107745833D01*
X135705059Y-107793452D01*
X135752678Y-107841071D01*
X135800297Y-107936309D01*
X135800297Y-108174404D01*
X135752678Y-108269642D01*
X135705059Y-108317261D01*
X135609821Y-108364880D01*
X135371726Y-108364880D01*
X135276488Y-108317261D01*
X135228869Y-108269642D01*
X136657440Y-107698214D02*
X136657440Y-108364880D01*
X136228869Y-107698214D02*
X136228869Y-108222023D01*
X136276488Y-108317261D01*
X136371726Y-108364880D01*
X136514583Y-108364880D01*
X136609821Y-108317261D01*
X136657440Y-108269642D01*
X137657440Y-108364880D02*
X137086011Y-108364880D01*
X137371726Y-108364880D02*
X137371726Y-107364880D01*
X137276488Y-107507738D01*
X137181250Y-107602976D01*
X137086011Y-107650595D01*
X166852678Y-108364880D02*
X166852678Y-107364880D01*
X167424107Y-108364880D02*
X166995535Y-107793452D01*
X167424107Y-107364880D02*
X166852678Y-107936309D01*
X168281250Y-107698214D02*
X168281250Y-108364880D01*
X168043154Y-107317261D02*
X167805059Y-108031547D01*
X168424107Y-108031547D01*
X168805059Y-108269642D02*
X168852678Y-108317261D01*
X168805059Y-108364880D01*
X168757440Y-108317261D01*
X168805059Y-108269642D01*
X168805059Y-108364880D01*
X169186011Y-107364880D02*
X169805059Y-107364880D01*
X169471726Y-107745833D01*
X169614583Y-107745833D01*
X169709821Y-107793452D01*
X169757440Y-107841071D01*
X169805059Y-107936309D01*
X169805059Y-108174404D01*
X169757440Y-108269642D01*
X169709821Y-108317261D01*
X169614583Y-108364880D01*
X169328869Y-108364880D01*
X169233630Y-108317261D01*
X169186011Y-108269642D01*
X169995535Y-108460119D02*
X170757440Y-108460119D01*
X170947916Y-107460119D02*
X170995535Y-107412500D01*
X171090773Y-107364880D01*
X171328869Y-107364880D01*
X171424107Y-107412500D01*
X171471726Y-107460119D01*
X171519345Y-107555357D01*
X171519345Y-107650595D01*
X171471726Y-107793452D01*
X170900297Y-108364880D01*
X171519345Y-108364880D01*
X171947916Y-108269642D02*
X171995535Y-108317261D01*
X171947916Y-108364880D01*
X171900297Y-108317261D01*
X171947916Y-108269642D01*
X171947916Y-108364880D01*
X172376488Y-107460119D02*
X172424107Y-107412500D01*
X172519345Y-107364880D01*
X172757440Y-107364880D01*
X172852678Y-107412500D01*
X172900297Y-107460119D01*
X172947916Y-107555357D01*
X172947916Y-107650595D01*
X172900297Y-107793452D01*
X172328869Y-108364880D01*
X172947916Y-108364880D01*
X173852678Y-107364880D02*
X173376488Y-107364880D01*
X173328869Y-107841071D01*
X173376488Y-107793452D01*
X173471726Y-107745833D01*
X173709821Y-107745833D01*
X173805059Y-107793452D01*
X173852678Y-107841071D01*
X173900297Y-107936309D01*
X173900297Y-108174404D01*
X173852678Y-108269642D01*
X173805059Y-108317261D01*
X173709821Y-108364880D01*
X173471726Y-108364880D01*
X173376488Y-108317261D01*
X173328869Y-108269642D01*
X174757440Y-107698214D02*
X174757440Y-108364880D01*
X174328869Y-107698214D02*
X174328869Y-108222023D01*
X174376488Y-108317261D01*
X174471726Y-108364880D01*
X174614583Y-108364880D01*
X174709821Y-108317261D01*
X174757440Y-108269642D01*
X175757440Y-108364880D02*
X175186011Y-108364880D01*
X175471726Y-108364880D02*
X175471726Y-107364880D01*
X175376488Y-107507738D01*
X175281250Y-107602976D01*
X175186011Y-107650595D01*
X184711904Y-51214880D02*
X184711904Y-50214880D01*
X185283333Y-51214880D02*
X184854761Y-50643452D01*
X185283333Y-50214880D02*
X184711904Y-50786309D01*
X186235714Y-51214880D02*
X185664285Y-51214880D01*
X185950000Y-51214880D02*
X185950000Y-50214880D01*
X185854761Y-50357738D01*
X185759523Y-50452976D01*
X185664285Y-50500595D01*
X186664285Y-51119642D02*
X186711904Y-51167261D01*
X186664285Y-51214880D01*
X186616666Y-51167261D01*
X186664285Y-51119642D01*
X186664285Y-51214880D01*
X187569047Y-50548214D02*
X187569047Y-51214880D01*
X187330952Y-50167261D02*
X187092857Y-50881547D01*
X187711904Y-50881547D01*
X187854761Y-51310119D02*
X188616666Y-51310119D01*
X188807142Y-50310119D02*
X188854761Y-50262500D01*
X188950000Y-50214880D01*
X189188095Y-50214880D01*
X189283333Y-50262500D01*
X189330952Y-50310119D01*
X189378571Y-50405357D01*
X189378571Y-50500595D01*
X189330952Y-50643452D01*
X188759523Y-51214880D01*
X189378571Y-51214880D01*
X190235714Y-50548214D02*
X190235714Y-51214880D01*
X189807142Y-50548214D02*
X189807142Y-51072023D01*
X189854761Y-51167261D01*
X189950000Y-51214880D01*
X190092857Y-51214880D01*
X190188095Y-51167261D01*
X190235714Y-51119642D01*
X191235714Y-51214880D02*
X190664285Y-51214880D01*
X190950000Y-51214880D02*
X190950000Y-50214880D01*
X190854761Y-50357738D01*
X190759523Y-50452976D01*
X190664285Y-50500595D01*
M02*
