M48
; DRILL file {KiCad (5.1.4-0-10_14)} date 2020 January 29, Wednesday 22:53:16
; FORMAT={-:-/ absolute / inch / decimal}
; #@! TF.CreationDate,2020-01-29T22:53:16+01:00
; #@! TF.GenerationSoftware,Kicad,Pcbnew,(5.1.4-0-10_14)
; #@! TF.FileFunction,Plated,1,2,PTH
FMAT,2
INCH
T1C0.0157
T2C0.0276
T3C0.0394
T4C0.0430
T5C0.0590
T6C0.0630
T7C0.0787
%
G90
G05
T1
X4.8718Y-4.4395
X5.634Y-4.4048
X5.65Y-4.2325
X5.7434Y-3.811
X5.9309Y-3.8735
X5.9777Y-3.8423
X6.009Y-4.186
X6.1369Y-4.2641
X6.6163Y-4.3246
X6.6411Y-4.2955
X6.6496Y-2.311
X6.7121Y-3.2173
X6.7776Y-1.7143
X6.79Y-2.8264
X6.79Y-2.9985
X6.7902Y-2.8579
X7.1184Y-4.3579
X7.1809Y-2.311
X7.509Y-2.0923
X8.009Y-2.9048
T2
X5.3711Y-2.311
X5.6781Y-2.311
X6.5898Y-3.811
X5.9621Y-3.97
X5.9621Y-4.2771
X5.8371Y-1.7215
X5.8371Y-2.0285
X4.6211Y-2.186
X4.9281Y-2.311
X5.3711Y-3.061
X5.6781Y-3.061
X5.8371Y-3.97
X5.8371Y-4.2771
X5.9621Y-2.47
X5.9621Y-2.7771
X4.6211Y-2.311
X4.9961Y-4.561
X5.3031Y-4.561
X5.3031Y-3.811
X6.8711Y-2.936
X7.1781Y-2.936
X4.9281Y-2.186
X6.1211Y-2.311
X6.4281Y-2.311
X4.6211Y-3.061
X4.9281Y-3.061
X4.9961Y-3.811
X6.7064Y-1.72
X6.7064Y-2.0271
X5.8371Y-3.22
X5.8371Y-3.5271
X6.8969Y-3.811
X7.4023Y-3.811
X7.7094Y-3.811
X4.9961Y-3.686
X5.3031Y-3.686
X5.0861Y-1.8423
X5.1176Y-1.7734
X5.1491Y-1.8423
X5.1806Y-1.7734
X5.8371Y-2.47
X5.8371Y-2.7771
X6.5871Y-2.47
X6.5871Y-2.7771
X5.2121Y-1.8423
X6.5871Y-1.72
X6.5871Y-2.0271
X5.9621Y-1.7215
X5.9621Y-2.0285
X7.6211Y-2.936
X7.9281Y-2.936
X7.6211Y-2.311
X7.9281Y-2.311
T3
X5.4656Y-3.5923
X5.5837Y-3.5923
T4
X8.0906Y-4.15
X6.4146Y-3.0704
X6.4146Y-3.6704
X6.5146Y-3.0704
X6.5146Y-3.6704
X6.6146Y-3.0704
X6.6146Y-3.6704
X6.7146Y-3.0704
X6.7146Y-3.6704
X6.8146Y-3.0704
X6.8146Y-3.6704
X6.9146Y-3.0704
X6.9146Y-3.6704
X7.0146Y-3.0704
X7.0146Y-3.6704
X7.1146Y-3.0704
X7.2146Y-3.0704
X7.3146Y-3.0704
X7.4146Y-3.0704
X7.4146Y-3.6704
X7.5146Y-3.0704
X7.5146Y-3.6704
X4.4621Y-3.9493
X4.4621Y-4.0477
X7.4621Y-2.4584
X7.4621Y-2.6789
X4.4465Y-3.336
X4.4465Y-3.436
X4.4465Y-3.536
X7.4621Y-2.5686
X7.4621Y-2.7891
X8.0906Y-4.25
X7.1146Y-3.6704
X8.0906Y-4.35
X8.0906Y-4.45
X8.0906Y-4.55
X7.2146Y-3.6704
X8.0906Y-4.65
X8.0906Y-4.75
X7.3146Y-3.6704
X8.0906Y-4.85
X4.4624Y-4.15
X8.1027Y-3.5204
X8.1027Y-3.3204
X8.1027Y-3.4204
X4.4465Y-3.0985
X4.4465Y-2.8985
X4.4465Y-2.9985
X8.1046Y-2.896
X8.1046Y-3.096
X8.1046Y-2.996
X4.455Y-2.35
X4.455Y-2.15
X4.455Y-2.25
X8.1016Y-2.3522
X8.1016Y-2.1522
X8.1016Y-2.2522
X4.4624Y-4.25
X4.4624Y-4.35
X4.4624Y-4.45
X4.4624Y-4.55
X4.4624Y-4.65
X4.4624Y-4.75
X4.4624Y-4.85
X8.0871Y-3.9493
X8.0871Y-4.0477
T5
X5.0934Y-3.2735
X5.3434Y-3.1735
X5.3753Y-4.0228
X5.6253Y-3.9228
X5.5621Y-4.7735
X5.8121Y-4.6735
X7.0621Y-2.5235
X5.1871Y-2.5235
X5.4371Y-2.4235
X7.3121Y-2.4235
X6.5934Y-3.2735
X6.8434Y-3.1735
X4.6246Y-4.7735
X6.6871Y-4.7735
X6.4996Y-4.7735
X6.7496Y-4.6735
X4.6246Y-4.0235
X4.8746Y-3.9235
X6.8739Y-1.7735
X7.1239Y-1.6735
X5.4253Y-2.075
X4.8121Y-4.7735
X7.8731Y-2.4243
X6.1246Y-2.5243
X6.3746Y-2.4243
X7.4371Y-4.7735
X7.6871Y-4.6735
X4.6261Y-3.2735
X7.6231Y-4.0228
X7.8731Y-3.9228
X5.6753Y-1.975
X7.2496Y-1.7735
X5.0621Y-4.6735
X6.9371Y-4.6735
X7.4996Y-1.6735
X6.5934Y-4.0235
X7.6231Y-2.5243
X7.0621Y-4.0235
X7.3121Y-3.9235
X7.6246Y-4.7735
X7.8746Y-4.6735
X6.1246Y-3.2735
X6.3746Y-3.1735
X6.1246Y-4.7735
X6.3746Y-4.6735
X6.8434Y-3.9235
X4.8761Y-3.1735
X4.8746Y-4.6735
X7.1246Y-4.6735
X7.1239Y-3.9228
X6.2184Y-4.0235
X6.4684Y-3.9235
X6.8739Y-4.0228
X5.6253Y-3.1735
X5.3753Y-3.2735
X6.3746Y-1.675
X5.3746Y-4.7735
X5.6246Y-4.6735
X6.1246Y-1.775
X6.1246Y-4.0228
X6.8746Y-4.7735
X5.9996Y-4.6735
X5.7496Y-4.7735
X6.3746Y-3.9228
X5.0934Y-4.0235
X5.3434Y-3.9235
X4.6261Y-2.5243
X4.8761Y-2.4243
X6.8739Y-2.5243
X7.1239Y-2.4243
X7.8731Y-1.6735
X4.6261Y-1.775
X4.8761Y-1.675
X7.8731Y-3.1735
X6.8739Y-3.2735
X7.1239Y-3.1735
X7.6231Y-3.2735
X5.3753Y-2.5243
X5.6253Y-2.4243
X7.1559Y-3.2735
X7.4059Y-3.1735
X7.6231Y-1.7735
T6
X4.9956Y-1.5883
X4.9956Y-1.7734
X5.3027Y-1.5883
X5.3027Y-1.7734
T7
G00X7.9181Y-3.7389
M15
G01X8.1937Y-3.7389
M16
G05
G00X4.3518Y-3.7389
M15
G01X4.6274Y-3.7389
M16
G05
T0
M30
