G04 #@! TF.GenerationSoftware,KiCad,Pcbnew,(5.1.4-0-10_14)*
G04 #@! TF.CreationDate,2019-12-14T20:50:31+01:00*
G04 #@! TF.ProjectId,tripel,74726970-656c-42e6-9b69-6361645f7063,rev?*
G04 #@! TF.SameCoordinates,Original*
G04 #@! TF.FileFunction,Legend,Top*
G04 #@! TF.FilePolarity,Positive*
%FSLAX46Y46*%
G04 Gerber Fmt 4.6, Leading zero omitted, Abs format (unit mm)*
G04 Created by KiCad (PCBNEW (5.1.4-0-10_14)) date 2019-12-14 20:50:31*
%MOMM*%
%LPD*%
G04 APERTURE LIST*
%ADD10C,0.150000*%
%ADD11C,0.317500*%
%ADD12C,0.381000*%
%ADD13C,0.200000*%
%ADD14C,0.203200*%
G04 APERTURE END LIST*
D10*
X127847916Y-113683630D02*
X127657440Y-113683630D01*
X127562202Y-113731250D01*
X127514583Y-113778869D01*
X127419345Y-113921726D01*
X127371726Y-114112202D01*
X127371726Y-114493154D01*
X127419345Y-114588392D01*
X127466964Y-114636011D01*
X127562202Y-114683630D01*
X127752678Y-114683630D01*
X127847916Y-114636011D01*
X127895535Y-114588392D01*
X127943154Y-114493154D01*
X127943154Y-114255059D01*
X127895535Y-114159821D01*
X127847916Y-114112202D01*
X127752678Y-114064583D01*
X127562202Y-114064583D01*
X127466964Y-114112202D01*
X127419345Y-114159821D01*
X127371726Y-114255059D01*
X128562202Y-113683630D02*
X128657440Y-113683630D01*
X128752678Y-113731250D01*
X128800297Y-113778869D01*
X128847916Y-113874107D01*
X128895535Y-114064583D01*
X128895535Y-114302678D01*
X128847916Y-114493154D01*
X128800297Y-114588392D01*
X128752678Y-114636011D01*
X128657440Y-114683630D01*
X128562202Y-114683630D01*
X128466964Y-114636011D01*
X128419345Y-114588392D01*
X128371726Y-114493154D01*
X128324107Y-114302678D01*
X128324107Y-114064583D01*
X128371726Y-113874107D01*
X128419345Y-113778869D01*
X128466964Y-113731250D01*
X128562202Y-113683630D01*
X129276488Y-114683630D02*
X130038392Y-113683630D01*
X129419345Y-113683630D02*
X129514583Y-113731250D01*
X129562202Y-113826488D01*
X129514583Y-113921726D01*
X129419345Y-113969345D01*
X129324107Y-113921726D01*
X129276488Y-113826488D01*
X129324107Y-113731250D01*
X129419345Y-113683630D01*
X129990773Y-114636011D02*
X130038392Y-114540773D01*
X129990773Y-114445535D01*
X129895535Y-114397916D01*
X129800297Y-114445535D01*
X129752678Y-114540773D01*
X129800297Y-114636011D01*
X129895535Y-114683630D01*
X129990773Y-114636011D01*
X131371726Y-114683630D02*
X131276488Y-114636011D01*
X131228869Y-114588392D01*
X131181250Y-114493154D01*
X131181250Y-114207440D01*
X131228869Y-114112202D01*
X131276488Y-114064583D01*
X131371726Y-114016964D01*
X131514583Y-114016964D01*
X131609821Y-114064583D01*
X131657440Y-114112202D01*
X131705059Y-114207440D01*
X131705059Y-114493154D01*
X131657440Y-114588392D01*
X131609821Y-114636011D01*
X131514583Y-114683630D01*
X131371726Y-114683630D01*
X132133630Y-114683630D02*
X132133630Y-114016964D01*
X132133630Y-114207440D02*
X132181250Y-114112202D01*
X132228869Y-114064583D01*
X132324107Y-114016964D01*
X132419345Y-114016964D01*
X132609821Y-114016964D02*
X132990773Y-114016964D01*
X132752678Y-113683630D02*
X132752678Y-114540773D01*
X132800297Y-114636011D01*
X132895535Y-114683630D01*
X132990773Y-114683630D01*
X133324107Y-114683630D02*
X133324107Y-113683630D01*
X133752678Y-114683630D02*
X133752678Y-114159821D01*
X133705059Y-114064583D01*
X133609821Y-114016964D01*
X133466964Y-114016964D01*
X133371726Y-114064583D01*
X133324107Y-114112202D01*
X134371726Y-114683630D02*
X134276488Y-114636011D01*
X134228869Y-114588392D01*
X134181250Y-114493154D01*
X134181250Y-114207440D01*
X134228869Y-114112202D01*
X134276488Y-114064583D01*
X134371726Y-114016964D01*
X134514583Y-114016964D01*
X134609821Y-114064583D01*
X134657440Y-114112202D01*
X134705059Y-114207440D01*
X134705059Y-114493154D01*
X134657440Y-114588392D01*
X134609821Y-114636011D01*
X134514583Y-114683630D01*
X134371726Y-114683630D01*
X135276488Y-114683630D02*
X135181250Y-114636011D01*
X135133630Y-114540773D01*
X135133630Y-113683630D01*
X135657440Y-114683630D02*
X135657440Y-114016964D01*
X135657440Y-113683630D02*
X135609821Y-113731250D01*
X135657440Y-113778869D01*
X135705059Y-113731250D01*
X135657440Y-113683630D01*
X135657440Y-113778869D01*
X136133630Y-114016964D02*
X136133630Y-114683630D01*
X136133630Y-114112202D02*
X136181250Y-114064583D01*
X136276488Y-114016964D01*
X136419345Y-114016964D01*
X136514583Y-114064583D01*
X136562202Y-114159821D01*
X136562202Y-114683630D01*
X137419345Y-114636011D02*
X137324107Y-114683630D01*
X137133630Y-114683630D01*
X137038392Y-114636011D01*
X136990773Y-114540773D01*
X136990773Y-114159821D01*
X137038392Y-114064583D01*
X137133630Y-114016964D01*
X137324107Y-114016964D01*
X137419345Y-114064583D01*
X137466964Y-114159821D01*
X137466964Y-114255059D01*
X136990773Y-114350297D01*
X138324107Y-114683630D02*
X138324107Y-114159821D01*
X138276488Y-114064583D01*
X138181250Y-114016964D01*
X137990773Y-114016964D01*
X137895535Y-114064583D01*
X138324107Y-114636011D02*
X138228869Y-114683630D01*
X137990773Y-114683630D01*
X137895535Y-114636011D01*
X137847916Y-114540773D01*
X137847916Y-114445535D01*
X137895535Y-114350297D01*
X137990773Y-114302678D01*
X138228869Y-114302678D01*
X138324107Y-114255059D01*
X138800297Y-114683630D02*
X138800297Y-114016964D01*
X138800297Y-114207440D02*
X138847916Y-114112202D01*
X138895535Y-114064583D01*
X138990773Y-114016964D01*
X139086011Y-114016964D01*
X130205059Y-115286011D02*
X129347916Y-116571726D01*
X130966964Y-115666964D02*
X130966964Y-116333630D01*
X130538392Y-115666964D02*
X130538392Y-116190773D01*
X130586011Y-116286011D01*
X130681250Y-116333630D01*
X130824107Y-116333630D01*
X130919345Y-116286011D01*
X130966964Y-116238392D01*
X132157440Y-115286011D02*
X131300297Y-116571726D01*
X132490773Y-115666964D02*
X132490773Y-116666964D01*
X132490773Y-115714583D02*
X132586011Y-115666964D01*
X132776488Y-115666964D01*
X132871726Y-115714583D01*
X132919345Y-115762202D01*
X132966964Y-115857440D01*
X132966964Y-116143154D01*
X132919345Y-116238392D01*
X132871726Y-116286011D01*
X132776488Y-116333630D01*
X132586011Y-116333630D01*
X132490773Y-116286011D01*
X133776488Y-116286011D02*
X133681250Y-116333630D01*
X133490773Y-116333630D01*
X133395535Y-116286011D01*
X133347916Y-116190773D01*
X133347916Y-115809821D01*
X133395535Y-115714583D01*
X133490773Y-115666964D01*
X133681250Y-115666964D01*
X133776488Y-115714583D01*
X133824107Y-115809821D01*
X133824107Y-115905059D01*
X133347916Y-116000297D01*
X134633630Y-116286011D02*
X134538392Y-116333630D01*
X134347916Y-116333630D01*
X134252678Y-116286011D01*
X134205059Y-116190773D01*
X134205059Y-115809821D01*
X134252678Y-115714583D01*
X134347916Y-115666964D01*
X134538392Y-115666964D01*
X134633630Y-115714583D01*
X134681250Y-115809821D01*
X134681250Y-115905059D01*
X134205059Y-116000297D01*
X135109821Y-115666964D02*
X135109821Y-116524107D01*
X135062202Y-116619345D01*
X134966964Y-116666964D01*
X134919345Y-116666964D01*
X135109821Y-115333630D02*
X135062202Y-115381250D01*
X135109821Y-115428869D01*
X135157440Y-115381250D01*
X135109821Y-115333630D01*
X135109821Y-115428869D01*
X135966964Y-116286011D02*
X135871726Y-116333630D01*
X135681250Y-116333630D01*
X135586011Y-116286011D01*
X135538392Y-116190773D01*
X135538392Y-115809821D01*
X135586011Y-115714583D01*
X135681250Y-115666964D01*
X135871726Y-115666964D01*
X135966964Y-115714583D01*
X136014583Y-115809821D01*
X136014583Y-115905059D01*
X135538392Y-116000297D01*
X136443154Y-116333630D02*
X136443154Y-115333630D01*
X136871726Y-116333630D02*
X136871726Y-115809821D01*
X136824107Y-115714583D01*
X136728869Y-115666964D01*
X136586011Y-115666964D01*
X136490773Y-115714583D01*
X136443154Y-115762202D01*
X200047095Y-130859880D02*
X200713761Y-130859880D01*
X200285190Y-131859880D01*
X201523285Y-131193214D02*
X201523285Y-131859880D01*
X201094714Y-131193214D02*
X201094714Y-131717023D01*
X201142333Y-131812261D01*
X201237571Y-131859880D01*
X201380428Y-131859880D01*
X201475666Y-131812261D01*
X201523285Y-131764642D01*
X202713761Y-131812261D02*
X202809000Y-131859880D01*
X202999476Y-131859880D01*
X203094714Y-131812261D01*
X203142333Y-131717023D01*
X203142333Y-131669404D01*
X203094714Y-131574166D01*
X202999476Y-131526547D01*
X202856619Y-131526547D01*
X202761380Y-131478928D01*
X202713761Y-131383690D01*
X202713761Y-131336071D01*
X202761380Y-131240833D01*
X202856619Y-131193214D01*
X202999476Y-131193214D01*
X203094714Y-131240833D01*
X203428047Y-131193214D02*
X203809000Y-131193214D01*
X203570904Y-130859880D02*
X203570904Y-131717023D01*
X203618523Y-131812261D01*
X203713761Y-131859880D01*
X203809000Y-131859880D01*
X204570904Y-131859880D02*
X204570904Y-131336071D01*
X204523285Y-131240833D01*
X204428047Y-131193214D01*
X204237571Y-131193214D01*
X204142333Y-131240833D01*
X204570904Y-131812261D02*
X204475666Y-131859880D01*
X204237571Y-131859880D01*
X204142333Y-131812261D01*
X204094714Y-131717023D01*
X204094714Y-131621785D01*
X204142333Y-131526547D01*
X204237571Y-131478928D01*
X204475666Y-131478928D01*
X204570904Y-131431309D01*
X205047095Y-131859880D02*
X205047095Y-130859880D01*
X205047095Y-131240833D02*
X205142333Y-131193214D01*
X205332809Y-131193214D01*
X205428047Y-131240833D01*
X205475666Y-131288452D01*
X205523285Y-131383690D01*
X205523285Y-131669404D01*
X205475666Y-131764642D01*
X205428047Y-131812261D01*
X205332809Y-131859880D01*
X205142333Y-131859880D01*
X205047095Y-131812261D01*
X127254000Y-38100000D02*
X134493000Y-38100000D01*
X187085119Y-116302380D02*
X187085119Y-115635714D01*
X187085119Y-115826190D02*
X187132738Y-115730952D01*
X187180357Y-115683333D01*
X187275595Y-115635714D01*
X187370833Y-115635714D01*
X188085119Y-116254761D02*
X187989880Y-116302380D01*
X187799404Y-116302380D01*
X187704166Y-116254761D01*
X187656547Y-116159523D01*
X187656547Y-115778571D01*
X187704166Y-115683333D01*
X187799404Y-115635714D01*
X187989880Y-115635714D01*
X188085119Y-115683333D01*
X188132738Y-115778571D01*
X188132738Y-115873809D01*
X187656547Y-115969047D01*
X188466071Y-115635714D02*
X188704166Y-116302380D01*
X188942261Y-115635714D01*
X190037500Y-115397619D02*
X190085119Y-115350000D01*
X190180357Y-115302380D01*
X190418452Y-115302380D01*
X190513690Y-115350000D01*
X190561309Y-115397619D01*
X190608928Y-115492857D01*
X190608928Y-115588095D01*
X190561309Y-115730952D01*
X189989880Y-116302380D01*
X190608928Y-116302380D01*
X191037500Y-116207142D02*
X191085119Y-116254761D01*
X191037500Y-116302380D01*
X190989880Y-116254761D01*
X191037500Y-116207142D01*
X191037500Y-116302380D01*
X191418452Y-115302380D02*
X192037500Y-115302380D01*
X191704166Y-115683333D01*
X191847023Y-115683333D01*
X191942261Y-115730952D01*
X191989880Y-115778571D01*
X192037500Y-115873809D01*
X192037500Y-116111904D01*
X191989880Y-116207142D01*
X191942261Y-116254761D01*
X191847023Y-116302380D01*
X191561309Y-116302380D01*
X191466071Y-116254761D01*
X191418452Y-116207142D01*
D11*
X178044494Y-114357886D02*
X179187351Y-114357886D01*
X178615922Y-116357886D02*
X178615922Y-114357886D01*
X179854017Y-116357886D02*
X179854017Y-115024553D01*
X179854017Y-115405505D02*
X179949255Y-115215029D01*
X180044494Y-115119791D01*
X180234970Y-115024553D01*
X180425446Y-115024553D01*
X181092113Y-116357886D02*
X181092113Y-115024553D01*
X181092113Y-114357886D02*
X180996875Y-114453125D01*
X181092113Y-114548363D01*
X181187351Y-114453125D01*
X181092113Y-114357886D01*
X181092113Y-114548363D01*
X182044494Y-115024553D02*
X182044494Y-117024553D01*
X182044494Y-115119791D02*
X182234970Y-115024553D01*
X182615922Y-115024553D01*
X182806398Y-115119791D01*
X182901636Y-115215029D01*
X182996875Y-115405505D01*
X182996875Y-115976934D01*
X182901636Y-116167410D01*
X182806398Y-116262648D01*
X182615922Y-116357886D01*
X182234970Y-116357886D01*
X182044494Y-116262648D01*
X184615922Y-116262648D02*
X184425446Y-116357886D01*
X184044494Y-116357886D01*
X183854017Y-116262648D01*
X183758779Y-116072172D01*
X183758779Y-115310267D01*
X183854017Y-115119791D01*
X184044494Y-115024553D01*
X184425446Y-115024553D01*
X184615922Y-115119791D01*
X184711160Y-115310267D01*
X184711160Y-115500744D01*
X183758779Y-115691220D01*
X185854017Y-116357886D02*
X185663541Y-116262648D01*
X185568303Y-116072172D01*
X185568303Y-114357886D01*
D12*
X191087500Y-43053000D02*
X191087500Y-41275000D01*
X191087500Y-53975000D02*
X191087500Y-52197000D01*
X192865500Y-53975000D02*
X191087500Y-53975000D01*
X203787500Y-53975000D02*
X202009500Y-53975000D01*
X203787500Y-52197000D02*
X203787500Y-53975000D01*
X203787500Y-41275000D02*
X203787500Y-43053000D01*
X202009500Y-41275000D02*
X203787500Y-41275000D01*
X191087500Y-41275000D02*
X192865500Y-41275000D01*
X133993750Y-43053000D02*
X133993750Y-41275000D01*
X133993750Y-53975000D02*
X133993750Y-52197000D01*
X135771750Y-53975000D02*
X133993750Y-53975000D01*
X146693750Y-53975000D02*
X144915750Y-53975000D01*
X146693750Y-52197000D02*
X146693750Y-53975000D01*
X146693750Y-41275000D02*
X146693750Y-43053000D01*
X144915750Y-41275000D02*
X146693750Y-41275000D01*
X133993750Y-41275000D02*
X135771750Y-41275000D01*
X133993750Y-62084250D02*
X133993750Y-60306250D01*
X133993750Y-73006250D02*
X133993750Y-71228250D01*
X135771750Y-73006250D02*
X133993750Y-73006250D01*
X146693750Y-73006250D02*
X144915750Y-73006250D01*
X146693750Y-71228250D02*
X146693750Y-73006250D01*
X146693750Y-60306250D02*
X146693750Y-62084250D01*
X144915750Y-60306250D02*
X146693750Y-60306250D01*
X133993750Y-60306250D02*
X135771750Y-60306250D01*
X114962500Y-62084250D02*
X114962500Y-60306250D01*
X114962500Y-73006250D02*
X114962500Y-71228250D01*
X116740500Y-73006250D02*
X114962500Y-73006250D01*
X127662500Y-73006250D02*
X125884500Y-73006250D01*
X127662500Y-71228250D02*
X127662500Y-73006250D01*
X127662500Y-60306250D02*
X127662500Y-62084250D01*
X125884500Y-60306250D02*
X127662500Y-60306250D01*
X114962500Y-60306250D02*
X116740500Y-60306250D01*
X114925000Y-119215500D02*
X114925000Y-117437500D01*
X114925000Y-130137500D02*
X114925000Y-128359500D01*
X116703000Y-130137500D02*
X114925000Y-130137500D01*
X127625000Y-130137500D02*
X125847000Y-130137500D01*
X127625000Y-128359500D02*
X127625000Y-130137500D01*
X127625000Y-117437500D02*
X127625000Y-119215500D01*
X125847000Y-117437500D02*
X127625000Y-117437500D01*
X114925000Y-117437500D02*
X116703000Y-117437500D01*
X138737500Y-119215500D02*
X138737500Y-117437500D01*
X138737500Y-130137500D02*
X138737500Y-128359500D01*
X140515500Y-130137500D02*
X138737500Y-130137500D01*
X151437500Y-130137500D02*
X149659500Y-130137500D01*
X151437500Y-128359500D02*
X151437500Y-130137500D01*
X151437500Y-117437500D02*
X151437500Y-119215500D01*
X149659500Y-117437500D02*
X151437500Y-117437500D01*
X138737500Y-117437500D02*
X140515500Y-117437500D01*
X186362500Y-119215500D02*
X186362500Y-117437500D01*
X186362500Y-130137500D02*
X186362500Y-128359500D01*
X188140500Y-130137500D02*
X186362500Y-130137500D01*
X199062500Y-130137500D02*
X197284500Y-130137500D01*
X199062500Y-128359500D02*
X199062500Y-130137500D01*
X199062500Y-117437500D02*
X199062500Y-119215500D01*
X197284500Y-117437500D02*
X199062500Y-117437500D01*
X186362500Y-117437500D02*
X188140500Y-117437500D01*
X119687500Y-119215500D02*
X119687500Y-117437500D01*
X119687500Y-130137500D02*
X119687500Y-128359500D01*
X121465500Y-130137500D02*
X119687500Y-130137500D01*
X132387500Y-130137500D02*
X130609500Y-130137500D01*
X132387500Y-128359500D02*
X132387500Y-130137500D01*
X132387500Y-117437500D02*
X132387500Y-119215500D01*
X130609500Y-117437500D02*
X132387500Y-117437500D01*
X119687500Y-117437500D02*
X121465500Y-117437500D01*
X167312500Y-119215500D02*
X167312500Y-117437500D01*
X167312500Y-130137500D02*
X167312500Y-128359500D01*
X169090500Y-130137500D02*
X167312500Y-130137500D01*
X180012500Y-130137500D02*
X178234500Y-130137500D01*
X180012500Y-128359500D02*
X180012500Y-130137500D01*
X180012500Y-117437500D02*
X180012500Y-119215500D01*
X178234500Y-117437500D02*
X180012500Y-117437500D01*
X167312500Y-117437500D02*
X169090500Y-117437500D01*
X172075000Y-119215500D02*
X172075000Y-117437500D01*
X172075000Y-130137500D02*
X172075000Y-128359500D01*
X173853000Y-130137500D02*
X172075000Y-130137500D01*
X184775000Y-130137500D02*
X182997000Y-130137500D01*
X184775000Y-128359500D02*
X184775000Y-130137500D01*
X184775000Y-117437500D02*
X184775000Y-119215500D01*
X182997000Y-117437500D02*
X184775000Y-117437500D01*
X172075000Y-117437500D02*
X173853000Y-117437500D01*
X172056250Y-43053000D02*
X172056250Y-41275000D01*
X172056250Y-53975000D02*
X172056250Y-52197000D01*
X173834250Y-53975000D02*
X172056250Y-53975000D01*
X184756250Y-53975000D02*
X182978250Y-53975000D01*
X184756250Y-52197000D02*
X184756250Y-53975000D01*
X184756250Y-41275000D02*
X184756250Y-43053000D01*
X182978250Y-41275000D02*
X184756250Y-41275000D01*
X172056250Y-41275000D02*
X173834250Y-41275000D01*
X153025000Y-43053000D02*
X153025000Y-41275000D01*
X153025000Y-53975000D02*
X153025000Y-52197000D01*
X154803000Y-53975000D02*
X153025000Y-53975000D01*
X165725000Y-53975000D02*
X163947000Y-53975000D01*
X165725000Y-52197000D02*
X165725000Y-53975000D01*
X165725000Y-41275000D02*
X165725000Y-43053000D01*
X163947000Y-41275000D02*
X165725000Y-41275000D01*
X153025000Y-41275000D02*
X154803000Y-41275000D01*
X114962500Y-43053000D02*
X114962500Y-41275000D01*
X114962500Y-53975000D02*
X114962500Y-52197000D01*
X116740500Y-53975000D02*
X114962500Y-53975000D01*
X127662500Y-53975000D02*
X125884500Y-53975000D01*
X127662500Y-52197000D02*
X127662500Y-53975000D01*
X127662500Y-41275000D02*
X127662500Y-43053000D01*
X125884500Y-41275000D02*
X127662500Y-41275000D01*
X114962500Y-41275000D02*
X116740500Y-41275000D01*
X191087500Y-62084250D02*
X191087500Y-60306250D01*
X191087500Y-73006250D02*
X191087500Y-71228250D01*
X192865500Y-73006250D02*
X191087500Y-73006250D01*
X203787500Y-73006250D02*
X202009500Y-73006250D01*
X203787500Y-71228250D02*
X203787500Y-73006250D01*
X203787500Y-60306250D02*
X203787500Y-62084250D01*
X202009500Y-60306250D02*
X203787500Y-60306250D01*
X191087500Y-60306250D02*
X192865500Y-60306250D01*
X172056250Y-62084250D02*
X172056250Y-60306250D01*
X172056250Y-73006250D02*
X172056250Y-71228250D01*
X173834250Y-73006250D02*
X172056250Y-73006250D01*
X184756250Y-73006250D02*
X182978250Y-73006250D01*
X184756250Y-71228250D02*
X184756250Y-73006250D01*
X184756250Y-60306250D02*
X184756250Y-62084250D01*
X182978250Y-60306250D02*
X184756250Y-60306250D01*
X172056250Y-60306250D02*
X173834250Y-60306250D01*
X153025000Y-62084250D02*
X153025000Y-60306250D01*
X153025000Y-73006250D02*
X153025000Y-71228250D01*
X154803000Y-73006250D02*
X153025000Y-73006250D01*
X165725000Y-73006250D02*
X163947000Y-73006250D01*
X165725000Y-71228250D02*
X165725000Y-73006250D01*
X165725000Y-60306250D02*
X165725000Y-62084250D01*
X163947000Y-60306250D02*
X165725000Y-60306250D01*
X153025000Y-60306250D02*
X154803000Y-60306250D01*
X191087500Y-81115500D02*
X191087500Y-79337500D01*
X191087500Y-92037500D02*
X191087500Y-90259500D01*
X192865500Y-92037500D02*
X191087500Y-92037500D01*
X203787500Y-92037500D02*
X202009500Y-92037500D01*
X203787500Y-90259500D02*
X203787500Y-92037500D01*
X203787500Y-79337500D02*
X203787500Y-81115500D01*
X202009500Y-79337500D02*
X203787500Y-79337500D01*
X191087500Y-79337500D02*
X192865500Y-79337500D01*
X172056250Y-81115500D02*
X172056250Y-79337500D01*
X172056250Y-92037500D02*
X172056250Y-90259500D01*
X173834250Y-92037500D02*
X172056250Y-92037500D01*
X184756250Y-92037500D02*
X182978250Y-92037500D01*
X184756250Y-90259500D02*
X184756250Y-92037500D01*
X184756250Y-79337500D02*
X184756250Y-81115500D01*
X182978250Y-79337500D02*
X184756250Y-79337500D01*
X172056250Y-79337500D02*
X173834250Y-79337500D01*
X114962500Y-81115500D02*
X114962500Y-79337500D01*
X114962500Y-92037500D02*
X114962500Y-90259500D01*
X116740500Y-92037500D02*
X114962500Y-92037500D01*
X127662500Y-92037500D02*
X125884500Y-92037500D01*
X127662500Y-90259500D02*
X127662500Y-92037500D01*
X127662500Y-79337500D02*
X127662500Y-81115500D01*
X125884500Y-79337500D02*
X127662500Y-79337500D01*
X114962500Y-79337500D02*
X116740500Y-79337500D01*
X133993750Y-81115500D02*
X133993750Y-79337500D01*
X133993750Y-92037500D02*
X133993750Y-90259500D01*
X135771750Y-92037500D02*
X133993750Y-92037500D01*
X146693750Y-92037500D02*
X144915750Y-92037500D01*
X146693750Y-90259500D02*
X146693750Y-92037500D01*
X146693750Y-79337500D02*
X146693750Y-81115500D01*
X144915750Y-79337500D02*
X146693750Y-79337500D01*
X133993750Y-79337500D02*
X135771750Y-79337500D01*
X153025000Y-81115500D02*
X153025000Y-79337500D01*
X153025000Y-92037500D02*
X153025000Y-90259500D01*
X154803000Y-92037500D02*
X153025000Y-92037500D01*
X165725000Y-92037500D02*
X163947000Y-92037500D01*
X165725000Y-90259500D02*
X165725000Y-92037500D01*
X165725000Y-79337500D02*
X165725000Y-81115500D01*
X163947000Y-79337500D02*
X165725000Y-79337500D01*
X153025000Y-79337500D02*
X154803000Y-79337500D01*
X133993750Y-100146750D02*
X133993750Y-98368750D01*
X133993750Y-111068750D02*
X133993750Y-109290750D01*
X135771750Y-111068750D02*
X133993750Y-111068750D01*
X146693750Y-111068750D02*
X144915750Y-111068750D01*
X146693750Y-109290750D02*
X146693750Y-111068750D01*
X146693750Y-98368750D02*
X146693750Y-100146750D01*
X144915750Y-98368750D02*
X146693750Y-98368750D01*
X133993750Y-98368750D02*
X135771750Y-98368750D01*
X114925000Y-100165500D02*
X114925000Y-98387500D01*
X114925000Y-111087500D02*
X114925000Y-109309500D01*
X116703000Y-111087500D02*
X114925000Y-111087500D01*
X127625000Y-111087500D02*
X125847000Y-111087500D01*
X127625000Y-109309500D02*
X127625000Y-111087500D01*
X127625000Y-98387500D02*
X127625000Y-100165500D01*
X125847000Y-98387500D02*
X127625000Y-98387500D01*
X114925000Y-98387500D02*
X116703000Y-98387500D01*
X172056250Y-100146750D02*
X172056250Y-98368750D01*
X172056250Y-111068750D02*
X172056250Y-109290750D01*
X173834250Y-111068750D02*
X172056250Y-111068750D01*
X184756250Y-111068750D02*
X182978250Y-111068750D01*
X184756250Y-109290750D02*
X184756250Y-111068750D01*
X184756250Y-98368750D02*
X184756250Y-100146750D01*
X182978250Y-98368750D02*
X184756250Y-98368750D01*
X172056250Y-98368750D02*
X173834250Y-98368750D01*
X153025000Y-100146750D02*
X153025000Y-98368750D01*
X153025000Y-111068750D02*
X153025000Y-109290750D01*
X154803000Y-111068750D02*
X153025000Y-111068750D01*
X165725000Y-111068750D02*
X163947000Y-111068750D01*
X165725000Y-109290750D02*
X165725000Y-111068750D01*
X165725000Y-98368750D02*
X165725000Y-100146750D01*
X163947000Y-98368750D02*
X165725000Y-98368750D01*
X153025000Y-98368750D02*
X154803000Y-98368750D01*
X191087500Y-100146750D02*
X191087500Y-98368750D01*
X191087500Y-111068750D02*
X191087500Y-109290750D01*
X192865500Y-111068750D02*
X191087500Y-111068750D01*
X203787500Y-111068750D02*
X202009500Y-111068750D01*
X203787500Y-109290750D02*
X203787500Y-111068750D01*
X203787500Y-98368750D02*
X203787500Y-100146750D01*
X202009500Y-98368750D02*
X203787500Y-98368750D01*
X191087500Y-98368750D02*
X192865500Y-98368750D01*
X143500000Y-119215500D02*
X143500000Y-117437500D01*
X143500000Y-130137500D02*
X143500000Y-128359500D01*
X145278000Y-130137500D02*
X143500000Y-130137500D01*
X156200000Y-130137500D02*
X154422000Y-130137500D01*
X156200000Y-128359500D02*
X156200000Y-130137500D01*
X156200000Y-117437500D02*
X156200000Y-119215500D01*
X154422000Y-117437500D02*
X156200000Y-117437500D01*
X143500000Y-117437500D02*
X145278000Y-117437500D01*
X162550000Y-119215500D02*
X162550000Y-117437500D01*
X162550000Y-130137500D02*
X162550000Y-128359500D01*
X164328000Y-130137500D02*
X162550000Y-130137500D01*
X175250000Y-130137500D02*
X173472000Y-130137500D01*
X175250000Y-128359500D02*
X175250000Y-130137500D01*
X175250000Y-117437500D02*
X175250000Y-119215500D01*
X173472000Y-117437500D02*
X175250000Y-117437500D01*
X162550000Y-117437500D02*
X164328000Y-117437500D01*
D13*
X185321250Y-107012500D02*
X187721250Y-107012500D01*
X185321250Y-107187500D02*
X187721250Y-107187500D01*
X185321250Y-107362500D02*
X187721250Y-107362500D01*
X187721250Y-107762500D02*
X185321250Y-107762500D01*
X185321250Y-107537500D02*
X187721250Y-107537500D01*
X185321250Y-107662500D02*
X187721250Y-107662500D01*
X185321250Y-107737500D02*
X185321250Y-101937500D01*
X185321250Y-101937500D02*
X187721250Y-101937500D01*
X187721250Y-101937500D02*
X187721250Y-107737500D01*
X150237500Y-49900000D02*
X152637500Y-49900000D01*
X150237500Y-50075000D02*
X152637500Y-50075000D01*
X150237500Y-50250000D02*
X152637500Y-50250000D01*
X152637500Y-50650000D02*
X150237500Y-50650000D01*
X150237500Y-50425000D02*
X152637500Y-50425000D01*
X150237500Y-50550000D02*
X152637500Y-50550000D01*
X150237500Y-50625000D02*
X150237500Y-44825000D01*
X150237500Y-44825000D02*
X152637500Y-44825000D01*
X152637500Y-44825000D02*
X152637500Y-50625000D01*
X128081250Y-68931250D02*
X130481250Y-68931250D01*
X128081250Y-69106250D02*
X130481250Y-69106250D01*
X128081250Y-69281250D02*
X130481250Y-69281250D01*
X130481250Y-69681250D02*
X128081250Y-69681250D01*
X128081250Y-69456250D02*
X130481250Y-69456250D01*
X128081250Y-69581250D02*
X130481250Y-69581250D01*
X128081250Y-69656250D02*
X128081250Y-63856250D01*
X128081250Y-63856250D02*
X130481250Y-63856250D01*
X130481250Y-63856250D02*
X130481250Y-69656250D01*
X190575000Y-44825000D02*
X190575000Y-50625000D01*
X188175000Y-44825000D02*
X190575000Y-44825000D01*
X188175000Y-50625000D02*
X188175000Y-44825000D01*
X188175000Y-50550000D02*
X190575000Y-50550000D01*
X188175000Y-50425000D02*
X190575000Y-50425000D01*
X190575000Y-50650000D02*
X188175000Y-50650000D01*
X188175000Y-50250000D02*
X190575000Y-50250000D01*
X188175000Y-50075000D02*
X190575000Y-50075000D01*
X188175000Y-49900000D02*
X190575000Y-49900000D01*
X187575000Y-82887500D02*
X187575000Y-88687500D01*
X185175000Y-82887500D02*
X187575000Y-82887500D01*
X185175000Y-88687500D02*
X185175000Y-82887500D01*
X185175000Y-88612500D02*
X187575000Y-88612500D01*
X185175000Y-88487500D02*
X187575000Y-88487500D01*
X187575000Y-88712500D02*
X185175000Y-88712500D01*
X185175000Y-88312500D02*
X187575000Y-88312500D01*
X185175000Y-88137500D02*
X187575000Y-88137500D01*
X185175000Y-87962500D02*
X187575000Y-87962500D01*
X131175000Y-106993750D02*
X133575000Y-106993750D01*
X131175000Y-107168750D02*
X133575000Y-107168750D01*
X131175000Y-107343750D02*
X133575000Y-107343750D01*
X133575000Y-107743750D02*
X131175000Y-107743750D01*
X131175000Y-107518750D02*
X133575000Y-107518750D01*
X131175000Y-107643750D02*
X133575000Y-107643750D01*
X131175000Y-107718750D02*
X131175000Y-101918750D01*
X131175000Y-101918750D02*
X133575000Y-101918750D01*
X133575000Y-101918750D02*
X133575000Y-107718750D01*
X128081250Y-87962500D02*
X130481250Y-87962500D01*
X128081250Y-88137500D02*
X130481250Y-88137500D01*
X128081250Y-88312500D02*
X130481250Y-88312500D01*
X130481250Y-88712500D02*
X128081250Y-88712500D01*
X128081250Y-88487500D02*
X130481250Y-88487500D01*
X128081250Y-88612500D02*
X130481250Y-88612500D01*
X128081250Y-88687500D02*
X128081250Y-82887500D01*
X128081250Y-82887500D02*
X130481250Y-82887500D01*
X130481250Y-82887500D02*
X130481250Y-88687500D01*
X147062500Y-49900000D02*
X149462500Y-49900000D01*
X147062500Y-50075000D02*
X149462500Y-50075000D01*
X147062500Y-50250000D02*
X149462500Y-50250000D01*
X149462500Y-50650000D02*
X147062500Y-50650000D01*
X147062500Y-50425000D02*
X149462500Y-50425000D01*
X147062500Y-50550000D02*
X149462500Y-50550000D01*
X147062500Y-50625000D02*
X147062500Y-44825000D01*
X147062500Y-44825000D02*
X149462500Y-44825000D01*
X149462500Y-44825000D02*
X149462500Y-50625000D01*
X188175000Y-68931250D02*
X190575000Y-68931250D01*
X188175000Y-69106250D02*
X190575000Y-69106250D01*
X188175000Y-69281250D02*
X190575000Y-69281250D01*
X190575000Y-69681250D02*
X188175000Y-69681250D01*
X188175000Y-69456250D02*
X190575000Y-69456250D01*
X188175000Y-69581250D02*
X190575000Y-69581250D01*
X188175000Y-69656250D02*
X188175000Y-63856250D01*
X188175000Y-63856250D02*
X190575000Y-63856250D01*
X190575000Y-63856250D02*
X190575000Y-69656250D01*
X171637500Y-101918750D02*
X171637500Y-107718750D01*
X169237500Y-101918750D02*
X171637500Y-101918750D01*
X169237500Y-107718750D02*
X169237500Y-101918750D01*
X169237500Y-107643750D02*
X171637500Y-107643750D01*
X169237500Y-107518750D02*
X171637500Y-107518750D01*
X171637500Y-107743750D02*
X169237500Y-107743750D01*
X169237500Y-107343750D02*
X171637500Y-107343750D01*
X169237500Y-107168750D02*
X171637500Y-107168750D01*
X169237500Y-106993750D02*
X171637500Y-106993750D01*
X130481250Y-101918750D02*
X130481250Y-107718750D01*
X128081250Y-101918750D02*
X130481250Y-101918750D01*
X128081250Y-107718750D02*
X128081250Y-101918750D01*
X128081250Y-107643750D02*
X130481250Y-107643750D01*
X128081250Y-107518750D02*
X130481250Y-107518750D01*
X130481250Y-107743750D02*
X128081250Y-107743750D01*
X128081250Y-107343750D02*
X130481250Y-107343750D01*
X128081250Y-107168750D02*
X130481250Y-107168750D01*
X128081250Y-106993750D02*
X130481250Y-106993750D01*
X133587500Y-63837500D02*
X133587500Y-69637500D01*
X131187500Y-63837500D02*
X133587500Y-63837500D01*
X131187500Y-69637500D02*
X131187500Y-63837500D01*
X131187500Y-69562500D02*
X133587500Y-69562500D01*
X131187500Y-69437500D02*
X133587500Y-69437500D01*
X133587500Y-69662500D02*
X131187500Y-69662500D01*
X131187500Y-69262500D02*
X133587500Y-69262500D01*
X131187500Y-69087500D02*
X133587500Y-69087500D01*
X131187500Y-68912500D02*
X133587500Y-68912500D01*
X133575000Y-82887500D02*
X133575000Y-88687500D01*
X131175000Y-82887500D02*
X133575000Y-82887500D01*
X131175000Y-88687500D02*
X131175000Y-82887500D01*
X131175000Y-88612500D02*
X133575000Y-88612500D01*
X131175000Y-88487500D02*
X133575000Y-88487500D01*
X133575000Y-88712500D02*
X131175000Y-88712500D01*
X131175000Y-88312500D02*
X133575000Y-88312500D01*
X131175000Y-88137500D02*
X133575000Y-88137500D01*
X131175000Y-87962500D02*
X133575000Y-87962500D01*
X190668750Y-82887500D02*
X190668750Y-88687500D01*
X188268750Y-82887500D02*
X190668750Y-82887500D01*
X188268750Y-88687500D02*
X188268750Y-82887500D01*
X188268750Y-88612500D02*
X190668750Y-88612500D01*
X188268750Y-88487500D02*
X190668750Y-88487500D01*
X190668750Y-88712500D02*
X188268750Y-88712500D01*
X188268750Y-88312500D02*
X190668750Y-88312500D01*
X188268750Y-88137500D02*
X190668750Y-88137500D01*
X188268750Y-87962500D02*
X190668750Y-87962500D01*
X168512500Y-101937500D02*
X168512500Y-107737500D01*
X166112500Y-101937500D02*
X168512500Y-101937500D01*
X166112500Y-107737500D02*
X166112500Y-101937500D01*
X166112500Y-107662500D02*
X168512500Y-107662500D01*
X166112500Y-107537500D02*
X168512500Y-107537500D01*
X168512500Y-107762500D02*
X166112500Y-107762500D01*
X166112500Y-107362500D02*
X168512500Y-107362500D01*
X166112500Y-107187500D02*
X168512500Y-107187500D01*
X166112500Y-107012500D02*
X168512500Y-107012500D01*
X149462500Y-101937500D02*
X149462500Y-107737500D01*
X147062500Y-101937500D02*
X149462500Y-101937500D01*
X147062500Y-107737500D02*
X147062500Y-101937500D01*
X147062500Y-107662500D02*
X149462500Y-107662500D01*
X147062500Y-107537500D02*
X149462500Y-107537500D01*
X149462500Y-107762500D02*
X147062500Y-107762500D01*
X147062500Y-107362500D02*
X149462500Y-107362500D01*
X147062500Y-107187500D02*
X149462500Y-107187500D01*
X147062500Y-107012500D02*
X149462500Y-107012500D01*
X168840000Y-44825000D02*
X168840000Y-50625000D01*
X166440000Y-44825000D02*
X168840000Y-44825000D01*
X166440000Y-50625000D02*
X166440000Y-44825000D01*
X166440000Y-50550000D02*
X168840000Y-50550000D01*
X166440000Y-50425000D02*
X168840000Y-50425000D01*
X168840000Y-50650000D02*
X166440000Y-50650000D01*
X166440000Y-50250000D02*
X168840000Y-50250000D01*
X166440000Y-50075000D02*
X168840000Y-50075000D01*
X166440000Y-49900000D02*
X168840000Y-49900000D01*
X150237500Y-68912500D02*
X152637500Y-68912500D01*
X150237500Y-69087500D02*
X152637500Y-69087500D01*
X150237500Y-69262500D02*
X152637500Y-69262500D01*
X152637500Y-69662500D02*
X150237500Y-69662500D01*
X150237500Y-69437500D02*
X152637500Y-69437500D01*
X150237500Y-69562500D02*
X152637500Y-69562500D01*
X150237500Y-69637500D02*
X150237500Y-63837500D01*
X150237500Y-63837500D02*
X152637500Y-63837500D01*
X152637500Y-63837500D02*
X152637500Y-69637500D01*
X188175000Y-106993750D02*
X190575000Y-106993750D01*
X188175000Y-107168750D02*
X190575000Y-107168750D01*
X188175000Y-107343750D02*
X190575000Y-107343750D01*
X190575000Y-107743750D02*
X188175000Y-107743750D01*
X188175000Y-107518750D02*
X190575000Y-107518750D01*
X188175000Y-107643750D02*
X190575000Y-107643750D01*
X188175000Y-107718750D02*
X188175000Y-101918750D01*
X188175000Y-101918750D02*
X190575000Y-101918750D01*
X190575000Y-101918750D02*
X190575000Y-107718750D01*
X147062500Y-87962500D02*
X149462500Y-87962500D01*
X147062500Y-88137500D02*
X149462500Y-88137500D01*
X147062500Y-88312500D02*
X149462500Y-88312500D01*
X149462500Y-88712500D02*
X147062500Y-88712500D01*
X147062500Y-88487500D02*
X149462500Y-88487500D01*
X147062500Y-88612500D02*
X149462500Y-88612500D01*
X147062500Y-88687500D02*
X147062500Y-82887500D01*
X147062500Y-82887500D02*
X149462500Y-82887500D01*
X149462500Y-82887500D02*
X149462500Y-88687500D01*
X150237500Y-87962500D02*
X152637500Y-87962500D01*
X150237500Y-88137500D02*
X152637500Y-88137500D01*
X150237500Y-88312500D02*
X152637500Y-88312500D01*
X152637500Y-88712500D02*
X150237500Y-88712500D01*
X150237500Y-88487500D02*
X152637500Y-88487500D01*
X150237500Y-88612500D02*
X152637500Y-88612500D01*
X150237500Y-88687500D02*
X150237500Y-82887500D01*
X150237500Y-82887500D02*
X152637500Y-82887500D01*
X152637500Y-82887500D02*
X152637500Y-88687500D01*
X169143750Y-49900000D02*
X171543750Y-49900000D01*
X169143750Y-50075000D02*
X171543750Y-50075000D01*
X169143750Y-50250000D02*
X171543750Y-50250000D01*
X171543750Y-50650000D02*
X169143750Y-50650000D01*
X169143750Y-50425000D02*
X171543750Y-50425000D01*
X169143750Y-50550000D02*
X171543750Y-50550000D01*
X169143750Y-50625000D02*
X169143750Y-44825000D01*
X169143750Y-44825000D02*
X171543750Y-44825000D01*
X171543750Y-44825000D02*
X171543750Y-50625000D01*
X169143750Y-68931250D02*
X171543750Y-68931250D01*
X169143750Y-69106250D02*
X171543750Y-69106250D01*
X169143750Y-69281250D02*
X171543750Y-69281250D01*
X171543750Y-69681250D02*
X169143750Y-69681250D01*
X169143750Y-69456250D02*
X171543750Y-69456250D01*
X169143750Y-69581250D02*
X171543750Y-69581250D01*
X169143750Y-69656250D02*
X169143750Y-63856250D01*
X169143750Y-63856250D02*
X171543750Y-63856250D01*
X171543750Y-63856250D02*
X171543750Y-69656250D01*
X152637500Y-101937500D02*
X152637500Y-107737500D01*
X150237500Y-101937500D02*
X152637500Y-101937500D01*
X150237500Y-107737500D02*
X150237500Y-101937500D01*
X150237500Y-107662500D02*
X152637500Y-107662500D01*
X150237500Y-107537500D02*
X152637500Y-107537500D01*
X152637500Y-107762500D02*
X150237500Y-107762500D01*
X150237500Y-107362500D02*
X152637500Y-107362500D01*
X150237500Y-107187500D02*
X152637500Y-107187500D01*
X150237500Y-107012500D02*
X152637500Y-107012500D01*
D12*
X191125000Y-117437500D02*
X192903000Y-117437500D01*
X202047000Y-117437500D02*
X203825000Y-117437500D01*
X203825000Y-117437500D02*
X203825000Y-119215500D01*
X203825000Y-128359500D02*
X203825000Y-130137500D01*
X203825000Y-130137500D02*
X202047000Y-130137500D01*
X192903000Y-130137500D02*
X191125000Y-130137500D01*
X191125000Y-130137500D02*
X191125000Y-128359500D01*
X191125000Y-119215500D02*
X191125000Y-117437500D01*
X133975000Y-119215500D02*
X133975000Y-117437500D01*
X133975000Y-130137500D02*
X133975000Y-128359500D01*
X135753000Y-130137500D02*
X133975000Y-130137500D01*
X146675000Y-130137500D02*
X144897000Y-130137500D01*
X146675000Y-128359500D02*
X146675000Y-130137500D01*
X146675000Y-117437500D02*
X146675000Y-119215500D01*
X144897000Y-117437500D02*
X146675000Y-117437500D01*
X133975000Y-117437500D02*
X135753000Y-117437500D01*
X153025000Y-117437500D02*
X154803000Y-117437500D01*
X163947000Y-117437500D02*
X165725000Y-117437500D01*
X165725000Y-117437500D02*
X165725000Y-119215500D01*
X165725000Y-128359500D02*
X165725000Y-130137500D01*
X165725000Y-130137500D02*
X163947000Y-130137500D01*
X154803000Y-130137500D02*
X153025000Y-130137500D01*
X153025000Y-130137500D02*
X153025000Y-128359500D01*
X153025000Y-119215500D02*
X153025000Y-117437500D01*
D14*
X195224071Y-52199523D02*
X195224071Y-50929523D01*
X196094928Y-52199523D02*
X195441785Y-51473809D01*
X196094928Y-50929523D02*
X195224071Y-51655238D01*
X197546357Y-52199523D02*
X196675500Y-52199523D01*
X197110928Y-52199523D02*
X197110928Y-50929523D01*
X196965785Y-51110952D01*
X196820642Y-51231904D01*
X196675500Y-51292380D01*
X198199500Y-52078571D02*
X198272071Y-52139047D01*
X198199500Y-52199523D01*
X198126928Y-52139047D01*
X198199500Y-52078571D01*
X198199500Y-52199523D01*
X199650928Y-50929523D02*
X198925214Y-50929523D01*
X198852642Y-51534285D01*
X198925214Y-51473809D01*
X199070357Y-51413333D01*
X199433214Y-51413333D01*
X199578357Y-51473809D01*
X199650928Y-51534285D01*
X199723500Y-51655238D01*
X199723500Y-51957619D01*
X199650928Y-52078571D01*
X199578357Y-52139047D01*
X199433214Y-52199523D01*
X199070357Y-52199523D01*
X198925214Y-52139047D01*
X198852642Y-52078571D01*
X138130321Y-52199523D02*
X138130321Y-50929523D01*
X139001178Y-52199523D02*
X138348035Y-51473809D01*
X139001178Y-50929523D02*
X138130321Y-51655238D01*
X140452607Y-52199523D02*
X139581750Y-52199523D01*
X140017178Y-52199523D02*
X140017178Y-50929523D01*
X139872035Y-51110952D01*
X139726892Y-51231904D01*
X139581750Y-51292380D01*
X141105750Y-52078571D02*
X141178321Y-52139047D01*
X141105750Y-52199523D01*
X141033178Y-52139047D01*
X141105750Y-52078571D01*
X141105750Y-52199523D01*
X141758892Y-51050476D02*
X141831464Y-50990000D01*
X141976607Y-50929523D01*
X142339464Y-50929523D01*
X142484607Y-50990000D01*
X142557178Y-51050476D01*
X142629750Y-51171428D01*
X142629750Y-51292380D01*
X142557178Y-51473809D01*
X141686321Y-52199523D01*
X142629750Y-52199523D01*
X138130321Y-71230773D02*
X138130321Y-69960773D01*
X139001178Y-71230773D02*
X138348035Y-70505059D01*
X139001178Y-69960773D02*
X138130321Y-70686488D01*
X139581750Y-70081726D02*
X139654321Y-70021250D01*
X139799464Y-69960773D01*
X140162321Y-69960773D01*
X140307464Y-70021250D01*
X140380035Y-70081726D01*
X140452607Y-70202678D01*
X140452607Y-70323630D01*
X140380035Y-70505059D01*
X139509178Y-71230773D01*
X140452607Y-71230773D01*
X141105750Y-71109821D02*
X141178321Y-71170297D01*
X141105750Y-71230773D01*
X141033178Y-71170297D01*
X141105750Y-71109821D01*
X141105750Y-71230773D01*
X141758892Y-70081726D02*
X141831464Y-70021250D01*
X141976607Y-69960773D01*
X142339464Y-69960773D01*
X142484607Y-70021250D01*
X142557178Y-70081726D01*
X142629750Y-70202678D01*
X142629750Y-70323630D01*
X142557178Y-70505059D01*
X141686321Y-71230773D01*
X142629750Y-71230773D01*
X119099071Y-71230773D02*
X119099071Y-69960773D01*
X119969928Y-71230773D02*
X119316785Y-70505059D01*
X119969928Y-69960773D02*
X119099071Y-70686488D01*
X120550500Y-70081726D02*
X120623071Y-70021250D01*
X120768214Y-69960773D01*
X121131071Y-69960773D01*
X121276214Y-70021250D01*
X121348785Y-70081726D01*
X121421357Y-70202678D01*
X121421357Y-70323630D01*
X121348785Y-70505059D01*
X120477928Y-71230773D01*
X121421357Y-71230773D01*
X122074500Y-71109821D02*
X122147071Y-71170297D01*
X122074500Y-71230773D01*
X122001928Y-71170297D01*
X122074500Y-71109821D01*
X122074500Y-71230773D01*
X123598500Y-71230773D02*
X122727642Y-71230773D01*
X123163071Y-71230773D02*
X123163071Y-69960773D01*
X123017928Y-70142202D01*
X122872785Y-70263154D01*
X122727642Y-70323630D01*
D13*
X115655654Y-127414880D02*
X115655654Y-126414880D01*
X116227083Y-127414880D02*
X115798511Y-126843452D01*
X116227083Y-126414880D02*
X115655654Y-126986309D01*
X117131845Y-126414880D02*
X116655654Y-126414880D01*
X116608035Y-126891071D01*
X116655654Y-126843452D01*
X116750892Y-126795833D01*
X116988988Y-126795833D01*
X117084226Y-126843452D01*
X117131845Y-126891071D01*
X117179464Y-126986309D01*
X117179464Y-127224404D01*
X117131845Y-127319642D01*
X117084226Y-127367261D01*
X116988988Y-127414880D01*
X116750892Y-127414880D01*
X116655654Y-127367261D01*
X116608035Y-127319642D01*
X117608035Y-127319642D02*
X117655654Y-127367261D01*
X117608035Y-127414880D01*
X117560416Y-127367261D01*
X117608035Y-127319642D01*
X117608035Y-127414880D01*
X118608035Y-127414880D02*
X118036607Y-127414880D01*
X118322321Y-127414880D02*
X118322321Y-126414880D01*
X118227083Y-126557738D01*
X118131845Y-126652976D01*
X118036607Y-126700595D01*
X118798511Y-127510119D02*
X119560416Y-127510119D01*
X120322321Y-127414880D02*
X119750892Y-127414880D01*
X120036607Y-127414880D02*
X120036607Y-126414880D01*
X119941369Y-126557738D01*
X119846130Y-126652976D01*
X119750892Y-126700595D01*
X121179464Y-126748214D02*
X121179464Y-127414880D01*
X120750892Y-126748214D02*
X120750892Y-127272023D01*
X120798511Y-127367261D01*
X120893750Y-127414880D01*
X121036607Y-127414880D01*
X121131845Y-127367261D01*
X121179464Y-127319642D01*
X122179464Y-127414880D02*
X121608035Y-127414880D01*
X121893750Y-127414880D02*
X121893750Y-126414880D01*
X121798511Y-126557738D01*
X121703273Y-126652976D01*
X121608035Y-126700595D01*
X138753869Y-127414880D02*
X138753869Y-126414880D01*
X139325297Y-127414880D02*
X138896726Y-126843452D01*
X139325297Y-126414880D02*
X138753869Y-126986309D01*
X140230059Y-126414880D02*
X139753869Y-126414880D01*
X139706250Y-126891071D01*
X139753869Y-126843452D01*
X139849107Y-126795833D01*
X140087202Y-126795833D01*
X140182440Y-126843452D01*
X140230059Y-126891071D01*
X140277678Y-126986309D01*
X140277678Y-127224404D01*
X140230059Y-127319642D01*
X140182440Y-127367261D01*
X140087202Y-127414880D01*
X139849107Y-127414880D01*
X139753869Y-127367261D01*
X139706250Y-127319642D01*
X140706250Y-127319642D02*
X140753869Y-127367261D01*
X140706250Y-127414880D01*
X140658630Y-127367261D01*
X140706250Y-127319642D01*
X140706250Y-127414880D01*
X141134821Y-126510119D02*
X141182440Y-126462500D01*
X141277678Y-126414880D01*
X141515773Y-126414880D01*
X141611011Y-126462500D01*
X141658630Y-126510119D01*
X141706250Y-126605357D01*
X141706250Y-126700595D01*
X141658630Y-126843452D01*
X141087202Y-127414880D01*
X141706250Y-127414880D01*
X141896726Y-127510119D02*
X142658630Y-127510119D01*
X143420535Y-127414880D02*
X142849107Y-127414880D01*
X143134821Y-127414880D02*
X143134821Y-126414880D01*
X143039583Y-126557738D01*
X142944345Y-126652976D01*
X142849107Y-126700595D01*
X143849107Y-127319642D02*
X143896726Y-127367261D01*
X143849107Y-127414880D01*
X143801488Y-127367261D01*
X143849107Y-127319642D01*
X143849107Y-127414880D01*
X144801488Y-126414880D02*
X144325297Y-126414880D01*
X144277678Y-126891071D01*
X144325297Y-126843452D01*
X144420535Y-126795833D01*
X144658630Y-126795833D01*
X144753869Y-126843452D01*
X144801488Y-126891071D01*
X144849107Y-126986309D01*
X144849107Y-127224404D01*
X144801488Y-127319642D01*
X144753869Y-127367261D01*
X144658630Y-127414880D01*
X144420535Y-127414880D01*
X144325297Y-127367261D01*
X144277678Y-127319642D01*
X145706250Y-126748214D02*
X145706250Y-127414880D01*
X145277678Y-126748214D02*
X145277678Y-127272023D01*
X145325297Y-127367261D01*
X145420535Y-127414880D01*
X145563392Y-127414880D01*
X145658630Y-127367261D01*
X145706250Y-127319642D01*
X146706250Y-127414880D02*
X146134821Y-127414880D01*
X146420535Y-127414880D02*
X146420535Y-126414880D01*
X146325297Y-126557738D01*
X146230059Y-126652976D01*
X146134821Y-126700595D01*
X186378869Y-131780505D02*
X186378869Y-130780505D01*
X186950297Y-131780505D02*
X186521726Y-131209077D01*
X186950297Y-130780505D02*
X186378869Y-131351934D01*
X187855059Y-130780505D02*
X187378869Y-130780505D01*
X187331250Y-131256696D01*
X187378869Y-131209077D01*
X187474107Y-131161458D01*
X187712202Y-131161458D01*
X187807440Y-131209077D01*
X187855059Y-131256696D01*
X187902678Y-131351934D01*
X187902678Y-131590029D01*
X187855059Y-131685267D01*
X187807440Y-131732886D01*
X187712202Y-131780505D01*
X187474107Y-131780505D01*
X187378869Y-131732886D01*
X187331250Y-131685267D01*
X188331250Y-131685267D02*
X188378869Y-131732886D01*
X188331250Y-131780505D01*
X188283630Y-131732886D01*
X188331250Y-131685267D01*
X188331250Y-131780505D01*
X189236011Y-131113839D02*
X189236011Y-131780505D01*
X188997916Y-130732886D02*
X188759821Y-131447172D01*
X189378869Y-131447172D01*
X189521726Y-131875744D02*
X190283630Y-131875744D01*
X191045535Y-131780505D02*
X190474107Y-131780505D01*
X190759821Y-131780505D02*
X190759821Y-130780505D01*
X190664583Y-130923363D01*
X190569345Y-131018601D01*
X190474107Y-131066220D01*
X191474107Y-131685267D02*
X191521726Y-131732886D01*
X191474107Y-131780505D01*
X191426488Y-131732886D01*
X191474107Y-131685267D01*
X191474107Y-131780505D01*
X192426488Y-130780505D02*
X191950297Y-130780505D01*
X191902678Y-131256696D01*
X191950297Y-131209077D01*
X192045535Y-131161458D01*
X192283630Y-131161458D01*
X192378869Y-131209077D01*
X192426488Y-131256696D01*
X192474107Y-131351934D01*
X192474107Y-131590029D01*
X192426488Y-131685267D01*
X192378869Y-131732886D01*
X192283630Y-131780505D01*
X192045535Y-131780505D01*
X191950297Y-131732886D01*
X191902678Y-131685267D01*
X193331250Y-131113839D02*
X193331250Y-131780505D01*
X192902678Y-131113839D02*
X192902678Y-131637648D01*
X192950297Y-131732886D01*
X193045535Y-131780505D01*
X193188392Y-131780505D01*
X193283630Y-131732886D01*
X193331250Y-131685267D01*
X194331250Y-131780505D02*
X193759821Y-131780505D01*
X194045535Y-131780505D02*
X194045535Y-130780505D01*
X193950297Y-130923363D01*
X193855059Y-131018601D01*
X193759821Y-131066220D01*
X124466369Y-131780505D02*
X124466369Y-130780505D01*
X125037797Y-131780505D02*
X124609226Y-131209077D01*
X125037797Y-130780505D02*
X124466369Y-131351934D01*
X125942559Y-130780505D02*
X125466369Y-130780505D01*
X125418750Y-131256696D01*
X125466369Y-131209077D01*
X125561607Y-131161458D01*
X125799702Y-131161458D01*
X125894940Y-131209077D01*
X125942559Y-131256696D01*
X125990178Y-131351934D01*
X125990178Y-131590029D01*
X125942559Y-131685267D01*
X125894940Y-131732886D01*
X125799702Y-131780505D01*
X125561607Y-131780505D01*
X125466369Y-131732886D01*
X125418750Y-131685267D01*
X126418750Y-131685267D02*
X126466369Y-131732886D01*
X126418750Y-131780505D01*
X126371130Y-131732886D01*
X126418750Y-131685267D01*
X126418750Y-131780505D01*
X127418750Y-131780505D02*
X126847321Y-131780505D01*
X127133035Y-131780505D02*
X127133035Y-130780505D01*
X127037797Y-130923363D01*
X126942559Y-131018601D01*
X126847321Y-131066220D01*
X127609226Y-131875744D02*
X128371130Y-131875744D01*
X129133035Y-131780505D02*
X128561607Y-131780505D01*
X128847321Y-131780505D02*
X128847321Y-130780505D01*
X128752083Y-130923363D01*
X128656845Y-131018601D01*
X128561607Y-131066220D01*
X129561607Y-131685267D02*
X129609226Y-131732886D01*
X129561607Y-131780505D01*
X129513988Y-131732886D01*
X129561607Y-131685267D01*
X129561607Y-131780505D01*
X130513988Y-130780505D02*
X130037797Y-130780505D01*
X129990178Y-131256696D01*
X130037797Y-131209077D01*
X130133035Y-131161458D01*
X130371130Y-131161458D01*
X130466369Y-131209077D01*
X130513988Y-131256696D01*
X130561607Y-131351934D01*
X130561607Y-131590029D01*
X130513988Y-131685267D01*
X130466369Y-131732886D01*
X130371130Y-131780505D01*
X130133035Y-131780505D01*
X130037797Y-131732886D01*
X129990178Y-131685267D01*
X131418750Y-131113839D02*
X131418750Y-131780505D01*
X130990178Y-131113839D02*
X130990178Y-131637648D01*
X131037797Y-131732886D01*
X131133035Y-131780505D01*
X131275892Y-131780505D01*
X131371130Y-131732886D01*
X131418750Y-131685267D01*
X132418750Y-131780505D02*
X131847321Y-131780505D01*
X132133035Y-131780505D02*
X132133035Y-130780505D01*
X132037797Y-130923363D01*
X131942559Y-131018601D01*
X131847321Y-131066220D01*
X172091369Y-127414880D02*
X172091369Y-126414880D01*
X172662797Y-127414880D02*
X172234226Y-126843452D01*
X172662797Y-126414880D02*
X172091369Y-126986309D01*
X173567559Y-126414880D02*
X173091369Y-126414880D01*
X173043750Y-126891071D01*
X173091369Y-126843452D01*
X173186607Y-126795833D01*
X173424702Y-126795833D01*
X173519940Y-126843452D01*
X173567559Y-126891071D01*
X173615178Y-126986309D01*
X173615178Y-127224404D01*
X173567559Y-127319642D01*
X173519940Y-127367261D01*
X173424702Y-127414880D01*
X173186607Y-127414880D01*
X173091369Y-127367261D01*
X173043750Y-127319642D01*
X174043750Y-127319642D02*
X174091369Y-127367261D01*
X174043750Y-127414880D01*
X173996130Y-127367261D01*
X174043750Y-127319642D01*
X174043750Y-127414880D01*
X174424702Y-126414880D02*
X175043750Y-126414880D01*
X174710416Y-126795833D01*
X174853273Y-126795833D01*
X174948511Y-126843452D01*
X174996130Y-126891071D01*
X175043750Y-126986309D01*
X175043750Y-127224404D01*
X174996130Y-127319642D01*
X174948511Y-127367261D01*
X174853273Y-127414880D01*
X174567559Y-127414880D01*
X174472321Y-127367261D01*
X174424702Y-127319642D01*
X175234226Y-127510119D02*
X175996130Y-127510119D01*
X176758035Y-127414880D02*
X176186607Y-127414880D01*
X176472321Y-127414880D02*
X176472321Y-126414880D01*
X176377083Y-126557738D01*
X176281845Y-126652976D01*
X176186607Y-126700595D01*
X177186607Y-127319642D02*
X177234226Y-127367261D01*
X177186607Y-127414880D01*
X177138988Y-127367261D01*
X177186607Y-127319642D01*
X177186607Y-127414880D01*
X178138988Y-126414880D02*
X177662797Y-126414880D01*
X177615178Y-126891071D01*
X177662797Y-126843452D01*
X177758035Y-126795833D01*
X177996130Y-126795833D01*
X178091369Y-126843452D01*
X178138988Y-126891071D01*
X178186607Y-126986309D01*
X178186607Y-127224404D01*
X178138988Y-127319642D01*
X178091369Y-127367261D01*
X177996130Y-127414880D01*
X177758035Y-127414880D01*
X177662797Y-127367261D01*
X177615178Y-127319642D01*
X179043750Y-126748214D02*
X179043750Y-127414880D01*
X178615178Y-126748214D02*
X178615178Y-127272023D01*
X178662797Y-127367261D01*
X178758035Y-127414880D01*
X178900892Y-127414880D01*
X178996130Y-127367261D01*
X179043750Y-127319642D01*
X180043750Y-127414880D02*
X179472321Y-127414880D01*
X179758035Y-127414880D02*
X179758035Y-126414880D01*
X179662797Y-126557738D01*
X179567559Y-126652976D01*
X179472321Y-126700595D01*
D14*
X178361904Y-131780505D02*
X178361904Y-130780505D01*
X178933333Y-131780505D02*
X178504761Y-131209077D01*
X178933333Y-130780505D02*
X178361904Y-131351934D01*
X179838095Y-130780505D02*
X179361904Y-130780505D01*
X179314285Y-131256696D01*
X179361904Y-131209077D01*
X179457142Y-131161458D01*
X179695238Y-131161458D01*
X179790476Y-131209077D01*
X179838095Y-131256696D01*
X179885714Y-131351934D01*
X179885714Y-131590029D01*
X179838095Y-131685267D01*
X179790476Y-131732886D01*
X179695238Y-131780505D01*
X179457142Y-131780505D01*
X179361904Y-131732886D01*
X179314285Y-131685267D01*
X180314285Y-131685267D02*
X180361904Y-131732886D01*
X180314285Y-131780505D01*
X180266666Y-131732886D01*
X180314285Y-131685267D01*
X180314285Y-131780505D01*
X181219047Y-131113839D02*
X181219047Y-131780505D01*
X180980952Y-130732886D02*
X180742857Y-131447172D01*
X181361904Y-131447172D01*
X181504761Y-131875744D02*
X182266666Y-131875744D01*
X183028571Y-131780505D02*
X182457142Y-131780505D01*
X182742857Y-131780505D02*
X182742857Y-130780505D01*
X182647619Y-130923363D01*
X182552380Y-131018601D01*
X182457142Y-131066220D01*
X183885714Y-131113839D02*
X183885714Y-131780505D01*
X183457142Y-131113839D02*
X183457142Y-131637648D01*
X183504761Y-131732886D01*
X183600000Y-131780505D01*
X183742857Y-131780505D01*
X183838095Y-131732886D01*
X183885714Y-131685267D01*
X184885714Y-131780505D02*
X184314285Y-131780505D01*
X184600000Y-131780505D02*
X184600000Y-130780505D01*
X184504761Y-130923363D01*
X184409523Y-131018601D01*
X184314285Y-131066220D01*
X176192821Y-52199523D02*
X176192821Y-50929523D01*
X177063678Y-52199523D02*
X176410535Y-51473809D01*
X177063678Y-50929523D02*
X176192821Y-51655238D01*
X178515107Y-52199523D02*
X177644250Y-52199523D01*
X178079678Y-52199523D02*
X178079678Y-50929523D01*
X177934535Y-51110952D01*
X177789392Y-51231904D01*
X177644250Y-51292380D01*
X179168250Y-52078571D02*
X179240821Y-52139047D01*
X179168250Y-52199523D01*
X179095678Y-52139047D01*
X179168250Y-52078571D01*
X179168250Y-52199523D01*
X180547107Y-51352857D02*
X180547107Y-52199523D01*
X180184250Y-50869047D02*
X179821392Y-51776190D01*
X180764821Y-51776190D01*
X157161571Y-52199523D02*
X157161571Y-50929523D01*
X158032428Y-52199523D02*
X157379285Y-51473809D01*
X158032428Y-50929523D02*
X157161571Y-51655238D01*
X159483857Y-52199523D02*
X158613000Y-52199523D01*
X159048428Y-52199523D02*
X159048428Y-50929523D01*
X158903285Y-51110952D01*
X158758142Y-51231904D01*
X158613000Y-51292380D01*
X160137000Y-52078571D02*
X160209571Y-52139047D01*
X160137000Y-52199523D01*
X160064428Y-52139047D01*
X160137000Y-52078571D01*
X160137000Y-52199523D01*
X160717571Y-50929523D02*
X161661000Y-50929523D01*
X161153000Y-51413333D01*
X161370714Y-51413333D01*
X161515857Y-51473809D01*
X161588428Y-51534285D01*
X161661000Y-51655238D01*
X161661000Y-51957619D01*
X161588428Y-52078571D01*
X161515857Y-52139047D01*
X161370714Y-52199523D01*
X160935285Y-52199523D01*
X160790142Y-52139047D01*
X160717571Y-52078571D01*
X119099071Y-52199523D02*
X119099071Y-50929523D01*
X119969928Y-52199523D02*
X119316785Y-51473809D01*
X119969928Y-50929523D02*
X119099071Y-51655238D01*
X121421357Y-52199523D02*
X120550500Y-52199523D01*
X120985928Y-52199523D02*
X120985928Y-50929523D01*
X120840785Y-51110952D01*
X120695642Y-51231904D01*
X120550500Y-51292380D01*
X122074500Y-52078571D02*
X122147071Y-52139047D01*
X122074500Y-52199523D01*
X122001928Y-52139047D01*
X122074500Y-52078571D01*
X122074500Y-52199523D01*
X123598500Y-52199523D02*
X122727642Y-52199523D01*
X123163071Y-52199523D02*
X123163071Y-50929523D01*
X123017928Y-51110952D01*
X122872785Y-51231904D01*
X122727642Y-51292380D01*
X195224071Y-71230773D02*
X195224071Y-69960773D01*
X196094928Y-71230773D02*
X195441785Y-70505059D01*
X196094928Y-69960773D02*
X195224071Y-70686488D01*
X196675500Y-70081726D02*
X196748071Y-70021250D01*
X196893214Y-69960773D01*
X197256071Y-69960773D01*
X197401214Y-70021250D01*
X197473785Y-70081726D01*
X197546357Y-70202678D01*
X197546357Y-70323630D01*
X197473785Y-70505059D01*
X196602928Y-71230773D01*
X197546357Y-71230773D01*
X198199500Y-71109821D02*
X198272071Y-71170297D01*
X198199500Y-71230773D01*
X198126928Y-71170297D01*
X198199500Y-71109821D01*
X198199500Y-71230773D01*
X199650928Y-69960773D02*
X198925214Y-69960773D01*
X198852642Y-70565535D01*
X198925214Y-70505059D01*
X199070357Y-70444583D01*
X199433214Y-70444583D01*
X199578357Y-70505059D01*
X199650928Y-70565535D01*
X199723500Y-70686488D01*
X199723500Y-70988869D01*
X199650928Y-71109821D01*
X199578357Y-71170297D01*
X199433214Y-71230773D01*
X199070357Y-71230773D01*
X198925214Y-71170297D01*
X198852642Y-71109821D01*
X176192821Y-71230773D02*
X176192821Y-69960773D01*
X177063678Y-71230773D02*
X176410535Y-70505059D01*
X177063678Y-69960773D02*
X176192821Y-70686488D01*
X177644250Y-70081726D02*
X177716821Y-70021250D01*
X177861964Y-69960773D01*
X178224821Y-69960773D01*
X178369964Y-70021250D01*
X178442535Y-70081726D01*
X178515107Y-70202678D01*
X178515107Y-70323630D01*
X178442535Y-70505059D01*
X177571678Y-71230773D01*
X178515107Y-71230773D01*
X179168250Y-71109821D02*
X179240821Y-71170297D01*
X179168250Y-71230773D01*
X179095678Y-71170297D01*
X179168250Y-71109821D01*
X179168250Y-71230773D01*
X180547107Y-70384107D02*
X180547107Y-71230773D01*
X180184250Y-69900297D02*
X179821392Y-70807440D01*
X180764821Y-70807440D01*
X157161571Y-71230773D02*
X157161571Y-69960773D01*
X158032428Y-71230773D02*
X157379285Y-70505059D01*
X158032428Y-69960773D02*
X157161571Y-70686488D01*
X158613000Y-70081726D02*
X158685571Y-70021250D01*
X158830714Y-69960773D01*
X159193571Y-69960773D01*
X159338714Y-70021250D01*
X159411285Y-70081726D01*
X159483857Y-70202678D01*
X159483857Y-70323630D01*
X159411285Y-70505059D01*
X158540428Y-71230773D01*
X159483857Y-71230773D01*
X160137000Y-71109821D02*
X160209571Y-71170297D01*
X160137000Y-71230773D01*
X160064428Y-71170297D01*
X160137000Y-71109821D01*
X160137000Y-71230773D01*
X160717571Y-69960773D02*
X161661000Y-69960773D01*
X161153000Y-70444583D01*
X161370714Y-70444583D01*
X161515857Y-70505059D01*
X161588428Y-70565535D01*
X161661000Y-70686488D01*
X161661000Y-70988869D01*
X161588428Y-71109821D01*
X161515857Y-71170297D01*
X161370714Y-71230773D01*
X160935285Y-71230773D01*
X160790142Y-71170297D01*
X160717571Y-71109821D01*
X195224071Y-90262023D02*
X195224071Y-88992023D01*
X196094928Y-90262023D02*
X195441785Y-89536309D01*
X196094928Y-88992023D02*
X195224071Y-89717738D01*
X196602928Y-88992023D02*
X197546357Y-88992023D01*
X197038357Y-89475833D01*
X197256071Y-89475833D01*
X197401214Y-89536309D01*
X197473785Y-89596785D01*
X197546357Y-89717738D01*
X197546357Y-90020119D01*
X197473785Y-90141071D01*
X197401214Y-90201547D01*
X197256071Y-90262023D01*
X196820642Y-90262023D01*
X196675500Y-90201547D01*
X196602928Y-90141071D01*
X198199500Y-90141071D02*
X198272071Y-90201547D01*
X198199500Y-90262023D01*
X198126928Y-90201547D01*
X198199500Y-90141071D01*
X198199500Y-90262023D01*
X199650928Y-88992023D02*
X198925214Y-88992023D01*
X198852642Y-89596785D01*
X198925214Y-89536309D01*
X199070357Y-89475833D01*
X199433214Y-89475833D01*
X199578357Y-89536309D01*
X199650928Y-89596785D01*
X199723500Y-89717738D01*
X199723500Y-90020119D01*
X199650928Y-90141071D01*
X199578357Y-90201547D01*
X199433214Y-90262023D01*
X199070357Y-90262023D01*
X198925214Y-90201547D01*
X198852642Y-90141071D01*
X176192821Y-90262023D02*
X176192821Y-88992023D01*
X177063678Y-90262023D02*
X176410535Y-89536309D01*
X177063678Y-88992023D02*
X176192821Y-89717738D01*
X177571678Y-88992023D02*
X178515107Y-88992023D01*
X178007107Y-89475833D01*
X178224821Y-89475833D01*
X178369964Y-89536309D01*
X178442535Y-89596785D01*
X178515107Y-89717738D01*
X178515107Y-90020119D01*
X178442535Y-90141071D01*
X178369964Y-90201547D01*
X178224821Y-90262023D01*
X177789392Y-90262023D01*
X177644250Y-90201547D01*
X177571678Y-90141071D01*
X179168250Y-90141071D02*
X179240821Y-90201547D01*
X179168250Y-90262023D01*
X179095678Y-90201547D01*
X179168250Y-90141071D01*
X179168250Y-90262023D01*
X180547107Y-89415357D02*
X180547107Y-90262023D01*
X180184250Y-88931547D02*
X179821392Y-89838690D01*
X180764821Y-89838690D01*
X119099071Y-90262023D02*
X119099071Y-88992023D01*
X119969928Y-90262023D02*
X119316785Y-89536309D01*
X119969928Y-88992023D02*
X119099071Y-89717738D01*
X120477928Y-88992023D02*
X121421357Y-88992023D01*
X120913357Y-89475833D01*
X121131071Y-89475833D01*
X121276214Y-89536309D01*
X121348785Y-89596785D01*
X121421357Y-89717738D01*
X121421357Y-90020119D01*
X121348785Y-90141071D01*
X121276214Y-90201547D01*
X121131071Y-90262023D01*
X120695642Y-90262023D01*
X120550500Y-90201547D01*
X120477928Y-90141071D01*
X122074500Y-90141071D02*
X122147071Y-90201547D01*
X122074500Y-90262023D01*
X122001928Y-90201547D01*
X122074500Y-90141071D01*
X122074500Y-90262023D01*
X123598500Y-90262023D02*
X122727642Y-90262023D01*
X123163071Y-90262023D02*
X123163071Y-88992023D01*
X123017928Y-89173452D01*
X122872785Y-89294404D01*
X122727642Y-89354880D01*
X138130321Y-90262023D02*
X138130321Y-88992023D01*
X139001178Y-90262023D02*
X138348035Y-89536309D01*
X139001178Y-88992023D02*
X138130321Y-89717738D01*
X139509178Y-88992023D02*
X140452607Y-88992023D01*
X139944607Y-89475833D01*
X140162321Y-89475833D01*
X140307464Y-89536309D01*
X140380035Y-89596785D01*
X140452607Y-89717738D01*
X140452607Y-90020119D01*
X140380035Y-90141071D01*
X140307464Y-90201547D01*
X140162321Y-90262023D01*
X139726892Y-90262023D01*
X139581750Y-90201547D01*
X139509178Y-90141071D01*
X141105750Y-90141071D02*
X141178321Y-90201547D01*
X141105750Y-90262023D01*
X141033178Y-90201547D01*
X141105750Y-90141071D01*
X141105750Y-90262023D01*
X141758892Y-89112976D02*
X141831464Y-89052500D01*
X141976607Y-88992023D01*
X142339464Y-88992023D01*
X142484607Y-89052500D01*
X142557178Y-89112976D01*
X142629750Y-89233928D01*
X142629750Y-89354880D01*
X142557178Y-89536309D01*
X141686321Y-90262023D01*
X142629750Y-90262023D01*
X157161571Y-90262023D02*
X157161571Y-88992023D01*
X158032428Y-90262023D02*
X157379285Y-89536309D01*
X158032428Y-88992023D02*
X157161571Y-89717738D01*
X158540428Y-88992023D02*
X159483857Y-88992023D01*
X158975857Y-89475833D01*
X159193571Y-89475833D01*
X159338714Y-89536309D01*
X159411285Y-89596785D01*
X159483857Y-89717738D01*
X159483857Y-90020119D01*
X159411285Y-90141071D01*
X159338714Y-90201547D01*
X159193571Y-90262023D01*
X158758142Y-90262023D01*
X158613000Y-90201547D01*
X158540428Y-90141071D01*
X160137000Y-90141071D02*
X160209571Y-90201547D01*
X160137000Y-90262023D01*
X160064428Y-90201547D01*
X160137000Y-90141071D01*
X160137000Y-90262023D01*
X160717571Y-88992023D02*
X161661000Y-88992023D01*
X161153000Y-89475833D01*
X161370714Y-89475833D01*
X161515857Y-89536309D01*
X161588428Y-89596785D01*
X161661000Y-89717738D01*
X161661000Y-90020119D01*
X161588428Y-90141071D01*
X161515857Y-90201547D01*
X161370714Y-90262023D01*
X160935285Y-90262023D01*
X160790142Y-90201547D01*
X160717571Y-90141071D01*
X138111571Y-109122023D02*
X138111571Y-107852023D01*
X138982428Y-109122023D02*
X138329285Y-108396309D01*
X138982428Y-107852023D02*
X138111571Y-108577738D01*
X140288714Y-108275357D02*
X140288714Y-109122023D01*
X139925857Y-107791547D02*
X139563000Y-108698690D01*
X140506428Y-108698690D01*
X141087000Y-109001071D02*
X141159571Y-109061547D01*
X141087000Y-109122023D01*
X141014428Y-109061547D01*
X141087000Y-109001071D01*
X141087000Y-109122023D01*
X141740142Y-107972976D02*
X141812714Y-107912500D01*
X141957857Y-107852023D01*
X142320714Y-107852023D01*
X142465857Y-107912500D01*
X142538428Y-107972976D01*
X142611000Y-108093928D01*
X142611000Y-108214880D01*
X142538428Y-108396309D01*
X141667571Y-109122023D01*
X142611000Y-109122023D01*
X119061571Y-109312023D02*
X119061571Y-108042023D01*
X119932428Y-109312023D02*
X119279285Y-108586309D01*
X119932428Y-108042023D02*
X119061571Y-108767738D01*
X121238714Y-108465357D02*
X121238714Y-109312023D01*
X120875857Y-107981547D02*
X120513000Y-108888690D01*
X121456428Y-108888690D01*
X122037000Y-109191071D02*
X122109571Y-109251547D01*
X122037000Y-109312023D01*
X121964428Y-109251547D01*
X122037000Y-109191071D01*
X122037000Y-109312023D01*
X123561000Y-109312023D02*
X122690142Y-109312023D01*
X123125571Y-109312023D02*
X123125571Y-108042023D01*
X122980428Y-108223452D01*
X122835285Y-108344404D01*
X122690142Y-108404880D01*
X176192821Y-109293273D02*
X176192821Y-108023273D01*
X177063678Y-109293273D02*
X176410535Y-108567559D01*
X177063678Y-108023273D02*
X176192821Y-108748988D01*
X178369964Y-108446607D02*
X178369964Y-109293273D01*
X178007107Y-107962797D02*
X177644250Y-108869940D01*
X178587678Y-108869940D01*
X179168250Y-109172321D02*
X179240821Y-109232797D01*
X179168250Y-109293273D01*
X179095678Y-109232797D01*
X179168250Y-109172321D01*
X179168250Y-109293273D01*
X180547107Y-108446607D02*
X180547107Y-109293273D01*
X180184250Y-107962797D02*
X179821392Y-108869940D01*
X180764821Y-108869940D01*
X157161571Y-109293273D02*
X157161571Y-108023273D01*
X158032428Y-109293273D02*
X157379285Y-108567559D01*
X158032428Y-108023273D02*
X157161571Y-108748988D01*
X159338714Y-108446607D02*
X159338714Y-109293273D01*
X158975857Y-107962797D02*
X158613000Y-108869940D01*
X159556428Y-108869940D01*
X160137000Y-109172321D02*
X160209571Y-109232797D01*
X160137000Y-109293273D01*
X160064428Y-109232797D01*
X160137000Y-109172321D01*
X160137000Y-109293273D01*
X160717571Y-108023273D02*
X161661000Y-108023273D01*
X161153000Y-108507083D01*
X161370714Y-108507083D01*
X161515857Y-108567559D01*
X161588428Y-108628035D01*
X161661000Y-108748988D01*
X161661000Y-109051369D01*
X161588428Y-109172321D01*
X161515857Y-109232797D01*
X161370714Y-109293273D01*
X160935285Y-109293273D01*
X160790142Y-109232797D01*
X160717571Y-109172321D01*
X195224071Y-109293273D02*
X195224071Y-108023273D01*
X196094928Y-109293273D02*
X195441785Y-108567559D01*
X196094928Y-108023273D02*
X195224071Y-108748988D01*
X197401214Y-108446607D02*
X197401214Y-109293273D01*
X197038357Y-107962797D02*
X196675500Y-108869940D01*
X197618928Y-108869940D01*
X198199500Y-109172321D02*
X198272071Y-109232797D01*
X198199500Y-109293273D01*
X198126928Y-109232797D01*
X198199500Y-109172321D01*
X198199500Y-109293273D01*
X199650928Y-108023273D02*
X198925214Y-108023273D01*
X198852642Y-108628035D01*
X198925214Y-108567559D01*
X199070357Y-108507083D01*
X199433214Y-108507083D01*
X199578357Y-108567559D01*
X199650928Y-108628035D01*
X199723500Y-108748988D01*
X199723500Y-109051369D01*
X199650928Y-109172321D01*
X199578357Y-109232797D01*
X199433214Y-109293273D01*
X199070357Y-109293273D01*
X198925214Y-109232797D01*
X198852642Y-109172321D01*
D13*
X148199404Y-127414880D02*
X148199404Y-126414880D01*
X148770833Y-127414880D02*
X148342261Y-126843452D01*
X148770833Y-126414880D02*
X148199404Y-126986309D01*
X149675595Y-126414880D02*
X149199404Y-126414880D01*
X149151785Y-126891071D01*
X149199404Y-126843452D01*
X149294642Y-126795833D01*
X149532738Y-126795833D01*
X149627976Y-126843452D01*
X149675595Y-126891071D01*
X149723214Y-126986309D01*
X149723214Y-127224404D01*
X149675595Y-127319642D01*
X149627976Y-127367261D01*
X149532738Y-127414880D01*
X149294642Y-127414880D01*
X149199404Y-127367261D01*
X149151785Y-127319642D01*
X150151785Y-127319642D02*
X150199404Y-127367261D01*
X150151785Y-127414880D01*
X150104166Y-127367261D01*
X150151785Y-127319642D01*
X150151785Y-127414880D01*
X150580357Y-126510119D02*
X150627976Y-126462500D01*
X150723214Y-126414880D01*
X150961309Y-126414880D01*
X151056547Y-126462500D01*
X151104166Y-126510119D01*
X151151785Y-126605357D01*
X151151785Y-126700595D01*
X151104166Y-126843452D01*
X150532738Y-127414880D01*
X151151785Y-127414880D01*
X151342261Y-127510119D02*
X152104166Y-127510119D01*
X152866071Y-127414880D02*
X152294642Y-127414880D01*
X152580357Y-127414880D02*
X152580357Y-126414880D01*
X152485119Y-126557738D01*
X152389880Y-126652976D01*
X152294642Y-126700595D01*
X153723214Y-126748214D02*
X153723214Y-127414880D01*
X153294642Y-126748214D02*
X153294642Y-127272023D01*
X153342261Y-127367261D01*
X153437500Y-127414880D01*
X153580357Y-127414880D01*
X153675595Y-127367261D01*
X153723214Y-127319642D01*
X154723214Y-127414880D02*
X154151785Y-127414880D01*
X154437500Y-127414880D02*
X154437500Y-126414880D01*
X154342261Y-126557738D01*
X154247023Y-126652976D01*
X154151785Y-126700595D01*
X164471279Y-127414880D02*
X164471279Y-126414880D01*
X165042708Y-127414880D02*
X164614136Y-126843452D01*
X165042708Y-126414880D02*
X164471279Y-126986309D01*
X165947470Y-126414880D02*
X165471279Y-126414880D01*
X165423660Y-126891071D01*
X165471279Y-126843452D01*
X165566517Y-126795833D01*
X165804613Y-126795833D01*
X165899851Y-126843452D01*
X165947470Y-126891071D01*
X165995089Y-126986309D01*
X165995089Y-127224404D01*
X165947470Y-127319642D01*
X165899851Y-127367261D01*
X165804613Y-127414880D01*
X165566517Y-127414880D01*
X165471279Y-127367261D01*
X165423660Y-127319642D01*
X166423660Y-127319642D02*
X166471279Y-127367261D01*
X166423660Y-127414880D01*
X166376041Y-127367261D01*
X166423660Y-127319642D01*
X166423660Y-127414880D01*
X166804613Y-126414880D02*
X167423660Y-126414880D01*
X167090327Y-126795833D01*
X167233184Y-126795833D01*
X167328422Y-126843452D01*
X167376041Y-126891071D01*
X167423660Y-126986309D01*
X167423660Y-127224404D01*
X167376041Y-127319642D01*
X167328422Y-127367261D01*
X167233184Y-127414880D01*
X166947470Y-127414880D01*
X166852232Y-127367261D01*
X166804613Y-127319642D01*
X167614136Y-127510119D02*
X168376041Y-127510119D01*
X169137946Y-127414880D02*
X168566517Y-127414880D01*
X168852232Y-127414880D02*
X168852232Y-126414880D01*
X168756994Y-126557738D01*
X168661755Y-126652976D01*
X168566517Y-126700595D01*
X169995089Y-126748214D02*
X169995089Y-127414880D01*
X169566517Y-126748214D02*
X169566517Y-127272023D01*
X169614136Y-127367261D01*
X169709375Y-127414880D01*
X169852232Y-127414880D01*
X169947470Y-127367261D01*
X169995089Y-127319642D01*
X170995089Y-127414880D02*
X170423660Y-127414880D01*
X170709375Y-127414880D02*
X170709375Y-126414880D01*
X170614136Y-126557738D01*
X170518898Y-126652976D01*
X170423660Y-126700595D01*
D10*
X186883154Y-105899404D02*
X186083154Y-105899404D01*
X186083154Y-105708928D01*
X186121250Y-105594642D01*
X186197440Y-105518452D01*
X186273630Y-105480357D01*
X186426011Y-105442261D01*
X186540297Y-105442261D01*
X186692678Y-105480357D01*
X186768869Y-105518452D01*
X186845059Y-105594642D01*
X186883154Y-105708928D01*
X186883154Y-105899404D01*
X186083154Y-104718452D02*
X186083154Y-105099404D01*
X186464107Y-105137500D01*
X186426011Y-105099404D01*
X186387916Y-105023214D01*
X186387916Y-104832738D01*
X186426011Y-104756547D01*
X186464107Y-104718452D01*
X186540297Y-104680357D01*
X186730773Y-104680357D01*
X186806964Y-104718452D01*
X186845059Y-104756547D01*
X186883154Y-104832738D01*
X186883154Y-105023214D01*
X186845059Y-105099404D01*
X186806964Y-105137500D01*
X186806964Y-104337500D02*
X186845059Y-104299404D01*
X186883154Y-104337500D01*
X186845059Y-104375595D01*
X186806964Y-104337500D01*
X186883154Y-104337500D01*
X186349821Y-103613690D02*
X186883154Y-103613690D01*
X186045059Y-103804166D02*
X186616488Y-103994642D01*
X186616488Y-103499404D01*
X151799404Y-48786904D02*
X150999404Y-48786904D01*
X150999404Y-48596428D01*
X151037500Y-48482142D01*
X151113690Y-48405952D01*
X151189880Y-48367857D01*
X151342261Y-48329761D01*
X151456547Y-48329761D01*
X151608928Y-48367857D01*
X151685119Y-48405952D01*
X151761309Y-48482142D01*
X151799404Y-48596428D01*
X151799404Y-48786904D01*
X151799404Y-47567857D02*
X151799404Y-48025000D01*
X151799404Y-47796428D02*
X150999404Y-47796428D01*
X151113690Y-47872619D01*
X151189880Y-47948809D01*
X151227976Y-48025000D01*
X151723214Y-47225000D02*
X151761309Y-47186904D01*
X151799404Y-47225000D01*
X151761309Y-47263095D01*
X151723214Y-47225000D01*
X151799404Y-47225000D01*
X151799404Y-46425000D02*
X151799404Y-46882142D01*
X151799404Y-46653571D02*
X150999404Y-46653571D01*
X151113690Y-46729761D01*
X151189880Y-46805952D01*
X151227976Y-46882142D01*
X129643154Y-67818154D02*
X128843154Y-67818154D01*
X128843154Y-67627678D01*
X128881250Y-67513392D01*
X128957440Y-67437202D01*
X129033630Y-67399107D01*
X129186011Y-67361011D01*
X129300297Y-67361011D01*
X129452678Y-67399107D01*
X129528869Y-67437202D01*
X129605059Y-67513392D01*
X129643154Y-67627678D01*
X129643154Y-67818154D01*
X128919345Y-67056250D02*
X128881250Y-67018154D01*
X128843154Y-66941964D01*
X128843154Y-66751488D01*
X128881250Y-66675297D01*
X128919345Y-66637202D01*
X128995535Y-66599107D01*
X129071726Y-66599107D01*
X129186011Y-66637202D01*
X129643154Y-67094345D01*
X129643154Y-66599107D01*
X129566964Y-66256250D02*
X129605059Y-66218154D01*
X129643154Y-66256250D01*
X129605059Y-66294345D01*
X129566964Y-66256250D01*
X129643154Y-66256250D01*
X129643154Y-65456250D02*
X129643154Y-65913392D01*
X129643154Y-65684821D02*
X128843154Y-65684821D01*
X128957440Y-65761011D01*
X129033630Y-65837202D01*
X129071726Y-65913392D01*
X189736904Y-48786904D02*
X188936904Y-48786904D01*
X188936904Y-48596428D01*
X188975000Y-48482142D01*
X189051190Y-48405952D01*
X189127380Y-48367857D01*
X189279761Y-48329761D01*
X189394047Y-48329761D01*
X189546428Y-48367857D01*
X189622619Y-48405952D01*
X189698809Y-48482142D01*
X189736904Y-48596428D01*
X189736904Y-48786904D01*
X189736904Y-47567857D02*
X189736904Y-48025000D01*
X189736904Y-47796428D02*
X188936904Y-47796428D01*
X189051190Y-47872619D01*
X189127380Y-47948809D01*
X189165476Y-48025000D01*
X189660714Y-47225000D02*
X189698809Y-47186904D01*
X189736904Y-47225000D01*
X189698809Y-47263095D01*
X189660714Y-47225000D01*
X189736904Y-47225000D01*
X188936904Y-46463095D02*
X188936904Y-46844047D01*
X189317857Y-46882142D01*
X189279761Y-46844047D01*
X189241666Y-46767857D01*
X189241666Y-46577380D01*
X189279761Y-46501190D01*
X189317857Y-46463095D01*
X189394047Y-46425000D01*
X189584523Y-46425000D01*
X189660714Y-46463095D01*
X189698809Y-46501190D01*
X189736904Y-46577380D01*
X189736904Y-46767857D01*
X189698809Y-46844047D01*
X189660714Y-46882142D01*
X186736904Y-86849404D02*
X185936904Y-86849404D01*
X185936904Y-86658928D01*
X185975000Y-86544642D01*
X186051190Y-86468452D01*
X186127380Y-86430357D01*
X186279761Y-86392261D01*
X186394047Y-86392261D01*
X186546428Y-86430357D01*
X186622619Y-86468452D01*
X186698809Y-86544642D01*
X186736904Y-86658928D01*
X186736904Y-86849404D01*
X185936904Y-86125595D02*
X185936904Y-85630357D01*
X186241666Y-85897023D01*
X186241666Y-85782738D01*
X186279761Y-85706547D01*
X186317857Y-85668452D01*
X186394047Y-85630357D01*
X186584523Y-85630357D01*
X186660714Y-85668452D01*
X186698809Y-85706547D01*
X186736904Y-85782738D01*
X186736904Y-86011309D01*
X186698809Y-86087500D01*
X186660714Y-86125595D01*
X186660714Y-85287500D02*
X186698809Y-85249404D01*
X186736904Y-85287500D01*
X186698809Y-85325595D01*
X186660714Y-85287500D01*
X186736904Y-85287500D01*
X186203571Y-84563690D02*
X186736904Y-84563690D01*
X185898809Y-84754166D02*
X186470238Y-84944642D01*
X186470238Y-84449404D01*
X132736904Y-105880654D02*
X131936904Y-105880654D01*
X131936904Y-105690178D01*
X131975000Y-105575892D01*
X132051190Y-105499702D01*
X132127380Y-105461607D01*
X132279761Y-105423511D01*
X132394047Y-105423511D01*
X132546428Y-105461607D01*
X132622619Y-105499702D01*
X132698809Y-105575892D01*
X132736904Y-105690178D01*
X132736904Y-105880654D01*
X132203571Y-104737797D02*
X132736904Y-104737797D01*
X131898809Y-104928273D02*
X132470238Y-105118750D01*
X132470238Y-104623511D01*
X132660714Y-104318750D02*
X132698809Y-104280654D01*
X132736904Y-104318750D01*
X132698809Y-104356845D01*
X132660714Y-104318750D01*
X132736904Y-104318750D01*
X132013095Y-103975892D02*
X131975000Y-103937797D01*
X131936904Y-103861607D01*
X131936904Y-103671130D01*
X131975000Y-103594940D01*
X132013095Y-103556845D01*
X132089285Y-103518750D01*
X132165476Y-103518750D01*
X132279761Y-103556845D01*
X132736904Y-104013988D01*
X132736904Y-103518750D01*
X129643154Y-86849404D02*
X128843154Y-86849404D01*
X128843154Y-86658928D01*
X128881250Y-86544642D01*
X128957440Y-86468452D01*
X129033630Y-86430357D01*
X129186011Y-86392261D01*
X129300297Y-86392261D01*
X129452678Y-86430357D01*
X129528869Y-86468452D01*
X129605059Y-86544642D01*
X129643154Y-86658928D01*
X129643154Y-86849404D01*
X128843154Y-86125595D02*
X128843154Y-85630357D01*
X129147916Y-85897023D01*
X129147916Y-85782738D01*
X129186011Y-85706547D01*
X129224107Y-85668452D01*
X129300297Y-85630357D01*
X129490773Y-85630357D01*
X129566964Y-85668452D01*
X129605059Y-85706547D01*
X129643154Y-85782738D01*
X129643154Y-86011309D01*
X129605059Y-86087500D01*
X129566964Y-86125595D01*
X129566964Y-85287500D02*
X129605059Y-85249404D01*
X129643154Y-85287500D01*
X129605059Y-85325595D01*
X129566964Y-85287500D01*
X129643154Y-85287500D01*
X129643154Y-84487500D02*
X129643154Y-84944642D01*
X129643154Y-84716071D02*
X128843154Y-84716071D01*
X128957440Y-84792261D01*
X129033630Y-84868452D01*
X129071726Y-84944642D01*
X148624404Y-48786904D02*
X147824404Y-48786904D01*
X147824404Y-48596428D01*
X147862500Y-48482142D01*
X147938690Y-48405952D01*
X148014880Y-48367857D01*
X148167261Y-48329761D01*
X148281547Y-48329761D01*
X148433928Y-48367857D01*
X148510119Y-48405952D01*
X148586309Y-48482142D01*
X148624404Y-48596428D01*
X148624404Y-48786904D01*
X148624404Y-47567857D02*
X148624404Y-48025000D01*
X148624404Y-47796428D02*
X147824404Y-47796428D01*
X147938690Y-47872619D01*
X148014880Y-47948809D01*
X148052976Y-48025000D01*
X148548214Y-47225000D02*
X148586309Y-47186904D01*
X148624404Y-47225000D01*
X148586309Y-47263095D01*
X148548214Y-47225000D01*
X148624404Y-47225000D01*
X147900595Y-46882142D02*
X147862500Y-46844047D01*
X147824404Y-46767857D01*
X147824404Y-46577380D01*
X147862500Y-46501190D01*
X147900595Y-46463095D01*
X147976785Y-46425000D01*
X148052976Y-46425000D01*
X148167261Y-46463095D01*
X148624404Y-46920238D01*
X148624404Y-46425000D01*
X189736904Y-67818154D02*
X188936904Y-67818154D01*
X188936904Y-67627678D01*
X188975000Y-67513392D01*
X189051190Y-67437202D01*
X189127380Y-67399107D01*
X189279761Y-67361011D01*
X189394047Y-67361011D01*
X189546428Y-67399107D01*
X189622619Y-67437202D01*
X189698809Y-67513392D01*
X189736904Y-67627678D01*
X189736904Y-67818154D01*
X189013095Y-67056250D02*
X188975000Y-67018154D01*
X188936904Y-66941964D01*
X188936904Y-66751488D01*
X188975000Y-66675297D01*
X189013095Y-66637202D01*
X189089285Y-66599107D01*
X189165476Y-66599107D01*
X189279761Y-66637202D01*
X189736904Y-67094345D01*
X189736904Y-66599107D01*
X189660714Y-66256250D02*
X189698809Y-66218154D01*
X189736904Y-66256250D01*
X189698809Y-66294345D01*
X189660714Y-66256250D01*
X189736904Y-66256250D01*
X188936904Y-65494345D02*
X188936904Y-65875297D01*
X189317857Y-65913392D01*
X189279761Y-65875297D01*
X189241666Y-65799107D01*
X189241666Y-65608630D01*
X189279761Y-65532440D01*
X189317857Y-65494345D01*
X189394047Y-65456250D01*
X189584523Y-65456250D01*
X189660714Y-65494345D01*
X189698809Y-65532440D01*
X189736904Y-65608630D01*
X189736904Y-65799107D01*
X189698809Y-65875297D01*
X189660714Y-65913392D01*
X170799404Y-105880654D02*
X169999404Y-105880654D01*
X169999404Y-105690178D01*
X170037500Y-105575892D01*
X170113690Y-105499702D01*
X170189880Y-105461607D01*
X170342261Y-105423511D01*
X170456547Y-105423511D01*
X170608928Y-105461607D01*
X170685119Y-105499702D01*
X170761309Y-105575892D01*
X170799404Y-105690178D01*
X170799404Y-105880654D01*
X170266071Y-104737797D02*
X170799404Y-104737797D01*
X169961309Y-104928273D02*
X170532738Y-105118750D01*
X170532738Y-104623511D01*
X170723214Y-104318750D02*
X170761309Y-104280654D01*
X170799404Y-104318750D01*
X170761309Y-104356845D01*
X170723214Y-104318750D01*
X170799404Y-104318750D01*
X170266071Y-103594940D02*
X170799404Y-103594940D01*
X169961309Y-103785416D02*
X170532738Y-103975892D01*
X170532738Y-103480654D01*
X129643154Y-105880654D02*
X128843154Y-105880654D01*
X128843154Y-105690178D01*
X128881250Y-105575892D01*
X128957440Y-105499702D01*
X129033630Y-105461607D01*
X129186011Y-105423511D01*
X129300297Y-105423511D01*
X129452678Y-105461607D01*
X129528869Y-105499702D01*
X129605059Y-105575892D01*
X129643154Y-105690178D01*
X129643154Y-105880654D01*
X129109821Y-104737797D02*
X129643154Y-104737797D01*
X128805059Y-104928273D02*
X129376488Y-105118750D01*
X129376488Y-104623511D01*
X129566964Y-104318750D02*
X129605059Y-104280654D01*
X129643154Y-104318750D01*
X129605059Y-104356845D01*
X129566964Y-104318750D01*
X129643154Y-104318750D01*
X129643154Y-103518750D02*
X129643154Y-103975892D01*
X129643154Y-103747321D02*
X128843154Y-103747321D01*
X128957440Y-103823511D01*
X129033630Y-103899702D01*
X129071726Y-103975892D01*
X132749404Y-67799404D02*
X131949404Y-67799404D01*
X131949404Y-67608928D01*
X131987500Y-67494642D01*
X132063690Y-67418452D01*
X132139880Y-67380357D01*
X132292261Y-67342261D01*
X132406547Y-67342261D01*
X132558928Y-67380357D01*
X132635119Y-67418452D01*
X132711309Y-67494642D01*
X132749404Y-67608928D01*
X132749404Y-67799404D01*
X132025595Y-67037500D02*
X131987500Y-66999404D01*
X131949404Y-66923214D01*
X131949404Y-66732738D01*
X131987500Y-66656547D01*
X132025595Y-66618452D01*
X132101785Y-66580357D01*
X132177976Y-66580357D01*
X132292261Y-66618452D01*
X132749404Y-67075595D01*
X132749404Y-66580357D01*
X132673214Y-66237500D02*
X132711309Y-66199404D01*
X132749404Y-66237500D01*
X132711309Y-66275595D01*
X132673214Y-66237500D01*
X132749404Y-66237500D01*
X132025595Y-65894642D02*
X131987500Y-65856547D01*
X131949404Y-65780357D01*
X131949404Y-65589880D01*
X131987500Y-65513690D01*
X132025595Y-65475595D01*
X132101785Y-65437500D01*
X132177976Y-65437500D01*
X132292261Y-65475595D01*
X132749404Y-65932738D01*
X132749404Y-65437500D01*
X132736904Y-86849404D02*
X131936904Y-86849404D01*
X131936904Y-86658928D01*
X131975000Y-86544642D01*
X132051190Y-86468452D01*
X132127380Y-86430357D01*
X132279761Y-86392261D01*
X132394047Y-86392261D01*
X132546428Y-86430357D01*
X132622619Y-86468452D01*
X132698809Y-86544642D01*
X132736904Y-86658928D01*
X132736904Y-86849404D01*
X131936904Y-86125595D02*
X131936904Y-85630357D01*
X132241666Y-85897023D01*
X132241666Y-85782738D01*
X132279761Y-85706547D01*
X132317857Y-85668452D01*
X132394047Y-85630357D01*
X132584523Y-85630357D01*
X132660714Y-85668452D01*
X132698809Y-85706547D01*
X132736904Y-85782738D01*
X132736904Y-86011309D01*
X132698809Y-86087500D01*
X132660714Y-86125595D01*
X132660714Y-85287500D02*
X132698809Y-85249404D01*
X132736904Y-85287500D01*
X132698809Y-85325595D01*
X132660714Y-85287500D01*
X132736904Y-85287500D01*
X132013095Y-84944642D02*
X131975000Y-84906547D01*
X131936904Y-84830357D01*
X131936904Y-84639880D01*
X131975000Y-84563690D01*
X132013095Y-84525595D01*
X132089285Y-84487500D01*
X132165476Y-84487500D01*
X132279761Y-84525595D01*
X132736904Y-84982738D01*
X132736904Y-84487500D01*
X189830654Y-86849404D02*
X189030654Y-86849404D01*
X189030654Y-86658928D01*
X189068750Y-86544642D01*
X189144940Y-86468452D01*
X189221130Y-86430357D01*
X189373511Y-86392261D01*
X189487797Y-86392261D01*
X189640178Y-86430357D01*
X189716369Y-86468452D01*
X189792559Y-86544642D01*
X189830654Y-86658928D01*
X189830654Y-86849404D01*
X189030654Y-86125595D02*
X189030654Y-85630357D01*
X189335416Y-85897023D01*
X189335416Y-85782738D01*
X189373511Y-85706547D01*
X189411607Y-85668452D01*
X189487797Y-85630357D01*
X189678273Y-85630357D01*
X189754464Y-85668452D01*
X189792559Y-85706547D01*
X189830654Y-85782738D01*
X189830654Y-86011309D01*
X189792559Y-86087500D01*
X189754464Y-86125595D01*
X189754464Y-85287500D02*
X189792559Y-85249404D01*
X189830654Y-85287500D01*
X189792559Y-85325595D01*
X189754464Y-85287500D01*
X189830654Y-85287500D01*
X189030654Y-84525595D02*
X189030654Y-84906547D01*
X189411607Y-84944642D01*
X189373511Y-84906547D01*
X189335416Y-84830357D01*
X189335416Y-84639880D01*
X189373511Y-84563690D01*
X189411607Y-84525595D01*
X189487797Y-84487500D01*
X189678273Y-84487500D01*
X189754464Y-84525595D01*
X189792559Y-84563690D01*
X189830654Y-84639880D01*
X189830654Y-84830357D01*
X189792559Y-84906547D01*
X189754464Y-84944642D01*
X167674404Y-105899404D02*
X166874404Y-105899404D01*
X166874404Y-105708928D01*
X166912500Y-105594642D01*
X166988690Y-105518452D01*
X167064880Y-105480357D01*
X167217261Y-105442261D01*
X167331547Y-105442261D01*
X167483928Y-105480357D01*
X167560119Y-105518452D01*
X167636309Y-105594642D01*
X167674404Y-105708928D01*
X167674404Y-105899404D01*
X166874404Y-104718452D02*
X166874404Y-105099404D01*
X167255357Y-105137500D01*
X167217261Y-105099404D01*
X167179166Y-105023214D01*
X167179166Y-104832738D01*
X167217261Y-104756547D01*
X167255357Y-104718452D01*
X167331547Y-104680357D01*
X167522023Y-104680357D01*
X167598214Y-104718452D01*
X167636309Y-104756547D01*
X167674404Y-104832738D01*
X167674404Y-105023214D01*
X167636309Y-105099404D01*
X167598214Y-105137500D01*
X167598214Y-104337500D02*
X167636309Y-104299404D01*
X167674404Y-104337500D01*
X167636309Y-104375595D01*
X167598214Y-104337500D01*
X167674404Y-104337500D01*
X166874404Y-104032738D02*
X166874404Y-103537500D01*
X167179166Y-103804166D01*
X167179166Y-103689880D01*
X167217261Y-103613690D01*
X167255357Y-103575595D01*
X167331547Y-103537500D01*
X167522023Y-103537500D01*
X167598214Y-103575595D01*
X167636309Y-103613690D01*
X167674404Y-103689880D01*
X167674404Y-103918452D01*
X167636309Y-103994642D01*
X167598214Y-104032738D01*
X148624404Y-105899404D02*
X147824404Y-105899404D01*
X147824404Y-105708928D01*
X147862500Y-105594642D01*
X147938690Y-105518452D01*
X148014880Y-105480357D01*
X148167261Y-105442261D01*
X148281547Y-105442261D01*
X148433928Y-105480357D01*
X148510119Y-105518452D01*
X148586309Y-105594642D01*
X148624404Y-105708928D01*
X148624404Y-105899404D01*
X147824404Y-104718452D02*
X147824404Y-105099404D01*
X148205357Y-105137500D01*
X148167261Y-105099404D01*
X148129166Y-105023214D01*
X148129166Y-104832738D01*
X148167261Y-104756547D01*
X148205357Y-104718452D01*
X148281547Y-104680357D01*
X148472023Y-104680357D01*
X148548214Y-104718452D01*
X148586309Y-104756547D01*
X148624404Y-104832738D01*
X148624404Y-105023214D01*
X148586309Y-105099404D01*
X148548214Y-105137500D01*
X148548214Y-104337500D02*
X148586309Y-104299404D01*
X148624404Y-104337500D01*
X148586309Y-104375595D01*
X148548214Y-104337500D01*
X148624404Y-104337500D01*
X148624404Y-103537500D02*
X148624404Y-103994642D01*
X148624404Y-103766071D02*
X147824404Y-103766071D01*
X147938690Y-103842261D01*
X148014880Y-103918452D01*
X148052976Y-103994642D01*
X168001904Y-48786904D02*
X167201904Y-48786904D01*
X167201904Y-48596428D01*
X167240000Y-48482142D01*
X167316190Y-48405952D01*
X167392380Y-48367857D01*
X167544761Y-48329761D01*
X167659047Y-48329761D01*
X167811428Y-48367857D01*
X167887619Y-48405952D01*
X167963809Y-48482142D01*
X168001904Y-48596428D01*
X168001904Y-48786904D01*
X168001904Y-47567857D02*
X168001904Y-48025000D01*
X168001904Y-47796428D02*
X167201904Y-47796428D01*
X167316190Y-47872619D01*
X167392380Y-47948809D01*
X167430476Y-48025000D01*
X167925714Y-47225000D02*
X167963809Y-47186904D01*
X168001904Y-47225000D01*
X167963809Y-47263095D01*
X167925714Y-47225000D01*
X168001904Y-47225000D01*
X167201904Y-46920238D02*
X167201904Y-46425000D01*
X167506666Y-46691666D01*
X167506666Y-46577380D01*
X167544761Y-46501190D01*
X167582857Y-46463095D01*
X167659047Y-46425000D01*
X167849523Y-46425000D01*
X167925714Y-46463095D01*
X167963809Y-46501190D01*
X168001904Y-46577380D01*
X168001904Y-46805952D01*
X167963809Y-46882142D01*
X167925714Y-46920238D01*
X151799404Y-67799404D02*
X150999404Y-67799404D01*
X150999404Y-67608928D01*
X151037500Y-67494642D01*
X151113690Y-67418452D01*
X151189880Y-67380357D01*
X151342261Y-67342261D01*
X151456547Y-67342261D01*
X151608928Y-67380357D01*
X151685119Y-67418452D01*
X151761309Y-67494642D01*
X151799404Y-67608928D01*
X151799404Y-67799404D01*
X151075595Y-67037500D02*
X151037500Y-66999404D01*
X150999404Y-66923214D01*
X150999404Y-66732738D01*
X151037500Y-66656547D01*
X151075595Y-66618452D01*
X151151785Y-66580357D01*
X151227976Y-66580357D01*
X151342261Y-66618452D01*
X151799404Y-67075595D01*
X151799404Y-66580357D01*
X151723214Y-66237500D02*
X151761309Y-66199404D01*
X151799404Y-66237500D01*
X151761309Y-66275595D01*
X151723214Y-66237500D01*
X151799404Y-66237500D01*
X150999404Y-65932738D02*
X150999404Y-65437500D01*
X151304166Y-65704166D01*
X151304166Y-65589880D01*
X151342261Y-65513690D01*
X151380357Y-65475595D01*
X151456547Y-65437500D01*
X151647023Y-65437500D01*
X151723214Y-65475595D01*
X151761309Y-65513690D01*
X151799404Y-65589880D01*
X151799404Y-65818452D01*
X151761309Y-65894642D01*
X151723214Y-65932738D01*
X189736904Y-105880654D02*
X188936904Y-105880654D01*
X188936904Y-105690178D01*
X188975000Y-105575892D01*
X189051190Y-105499702D01*
X189127380Y-105461607D01*
X189279761Y-105423511D01*
X189394047Y-105423511D01*
X189546428Y-105461607D01*
X189622619Y-105499702D01*
X189698809Y-105575892D01*
X189736904Y-105690178D01*
X189736904Y-105880654D01*
X189203571Y-104737797D02*
X189736904Y-104737797D01*
X188898809Y-104928273D02*
X189470238Y-105118750D01*
X189470238Y-104623511D01*
X189660714Y-104318750D02*
X189698809Y-104280654D01*
X189736904Y-104318750D01*
X189698809Y-104356845D01*
X189660714Y-104318750D01*
X189736904Y-104318750D01*
X188936904Y-103556845D02*
X188936904Y-103937797D01*
X189317857Y-103975892D01*
X189279761Y-103937797D01*
X189241666Y-103861607D01*
X189241666Y-103671130D01*
X189279761Y-103594940D01*
X189317857Y-103556845D01*
X189394047Y-103518750D01*
X189584523Y-103518750D01*
X189660714Y-103556845D01*
X189698809Y-103594940D01*
X189736904Y-103671130D01*
X189736904Y-103861607D01*
X189698809Y-103937797D01*
X189660714Y-103975892D01*
X148624404Y-86849404D02*
X147824404Y-86849404D01*
X147824404Y-86658928D01*
X147862500Y-86544642D01*
X147938690Y-86468452D01*
X148014880Y-86430357D01*
X148167261Y-86392261D01*
X148281547Y-86392261D01*
X148433928Y-86430357D01*
X148510119Y-86468452D01*
X148586309Y-86544642D01*
X148624404Y-86658928D01*
X148624404Y-86849404D01*
X147824404Y-85668452D02*
X147824404Y-86049404D01*
X148205357Y-86087500D01*
X148167261Y-86049404D01*
X148129166Y-85973214D01*
X148129166Y-85782738D01*
X148167261Y-85706547D01*
X148205357Y-85668452D01*
X148281547Y-85630357D01*
X148472023Y-85630357D01*
X148548214Y-85668452D01*
X148586309Y-85706547D01*
X148624404Y-85782738D01*
X148624404Y-85973214D01*
X148586309Y-86049404D01*
X148548214Y-86087500D01*
X148548214Y-85287500D02*
X148586309Y-85249404D01*
X148624404Y-85287500D01*
X148586309Y-85325595D01*
X148548214Y-85287500D01*
X148624404Y-85287500D01*
X147900595Y-84944642D02*
X147862500Y-84906547D01*
X147824404Y-84830357D01*
X147824404Y-84639880D01*
X147862500Y-84563690D01*
X147900595Y-84525595D01*
X147976785Y-84487500D01*
X148052976Y-84487500D01*
X148167261Y-84525595D01*
X148624404Y-84982738D01*
X148624404Y-84487500D01*
X151799404Y-86849404D02*
X150999404Y-86849404D01*
X150999404Y-86658928D01*
X151037500Y-86544642D01*
X151113690Y-86468452D01*
X151189880Y-86430357D01*
X151342261Y-86392261D01*
X151456547Y-86392261D01*
X151608928Y-86430357D01*
X151685119Y-86468452D01*
X151761309Y-86544642D01*
X151799404Y-86658928D01*
X151799404Y-86849404D01*
X150999404Y-86125595D02*
X150999404Y-85630357D01*
X151304166Y-85897023D01*
X151304166Y-85782738D01*
X151342261Y-85706547D01*
X151380357Y-85668452D01*
X151456547Y-85630357D01*
X151647023Y-85630357D01*
X151723214Y-85668452D01*
X151761309Y-85706547D01*
X151799404Y-85782738D01*
X151799404Y-86011309D01*
X151761309Y-86087500D01*
X151723214Y-86125595D01*
X151723214Y-85287500D02*
X151761309Y-85249404D01*
X151799404Y-85287500D01*
X151761309Y-85325595D01*
X151723214Y-85287500D01*
X151799404Y-85287500D01*
X150999404Y-84982738D02*
X150999404Y-84487500D01*
X151304166Y-84754166D01*
X151304166Y-84639880D01*
X151342261Y-84563690D01*
X151380357Y-84525595D01*
X151456547Y-84487500D01*
X151647023Y-84487500D01*
X151723214Y-84525595D01*
X151761309Y-84563690D01*
X151799404Y-84639880D01*
X151799404Y-84868452D01*
X151761309Y-84944642D01*
X151723214Y-84982738D01*
X170705654Y-48786904D02*
X169905654Y-48786904D01*
X169905654Y-48596428D01*
X169943750Y-48482142D01*
X170019940Y-48405952D01*
X170096130Y-48367857D01*
X170248511Y-48329761D01*
X170362797Y-48329761D01*
X170515178Y-48367857D01*
X170591369Y-48405952D01*
X170667559Y-48482142D01*
X170705654Y-48596428D01*
X170705654Y-48786904D01*
X170705654Y-47567857D02*
X170705654Y-48025000D01*
X170705654Y-47796428D02*
X169905654Y-47796428D01*
X170019940Y-47872619D01*
X170096130Y-47948809D01*
X170134226Y-48025000D01*
X170629464Y-47225000D02*
X170667559Y-47186904D01*
X170705654Y-47225000D01*
X170667559Y-47263095D01*
X170629464Y-47225000D01*
X170705654Y-47225000D01*
X170172321Y-46501190D02*
X170705654Y-46501190D01*
X169867559Y-46691666D02*
X170438988Y-46882142D01*
X170438988Y-46386904D01*
X170705654Y-67818154D02*
X169905654Y-67818154D01*
X169905654Y-67627678D01*
X169943750Y-67513392D01*
X170019940Y-67437202D01*
X170096130Y-67399107D01*
X170248511Y-67361011D01*
X170362797Y-67361011D01*
X170515178Y-67399107D01*
X170591369Y-67437202D01*
X170667559Y-67513392D01*
X170705654Y-67627678D01*
X170705654Y-67818154D01*
X169981845Y-67056250D02*
X169943750Y-67018154D01*
X169905654Y-66941964D01*
X169905654Y-66751488D01*
X169943750Y-66675297D01*
X169981845Y-66637202D01*
X170058035Y-66599107D01*
X170134226Y-66599107D01*
X170248511Y-66637202D01*
X170705654Y-67094345D01*
X170705654Y-66599107D01*
X170629464Y-66256250D02*
X170667559Y-66218154D01*
X170705654Y-66256250D01*
X170667559Y-66294345D01*
X170629464Y-66256250D01*
X170705654Y-66256250D01*
X170172321Y-65532440D02*
X170705654Y-65532440D01*
X169867559Y-65722916D02*
X170438988Y-65913392D01*
X170438988Y-65418154D01*
X151799404Y-105899404D02*
X150999404Y-105899404D01*
X150999404Y-105708928D01*
X151037500Y-105594642D01*
X151113690Y-105518452D01*
X151189880Y-105480357D01*
X151342261Y-105442261D01*
X151456547Y-105442261D01*
X151608928Y-105480357D01*
X151685119Y-105518452D01*
X151761309Y-105594642D01*
X151799404Y-105708928D01*
X151799404Y-105899404D01*
X151266071Y-104756547D02*
X151799404Y-104756547D01*
X150961309Y-104947023D02*
X151532738Y-105137500D01*
X151532738Y-104642261D01*
X151723214Y-104337500D02*
X151761309Y-104299404D01*
X151799404Y-104337500D01*
X151761309Y-104375595D01*
X151723214Y-104337500D01*
X151799404Y-104337500D01*
X150999404Y-104032738D02*
X150999404Y-103537500D01*
X151304166Y-103804166D01*
X151304166Y-103689880D01*
X151342261Y-103613690D01*
X151380357Y-103575595D01*
X151456547Y-103537500D01*
X151647023Y-103537500D01*
X151723214Y-103575595D01*
X151761309Y-103613690D01*
X151799404Y-103689880D01*
X151799404Y-103918452D01*
X151761309Y-103994642D01*
X151723214Y-104032738D01*
D13*
X196618154Y-127414880D02*
X196618154Y-126414880D01*
X197189583Y-127414880D02*
X196761011Y-126843452D01*
X197189583Y-126414880D02*
X196618154Y-126986309D01*
X198094345Y-126414880D02*
X197618154Y-126414880D01*
X197570535Y-126891071D01*
X197618154Y-126843452D01*
X197713392Y-126795833D01*
X197951488Y-126795833D01*
X198046726Y-126843452D01*
X198094345Y-126891071D01*
X198141964Y-126986309D01*
X198141964Y-127224404D01*
X198094345Y-127319642D01*
X198046726Y-127367261D01*
X197951488Y-127414880D01*
X197713392Y-127414880D01*
X197618154Y-127367261D01*
X197570535Y-127319642D01*
X198570535Y-127319642D02*
X198618154Y-127367261D01*
X198570535Y-127414880D01*
X198522916Y-127367261D01*
X198570535Y-127319642D01*
X198570535Y-127414880D01*
X199570535Y-127414880D02*
X198999107Y-127414880D01*
X199284821Y-127414880D02*
X199284821Y-126414880D01*
X199189583Y-126557738D01*
X199094345Y-126652976D01*
X198999107Y-126700595D01*
X199761011Y-127510119D02*
X200522916Y-127510119D01*
X201284821Y-127414880D02*
X200713392Y-127414880D01*
X200999107Y-127414880D02*
X200999107Y-126414880D01*
X200903869Y-126557738D01*
X200808630Y-126652976D01*
X200713392Y-126700595D01*
X202141964Y-126748214D02*
X202141964Y-127414880D01*
X201713392Y-126748214D02*
X201713392Y-127272023D01*
X201761011Y-127367261D01*
X201856250Y-127414880D01*
X201999107Y-127414880D01*
X202094345Y-127367261D01*
X202141964Y-127319642D01*
X202570535Y-126510119D02*
X202618154Y-126462500D01*
X202713392Y-126414880D01*
X202951488Y-126414880D01*
X203046726Y-126462500D01*
X203094345Y-126510119D01*
X203141964Y-126605357D01*
X203141964Y-126700595D01*
X203094345Y-126843452D01*
X202522916Y-127414880D01*
X203141964Y-127414880D01*
X133911904Y-131780505D02*
X133911904Y-130780505D01*
X134483333Y-131780505D02*
X134054761Y-131209077D01*
X134483333Y-130780505D02*
X133911904Y-131351934D01*
X135388095Y-130780505D02*
X134911904Y-130780505D01*
X134864285Y-131256696D01*
X134911904Y-131209077D01*
X135007142Y-131161458D01*
X135245238Y-131161458D01*
X135340476Y-131209077D01*
X135388095Y-131256696D01*
X135435714Y-131351934D01*
X135435714Y-131590029D01*
X135388095Y-131685267D01*
X135340476Y-131732886D01*
X135245238Y-131780505D01*
X135007142Y-131780505D01*
X134911904Y-131732886D01*
X134864285Y-131685267D01*
X135864285Y-131685267D02*
X135911904Y-131732886D01*
X135864285Y-131780505D01*
X135816666Y-131732886D01*
X135864285Y-131685267D01*
X135864285Y-131780505D01*
X136292857Y-130875744D02*
X136340476Y-130828125D01*
X136435714Y-130780505D01*
X136673809Y-130780505D01*
X136769047Y-130828125D01*
X136816666Y-130875744D01*
X136864285Y-130970982D01*
X136864285Y-131066220D01*
X136816666Y-131209077D01*
X136245238Y-131780505D01*
X136864285Y-131780505D01*
X137054761Y-131875744D02*
X137816666Y-131875744D01*
X138578571Y-131780505D02*
X138007142Y-131780505D01*
X138292857Y-131780505D02*
X138292857Y-130780505D01*
X138197619Y-130923363D01*
X138102380Y-131018601D01*
X138007142Y-131066220D01*
X139435714Y-131113839D02*
X139435714Y-131780505D01*
X139007142Y-131113839D02*
X139007142Y-131637648D01*
X139054761Y-131732886D01*
X139150000Y-131780505D01*
X139292857Y-131780505D01*
X139388095Y-131732886D01*
X139435714Y-131685267D01*
X139864285Y-130875744D02*
X139911904Y-130828125D01*
X140007142Y-130780505D01*
X140245238Y-130780505D01*
X140340476Y-130828125D01*
X140388095Y-130875744D01*
X140435714Y-130970982D01*
X140435714Y-131066220D01*
X140388095Y-131209077D01*
X139816666Y-131780505D01*
X140435714Y-131780505D01*
X156136904Y-131780505D02*
X156136904Y-130780505D01*
X156708333Y-131780505D02*
X156279761Y-131209077D01*
X156708333Y-130780505D02*
X156136904Y-131351934D01*
X157613095Y-130780505D02*
X157136904Y-130780505D01*
X157089285Y-131256696D01*
X157136904Y-131209077D01*
X157232142Y-131161458D01*
X157470238Y-131161458D01*
X157565476Y-131209077D01*
X157613095Y-131256696D01*
X157660714Y-131351934D01*
X157660714Y-131590029D01*
X157613095Y-131685267D01*
X157565476Y-131732886D01*
X157470238Y-131780505D01*
X157232142Y-131780505D01*
X157136904Y-131732886D01*
X157089285Y-131685267D01*
X158089285Y-131685267D02*
X158136904Y-131732886D01*
X158089285Y-131780505D01*
X158041666Y-131732886D01*
X158089285Y-131685267D01*
X158089285Y-131780505D01*
X158470238Y-130780505D02*
X159089285Y-130780505D01*
X158755952Y-131161458D01*
X158898809Y-131161458D01*
X158994047Y-131209077D01*
X159041666Y-131256696D01*
X159089285Y-131351934D01*
X159089285Y-131590029D01*
X159041666Y-131685267D01*
X158994047Y-131732886D01*
X158898809Y-131780505D01*
X158613095Y-131780505D01*
X158517857Y-131732886D01*
X158470238Y-131685267D01*
X159279761Y-131875744D02*
X160041666Y-131875744D01*
X160184523Y-130780505D02*
X160851190Y-130780505D01*
X160422619Y-131780505D01*
X161660714Y-131113839D02*
X161660714Y-131780505D01*
X161232142Y-131113839D02*
X161232142Y-131637648D01*
X161279761Y-131732886D01*
X161375000Y-131780505D01*
X161517857Y-131780505D01*
X161613095Y-131732886D01*
X161660714Y-131685267D01*
X162660714Y-131780505D02*
X162089285Y-131780505D01*
X162375000Y-131780505D02*
X162375000Y-130780505D01*
X162279761Y-130923363D01*
X162184523Y-131018601D01*
X162089285Y-131066220D01*
M02*
