G04 #@! TF.GenerationSoftware,KiCad,Pcbnew,(5.1.4-0-10_14)*
G04 #@! TF.CreationDate,2019-11-01T23:04:21+01:00*
G04 #@! TF.ProjectId,tripel,74726970-656c-42e6-9b69-6361645f7063,rev?*
G04 #@! TF.SameCoordinates,Original*
G04 #@! TF.FileFunction,Legend,Bot*
G04 #@! TF.FilePolarity,Positive*
%FSLAX46Y46*%
G04 Gerber Fmt 4.6, Leading zero omitted, Abs format (unit mm)*
G04 Created by KiCad (PCBNEW (5.1.4-0-10_14)) date 2019-11-01 23:04:21*
%MOMM*%
%LPD*%
G04 APERTURE LIST*
%ADD10C,0.150000*%
%ADD11C,0.200000*%
%ADD12C,0.381000*%
%ADD13C,0.100000*%
G04 APERTURE END LIST*
D10*
X174876190Y-90711880D02*
X174876190Y-89711880D01*
X174542857Y-90426166D01*
X174209523Y-89711880D01*
X174209523Y-90711880D01*
X173733333Y-90711880D02*
X173733333Y-90045214D01*
X173733333Y-89711880D02*
X173780952Y-89759500D01*
X173733333Y-89807119D01*
X173685714Y-89759500D01*
X173733333Y-89711880D01*
X173733333Y-89807119D01*
X172828571Y-90711880D02*
X172828571Y-89711880D01*
X172828571Y-90664261D02*
X172923809Y-90711880D01*
X173114285Y-90711880D01*
X173209523Y-90664261D01*
X173257142Y-90616642D01*
X173304761Y-90521404D01*
X173304761Y-90235690D01*
X173257142Y-90140452D01*
X173209523Y-90092833D01*
X173114285Y-90045214D01*
X172923809Y-90045214D01*
X172828571Y-90092833D01*
X171923809Y-90711880D02*
X171923809Y-89711880D01*
X171923809Y-90664261D02*
X172019047Y-90711880D01*
X172209523Y-90711880D01*
X172304761Y-90664261D01*
X172352380Y-90616642D01*
X172400000Y-90521404D01*
X172400000Y-90235690D01*
X172352380Y-90140452D01*
X172304761Y-90092833D01*
X172209523Y-90045214D01*
X172019047Y-90045214D01*
X171923809Y-90092833D01*
X171304761Y-90711880D02*
X171400000Y-90664261D01*
X171447619Y-90569023D01*
X171447619Y-89711880D01*
X170542857Y-90664261D02*
X170638095Y-90711880D01*
X170828571Y-90711880D01*
X170923809Y-90664261D01*
X170971428Y-90569023D01*
X170971428Y-90188071D01*
X170923809Y-90092833D01*
X170828571Y-90045214D01*
X170638095Y-90045214D01*
X170542857Y-90092833D01*
X170495238Y-90188071D01*
X170495238Y-90283309D01*
X170971428Y-90378547D01*
X169304761Y-90711880D02*
X169304761Y-89711880D01*
X168923809Y-89711880D01*
X168828571Y-89759500D01*
X168780952Y-89807119D01*
X168733333Y-89902357D01*
X168733333Y-90045214D01*
X168780952Y-90140452D01*
X168828571Y-90188071D01*
X168923809Y-90235690D01*
X169304761Y-90235690D01*
X167733333Y-90616642D02*
X167780952Y-90664261D01*
X167923809Y-90711880D01*
X168019047Y-90711880D01*
X168161904Y-90664261D01*
X168257142Y-90569023D01*
X168304761Y-90473785D01*
X168352380Y-90283309D01*
X168352380Y-90140452D01*
X168304761Y-89949976D01*
X168257142Y-89854738D01*
X168161904Y-89759500D01*
X168019047Y-89711880D01*
X167923809Y-89711880D01*
X167780952Y-89759500D01*
X167733333Y-89807119D01*
X166971428Y-90188071D02*
X166828571Y-90235690D01*
X166780952Y-90283309D01*
X166733333Y-90378547D01*
X166733333Y-90521404D01*
X166780952Y-90616642D01*
X166828571Y-90664261D01*
X166923809Y-90711880D01*
X167304761Y-90711880D01*
X167304761Y-89711880D01*
X166971428Y-89711880D01*
X166876190Y-89759500D01*
X166828571Y-89807119D01*
X166780952Y-89902357D01*
X166780952Y-89997595D01*
X166828571Y-90092833D01*
X166876190Y-90140452D01*
X166971428Y-90188071D01*
X167304761Y-90188071D01*
X165400000Y-90711880D02*
X165495238Y-90664261D01*
X165542857Y-90616642D01*
X165590476Y-90521404D01*
X165590476Y-90235690D01*
X165542857Y-90140452D01*
X165495238Y-90092833D01*
X165400000Y-90045214D01*
X165257142Y-90045214D01*
X165161904Y-90092833D01*
X165114285Y-90140452D01*
X165066666Y-90235690D01*
X165066666Y-90521404D01*
X165114285Y-90616642D01*
X165161904Y-90664261D01*
X165257142Y-90711880D01*
X165400000Y-90711880D01*
X164638095Y-90045214D02*
X164638095Y-90711880D01*
X164638095Y-90140452D02*
X164590476Y-90092833D01*
X164495238Y-90045214D01*
X164352380Y-90045214D01*
X164257142Y-90092833D01*
X164209523Y-90188071D01*
X164209523Y-90711880D01*
X163590476Y-90711880D02*
X163685714Y-90664261D01*
X163733333Y-90569023D01*
X163733333Y-89711880D01*
X163304761Y-90045214D02*
X163066666Y-90711880D01*
X162828571Y-90045214D02*
X163066666Y-90711880D01*
X163161904Y-90949976D01*
X163209523Y-90997595D01*
X163304761Y-91045214D01*
X127635000Y-38100000D02*
X134112000Y-38100000D01*
D11*
X204307000Y-71990000D02*
G75*
G02X204557000Y-71740000I250000J0D01*
G01*
X207157000Y-71740000D02*
G75*
G02X207407000Y-71990000I0J-250000D01*
G01*
X207407000Y-71999000D02*
X207407000Y-80199000D01*
X204557000Y-71740000D02*
X207157000Y-71740000D01*
X204307000Y-71999000D02*
X204307000Y-80199000D01*
X204557000Y-80458000D02*
X207157000Y-80458000D01*
X204557000Y-80458000D02*
G75*
G02X204307000Y-80208000I0J250000D01*
G01*
X207407000Y-80208000D02*
G75*
G02X207157000Y-80458000I-250000J0D01*
G01*
X114707000Y-61259000D02*
G75*
G02X114457000Y-61509000I-250000J0D01*
G01*
X111857000Y-61509000D02*
G75*
G02X111607000Y-61259000I0J250000D01*
G01*
X111607000Y-61250000D02*
X111607000Y-53050000D01*
X114457000Y-61509000D02*
X111857000Y-61509000D01*
X114707000Y-61250000D02*
X114707000Y-53050000D01*
X114457000Y-52791000D02*
X111857000Y-52791000D01*
X114457000Y-52791000D02*
G75*
G02X114707000Y-53041000I0J-250000D01*
G01*
X111607000Y-53041000D02*
G75*
G02X111857000Y-52791000I250000J0D01*
G01*
X207331250Y-61315000D02*
G75*
G02X207081250Y-61565000I-250000J0D01*
G01*
X204481250Y-61565000D02*
G75*
G02X204231250Y-61315000I0J250000D01*
G01*
X204231250Y-61306000D02*
X204231250Y-53106000D01*
X207081250Y-61565000D02*
X204481250Y-61565000D01*
X207331250Y-61306000D02*
X207331250Y-53106000D01*
X207081250Y-52847000D02*
X204481250Y-52847000D01*
X207081250Y-52847000D02*
G75*
G02X207331250Y-53097000I0J-250000D01*
G01*
X204231250Y-53097000D02*
G75*
G02X204481250Y-52847000I250000J0D01*
G01*
D10*
X126897500Y-45777000D02*
X126897500Y-36377000D01*
X134697500Y-45777000D02*
X126897500Y-45777000D01*
X134697500Y-36377000D02*
X134697500Y-45777000D01*
X134697500Y-36377000D02*
X126897500Y-36377000D01*
D11*
X125177000Y-58700000D02*
G75*
G02X124927000Y-58450000I0J250000D01*
G01*
X124927000Y-55850000D02*
G75*
G02X125177000Y-55600000I250000J0D01*
G01*
X124927000Y-55850000D02*
X124927000Y-58450000D01*
X136183000Y-55600000D02*
X125183000Y-55600000D01*
X136439000Y-55850000D02*
X136439000Y-58450000D01*
X136183000Y-58700000D02*
X125183000Y-58700000D01*
X136439000Y-58450000D02*
G75*
G02X136189000Y-58700000I-250000J0D01*
G01*
X136189000Y-55600000D02*
G75*
G02X136439000Y-55850000I0J-250000D01*
G01*
D12*
X184153500Y-76703750D02*
X184153500Y-94483750D01*
X184153500Y-94483750D02*
X153673500Y-94483750D01*
X153673500Y-94483750D02*
X153673500Y-76703750D01*
X153673500Y-76703750D02*
X184153500Y-76703750D01*
X184153500Y-91943750D02*
X181613500Y-91943750D01*
X181613500Y-91943750D02*
X181613500Y-94483750D01*
D10*
X208085904Y-75832333D02*
X208657333Y-75832333D01*
X208771619Y-75794238D01*
X208847809Y-75718047D01*
X208885904Y-75603761D01*
X208885904Y-75527571D01*
X208162095Y-76175190D02*
X208124000Y-76213285D01*
X208085904Y-76289476D01*
X208085904Y-76479952D01*
X208124000Y-76556142D01*
X208162095Y-76594238D01*
X208238285Y-76632333D01*
X208314476Y-76632333D01*
X208428761Y-76594238D01*
X208885904Y-76137095D01*
X208885904Y-76632333D01*
X203321285Y-73819380D02*
X203892714Y-73819380D01*
X203607000Y-73819380D02*
X203607000Y-72819380D01*
X203702238Y-72962238D01*
X203797476Y-73057476D01*
X203892714Y-73105095D01*
X203892714Y-75664619D02*
X203845095Y-75617000D01*
X203749857Y-75569380D01*
X203511761Y-75569380D01*
X203416523Y-75617000D01*
X203368904Y-75664619D01*
X203321285Y-75759857D01*
X203321285Y-75855095D01*
X203368904Y-75997952D01*
X203940333Y-76569380D01*
X203321285Y-76569380D01*
X203940333Y-78319380D02*
X203321285Y-78319380D01*
X203654619Y-78700333D01*
X203511761Y-78700333D01*
X203416523Y-78747952D01*
X203368904Y-78795571D01*
X203321285Y-78890809D01*
X203321285Y-79128904D01*
X203368904Y-79224142D01*
X203416523Y-79271761D01*
X203511761Y-79319380D01*
X203797476Y-79319380D01*
X203892714Y-79271761D01*
X203940333Y-79224142D01*
X115385904Y-56883333D02*
X115957333Y-56883333D01*
X116071619Y-56845238D01*
X116147809Y-56769047D01*
X116185904Y-56654761D01*
X116185904Y-56578571D01*
X115385904Y-57188095D02*
X115385904Y-57683333D01*
X115690666Y-57416666D01*
X115690666Y-57530952D01*
X115728761Y-57607142D01*
X115766857Y-57645238D01*
X115843047Y-57683333D01*
X116033523Y-57683333D01*
X116109714Y-57645238D01*
X116147809Y-57607142D01*
X116185904Y-57530952D01*
X116185904Y-57302380D01*
X116147809Y-57226190D01*
X116109714Y-57188095D01*
X115121285Y-60334380D02*
X115692714Y-60334380D01*
X115407000Y-60334380D02*
X115407000Y-59334380D01*
X115502238Y-59477238D01*
X115597476Y-59572476D01*
X115692714Y-59620095D01*
X115692714Y-56679619D02*
X115645095Y-56632000D01*
X115549857Y-56584380D01*
X115311761Y-56584380D01*
X115216523Y-56632000D01*
X115168904Y-56679619D01*
X115121285Y-56774857D01*
X115121285Y-56870095D01*
X115168904Y-57012952D01*
X115740333Y-57584380D01*
X115121285Y-57584380D01*
X115740333Y-53834380D02*
X115121285Y-53834380D01*
X115454619Y-54215333D01*
X115311761Y-54215333D01*
X115216523Y-54262952D01*
X115168904Y-54310571D01*
X115121285Y-54405809D01*
X115121285Y-54643904D01*
X115168904Y-54739142D01*
X115216523Y-54786761D01*
X115311761Y-54834380D01*
X115597476Y-54834380D01*
X115692714Y-54786761D01*
X115740333Y-54739142D01*
X202634904Y-56939333D02*
X203206333Y-56939333D01*
X203320619Y-56901238D01*
X203396809Y-56825047D01*
X203434904Y-56710761D01*
X203434904Y-56634571D01*
X202634904Y-57701238D02*
X202634904Y-57320285D01*
X203015857Y-57282190D01*
X202977761Y-57320285D01*
X202939666Y-57396476D01*
X202939666Y-57586952D01*
X202977761Y-57663142D01*
X203015857Y-57701238D01*
X203092047Y-57739333D01*
X203282523Y-57739333D01*
X203358714Y-57701238D01*
X203396809Y-57663142D01*
X203434904Y-57586952D01*
X203434904Y-57396476D01*
X203396809Y-57320285D01*
X203358714Y-57282190D01*
X207745535Y-60390380D02*
X208316964Y-60390380D01*
X208031250Y-60390380D02*
X208031250Y-59390380D01*
X208126488Y-59533238D01*
X208221726Y-59628476D01*
X208316964Y-59676095D01*
X208316964Y-56735619D02*
X208269345Y-56688000D01*
X208174107Y-56640380D01*
X207936011Y-56640380D01*
X207840773Y-56688000D01*
X207793154Y-56735619D01*
X207745535Y-56830857D01*
X207745535Y-56926095D01*
X207793154Y-57068952D01*
X208364583Y-57640380D01*
X207745535Y-57640380D01*
X208364583Y-53890380D02*
X207745535Y-53890380D01*
X208078869Y-54271333D01*
X207936011Y-54271333D01*
X207840773Y-54318952D01*
X207793154Y-54366571D01*
X207745535Y-54461809D01*
X207745535Y-54699904D01*
X207793154Y-54795142D01*
X207840773Y-54842761D01*
X207936011Y-54890380D01*
X208221726Y-54890380D01*
X208316964Y-54842761D01*
X208364583Y-54795142D01*
X131230833Y-34629380D02*
X131230833Y-35343666D01*
X131278452Y-35486523D01*
X131373690Y-35581761D01*
X131516547Y-35629380D01*
X131611785Y-35629380D01*
X130326071Y-34629380D02*
X130516547Y-34629380D01*
X130611785Y-34677000D01*
X130659404Y-34724619D01*
X130754642Y-34867476D01*
X130802261Y-35057952D01*
X130802261Y-35438904D01*
X130754642Y-35534142D01*
X130707023Y-35581761D01*
X130611785Y-35629380D01*
X130421309Y-35629380D01*
X130326071Y-35581761D01*
X130278452Y-35534142D01*
X130230833Y-35438904D01*
X130230833Y-35200809D01*
X130278452Y-35105571D01*
X130326071Y-35057952D01*
X130421309Y-35010333D01*
X130611785Y-35010333D01*
X130707023Y-35057952D01*
X130754642Y-35105571D01*
X130802261Y-35200809D01*
X130949666Y-59378904D02*
X130949666Y-59950333D01*
X130987761Y-60064619D01*
X131063952Y-60140809D01*
X131178238Y-60178904D01*
X131254428Y-60178904D01*
X130644904Y-59378904D02*
X130111571Y-59378904D01*
X130454428Y-60178904D01*
X125939000Y-52959095D02*
X125891380Y-52863857D01*
X125891380Y-52721000D01*
X125939000Y-52578142D01*
X126034238Y-52482904D01*
X126129476Y-52435285D01*
X126319952Y-52387666D01*
X126462809Y-52387666D01*
X126653285Y-52435285D01*
X126748523Y-52482904D01*
X126843761Y-52578142D01*
X126891380Y-52721000D01*
X126891380Y-52816238D01*
X126843761Y-52959095D01*
X126796142Y-53006714D01*
X126462809Y-53006714D01*
X126462809Y-52816238D01*
X126891380Y-53435285D02*
X125891380Y-53435285D01*
X126891380Y-54006714D01*
X125891380Y-54006714D01*
X126891380Y-54482904D02*
X125891380Y-54482904D01*
X125891380Y-54721000D01*
X125939000Y-54863857D01*
X126034238Y-54959095D01*
X126129476Y-55006714D01*
X126319952Y-55054333D01*
X126462809Y-55054333D01*
X126653285Y-55006714D01*
X126748523Y-54959095D01*
X126843761Y-54863857D01*
X126891380Y-54721000D01*
X126891380Y-54482904D01*
X129891380Y-53221047D02*
X128891380Y-53221047D01*
X128891380Y-53459142D01*
X128939000Y-53602000D01*
X129034238Y-53697238D01*
X129129476Y-53744857D01*
X129319952Y-53792476D01*
X129462809Y-53792476D01*
X129653285Y-53744857D01*
X129748523Y-53697238D01*
X129843761Y-53602000D01*
X129891380Y-53459142D01*
X129891380Y-53221047D01*
X129510428Y-54221047D02*
X129510428Y-54982952D01*
X129891380Y-54602000D02*
X129129476Y-54602000D01*
X132641380Y-53221047D02*
X131641380Y-53221047D01*
X131641380Y-53459142D01*
X131689000Y-53602000D01*
X131784238Y-53697238D01*
X131879476Y-53744857D01*
X132069952Y-53792476D01*
X132212809Y-53792476D01*
X132403285Y-53744857D01*
X132498523Y-53697238D01*
X132593761Y-53602000D01*
X132641380Y-53459142D01*
X132641380Y-53221047D01*
X132260428Y-54221047D02*
X132260428Y-54982952D01*
X134391380Y-52387666D02*
X135391380Y-52721000D01*
X134391380Y-53054333D01*
X135296142Y-53959095D02*
X135343761Y-53911476D01*
X135391380Y-53768619D01*
X135391380Y-53673380D01*
X135343761Y-53530523D01*
X135248523Y-53435285D01*
X135153285Y-53387666D01*
X134962809Y-53340047D01*
X134819952Y-53340047D01*
X134629476Y-53387666D01*
X134534238Y-53435285D01*
X134439000Y-53530523D01*
X134391380Y-53673380D01*
X134391380Y-53768619D01*
X134439000Y-53911476D01*
X134486619Y-53959095D01*
X135296142Y-54959095D02*
X135343761Y-54911476D01*
X135391380Y-54768619D01*
X135391380Y-54673380D01*
X135343761Y-54530523D01*
X135248523Y-54435285D01*
X135153285Y-54387666D01*
X134962809Y-54340047D01*
X134819952Y-54340047D01*
X134629476Y-54387666D01*
X134534238Y-54435285D01*
X134439000Y-54530523D01*
X134391380Y-54673380D01*
X134391380Y-54768619D01*
X134439000Y-54911476D01*
X134486619Y-54959095D01*
X173900000Y-88822767D02*
X173947619Y-88870386D01*
X174090476Y-88918005D01*
X174185714Y-88918005D01*
X174328571Y-88870386D01*
X174423809Y-88775148D01*
X174471428Y-88679910D01*
X174519047Y-88489434D01*
X174519047Y-88346577D01*
X174471428Y-88156101D01*
X174423809Y-88060863D01*
X174328571Y-87965625D01*
X174185714Y-87918005D01*
X174090476Y-87918005D01*
X173947619Y-87965625D01*
X173900000Y-88013244D01*
X173471428Y-88918005D02*
X173471428Y-87918005D01*
X173042857Y-88918005D02*
X173042857Y-88394196D01*
X173090476Y-88298958D01*
X173185714Y-88251339D01*
X173328571Y-88251339D01*
X173423809Y-88298958D01*
X173471428Y-88346577D01*
X172566666Y-88918005D02*
X172566666Y-88251339D01*
X172566666Y-87918005D02*
X172614285Y-87965625D01*
X172566666Y-88013244D01*
X172519047Y-87965625D01*
X172566666Y-87918005D01*
X172566666Y-88013244D01*
X172090476Y-88251339D02*
X172090476Y-89251339D01*
X172090476Y-88298958D02*
X171995238Y-88251339D01*
X171804761Y-88251339D01*
X171709523Y-88298958D01*
X171661904Y-88346577D01*
X171614285Y-88441815D01*
X171614285Y-88727529D01*
X171661904Y-88822767D01*
X171709523Y-88870386D01*
X171804761Y-88918005D01*
X171995238Y-88918005D01*
X172090476Y-88870386D01*
X170471428Y-88870386D02*
X170376190Y-88918005D01*
X170185714Y-88918005D01*
X170090476Y-88870386D01*
X170042857Y-88775148D01*
X170042857Y-88727529D01*
X170090476Y-88632291D01*
X170185714Y-88584672D01*
X170328571Y-88584672D01*
X170423809Y-88537053D01*
X170471428Y-88441815D01*
X170471428Y-88394196D01*
X170423809Y-88298958D01*
X170328571Y-88251339D01*
X170185714Y-88251339D01*
X170090476Y-88298958D01*
X169614285Y-88918005D02*
X169614285Y-88251339D01*
X169614285Y-87918005D02*
X169661904Y-87965625D01*
X169614285Y-88013244D01*
X169566666Y-87965625D01*
X169614285Y-87918005D01*
X169614285Y-88013244D01*
X168709523Y-88918005D02*
X168709523Y-87918005D01*
X168709523Y-88870386D02*
X168804761Y-88918005D01*
X168995238Y-88918005D01*
X169090476Y-88870386D01*
X169138095Y-88822767D01*
X169185714Y-88727529D01*
X169185714Y-88441815D01*
X169138095Y-88346577D01*
X169090476Y-88298958D01*
X168995238Y-88251339D01*
X168804761Y-88251339D01*
X168709523Y-88298958D01*
X167852380Y-88870386D02*
X167947619Y-88918005D01*
X168138095Y-88918005D01*
X168233333Y-88870386D01*
X168280952Y-88775148D01*
X168280952Y-88394196D01*
X168233333Y-88298958D01*
X168138095Y-88251339D01*
X167947619Y-88251339D01*
X167852380Y-88298958D01*
X167804761Y-88394196D01*
X167804761Y-88489434D01*
X168280952Y-88584672D01*
X166185714Y-88918005D02*
X166185714Y-87918005D01*
X166185714Y-88870386D02*
X166280952Y-88918005D01*
X166471428Y-88918005D01*
X166566666Y-88870386D01*
X166614285Y-88822767D01*
X166661904Y-88727529D01*
X166661904Y-88441815D01*
X166614285Y-88346577D01*
X166566666Y-88298958D01*
X166471428Y-88251339D01*
X166280952Y-88251339D01*
X166185714Y-88298958D01*
X165566666Y-88918005D02*
X165661904Y-88870386D01*
X165709523Y-88822767D01*
X165757142Y-88727529D01*
X165757142Y-88441815D01*
X165709523Y-88346577D01*
X165661904Y-88298958D01*
X165566666Y-88251339D01*
X165423809Y-88251339D01*
X165328571Y-88298958D01*
X165280952Y-88346577D01*
X165233333Y-88441815D01*
X165233333Y-88727529D01*
X165280952Y-88822767D01*
X165328571Y-88870386D01*
X165423809Y-88918005D01*
X165566666Y-88918005D01*
X164900000Y-88251339D02*
X164709523Y-88918005D01*
X164519047Y-88441815D01*
X164328571Y-88918005D01*
X164138095Y-88251339D01*
X163757142Y-88251339D02*
X163757142Y-88918005D01*
X163757142Y-88346577D02*
X163709523Y-88298958D01*
X163614285Y-88251339D01*
X163471428Y-88251339D01*
X163376190Y-88298958D01*
X163328571Y-88394196D01*
X163328571Y-88918005D01*
D13*
X154893500Y-75404416D02*
X154926833Y-75504416D01*
X154960166Y-75537750D01*
X155026833Y-75571083D01*
X155126833Y-75571083D01*
X155193500Y-75537750D01*
X155226833Y-75504416D01*
X155260166Y-75437750D01*
X155260166Y-75171083D01*
X154560166Y-75171083D01*
X154560166Y-75404416D01*
X154593500Y-75471083D01*
X154626833Y-75504416D01*
X154693500Y-75537750D01*
X154760166Y-75537750D01*
X154826833Y-75504416D01*
X154860166Y-75471083D01*
X154893500Y-75404416D01*
X154893500Y-75171083D01*
X154560166Y-76204416D02*
X154560166Y-75871083D01*
X154893500Y-75837750D01*
X154860166Y-75871083D01*
X154826833Y-75937750D01*
X154826833Y-76104416D01*
X154860166Y-76171083D01*
X154893500Y-76204416D01*
X154960166Y-76237750D01*
X155126833Y-76237750D01*
X155193500Y-76204416D01*
X155226833Y-76171083D01*
X155260166Y-76104416D01*
X155260166Y-75937750D01*
X155226833Y-75871083D01*
X155193500Y-75837750D01*
X157433500Y-75404416D02*
X157466833Y-75504416D01*
X157500166Y-75537750D01*
X157566833Y-75571083D01*
X157666833Y-75571083D01*
X157733500Y-75537750D01*
X157766833Y-75504416D01*
X157800166Y-75437750D01*
X157800166Y-75171083D01*
X157100166Y-75171083D01*
X157100166Y-75404416D01*
X157133500Y-75471083D01*
X157166833Y-75504416D01*
X157233500Y-75537750D01*
X157300166Y-75537750D01*
X157366833Y-75504416D01*
X157400166Y-75471083D01*
X157433500Y-75404416D01*
X157433500Y-75171083D01*
X157333500Y-76171083D02*
X157800166Y-76171083D01*
X157066833Y-76004416D02*
X157566833Y-75837750D01*
X157566833Y-76271083D01*
X159973500Y-75204416D02*
X159973500Y-75437750D01*
X160340166Y-75537750D02*
X160340166Y-75204416D01*
X159640166Y-75204416D01*
X159640166Y-75537750D01*
X159640166Y-76137750D02*
X159640166Y-76004416D01*
X159673500Y-75937750D01*
X159706833Y-75904416D01*
X159806833Y-75837750D01*
X159940166Y-75804416D01*
X160206833Y-75804416D01*
X160273500Y-75837750D01*
X160306833Y-75871083D01*
X160340166Y-75937750D01*
X160340166Y-76071083D01*
X160306833Y-76137750D01*
X160273500Y-76171083D01*
X160206833Y-76204416D01*
X160040166Y-76204416D01*
X159973500Y-76171083D01*
X159940166Y-76137750D01*
X159906833Y-76071083D01*
X159906833Y-75937750D01*
X159940166Y-75871083D01*
X159973500Y-75837750D01*
X160040166Y-75804416D01*
X162880166Y-75171083D02*
X162180166Y-75171083D01*
X162180166Y-75337750D01*
X162213500Y-75437750D01*
X162280166Y-75504416D01*
X162346833Y-75537750D01*
X162480166Y-75571083D01*
X162580166Y-75571083D01*
X162713500Y-75537750D01*
X162780166Y-75504416D01*
X162846833Y-75437750D01*
X162880166Y-75337750D01*
X162880166Y-75171083D01*
X162180166Y-75804416D02*
X162180166Y-76271083D01*
X162880166Y-75971083D01*
X165353500Y-75571083D02*
X165386833Y-75537750D01*
X165420166Y-75437750D01*
X165420166Y-75371083D01*
X165386833Y-75271083D01*
X165320166Y-75204416D01*
X165253500Y-75171083D01*
X165120166Y-75137750D01*
X165020166Y-75137750D01*
X164886833Y-75171083D01*
X164820166Y-75204416D01*
X164753500Y-75271083D01*
X164720166Y-75371083D01*
X164720166Y-75437750D01*
X164753500Y-75537750D01*
X164786833Y-75571083D01*
X164720166Y-76171083D02*
X164720166Y-76037750D01*
X164753500Y-75971083D01*
X164786833Y-75937750D01*
X164886833Y-75871083D01*
X165020166Y-75837750D01*
X165286833Y-75837750D01*
X165353500Y-75871083D01*
X165386833Y-75904416D01*
X165420166Y-75971083D01*
X165420166Y-76104416D01*
X165386833Y-76171083D01*
X165353500Y-76204416D01*
X165286833Y-76237750D01*
X165120166Y-76237750D01*
X165053500Y-76204416D01*
X165020166Y-76171083D01*
X164986833Y-76104416D01*
X164986833Y-75971083D01*
X165020166Y-75904416D01*
X165053500Y-75871083D01*
X165120166Y-75837750D01*
X167960166Y-75171083D02*
X167260166Y-75171083D01*
X167260166Y-75337750D01*
X167293500Y-75437750D01*
X167360166Y-75504416D01*
X167426833Y-75537750D01*
X167560166Y-75571083D01*
X167660166Y-75571083D01*
X167793500Y-75537750D01*
X167860166Y-75504416D01*
X167926833Y-75437750D01*
X167960166Y-75337750D01*
X167960166Y-75171083D01*
X167493500Y-76171083D02*
X167960166Y-76171083D01*
X167226833Y-76004416D02*
X167726833Y-75837750D01*
X167726833Y-76271083D01*
X170500166Y-75171083D02*
X169800166Y-75171083D01*
X169800166Y-75337750D01*
X169833500Y-75437750D01*
X169900166Y-75504416D01*
X169966833Y-75537750D01*
X170100166Y-75571083D01*
X170200166Y-75571083D01*
X170333500Y-75537750D01*
X170400166Y-75504416D01*
X170466833Y-75437750D01*
X170500166Y-75337750D01*
X170500166Y-75171083D01*
X169800166Y-76004416D02*
X169800166Y-76071083D01*
X169833500Y-76137750D01*
X169866833Y-76171083D01*
X169933500Y-76204416D01*
X170066833Y-76237750D01*
X170233500Y-76237750D01*
X170366833Y-76204416D01*
X170433500Y-76171083D01*
X170466833Y-76137750D01*
X170500166Y-76071083D01*
X170500166Y-76004416D01*
X170466833Y-75937750D01*
X170433500Y-75904416D01*
X170366833Y-75871083D01*
X170233500Y-75837750D01*
X170066833Y-75837750D01*
X169933500Y-75871083D01*
X169866833Y-75904416D01*
X169833500Y-75937750D01*
X169800166Y-76004416D01*
X173040166Y-75171083D02*
X172340166Y-75171083D01*
X172340166Y-75337750D01*
X172373500Y-75437750D01*
X172440166Y-75504416D01*
X172506833Y-75537750D01*
X172640166Y-75571083D01*
X172740166Y-75571083D01*
X172873500Y-75537750D01*
X172940166Y-75504416D01*
X173006833Y-75437750D01*
X173040166Y-75337750D01*
X173040166Y-75171083D01*
X173040166Y-76237750D02*
X173040166Y-75837750D01*
X173040166Y-76037750D02*
X172340166Y-76037750D01*
X172440166Y-75971083D01*
X172506833Y-75904416D01*
X172540166Y-75837750D01*
X174913500Y-74900416D02*
X174880166Y-74833750D01*
X174880166Y-74733750D01*
X174913500Y-74633750D01*
X174980166Y-74567083D01*
X175046833Y-74533750D01*
X175180166Y-74500416D01*
X175280166Y-74500416D01*
X175413500Y-74533750D01*
X175480166Y-74567083D01*
X175546833Y-74633750D01*
X175580166Y-74733750D01*
X175580166Y-74800416D01*
X175546833Y-74900416D01*
X175513500Y-74933750D01*
X175280166Y-74933750D01*
X175280166Y-74800416D01*
X175580166Y-75233750D02*
X174880166Y-75233750D01*
X175580166Y-75633750D01*
X174880166Y-75633750D01*
X175580166Y-75967083D02*
X174880166Y-75967083D01*
X174880166Y-76133750D01*
X174913500Y-76233750D01*
X174980166Y-76300416D01*
X175046833Y-76333750D01*
X175180166Y-76367083D01*
X175280166Y-76367083D01*
X175413500Y-76333750D01*
X175480166Y-76300416D01*
X175546833Y-76233750D01*
X175580166Y-76133750D01*
X175580166Y-75967083D01*
X177453500Y-74900416D02*
X177420166Y-74833750D01*
X177420166Y-74733750D01*
X177453500Y-74633750D01*
X177520166Y-74567083D01*
X177586833Y-74533750D01*
X177720166Y-74500416D01*
X177820166Y-74500416D01*
X177953500Y-74533750D01*
X178020166Y-74567083D01*
X178086833Y-74633750D01*
X178120166Y-74733750D01*
X178120166Y-74800416D01*
X178086833Y-74900416D01*
X178053500Y-74933750D01*
X177820166Y-74933750D01*
X177820166Y-74800416D01*
X178120166Y-75233750D02*
X177420166Y-75233750D01*
X178120166Y-75633750D01*
X177420166Y-75633750D01*
X178120166Y-75967083D02*
X177420166Y-75967083D01*
X177420166Y-76133750D01*
X177453500Y-76233750D01*
X177520166Y-76300416D01*
X177586833Y-76333750D01*
X177720166Y-76367083D01*
X177820166Y-76367083D01*
X177953500Y-76333750D01*
X178020166Y-76300416D01*
X178086833Y-76233750D01*
X178120166Y-76133750D01*
X178120166Y-75967083D01*
X180660166Y-75171083D02*
X179960166Y-75171083D01*
X179960166Y-75337750D01*
X179993500Y-75437750D01*
X180060166Y-75504416D01*
X180126833Y-75537750D01*
X180260166Y-75571083D01*
X180360166Y-75571083D01*
X180493500Y-75537750D01*
X180560166Y-75504416D01*
X180626833Y-75437750D01*
X180660166Y-75337750D01*
X180660166Y-75171083D01*
X180026833Y-75837750D02*
X179993500Y-75871083D01*
X179960166Y-75937750D01*
X179960166Y-76104416D01*
X179993500Y-76171083D01*
X180026833Y-76204416D01*
X180093500Y-76237750D01*
X180160166Y-76237750D01*
X180260166Y-76204416D01*
X180660166Y-75804416D01*
X180660166Y-76237750D01*
X183200166Y-75171083D02*
X182500166Y-75171083D01*
X182500166Y-75337750D01*
X182533500Y-75437750D01*
X182600166Y-75504416D01*
X182666833Y-75537750D01*
X182800166Y-75571083D01*
X182900166Y-75571083D01*
X183033500Y-75537750D01*
X183100166Y-75504416D01*
X183166833Y-75437750D01*
X183200166Y-75337750D01*
X183200166Y-75171083D01*
X182500166Y-75804416D02*
X182500166Y-76237750D01*
X182766833Y-76004416D01*
X182766833Y-76104416D01*
X182800166Y-76171083D01*
X182833500Y-76204416D01*
X182900166Y-76237750D01*
X183066833Y-76237750D01*
X183133500Y-76204416D01*
X183166833Y-76171083D01*
X183200166Y-76104416D01*
X183200166Y-75904416D01*
X183166833Y-75837750D01*
X183133500Y-75804416D01*
X154893500Y-95216416D02*
X154926833Y-95316416D01*
X154960166Y-95349750D01*
X155026833Y-95383083D01*
X155126833Y-95383083D01*
X155193500Y-95349750D01*
X155226833Y-95316416D01*
X155260166Y-95249750D01*
X155260166Y-94983083D01*
X154560166Y-94983083D01*
X154560166Y-95216416D01*
X154593500Y-95283083D01*
X154626833Y-95316416D01*
X154693500Y-95349750D01*
X154760166Y-95349750D01*
X154826833Y-95316416D01*
X154860166Y-95283083D01*
X154893500Y-95216416D01*
X154893500Y-94983083D01*
X154560166Y-95983083D02*
X154560166Y-95849750D01*
X154593500Y-95783083D01*
X154626833Y-95749750D01*
X154726833Y-95683083D01*
X154860166Y-95649750D01*
X155126833Y-95649750D01*
X155193500Y-95683083D01*
X155226833Y-95716416D01*
X155260166Y-95783083D01*
X155260166Y-95916416D01*
X155226833Y-95983083D01*
X155193500Y-96016416D01*
X155126833Y-96049750D01*
X154960166Y-96049750D01*
X154893500Y-96016416D01*
X154860166Y-95983083D01*
X154826833Y-95916416D01*
X154826833Y-95783083D01*
X154860166Y-95716416D01*
X154893500Y-95683083D01*
X154960166Y-95649750D01*
X157433500Y-95216416D02*
X157466833Y-95316416D01*
X157500166Y-95349750D01*
X157566833Y-95383083D01*
X157666833Y-95383083D01*
X157733500Y-95349750D01*
X157766833Y-95316416D01*
X157800166Y-95249750D01*
X157800166Y-94983083D01*
X157100166Y-94983083D01*
X157100166Y-95216416D01*
X157133500Y-95283083D01*
X157166833Y-95316416D01*
X157233500Y-95349750D01*
X157300166Y-95349750D01*
X157366833Y-95316416D01*
X157400166Y-95283083D01*
X157433500Y-95216416D01*
X157433500Y-94983083D01*
X157166833Y-95649750D02*
X157133500Y-95683083D01*
X157100166Y-95749750D01*
X157100166Y-95916416D01*
X157133500Y-95983083D01*
X157166833Y-96016416D01*
X157233500Y-96049750D01*
X157300166Y-96049750D01*
X157400166Y-96016416D01*
X157800166Y-95616416D01*
X157800166Y-96049750D01*
X159973500Y-95216416D02*
X160006833Y-95316416D01*
X160040166Y-95349750D01*
X160106833Y-95383083D01*
X160206833Y-95383083D01*
X160273500Y-95349750D01*
X160306833Y-95316416D01*
X160340166Y-95249750D01*
X160340166Y-94983083D01*
X159640166Y-94983083D01*
X159640166Y-95216416D01*
X159673500Y-95283083D01*
X159706833Y-95316416D01*
X159773500Y-95349750D01*
X159840166Y-95349750D01*
X159906833Y-95316416D01*
X159940166Y-95283083D01*
X159973500Y-95216416D01*
X159973500Y-94983083D01*
X159640166Y-95616416D02*
X159640166Y-96049750D01*
X159906833Y-95816416D01*
X159906833Y-95916416D01*
X159940166Y-95983083D01*
X159973500Y-96016416D01*
X160040166Y-96049750D01*
X160206833Y-96049750D01*
X160273500Y-96016416D01*
X160306833Y-95983083D01*
X160340166Y-95916416D01*
X160340166Y-95716416D01*
X160306833Y-95649750D01*
X160273500Y-95616416D01*
X162513500Y-95216416D02*
X162546833Y-95316416D01*
X162580166Y-95349750D01*
X162646833Y-95383083D01*
X162746833Y-95383083D01*
X162813500Y-95349750D01*
X162846833Y-95316416D01*
X162880166Y-95249750D01*
X162880166Y-94983083D01*
X162180166Y-94983083D01*
X162180166Y-95216416D01*
X162213500Y-95283083D01*
X162246833Y-95316416D01*
X162313500Y-95349750D01*
X162380166Y-95349750D01*
X162446833Y-95316416D01*
X162480166Y-95283083D01*
X162513500Y-95216416D01*
X162513500Y-94983083D01*
X162880166Y-96049750D02*
X162880166Y-95649750D01*
X162880166Y-95849750D02*
X162180166Y-95849750D01*
X162280166Y-95783083D01*
X162346833Y-95716416D01*
X162380166Y-95649750D01*
X167593500Y-95266416D02*
X167593500Y-95033083D01*
X167960166Y-95033083D02*
X167260166Y-95033083D01*
X167260166Y-95366416D01*
X167260166Y-95933083D02*
X167260166Y-95799750D01*
X167293500Y-95733083D01*
X167326833Y-95699750D01*
X167426833Y-95633083D01*
X167560166Y-95599750D01*
X167826833Y-95599750D01*
X167893500Y-95633083D01*
X167926833Y-95666416D01*
X167960166Y-95733083D01*
X167960166Y-95866416D01*
X167926833Y-95933083D01*
X167893500Y-95966416D01*
X167826833Y-95999750D01*
X167660166Y-95999750D01*
X167593500Y-95966416D01*
X167560166Y-95933083D01*
X167526833Y-95866416D01*
X167526833Y-95733083D01*
X167560166Y-95666416D01*
X167593500Y-95633083D01*
X167660166Y-95599750D01*
X165053500Y-95266416D02*
X165053500Y-95033083D01*
X165420166Y-95033083D02*
X164720166Y-95033083D01*
X164720166Y-95366416D01*
X164720166Y-95566416D02*
X164720166Y-96033083D01*
X165420166Y-95733083D01*
X170133500Y-95266416D02*
X170133500Y-95033083D01*
X170500166Y-95033083D02*
X169800166Y-95033083D01*
X169800166Y-95366416D01*
X169800166Y-95966416D02*
X169800166Y-95633083D01*
X170133500Y-95599750D01*
X170100166Y-95633083D01*
X170066833Y-95699750D01*
X170066833Y-95866416D01*
X170100166Y-95933083D01*
X170133500Y-95966416D01*
X170200166Y-95999750D01*
X170366833Y-95999750D01*
X170433500Y-95966416D01*
X170466833Y-95933083D01*
X170500166Y-95866416D01*
X170500166Y-95699750D01*
X170466833Y-95633083D01*
X170433500Y-95599750D01*
X172673500Y-95266416D02*
X172673500Y-95033083D01*
X173040166Y-95033083D02*
X172340166Y-95033083D01*
X172340166Y-95366416D01*
X172573500Y-95933083D02*
X173040166Y-95933083D01*
X172306833Y-95766416D02*
X172806833Y-95599750D01*
X172806833Y-96033083D01*
X174880166Y-94820416D02*
X175580166Y-95053750D01*
X174880166Y-95287083D01*
X175513500Y-95920416D02*
X175546833Y-95887083D01*
X175580166Y-95787083D01*
X175580166Y-95720416D01*
X175546833Y-95620416D01*
X175480166Y-95553750D01*
X175413500Y-95520416D01*
X175280166Y-95487083D01*
X175180166Y-95487083D01*
X175046833Y-95520416D01*
X174980166Y-95553750D01*
X174913500Y-95620416D01*
X174880166Y-95720416D01*
X174880166Y-95787083D01*
X174913500Y-95887083D01*
X174946833Y-95920416D01*
X175513500Y-96620416D02*
X175546833Y-96587083D01*
X175580166Y-96487083D01*
X175580166Y-96420416D01*
X175546833Y-96320416D01*
X175480166Y-96253750D01*
X175413500Y-96220416D01*
X175280166Y-96187083D01*
X175180166Y-96187083D01*
X175046833Y-96220416D01*
X174980166Y-96253750D01*
X174913500Y-96320416D01*
X174880166Y-96420416D01*
X174880166Y-96487083D01*
X174913500Y-96587083D01*
X174946833Y-96620416D01*
X178120166Y-95370416D02*
X177786833Y-95137083D01*
X178120166Y-94970416D02*
X177420166Y-94970416D01*
X177420166Y-95237083D01*
X177453500Y-95303750D01*
X177486833Y-95337083D01*
X177553500Y-95370416D01*
X177653500Y-95370416D01*
X177720166Y-95337083D01*
X177753500Y-95303750D01*
X177786833Y-95237083D01*
X177786833Y-94970416D01*
X178086833Y-95637083D02*
X178120166Y-95737083D01*
X178120166Y-95903750D01*
X178086833Y-95970416D01*
X178053500Y-96003750D01*
X177986833Y-96037083D01*
X177920166Y-96037083D01*
X177853500Y-96003750D01*
X177820166Y-95970416D01*
X177786833Y-95903750D01*
X177753500Y-95770416D01*
X177720166Y-95703750D01*
X177686833Y-95670416D01*
X177620166Y-95637083D01*
X177553500Y-95637083D01*
X177486833Y-95670416D01*
X177453500Y-95703750D01*
X177420166Y-95770416D01*
X177420166Y-95937083D01*
X177453500Y-96037083D01*
X177420166Y-96237083D02*
X177420166Y-96637083D01*
X178120166Y-96437083D02*
X177420166Y-96437083D01*
X179993500Y-95220416D02*
X179960166Y-95153750D01*
X179960166Y-95053750D01*
X179993500Y-94953750D01*
X180060166Y-94887083D01*
X180126833Y-94853750D01*
X180260166Y-94820416D01*
X180360166Y-94820416D01*
X180493500Y-94853750D01*
X180560166Y-94887083D01*
X180626833Y-94953750D01*
X180660166Y-95053750D01*
X180660166Y-95120416D01*
X180626833Y-95220416D01*
X180593500Y-95253750D01*
X180360166Y-95253750D01*
X180360166Y-95120416D01*
X180660166Y-95553750D02*
X179960166Y-95553750D01*
X180660166Y-95953750D01*
X179960166Y-95953750D01*
X180660166Y-96287083D02*
X179960166Y-96287083D01*
X179960166Y-96453750D01*
X179993500Y-96553750D01*
X180060166Y-96620416D01*
X180126833Y-96653750D01*
X180260166Y-96687083D01*
X180360166Y-96687083D01*
X180493500Y-96653750D01*
X180560166Y-96620416D01*
X180626833Y-96553750D01*
X180660166Y-96453750D01*
X180660166Y-96287083D01*
X182946166Y-95270416D02*
X182612833Y-95037083D01*
X182946166Y-94870416D02*
X182246166Y-94870416D01*
X182246166Y-95137083D01*
X182279500Y-95203750D01*
X182312833Y-95237083D01*
X182379500Y-95270416D01*
X182479500Y-95270416D01*
X182546166Y-95237083D01*
X182579500Y-95203750D01*
X182612833Y-95137083D01*
X182612833Y-94870416D01*
X182746166Y-95537083D02*
X182746166Y-95870416D01*
X182946166Y-95470416D02*
X182246166Y-95703750D01*
X182946166Y-95937083D01*
X182246166Y-96103750D02*
X182946166Y-96270416D01*
X182446166Y-96403750D01*
X182946166Y-96537083D01*
X182246166Y-96703750D01*
M02*
