G04 #@! TF.GenerationSoftware,KiCad,Pcbnew,(5.1.4-0-10_14)*
G04 #@! TF.CreationDate,2020-09-16T20:51:02+02:00*
G04 #@! TF.ProjectId,tripel,74726970-656c-42e6-9b69-6361645f7063,rev?*
G04 #@! TF.SameCoordinates,Original*
G04 #@! TF.FileFunction,Profile,NP*
%FSLAX46Y46*%
G04 Gerber Fmt 4.6, Leading zero omitted, Abs format (unit mm)*
G04 Created by KiCad (PCBNEW (5.1.4-0-10_14)) date 2020-09-16 20:51:02*
%MOMM*%
%LPD*%
G04 APERTURE LIST*
%ADD10C,0.150000*%
%ADD11C,0.120000*%
G04 APERTURE END LIST*
D10*
X111875000Y-41187500D02*
X111875000Y-130187500D01*
X206875000Y-130187500D02*
X206875000Y-41187500D01*
X114875000Y-133187500D02*
X203875000Y-133187500D01*
X114875000Y-133187500D02*
G75*
G02X111875000Y-130187500I0J3000000D01*
G01*
X206875000Y-130187500D02*
G75*
G02X203875000Y-133187500I-3000000J0D01*
G01*
X114875000Y-38187500D02*
X203875000Y-38187500D01*
X111875000Y-41187500D02*
G75*
G02X114875000Y-38187500I3000000J0D01*
G01*
X203875000Y-38187500D02*
G75*
G02X206875000Y-41187500I0J-3000000D01*
G01*
D11*
X198272700Y-95917433D02*
X197324017Y-96233661D01*
X197324017Y-96233661D02*
G75*
G03X201118750Y-98968750I3794733J1264911D01*
G01*
X198272700Y-94020067D02*
X197324017Y-93703839D01*
X197324017Y-93703839D02*
G75*
G02X201118750Y-90968750I3794733J-1264911D01*
G01*
X198272700Y-95917433D02*
G75*
G03X201118750Y-97968750I2846050J948683D01*
G01*
X198272700Y-94020067D02*
G75*
G02X201118750Y-91968750I2846050J-948683D01*
G01*
X206618750Y-90968750D02*
X204618750Y-90968750D01*
X204618750Y-91968750D02*
X206618750Y-91968750D01*
X206618750Y-90968750D02*
X206618750Y-91968750D01*
X204618750Y-91968750D02*
X204618750Y-90968750D01*
X206618750Y-98968750D02*
X204618750Y-98968750D01*
X206618750Y-97968750D02*
X206618750Y-98968750D01*
X204618750Y-97968750D02*
X206618750Y-97968750D01*
X204618750Y-98968750D02*
X204618750Y-97968750D01*
X201118750Y-91968750D02*
X201118750Y-90968750D01*
X201118750Y-98968750D02*
X201118750Y-97968750D01*
X120382050Y-94020067D02*
X121330733Y-93703839D01*
X121330733Y-93703839D02*
G75*
G03X117536000Y-90968750I-3794733J-1264911D01*
G01*
X120382050Y-95917433D02*
X121330733Y-96233661D01*
X121330733Y-96233661D02*
G75*
G02X117536000Y-98968750I-3794733J1264911D01*
G01*
X120382050Y-94020067D02*
G75*
G03X117536000Y-91968750I-2846050J-948683D01*
G01*
X120382050Y-95917433D02*
G75*
G02X117536000Y-97968750I-2846050J948683D01*
G01*
X112036000Y-98968750D02*
X114036000Y-98968750D01*
X114036000Y-97968750D02*
X112036000Y-97968750D01*
X112036000Y-98968750D02*
X112036000Y-97968750D01*
X114036000Y-97968750D02*
X114036000Y-98968750D01*
X112036000Y-90968750D02*
X114036000Y-90968750D01*
X112036000Y-91968750D02*
X112036000Y-90968750D01*
X114036000Y-91968750D02*
X112036000Y-91968750D01*
X114036000Y-90968750D02*
X114036000Y-91968750D01*
X117536000Y-97968750D02*
X117536000Y-98968750D01*
X117536000Y-90968750D02*
X117536000Y-91968750D01*
M02*
