G04 #@! TF.GenerationSoftware,KiCad,Pcbnew,(5.1.4-0-10_14)*
G04 #@! TF.CreationDate,2019-10-25T20:11:30+02:00*
G04 #@! TF.ProjectId,tripel,74726970-656c-42e6-9b69-6361645f7063,rev?*
G04 #@! TF.SameCoordinates,Original*
G04 #@! TF.FileFunction,Legend,Top*
G04 #@! TF.FilePolarity,Positive*
%FSLAX46Y46*%
G04 Gerber Fmt 4.6, Leading zero omitted, Abs format (unit mm)*
G04 Created by KiCad (PCBNEW (5.1.4-0-10_14)) date 2019-10-25 20:11:30*
%MOMM*%
%LPD*%
G04 APERTURE LIST*
%ADD10C,0.150000*%
%ADD11C,0.450000*%
%ADD12C,0.381000*%
%ADD13C,0.200000*%
%ADD14C,0.203200*%
G04 APERTURE END LIST*
D10*
X197308333Y-127287880D02*
X196736904Y-127287880D01*
X197022619Y-127287880D02*
X197022619Y-126287880D01*
X196927380Y-126430738D01*
X196832142Y-126525976D01*
X196736904Y-126573595D01*
X198165476Y-126621214D02*
X198165476Y-127287880D01*
X197736904Y-126621214D02*
X197736904Y-127145023D01*
X197784523Y-127240261D01*
X197879761Y-127287880D01*
X198022619Y-127287880D01*
X198117857Y-127240261D01*
X198165476Y-127192642D01*
X181449428Y-126383119D02*
X181497047Y-126335500D01*
X181592285Y-126287880D01*
X181830380Y-126287880D01*
X181925619Y-126335500D01*
X181973238Y-126383119D01*
X182020857Y-126478357D01*
X182020857Y-126573595D01*
X181973238Y-126716452D01*
X181401809Y-127287880D01*
X182020857Y-127287880D01*
X182449428Y-127192642D02*
X182497047Y-127240261D01*
X182449428Y-127287880D01*
X182401809Y-127240261D01*
X182449428Y-127192642D01*
X182449428Y-127287880D01*
X182830380Y-126287880D02*
X183497047Y-126287880D01*
X183068476Y-127287880D01*
X184354190Y-126287880D02*
X183878000Y-126287880D01*
X183830380Y-126764071D01*
X183878000Y-126716452D01*
X183973238Y-126668833D01*
X184211333Y-126668833D01*
X184306571Y-126716452D01*
X184354190Y-126764071D01*
X184401809Y-126859309D01*
X184401809Y-127097404D01*
X184354190Y-127192642D01*
X184306571Y-127240261D01*
X184211333Y-127287880D01*
X183973238Y-127287880D01*
X183878000Y-127240261D01*
X183830380Y-127192642D01*
X185258952Y-126621214D02*
X185258952Y-127287880D01*
X184830380Y-126621214D02*
X184830380Y-127145023D01*
X184878000Y-127240261D01*
X184973238Y-127287880D01*
X185116095Y-127287880D01*
X185211333Y-127240261D01*
X185258952Y-127192642D01*
X170305047Y-127287880D02*
X169733619Y-127287880D01*
X170019333Y-127287880D02*
X170019333Y-126287880D01*
X169924095Y-126430738D01*
X169828857Y-126525976D01*
X169733619Y-126573595D01*
X170733619Y-127192642D02*
X170781238Y-127240261D01*
X170733619Y-127287880D01*
X170686000Y-127240261D01*
X170733619Y-127192642D01*
X170733619Y-127287880D01*
X171686000Y-126287880D02*
X171209809Y-126287880D01*
X171162190Y-126764071D01*
X171209809Y-126716452D01*
X171305047Y-126668833D01*
X171543142Y-126668833D01*
X171638380Y-126716452D01*
X171686000Y-126764071D01*
X171733619Y-126859309D01*
X171733619Y-127097404D01*
X171686000Y-127192642D01*
X171638380Y-127240261D01*
X171543142Y-127287880D01*
X171305047Y-127287880D01*
X171209809Y-127240261D01*
X171162190Y-127192642D01*
X172590761Y-126621214D02*
X172590761Y-127287880D01*
X172162190Y-126621214D02*
X172162190Y-127145023D01*
X172209809Y-127240261D01*
X172305047Y-127287880D01*
X172447904Y-127287880D01*
X172543142Y-127240261D01*
X172590761Y-127192642D01*
X149683333Y-127287880D02*
X149111904Y-127287880D01*
X149397619Y-127287880D02*
X149397619Y-126287880D01*
X149302380Y-126430738D01*
X149207142Y-126525976D01*
X149111904Y-126573595D01*
X150540476Y-126621214D02*
X150540476Y-127287880D01*
X150111904Y-126621214D02*
X150111904Y-127145023D01*
X150159523Y-127240261D01*
X150254761Y-127287880D01*
X150397619Y-127287880D01*
X150492857Y-127240261D01*
X150540476Y-127192642D01*
X134586428Y-126383119D02*
X134634047Y-126335500D01*
X134729285Y-126287880D01*
X134967380Y-126287880D01*
X135062619Y-126335500D01*
X135110238Y-126383119D01*
X135157857Y-126478357D01*
X135157857Y-126573595D01*
X135110238Y-126716452D01*
X134538809Y-127287880D01*
X135157857Y-127287880D01*
X135586428Y-127192642D02*
X135634047Y-127240261D01*
X135586428Y-127287880D01*
X135538809Y-127240261D01*
X135586428Y-127192642D01*
X135586428Y-127287880D01*
X136015000Y-126383119D02*
X136062619Y-126335500D01*
X136157857Y-126287880D01*
X136395952Y-126287880D01*
X136491190Y-126335500D01*
X136538809Y-126383119D01*
X136586428Y-126478357D01*
X136586428Y-126573595D01*
X136538809Y-126716452D01*
X135967380Y-127287880D01*
X136586428Y-127287880D01*
X137491190Y-126287880D02*
X137015000Y-126287880D01*
X136967380Y-126764071D01*
X137015000Y-126716452D01*
X137110238Y-126668833D01*
X137348333Y-126668833D01*
X137443571Y-126716452D01*
X137491190Y-126764071D01*
X137538809Y-126859309D01*
X137538809Y-127097404D01*
X137491190Y-127192642D01*
X137443571Y-127240261D01*
X137348333Y-127287880D01*
X137110238Y-127287880D01*
X137015000Y-127240261D01*
X136967380Y-127192642D01*
X138395952Y-126621214D02*
X138395952Y-127287880D01*
X137967380Y-126621214D02*
X137967380Y-127145023D01*
X138015000Y-127240261D01*
X138110238Y-127287880D01*
X138253095Y-127287880D01*
X138348333Y-127240261D01*
X138395952Y-127192642D01*
X122299047Y-127287880D02*
X121727619Y-127287880D01*
X122013333Y-127287880D02*
X122013333Y-126287880D01*
X121918095Y-126430738D01*
X121822857Y-126525976D01*
X121727619Y-126573595D01*
X122727619Y-127192642D02*
X122775238Y-127240261D01*
X122727619Y-127287880D01*
X122680000Y-127240261D01*
X122727619Y-127192642D01*
X122727619Y-127287880D01*
X123680000Y-126287880D02*
X123203809Y-126287880D01*
X123156190Y-126764071D01*
X123203809Y-126716452D01*
X123299047Y-126668833D01*
X123537142Y-126668833D01*
X123632380Y-126716452D01*
X123680000Y-126764071D01*
X123727619Y-126859309D01*
X123727619Y-127097404D01*
X123680000Y-127192642D01*
X123632380Y-127240261D01*
X123537142Y-127287880D01*
X123299047Y-127287880D01*
X123203809Y-127240261D01*
X123156190Y-127192642D01*
X124584761Y-126621214D02*
X124584761Y-127287880D01*
X124156190Y-126621214D02*
X124156190Y-127145023D01*
X124203809Y-127240261D01*
X124299047Y-127287880D01*
X124441904Y-127287880D01*
X124537142Y-127240261D01*
X124584761Y-127192642D01*
X155208380Y-126287880D02*
X155875047Y-126287880D01*
X155446476Y-127287880D01*
X156684571Y-126621214D02*
X156684571Y-127287880D01*
X156256000Y-126621214D02*
X156256000Y-127145023D01*
X156303619Y-127240261D01*
X156398857Y-127287880D01*
X156541714Y-127287880D01*
X156636952Y-127240261D01*
X156684571Y-127192642D01*
X157875047Y-127240261D02*
X157970285Y-127287880D01*
X158160761Y-127287880D01*
X158256000Y-127240261D01*
X158303619Y-127145023D01*
X158303619Y-127097404D01*
X158256000Y-127002166D01*
X158160761Y-126954547D01*
X158017904Y-126954547D01*
X157922666Y-126906928D01*
X157875047Y-126811690D01*
X157875047Y-126764071D01*
X157922666Y-126668833D01*
X158017904Y-126621214D01*
X158160761Y-126621214D01*
X158256000Y-126668833D01*
X158732190Y-126621214D02*
X158732190Y-127621214D01*
X158732190Y-126668833D02*
X158827428Y-126621214D01*
X159017904Y-126621214D01*
X159113142Y-126668833D01*
X159160761Y-126716452D01*
X159208380Y-126811690D01*
X159208380Y-127097404D01*
X159160761Y-127192642D01*
X159113142Y-127240261D01*
X159017904Y-127287880D01*
X158827428Y-127287880D01*
X158732190Y-127240261D01*
X160065523Y-127287880D02*
X160065523Y-126764071D01*
X160017904Y-126668833D01*
X159922666Y-126621214D01*
X159732190Y-126621214D01*
X159636952Y-126668833D01*
X160065523Y-127240261D02*
X159970285Y-127287880D01*
X159732190Y-127287880D01*
X159636952Y-127240261D01*
X159589333Y-127145023D01*
X159589333Y-127049785D01*
X159636952Y-126954547D01*
X159732190Y-126906928D01*
X159970285Y-126906928D01*
X160065523Y-126859309D01*
X160970285Y-127240261D02*
X160875047Y-127287880D01*
X160684571Y-127287880D01*
X160589333Y-127240261D01*
X160541714Y-127192642D01*
X160494095Y-127097404D01*
X160494095Y-126811690D01*
X160541714Y-126716452D01*
X160589333Y-126668833D01*
X160684571Y-126621214D01*
X160875047Y-126621214D01*
X160970285Y-126668833D01*
X161779809Y-127240261D02*
X161684571Y-127287880D01*
X161494095Y-127287880D01*
X161398857Y-127240261D01*
X161351238Y-127145023D01*
X161351238Y-126764071D01*
X161398857Y-126668833D01*
X161494095Y-126621214D01*
X161684571Y-126621214D01*
X161779809Y-126668833D01*
X161827428Y-126764071D01*
X161827428Y-126859309D01*
X161351238Y-126954547D01*
X162256000Y-127287880D02*
X162256000Y-126287880D01*
X162256000Y-126668833D02*
X162351238Y-126621214D01*
X162541714Y-126621214D01*
X162636952Y-126668833D01*
X162684571Y-126716452D01*
X162732190Y-126811690D01*
X162732190Y-127097404D01*
X162684571Y-127192642D01*
X162636952Y-127240261D01*
X162541714Y-127287880D01*
X162351238Y-127287880D01*
X162256000Y-127240261D01*
X163589333Y-127287880D02*
X163589333Y-126764071D01*
X163541714Y-126668833D01*
X163446476Y-126621214D01*
X163256000Y-126621214D01*
X163160761Y-126668833D01*
X163589333Y-127240261D02*
X163494095Y-127287880D01*
X163256000Y-127287880D01*
X163160761Y-127240261D01*
X163113142Y-127145023D01*
X163113142Y-127049785D01*
X163160761Y-126954547D01*
X163256000Y-126906928D01*
X163494095Y-126906928D01*
X163589333Y-126859309D01*
X164065523Y-127287880D02*
X164065523Y-126621214D01*
X164065523Y-126811690D02*
X164113142Y-126716452D01*
X164160761Y-126668833D01*
X164256000Y-126621214D01*
X164351238Y-126621214D01*
X200047095Y-130859880D02*
X200713761Y-130859880D01*
X200285190Y-131859880D01*
X201523285Y-131193214D02*
X201523285Y-131859880D01*
X201094714Y-131193214D02*
X201094714Y-131717023D01*
X201142333Y-131812261D01*
X201237571Y-131859880D01*
X201380428Y-131859880D01*
X201475666Y-131812261D01*
X201523285Y-131764642D01*
X202713761Y-131812261D02*
X202809000Y-131859880D01*
X202999476Y-131859880D01*
X203094714Y-131812261D01*
X203142333Y-131717023D01*
X203142333Y-131669404D01*
X203094714Y-131574166D01*
X202999476Y-131526547D01*
X202856619Y-131526547D01*
X202761380Y-131478928D01*
X202713761Y-131383690D01*
X202713761Y-131336071D01*
X202761380Y-131240833D01*
X202856619Y-131193214D01*
X202999476Y-131193214D01*
X203094714Y-131240833D01*
X203428047Y-131193214D02*
X203809000Y-131193214D01*
X203570904Y-130859880D02*
X203570904Y-131717023D01*
X203618523Y-131812261D01*
X203713761Y-131859880D01*
X203809000Y-131859880D01*
X204570904Y-131859880D02*
X204570904Y-131336071D01*
X204523285Y-131240833D01*
X204428047Y-131193214D01*
X204237571Y-131193214D01*
X204142333Y-131240833D01*
X204570904Y-131812261D02*
X204475666Y-131859880D01*
X204237571Y-131859880D01*
X204142333Y-131812261D01*
X204094714Y-131717023D01*
X204094714Y-131621785D01*
X204142333Y-131526547D01*
X204237571Y-131478928D01*
X204475666Y-131478928D01*
X204570904Y-131431309D01*
X205047095Y-131859880D02*
X205047095Y-130859880D01*
X205047095Y-131240833D02*
X205142333Y-131193214D01*
X205332809Y-131193214D01*
X205428047Y-131240833D01*
X205475666Y-131288452D01*
X205523285Y-131383690D01*
X205523285Y-131669404D01*
X205475666Y-131764642D01*
X205428047Y-131812261D01*
X205332809Y-131859880D01*
X205142333Y-131859880D01*
X205047095Y-131812261D01*
X127254000Y-38100000D02*
X134493000Y-38100000D01*
X173091666Y-114476880D02*
X172901190Y-114476880D01*
X172805952Y-114524500D01*
X172758333Y-114572119D01*
X172663095Y-114714976D01*
X172615476Y-114905452D01*
X172615476Y-115286404D01*
X172663095Y-115381642D01*
X172710714Y-115429261D01*
X172805952Y-115476880D01*
X172996428Y-115476880D01*
X173091666Y-115429261D01*
X173139285Y-115381642D01*
X173186904Y-115286404D01*
X173186904Y-115048309D01*
X173139285Y-114953071D01*
X173091666Y-114905452D01*
X172996428Y-114857833D01*
X172805952Y-114857833D01*
X172710714Y-114905452D01*
X172663095Y-114953071D01*
X172615476Y-115048309D01*
X173805952Y-114476880D02*
X173901190Y-114476880D01*
X173996428Y-114524500D01*
X174044047Y-114572119D01*
X174091666Y-114667357D01*
X174139285Y-114857833D01*
X174139285Y-115095928D01*
X174091666Y-115286404D01*
X174044047Y-115381642D01*
X173996428Y-115429261D01*
X173901190Y-115476880D01*
X173805952Y-115476880D01*
X173710714Y-115429261D01*
X173663095Y-115381642D01*
X173615476Y-115286404D01*
X173567857Y-115095928D01*
X173567857Y-114857833D01*
X173615476Y-114667357D01*
X173663095Y-114572119D01*
X173710714Y-114524500D01*
X173805952Y-114476880D01*
X174520238Y-115476880D02*
X175282142Y-114476880D01*
X174663095Y-114476880D02*
X174758333Y-114524500D01*
X174805952Y-114619738D01*
X174758333Y-114714976D01*
X174663095Y-114762595D01*
X174567857Y-114714976D01*
X174520238Y-114619738D01*
X174567857Y-114524500D01*
X174663095Y-114476880D01*
X175234523Y-115429261D02*
X175282142Y-115334023D01*
X175234523Y-115238785D01*
X175139285Y-115191166D01*
X175044047Y-115238785D01*
X174996428Y-115334023D01*
X175044047Y-115429261D01*
X175139285Y-115476880D01*
X175234523Y-115429261D01*
X176615476Y-115476880D02*
X176520238Y-115429261D01*
X176472619Y-115381642D01*
X176425000Y-115286404D01*
X176425000Y-115000690D01*
X176472619Y-114905452D01*
X176520238Y-114857833D01*
X176615476Y-114810214D01*
X176758333Y-114810214D01*
X176853571Y-114857833D01*
X176901190Y-114905452D01*
X176948809Y-115000690D01*
X176948809Y-115286404D01*
X176901190Y-115381642D01*
X176853571Y-115429261D01*
X176758333Y-115476880D01*
X176615476Y-115476880D01*
X177377380Y-115476880D02*
X177377380Y-114810214D01*
X177377380Y-115000690D02*
X177425000Y-114905452D01*
X177472619Y-114857833D01*
X177567857Y-114810214D01*
X177663095Y-114810214D01*
X177853571Y-114810214D02*
X178234523Y-114810214D01*
X177996428Y-114476880D02*
X177996428Y-115334023D01*
X178044047Y-115429261D01*
X178139285Y-115476880D01*
X178234523Y-115476880D01*
X178567857Y-115476880D02*
X178567857Y-114476880D01*
X178996428Y-115476880D02*
X178996428Y-114953071D01*
X178948809Y-114857833D01*
X178853571Y-114810214D01*
X178710714Y-114810214D01*
X178615476Y-114857833D01*
X178567857Y-114905452D01*
X179615476Y-115476880D02*
X179520238Y-115429261D01*
X179472619Y-115381642D01*
X179425000Y-115286404D01*
X179425000Y-115000690D01*
X179472619Y-114905452D01*
X179520238Y-114857833D01*
X179615476Y-114810214D01*
X179758333Y-114810214D01*
X179853571Y-114857833D01*
X179901190Y-114905452D01*
X179948809Y-115000690D01*
X179948809Y-115286404D01*
X179901190Y-115381642D01*
X179853571Y-115429261D01*
X179758333Y-115476880D01*
X179615476Y-115476880D01*
X180520238Y-115476880D02*
X180425000Y-115429261D01*
X180377380Y-115334023D01*
X180377380Y-114476880D01*
X180901190Y-115476880D02*
X180901190Y-114810214D01*
X180901190Y-114476880D02*
X180853571Y-114524500D01*
X180901190Y-114572119D01*
X180948809Y-114524500D01*
X180901190Y-114476880D01*
X180901190Y-114572119D01*
X181377380Y-114810214D02*
X181377380Y-115476880D01*
X181377380Y-114905452D02*
X181425000Y-114857833D01*
X181520238Y-114810214D01*
X181663095Y-114810214D01*
X181758333Y-114857833D01*
X181805952Y-114953071D01*
X181805952Y-115476880D01*
X182663095Y-115429261D02*
X182567857Y-115476880D01*
X182377380Y-115476880D01*
X182282142Y-115429261D01*
X182234523Y-115334023D01*
X182234523Y-114953071D01*
X182282142Y-114857833D01*
X182377380Y-114810214D01*
X182567857Y-114810214D01*
X182663095Y-114857833D01*
X182710714Y-114953071D01*
X182710714Y-115048309D01*
X182234523Y-115143547D01*
X183567857Y-115476880D02*
X183567857Y-114953071D01*
X183520238Y-114857833D01*
X183425000Y-114810214D01*
X183234523Y-114810214D01*
X183139285Y-114857833D01*
X183567857Y-115429261D02*
X183472619Y-115476880D01*
X183234523Y-115476880D01*
X183139285Y-115429261D01*
X183091666Y-115334023D01*
X183091666Y-115238785D01*
X183139285Y-115143547D01*
X183234523Y-115095928D01*
X183472619Y-115095928D01*
X183567857Y-115048309D01*
X184044047Y-115476880D02*
X184044047Y-114810214D01*
X184044047Y-115000690D02*
X184091666Y-114905452D01*
X184139285Y-114857833D01*
X184234523Y-114810214D01*
X184329761Y-114810214D01*
X185855571Y-97569880D02*
X185522238Y-97093690D01*
X185284142Y-97569880D02*
X185284142Y-96569880D01*
X185665095Y-96569880D01*
X185760333Y-96617500D01*
X185807952Y-96665119D01*
X185855571Y-96760357D01*
X185855571Y-96903214D01*
X185807952Y-96998452D01*
X185760333Y-97046071D01*
X185665095Y-97093690D01*
X185284142Y-97093690D01*
X186284142Y-97569880D02*
X186284142Y-96903214D01*
X186284142Y-96569880D02*
X186236523Y-96617500D01*
X186284142Y-96665119D01*
X186331761Y-96617500D01*
X186284142Y-96569880D01*
X186284142Y-96665119D01*
X187188904Y-96903214D02*
X187188904Y-97712738D01*
X187141285Y-97807976D01*
X187093666Y-97855595D01*
X186998428Y-97903214D01*
X186855571Y-97903214D01*
X186760333Y-97855595D01*
X187188904Y-97522261D02*
X187093666Y-97569880D01*
X186903190Y-97569880D01*
X186807952Y-97522261D01*
X186760333Y-97474642D01*
X186712714Y-97379404D01*
X186712714Y-97093690D01*
X186760333Y-96998452D01*
X186807952Y-96950833D01*
X186903190Y-96903214D01*
X187093666Y-96903214D01*
X187188904Y-96950833D01*
X187665095Y-97569880D02*
X187665095Y-96569880D01*
X188093666Y-97569880D02*
X188093666Y-97046071D01*
X188046047Y-96950833D01*
X187950809Y-96903214D01*
X187807952Y-96903214D01*
X187712714Y-96950833D01*
X187665095Y-96998452D01*
X188427000Y-96903214D02*
X188807952Y-96903214D01*
X188569857Y-96569880D02*
X188569857Y-97427023D01*
X188617476Y-97522261D01*
X188712714Y-97569880D01*
X188807952Y-97569880D01*
X189903190Y-97569880D02*
X189903190Y-96569880D01*
X190284142Y-96569880D01*
X190379380Y-96617500D01*
X190427000Y-96665119D01*
X190474619Y-96760357D01*
X190474619Y-96903214D01*
X190427000Y-96998452D01*
X190379380Y-97046071D01*
X190284142Y-97093690D01*
X189903190Y-97093690D01*
X191474619Y-97474642D02*
X191427000Y-97522261D01*
X191284142Y-97569880D01*
X191188904Y-97569880D01*
X191046047Y-97522261D01*
X190950809Y-97427023D01*
X190903190Y-97331785D01*
X190855571Y-97141309D01*
X190855571Y-96998452D01*
X190903190Y-96807976D01*
X190950809Y-96712738D01*
X191046047Y-96617500D01*
X191188904Y-96569880D01*
X191284142Y-96569880D01*
X191427000Y-96617500D01*
X191474619Y-96665119D01*
X192236523Y-97046071D02*
X192379380Y-97093690D01*
X192427000Y-97141309D01*
X192474619Y-97236547D01*
X192474619Y-97379404D01*
X192427000Y-97474642D01*
X192379380Y-97522261D01*
X192284142Y-97569880D01*
X191903190Y-97569880D01*
X191903190Y-96569880D01*
X192236523Y-96569880D01*
X192331761Y-96617500D01*
X192379380Y-96665119D01*
X192427000Y-96760357D01*
X192427000Y-96855595D01*
X192379380Y-96950833D01*
X192331761Y-96998452D01*
X192236523Y-97046071D01*
X191903190Y-97046071D01*
X192950809Y-97522261D02*
X192950809Y-97569880D01*
X192903190Y-97665119D01*
X192855571Y-97712738D01*
X194284142Y-97569880D02*
X194188904Y-97522261D01*
X194141285Y-97474642D01*
X194093666Y-97379404D01*
X194093666Y-97093690D01*
X194141285Y-96998452D01*
X194188904Y-96950833D01*
X194284142Y-96903214D01*
X194427000Y-96903214D01*
X194522238Y-96950833D01*
X194569857Y-96998452D01*
X194617476Y-97093690D01*
X194617476Y-97379404D01*
X194569857Y-97474642D01*
X194522238Y-97522261D01*
X194427000Y-97569880D01*
X194284142Y-97569880D01*
X194903190Y-96903214D02*
X195284142Y-96903214D01*
X195046047Y-96569880D02*
X195046047Y-97427023D01*
X195093666Y-97522261D01*
X195188904Y-97569880D01*
X195284142Y-97569880D01*
X195617476Y-97569880D02*
X195617476Y-96569880D01*
X196046047Y-97569880D02*
X196046047Y-97046071D01*
X195998428Y-96950833D01*
X195903190Y-96903214D01*
X195760333Y-96903214D01*
X195665095Y-96950833D01*
X195617476Y-96998452D01*
X196903190Y-97522261D02*
X196807952Y-97569880D01*
X196617476Y-97569880D01*
X196522238Y-97522261D01*
X196474619Y-97427023D01*
X196474619Y-97046071D01*
X196522238Y-96950833D01*
X196617476Y-96903214D01*
X196807952Y-96903214D01*
X196903190Y-96950833D01*
X196950809Y-97046071D01*
X196950809Y-97141309D01*
X196474619Y-97236547D01*
X197379380Y-97569880D02*
X197379380Y-96903214D01*
X197379380Y-97093690D02*
X197427000Y-96998452D01*
X197474619Y-96950833D01*
X197569857Y-96903214D01*
X197665095Y-96903214D01*
X198665095Y-96903214D02*
X198855571Y-97569880D01*
X199046047Y-97093690D01*
X199236523Y-97569880D01*
X199427000Y-96903214D01*
X200236523Y-97569880D02*
X200236523Y-97046071D01*
X200188904Y-96950833D01*
X200093666Y-96903214D01*
X199903190Y-96903214D01*
X199807952Y-96950833D01*
X200236523Y-97522261D02*
X200141285Y-97569880D01*
X199903190Y-97569880D01*
X199807952Y-97522261D01*
X199760333Y-97427023D01*
X199760333Y-97331785D01*
X199807952Y-97236547D01*
X199903190Y-97188928D01*
X200141285Y-97188928D01*
X200236523Y-97141309D01*
X200617476Y-96903214D02*
X200855571Y-97569880D01*
X201093666Y-96903214D02*
X200855571Y-97569880D01*
X200760333Y-97807976D01*
X200712714Y-97855595D01*
X200617476Y-97903214D01*
X202665095Y-96903214D02*
X202665095Y-97569880D01*
X202236523Y-96903214D02*
X202236523Y-97427023D01*
X202284142Y-97522261D01*
X202379380Y-97569880D01*
X202522238Y-97569880D01*
X202617476Y-97522261D01*
X202665095Y-97474642D01*
X203141285Y-96903214D02*
X203141285Y-97903214D01*
X203141285Y-96950833D02*
X203236523Y-96903214D01*
X203427000Y-96903214D01*
X203522238Y-96950833D01*
X203569857Y-96998452D01*
X203617476Y-97093690D01*
X203617476Y-97379404D01*
X203569857Y-97474642D01*
X203522238Y-97522261D01*
X203427000Y-97569880D01*
X203236523Y-97569880D01*
X203141285Y-97522261D01*
X119394761Y-97569880D02*
X118918571Y-97569880D01*
X118918571Y-96569880D01*
X120109047Y-97522261D02*
X120013809Y-97569880D01*
X119823333Y-97569880D01*
X119728095Y-97522261D01*
X119680476Y-97427023D01*
X119680476Y-97046071D01*
X119728095Y-96950833D01*
X119823333Y-96903214D01*
X120013809Y-96903214D01*
X120109047Y-96950833D01*
X120156666Y-97046071D01*
X120156666Y-97141309D01*
X119680476Y-97236547D01*
X120442380Y-96903214D02*
X120823333Y-96903214D01*
X120585238Y-97569880D02*
X120585238Y-96712738D01*
X120632857Y-96617500D01*
X120728095Y-96569880D01*
X120823333Y-96569880D01*
X121013809Y-96903214D02*
X121394761Y-96903214D01*
X121156666Y-96569880D02*
X121156666Y-97427023D01*
X121204285Y-97522261D01*
X121299523Y-97569880D01*
X121394761Y-97569880D01*
X122490000Y-97569880D02*
X122490000Y-96569880D01*
X122870952Y-96569880D01*
X122966190Y-96617500D01*
X123013809Y-96665119D01*
X123061428Y-96760357D01*
X123061428Y-96903214D01*
X123013809Y-96998452D01*
X122966190Y-97046071D01*
X122870952Y-97093690D01*
X122490000Y-97093690D01*
X124061428Y-97474642D02*
X124013809Y-97522261D01*
X123870952Y-97569880D01*
X123775714Y-97569880D01*
X123632857Y-97522261D01*
X123537619Y-97427023D01*
X123490000Y-97331785D01*
X123442380Y-97141309D01*
X123442380Y-96998452D01*
X123490000Y-96807976D01*
X123537619Y-96712738D01*
X123632857Y-96617500D01*
X123775714Y-96569880D01*
X123870952Y-96569880D01*
X124013809Y-96617500D01*
X124061428Y-96665119D01*
X124823333Y-97046071D02*
X124966190Y-97093690D01*
X125013809Y-97141309D01*
X125061428Y-97236547D01*
X125061428Y-97379404D01*
X125013809Y-97474642D01*
X124966190Y-97522261D01*
X124870952Y-97569880D01*
X124490000Y-97569880D01*
X124490000Y-96569880D01*
X124823333Y-96569880D01*
X124918571Y-96617500D01*
X124966190Y-96665119D01*
X125013809Y-96760357D01*
X125013809Y-96855595D01*
X124966190Y-96950833D01*
X124918571Y-96998452D01*
X124823333Y-97046071D01*
X124490000Y-97046071D01*
X125537619Y-97522261D02*
X125537619Y-97569880D01*
X125490000Y-97665119D01*
X125442380Y-97712738D01*
X126585238Y-96903214D02*
X126966190Y-96903214D01*
X126728095Y-96569880D02*
X126728095Y-97427023D01*
X126775714Y-97522261D01*
X126870952Y-97569880D01*
X126966190Y-97569880D01*
X127299523Y-97569880D02*
X127299523Y-96569880D01*
X127728095Y-97569880D02*
X127728095Y-97046071D01*
X127680476Y-96950833D01*
X127585238Y-96903214D01*
X127442380Y-96903214D01*
X127347142Y-96950833D01*
X127299523Y-96998452D01*
X128204285Y-97569880D02*
X128204285Y-96903214D01*
X128204285Y-96569880D02*
X128156666Y-96617500D01*
X128204285Y-96665119D01*
X128251904Y-96617500D01*
X128204285Y-96569880D01*
X128204285Y-96665119D01*
X128632857Y-97522261D02*
X128728095Y-97569880D01*
X128918571Y-97569880D01*
X129013809Y-97522261D01*
X129061428Y-97427023D01*
X129061428Y-97379404D01*
X129013809Y-97284166D01*
X128918571Y-97236547D01*
X128775714Y-97236547D01*
X128680476Y-97188928D01*
X128632857Y-97093690D01*
X128632857Y-97046071D01*
X128680476Y-96950833D01*
X128775714Y-96903214D01*
X128918571Y-96903214D01*
X129013809Y-96950833D01*
X130156666Y-96903214D02*
X130347142Y-97569880D01*
X130537619Y-97093690D01*
X130728095Y-97569880D01*
X130918571Y-96903214D01*
X131728095Y-97569880D02*
X131728095Y-97046071D01*
X131680476Y-96950833D01*
X131585238Y-96903214D01*
X131394761Y-96903214D01*
X131299523Y-96950833D01*
X131728095Y-97522261D02*
X131632857Y-97569880D01*
X131394761Y-97569880D01*
X131299523Y-97522261D01*
X131251904Y-97427023D01*
X131251904Y-97331785D01*
X131299523Y-97236547D01*
X131394761Y-97188928D01*
X131632857Y-97188928D01*
X131728095Y-97141309D01*
X132109047Y-96903214D02*
X132347142Y-97569880D01*
X132585238Y-96903214D02*
X132347142Y-97569880D01*
X132251904Y-97807976D01*
X132204285Y-97855595D01*
X132109047Y-97903214D01*
X134156666Y-96903214D02*
X134156666Y-97569880D01*
X133728095Y-96903214D02*
X133728095Y-97427023D01*
X133775714Y-97522261D01*
X133870952Y-97569880D01*
X134013809Y-97569880D01*
X134109047Y-97522261D01*
X134156666Y-97474642D01*
X134632857Y-96903214D02*
X134632857Y-97903214D01*
X134632857Y-96950833D02*
X134728095Y-96903214D01*
X134918571Y-96903214D01*
X135013809Y-96950833D01*
X135061428Y-96998452D01*
X135109047Y-97093690D01*
X135109047Y-97379404D01*
X135061428Y-97474642D01*
X135013809Y-97522261D01*
X134918571Y-97569880D01*
X134728095Y-97569880D01*
X134632857Y-97522261D01*
X150303571Y-97569880D02*
X150303571Y-96569880D01*
X150636904Y-97284166D01*
X150970238Y-96569880D01*
X150970238Y-97569880D01*
X151446428Y-97569880D02*
X151446428Y-96903214D01*
X151446428Y-96569880D02*
X151398809Y-96617500D01*
X151446428Y-96665119D01*
X151494047Y-96617500D01*
X151446428Y-96569880D01*
X151446428Y-96665119D01*
X152351190Y-97569880D02*
X152351190Y-96569880D01*
X152351190Y-97522261D02*
X152255952Y-97569880D01*
X152065476Y-97569880D01*
X151970238Y-97522261D01*
X151922619Y-97474642D01*
X151875000Y-97379404D01*
X151875000Y-97093690D01*
X151922619Y-96998452D01*
X151970238Y-96950833D01*
X152065476Y-96903214D01*
X152255952Y-96903214D01*
X152351190Y-96950833D01*
X153255952Y-97569880D02*
X153255952Y-96569880D01*
X153255952Y-97522261D02*
X153160714Y-97569880D01*
X152970238Y-97569880D01*
X152875000Y-97522261D01*
X152827380Y-97474642D01*
X152779761Y-97379404D01*
X152779761Y-97093690D01*
X152827380Y-96998452D01*
X152875000Y-96950833D01*
X152970238Y-96903214D01*
X153160714Y-96903214D01*
X153255952Y-96950833D01*
X153875000Y-97569880D02*
X153779761Y-97522261D01*
X153732142Y-97427023D01*
X153732142Y-96569880D01*
X154636904Y-97522261D02*
X154541666Y-97569880D01*
X154351190Y-97569880D01*
X154255952Y-97522261D01*
X154208333Y-97427023D01*
X154208333Y-97046071D01*
X154255952Y-96950833D01*
X154351190Y-96903214D01*
X154541666Y-96903214D01*
X154636904Y-96950833D01*
X154684523Y-97046071D01*
X154684523Y-97141309D01*
X154208333Y-97236547D01*
X155875000Y-97569880D02*
X155875000Y-96569880D01*
X156255952Y-96569880D01*
X156351190Y-96617500D01*
X156398809Y-96665119D01*
X156446428Y-96760357D01*
X156446428Y-96903214D01*
X156398809Y-96998452D01*
X156351190Y-97046071D01*
X156255952Y-97093690D01*
X155875000Y-97093690D01*
X157446428Y-97474642D02*
X157398809Y-97522261D01*
X157255952Y-97569880D01*
X157160714Y-97569880D01*
X157017857Y-97522261D01*
X156922619Y-97427023D01*
X156875000Y-97331785D01*
X156827380Y-97141309D01*
X156827380Y-96998452D01*
X156875000Y-96807976D01*
X156922619Y-96712738D01*
X157017857Y-96617500D01*
X157160714Y-96569880D01*
X157255952Y-96569880D01*
X157398809Y-96617500D01*
X157446428Y-96665119D01*
X158208333Y-97046071D02*
X158351190Y-97093690D01*
X158398809Y-97141309D01*
X158446428Y-97236547D01*
X158446428Y-97379404D01*
X158398809Y-97474642D01*
X158351190Y-97522261D01*
X158255952Y-97569880D01*
X157875000Y-97569880D01*
X157875000Y-96569880D01*
X158208333Y-96569880D01*
X158303571Y-96617500D01*
X158351190Y-96665119D01*
X158398809Y-96760357D01*
X158398809Y-96855595D01*
X158351190Y-96950833D01*
X158303571Y-96998452D01*
X158208333Y-97046071D01*
X157875000Y-97046071D01*
X158922619Y-97522261D02*
X158922619Y-97569880D01*
X158875000Y-97665119D01*
X158827380Y-97712738D01*
X159970238Y-96903214D02*
X160351190Y-96903214D01*
X160113095Y-96569880D02*
X160113095Y-97427023D01*
X160160714Y-97522261D01*
X160255952Y-97569880D01*
X160351190Y-97569880D01*
X160684523Y-97569880D02*
X160684523Y-96569880D01*
X161113095Y-97569880D02*
X161113095Y-97046071D01*
X161065476Y-96950833D01*
X160970238Y-96903214D01*
X160827380Y-96903214D01*
X160732142Y-96950833D01*
X160684523Y-96998452D01*
X161589285Y-97569880D02*
X161589285Y-96903214D01*
X161589285Y-96569880D02*
X161541666Y-96617500D01*
X161589285Y-96665119D01*
X161636904Y-96617500D01*
X161589285Y-96569880D01*
X161589285Y-96665119D01*
X162017857Y-97522261D02*
X162113095Y-97569880D01*
X162303571Y-97569880D01*
X162398809Y-97522261D01*
X162446428Y-97427023D01*
X162446428Y-97379404D01*
X162398809Y-97284166D01*
X162303571Y-97236547D01*
X162160714Y-97236547D01*
X162065476Y-97188928D01*
X162017857Y-97093690D01*
X162017857Y-97046071D01*
X162065476Y-96950833D01*
X162160714Y-96903214D01*
X162303571Y-96903214D01*
X162398809Y-96950833D01*
X163541666Y-96903214D02*
X163732142Y-97569880D01*
X163922619Y-97093690D01*
X164113095Y-97569880D01*
X164303571Y-96903214D01*
X165113095Y-97569880D02*
X165113095Y-97046071D01*
X165065476Y-96950833D01*
X164970238Y-96903214D01*
X164779761Y-96903214D01*
X164684523Y-96950833D01*
X165113095Y-97522261D02*
X165017857Y-97569880D01*
X164779761Y-97569880D01*
X164684523Y-97522261D01*
X164636904Y-97427023D01*
X164636904Y-97331785D01*
X164684523Y-97236547D01*
X164779761Y-97188928D01*
X165017857Y-97188928D01*
X165113095Y-97141309D01*
X165494047Y-96903214D02*
X165732142Y-97569880D01*
X165970238Y-96903214D02*
X165732142Y-97569880D01*
X165636904Y-97807976D01*
X165589285Y-97855595D01*
X165494047Y-97903214D01*
X167541666Y-96903214D02*
X167541666Y-97569880D01*
X167113095Y-96903214D02*
X167113095Y-97427023D01*
X167160714Y-97522261D01*
X167255952Y-97569880D01*
X167398809Y-97569880D01*
X167494047Y-97522261D01*
X167541666Y-97474642D01*
X168017857Y-96903214D02*
X168017857Y-97903214D01*
X168017857Y-96950833D02*
X168113095Y-96903214D01*
X168303571Y-96903214D01*
X168398809Y-96950833D01*
X168446428Y-96998452D01*
X168494047Y-97093690D01*
X168494047Y-97379404D01*
X168446428Y-97474642D01*
X168398809Y-97522261D01*
X168303571Y-97569880D01*
X168113095Y-97569880D01*
X168017857Y-97522261D01*
X171282190Y-113571880D02*
X171282190Y-112905214D01*
X171282190Y-113095690D02*
X171329809Y-113000452D01*
X171377428Y-112952833D01*
X171472666Y-112905214D01*
X171567904Y-112905214D01*
X172282190Y-113524261D02*
X172186952Y-113571880D01*
X171996476Y-113571880D01*
X171901238Y-113524261D01*
X171853619Y-113429023D01*
X171853619Y-113048071D01*
X171901238Y-112952833D01*
X171996476Y-112905214D01*
X172186952Y-112905214D01*
X172282190Y-112952833D01*
X172329809Y-113048071D01*
X172329809Y-113143309D01*
X171853619Y-113238547D01*
X172663142Y-112905214D02*
X172901238Y-113571880D01*
X173139333Y-112905214D01*
X174806000Y-113571880D02*
X174234571Y-113571880D01*
X174520285Y-113571880D02*
X174520285Y-112571880D01*
X174425047Y-112714738D01*
X174329809Y-112809976D01*
X174234571Y-112857595D01*
X175234571Y-113476642D02*
X175282190Y-113524261D01*
X175234571Y-113571880D01*
X175186952Y-113524261D01*
X175234571Y-113476642D01*
X175234571Y-113571880D01*
X176234571Y-113571880D02*
X175663142Y-113571880D01*
X175948857Y-113571880D02*
X175948857Y-112571880D01*
X175853619Y-112714738D01*
X175758380Y-112809976D01*
X175663142Y-112857595D01*
X179663142Y-112524261D02*
X178806000Y-113809976D01*
X180425047Y-112905214D02*
X180425047Y-113571880D01*
X179996476Y-112905214D02*
X179996476Y-113429023D01*
X180044095Y-113524261D01*
X180139333Y-113571880D01*
X180282190Y-113571880D01*
X180377428Y-113524261D01*
X180425047Y-113476642D01*
X181615523Y-112524261D02*
X180758380Y-113809976D01*
X181948857Y-112905214D02*
X181948857Y-113905214D01*
X181948857Y-112952833D02*
X182044095Y-112905214D01*
X182234571Y-112905214D01*
X182329809Y-112952833D01*
X182377428Y-113000452D01*
X182425047Y-113095690D01*
X182425047Y-113381404D01*
X182377428Y-113476642D01*
X182329809Y-113524261D01*
X182234571Y-113571880D01*
X182044095Y-113571880D01*
X181948857Y-113524261D01*
X183234571Y-113524261D02*
X183139333Y-113571880D01*
X182948857Y-113571880D01*
X182853619Y-113524261D01*
X182806000Y-113429023D01*
X182806000Y-113048071D01*
X182853619Y-112952833D01*
X182948857Y-112905214D01*
X183139333Y-112905214D01*
X183234571Y-112952833D01*
X183282190Y-113048071D01*
X183282190Y-113143309D01*
X182806000Y-113238547D01*
X184091714Y-113524261D02*
X183996476Y-113571880D01*
X183806000Y-113571880D01*
X183710761Y-113524261D01*
X183663142Y-113429023D01*
X183663142Y-113048071D01*
X183710761Y-112952833D01*
X183806000Y-112905214D01*
X183996476Y-112905214D01*
X184091714Y-112952833D01*
X184139333Y-113048071D01*
X184139333Y-113143309D01*
X183663142Y-113238547D01*
X184567904Y-112905214D02*
X184567904Y-113762357D01*
X184520285Y-113857595D01*
X184425047Y-113905214D01*
X184377428Y-113905214D01*
X184567904Y-112571880D02*
X184520285Y-112619500D01*
X184567904Y-112667119D01*
X184615523Y-112619500D01*
X184567904Y-112571880D01*
X184567904Y-112667119D01*
X185425047Y-113524261D02*
X185329809Y-113571880D01*
X185139333Y-113571880D01*
X185044095Y-113524261D01*
X184996476Y-113429023D01*
X184996476Y-113048071D01*
X185044095Y-112952833D01*
X185139333Y-112905214D01*
X185329809Y-112905214D01*
X185425047Y-112952833D01*
X185472666Y-113048071D01*
X185472666Y-113143309D01*
X184996476Y-113238547D01*
X185901238Y-113571880D02*
X185901238Y-112571880D01*
X186329809Y-113571880D02*
X186329809Y-113048071D01*
X186282190Y-112952833D01*
X186186952Y-112905214D01*
X186044095Y-112905214D01*
X185948857Y-112952833D01*
X185901238Y-113000452D01*
D11*
X153446428Y-112619642D02*
X155160714Y-112619642D01*
X154303571Y-115619642D02*
X154303571Y-112619642D01*
X156160714Y-115619642D02*
X156160714Y-113619642D01*
X156160714Y-114191071D02*
X156303571Y-113905357D01*
X156446428Y-113762500D01*
X156732142Y-113619642D01*
X157017857Y-113619642D01*
X158017857Y-115619642D02*
X158017857Y-113619642D01*
X158017857Y-112619642D02*
X157875000Y-112762500D01*
X158017857Y-112905357D01*
X158160714Y-112762500D01*
X158017857Y-112619642D01*
X158017857Y-112905357D01*
X159446428Y-113619642D02*
X159446428Y-116619642D01*
X159446428Y-113762500D02*
X159732142Y-113619642D01*
X160303571Y-113619642D01*
X160589285Y-113762500D01*
X160732142Y-113905357D01*
X160875000Y-114191071D01*
X160875000Y-115048214D01*
X160732142Y-115333928D01*
X160589285Y-115476785D01*
X160303571Y-115619642D01*
X159732142Y-115619642D01*
X159446428Y-115476785D01*
X163303571Y-115476785D02*
X163017857Y-115619642D01*
X162446428Y-115619642D01*
X162160714Y-115476785D01*
X162017857Y-115191071D01*
X162017857Y-114048214D01*
X162160714Y-113762500D01*
X162446428Y-113619642D01*
X163017857Y-113619642D01*
X163303571Y-113762500D01*
X163446428Y-114048214D01*
X163446428Y-114333928D01*
X162017857Y-114619642D01*
X165160714Y-115619642D02*
X164875000Y-115476785D01*
X164732142Y-115191071D01*
X164732142Y-112619642D01*
D12*
X174485000Y-119185500D02*
X174485000Y-117407500D01*
X174485000Y-130107500D02*
X174485000Y-128329500D01*
X176263000Y-130107500D02*
X174485000Y-130107500D01*
X187185000Y-130107500D02*
X185407000Y-130107500D01*
X187185000Y-128329500D02*
X187185000Y-130107500D01*
X187185000Y-117407500D02*
X187185000Y-119185500D01*
X185407000Y-117407500D02*
X187185000Y-117407500D01*
X174485000Y-117407500D02*
X176263000Y-117407500D01*
X126905000Y-119175500D02*
X126905000Y-117397500D01*
X126905000Y-130097500D02*
X126905000Y-128319500D01*
X128683000Y-130097500D02*
X126905000Y-130097500D01*
X139605000Y-130097500D02*
X137827000Y-130097500D01*
X139605000Y-128319500D02*
X139605000Y-130097500D01*
X139605000Y-117397500D02*
X139605000Y-119175500D01*
X137827000Y-117397500D02*
X139605000Y-117397500D01*
X126905000Y-117397500D02*
X128683000Y-117397500D01*
X133993750Y-81115500D02*
X133993750Y-79337500D01*
X133993750Y-92037500D02*
X133993750Y-90259500D01*
X135771750Y-92037500D02*
X133993750Y-92037500D01*
X146693750Y-92037500D02*
X144915750Y-92037500D01*
X146693750Y-90259500D02*
X146693750Y-92037500D01*
X146693750Y-79337500D02*
X146693750Y-81115500D01*
X144915750Y-79337500D02*
X146693750Y-79337500D01*
X133993750Y-79337500D02*
X135771750Y-79337500D01*
X191087500Y-43053000D02*
X191087500Y-41275000D01*
X191087500Y-53975000D02*
X191087500Y-52197000D01*
X192865500Y-53975000D02*
X191087500Y-53975000D01*
X203787500Y-53975000D02*
X202009500Y-53975000D01*
X203787500Y-52197000D02*
X203787500Y-53975000D01*
X203787500Y-41275000D02*
X203787500Y-43053000D01*
X202009500Y-41275000D02*
X203787500Y-41275000D01*
X191087500Y-41275000D02*
X192865500Y-41275000D01*
X133993750Y-60306250D02*
X135771750Y-60306250D01*
X144915750Y-60306250D02*
X146693750Y-60306250D01*
X146693750Y-60306250D02*
X146693750Y-62084250D01*
X146693750Y-71228250D02*
X146693750Y-73006250D01*
X146693750Y-73006250D02*
X144915750Y-73006250D01*
X135771750Y-73006250D02*
X133993750Y-73006250D01*
X133993750Y-73006250D02*
X133993750Y-71228250D01*
X133993750Y-62084250D02*
X133993750Y-60306250D01*
X114962500Y-79337500D02*
X116740500Y-79337500D01*
X125884500Y-79337500D02*
X127662500Y-79337500D01*
X127662500Y-79337500D02*
X127662500Y-81115500D01*
X127662500Y-90259500D02*
X127662500Y-92037500D01*
X127662500Y-92037500D02*
X125884500Y-92037500D01*
X116740500Y-92037500D02*
X114962500Y-92037500D01*
X114962500Y-92037500D02*
X114962500Y-90259500D01*
X114962500Y-81115500D02*
X114962500Y-79337500D01*
X153025000Y-60306250D02*
X154803000Y-60306250D01*
X163947000Y-60306250D02*
X165725000Y-60306250D01*
X165725000Y-60306250D02*
X165725000Y-62084250D01*
X165725000Y-71228250D02*
X165725000Y-73006250D01*
X165725000Y-73006250D02*
X163947000Y-73006250D01*
X154803000Y-73006250D02*
X153025000Y-73006250D01*
X153025000Y-73006250D02*
X153025000Y-71228250D01*
X153025000Y-62084250D02*
X153025000Y-60306250D01*
X172056250Y-60306250D02*
X173834250Y-60306250D01*
X182978250Y-60306250D02*
X184756250Y-60306250D01*
X184756250Y-60306250D02*
X184756250Y-62084250D01*
X184756250Y-71228250D02*
X184756250Y-73006250D01*
X184756250Y-73006250D02*
X182978250Y-73006250D01*
X173834250Y-73006250D02*
X172056250Y-73006250D01*
X172056250Y-73006250D02*
X172056250Y-71228250D01*
X172056250Y-62084250D02*
X172056250Y-60306250D01*
X191087500Y-60306250D02*
X192865500Y-60306250D01*
X202009500Y-60306250D02*
X203787500Y-60306250D01*
X203787500Y-60306250D02*
X203787500Y-62084250D01*
X203787500Y-71228250D02*
X203787500Y-73006250D01*
X203787500Y-73006250D02*
X202009500Y-73006250D01*
X192865500Y-73006250D02*
X191087500Y-73006250D01*
X191087500Y-73006250D02*
X191087500Y-71228250D01*
X191087500Y-62084250D02*
X191087500Y-60306250D01*
X119743750Y-119178000D02*
X119743750Y-117400000D01*
X119743750Y-130100000D02*
X119743750Y-128322000D01*
X121521750Y-130100000D02*
X119743750Y-130100000D01*
X132443750Y-130100000D02*
X130665750Y-130100000D01*
X132443750Y-128322000D02*
X132443750Y-130100000D01*
X132443750Y-117400000D02*
X132443750Y-119178000D01*
X130665750Y-117400000D02*
X132443750Y-117400000D01*
X119743750Y-117400000D02*
X121521750Y-117400000D01*
X167275000Y-119178000D02*
X167275000Y-117400000D01*
X167275000Y-130100000D02*
X167275000Y-128322000D01*
X169053000Y-130100000D02*
X167275000Y-130100000D01*
X179975000Y-130100000D02*
X178197000Y-130100000D01*
X179975000Y-128322000D02*
X179975000Y-130100000D01*
X179975000Y-117400000D02*
X179975000Y-119178000D01*
X178197000Y-117400000D02*
X179975000Y-117400000D01*
X167275000Y-117400000D02*
X169053000Y-117400000D01*
X133993750Y-100146750D02*
X133993750Y-98368750D01*
X133993750Y-111068750D02*
X133993750Y-109290750D01*
X135771750Y-111068750D02*
X133993750Y-111068750D01*
X146693750Y-111068750D02*
X144915750Y-111068750D01*
X146693750Y-109290750D02*
X146693750Y-111068750D01*
X146693750Y-98368750D02*
X146693750Y-100146750D01*
X144915750Y-98368750D02*
X146693750Y-98368750D01*
X133993750Y-98368750D02*
X135771750Y-98368750D01*
D13*
X207290000Y-53041000D02*
G75*
G03X207040000Y-52791000I-250000J0D01*
G01*
X204440000Y-52791000D02*
G75*
G03X204190000Y-53041000I0J-250000D01*
G01*
X204190000Y-53050000D02*
X204190000Y-61250000D01*
X207040000Y-52791000D02*
X204440000Y-52791000D01*
X207290000Y-53050000D02*
X207290000Y-61250000D01*
X207040000Y-61509000D02*
X204440000Y-61509000D01*
X207040000Y-61509000D02*
G75*
G03X207290000Y-61259000I0J250000D01*
G01*
X204190000Y-61259000D02*
G75*
G03X204440000Y-61509000I250000J0D01*
G01*
X150057000Y-49900000D02*
X152457000Y-49900000D01*
X150057000Y-50075000D02*
X152457000Y-50075000D01*
X150057000Y-50250000D02*
X152457000Y-50250000D01*
X152457000Y-50650000D02*
X150057000Y-50650000D01*
X150057000Y-50425000D02*
X152457000Y-50425000D01*
X150057000Y-50550000D02*
X152457000Y-50550000D01*
X150057000Y-50625000D02*
X150057000Y-44825000D01*
X150057000Y-44825000D02*
X152457000Y-44825000D01*
X152457000Y-44825000D02*
X152457000Y-50625000D01*
X128081250Y-68931250D02*
X130481250Y-68931250D01*
X128081250Y-69106250D02*
X130481250Y-69106250D01*
X128081250Y-69281250D02*
X130481250Y-69281250D01*
X130481250Y-69681250D02*
X128081250Y-69681250D01*
X128081250Y-69456250D02*
X130481250Y-69456250D01*
X128081250Y-69581250D02*
X130481250Y-69581250D01*
X128081250Y-69656250D02*
X128081250Y-63856250D01*
X128081250Y-63856250D02*
X130481250Y-63856250D01*
X130481250Y-63856250D02*
X130481250Y-69656250D01*
X188175000Y-49900000D02*
X190575000Y-49900000D01*
X188175000Y-50075000D02*
X190575000Y-50075000D01*
X188175000Y-50250000D02*
X190575000Y-50250000D01*
X190575000Y-50650000D02*
X188175000Y-50650000D01*
X188175000Y-50425000D02*
X190575000Y-50425000D01*
X188175000Y-50550000D02*
X190575000Y-50550000D01*
X188175000Y-50625000D02*
X188175000Y-44825000D01*
X188175000Y-44825000D02*
X190575000Y-44825000D01*
X190575000Y-44825000D02*
X190575000Y-50625000D01*
X187575000Y-82887500D02*
X187575000Y-88687500D01*
X185175000Y-82887500D02*
X187575000Y-82887500D01*
X185175000Y-88687500D02*
X185175000Y-82887500D01*
X185175000Y-88612500D02*
X187575000Y-88612500D01*
X185175000Y-88487500D02*
X187575000Y-88487500D01*
X187575000Y-88712500D02*
X185175000Y-88712500D01*
X185175000Y-88312500D02*
X187575000Y-88312500D01*
X185175000Y-88137500D02*
X187575000Y-88137500D01*
X185175000Y-87962500D02*
X187575000Y-87962500D01*
X131175000Y-106993750D02*
X133575000Y-106993750D01*
X131175000Y-107168750D02*
X133575000Y-107168750D01*
X131175000Y-107343750D02*
X133575000Y-107343750D01*
X133575000Y-107743750D02*
X131175000Y-107743750D01*
X131175000Y-107518750D02*
X133575000Y-107518750D01*
X131175000Y-107643750D02*
X133575000Y-107643750D01*
X131175000Y-107718750D02*
X131175000Y-101918750D01*
X131175000Y-101918750D02*
X133575000Y-101918750D01*
X133575000Y-101918750D02*
X133575000Y-107718750D01*
X130481250Y-82887500D02*
X130481250Y-88687500D01*
X128081250Y-82887500D02*
X130481250Y-82887500D01*
X128081250Y-88687500D02*
X128081250Y-82887500D01*
X128081250Y-88612500D02*
X130481250Y-88612500D01*
X128081250Y-88487500D02*
X130481250Y-88487500D01*
X130481250Y-88712500D02*
X128081250Y-88712500D01*
X128081250Y-88312500D02*
X130481250Y-88312500D01*
X128081250Y-88137500D02*
X130481250Y-88137500D01*
X128081250Y-87962500D02*
X130481250Y-87962500D01*
X149790000Y-44825000D02*
X149790000Y-50625000D01*
X147390000Y-44825000D02*
X149790000Y-44825000D01*
X147390000Y-50625000D02*
X147390000Y-44825000D01*
X147390000Y-50550000D02*
X149790000Y-50550000D01*
X147390000Y-50425000D02*
X149790000Y-50425000D01*
X149790000Y-50650000D02*
X147390000Y-50650000D01*
X147390000Y-50250000D02*
X149790000Y-50250000D01*
X147390000Y-50075000D02*
X149790000Y-50075000D01*
X147390000Y-49900000D02*
X149790000Y-49900000D01*
X190575000Y-63856250D02*
X190575000Y-69656250D01*
X188175000Y-63856250D02*
X190575000Y-63856250D01*
X188175000Y-69656250D02*
X188175000Y-63856250D01*
X188175000Y-69581250D02*
X190575000Y-69581250D01*
X188175000Y-69456250D02*
X190575000Y-69456250D01*
X190575000Y-69681250D02*
X188175000Y-69681250D01*
X188175000Y-69281250D02*
X190575000Y-69281250D01*
X188175000Y-69106250D02*
X190575000Y-69106250D01*
X188175000Y-68931250D02*
X190575000Y-68931250D01*
X171637500Y-101918750D02*
X171637500Y-107718750D01*
X169237500Y-101918750D02*
X171637500Y-101918750D01*
X169237500Y-107718750D02*
X169237500Y-101918750D01*
X169237500Y-107643750D02*
X171637500Y-107643750D01*
X169237500Y-107518750D02*
X171637500Y-107518750D01*
X171637500Y-107743750D02*
X169237500Y-107743750D01*
X169237500Y-107343750D02*
X171637500Y-107343750D01*
X169237500Y-107168750D02*
X171637500Y-107168750D01*
X169237500Y-106993750D02*
X171637500Y-106993750D01*
X128081250Y-106993750D02*
X130481250Y-106993750D01*
X128081250Y-107168750D02*
X130481250Y-107168750D01*
X128081250Y-107343750D02*
X130481250Y-107343750D01*
X130481250Y-107743750D02*
X128081250Y-107743750D01*
X128081250Y-107518750D02*
X130481250Y-107518750D01*
X128081250Y-107643750D02*
X130481250Y-107643750D01*
X128081250Y-107718750D02*
X128081250Y-101918750D01*
X128081250Y-101918750D02*
X130481250Y-101918750D01*
X130481250Y-101918750D02*
X130481250Y-107718750D01*
X133481250Y-63856250D02*
X133481250Y-69656250D01*
X131081250Y-63856250D02*
X133481250Y-63856250D01*
X131081250Y-69656250D02*
X131081250Y-63856250D01*
X131081250Y-69581250D02*
X133481250Y-69581250D01*
X131081250Y-69456250D02*
X133481250Y-69456250D01*
X133481250Y-69681250D02*
X131081250Y-69681250D01*
X131081250Y-69281250D02*
X133481250Y-69281250D01*
X131081250Y-69106250D02*
X133481250Y-69106250D01*
X131081250Y-68931250D02*
X133481250Y-68931250D01*
X133575000Y-82887500D02*
X133575000Y-88687500D01*
X131175000Y-82887500D02*
X133575000Y-82887500D01*
X131175000Y-88687500D02*
X131175000Y-82887500D01*
X131175000Y-88612500D02*
X133575000Y-88612500D01*
X131175000Y-88487500D02*
X133575000Y-88487500D01*
X133575000Y-88712500D02*
X131175000Y-88712500D01*
X131175000Y-88312500D02*
X133575000Y-88312500D01*
X131175000Y-88137500D02*
X133575000Y-88137500D01*
X131175000Y-87962500D02*
X133575000Y-87962500D01*
X190668750Y-82887500D02*
X190668750Y-88687500D01*
X188268750Y-82887500D02*
X190668750Y-82887500D01*
X188268750Y-88687500D02*
X188268750Y-82887500D01*
X188268750Y-88612500D02*
X190668750Y-88612500D01*
X188268750Y-88487500D02*
X190668750Y-88487500D01*
X190668750Y-88712500D02*
X188268750Y-88712500D01*
X188268750Y-88312500D02*
X190668750Y-88312500D01*
X188268750Y-88137500D02*
X190668750Y-88137500D01*
X188268750Y-87962500D02*
X190668750Y-87962500D01*
X190674000Y-120950000D02*
X190674000Y-126750000D01*
X188274000Y-120950000D02*
X190674000Y-120950000D01*
X188274000Y-126750000D02*
X188274000Y-120950000D01*
X188274000Y-126675000D02*
X190674000Y-126675000D01*
X188274000Y-126550000D02*
X190674000Y-126550000D01*
X190674000Y-126775000D02*
X188274000Y-126775000D01*
X188274000Y-126375000D02*
X190674000Y-126375000D01*
X188274000Y-126200000D02*
X190674000Y-126200000D01*
X188274000Y-126025000D02*
X190674000Y-126025000D01*
X119379375Y-120987500D02*
X119379375Y-126787500D01*
X116979375Y-120987500D02*
X119379375Y-120987500D01*
X116979375Y-126787500D02*
X116979375Y-120987500D01*
X116979375Y-126712500D02*
X119379375Y-126712500D01*
X116979375Y-126587500D02*
X119379375Y-126587500D01*
X119379375Y-126812500D02*
X116979375Y-126812500D01*
X116979375Y-126412500D02*
X119379375Y-126412500D01*
X116979375Y-126237500D02*
X119379375Y-126237500D01*
X116979375Y-126062500D02*
X119379375Y-126062500D01*
X168840000Y-44825000D02*
X168840000Y-50625000D01*
X166440000Y-44825000D02*
X168840000Y-44825000D01*
X166440000Y-50625000D02*
X166440000Y-44825000D01*
X166440000Y-50550000D02*
X168840000Y-50550000D01*
X166440000Y-50425000D02*
X168840000Y-50425000D01*
X168840000Y-50650000D02*
X166440000Y-50650000D01*
X166440000Y-50250000D02*
X168840000Y-50250000D01*
X166440000Y-50075000D02*
X168840000Y-50075000D01*
X166440000Y-49900000D02*
X168840000Y-49900000D01*
X150112500Y-68931250D02*
X152512500Y-68931250D01*
X150112500Y-69106250D02*
X152512500Y-69106250D01*
X150112500Y-69281250D02*
X152512500Y-69281250D01*
X152512500Y-69681250D02*
X150112500Y-69681250D01*
X150112500Y-69456250D02*
X152512500Y-69456250D01*
X150112500Y-69581250D02*
X152512500Y-69581250D01*
X150112500Y-69656250D02*
X150112500Y-63856250D01*
X150112500Y-63856250D02*
X152512500Y-63856250D01*
X152512500Y-63856250D02*
X152512500Y-69656250D01*
X190575000Y-101918750D02*
X190575000Y-107718750D01*
X188175000Y-101918750D02*
X190575000Y-101918750D01*
X188175000Y-107718750D02*
X188175000Y-101918750D01*
X188175000Y-107643750D02*
X190575000Y-107643750D01*
X188175000Y-107518750D02*
X190575000Y-107518750D01*
X190575000Y-107743750D02*
X188175000Y-107743750D01*
X188175000Y-107343750D02*
X190575000Y-107343750D01*
X188175000Y-107168750D02*
X190575000Y-107168750D01*
X188175000Y-106993750D02*
X190575000Y-106993750D01*
X143043750Y-120950000D02*
X143043750Y-126750000D01*
X140643750Y-120950000D02*
X143043750Y-120950000D01*
X140643750Y-126750000D02*
X140643750Y-120950000D01*
X140643750Y-126675000D02*
X143043750Y-126675000D01*
X140643750Y-126550000D02*
X143043750Y-126550000D01*
X143043750Y-126775000D02*
X140643750Y-126775000D01*
X140643750Y-126375000D02*
X143043750Y-126375000D01*
X140643750Y-126200000D02*
X143043750Y-126200000D01*
X140643750Y-126025000D02*
X143043750Y-126025000D01*
X150206250Y-87962500D02*
X152606250Y-87962500D01*
X150206250Y-88137500D02*
X152606250Y-88137500D01*
X150206250Y-88312500D02*
X152606250Y-88312500D01*
X152606250Y-88712500D02*
X150206250Y-88712500D01*
X150206250Y-88487500D02*
X152606250Y-88487500D01*
X150206250Y-88612500D02*
X152606250Y-88612500D01*
X150206250Y-88687500D02*
X150206250Y-82887500D01*
X150206250Y-82887500D02*
X152606250Y-82887500D01*
X152606250Y-82887500D02*
X152606250Y-88687500D01*
X169143750Y-49900000D02*
X171543750Y-49900000D01*
X169143750Y-50075000D02*
X171543750Y-50075000D01*
X169143750Y-50250000D02*
X171543750Y-50250000D01*
X171543750Y-50650000D02*
X169143750Y-50650000D01*
X169143750Y-50425000D02*
X171543750Y-50425000D01*
X169143750Y-50550000D02*
X171543750Y-50550000D01*
X169143750Y-50625000D02*
X169143750Y-44825000D01*
X169143750Y-44825000D02*
X171543750Y-44825000D01*
X171543750Y-44825000D02*
X171543750Y-50625000D01*
X171543750Y-63856250D02*
X171543750Y-69656250D01*
X169143750Y-63856250D02*
X171543750Y-63856250D01*
X169143750Y-69656250D02*
X169143750Y-63856250D01*
X169143750Y-69581250D02*
X171543750Y-69581250D01*
X169143750Y-69456250D02*
X171543750Y-69456250D01*
X171543750Y-69681250D02*
X169143750Y-69681250D01*
X169143750Y-69281250D02*
X171543750Y-69281250D01*
X169143750Y-69106250D02*
X171543750Y-69106250D01*
X169143750Y-68931250D02*
X171543750Y-68931250D01*
X150112500Y-106993750D02*
X152512500Y-106993750D01*
X150112500Y-107168750D02*
X152512500Y-107168750D01*
X150112500Y-107343750D02*
X152512500Y-107343750D01*
X152512500Y-107743750D02*
X150112500Y-107743750D01*
X150112500Y-107518750D02*
X152512500Y-107518750D01*
X150112500Y-107643750D02*
X152512500Y-107643750D01*
X150112500Y-107718750D02*
X150112500Y-101918750D01*
X150112500Y-101918750D02*
X152512500Y-101918750D01*
X152512500Y-101918750D02*
X152512500Y-107718750D01*
D12*
X133993750Y-43053000D02*
X133993750Y-41275000D01*
X133993750Y-53975000D02*
X133993750Y-52197000D01*
X135771750Y-53975000D02*
X133993750Y-53975000D01*
X146693750Y-53975000D02*
X144915750Y-53975000D01*
X146693750Y-52197000D02*
X146693750Y-53975000D01*
X146693750Y-41275000D02*
X146693750Y-43053000D01*
X144915750Y-41275000D02*
X146693750Y-41275000D01*
X133993750Y-41275000D02*
X135771750Y-41275000D01*
X153025000Y-43053000D02*
X153025000Y-41275000D01*
X153025000Y-53975000D02*
X153025000Y-52197000D01*
X154803000Y-53975000D02*
X153025000Y-53975000D01*
X165725000Y-53975000D02*
X163947000Y-53975000D01*
X165725000Y-52197000D02*
X165725000Y-53975000D01*
X165725000Y-41275000D02*
X165725000Y-43053000D01*
X163947000Y-41275000D02*
X165725000Y-41275000D01*
X153025000Y-41275000D02*
X154803000Y-41275000D01*
X172056250Y-41275000D02*
X173834250Y-41275000D01*
X182978250Y-41275000D02*
X184756250Y-41275000D01*
X184756250Y-41275000D02*
X184756250Y-43053000D01*
X184756250Y-52197000D02*
X184756250Y-53975000D01*
X184756250Y-53975000D02*
X182978250Y-53975000D01*
X173834250Y-53975000D02*
X172056250Y-53975000D01*
X172056250Y-53975000D02*
X172056250Y-52197000D01*
X172056250Y-43053000D02*
X172056250Y-41275000D01*
X114962500Y-43053000D02*
X114962500Y-41275000D01*
X114962500Y-53975000D02*
X114962500Y-52197000D01*
X116740500Y-53975000D02*
X114962500Y-53975000D01*
X127662500Y-53975000D02*
X125884500Y-53975000D01*
X127662500Y-52197000D02*
X127662500Y-53975000D01*
X127662500Y-41275000D02*
X127662500Y-43053000D01*
X125884500Y-41275000D02*
X127662500Y-41275000D01*
X114962500Y-41275000D02*
X116740500Y-41275000D01*
X114962500Y-62084250D02*
X114962500Y-60306250D01*
X114962500Y-73006250D02*
X114962500Y-71228250D01*
X116740500Y-73006250D02*
X114962500Y-73006250D01*
X127662500Y-73006250D02*
X125884500Y-73006250D01*
X127662500Y-71228250D02*
X127662500Y-73006250D01*
X127662500Y-60306250D02*
X127662500Y-62084250D01*
X125884500Y-60306250D02*
X127662500Y-60306250D01*
X114962500Y-60306250D02*
X116740500Y-60306250D01*
X191087500Y-81115500D02*
X191087500Y-79337500D01*
X191087500Y-92037500D02*
X191087500Y-90259500D01*
X192865500Y-92037500D02*
X191087500Y-92037500D01*
X203787500Y-92037500D02*
X202009500Y-92037500D01*
X203787500Y-90259500D02*
X203787500Y-92037500D01*
X203787500Y-79337500D02*
X203787500Y-81115500D01*
X202009500Y-79337500D02*
X203787500Y-79337500D01*
X191087500Y-79337500D02*
X192865500Y-79337500D01*
X191087500Y-98368750D02*
X192865500Y-98368750D01*
X202009500Y-98368750D02*
X203787500Y-98368750D01*
X203787500Y-98368750D02*
X203787500Y-100146750D01*
X203787500Y-109290750D02*
X203787500Y-111068750D01*
X203787500Y-111068750D02*
X202009500Y-111068750D01*
X192865500Y-111068750D02*
X191087500Y-111068750D01*
X191087500Y-111068750D02*
X191087500Y-109290750D01*
X191087500Y-100146750D02*
X191087500Y-98368750D01*
X172056250Y-81115500D02*
X172056250Y-79337500D01*
X172056250Y-92037500D02*
X172056250Y-90259500D01*
X173834250Y-92037500D02*
X172056250Y-92037500D01*
X184756250Y-92037500D02*
X182978250Y-92037500D01*
X184756250Y-90259500D02*
X184756250Y-92037500D01*
X184756250Y-79337500D02*
X184756250Y-81115500D01*
X182978250Y-79337500D02*
X184756250Y-79337500D01*
X172056250Y-79337500D02*
X173834250Y-79337500D01*
X172056250Y-98368750D02*
X173834250Y-98368750D01*
X182978250Y-98368750D02*
X184756250Y-98368750D01*
X184756250Y-98368750D02*
X184756250Y-100146750D01*
X184756250Y-109290750D02*
X184756250Y-111068750D01*
X184756250Y-111068750D02*
X182978250Y-111068750D01*
X173834250Y-111068750D02*
X172056250Y-111068750D01*
X172056250Y-111068750D02*
X172056250Y-109290750D01*
X172056250Y-100146750D02*
X172056250Y-98368750D01*
X153025000Y-79337500D02*
X154803000Y-79337500D01*
X163947000Y-79337500D02*
X165725000Y-79337500D01*
X165725000Y-79337500D02*
X165725000Y-81115500D01*
X165725000Y-90259500D02*
X165725000Y-92037500D01*
X165725000Y-92037500D02*
X163947000Y-92037500D01*
X154803000Y-92037500D02*
X153025000Y-92037500D01*
X153025000Y-92037500D02*
X153025000Y-90259500D01*
X153025000Y-81115500D02*
X153025000Y-79337500D01*
X153025000Y-98368750D02*
X154803000Y-98368750D01*
X163947000Y-98368750D02*
X165725000Y-98368750D01*
X165725000Y-98368750D02*
X165725000Y-100146750D01*
X165725000Y-109290750D02*
X165725000Y-111068750D01*
X165725000Y-111068750D02*
X163947000Y-111068750D01*
X154803000Y-111068750D02*
X153025000Y-111068750D01*
X153025000Y-111068750D02*
X153025000Y-109290750D01*
X153025000Y-100146750D02*
X153025000Y-98368750D01*
X143462500Y-119178000D02*
X143462500Y-117400000D01*
X143462500Y-130100000D02*
X143462500Y-128322000D01*
X145240500Y-130100000D02*
X143462500Y-130100000D01*
X156162500Y-130100000D02*
X154384500Y-130100000D01*
X156162500Y-128322000D02*
X156162500Y-130100000D01*
X156162500Y-117400000D02*
X156162500Y-119178000D01*
X154384500Y-117400000D02*
X156162500Y-117400000D01*
X143462500Y-117400000D02*
X145240500Y-117400000D01*
X114925000Y-100165500D02*
X114925000Y-98387500D01*
X114925000Y-111087500D02*
X114925000Y-109309500D01*
X116703000Y-111087500D02*
X114925000Y-111087500D01*
X127625000Y-111087500D02*
X125847000Y-111087500D01*
X127625000Y-109309500D02*
X127625000Y-111087500D01*
X127625000Y-98387500D02*
X127625000Y-100165500D01*
X125847000Y-98387500D02*
X127625000Y-98387500D01*
X114925000Y-98387500D02*
X116703000Y-98387500D01*
D13*
X114893750Y-103206000D02*
G75*
G03X114643750Y-102956000I-250000J0D01*
G01*
X112043750Y-102956000D02*
G75*
G03X111793750Y-103206000I0J-250000D01*
G01*
X112043750Y-102956000D02*
X114643750Y-102956000D01*
X111793750Y-125394000D02*
X111793750Y-103206000D01*
X112043750Y-125644000D02*
X114643750Y-125644000D01*
X114893750Y-125394000D02*
X114893750Y-103206000D01*
X114643750Y-125644000D02*
G75*
G03X114893750Y-125394000I0J250000D01*
G01*
X111793750Y-125394000D02*
G75*
G03X112043750Y-125644000I250000J0D01*
G01*
X203950000Y-125394000D02*
G75*
G03X204200000Y-125644000I250000J0D01*
G01*
X206800000Y-125644000D02*
G75*
G03X207050000Y-125394000I0J250000D01*
G01*
X207050000Y-125394000D02*
X207050000Y-103206000D01*
X204200000Y-125644000D02*
X206800000Y-125644000D01*
X203950000Y-125394000D02*
X203950000Y-103206000D01*
X204200000Y-102956000D02*
X206800000Y-102956000D01*
X204200000Y-102956000D02*
G75*
G03X203950000Y-103206000I0J-250000D01*
G01*
X207050000Y-103206000D02*
G75*
G03X206800000Y-102956000I-250000J0D01*
G01*
D12*
X153025000Y-117400000D02*
X154803000Y-117400000D01*
X163947000Y-117400000D02*
X165725000Y-117400000D01*
X165725000Y-117400000D02*
X165725000Y-119178000D01*
X165725000Y-128322000D02*
X165725000Y-130100000D01*
X165725000Y-130100000D02*
X163947000Y-130100000D01*
X154803000Y-130100000D02*
X153025000Y-130100000D01*
X153025000Y-130100000D02*
X153025000Y-128322000D01*
X153025000Y-119178000D02*
X153025000Y-117400000D01*
D13*
X185321250Y-107012500D02*
X187721250Y-107012500D01*
X185321250Y-107187500D02*
X187721250Y-107187500D01*
X185321250Y-107362500D02*
X187721250Y-107362500D01*
X187721250Y-107762500D02*
X185321250Y-107762500D01*
X185321250Y-107537500D02*
X187721250Y-107537500D01*
X185321250Y-107662500D02*
X187721250Y-107662500D01*
X185321250Y-107737500D02*
X185321250Y-101937500D01*
X185321250Y-101937500D02*
X187721250Y-101937500D01*
X187721250Y-101937500D02*
X187721250Y-107737500D01*
D12*
X191087500Y-119185500D02*
X191087500Y-117407500D01*
X191087500Y-130107500D02*
X191087500Y-128329500D01*
X192865500Y-130107500D02*
X191087500Y-130107500D01*
X203787500Y-130107500D02*
X202009500Y-130107500D01*
X203787500Y-128329500D02*
X203787500Y-130107500D01*
X203787500Y-117407500D02*
X203787500Y-119185500D01*
X202009500Y-117407500D02*
X203787500Y-117407500D01*
X191087500Y-117407500D02*
X192865500Y-117407500D01*
D14*
X181545571Y-129315023D02*
X181545571Y-128045023D01*
X182416428Y-129315023D02*
X181763285Y-128589309D01*
X182416428Y-128045023D02*
X181545571Y-128770738D01*
X183795285Y-128045023D02*
X183069571Y-128045023D01*
X182997000Y-128649785D01*
X183069571Y-128589309D01*
X183214714Y-128528833D01*
X183577571Y-128528833D01*
X183722714Y-128589309D01*
X183795285Y-128649785D01*
X183867857Y-128770738D01*
X183867857Y-129073119D01*
X183795285Y-129194071D01*
X183722714Y-129254547D01*
X183577571Y-129315023D01*
X183214714Y-129315023D01*
X183069571Y-129254547D01*
X182997000Y-129194071D01*
X184521000Y-129194071D02*
X184593571Y-129254547D01*
X184521000Y-129315023D01*
X184448428Y-129254547D01*
X184521000Y-129194071D01*
X184521000Y-129315023D01*
X185972428Y-128045023D02*
X185246714Y-128045023D01*
X185174142Y-128649785D01*
X185246714Y-128589309D01*
X185391857Y-128528833D01*
X185754714Y-128528833D01*
X185899857Y-128589309D01*
X185972428Y-128649785D01*
X186045000Y-128770738D01*
X186045000Y-129073119D01*
X185972428Y-129194071D01*
X185899857Y-129254547D01*
X185754714Y-129315023D01*
X185391857Y-129315023D01*
X185246714Y-129254547D01*
X185174142Y-129194071D01*
X133920571Y-129315023D02*
X133920571Y-128045023D01*
X134791428Y-129315023D02*
X134138285Y-128589309D01*
X134791428Y-128045023D02*
X133920571Y-128770738D01*
X136170285Y-128045023D02*
X135444571Y-128045023D01*
X135372000Y-128649785D01*
X135444571Y-128589309D01*
X135589714Y-128528833D01*
X135952571Y-128528833D01*
X136097714Y-128589309D01*
X136170285Y-128649785D01*
X136242857Y-128770738D01*
X136242857Y-129073119D01*
X136170285Y-129194071D01*
X136097714Y-129254547D01*
X135952571Y-129315023D01*
X135589714Y-129315023D01*
X135444571Y-129254547D01*
X135372000Y-129194071D01*
X136896000Y-129194071D02*
X136968571Y-129254547D01*
X136896000Y-129315023D01*
X136823428Y-129254547D01*
X136896000Y-129194071D01*
X136896000Y-129315023D01*
X138274857Y-128045023D02*
X137984571Y-128045023D01*
X137839428Y-128105500D01*
X137766857Y-128165976D01*
X137621714Y-128347404D01*
X137549142Y-128589309D01*
X137549142Y-129073119D01*
X137621714Y-129194071D01*
X137694285Y-129254547D01*
X137839428Y-129315023D01*
X138129714Y-129315023D01*
X138274857Y-129254547D01*
X138347428Y-129194071D01*
X138420000Y-129073119D01*
X138420000Y-128770738D01*
X138347428Y-128649785D01*
X138274857Y-128589309D01*
X138129714Y-128528833D01*
X137839428Y-128528833D01*
X137694285Y-128589309D01*
X137621714Y-128649785D01*
X137549142Y-128770738D01*
X138130321Y-90262023D02*
X138130321Y-88992023D01*
X139001178Y-90262023D02*
X138348035Y-89536309D01*
X139001178Y-88992023D02*
X138130321Y-89717738D01*
X139509178Y-88992023D02*
X140452607Y-88992023D01*
X139944607Y-89475833D01*
X140162321Y-89475833D01*
X140307464Y-89536309D01*
X140380035Y-89596785D01*
X140452607Y-89717738D01*
X140452607Y-90020119D01*
X140380035Y-90141071D01*
X140307464Y-90201547D01*
X140162321Y-90262023D01*
X139726892Y-90262023D01*
X139581750Y-90201547D01*
X139509178Y-90141071D01*
X141105750Y-90141071D02*
X141178321Y-90201547D01*
X141105750Y-90262023D01*
X141033178Y-90201547D01*
X141105750Y-90141071D01*
X141105750Y-90262023D01*
X141758892Y-89112976D02*
X141831464Y-89052500D01*
X141976607Y-88992023D01*
X142339464Y-88992023D01*
X142484607Y-89052500D01*
X142557178Y-89112976D01*
X142629750Y-89233928D01*
X142629750Y-89354880D01*
X142557178Y-89536309D01*
X141686321Y-90262023D01*
X142629750Y-90262023D01*
X195224071Y-52199523D02*
X195224071Y-50929523D01*
X196094928Y-52199523D02*
X195441785Y-51473809D01*
X196094928Y-50929523D02*
X195224071Y-51655238D01*
X197546357Y-52199523D02*
X196675500Y-52199523D01*
X197110928Y-52199523D02*
X197110928Y-50929523D01*
X196965785Y-51110952D01*
X196820642Y-51231904D01*
X196675500Y-51292380D01*
X198199500Y-52078571D02*
X198272071Y-52139047D01*
X198199500Y-52199523D01*
X198126928Y-52139047D01*
X198199500Y-52078571D01*
X198199500Y-52199523D01*
X199650928Y-50929523D02*
X198925214Y-50929523D01*
X198852642Y-51534285D01*
X198925214Y-51473809D01*
X199070357Y-51413333D01*
X199433214Y-51413333D01*
X199578357Y-51473809D01*
X199650928Y-51534285D01*
X199723500Y-51655238D01*
X199723500Y-51957619D01*
X199650928Y-52078571D01*
X199578357Y-52139047D01*
X199433214Y-52199523D01*
X199070357Y-52199523D01*
X198925214Y-52139047D01*
X198852642Y-52078571D01*
X138130321Y-71230773D02*
X138130321Y-69960773D01*
X139001178Y-71230773D02*
X138348035Y-70505059D01*
X139001178Y-69960773D02*
X138130321Y-70686488D01*
X139581750Y-70081726D02*
X139654321Y-70021250D01*
X139799464Y-69960773D01*
X140162321Y-69960773D01*
X140307464Y-70021250D01*
X140380035Y-70081726D01*
X140452607Y-70202678D01*
X140452607Y-70323630D01*
X140380035Y-70505059D01*
X139509178Y-71230773D01*
X140452607Y-71230773D01*
X141105750Y-71109821D02*
X141178321Y-71170297D01*
X141105750Y-71230773D01*
X141033178Y-71170297D01*
X141105750Y-71109821D01*
X141105750Y-71230773D01*
X141758892Y-70081726D02*
X141831464Y-70021250D01*
X141976607Y-69960773D01*
X142339464Y-69960773D01*
X142484607Y-70021250D01*
X142557178Y-70081726D01*
X142629750Y-70202678D01*
X142629750Y-70323630D01*
X142557178Y-70505059D01*
X141686321Y-71230773D01*
X142629750Y-71230773D01*
X119099071Y-90262023D02*
X119099071Y-88992023D01*
X119969928Y-90262023D02*
X119316785Y-89536309D01*
X119969928Y-88992023D02*
X119099071Y-89717738D01*
X120477928Y-88992023D02*
X121421357Y-88992023D01*
X120913357Y-89475833D01*
X121131071Y-89475833D01*
X121276214Y-89536309D01*
X121348785Y-89596785D01*
X121421357Y-89717738D01*
X121421357Y-90020119D01*
X121348785Y-90141071D01*
X121276214Y-90201547D01*
X121131071Y-90262023D01*
X120695642Y-90262023D01*
X120550500Y-90201547D01*
X120477928Y-90141071D01*
X122074500Y-90141071D02*
X122147071Y-90201547D01*
X122074500Y-90262023D01*
X122001928Y-90201547D01*
X122074500Y-90141071D01*
X122074500Y-90262023D01*
X123598500Y-90262023D02*
X122727642Y-90262023D01*
X123163071Y-90262023D02*
X123163071Y-88992023D01*
X123017928Y-89173452D01*
X122872785Y-89294404D01*
X122727642Y-89354880D01*
X157161571Y-71230773D02*
X157161571Y-69960773D01*
X158032428Y-71230773D02*
X157379285Y-70505059D01*
X158032428Y-69960773D02*
X157161571Y-70686488D01*
X158613000Y-70081726D02*
X158685571Y-70021250D01*
X158830714Y-69960773D01*
X159193571Y-69960773D01*
X159338714Y-70021250D01*
X159411285Y-70081726D01*
X159483857Y-70202678D01*
X159483857Y-70323630D01*
X159411285Y-70505059D01*
X158540428Y-71230773D01*
X159483857Y-71230773D01*
X160137000Y-71109821D02*
X160209571Y-71170297D01*
X160137000Y-71230773D01*
X160064428Y-71170297D01*
X160137000Y-71109821D01*
X160137000Y-71230773D01*
X160717571Y-69960773D02*
X161661000Y-69960773D01*
X161153000Y-70444583D01*
X161370714Y-70444583D01*
X161515857Y-70505059D01*
X161588428Y-70565535D01*
X161661000Y-70686488D01*
X161661000Y-70988869D01*
X161588428Y-71109821D01*
X161515857Y-71170297D01*
X161370714Y-71230773D01*
X160935285Y-71230773D01*
X160790142Y-71170297D01*
X160717571Y-71109821D01*
X176192821Y-71230773D02*
X176192821Y-69960773D01*
X177063678Y-71230773D02*
X176410535Y-70505059D01*
X177063678Y-69960773D02*
X176192821Y-70686488D01*
X177644250Y-70081726D02*
X177716821Y-70021250D01*
X177861964Y-69960773D01*
X178224821Y-69960773D01*
X178369964Y-70021250D01*
X178442535Y-70081726D01*
X178515107Y-70202678D01*
X178515107Y-70323630D01*
X178442535Y-70505059D01*
X177571678Y-71230773D01*
X178515107Y-71230773D01*
X179168250Y-71109821D02*
X179240821Y-71170297D01*
X179168250Y-71230773D01*
X179095678Y-71170297D01*
X179168250Y-71109821D01*
X179168250Y-71230773D01*
X180547107Y-70384107D02*
X180547107Y-71230773D01*
X180184250Y-69900297D02*
X179821392Y-70807440D01*
X180764821Y-70807440D01*
X195224071Y-71230773D02*
X195224071Y-69960773D01*
X196094928Y-71230773D02*
X195441785Y-70505059D01*
X196094928Y-69960773D02*
X195224071Y-70686488D01*
X196675500Y-70081726D02*
X196748071Y-70021250D01*
X196893214Y-69960773D01*
X197256071Y-69960773D01*
X197401214Y-70021250D01*
X197473785Y-70081726D01*
X197546357Y-70202678D01*
X197546357Y-70323630D01*
X197473785Y-70505059D01*
X196602928Y-71230773D01*
X197546357Y-71230773D01*
X198199500Y-71109821D02*
X198272071Y-71170297D01*
X198199500Y-71230773D01*
X198126928Y-71170297D01*
X198199500Y-71109821D01*
X198199500Y-71230773D01*
X199650928Y-69960773D02*
X198925214Y-69960773D01*
X198852642Y-70565535D01*
X198925214Y-70505059D01*
X199070357Y-70444583D01*
X199433214Y-70444583D01*
X199578357Y-70505059D01*
X199650928Y-70565535D01*
X199723500Y-70686488D01*
X199723500Y-70988869D01*
X199650928Y-71109821D01*
X199578357Y-71170297D01*
X199433214Y-71230773D01*
X199070357Y-71230773D01*
X198925214Y-71170297D01*
X198852642Y-71109821D01*
X120966571Y-129315023D02*
X120966571Y-128045023D01*
X121837428Y-129315023D02*
X121184285Y-128589309D01*
X121837428Y-128045023D02*
X120966571Y-128770738D01*
X123216285Y-128045023D02*
X122490571Y-128045023D01*
X122418000Y-128649785D01*
X122490571Y-128589309D01*
X122635714Y-128528833D01*
X122998571Y-128528833D01*
X123143714Y-128589309D01*
X123216285Y-128649785D01*
X123288857Y-128770738D01*
X123288857Y-129073119D01*
X123216285Y-129194071D01*
X123143714Y-129254547D01*
X122998571Y-129315023D01*
X122635714Y-129315023D01*
X122490571Y-129254547D01*
X122418000Y-129194071D01*
X123942000Y-129194071D02*
X124014571Y-129254547D01*
X123942000Y-129315023D01*
X123869428Y-129254547D01*
X123942000Y-129194071D01*
X123942000Y-129315023D01*
X125466000Y-129315023D02*
X124595142Y-129315023D01*
X125030571Y-129315023D02*
X125030571Y-128045023D01*
X124885428Y-128226452D01*
X124740285Y-128347404D01*
X124595142Y-128407880D01*
X168591571Y-129315023D02*
X168591571Y-128045023D01*
X169462428Y-129315023D02*
X168809285Y-128589309D01*
X169462428Y-128045023D02*
X168591571Y-128770738D01*
X170841285Y-128045023D02*
X170115571Y-128045023D01*
X170043000Y-128649785D01*
X170115571Y-128589309D01*
X170260714Y-128528833D01*
X170623571Y-128528833D01*
X170768714Y-128589309D01*
X170841285Y-128649785D01*
X170913857Y-128770738D01*
X170913857Y-129073119D01*
X170841285Y-129194071D01*
X170768714Y-129254547D01*
X170623571Y-129315023D01*
X170260714Y-129315023D01*
X170115571Y-129254547D01*
X170043000Y-129194071D01*
X171567000Y-129194071D02*
X171639571Y-129254547D01*
X171567000Y-129315023D01*
X171494428Y-129254547D01*
X171567000Y-129194071D01*
X171567000Y-129315023D01*
X172945857Y-128468357D02*
X172945857Y-129315023D01*
X172583000Y-127984547D02*
X172220142Y-128891690D01*
X173163571Y-128891690D01*
X138111571Y-109122023D02*
X138111571Y-107852023D01*
X138982428Y-109122023D02*
X138329285Y-108396309D01*
X138982428Y-107852023D02*
X138111571Y-108577738D01*
X140288714Y-108275357D02*
X140288714Y-109122023D01*
X139925857Y-107791547D02*
X139563000Y-108698690D01*
X140506428Y-108698690D01*
X141087000Y-109001071D02*
X141159571Y-109061547D01*
X141087000Y-109122023D01*
X141014428Y-109061547D01*
X141087000Y-109001071D01*
X141087000Y-109122023D01*
X141740142Y-107972976D02*
X141812714Y-107912500D01*
X141957857Y-107852023D01*
X142320714Y-107852023D01*
X142465857Y-107912500D01*
X142538428Y-107972976D01*
X142611000Y-108093928D01*
X142611000Y-108214880D01*
X142538428Y-108396309D01*
X141667571Y-109122023D01*
X142611000Y-109122023D01*
D10*
X202634904Y-57416666D02*
X203206333Y-57416666D01*
X203320619Y-57454761D01*
X203396809Y-57530952D01*
X203434904Y-57645238D01*
X203434904Y-57721428D01*
X202711095Y-57073809D02*
X202673000Y-57035714D01*
X202634904Y-56959523D01*
X202634904Y-56769047D01*
X202673000Y-56692857D01*
X202711095Y-56654761D01*
X202787285Y-56616666D01*
X202863476Y-56616666D01*
X202977761Y-56654761D01*
X203434904Y-57111904D01*
X203434904Y-56616666D01*
X151618904Y-48215476D02*
X150818904Y-48215476D01*
X150818904Y-48025000D01*
X150857000Y-47910714D01*
X150933190Y-47834523D01*
X151009380Y-47796428D01*
X151161761Y-47758333D01*
X151276047Y-47758333D01*
X151428428Y-47796428D01*
X151504619Y-47834523D01*
X151580809Y-47910714D01*
X151618904Y-48025000D01*
X151618904Y-48215476D01*
X151618904Y-46996428D02*
X151618904Y-47453571D01*
X151618904Y-47225000D02*
X150818904Y-47225000D01*
X150933190Y-47301190D01*
X151009380Y-47377380D01*
X151047476Y-47453571D01*
X129643154Y-67246726D02*
X128843154Y-67246726D01*
X128843154Y-67056250D01*
X128881250Y-66941964D01*
X128957440Y-66865773D01*
X129033630Y-66827678D01*
X129186011Y-66789583D01*
X129300297Y-66789583D01*
X129452678Y-66827678D01*
X129528869Y-66865773D01*
X129605059Y-66941964D01*
X129643154Y-67056250D01*
X129643154Y-67246726D01*
X128919345Y-66484821D02*
X128881250Y-66446726D01*
X128843154Y-66370535D01*
X128843154Y-66180059D01*
X128881250Y-66103869D01*
X128919345Y-66065773D01*
X128995535Y-66027678D01*
X129071726Y-66027678D01*
X129186011Y-66065773D01*
X129643154Y-66522916D01*
X129643154Y-66027678D01*
X189736904Y-48215476D02*
X188936904Y-48215476D01*
X188936904Y-48025000D01*
X188975000Y-47910714D01*
X189051190Y-47834523D01*
X189127380Y-47796428D01*
X189279761Y-47758333D01*
X189394047Y-47758333D01*
X189546428Y-47796428D01*
X189622619Y-47834523D01*
X189698809Y-47910714D01*
X189736904Y-48025000D01*
X189736904Y-48215476D01*
X188936904Y-47491666D02*
X188936904Y-46996428D01*
X189241666Y-47263095D01*
X189241666Y-47148809D01*
X189279761Y-47072619D01*
X189317857Y-47034523D01*
X189394047Y-46996428D01*
X189584523Y-46996428D01*
X189660714Y-47034523D01*
X189698809Y-47072619D01*
X189736904Y-47148809D01*
X189736904Y-47377380D01*
X189698809Y-47453571D01*
X189660714Y-47491666D01*
X186736904Y-86277976D02*
X185936904Y-86277976D01*
X185936904Y-86087500D01*
X185975000Y-85973214D01*
X186051190Y-85897023D01*
X186127380Y-85858928D01*
X186279761Y-85820833D01*
X186394047Y-85820833D01*
X186546428Y-85858928D01*
X186622619Y-85897023D01*
X186698809Y-85973214D01*
X186736904Y-86087500D01*
X186736904Y-86277976D01*
X186203571Y-85135119D02*
X186736904Y-85135119D01*
X185898809Y-85325595D02*
X186470238Y-85516071D01*
X186470238Y-85020833D01*
X132736904Y-105309226D02*
X131936904Y-105309226D01*
X131936904Y-105118750D01*
X131975000Y-105004464D01*
X132051190Y-104928273D01*
X132127380Y-104890178D01*
X132279761Y-104852083D01*
X132394047Y-104852083D01*
X132546428Y-104890178D01*
X132622619Y-104928273D01*
X132698809Y-105004464D01*
X132736904Y-105118750D01*
X132736904Y-105309226D01*
X131936904Y-104128273D02*
X131936904Y-104509226D01*
X132317857Y-104547321D01*
X132279761Y-104509226D01*
X132241666Y-104433035D01*
X132241666Y-104242559D01*
X132279761Y-104166369D01*
X132317857Y-104128273D01*
X132394047Y-104090178D01*
X132584523Y-104090178D01*
X132660714Y-104128273D01*
X132698809Y-104166369D01*
X132736904Y-104242559D01*
X132736904Y-104433035D01*
X132698809Y-104509226D01*
X132660714Y-104547321D01*
X129643154Y-86277976D02*
X128843154Y-86277976D01*
X128843154Y-86087500D01*
X128881250Y-85973214D01*
X128957440Y-85897023D01*
X129033630Y-85858928D01*
X129186011Y-85820833D01*
X129300297Y-85820833D01*
X129452678Y-85858928D01*
X129528869Y-85897023D01*
X129605059Y-85973214D01*
X129643154Y-86087500D01*
X129643154Y-86277976D01*
X128843154Y-85135119D02*
X128843154Y-85287500D01*
X128881250Y-85363690D01*
X128919345Y-85401785D01*
X129033630Y-85477976D01*
X129186011Y-85516071D01*
X129490773Y-85516071D01*
X129566964Y-85477976D01*
X129605059Y-85439880D01*
X129643154Y-85363690D01*
X129643154Y-85211309D01*
X129605059Y-85135119D01*
X129566964Y-85097023D01*
X129490773Y-85058928D01*
X129300297Y-85058928D01*
X129224107Y-85097023D01*
X129186011Y-85135119D01*
X129147916Y-85211309D01*
X129147916Y-85363690D01*
X129186011Y-85439880D01*
X129224107Y-85477976D01*
X129300297Y-85516071D01*
X148951904Y-48215476D02*
X148151904Y-48215476D01*
X148151904Y-48025000D01*
X148190000Y-47910714D01*
X148266190Y-47834523D01*
X148342380Y-47796428D01*
X148494761Y-47758333D01*
X148609047Y-47758333D01*
X148761428Y-47796428D01*
X148837619Y-47834523D01*
X148913809Y-47910714D01*
X148951904Y-48025000D01*
X148951904Y-48215476D01*
X148151904Y-47491666D02*
X148151904Y-46958333D01*
X148951904Y-47301190D01*
X189736904Y-67246726D02*
X188936904Y-67246726D01*
X188936904Y-67056250D01*
X188975000Y-66941964D01*
X189051190Y-66865773D01*
X189127380Y-66827678D01*
X189279761Y-66789583D01*
X189394047Y-66789583D01*
X189546428Y-66827678D01*
X189622619Y-66865773D01*
X189698809Y-66941964D01*
X189736904Y-67056250D01*
X189736904Y-67246726D01*
X189279761Y-66332440D02*
X189241666Y-66408630D01*
X189203571Y-66446726D01*
X189127380Y-66484821D01*
X189089285Y-66484821D01*
X189013095Y-66446726D01*
X188975000Y-66408630D01*
X188936904Y-66332440D01*
X188936904Y-66180059D01*
X188975000Y-66103869D01*
X189013095Y-66065773D01*
X189089285Y-66027678D01*
X189127380Y-66027678D01*
X189203571Y-66065773D01*
X189241666Y-66103869D01*
X189279761Y-66180059D01*
X189279761Y-66332440D01*
X189317857Y-66408630D01*
X189355952Y-66446726D01*
X189432142Y-66484821D01*
X189584523Y-66484821D01*
X189660714Y-66446726D01*
X189698809Y-66408630D01*
X189736904Y-66332440D01*
X189736904Y-66180059D01*
X189698809Y-66103869D01*
X189660714Y-66065773D01*
X189584523Y-66027678D01*
X189432142Y-66027678D01*
X189355952Y-66065773D01*
X189317857Y-66103869D01*
X189279761Y-66180059D01*
X170799404Y-105309226D02*
X169999404Y-105309226D01*
X169999404Y-105118750D01*
X170037500Y-105004464D01*
X170113690Y-104928273D01*
X170189880Y-104890178D01*
X170342261Y-104852083D01*
X170456547Y-104852083D01*
X170608928Y-104890178D01*
X170685119Y-104928273D01*
X170761309Y-105004464D01*
X170799404Y-105118750D01*
X170799404Y-105309226D01*
X170799404Y-104471130D02*
X170799404Y-104318750D01*
X170761309Y-104242559D01*
X170723214Y-104204464D01*
X170608928Y-104128273D01*
X170456547Y-104090178D01*
X170151785Y-104090178D01*
X170075595Y-104128273D01*
X170037500Y-104166369D01*
X169999404Y-104242559D01*
X169999404Y-104394940D01*
X170037500Y-104471130D01*
X170075595Y-104509226D01*
X170151785Y-104547321D01*
X170342261Y-104547321D01*
X170418452Y-104509226D01*
X170456547Y-104471130D01*
X170494642Y-104394940D01*
X170494642Y-104242559D01*
X170456547Y-104166369D01*
X170418452Y-104128273D01*
X170342261Y-104090178D01*
X129643154Y-105690178D02*
X128843154Y-105690178D01*
X128843154Y-105499702D01*
X128881250Y-105385416D01*
X128957440Y-105309226D01*
X129033630Y-105271130D01*
X129186011Y-105233035D01*
X129300297Y-105233035D01*
X129452678Y-105271130D01*
X129528869Y-105309226D01*
X129605059Y-105385416D01*
X129643154Y-105499702D01*
X129643154Y-105690178D01*
X129643154Y-104471130D02*
X129643154Y-104928273D01*
X129643154Y-104699702D02*
X128843154Y-104699702D01*
X128957440Y-104775892D01*
X129033630Y-104852083D01*
X129071726Y-104928273D01*
X128843154Y-103975892D02*
X128843154Y-103899702D01*
X128881250Y-103823511D01*
X128919345Y-103785416D01*
X128995535Y-103747321D01*
X129147916Y-103709226D01*
X129338392Y-103709226D01*
X129490773Y-103747321D01*
X129566964Y-103785416D01*
X129605059Y-103823511D01*
X129643154Y-103899702D01*
X129643154Y-103975892D01*
X129605059Y-104052083D01*
X129566964Y-104090178D01*
X129490773Y-104128273D01*
X129338392Y-104166369D01*
X129147916Y-104166369D01*
X128995535Y-104128273D01*
X128919345Y-104090178D01*
X128881250Y-104052083D01*
X128843154Y-103975892D01*
X132643154Y-67627678D02*
X131843154Y-67627678D01*
X131843154Y-67437202D01*
X131881250Y-67322916D01*
X131957440Y-67246726D01*
X132033630Y-67208630D01*
X132186011Y-67170535D01*
X132300297Y-67170535D01*
X132452678Y-67208630D01*
X132528869Y-67246726D01*
X132605059Y-67322916D01*
X132643154Y-67437202D01*
X132643154Y-67627678D01*
X132643154Y-66408630D02*
X132643154Y-66865773D01*
X132643154Y-66637202D02*
X131843154Y-66637202D01*
X131957440Y-66713392D01*
X132033630Y-66789583D01*
X132071726Y-66865773D01*
X132643154Y-65646726D02*
X132643154Y-66103869D01*
X132643154Y-65875297D02*
X131843154Y-65875297D01*
X131957440Y-65951488D01*
X132033630Y-66027678D01*
X132071726Y-66103869D01*
X132736904Y-86658928D02*
X131936904Y-86658928D01*
X131936904Y-86468452D01*
X131975000Y-86354166D01*
X132051190Y-86277976D01*
X132127380Y-86239880D01*
X132279761Y-86201785D01*
X132394047Y-86201785D01*
X132546428Y-86239880D01*
X132622619Y-86277976D01*
X132698809Y-86354166D01*
X132736904Y-86468452D01*
X132736904Y-86658928D01*
X132736904Y-85439880D02*
X132736904Y-85897023D01*
X132736904Y-85668452D02*
X131936904Y-85668452D01*
X132051190Y-85744642D01*
X132127380Y-85820833D01*
X132165476Y-85897023D01*
X132013095Y-85135119D02*
X131975000Y-85097023D01*
X131936904Y-85020833D01*
X131936904Y-84830357D01*
X131975000Y-84754166D01*
X132013095Y-84716071D01*
X132089285Y-84677976D01*
X132165476Y-84677976D01*
X132279761Y-84716071D01*
X132736904Y-85173214D01*
X132736904Y-84677976D01*
X189830654Y-86658928D02*
X189030654Y-86658928D01*
X189030654Y-86468452D01*
X189068750Y-86354166D01*
X189144940Y-86277976D01*
X189221130Y-86239880D01*
X189373511Y-86201785D01*
X189487797Y-86201785D01*
X189640178Y-86239880D01*
X189716369Y-86277976D01*
X189792559Y-86354166D01*
X189830654Y-86468452D01*
X189830654Y-86658928D01*
X189830654Y-85439880D02*
X189830654Y-85897023D01*
X189830654Y-85668452D02*
X189030654Y-85668452D01*
X189144940Y-85744642D01*
X189221130Y-85820833D01*
X189259226Y-85897023D01*
X189030654Y-85173214D02*
X189030654Y-84677976D01*
X189335416Y-84944642D01*
X189335416Y-84830357D01*
X189373511Y-84754166D01*
X189411607Y-84716071D01*
X189487797Y-84677976D01*
X189678273Y-84677976D01*
X189754464Y-84716071D01*
X189792559Y-84754166D01*
X189830654Y-84830357D01*
X189830654Y-85058928D01*
X189792559Y-85135119D01*
X189754464Y-85173214D01*
X189835904Y-124721428D02*
X189035904Y-124721428D01*
X189035904Y-124530952D01*
X189074000Y-124416666D01*
X189150190Y-124340476D01*
X189226380Y-124302380D01*
X189378761Y-124264285D01*
X189493047Y-124264285D01*
X189645428Y-124302380D01*
X189721619Y-124340476D01*
X189797809Y-124416666D01*
X189835904Y-124530952D01*
X189835904Y-124721428D01*
X189835904Y-123502380D02*
X189835904Y-123959523D01*
X189835904Y-123730952D02*
X189035904Y-123730952D01*
X189150190Y-123807142D01*
X189226380Y-123883333D01*
X189264476Y-123959523D01*
X189302571Y-122816666D02*
X189835904Y-122816666D01*
X188997809Y-123007142D02*
X189569238Y-123197619D01*
X189569238Y-122702380D01*
X118541279Y-124758928D02*
X117741279Y-124758928D01*
X117741279Y-124568452D01*
X117779375Y-124454166D01*
X117855565Y-124377976D01*
X117931755Y-124339880D01*
X118084136Y-124301785D01*
X118198422Y-124301785D01*
X118350803Y-124339880D01*
X118426994Y-124377976D01*
X118503184Y-124454166D01*
X118541279Y-124568452D01*
X118541279Y-124758928D01*
X118541279Y-123539880D02*
X118541279Y-123997023D01*
X118541279Y-123768452D02*
X117741279Y-123768452D01*
X117855565Y-123844642D01*
X117931755Y-123920833D01*
X117969851Y-123997023D01*
X117741279Y-122816071D02*
X117741279Y-123197023D01*
X118122232Y-123235119D01*
X118084136Y-123197023D01*
X118046041Y-123120833D01*
X118046041Y-122930357D01*
X118084136Y-122854166D01*
X118122232Y-122816071D01*
X118198422Y-122777976D01*
X118388898Y-122777976D01*
X118465089Y-122816071D01*
X118503184Y-122854166D01*
X118541279Y-122930357D01*
X118541279Y-123120833D01*
X118503184Y-123197023D01*
X118465089Y-123235119D01*
X168001904Y-48596428D02*
X167201904Y-48596428D01*
X167201904Y-48405952D01*
X167240000Y-48291666D01*
X167316190Y-48215476D01*
X167392380Y-48177380D01*
X167544761Y-48139285D01*
X167659047Y-48139285D01*
X167811428Y-48177380D01*
X167887619Y-48215476D01*
X167963809Y-48291666D01*
X168001904Y-48405952D01*
X168001904Y-48596428D01*
X168001904Y-47377380D02*
X168001904Y-47834523D01*
X168001904Y-47605952D02*
X167201904Y-47605952D01*
X167316190Y-47682142D01*
X167392380Y-47758333D01*
X167430476Y-47834523D01*
X167201904Y-46691666D02*
X167201904Y-46844047D01*
X167240000Y-46920238D01*
X167278095Y-46958333D01*
X167392380Y-47034523D01*
X167544761Y-47072619D01*
X167849523Y-47072619D01*
X167925714Y-47034523D01*
X167963809Y-46996428D01*
X168001904Y-46920238D01*
X168001904Y-46767857D01*
X167963809Y-46691666D01*
X167925714Y-46653571D01*
X167849523Y-46615476D01*
X167659047Y-46615476D01*
X167582857Y-46653571D01*
X167544761Y-46691666D01*
X167506666Y-46767857D01*
X167506666Y-46920238D01*
X167544761Y-46996428D01*
X167582857Y-47034523D01*
X167659047Y-47072619D01*
X151674404Y-67627678D02*
X150874404Y-67627678D01*
X150874404Y-67437202D01*
X150912500Y-67322916D01*
X150988690Y-67246726D01*
X151064880Y-67208630D01*
X151217261Y-67170535D01*
X151331547Y-67170535D01*
X151483928Y-67208630D01*
X151560119Y-67246726D01*
X151636309Y-67322916D01*
X151674404Y-67437202D01*
X151674404Y-67627678D01*
X151674404Y-66408630D02*
X151674404Y-66865773D01*
X151674404Y-66637202D02*
X150874404Y-66637202D01*
X150988690Y-66713392D01*
X151064880Y-66789583D01*
X151102976Y-66865773D01*
X150874404Y-66141964D02*
X150874404Y-65608630D01*
X151674404Y-65951488D01*
X189736904Y-105690178D02*
X188936904Y-105690178D01*
X188936904Y-105499702D01*
X188975000Y-105385416D01*
X189051190Y-105309226D01*
X189127380Y-105271130D01*
X189279761Y-105233035D01*
X189394047Y-105233035D01*
X189546428Y-105271130D01*
X189622619Y-105309226D01*
X189698809Y-105385416D01*
X189736904Y-105499702D01*
X189736904Y-105690178D01*
X189736904Y-104471130D02*
X189736904Y-104928273D01*
X189736904Y-104699702D02*
X188936904Y-104699702D01*
X189051190Y-104775892D01*
X189127380Y-104852083D01*
X189165476Y-104928273D01*
X189279761Y-104013988D02*
X189241666Y-104090178D01*
X189203571Y-104128273D01*
X189127380Y-104166369D01*
X189089285Y-104166369D01*
X189013095Y-104128273D01*
X188975000Y-104090178D01*
X188936904Y-104013988D01*
X188936904Y-103861607D01*
X188975000Y-103785416D01*
X189013095Y-103747321D01*
X189089285Y-103709226D01*
X189127380Y-103709226D01*
X189203571Y-103747321D01*
X189241666Y-103785416D01*
X189279761Y-103861607D01*
X189279761Y-104013988D01*
X189317857Y-104090178D01*
X189355952Y-104128273D01*
X189432142Y-104166369D01*
X189584523Y-104166369D01*
X189660714Y-104128273D01*
X189698809Y-104090178D01*
X189736904Y-104013988D01*
X189736904Y-103861607D01*
X189698809Y-103785416D01*
X189660714Y-103747321D01*
X189584523Y-103709226D01*
X189432142Y-103709226D01*
X189355952Y-103747321D01*
X189317857Y-103785416D01*
X189279761Y-103861607D01*
X142205654Y-124721428D02*
X141405654Y-124721428D01*
X141405654Y-124530952D01*
X141443750Y-124416666D01*
X141519940Y-124340476D01*
X141596130Y-124302380D01*
X141748511Y-124264285D01*
X141862797Y-124264285D01*
X142015178Y-124302380D01*
X142091369Y-124340476D01*
X142167559Y-124416666D01*
X142205654Y-124530952D01*
X142205654Y-124721428D01*
X142205654Y-123502380D02*
X142205654Y-123959523D01*
X142205654Y-123730952D02*
X141405654Y-123730952D01*
X141519940Y-123807142D01*
X141596130Y-123883333D01*
X141634226Y-123959523D01*
X142205654Y-123121428D02*
X142205654Y-122969047D01*
X142167559Y-122892857D01*
X142129464Y-122854761D01*
X142015178Y-122778571D01*
X141862797Y-122740476D01*
X141558035Y-122740476D01*
X141481845Y-122778571D01*
X141443750Y-122816666D01*
X141405654Y-122892857D01*
X141405654Y-123045238D01*
X141443750Y-123121428D01*
X141481845Y-123159523D01*
X141558035Y-123197619D01*
X141748511Y-123197619D01*
X141824702Y-123159523D01*
X141862797Y-123121428D01*
X141900892Y-123045238D01*
X141900892Y-122892857D01*
X141862797Y-122816666D01*
X141824702Y-122778571D01*
X141748511Y-122740476D01*
X151768154Y-86658928D02*
X150968154Y-86658928D01*
X150968154Y-86468452D01*
X151006250Y-86354166D01*
X151082440Y-86277976D01*
X151158630Y-86239880D01*
X151311011Y-86201785D01*
X151425297Y-86201785D01*
X151577678Y-86239880D01*
X151653869Y-86277976D01*
X151730059Y-86354166D01*
X151768154Y-86468452D01*
X151768154Y-86658928D01*
X151044345Y-85897023D02*
X151006250Y-85858928D01*
X150968154Y-85782738D01*
X150968154Y-85592261D01*
X151006250Y-85516071D01*
X151044345Y-85477976D01*
X151120535Y-85439880D01*
X151196726Y-85439880D01*
X151311011Y-85477976D01*
X151768154Y-85935119D01*
X151768154Y-85439880D01*
X151768154Y-84677976D02*
X151768154Y-85135119D01*
X151768154Y-84906547D02*
X150968154Y-84906547D01*
X151082440Y-84982738D01*
X151158630Y-85058928D01*
X151196726Y-85135119D01*
X170705654Y-48596428D02*
X169905654Y-48596428D01*
X169905654Y-48405952D01*
X169943750Y-48291666D01*
X170019940Y-48215476D01*
X170096130Y-48177380D01*
X170248511Y-48139285D01*
X170362797Y-48139285D01*
X170515178Y-48177380D01*
X170591369Y-48215476D01*
X170667559Y-48291666D01*
X170705654Y-48405952D01*
X170705654Y-48596428D01*
X169981845Y-47834523D02*
X169943750Y-47796428D01*
X169905654Y-47720238D01*
X169905654Y-47529761D01*
X169943750Y-47453571D01*
X169981845Y-47415476D01*
X170058035Y-47377380D01*
X170134226Y-47377380D01*
X170248511Y-47415476D01*
X170705654Y-47872619D01*
X170705654Y-47377380D01*
X169981845Y-47072619D02*
X169943750Y-47034523D01*
X169905654Y-46958333D01*
X169905654Y-46767857D01*
X169943750Y-46691666D01*
X169981845Y-46653571D01*
X170058035Y-46615476D01*
X170134226Y-46615476D01*
X170248511Y-46653571D01*
X170705654Y-47110714D01*
X170705654Y-46615476D01*
X170705654Y-67627678D02*
X169905654Y-67627678D01*
X169905654Y-67437202D01*
X169943750Y-67322916D01*
X170019940Y-67246726D01*
X170096130Y-67208630D01*
X170248511Y-67170535D01*
X170362797Y-67170535D01*
X170515178Y-67208630D01*
X170591369Y-67246726D01*
X170667559Y-67322916D01*
X170705654Y-67437202D01*
X170705654Y-67627678D01*
X169981845Y-66865773D02*
X169943750Y-66827678D01*
X169905654Y-66751488D01*
X169905654Y-66561011D01*
X169943750Y-66484821D01*
X169981845Y-66446726D01*
X170058035Y-66408630D01*
X170134226Y-66408630D01*
X170248511Y-66446726D01*
X170705654Y-66903869D01*
X170705654Y-66408630D01*
X169905654Y-66141964D02*
X169905654Y-65646726D01*
X170210416Y-65913392D01*
X170210416Y-65799107D01*
X170248511Y-65722916D01*
X170286607Y-65684821D01*
X170362797Y-65646726D01*
X170553273Y-65646726D01*
X170629464Y-65684821D01*
X170667559Y-65722916D01*
X170705654Y-65799107D01*
X170705654Y-66027678D01*
X170667559Y-66103869D01*
X170629464Y-66141964D01*
X151674404Y-105690178D02*
X150874404Y-105690178D01*
X150874404Y-105499702D01*
X150912500Y-105385416D01*
X150988690Y-105309226D01*
X151064880Y-105271130D01*
X151217261Y-105233035D01*
X151331547Y-105233035D01*
X151483928Y-105271130D01*
X151560119Y-105309226D01*
X151636309Y-105385416D01*
X151674404Y-105499702D01*
X151674404Y-105690178D01*
X150950595Y-104928273D02*
X150912500Y-104890178D01*
X150874404Y-104813988D01*
X150874404Y-104623511D01*
X150912500Y-104547321D01*
X150950595Y-104509226D01*
X151026785Y-104471130D01*
X151102976Y-104471130D01*
X151217261Y-104509226D01*
X151674404Y-104966369D01*
X151674404Y-104471130D01*
X151141071Y-103785416D02*
X151674404Y-103785416D01*
X150836309Y-103975892D02*
X151407738Y-104166369D01*
X151407738Y-103671130D01*
D14*
X138130321Y-52199523D02*
X138130321Y-50929523D01*
X139001178Y-52199523D02*
X138348035Y-51473809D01*
X139001178Y-50929523D02*
X138130321Y-51655238D01*
X140452607Y-52199523D02*
X139581750Y-52199523D01*
X140017178Y-52199523D02*
X140017178Y-50929523D01*
X139872035Y-51110952D01*
X139726892Y-51231904D01*
X139581750Y-51292380D01*
X141105750Y-52078571D02*
X141178321Y-52139047D01*
X141105750Y-52199523D01*
X141033178Y-52139047D01*
X141105750Y-52078571D01*
X141105750Y-52199523D01*
X141758892Y-51050476D02*
X141831464Y-50990000D01*
X141976607Y-50929523D01*
X142339464Y-50929523D01*
X142484607Y-50990000D01*
X142557178Y-51050476D01*
X142629750Y-51171428D01*
X142629750Y-51292380D01*
X142557178Y-51473809D01*
X141686321Y-52199523D01*
X142629750Y-52199523D01*
X157161571Y-52199523D02*
X157161571Y-50929523D01*
X158032428Y-52199523D02*
X157379285Y-51473809D01*
X158032428Y-50929523D02*
X157161571Y-51655238D01*
X159483857Y-52199523D02*
X158613000Y-52199523D01*
X159048428Y-52199523D02*
X159048428Y-50929523D01*
X158903285Y-51110952D01*
X158758142Y-51231904D01*
X158613000Y-51292380D01*
X160137000Y-52078571D02*
X160209571Y-52139047D01*
X160137000Y-52199523D01*
X160064428Y-52139047D01*
X160137000Y-52078571D01*
X160137000Y-52199523D01*
X160717571Y-50929523D02*
X161661000Y-50929523D01*
X161153000Y-51413333D01*
X161370714Y-51413333D01*
X161515857Y-51473809D01*
X161588428Y-51534285D01*
X161661000Y-51655238D01*
X161661000Y-51957619D01*
X161588428Y-52078571D01*
X161515857Y-52139047D01*
X161370714Y-52199523D01*
X160935285Y-52199523D01*
X160790142Y-52139047D01*
X160717571Y-52078571D01*
X176192821Y-52199523D02*
X176192821Y-50929523D01*
X177063678Y-52199523D02*
X176410535Y-51473809D01*
X177063678Y-50929523D02*
X176192821Y-51655238D01*
X178515107Y-52199523D02*
X177644250Y-52199523D01*
X178079678Y-52199523D02*
X178079678Y-50929523D01*
X177934535Y-51110952D01*
X177789392Y-51231904D01*
X177644250Y-51292380D01*
X179168250Y-52078571D02*
X179240821Y-52139047D01*
X179168250Y-52199523D01*
X179095678Y-52139047D01*
X179168250Y-52078571D01*
X179168250Y-52199523D01*
X180547107Y-51352857D02*
X180547107Y-52199523D01*
X180184250Y-50869047D02*
X179821392Y-51776190D01*
X180764821Y-51776190D01*
X119099071Y-52199523D02*
X119099071Y-50929523D01*
X119969928Y-52199523D02*
X119316785Y-51473809D01*
X119969928Y-50929523D02*
X119099071Y-51655238D01*
X121421357Y-52199523D02*
X120550500Y-52199523D01*
X120985928Y-52199523D02*
X120985928Y-50929523D01*
X120840785Y-51110952D01*
X120695642Y-51231904D01*
X120550500Y-51292380D01*
X122074500Y-52078571D02*
X122147071Y-52139047D01*
X122074500Y-52199523D01*
X122001928Y-52139047D01*
X122074500Y-52078571D01*
X122074500Y-52199523D01*
X123598500Y-52199523D02*
X122727642Y-52199523D01*
X123163071Y-52199523D02*
X123163071Y-50929523D01*
X123017928Y-51110952D01*
X122872785Y-51231904D01*
X122727642Y-51292380D01*
X119099071Y-71230773D02*
X119099071Y-69960773D01*
X119969928Y-71230773D02*
X119316785Y-70505059D01*
X119969928Y-69960773D02*
X119099071Y-70686488D01*
X120550500Y-70081726D02*
X120623071Y-70021250D01*
X120768214Y-69960773D01*
X121131071Y-69960773D01*
X121276214Y-70021250D01*
X121348785Y-70081726D01*
X121421357Y-70202678D01*
X121421357Y-70323630D01*
X121348785Y-70505059D01*
X120477928Y-71230773D01*
X121421357Y-71230773D01*
X122074500Y-71109821D02*
X122147071Y-71170297D01*
X122074500Y-71230773D01*
X122001928Y-71170297D01*
X122074500Y-71109821D01*
X122074500Y-71230773D01*
X123598500Y-71230773D02*
X122727642Y-71230773D01*
X123163071Y-71230773D02*
X123163071Y-69960773D01*
X123017928Y-70142202D01*
X122872785Y-70263154D01*
X122727642Y-70323630D01*
X195224071Y-90262023D02*
X195224071Y-88992023D01*
X196094928Y-90262023D02*
X195441785Y-89536309D01*
X196094928Y-88992023D02*
X195224071Y-89717738D01*
X196602928Y-88992023D02*
X197546357Y-88992023D01*
X197038357Y-89475833D01*
X197256071Y-89475833D01*
X197401214Y-89536309D01*
X197473785Y-89596785D01*
X197546357Y-89717738D01*
X197546357Y-90020119D01*
X197473785Y-90141071D01*
X197401214Y-90201547D01*
X197256071Y-90262023D01*
X196820642Y-90262023D01*
X196675500Y-90201547D01*
X196602928Y-90141071D01*
X198199500Y-90141071D02*
X198272071Y-90201547D01*
X198199500Y-90262023D01*
X198126928Y-90201547D01*
X198199500Y-90141071D01*
X198199500Y-90262023D01*
X199650928Y-88992023D02*
X198925214Y-88992023D01*
X198852642Y-89596785D01*
X198925214Y-89536309D01*
X199070357Y-89475833D01*
X199433214Y-89475833D01*
X199578357Y-89536309D01*
X199650928Y-89596785D01*
X199723500Y-89717738D01*
X199723500Y-90020119D01*
X199650928Y-90141071D01*
X199578357Y-90201547D01*
X199433214Y-90262023D01*
X199070357Y-90262023D01*
X198925214Y-90201547D01*
X198852642Y-90141071D01*
X195224071Y-109293273D02*
X195224071Y-108023273D01*
X196094928Y-109293273D02*
X195441785Y-108567559D01*
X196094928Y-108023273D02*
X195224071Y-108748988D01*
X197401214Y-108446607D02*
X197401214Y-109293273D01*
X197038357Y-107962797D02*
X196675500Y-108869940D01*
X197618928Y-108869940D01*
X198199500Y-109172321D02*
X198272071Y-109232797D01*
X198199500Y-109293273D01*
X198126928Y-109232797D01*
X198199500Y-109172321D01*
X198199500Y-109293273D01*
X199650928Y-108023273D02*
X198925214Y-108023273D01*
X198852642Y-108628035D01*
X198925214Y-108567559D01*
X199070357Y-108507083D01*
X199433214Y-108507083D01*
X199578357Y-108567559D01*
X199650928Y-108628035D01*
X199723500Y-108748988D01*
X199723500Y-109051369D01*
X199650928Y-109172321D01*
X199578357Y-109232797D01*
X199433214Y-109293273D01*
X199070357Y-109293273D01*
X198925214Y-109232797D01*
X198852642Y-109172321D01*
X176192821Y-90262023D02*
X176192821Y-88992023D01*
X177063678Y-90262023D02*
X176410535Y-89536309D01*
X177063678Y-88992023D02*
X176192821Y-89717738D01*
X177571678Y-88992023D02*
X178515107Y-88992023D01*
X178007107Y-89475833D01*
X178224821Y-89475833D01*
X178369964Y-89536309D01*
X178442535Y-89596785D01*
X178515107Y-89717738D01*
X178515107Y-90020119D01*
X178442535Y-90141071D01*
X178369964Y-90201547D01*
X178224821Y-90262023D01*
X177789392Y-90262023D01*
X177644250Y-90201547D01*
X177571678Y-90141071D01*
X179168250Y-90141071D02*
X179240821Y-90201547D01*
X179168250Y-90262023D01*
X179095678Y-90201547D01*
X179168250Y-90141071D01*
X179168250Y-90262023D01*
X180547107Y-89415357D02*
X180547107Y-90262023D01*
X180184250Y-88931547D02*
X179821392Y-89838690D01*
X180764821Y-89838690D01*
X176192821Y-109293273D02*
X176192821Y-108023273D01*
X177063678Y-109293273D02*
X176410535Y-108567559D01*
X177063678Y-108023273D02*
X176192821Y-108748988D01*
X178369964Y-108446607D02*
X178369964Y-109293273D01*
X178007107Y-107962797D02*
X177644250Y-108869940D01*
X178587678Y-108869940D01*
X179168250Y-109172321D02*
X179240821Y-109232797D01*
X179168250Y-109293273D01*
X179095678Y-109232797D01*
X179168250Y-109172321D01*
X179168250Y-109293273D01*
X180547107Y-108446607D02*
X180547107Y-109293273D01*
X180184250Y-107962797D02*
X179821392Y-108869940D01*
X180764821Y-108869940D01*
X157161571Y-90262023D02*
X157161571Y-88992023D01*
X158032428Y-90262023D02*
X157379285Y-89536309D01*
X158032428Y-88992023D02*
X157161571Y-89717738D01*
X158540428Y-88992023D02*
X159483857Y-88992023D01*
X158975857Y-89475833D01*
X159193571Y-89475833D01*
X159338714Y-89536309D01*
X159411285Y-89596785D01*
X159483857Y-89717738D01*
X159483857Y-90020119D01*
X159411285Y-90141071D01*
X159338714Y-90201547D01*
X159193571Y-90262023D01*
X158758142Y-90262023D01*
X158613000Y-90201547D01*
X158540428Y-90141071D01*
X160137000Y-90141071D02*
X160209571Y-90201547D01*
X160137000Y-90262023D01*
X160064428Y-90201547D01*
X160137000Y-90141071D01*
X160137000Y-90262023D01*
X160717571Y-88992023D02*
X161661000Y-88992023D01*
X161153000Y-89475833D01*
X161370714Y-89475833D01*
X161515857Y-89536309D01*
X161588428Y-89596785D01*
X161661000Y-89717738D01*
X161661000Y-90020119D01*
X161588428Y-90141071D01*
X161515857Y-90201547D01*
X161370714Y-90262023D01*
X160935285Y-90262023D01*
X160790142Y-90201547D01*
X160717571Y-90141071D01*
X157161571Y-109293273D02*
X157161571Y-108023273D01*
X158032428Y-109293273D02*
X157379285Y-108567559D01*
X158032428Y-108023273D02*
X157161571Y-108748988D01*
X159338714Y-108446607D02*
X159338714Y-109293273D01*
X158975857Y-107962797D02*
X158613000Y-108869940D01*
X159556428Y-108869940D01*
X160137000Y-109172321D02*
X160209571Y-109232797D01*
X160137000Y-109293273D01*
X160064428Y-109232797D01*
X160137000Y-109172321D01*
X160137000Y-109293273D01*
X160717571Y-108023273D02*
X161661000Y-108023273D01*
X161153000Y-108507083D01*
X161370714Y-108507083D01*
X161515857Y-108567559D01*
X161588428Y-108628035D01*
X161661000Y-108748988D01*
X161661000Y-109051369D01*
X161588428Y-109172321D01*
X161515857Y-109232797D01*
X161370714Y-109293273D01*
X160935285Y-109293273D01*
X160790142Y-109232797D01*
X160717571Y-109172321D01*
X146493571Y-129315023D02*
X146493571Y-128045023D01*
X147364428Y-129315023D02*
X146711285Y-128589309D01*
X147364428Y-128045023D02*
X146493571Y-128770738D01*
X148743285Y-128045023D02*
X148017571Y-128045023D01*
X147945000Y-128649785D01*
X148017571Y-128589309D01*
X148162714Y-128528833D01*
X148525571Y-128528833D01*
X148670714Y-128589309D01*
X148743285Y-128649785D01*
X148815857Y-128770738D01*
X148815857Y-129073119D01*
X148743285Y-129194071D01*
X148670714Y-129254547D01*
X148525571Y-129315023D01*
X148162714Y-129315023D01*
X148017571Y-129254547D01*
X147945000Y-129194071D01*
X149469000Y-129194071D02*
X149541571Y-129254547D01*
X149469000Y-129315023D01*
X149396428Y-129254547D01*
X149469000Y-129194071D01*
X149469000Y-129315023D01*
X150122142Y-128165976D02*
X150194714Y-128105500D01*
X150339857Y-128045023D01*
X150702714Y-128045023D01*
X150847857Y-128105500D01*
X150920428Y-128165976D01*
X150993000Y-128286928D01*
X150993000Y-128407880D01*
X150920428Y-128589309D01*
X150049571Y-129315023D01*
X150993000Y-129315023D01*
X119061571Y-109312023D02*
X119061571Y-108042023D01*
X119932428Y-109312023D02*
X119279285Y-108586309D01*
X119932428Y-108042023D02*
X119061571Y-108767738D01*
X121238714Y-108465357D02*
X121238714Y-109312023D01*
X120875857Y-107981547D02*
X120513000Y-108888690D01*
X121456428Y-108888690D01*
X122037000Y-109191071D02*
X122109571Y-109251547D01*
X122037000Y-109312023D01*
X121964428Y-109251547D01*
X122037000Y-109191071D01*
X122037000Y-109312023D01*
X123561000Y-109312023D02*
X122690142Y-109312023D01*
X123125571Y-109312023D02*
X123125571Y-108042023D01*
X122980428Y-108223452D01*
X122835285Y-108344404D01*
X122690142Y-108404880D01*
X158304571Y-129315023D02*
X158304571Y-128045023D01*
X159175428Y-129315023D02*
X158522285Y-128589309D01*
X159175428Y-128045023D02*
X158304571Y-128770738D01*
X160554285Y-128045023D02*
X159828571Y-128045023D01*
X159756000Y-128649785D01*
X159828571Y-128589309D01*
X159973714Y-128528833D01*
X160336571Y-128528833D01*
X160481714Y-128589309D01*
X160554285Y-128649785D01*
X160626857Y-128770738D01*
X160626857Y-129073119D01*
X160554285Y-129194071D01*
X160481714Y-129254547D01*
X160336571Y-129315023D01*
X159973714Y-129315023D01*
X159828571Y-129254547D01*
X159756000Y-129194071D01*
X161280000Y-129194071D02*
X161352571Y-129254547D01*
X161280000Y-129315023D01*
X161207428Y-129254547D01*
X161280000Y-129194071D01*
X161280000Y-129315023D01*
X161860571Y-128045023D02*
X162804000Y-128045023D01*
X162296000Y-128528833D01*
X162513714Y-128528833D01*
X162658857Y-128589309D01*
X162731428Y-128649785D01*
X162804000Y-128770738D01*
X162804000Y-129073119D01*
X162731428Y-129194071D01*
X162658857Y-129254547D01*
X162513714Y-129315023D01*
X162078285Y-129315023D01*
X161933142Y-129254547D01*
X161860571Y-129194071D01*
D10*
X186883154Y-105708928D02*
X186083154Y-105708928D01*
X186083154Y-105518452D01*
X186121250Y-105404166D01*
X186197440Y-105327976D01*
X186273630Y-105289880D01*
X186426011Y-105251785D01*
X186540297Y-105251785D01*
X186692678Y-105289880D01*
X186768869Y-105327976D01*
X186845059Y-105404166D01*
X186883154Y-105518452D01*
X186883154Y-105708928D01*
X186159345Y-104947023D02*
X186121250Y-104908928D01*
X186083154Y-104832738D01*
X186083154Y-104642261D01*
X186121250Y-104566071D01*
X186159345Y-104527976D01*
X186235535Y-104489880D01*
X186311726Y-104489880D01*
X186426011Y-104527976D01*
X186883154Y-104985119D01*
X186883154Y-104489880D01*
X186083154Y-103994642D02*
X186083154Y-103918452D01*
X186121250Y-103842261D01*
X186159345Y-103804166D01*
X186235535Y-103766071D01*
X186387916Y-103727976D01*
X186578392Y-103727976D01*
X186730773Y-103766071D01*
X186806964Y-103804166D01*
X186845059Y-103842261D01*
X186883154Y-103918452D01*
X186883154Y-103994642D01*
X186845059Y-104070833D01*
X186806964Y-104108928D01*
X186730773Y-104147023D01*
X186578392Y-104185119D01*
X186387916Y-104185119D01*
X186235535Y-104147023D01*
X186159345Y-104108928D01*
X186121250Y-104070833D01*
X186083154Y-103994642D01*
D14*
X195224071Y-129315023D02*
X195224071Y-128045023D01*
X196094928Y-129315023D02*
X195441785Y-128589309D01*
X196094928Y-128045023D02*
X195224071Y-128770738D01*
X197473785Y-128045023D02*
X196748071Y-128045023D01*
X196675500Y-128649785D01*
X196748071Y-128589309D01*
X196893214Y-128528833D01*
X197256071Y-128528833D01*
X197401214Y-128589309D01*
X197473785Y-128649785D01*
X197546357Y-128770738D01*
X197546357Y-129073119D01*
X197473785Y-129194071D01*
X197401214Y-129254547D01*
X197256071Y-129315023D01*
X196893214Y-129315023D01*
X196748071Y-129254547D01*
X196675500Y-129194071D01*
X198199500Y-129194071D02*
X198272071Y-129254547D01*
X198199500Y-129315023D01*
X198126928Y-129254547D01*
X198199500Y-129194071D01*
X198199500Y-129315023D01*
X199142928Y-128589309D02*
X198997785Y-128528833D01*
X198925214Y-128468357D01*
X198852642Y-128347404D01*
X198852642Y-128286928D01*
X198925214Y-128165976D01*
X198997785Y-128105500D01*
X199142928Y-128045023D01*
X199433214Y-128045023D01*
X199578357Y-128105500D01*
X199650928Y-128165976D01*
X199723500Y-128286928D01*
X199723500Y-128347404D01*
X199650928Y-128468357D01*
X199578357Y-128528833D01*
X199433214Y-128589309D01*
X199142928Y-128589309D01*
X198997785Y-128649785D01*
X198925214Y-128710261D01*
X198852642Y-128831214D01*
X198852642Y-129073119D01*
X198925214Y-129194071D01*
X198997785Y-129254547D01*
X199142928Y-129315023D01*
X199433214Y-129315023D01*
X199578357Y-129254547D01*
X199650928Y-129194071D01*
X199723500Y-129073119D01*
X199723500Y-128831214D01*
X199650928Y-128710261D01*
X199578357Y-128649785D01*
X199433214Y-128589309D01*
M02*
