M48
; DRILL file {KiCad (5.1.4-0-10_14)} date 2019 November 02, Saturday 21:55:57
; FORMAT={-:-/ absolute / inch / decimal}
; #@! TF.CreationDate,2019-11-02T21:55:57+01:00
; #@! TF.GenerationSoftware,Kicad,Pcbnew,(5.1.4-0-10_14)
; #@! TF.FileFunction,NonPlated,1,2,NPTH
FMAT,2
INCH
T1C0.0670
T2C0.0709
T3C0.1200
T4C0.1570
%
G90
G05
T1
X6.8239Y-4.1228
X7.2239Y-4.1228
X5.3253Y-3.3735
X5.7253Y-3.3735
X6.0746Y-1.875
X6.4746Y-1.875
X7.5731Y-4.1228
X7.9731Y-4.1228
X6.8239Y-3.3735
X7.2239Y-3.3735
X4.5761Y-3.3735
X4.9761Y-3.3735
X4.5761Y-1.875
X4.9761Y-1.875
X6.8239Y-1.875
X7.2239Y-1.875
X7.5746Y-4.8735
X7.9746Y-4.8735
X5.6996Y-4.8735
X6.0746Y-4.1228
X6.4746Y-4.1228
X5.3253Y-2.6243
X5.7253Y-2.6243
X5.3253Y-1.875
X5.7253Y-1.875
X7.5731Y-3.3735
X7.9731Y-3.3735
X6.8239Y-2.6243
X7.2239Y-2.6243
X6.0996Y-4.8735
X6.0746Y-4.8735
X6.4746Y-4.8735
X4.9761Y-2.6243
X7.5731Y-1.875
X7.9731Y-1.875
X7.5731Y-2.6243
X7.9731Y-2.6243
X4.5746Y-4.1235
X4.9746Y-4.1235
X6.0746Y-2.6243
X6.4746Y-2.6243
X4.5761Y-2.6243
X6.0746Y-3.3735
X6.4746Y-3.3735
X5.3253Y-4.1228
X5.7253Y-4.1228
X4.9746Y-4.8735
X6.4496Y-4.8735
X4.5746Y-4.8735
X6.8496Y-4.8735
T2
X7.7871Y-4.8735
X5.5121Y-4.8735
X5.9121Y-4.8735
X7.3871Y-4.8735
X4.7621Y-4.8735
X5.1621Y-4.8735
X6.6371Y-4.8735
X7.0371Y-4.8735
T3
X7.7746Y-5.1485
X4.7746Y-5.1485
X5.8046Y-5.1485
X6.7446Y-5.1485
T4
X7.7731Y-4.1228
X4.7746Y-4.5485
X5.5253Y-3.3735
X6.2746Y-1.875
X4.7746Y-4.8735
X4.9621Y-4.8735
X6.6496Y-4.8735
X6.8371Y-4.8735
X4.7761Y-1.875
X7.0239Y-3.3735
X4.7761Y-3.3735
X6.2746Y-4.1228
X7.0239Y-1.875
X7.7746Y-4.8735
X7.0239Y-4.1228
X5.5253Y-2.6243
X5.5253Y-4.1228
X7.7731Y-3.3735
X6.2746Y-2.6243
X7.0239Y-2.6243
X4.7746Y-4.1235
X7.7731Y-2.6243
X5.5253Y-1.875
X5.8996Y-4.8735
X7.7731Y-1.875
X7.5871Y-4.8735
X5.7121Y-4.8735
X4.7761Y-2.6243
X6.2746Y-4.8735
X6.7446Y-4.5485
X6.2746Y-3.3735
X7.7746Y-4.5485
X5.8046Y-4.5485
T0
M30
