M48
; DRILL file {KiCad (5.1.4-0-10_14)} date 2019 September 15, Sunday 21:27:34
; FORMAT={-:-/ absolute / inch / decimal}
; #@! TF.CreationDate,2019-09-15T21:27:34+02:00
; #@! TF.GenerationSoftware,Kicad,Pcbnew,(5.1.4-0-10_14)
; #@! TF.FileFunction,NonPlated,1,2,NPTH
FMAT,2
INCH
T1C0.0670
T2C0.1200
T3C0.1570
%
G90
G05
T1
X6.0746Y-2.6243
X6.4746Y-2.6243
X6.6356Y-4.872
X7.0356Y-4.872
X4.5761Y-3.3735
X4.9761Y-3.3735
X4.7643Y-4.872
X5.1643Y-4.872
X4.5761Y-4.1228
X4.9761Y-4.1228
X7.5731Y-1.875
X7.9731Y-1.875
X5.3253Y-2.6243
X5.7253Y-2.6243
X6.0746Y-4.872
X6.4746Y-4.872
X6.0746Y-4.1228
X6.0746Y-3.3735
X6.4746Y-3.3735
X5.3253Y-3.3735
X5.7253Y-3.3735
X6.4746Y-4.1228
X6.8239Y-3.3735
X7.2239Y-3.3735
X5.6981Y-4.872
X6.0981Y-4.872
X4.5761Y-1.875
X4.9761Y-1.875
X4.5761Y-2.6243
X6.8239Y-2.6243
X7.2239Y-2.6243
X7.5731Y-3.3735
X7.9731Y-3.3735
X6.8239Y-1.875
X7.2239Y-1.875
X6.0746Y-1.875
X6.4746Y-1.875
X4.9761Y-2.6243
X6.8239Y-4.1228
X7.2239Y-4.1228
X7.5731Y-2.6243
X7.9731Y-2.6243
X5.3253Y-1.875
X5.7253Y-1.875
X7.5731Y-4.1228
X7.9731Y-4.1228
X5.3253Y-4.1228
X5.7253Y-4.1228
T2
X7.7783Y-4.597
T3
X4.7761Y-3.3735
X4.9643Y-4.872
X7.7731Y-1.875
X5.5253Y-2.6243
X6.2746Y-4.872
X5.5253Y-3.3735
X5.8981Y-4.872
X4.7761Y-4.1228
X7.0239Y-4.1228
X5.5253Y-4.1228
X7.7731Y-2.6243
X7.7731Y-4.1228
X6.2746Y-3.3735
X7.0239Y-2.6243
X6.2746Y-4.1228
X7.0239Y-3.3735
X7.7731Y-3.3735
X4.7761Y-2.6243
X6.2746Y-1.875
X4.7761Y-1.875
X7.0239Y-1.875
X5.5253Y-1.875
X6.2746Y-2.6243
X6.8356Y-4.872
X7.7783Y-5.197
T0
M30
