G04 #@! TF.GenerationSoftware,KiCad,Pcbnew,(5.1.4-0-10_14)*
G04 #@! TF.CreationDate,2019-10-10T20:47:06+02:00*
G04 #@! TF.ProjectId,tripel,74726970-656c-42e6-9b69-6361645f7063,rev?*
G04 #@! TF.SameCoordinates,Original*
G04 #@! TF.FileFunction,Legend,Bot*
G04 #@! TF.FilePolarity,Positive*
%FSLAX46Y46*%
G04 Gerber Fmt 4.6, Leading zero omitted, Abs format (unit mm)*
G04 Created by KiCad (PCBNEW (5.1.4-0-10_14)) date 2019-10-10 20:47:06*
%MOMM*%
%LPD*%
G04 APERTURE LIST*
%ADD10C,0.150000*%
%ADD11C,0.200000*%
%ADD12C,0.381000*%
%ADD13C,0.100000*%
G04 APERTURE END LIST*
D10*
X174876190Y-90711880D02*
X174876190Y-89711880D01*
X174542857Y-90426166D01*
X174209523Y-89711880D01*
X174209523Y-90711880D01*
X173733333Y-90711880D02*
X173733333Y-90045214D01*
X173733333Y-89711880D02*
X173780952Y-89759500D01*
X173733333Y-89807119D01*
X173685714Y-89759500D01*
X173733333Y-89711880D01*
X173733333Y-89807119D01*
X172828571Y-90711880D02*
X172828571Y-89711880D01*
X172828571Y-90664261D02*
X172923809Y-90711880D01*
X173114285Y-90711880D01*
X173209523Y-90664261D01*
X173257142Y-90616642D01*
X173304761Y-90521404D01*
X173304761Y-90235690D01*
X173257142Y-90140452D01*
X173209523Y-90092833D01*
X173114285Y-90045214D01*
X172923809Y-90045214D01*
X172828571Y-90092833D01*
X171923809Y-90711880D02*
X171923809Y-89711880D01*
X171923809Y-90664261D02*
X172019047Y-90711880D01*
X172209523Y-90711880D01*
X172304761Y-90664261D01*
X172352380Y-90616642D01*
X172400000Y-90521404D01*
X172400000Y-90235690D01*
X172352380Y-90140452D01*
X172304761Y-90092833D01*
X172209523Y-90045214D01*
X172019047Y-90045214D01*
X171923809Y-90092833D01*
X171304761Y-90711880D02*
X171400000Y-90664261D01*
X171447619Y-90569023D01*
X171447619Y-89711880D01*
X170542857Y-90664261D02*
X170638095Y-90711880D01*
X170828571Y-90711880D01*
X170923809Y-90664261D01*
X170971428Y-90569023D01*
X170971428Y-90188071D01*
X170923809Y-90092833D01*
X170828571Y-90045214D01*
X170638095Y-90045214D01*
X170542857Y-90092833D01*
X170495238Y-90188071D01*
X170495238Y-90283309D01*
X170971428Y-90378547D01*
X169304761Y-90711880D02*
X169304761Y-89711880D01*
X168923809Y-89711880D01*
X168828571Y-89759500D01*
X168780952Y-89807119D01*
X168733333Y-89902357D01*
X168733333Y-90045214D01*
X168780952Y-90140452D01*
X168828571Y-90188071D01*
X168923809Y-90235690D01*
X169304761Y-90235690D01*
X167733333Y-90616642D02*
X167780952Y-90664261D01*
X167923809Y-90711880D01*
X168019047Y-90711880D01*
X168161904Y-90664261D01*
X168257142Y-90569023D01*
X168304761Y-90473785D01*
X168352380Y-90283309D01*
X168352380Y-90140452D01*
X168304761Y-89949976D01*
X168257142Y-89854738D01*
X168161904Y-89759500D01*
X168019047Y-89711880D01*
X167923809Y-89711880D01*
X167780952Y-89759500D01*
X167733333Y-89807119D01*
X166971428Y-90188071D02*
X166828571Y-90235690D01*
X166780952Y-90283309D01*
X166733333Y-90378547D01*
X166733333Y-90521404D01*
X166780952Y-90616642D01*
X166828571Y-90664261D01*
X166923809Y-90711880D01*
X167304761Y-90711880D01*
X167304761Y-89711880D01*
X166971428Y-89711880D01*
X166876190Y-89759500D01*
X166828571Y-89807119D01*
X166780952Y-89902357D01*
X166780952Y-89997595D01*
X166828571Y-90092833D01*
X166876190Y-90140452D01*
X166971428Y-90188071D01*
X167304761Y-90188071D01*
X165400000Y-90711880D02*
X165495238Y-90664261D01*
X165542857Y-90616642D01*
X165590476Y-90521404D01*
X165590476Y-90235690D01*
X165542857Y-90140452D01*
X165495238Y-90092833D01*
X165400000Y-90045214D01*
X165257142Y-90045214D01*
X165161904Y-90092833D01*
X165114285Y-90140452D01*
X165066666Y-90235690D01*
X165066666Y-90521404D01*
X165114285Y-90616642D01*
X165161904Y-90664261D01*
X165257142Y-90711880D01*
X165400000Y-90711880D01*
X164638095Y-90045214D02*
X164638095Y-90711880D01*
X164638095Y-90140452D02*
X164590476Y-90092833D01*
X164495238Y-90045214D01*
X164352380Y-90045214D01*
X164257142Y-90092833D01*
X164209523Y-90188071D01*
X164209523Y-90711880D01*
X163590476Y-90711880D02*
X163685714Y-90664261D01*
X163733333Y-90569023D01*
X163733333Y-89711880D01*
X163304761Y-90045214D02*
X163066666Y-90711880D01*
X162828571Y-90045214D02*
X163066666Y-90711880D01*
X163161904Y-90949976D01*
X163209523Y-90997595D01*
X163304761Y-91045214D01*
X127635000Y-38100000D02*
X134112000Y-38100000D01*
X126897500Y-45777000D02*
X126897500Y-36377000D01*
X134697500Y-45777000D02*
X126897500Y-45777000D01*
X134697500Y-36377000D02*
X134697500Y-45777000D01*
X134697500Y-36377000D02*
X126897500Y-36377000D01*
D11*
X207331250Y-61315000D02*
G75*
G02X207081250Y-61565000I-250000J0D01*
G01*
X204481250Y-61565000D02*
G75*
G02X204231250Y-61315000I0J250000D01*
G01*
X204231250Y-61306000D02*
X204231250Y-53106000D01*
X207081250Y-61565000D02*
X204481250Y-61565000D01*
X207331250Y-61306000D02*
X207331250Y-53106000D01*
X207081250Y-52847000D02*
X204481250Y-52847000D01*
X207081250Y-52847000D02*
G75*
G02X207331250Y-53097000I0J-250000D01*
G01*
X204231250Y-53097000D02*
G75*
G02X204481250Y-52847000I250000J0D01*
G01*
X114707000Y-61259000D02*
G75*
G02X114457000Y-61509000I-250000J0D01*
G01*
X111857000Y-61509000D02*
G75*
G02X111607000Y-61259000I0J250000D01*
G01*
X111607000Y-61250000D02*
X111607000Y-53050000D01*
X114457000Y-61509000D02*
X111857000Y-61509000D01*
X114707000Y-61250000D02*
X114707000Y-53050000D01*
X114457000Y-52791000D02*
X111857000Y-52791000D01*
X114457000Y-52791000D02*
G75*
G02X114707000Y-53041000I0J-250000D01*
G01*
X111607000Y-53041000D02*
G75*
G02X111857000Y-52791000I250000J0D01*
G01*
D12*
X184153500Y-76703750D02*
X184153500Y-94483750D01*
X184153500Y-94483750D02*
X153673500Y-94483750D01*
X153673500Y-94483750D02*
X153673500Y-76703750D01*
X153673500Y-76703750D02*
X184153500Y-76703750D01*
X184153500Y-91943750D02*
X181613500Y-91943750D01*
X181613500Y-91943750D02*
X181613500Y-94483750D01*
D11*
X125177000Y-58700000D02*
G75*
G02X124927000Y-58450000I0J250000D01*
G01*
X124927000Y-55850000D02*
G75*
G02X125177000Y-55600000I250000J0D01*
G01*
X124927000Y-55850000D02*
X124927000Y-58450000D01*
X136183000Y-55600000D02*
X125183000Y-55600000D01*
X136439000Y-55850000D02*
X136439000Y-58450000D01*
X136183000Y-58700000D02*
X125183000Y-58700000D01*
X136439000Y-58450000D02*
G75*
G02X136189000Y-58700000I-250000J0D01*
G01*
X136189000Y-55600000D02*
G75*
G02X136439000Y-55850000I0J-250000D01*
G01*
D10*
X131230833Y-34629380D02*
X131230833Y-35343666D01*
X131278452Y-35486523D01*
X131373690Y-35581761D01*
X131516547Y-35629380D01*
X131611785Y-35629380D01*
X130326071Y-34629380D02*
X130516547Y-34629380D01*
X130611785Y-34677000D01*
X130659404Y-34724619D01*
X130754642Y-34867476D01*
X130802261Y-35057952D01*
X130802261Y-35438904D01*
X130754642Y-35534142D01*
X130707023Y-35581761D01*
X130611785Y-35629380D01*
X130421309Y-35629380D01*
X130326071Y-35581761D01*
X130278452Y-35534142D01*
X130230833Y-35438904D01*
X130230833Y-35200809D01*
X130278452Y-35105571D01*
X130326071Y-35057952D01*
X130421309Y-35010333D01*
X130611785Y-35010333D01*
X130707023Y-35057952D01*
X130754642Y-35105571D01*
X130802261Y-35200809D01*
X202634904Y-56939333D02*
X203206333Y-56939333D01*
X203320619Y-56901238D01*
X203396809Y-56825047D01*
X203434904Y-56710761D01*
X203434904Y-56634571D01*
X202634904Y-57701238D02*
X202634904Y-57320285D01*
X203015857Y-57282190D01*
X202977761Y-57320285D01*
X202939666Y-57396476D01*
X202939666Y-57586952D01*
X202977761Y-57663142D01*
X203015857Y-57701238D01*
X203092047Y-57739333D01*
X203282523Y-57739333D01*
X203358714Y-57701238D01*
X203396809Y-57663142D01*
X203434904Y-57586952D01*
X203434904Y-57396476D01*
X203396809Y-57320285D01*
X203358714Y-57282190D01*
X115385904Y-56883333D02*
X115957333Y-56883333D01*
X116071619Y-56845238D01*
X116147809Y-56769047D01*
X116185904Y-56654761D01*
X116185904Y-56578571D01*
X115385904Y-57188095D02*
X115385904Y-57683333D01*
X115690666Y-57416666D01*
X115690666Y-57530952D01*
X115728761Y-57607142D01*
X115766857Y-57645238D01*
X115843047Y-57683333D01*
X116033523Y-57683333D01*
X116109714Y-57645238D01*
X116147809Y-57607142D01*
X116185904Y-57530952D01*
X116185904Y-57302380D01*
X116147809Y-57226190D01*
X116109714Y-57188095D01*
X173750000Y-88749142D02*
X173797619Y-88796761D01*
X173940476Y-88844380D01*
X174035714Y-88844380D01*
X174178571Y-88796761D01*
X174273809Y-88701523D01*
X174321428Y-88606285D01*
X174369047Y-88415809D01*
X174369047Y-88272952D01*
X174321428Y-88082476D01*
X174273809Y-87987238D01*
X174178571Y-87892000D01*
X174035714Y-87844380D01*
X173940476Y-87844380D01*
X173797619Y-87892000D01*
X173750000Y-87939619D01*
X173321428Y-88844380D02*
X173321428Y-87844380D01*
X172892857Y-88844380D02*
X172892857Y-88320571D01*
X172940476Y-88225333D01*
X173035714Y-88177714D01*
X173178571Y-88177714D01*
X173273809Y-88225333D01*
X173321428Y-88272952D01*
X172416666Y-88844380D02*
X172416666Y-88177714D01*
X172416666Y-87844380D02*
X172464285Y-87892000D01*
X172416666Y-87939619D01*
X172369047Y-87892000D01*
X172416666Y-87844380D01*
X172416666Y-87939619D01*
X171940476Y-88177714D02*
X171940476Y-89177714D01*
X171940476Y-88225333D02*
X171845238Y-88177714D01*
X171654761Y-88177714D01*
X171559523Y-88225333D01*
X171511904Y-88272952D01*
X171464285Y-88368190D01*
X171464285Y-88653904D01*
X171511904Y-88749142D01*
X171559523Y-88796761D01*
X171654761Y-88844380D01*
X171845238Y-88844380D01*
X171940476Y-88796761D01*
X170321428Y-88796761D02*
X170226190Y-88844380D01*
X170035714Y-88844380D01*
X169940476Y-88796761D01*
X169892857Y-88701523D01*
X169892857Y-88653904D01*
X169940476Y-88558666D01*
X170035714Y-88511047D01*
X170178571Y-88511047D01*
X170273809Y-88463428D01*
X170321428Y-88368190D01*
X170321428Y-88320571D01*
X170273809Y-88225333D01*
X170178571Y-88177714D01*
X170035714Y-88177714D01*
X169940476Y-88225333D01*
X169464285Y-88844380D02*
X169464285Y-88177714D01*
X169464285Y-87844380D02*
X169511904Y-87892000D01*
X169464285Y-87939619D01*
X169416666Y-87892000D01*
X169464285Y-87844380D01*
X169464285Y-87939619D01*
X168559523Y-88844380D02*
X168559523Y-87844380D01*
X168559523Y-88796761D02*
X168654761Y-88844380D01*
X168845238Y-88844380D01*
X168940476Y-88796761D01*
X168988095Y-88749142D01*
X169035714Y-88653904D01*
X169035714Y-88368190D01*
X168988095Y-88272952D01*
X168940476Y-88225333D01*
X168845238Y-88177714D01*
X168654761Y-88177714D01*
X168559523Y-88225333D01*
X167702380Y-88796761D02*
X167797619Y-88844380D01*
X167988095Y-88844380D01*
X168083333Y-88796761D01*
X168130952Y-88701523D01*
X168130952Y-88320571D01*
X168083333Y-88225333D01*
X167988095Y-88177714D01*
X167797619Y-88177714D01*
X167702380Y-88225333D01*
X167654761Y-88320571D01*
X167654761Y-88415809D01*
X168130952Y-88511047D01*
X166035714Y-88844380D02*
X166035714Y-87844380D01*
X166035714Y-88796761D02*
X166130952Y-88844380D01*
X166321428Y-88844380D01*
X166416666Y-88796761D01*
X166464285Y-88749142D01*
X166511904Y-88653904D01*
X166511904Y-88368190D01*
X166464285Y-88272952D01*
X166416666Y-88225333D01*
X166321428Y-88177714D01*
X166130952Y-88177714D01*
X166035714Y-88225333D01*
X165416666Y-88844380D02*
X165511904Y-88796761D01*
X165559523Y-88749142D01*
X165607142Y-88653904D01*
X165607142Y-88368190D01*
X165559523Y-88272952D01*
X165511904Y-88225333D01*
X165416666Y-88177714D01*
X165273809Y-88177714D01*
X165178571Y-88225333D01*
X165130952Y-88272952D01*
X165083333Y-88368190D01*
X165083333Y-88653904D01*
X165130952Y-88749142D01*
X165178571Y-88796761D01*
X165273809Y-88844380D01*
X165416666Y-88844380D01*
X164750000Y-88177714D02*
X164559523Y-88844380D01*
X164369047Y-88368190D01*
X164178571Y-88844380D01*
X163988095Y-88177714D01*
X163607142Y-88177714D02*
X163607142Y-88844380D01*
X163607142Y-88272952D02*
X163559523Y-88225333D01*
X163464285Y-88177714D01*
X163321428Y-88177714D01*
X163226190Y-88225333D01*
X163178571Y-88320571D01*
X163178571Y-88844380D01*
D13*
X154993500Y-75971083D02*
X154960166Y-75871083D01*
X154926833Y-75837750D01*
X154860166Y-75804416D01*
X154760166Y-75804416D01*
X154693500Y-75837750D01*
X154660166Y-75871083D01*
X154626833Y-75937750D01*
X154626833Y-76204416D01*
X155326833Y-76204416D01*
X155326833Y-75971083D01*
X155293500Y-75904416D01*
X155260166Y-75871083D01*
X155193500Y-75837750D01*
X155126833Y-75837750D01*
X155060166Y-75871083D01*
X155026833Y-75904416D01*
X154993500Y-75971083D01*
X154993500Y-76204416D01*
X155326833Y-75171083D02*
X155326833Y-75504416D01*
X154993500Y-75537750D01*
X155026833Y-75504416D01*
X155060166Y-75437750D01*
X155060166Y-75271083D01*
X155026833Y-75204416D01*
X154993500Y-75171083D01*
X154926833Y-75137750D01*
X154760166Y-75137750D01*
X154693500Y-75171083D01*
X154660166Y-75204416D01*
X154626833Y-75271083D01*
X154626833Y-75437750D01*
X154660166Y-75504416D01*
X154693500Y-75537750D01*
X157533500Y-75971083D02*
X157500166Y-75871083D01*
X157466833Y-75837750D01*
X157400166Y-75804416D01*
X157300166Y-75804416D01*
X157233500Y-75837750D01*
X157200166Y-75871083D01*
X157166833Y-75937750D01*
X157166833Y-76204416D01*
X157866833Y-76204416D01*
X157866833Y-75971083D01*
X157833500Y-75904416D01*
X157800166Y-75871083D01*
X157733500Y-75837750D01*
X157666833Y-75837750D01*
X157600166Y-75871083D01*
X157566833Y-75904416D01*
X157533500Y-75971083D01*
X157533500Y-76204416D01*
X157633500Y-75204416D02*
X157166833Y-75204416D01*
X157900166Y-75371083D02*
X157400166Y-75537750D01*
X157400166Y-75104416D01*
X160073500Y-76171083D02*
X160073500Y-75937750D01*
X159706833Y-75837750D02*
X159706833Y-76171083D01*
X160406833Y-76171083D01*
X160406833Y-75837750D01*
X160406833Y-75237750D02*
X160406833Y-75371083D01*
X160373500Y-75437750D01*
X160340166Y-75471083D01*
X160240166Y-75537750D01*
X160106833Y-75571083D01*
X159840166Y-75571083D01*
X159773500Y-75537750D01*
X159740166Y-75504416D01*
X159706833Y-75437750D01*
X159706833Y-75304416D01*
X159740166Y-75237750D01*
X159773500Y-75204416D01*
X159840166Y-75171083D01*
X160006833Y-75171083D01*
X160073500Y-75204416D01*
X160106833Y-75237750D01*
X160140166Y-75304416D01*
X160140166Y-75437750D01*
X160106833Y-75504416D01*
X160073500Y-75537750D01*
X160006833Y-75571083D01*
X162246833Y-76204416D02*
X162946833Y-76204416D01*
X162946833Y-76037750D01*
X162913500Y-75937750D01*
X162846833Y-75871083D01*
X162780166Y-75837750D01*
X162646833Y-75804416D01*
X162546833Y-75804416D01*
X162413500Y-75837750D01*
X162346833Y-75871083D01*
X162280166Y-75937750D01*
X162246833Y-76037750D01*
X162246833Y-76204416D01*
X162946833Y-75571083D02*
X162946833Y-75104416D01*
X162246833Y-75404416D01*
X164853500Y-75804416D02*
X164820166Y-75837750D01*
X164786833Y-75937750D01*
X164786833Y-76004416D01*
X164820166Y-76104416D01*
X164886833Y-76171083D01*
X164953500Y-76204416D01*
X165086833Y-76237750D01*
X165186833Y-76237750D01*
X165320166Y-76204416D01*
X165386833Y-76171083D01*
X165453500Y-76104416D01*
X165486833Y-76004416D01*
X165486833Y-75937750D01*
X165453500Y-75837750D01*
X165420166Y-75804416D01*
X165486833Y-75204416D02*
X165486833Y-75337750D01*
X165453500Y-75404416D01*
X165420166Y-75437750D01*
X165320166Y-75504416D01*
X165186833Y-75537750D01*
X164920166Y-75537750D01*
X164853500Y-75504416D01*
X164820166Y-75471083D01*
X164786833Y-75404416D01*
X164786833Y-75271083D01*
X164820166Y-75204416D01*
X164853500Y-75171083D01*
X164920166Y-75137750D01*
X165086833Y-75137750D01*
X165153500Y-75171083D01*
X165186833Y-75204416D01*
X165220166Y-75271083D01*
X165220166Y-75404416D01*
X165186833Y-75471083D01*
X165153500Y-75504416D01*
X165086833Y-75537750D01*
X167326833Y-76204416D02*
X168026833Y-76204416D01*
X168026833Y-76037750D01*
X167993500Y-75937750D01*
X167926833Y-75871083D01*
X167860166Y-75837750D01*
X167726833Y-75804416D01*
X167626833Y-75804416D01*
X167493500Y-75837750D01*
X167426833Y-75871083D01*
X167360166Y-75937750D01*
X167326833Y-76037750D01*
X167326833Y-76204416D01*
X167793500Y-75204416D02*
X167326833Y-75204416D01*
X168060166Y-75371083D02*
X167560166Y-75537750D01*
X167560166Y-75104416D01*
X169866833Y-76204416D02*
X170566833Y-76204416D01*
X170566833Y-76037750D01*
X170533500Y-75937750D01*
X170466833Y-75871083D01*
X170400166Y-75837750D01*
X170266833Y-75804416D01*
X170166833Y-75804416D01*
X170033500Y-75837750D01*
X169966833Y-75871083D01*
X169900166Y-75937750D01*
X169866833Y-76037750D01*
X169866833Y-76204416D01*
X170566833Y-75371083D02*
X170566833Y-75304416D01*
X170533500Y-75237750D01*
X170500166Y-75204416D01*
X170433500Y-75171083D01*
X170300166Y-75137750D01*
X170133500Y-75137750D01*
X170000166Y-75171083D01*
X169933500Y-75204416D01*
X169900166Y-75237750D01*
X169866833Y-75304416D01*
X169866833Y-75371083D01*
X169900166Y-75437750D01*
X169933500Y-75471083D01*
X170000166Y-75504416D01*
X170133500Y-75537750D01*
X170300166Y-75537750D01*
X170433500Y-75504416D01*
X170500166Y-75471083D01*
X170533500Y-75437750D01*
X170566833Y-75371083D01*
X172406833Y-76204416D02*
X173106833Y-76204416D01*
X173106833Y-76037750D01*
X173073500Y-75937750D01*
X173006833Y-75871083D01*
X172940166Y-75837750D01*
X172806833Y-75804416D01*
X172706833Y-75804416D01*
X172573500Y-75837750D01*
X172506833Y-75871083D01*
X172440166Y-75937750D01*
X172406833Y-76037750D01*
X172406833Y-76204416D01*
X172406833Y-75137750D02*
X172406833Y-75537750D01*
X172406833Y-75337750D02*
X173106833Y-75337750D01*
X173006833Y-75404416D01*
X172940166Y-75471083D01*
X172906833Y-75537750D01*
X175613500Y-75967083D02*
X175646833Y-76033750D01*
X175646833Y-76133750D01*
X175613500Y-76233750D01*
X175546833Y-76300416D01*
X175480166Y-76333750D01*
X175346833Y-76367083D01*
X175246833Y-76367083D01*
X175113500Y-76333750D01*
X175046833Y-76300416D01*
X174980166Y-76233750D01*
X174946833Y-76133750D01*
X174946833Y-76067083D01*
X174980166Y-75967083D01*
X175013500Y-75933750D01*
X175246833Y-75933750D01*
X175246833Y-76067083D01*
X174946833Y-75633750D02*
X175646833Y-75633750D01*
X174946833Y-75233750D01*
X175646833Y-75233750D01*
X174946833Y-74900416D02*
X175646833Y-74900416D01*
X175646833Y-74733750D01*
X175613500Y-74633750D01*
X175546833Y-74567083D01*
X175480166Y-74533750D01*
X175346833Y-74500416D01*
X175246833Y-74500416D01*
X175113500Y-74533750D01*
X175046833Y-74567083D01*
X174980166Y-74633750D01*
X174946833Y-74733750D01*
X174946833Y-74900416D01*
X178153500Y-75967083D02*
X178186833Y-76033750D01*
X178186833Y-76133750D01*
X178153500Y-76233750D01*
X178086833Y-76300416D01*
X178020166Y-76333750D01*
X177886833Y-76367083D01*
X177786833Y-76367083D01*
X177653500Y-76333750D01*
X177586833Y-76300416D01*
X177520166Y-76233750D01*
X177486833Y-76133750D01*
X177486833Y-76067083D01*
X177520166Y-75967083D01*
X177553500Y-75933750D01*
X177786833Y-75933750D01*
X177786833Y-76067083D01*
X177486833Y-75633750D02*
X178186833Y-75633750D01*
X177486833Y-75233750D01*
X178186833Y-75233750D01*
X177486833Y-74900416D02*
X178186833Y-74900416D01*
X178186833Y-74733750D01*
X178153500Y-74633750D01*
X178086833Y-74567083D01*
X178020166Y-74533750D01*
X177886833Y-74500416D01*
X177786833Y-74500416D01*
X177653500Y-74533750D01*
X177586833Y-74567083D01*
X177520166Y-74633750D01*
X177486833Y-74733750D01*
X177486833Y-74900416D01*
X180026833Y-76204416D02*
X180726833Y-76204416D01*
X180726833Y-76037750D01*
X180693500Y-75937750D01*
X180626833Y-75871083D01*
X180560166Y-75837750D01*
X180426833Y-75804416D01*
X180326833Y-75804416D01*
X180193500Y-75837750D01*
X180126833Y-75871083D01*
X180060166Y-75937750D01*
X180026833Y-76037750D01*
X180026833Y-76204416D01*
X180660166Y-75537750D02*
X180693500Y-75504416D01*
X180726833Y-75437750D01*
X180726833Y-75271083D01*
X180693500Y-75204416D01*
X180660166Y-75171083D01*
X180593500Y-75137750D01*
X180526833Y-75137750D01*
X180426833Y-75171083D01*
X180026833Y-75571083D01*
X180026833Y-75137750D01*
X182566833Y-76204416D02*
X183266833Y-76204416D01*
X183266833Y-76037750D01*
X183233500Y-75937750D01*
X183166833Y-75871083D01*
X183100166Y-75837750D01*
X182966833Y-75804416D01*
X182866833Y-75804416D01*
X182733500Y-75837750D01*
X182666833Y-75871083D01*
X182600166Y-75937750D01*
X182566833Y-76037750D01*
X182566833Y-76204416D01*
X183266833Y-75571083D02*
X183266833Y-75137750D01*
X183000166Y-75371083D01*
X183000166Y-75271083D01*
X182966833Y-75204416D01*
X182933500Y-75171083D01*
X182866833Y-75137750D01*
X182700166Y-75137750D01*
X182633500Y-75171083D01*
X182600166Y-75204416D01*
X182566833Y-75271083D01*
X182566833Y-75471083D01*
X182600166Y-75537750D01*
X182633500Y-75571083D01*
X154993500Y-95783083D02*
X154960166Y-95683083D01*
X154926833Y-95649750D01*
X154860166Y-95616416D01*
X154760166Y-95616416D01*
X154693500Y-95649750D01*
X154660166Y-95683083D01*
X154626833Y-95749750D01*
X154626833Y-96016416D01*
X155326833Y-96016416D01*
X155326833Y-95783083D01*
X155293500Y-95716416D01*
X155260166Y-95683083D01*
X155193500Y-95649750D01*
X155126833Y-95649750D01*
X155060166Y-95683083D01*
X155026833Y-95716416D01*
X154993500Y-95783083D01*
X154993500Y-96016416D01*
X155326833Y-95016416D02*
X155326833Y-95149750D01*
X155293500Y-95216416D01*
X155260166Y-95249750D01*
X155160166Y-95316416D01*
X155026833Y-95349750D01*
X154760166Y-95349750D01*
X154693500Y-95316416D01*
X154660166Y-95283083D01*
X154626833Y-95216416D01*
X154626833Y-95083083D01*
X154660166Y-95016416D01*
X154693500Y-94983083D01*
X154760166Y-94949750D01*
X154926833Y-94949750D01*
X154993500Y-94983083D01*
X155026833Y-95016416D01*
X155060166Y-95083083D01*
X155060166Y-95216416D01*
X155026833Y-95283083D01*
X154993500Y-95316416D01*
X154926833Y-95349750D01*
X157533500Y-95783083D02*
X157500166Y-95683083D01*
X157466833Y-95649750D01*
X157400166Y-95616416D01*
X157300166Y-95616416D01*
X157233500Y-95649750D01*
X157200166Y-95683083D01*
X157166833Y-95749750D01*
X157166833Y-96016416D01*
X157866833Y-96016416D01*
X157866833Y-95783083D01*
X157833500Y-95716416D01*
X157800166Y-95683083D01*
X157733500Y-95649750D01*
X157666833Y-95649750D01*
X157600166Y-95683083D01*
X157566833Y-95716416D01*
X157533500Y-95783083D01*
X157533500Y-96016416D01*
X157800166Y-95349750D02*
X157833500Y-95316416D01*
X157866833Y-95249750D01*
X157866833Y-95083083D01*
X157833500Y-95016416D01*
X157800166Y-94983083D01*
X157733500Y-94949750D01*
X157666833Y-94949750D01*
X157566833Y-94983083D01*
X157166833Y-95383083D01*
X157166833Y-94949750D01*
X160073500Y-95783083D02*
X160040166Y-95683083D01*
X160006833Y-95649750D01*
X159940166Y-95616416D01*
X159840166Y-95616416D01*
X159773500Y-95649750D01*
X159740166Y-95683083D01*
X159706833Y-95749750D01*
X159706833Y-96016416D01*
X160406833Y-96016416D01*
X160406833Y-95783083D01*
X160373500Y-95716416D01*
X160340166Y-95683083D01*
X160273500Y-95649750D01*
X160206833Y-95649750D01*
X160140166Y-95683083D01*
X160106833Y-95716416D01*
X160073500Y-95783083D01*
X160073500Y-96016416D01*
X160406833Y-95383083D02*
X160406833Y-94949750D01*
X160140166Y-95183083D01*
X160140166Y-95083083D01*
X160106833Y-95016416D01*
X160073500Y-94983083D01*
X160006833Y-94949750D01*
X159840166Y-94949750D01*
X159773500Y-94983083D01*
X159740166Y-95016416D01*
X159706833Y-95083083D01*
X159706833Y-95283083D01*
X159740166Y-95349750D01*
X159773500Y-95383083D01*
X162613500Y-95783083D02*
X162580166Y-95683083D01*
X162546833Y-95649750D01*
X162480166Y-95616416D01*
X162380166Y-95616416D01*
X162313500Y-95649750D01*
X162280166Y-95683083D01*
X162246833Y-95749750D01*
X162246833Y-96016416D01*
X162946833Y-96016416D01*
X162946833Y-95783083D01*
X162913500Y-95716416D01*
X162880166Y-95683083D01*
X162813500Y-95649750D01*
X162746833Y-95649750D01*
X162680166Y-95683083D01*
X162646833Y-95716416D01*
X162613500Y-95783083D01*
X162613500Y-96016416D01*
X162246833Y-94949750D02*
X162246833Y-95349750D01*
X162246833Y-95149750D02*
X162946833Y-95149750D01*
X162846833Y-95216416D01*
X162780166Y-95283083D01*
X162746833Y-95349750D01*
X167693500Y-95733083D02*
X167693500Y-95966416D01*
X167326833Y-95966416D02*
X168026833Y-95966416D01*
X168026833Y-95633083D01*
X168026833Y-95066416D02*
X168026833Y-95199750D01*
X167993500Y-95266416D01*
X167960166Y-95299750D01*
X167860166Y-95366416D01*
X167726833Y-95399750D01*
X167460166Y-95399750D01*
X167393500Y-95366416D01*
X167360166Y-95333083D01*
X167326833Y-95266416D01*
X167326833Y-95133083D01*
X167360166Y-95066416D01*
X167393500Y-95033083D01*
X167460166Y-94999750D01*
X167626833Y-94999750D01*
X167693500Y-95033083D01*
X167726833Y-95066416D01*
X167760166Y-95133083D01*
X167760166Y-95266416D01*
X167726833Y-95333083D01*
X167693500Y-95366416D01*
X167626833Y-95399750D01*
X165153500Y-95733083D02*
X165153500Y-95966416D01*
X164786833Y-95966416D02*
X165486833Y-95966416D01*
X165486833Y-95633083D01*
X165486833Y-95433083D02*
X165486833Y-94966416D01*
X164786833Y-95266416D01*
X170233500Y-95733083D02*
X170233500Y-95966416D01*
X169866833Y-95966416D02*
X170566833Y-95966416D01*
X170566833Y-95633083D01*
X170566833Y-95033083D02*
X170566833Y-95366416D01*
X170233500Y-95399750D01*
X170266833Y-95366416D01*
X170300166Y-95299750D01*
X170300166Y-95133083D01*
X170266833Y-95066416D01*
X170233500Y-95033083D01*
X170166833Y-94999750D01*
X170000166Y-94999750D01*
X169933500Y-95033083D01*
X169900166Y-95066416D01*
X169866833Y-95133083D01*
X169866833Y-95299750D01*
X169900166Y-95366416D01*
X169933500Y-95399750D01*
X172773500Y-95733083D02*
X172773500Y-95966416D01*
X172406833Y-95966416D02*
X173106833Y-95966416D01*
X173106833Y-95633083D01*
X172873500Y-95066416D02*
X172406833Y-95066416D01*
X173140166Y-95233083D02*
X172640166Y-95399750D01*
X172640166Y-94966416D01*
X175646833Y-96687083D02*
X174946833Y-96453750D01*
X175646833Y-96220416D01*
X175013500Y-95587083D02*
X174980166Y-95620416D01*
X174946833Y-95720416D01*
X174946833Y-95787083D01*
X174980166Y-95887083D01*
X175046833Y-95953750D01*
X175113500Y-95987083D01*
X175246833Y-96020416D01*
X175346833Y-96020416D01*
X175480166Y-95987083D01*
X175546833Y-95953750D01*
X175613500Y-95887083D01*
X175646833Y-95787083D01*
X175646833Y-95720416D01*
X175613500Y-95620416D01*
X175580166Y-95587083D01*
X175013500Y-94887083D02*
X174980166Y-94920416D01*
X174946833Y-95020416D01*
X174946833Y-95087083D01*
X174980166Y-95187083D01*
X175046833Y-95253750D01*
X175113500Y-95287083D01*
X175246833Y-95320416D01*
X175346833Y-95320416D01*
X175480166Y-95287083D01*
X175546833Y-95253750D01*
X175613500Y-95187083D01*
X175646833Y-95087083D01*
X175646833Y-95020416D01*
X175613500Y-94920416D01*
X175580166Y-94887083D01*
X177486833Y-96137083D02*
X177820166Y-96370416D01*
X177486833Y-96537083D02*
X178186833Y-96537083D01*
X178186833Y-96270416D01*
X178153500Y-96203750D01*
X178120166Y-96170416D01*
X178053500Y-96137083D01*
X177953500Y-96137083D01*
X177886833Y-96170416D01*
X177853500Y-96203750D01*
X177820166Y-96270416D01*
X177820166Y-96537083D01*
X177520166Y-95870416D02*
X177486833Y-95770416D01*
X177486833Y-95603750D01*
X177520166Y-95537083D01*
X177553500Y-95503750D01*
X177620166Y-95470416D01*
X177686833Y-95470416D01*
X177753500Y-95503750D01*
X177786833Y-95537083D01*
X177820166Y-95603750D01*
X177853500Y-95737083D01*
X177886833Y-95803750D01*
X177920166Y-95837083D01*
X177986833Y-95870416D01*
X178053500Y-95870416D01*
X178120166Y-95837083D01*
X178153500Y-95803750D01*
X178186833Y-95737083D01*
X178186833Y-95570416D01*
X178153500Y-95470416D01*
X178186833Y-95270416D02*
X178186833Y-94870416D01*
X177486833Y-95070416D02*
X178186833Y-95070416D01*
X180693500Y-96287083D02*
X180726833Y-96353750D01*
X180726833Y-96453750D01*
X180693500Y-96553750D01*
X180626833Y-96620416D01*
X180560166Y-96653750D01*
X180426833Y-96687083D01*
X180326833Y-96687083D01*
X180193500Y-96653750D01*
X180126833Y-96620416D01*
X180060166Y-96553750D01*
X180026833Y-96453750D01*
X180026833Y-96387083D01*
X180060166Y-96287083D01*
X180093500Y-96253750D01*
X180326833Y-96253750D01*
X180326833Y-96387083D01*
X180026833Y-95953750D02*
X180726833Y-95953750D01*
X180026833Y-95553750D01*
X180726833Y-95553750D01*
X180026833Y-95220416D02*
X180726833Y-95220416D01*
X180726833Y-95053750D01*
X180693500Y-94953750D01*
X180626833Y-94887083D01*
X180560166Y-94853750D01*
X180426833Y-94820416D01*
X180326833Y-94820416D01*
X180193500Y-94853750D01*
X180126833Y-94887083D01*
X180060166Y-94953750D01*
X180026833Y-95053750D01*
X180026833Y-95220416D01*
X182312833Y-96237083D02*
X182646166Y-96470416D01*
X182312833Y-96637083D02*
X183012833Y-96637083D01*
X183012833Y-96370416D01*
X182979500Y-96303750D01*
X182946166Y-96270416D01*
X182879500Y-96237083D01*
X182779500Y-96237083D01*
X182712833Y-96270416D01*
X182679500Y-96303750D01*
X182646166Y-96370416D01*
X182646166Y-96637083D01*
X182512833Y-95970416D02*
X182512833Y-95637083D01*
X182312833Y-96037083D02*
X183012833Y-95803750D01*
X182312833Y-95570416D01*
X183012833Y-95403750D02*
X182312833Y-95237083D01*
X182812833Y-95103750D01*
X182312833Y-94970416D01*
X183012833Y-94803750D01*
D10*
X130949666Y-59378904D02*
X130949666Y-59950333D01*
X130987761Y-60064619D01*
X131063952Y-60140809D01*
X131178238Y-60178904D01*
X131254428Y-60178904D01*
X130644904Y-59378904D02*
X130111571Y-59378904D01*
X130454428Y-60178904D01*
X125939000Y-52959095D02*
X125891380Y-52863857D01*
X125891380Y-52721000D01*
X125939000Y-52578142D01*
X126034238Y-52482904D01*
X126129476Y-52435285D01*
X126319952Y-52387666D01*
X126462809Y-52387666D01*
X126653285Y-52435285D01*
X126748523Y-52482904D01*
X126843761Y-52578142D01*
X126891380Y-52721000D01*
X126891380Y-52816238D01*
X126843761Y-52959095D01*
X126796142Y-53006714D01*
X126462809Y-53006714D01*
X126462809Y-52816238D01*
X126891380Y-53435285D02*
X125891380Y-53435285D01*
X126891380Y-54006714D01*
X125891380Y-54006714D01*
X126891380Y-54482904D02*
X125891380Y-54482904D01*
X125891380Y-54721000D01*
X125939000Y-54863857D01*
X126034238Y-54959095D01*
X126129476Y-55006714D01*
X126319952Y-55054333D01*
X126462809Y-55054333D01*
X126653285Y-55006714D01*
X126748523Y-54959095D01*
X126843761Y-54863857D01*
X126891380Y-54721000D01*
X126891380Y-54482904D01*
X129891380Y-53221047D02*
X128891380Y-53221047D01*
X128891380Y-53459142D01*
X128939000Y-53602000D01*
X129034238Y-53697238D01*
X129129476Y-53744857D01*
X129319952Y-53792476D01*
X129462809Y-53792476D01*
X129653285Y-53744857D01*
X129748523Y-53697238D01*
X129843761Y-53602000D01*
X129891380Y-53459142D01*
X129891380Y-53221047D01*
X129510428Y-54221047D02*
X129510428Y-54982952D01*
X129891380Y-54602000D02*
X129129476Y-54602000D01*
X132641380Y-53221047D02*
X131641380Y-53221047D01*
X131641380Y-53459142D01*
X131689000Y-53602000D01*
X131784238Y-53697238D01*
X131879476Y-53744857D01*
X132069952Y-53792476D01*
X132212809Y-53792476D01*
X132403285Y-53744857D01*
X132498523Y-53697238D01*
X132593761Y-53602000D01*
X132641380Y-53459142D01*
X132641380Y-53221047D01*
X132260428Y-54221047D02*
X132260428Y-54982952D01*
X134391380Y-52387666D02*
X135391380Y-52721000D01*
X134391380Y-53054333D01*
X135296142Y-53959095D02*
X135343761Y-53911476D01*
X135391380Y-53768619D01*
X135391380Y-53673380D01*
X135343761Y-53530523D01*
X135248523Y-53435285D01*
X135153285Y-53387666D01*
X134962809Y-53340047D01*
X134819952Y-53340047D01*
X134629476Y-53387666D01*
X134534238Y-53435285D01*
X134439000Y-53530523D01*
X134391380Y-53673380D01*
X134391380Y-53768619D01*
X134439000Y-53911476D01*
X134486619Y-53959095D01*
X135296142Y-54959095D02*
X135343761Y-54911476D01*
X135391380Y-54768619D01*
X135391380Y-54673380D01*
X135343761Y-54530523D01*
X135248523Y-54435285D01*
X135153285Y-54387666D01*
X134962809Y-54340047D01*
X134819952Y-54340047D01*
X134629476Y-54387666D01*
X134534238Y-54435285D01*
X134439000Y-54530523D01*
X134391380Y-54673380D01*
X134391380Y-54768619D01*
X134439000Y-54911476D01*
X134486619Y-54959095D01*
M02*
