G04 #@! TF.GenerationSoftware,KiCad,Pcbnew,(5.1.4-0-10_14)*
G04 #@! TF.CreationDate,2019-09-15T21:27:31+02:00*
G04 #@! TF.ProjectId,tripel,74726970-656c-42e6-9b69-6361645f7063,rev?*
G04 #@! TF.SameCoordinates,Original*
G04 #@! TF.FileFunction,Legend,Top*
G04 #@! TF.FilePolarity,Positive*
%FSLAX46Y46*%
G04 Gerber Fmt 4.6, Leading zero omitted, Abs format (unit mm)*
G04 Created by KiCad (PCBNEW (5.1.4-0-10_14)) date 2019-09-15 21:27:31*
%MOMM*%
%LPD*%
G04 APERTURE LIST*
%ADD10C,0.150000*%
%ADD11C,0.450000*%
%ADD12C,0.381000*%
%ADD13C,0.200000*%
%ADD14C,0.203200*%
G04 APERTURE END LIST*
D10*
X127254000Y-38100000D02*
X134493000Y-38100000D01*
X185762142Y-126706380D02*
X185571666Y-126706380D01*
X185476428Y-126754000D01*
X185428809Y-126801619D01*
X185333571Y-126944476D01*
X185285952Y-127134952D01*
X185285952Y-127515904D01*
X185333571Y-127611142D01*
X185381190Y-127658761D01*
X185476428Y-127706380D01*
X185666904Y-127706380D01*
X185762142Y-127658761D01*
X185809761Y-127611142D01*
X185857380Y-127515904D01*
X185857380Y-127277809D01*
X185809761Y-127182571D01*
X185762142Y-127134952D01*
X185666904Y-127087333D01*
X185476428Y-127087333D01*
X185381190Y-127134952D01*
X185333571Y-127182571D01*
X185285952Y-127277809D01*
X186476428Y-126706380D02*
X186571666Y-126706380D01*
X186666904Y-126754000D01*
X186714523Y-126801619D01*
X186762142Y-126896857D01*
X186809761Y-127087333D01*
X186809761Y-127325428D01*
X186762142Y-127515904D01*
X186714523Y-127611142D01*
X186666904Y-127658761D01*
X186571666Y-127706380D01*
X186476428Y-127706380D01*
X186381190Y-127658761D01*
X186333571Y-127611142D01*
X186285952Y-127515904D01*
X186238333Y-127325428D01*
X186238333Y-127087333D01*
X186285952Y-126896857D01*
X186333571Y-126801619D01*
X186381190Y-126754000D01*
X186476428Y-126706380D01*
X187190714Y-127706380D02*
X187952619Y-126706380D01*
X187333571Y-126706380D02*
X187428809Y-126754000D01*
X187476428Y-126849238D01*
X187428809Y-126944476D01*
X187333571Y-126992095D01*
X187238333Y-126944476D01*
X187190714Y-126849238D01*
X187238333Y-126754000D01*
X187333571Y-126706380D01*
X187905000Y-127658761D02*
X187952619Y-127563523D01*
X187905000Y-127468285D01*
X187809761Y-127420666D01*
X187714523Y-127468285D01*
X187666904Y-127563523D01*
X187714523Y-127658761D01*
X187809761Y-127706380D01*
X187905000Y-127658761D01*
X189285952Y-127706380D02*
X189190714Y-127658761D01*
X189143095Y-127611142D01*
X189095476Y-127515904D01*
X189095476Y-127230190D01*
X189143095Y-127134952D01*
X189190714Y-127087333D01*
X189285952Y-127039714D01*
X189428809Y-127039714D01*
X189524047Y-127087333D01*
X189571666Y-127134952D01*
X189619285Y-127230190D01*
X189619285Y-127515904D01*
X189571666Y-127611142D01*
X189524047Y-127658761D01*
X189428809Y-127706380D01*
X189285952Y-127706380D01*
X190047857Y-127706380D02*
X190047857Y-127039714D01*
X190047857Y-127230190D02*
X190095476Y-127134952D01*
X190143095Y-127087333D01*
X190238333Y-127039714D01*
X190333571Y-127039714D01*
X190524047Y-127039714D02*
X190905000Y-127039714D01*
X190666904Y-126706380D02*
X190666904Y-127563523D01*
X190714523Y-127658761D01*
X190809761Y-127706380D01*
X190905000Y-127706380D01*
X191238333Y-127706380D02*
X191238333Y-126706380D01*
X191666904Y-127706380D02*
X191666904Y-127182571D01*
X191619285Y-127087333D01*
X191524047Y-127039714D01*
X191381190Y-127039714D01*
X191285952Y-127087333D01*
X191238333Y-127134952D01*
X192285952Y-127706380D02*
X192190714Y-127658761D01*
X192143095Y-127611142D01*
X192095476Y-127515904D01*
X192095476Y-127230190D01*
X192143095Y-127134952D01*
X192190714Y-127087333D01*
X192285952Y-127039714D01*
X192428809Y-127039714D01*
X192524047Y-127087333D01*
X192571666Y-127134952D01*
X192619285Y-127230190D01*
X192619285Y-127515904D01*
X192571666Y-127611142D01*
X192524047Y-127658761D01*
X192428809Y-127706380D01*
X192285952Y-127706380D01*
X193190714Y-127706380D02*
X193095476Y-127658761D01*
X193047857Y-127563523D01*
X193047857Y-126706380D01*
X193571666Y-127706380D02*
X193571666Y-127039714D01*
X193571666Y-126706380D02*
X193524047Y-126754000D01*
X193571666Y-126801619D01*
X193619285Y-126754000D01*
X193571666Y-126706380D01*
X193571666Y-126801619D01*
X194047857Y-127039714D02*
X194047857Y-127706380D01*
X194047857Y-127134952D02*
X194095476Y-127087333D01*
X194190714Y-127039714D01*
X194333571Y-127039714D01*
X194428809Y-127087333D01*
X194476428Y-127182571D01*
X194476428Y-127706380D01*
X195333571Y-127658761D02*
X195238333Y-127706380D01*
X195047857Y-127706380D01*
X194952619Y-127658761D01*
X194905000Y-127563523D01*
X194905000Y-127182571D01*
X194952619Y-127087333D01*
X195047857Y-127039714D01*
X195238333Y-127039714D01*
X195333571Y-127087333D01*
X195381190Y-127182571D01*
X195381190Y-127277809D01*
X194905000Y-127373047D01*
X196238333Y-127706380D02*
X196238333Y-127182571D01*
X196190714Y-127087333D01*
X196095476Y-127039714D01*
X195905000Y-127039714D01*
X195809761Y-127087333D01*
X196238333Y-127658761D02*
X196143095Y-127706380D01*
X195905000Y-127706380D01*
X195809761Y-127658761D01*
X195762142Y-127563523D01*
X195762142Y-127468285D01*
X195809761Y-127373047D01*
X195905000Y-127325428D01*
X196143095Y-127325428D01*
X196238333Y-127277809D01*
X196714523Y-127706380D02*
X196714523Y-127039714D01*
X196714523Y-127230190D02*
X196762142Y-127134952D01*
X196809761Y-127087333D01*
X196905000Y-127039714D01*
X197000238Y-127039714D01*
X198000238Y-126706380D02*
X198666904Y-126706380D01*
X198238333Y-127706380D01*
X199476428Y-127039714D02*
X199476428Y-127706380D01*
X199047857Y-127039714D02*
X199047857Y-127563523D01*
X199095476Y-127658761D01*
X199190714Y-127706380D01*
X199333571Y-127706380D01*
X199428809Y-127658761D01*
X199476428Y-127611142D01*
X177356571Y-115895380D02*
X177023238Y-115419190D01*
X176785142Y-115895380D02*
X176785142Y-114895380D01*
X177166095Y-114895380D01*
X177261333Y-114943000D01*
X177308952Y-114990619D01*
X177356571Y-115085857D01*
X177356571Y-115228714D01*
X177308952Y-115323952D01*
X177261333Y-115371571D01*
X177166095Y-115419190D01*
X176785142Y-115419190D01*
X177785142Y-115895380D02*
X177785142Y-115228714D01*
X177785142Y-114895380D02*
X177737523Y-114943000D01*
X177785142Y-114990619D01*
X177832761Y-114943000D01*
X177785142Y-114895380D01*
X177785142Y-114990619D01*
X178689904Y-115228714D02*
X178689904Y-116038238D01*
X178642285Y-116133476D01*
X178594666Y-116181095D01*
X178499428Y-116228714D01*
X178356571Y-116228714D01*
X178261333Y-116181095D01*
X178689904Y-115847761D02*
X178594666Y-115895380D01*
X178404190Y-115895380D01*
X178308952Y-115847761D01*
X178261333Y-115800142D01*
X178213714Y-115704904D01*
X178213714Y-115419190D01*
X178261333Y-115323952D01*
X178308952Y-115276333D01*
X178404190Y-115228714D01*
X178594666Y-115228714D01*
X178689904Y-115276333D01*
X179166095Y-115895380D02*
X179166095Y-114895380D01*
X179594666Y-115895380D02*
X179594666Y-115371571D01*
X179547047Y-115276333D01*
X179451809Y-115228714D01*
X179308952Y-115228714D01*
X179213714Y-115276333D01*
X179166095Y-115323952D01*
X179928000Y-115228714D02*
X180308952Y-115228714D01*
X180070857Y-114895380D02*
X180070857Y-115752523D01*
X180118476Y-115847761D01*
X180213714Y-115895380D01*
X180308952Y-115895380D01*
X181404190Y-115895380D02*
X181404190Y-114895380D01*
X181785142Y-114895380D01*
X181880380Y-114943000D01*
X181928000Y-114990619D01*
X181975619Y-115085857D01*
X181975619Y-115228714D01*
X181928000Y-115323952D01*
X181880380Y-115371571D01*
X181785142Y-115419190D01*
X181404190Y-115419190D01*
X182975619Y-115800142D02*
X182928000Y-115847761D01*
X182785142Y-115895380D01*
X182689904Y-115895380D01*
X182547047Y-115847761D01*
X182451809Y-115752523D01*
X182404190Y-115657285D01*
X182356571Y-115466809D01*
X182356571Y-115323952D01*
X182404190Y-115133476D01*
X182451809Y-115038238D01*
X182547047Y-114943000D01*
X182689904Y-114895380D01*
X182785142Y-114895380D01*
X182928000Y-114943000D01*
X182975619Y-114990619D01*
X183737523Y-115371571D02*
X183880380Y-115419190D01*
X183928000Y-115466809D01*
X183975619Y-115562047D01*
X183975619Y-115704904D01*
X183928000Y-115800142D01*
X183880380Y-115847761D01*
X183785142Y-115895380D01*
X183404190Y-115895380D01*
X183404190Y-114895380D01*
X183737523Y-114895380D01*
X183832761Y-114943000D01*
X183880380Y-114990619D01*
X183928000Y-115085857D01*
X183928000Y-115181095D01*
X183880380Y-115276333D01*
X183832761Y-115323952D01*
X183737523Y-115371571D01*
X183404190Y-115371571D01*
X184451809Y-115847761D02*
X184451809Y-115895380D01*
X184404190Y-115990619D01*
X184356571Y-116038238D01*
X185785142Y-115895380D02*
X185689904Y-115847761D01*
X185642285Y-115800142D01*
X185594666Y-115704904D01*
X185594666Y-115419190D01*
X185642285Y-115323952D01*
X185689904Y-115276333D01*
X185785142Y-115228714D01*
X185928000Y-115228714D01*
X186023238Y-115276333D01*
X186070857Y-115323952D01*
X186118476Y-115419190D01*
X186118476Y-115704904D01*
X186070857Y-115800142D01*
X186023238Y-115847761D01*
X185928000Y-115895380D01*
X185785142Y-115895380D01*
X186404190Y-115228714D02*
X186785142Y-115228714D01*
X186547047Y-114895380D02*
X186547047Y-115752523D01*
X186594666Y-115847761D01*
X186689904Y-115895380D01*
X186785142Y-115895380D01*
X187118476Y-115895380D02*
X187118476Y-114895380D01*
X187547047Y-115895380D02*
X187547047Y-115371571D01*
X187499428Y-115276333D01*
X187404190Y-115228714D01*
X187261333Y-115228714D01*
X187166095Y-115276333D01*
X187118476Y-115323952D01*
X188404190Y-115847761D02*
X188308952Y-115895380D01*
X188118476Y-115895380D01*
X188023238Y-115847761D01*
X187975619Y-115752523D01*
X187975619Y-115371571D01*
X188023238Y-115276333D01*
X188118476Y-115228714D01*
X188308952Y-115228714D01*
X188404190Y-115276333D01*
X188451809Y-115371571D01*
X188451809Y-115466809D01*
X187975619Y-115562047D01*
X188880380Y-115895380D02*
X188880380Y-115228714D01*
X188880380Y-115419190D02*
X188928000Y-115323952D01*
X188975619Y-115276333D01*
X189070857Y-115228714D01*
X189166095Y-115228714D01*
X190166095Y-115228714D02*
X190356571Y-115895380D01*
X190547047Y-115419190D01*
X190737523Y-115895380D01*
X190928000Y-115228714D01*
X191737523Y-115895380D02*
X191737523Y-115371571D01*
X191689904Y-115276333D01*
X191594666Y-115228714D01*
X191404190Y-115228714D01*
X191308952Y-115276333D01*
X191737523Y-115847761D02*
X191642285Y-115895380D01*
X191404190Y-115895380D01*
X191308952Y-115847761D01*
X191261333Y-115752523D01*
X191261333Y-115657285D01*
X191308952Y-115562047D01*
X191404190Y-115514428D01*
X191642285Y-115514428D01*
X191737523Y-115466809D01*
X192118476Y-115228714D02*
X192356571Y-115895380D01*
X192594666Y-115228714D02*
X192356571Y-115895380D01*
X192261333Y-116133476D01*
X192213714Y-116181095D01*
X192118476Y-116228714D01*
X194166095Y-115228714D02*
X194166095Y-115895380D01*
X193737523Y-115228714D02*
X193737523Y-115752523D01*
X193785142Y-115847761D01*
X193880380Y-115895380D01*
X194023238Y-115895380D01*
X194118476Y-115847761D01*
X194166095Y-115800142D01*
X194642285Y-115228714D02*
X194642285Y-116228714D01*
X194642285Y-115276333D02*
X194737523Y-115228714D01*
X194928000Y-115228714D01*
X195023238Y-115276333D01*
X195070857Y-115323952D01*
X195118476Y-115419190D01*
X195118476Y-115704904D01*
X195070857Y-115800142D01*
X195023238Y-115847761D01*
X194928000Y-115895380D01*
X194737523Y-115895380D01*
X194642285Y-115847761D01*
X117753761Y-115895380D02*
X117277571Y-115895380D01*
X117277571Y-114895380D01*
X118468047Y-115847761D02*
X118372809Y-115895380D01*
X118182333Y-115895380D01*
X118087095Y-115847761D01*
X118039476Y-115752523D01*
X118039476Y-115371571D01*
X118087095Y-115276333D01*
X118182333Y-115228714D01*
X118372809Y-115228714D01*
X118468047Y-115276333D01*
X118515666Y-115371571D01*
X118515666Y-115466809D01*
X118039476Y-115562047D01*
X118801380Y-115228714D02*
X119182333Y-115228714D01*
X118944238Y-115895380D02*
X118944238Y-115038238D01*
X118991857Y-114943000D01*
X119087095Y-114895380D01*
X119182333Y-114895380D01*
X119372809Y-115228714D02*
X119753761Y-115228714D01*
X119515666Y-114895380D02*
X119515666Y-115752523D01*
X119563285Y-115847761D01*
X119658523Y-115895380D01*
X119753761Y-115895380D01*
X120849000Y-115895380D02*
X120849000Y-114895380D01*
X121229952Y-114895380D01*
X121325190Y-114943000D01*
X121372809Y-114990619D01*
X121420428Y-115085857D01*
X121420428Y-115228714D01*
X121372809Y-115323952D01*
X121325190Y-115371571D01*
X121229952Y-115419190D01*
X120849000Y-115419190D01*
X122420428Y-115800142D02*
X122372809Y-115847761D01*
X122229952Y-115895380D01*
X122134714Y-115895380D01*
X121991857Y-115847761D01*
X121896619Y-115752523D01*
X121849000Y-115657285D01*
X121801380Y-115466809D01*
X121801380Y-115323952D01*
X121849000Y-115133476D01*
X121896619Y-115038238D01*
X121991857Y-114943000D01*
X122134714Y-114895380D01*
X122229952Y-114895380D01*
X122372809Y-114943000D01*
X122420428Y-114990619D01*
X123182333Y-115371571D02*
X123325190Y-115419190D01*
X123372809Y-115466809D01*
X123420428Y-115562047D01*
X123420428Y-115704904D01*
X123372809Y-115800142D01*
X123325190Y-115847761D01*
X123229952Y-115895380D01*
X122849000Y-115895380D01*
X122849000Y-114895380D01*
X123182333Y-114895380D01*
X123277571Y-114943000D01*
X123325190Y-114990619D01*
X123372809Y-115085857D01*
X123372809Y-115181095D01*
X123325190Y-115276333D01*
X123277571Y-115323952D01*
X123182333Y-115371571D01*
X122849000Y-115371571D01*
X123896619Y-115847761D02*
X123896619Y-115895380D01*
X123849000Y-115990619D01*
X123801380Y-116038238D01*
X124944238Y-115228714D02*
X125325190Y-115228714D01*
X125087095Y-114895380D02*
X125087095Y-115752523D01*
X125134714Y-115847761D01*
X125229952Y-115895380D01*
X125325190Y-115895380D01*
X125658523Y-115895380D02*
X125658523Y-114895380D01*
X126087095Y-115895380D02*
X126087095Y-115371571D01*
X126039476Y-115276333D01*
X125944238Y-115228714D01*
X125801380Y-115228714D01*
X125706142Y-115276333D01*
X125658523Y-115323952D01*
X126563285Y-115895380D02*
X126563285Y-115228714D01*
X126563285Y-114895380D02*
X126515666Y-114943000D01*
X126563285Y-114990619D01*
X126610904Y-114943000D01*
X126563285Y-114895380D01*
X126563285Y-114990619D01*
X126991857Y-115847761D02*
X127087095Y-115895380D01*
X127277571Y-115895380D01*
X127372809Y-115847761D01*
X127420428Y-115752523D01*
X127420428Y-115704904D01*
X127372809Y-115609666D01*
X127277571Y-115562047D01*
X127134714Y-115562047D01*
X127039476Y-115514428D01*
X126991857Y-115419190D01*
X126991857Y-115371571D01*
X127039476Y-115276333D01*
X127134714Y-115228714D01*
X127277571Y-115228714D01*
X127372809Y-115276333D01*
X128515666Y-115228714D02*
X128706142Y-115895380D01*
X128896619Y-115419190D01*
X129087095Y-115895380D01*
X129277571Y-115228714D01*
X130087095Y-115895380D02*
X130087095Y-115371571D01*
X130039476Y-115276333D01*
X129944238Y-115228714D01*
X129753761Y-115228714D01*
X129658523Y-115276333D01*
X130087095Y-115847761D02*
X129991857Y-115895380D01*
X129753761Y-115895380D01*
X129658523Y-115847761D01*
X129610904Y-115752523D01*
X129610904Y-115657285D01*
X129658523Y-115562047D01*
X129753761Y-115514428D01*
X129991857Y-115514428D01*
X130087095Y-115466809D01*
X130468047Y-115228714D02*
X130706142Y-115895380D01*
X130944238Y-115228714D02*
X130706142Y-115895380D01*
X130610904Y-116133476D01*
X130563285Y-116181095D01*
X130468047Y-116228714D01*
X132515666Y-115228714D02*
X132515666Y-115895380D01*
X132087095Y-115228714D02*
X132087095Y-115752523D01*
X132134714Y-115847761D01*
X132229952Y-115895380D01*
X132372809Y-115895380D01*
X132468047Y-115847761D01*
X132515666Y-115800142D01*
X132991857Y-115228714D02*
X132991857Y-116228714D01*
X132991857Y-115276333D02*
X133087095Y-115228714D01*
X133277571Y-115228714D01*
X133372809Y-115276333D01*
X133420428Y-115323952D01*
X133468047Y-115419190D01*
X133468047Y-115704904D01*
X133420428Y-115800142D01*
X133372809Y-115847761D01*
X133277571Y-115895380D01*
X133087095Y-115895380D01*
X132991857Y-115847761D01*
X149805571Y-115895380D02*
X149805571Y-114895380D01*
X150138904Y-115609666D01*
X150472238Y-114895380D01*
X150472238Y-115895380D01*
X150948428Y-115895380D02*
X150948428Y-115228714D01*
X150948428Y-114895380D02*
X150900809Y-114943000D01*
X150948428Y-114990619D01*
X150996047Y-114943000D01*
X150948428Y-114895380D01*
X150948428Y-114990619D01*
X151853190Y-115895380D02*
X151853190Y-114895380D01*
X151853190Y-115847761D02*
X151757952Y-115895380D01*
X151567476Y-115895380D01*
X151472238Y-115847761D01*
X151424619Y-115800142D01*
X151377000Y-115704904D01*
X151377000Y-115419190D01*
X151424619Y-115323952D01*
X151472238Y-115276333D01*
X151567476Y-115228714D01*
X151757952Y-115228714D01*
X151853190Y-115276333D01*
X152757952Y-115895380D02*
X152757952Y-114895380D01*
X152757952Y-115847761D02*
X152662714Y-115895380D01*
X152472238Y-115895380D01*
X152377000Y-115847761D01*
X152329380Y-115800142D01*
X152281761Y-115704904D01*
X152281761Y-115419190D01*
X152329380Y-115323952D01*
X152377000Y-115276333D01*
X152472238Y-115228714D01*
X152662714Y-115228714D01*
X152757952Y-115276333D01*
X153377000Y-115895380D02*
X153281761Y-115847761D01*
X153234142Y-115752523D01*
X153234142Y-114895380D01*
X154138904Y-115847761D02*
X154043666Y-115895380D01*
X153853190Y-115895380D01*
X153757952Y-115847761D01*
X153710333Y-115752523D01*
X153710333Y-115371571D01*
X153757952Y-115276333D01*
X153853190Y-115228714D01*
X154043666Y-115228714D01*
X154138904Y-115276333D01*
X154186523Y-115371571D01*
X154186523Y-115466809D01*
X153710333Y-115562047D01*
X155377000Y-115895380D02*
X155377000Y-114895380D01*
X155757952Y-114895380D01*
X155853190Y-114943000D01*
X155900809Y-114990619D01*
X155948428Y-115085857D01*
X155948428Y-115228714D01*
X155900809Y-115323952D01*
X155853190Y-115371571D01*
X155757952Y-115419190D01*
X155377000Y-115419190D01*
X156948428Y-115800142D02*
X156900809Y-115847761D01*
X156757952Y-115895380D01*
X156662714Y-115895380D01*
X156519857Y-115847761D01*
X156424619Y-115752523D01*
X156377000Y-115657285D01*
X156329380Y-115466809D01*
X156329380Y-115323952D01*
X156377000Y-115133476D01*
X156424619Y-115038238D01*
X156519857Y-114943000D01*
X156662714Y-114895380D01*
X156757952Y-114895380D01*
X156900809Y-114943000D01*
X156948428Y-114990619D01*
X157710333Y-115371571D02*
X157853190Y-115419190D01*
X157900809Y-115466809D01*
X157948428Y-115562047D01*
X157948428Y-115704904D01*
X157900809Y-115800142D01*
X157853190Y-115847761D01*
X157757952Y-115895380D01*
X157377000Y-115895380D01*
X157377000Y-114895380D01*
X157710333Y-114895380D01*
X157805571Y-114943000D01*
X157853190Y-114990619D01*
X157900809Y-115085857D01*
X157900809Y-115181095D01*
X157853190Y-115276333D01*
X157805571Y-115323952D01*
X157710333Y-115371571D01*
X157377000Y-115371571D01*
X158424619Y-115847761D02*
X158424619Y-115895380D01*
X158377000Y-115990619D01*
X158329380Y-116038238D01*
X159472238Y-115228714D02*
X159853190Y-115228714D01*
X159615095Y-114895380D02*
X159615095Y-115752523D01*
X159662714Y-115847761D01*
X159757952Y-115895380D01*
X159853190Y-115895380D01*
X160186523Y-115895380D02*
X160186523Y-114895380D01*
X160615095Y-115895380D02*
X160615095Y-115371571D01*
X160567476Y-115276333D01*
X160472238Y-115228714D01*
X160329380Y-115228714D01*
X160234142Y-115276333D01*
X160186523Y-115323952D01*
X161091285Y-115895380D02*
X161091285Y-115228714D01*
X161091285Y-114895380D02*
X161043666Y-114943000D01*
X161091285Y-114990619D01*
X161138904Y-114943000D01*
X161091285Y-114895380D01*
X161091285Y-114990619D01*
X161519857Y-115847761D02*
X161615095Y-115895380D01*
X161805571Y-115895380D01*
X161900809Y-115847761D01*
X161948428Y-115752523D01*
X161948428Y-115704904D01*
X161900809Y-115609666D01*
X161805571Y-115562047D01*
X161662714Y-115562047D01*
X161567476Y-115514428D01*
X161519857Y-115419190D01*
X161519857Y-115371571D01*
X161567476Y-115276333D01*
X161662714Y-115228714D01*
X161805571Y-115228714D01*
X161900809Y-115276333D01*
X163043666Y-115228714D02*
X163234142Y-115895380D01*
X163424619Y-115419190D01*
X163615095Y-115895380D01*
X163805571Y-115228714D01*
X164615095Y-115895380D02*
X164615095Y-115371571D01*
X164567476Y-115276333D01*
X164472238Y-115228714D01*
X164281761Y-115228714D01*
X164186523Y-115276333D01*
X164615095Y-115847761D02*
X164519857Y-115895380D01*
X164281761Y-115895380D01*
X164186523Y-115847761D01*
X164138904Y-115752523D01*
X164138904Y-115657285D01*
X164186523Y-115562047D01*
X164281761Y-115514428D01*
X164519857Y-115514428D01*
X164615095Y-115466809D01*
X164996047Y-115228714D02*
X165234142Y-115895380D01*
X165472238Y-115228714D02*
X165234142Y-115895380D01*
X165138904Y-116133476D01*
X165091285Y-116181095D01*
X164996047Y-116228714D01*
X167043666Y-115228714D02*
X167043666Y-115895380D01*
X166615095Y-115228714D02*
X166615095Y-115752523D01*
X166662714Y-115847761D01*
X166757952Y-115895380D01*
X166900809Y-115895380D01*
X166996047Y-115847761D01*
X167043666Y-115800142D01*
X167519857Y-115228714D02*
X167519857Y-116228714D01*
X167519857Y-115276333D02*
X167615095Y-115228714D01*
X167805571Y-115228714D01*
X167900809Y-115276333D01*
X167948428Y-115323952D01*
X167996047Y-115419190D01*
X167996047Y-115704904D01*
X167948428Y-115800142D01*
X167900809Y-115847761D01*
X167805571Y-115895380D01*
X167615095Y-115895380D01*
X167519857Y-115847761D01*
X185214476Y-125801380D02*
X185214476Y-125134714D01*
X185214476Y-125325190D02*
X185262095Y-125229952D01*
X185309714Y-125182333D01*
X185404952Y-125134714D01*
X185500190Y-125134714D01*
X186214476Y-125753761D02*
X186119238Y-125801380D01*
X185928761Y-125801380D01*
X185833523Y-125753761D01*
X185785904Y-125658523D01*
X185785904Y-125277571D01*
X185833523Y-125182333D01*
X185928761Y-125134714D01*
X186119238Y-125134714D01*
X186214476Y-125182333D01*
X186262095Y-125277571D01*
X186262095Y-125372809D01*
X185785904Y-125468047D01*
X186595428Y-125134714D02*
X186833523Y-125801380D01*
X187071619Y-125134714D01*
X188738285Y-125801380D02*
X188166857Y-125801380D01*
X188452571Y-125801380D02*
X188452571Y-124801380D01*
X188357333Y-124944238D01*
X188262095Y-125039476D01*
X188166857Y-125087095D01*
X192166857Y-124753761D02*
X191309714Y-126039476D01*
X192928761Y-125134714D02*
X192928761Y-125801380D01*
X192500190Y-125134714D02*
X192500190Y-125658523D01*
X192547809Y-125753761D01*
X192643047Y-125801380D01*
X192785904Y-125801380D01*
X192881142Y-125753761D01*
X192928761Y-125706142D01*
X194119238Y-124753761D02*
X193262095Y-126039476D01*
X194452571Y-125134714D02*
X194452571Y-126134714D01*
X194452571Y-125182333D02*
X194547809Y-125134714D01*
X194738285Y-125134714D01*
X194833523Y-125182333D01*
X194881142Y-125229952D01*
X194928761Y-125325190D01*
X194928761Y-125610904D01*
X194881142Y-125706142D01*
X194833523Y-125753761D01*
X194738285Y-125801380D01*
X194547809Y-125801380D01*
X194452571Y-125753761D01*
X195738285Y-125753761D02*
X195643047Y-125801380D01*
X195452571Y-125801380D01*
X195357333Y-125753761D01*
X195309714Y-125658523D01*
X195309714Y-125277571D01*
X195357333Y-125182333D01*
X195452571Y-125134714D01*
X195643047Y-125134714D01*
X195738285Y-125182333D01*
X195785904Y-125277571D01*
X195785904Y-125372809D01*
X195309714Y-125468047D01*
X196595428Y-125753761D02*
X196500190Y-125801380D01*
X196309714Y-125801380D01*
X196214476Y-125753761D01*
X196166857Y-125658523D01*
X196166857Y-125277571D01*
X196214476Y-125182333D01*
X196309714Y-125134714D01*
X196500190Y-125134714D01*
X196595428Y-125182333D01*
X196643047Y-125277571D01*
X196643047Y-125372809D01*
X196166857Y-125468047D01*
X197071619Y-125134714D02*
X197071619Y-125991857D01*
X197024000Y-126087095D01*
X196928761Y-126134714D01*
X196881142Y-126134714D01*
X197071619Y-124801380D02*
X197024000Y-124849000D01*
X197071619Y-124896619D01*
X197119238Y-124849000D01*
X197071619Y-124801380D01*
X197071619Y-124896619D01*
X197928761Y-125753761D02*
X197833523Y-125801380D01*
X197643047Y-125801380D01*
X197547809Y-125753761D01*
X197500190Y-125658523D01*
X197500190Y-125277571D01*
X197547809Y-125182333D01*
X197643047Y-125134714D01*
X197833523Y-125134714D01*
X197928761Y-125182333D01*
X197976380Y-125277571D01*
X197976380Y-125372809D01*
X197500190Y-125468047D01*
X198404952Y-125801380D02*
X198404952Y-124801380D01*
X198833523Y-125801380D02*
X198833523Y-125277571D01*
X198785904Y-125182333D01*
X198690666Y-125134714D01*
X198547809Y-125134714D01*
X198452571Y-125182333D01*
X198404952Y-125229952D01*
D11*
X184571428Y-121039142D02*
X186285714Y-121039142D01*
X185428571Y-124039142D02*
X185428571Y-121039142D01*
X187285714Y-124039142D02*
X187285714Y-122039142D01*
X187285714Y-122610571D02*
X187428571Y-122324857D01*
X187571428Y-122182000D01*
X187857142Y-122039142D01*
X188142857Y-122039142D01*
X189142857Y-124039142D02*
X189142857Y-122039142D01*
X189142857Y-121039142D02*
X189000000Y-121182000D01*
X189142857Y-121324857D01*
X189285714Y-121182000D01*
X189142857Y-121039142D01*
X189142857Y-121324857D01*
X190571428Y-122039142D02*
X190571428Y-125039142D01*
X190571428Y-122182000D02*
X190857142Y-122039142D01*
X191428571Y-122039142D01*
X191714285Y-122182000D01*
X191857142Y-122324857D01*
X192000000Y-122610571D01*
X192000000Y-123467714D01*
X191857142Y-123753428D01*
X191714285Y-123896285D01*
X191428571Y-124039142D01*
X190857142Y-124039142D01*
X190571428Y-123896285D01*
X194428571Y-123896285D02*
X194142857Y-124039142D01*
X193571428Y-124039142D01*
X193285714Y-123896285D01*
X193142857Y-123610571D01*
X193142857Y-122467714D01*
X193285714Y-122182000D01*
X193571428Y-122039142D01*
X194142857Y-122039142D01*
X194428571Y-122182000D01*
X194571428Y-122467714D01*
X194571428Y-122753428D01*
X193142857Y-123039142D01*
X196285714Y-124039142D02*
X196000000Y-123896285D01*
X195857142Y-123610571D01*
X195857142Y-121039142D01*
D12*
X133993750Y-81115500D02*
X133993750Y-79337500D01*
X133993750Y-92037500D02*
X133993750Y-90259500D01*
X135771750Y-92037500D02*
X133993750Y-92037500D01*
X146693750Y-92037500D02*
X144915750Y-92037500D01*
X146693750Y-90259500D02*
X146693750Y-92037500D01*
X146693750Y-79337500D02*
X146693750Y-81115500D01*
X144915750Y-79337500D02*
X146693750Y-79337500D01*
X133993750Y-79337500D02*
X135771750Y-79337500D01*
X191087500Y-43053000D02*
X191087500Y-41275000D01*
X191087500Y-53975000D02*
X191087500Y-52197000D01*
X192865500Y-53975000D02*
X191087500Y-53975000D01*
X203787500Y-53975000D02*
X202009500Y-53975000D01*
X203787500Y-52197000D02*
X203787500Y-53975000D01*
X203787500Y-41275000D02*
X203787500Y-43053000D01*
X202009500Y-41275000D02*
X203787500Y-41275000D01*
X191087500Y-41275000D02*
X192865500Y-41275000D01*
X133993750Y-60306250D02*
X135771750Y-60306250D01*
X144915750Y-60306250D02*
X146693750Y-60306250D01*
X146693750Y-60306250D02*
X146693750Y-62084250D01*
X146693750Y-71228250D02*
X146693750Y-73006250D01*
X146693750Y-73006250D02*
X144915750Y-73006250D01*
X135771750Y-73006250D02*
X133993750Y-73006250D01*
X133993750Y-73006250D02*
X133993750Y-71228250D01*
X133993750Y-62084250D02*
X133993750Y-60306250D01*
X114962500Y-79337500D02*
X116740500Y-79337500D01*
X125884500Y-79337500D02*
X127662500Y-79337500D01*
X127662500Y-79337500D02*
X127662500Y-81115500D01*
X127662500Y-90259500D02*
X127662500Y-92037500D01*
X127662500Y-92037500D02*
X125884500Y-92037500D01*
X116740500Y-92037500D02*
X114962500Y-92037500D01*
X114962500Y-92037500D02*
X114962500Y-90259500D01*
X114962500Y-81115500D02*
X114962500Y-79337500D01*
X153025000Y-60306250D02*
X154803000Y-60306250D01*
X163947000Y-60306250D02*
X165725000Y-60306250D01*
X165725000Y-60306250D02*
X165725000Y-62084250D01*
X165725000Y-71228250D02*
X165725000Y-73006250D01*
X165725000Y-73006250D02*
X163947000Y-73006250D01*
X154803000Y-73006250D02*
X153025000Y-73006250D01*
X153025000Y-73006250D02*
X153025000Y-71228250D01*
X153025000Y-62084250D02*
X153025000Y-60306250D01*
X172056250Y-60306250D02*
X173834250Y-60306250D01*
X182978250Y-60306250D02*
X184756250Y-60306250D01*
X184756250Y-60306250D02*
X184756250Y-62084250D01*
X184756250Y-71228250D02*
X184756250Y-73006250D01*
X184756250Y-73006250D02*
X182978250Y-73006250D01*
X173834250Y-73006250D02*
X172056250Y-73006250D01*
X172056250Y-73006250D02*
X172056250Y-71228250D01*
X172056250Y-62084250D02*
X172056250Y-60306250D01*
X191087500Y-60306250D02*
X192865500Y-60306250D01*
X202009500Y-60306250D02*
X203787500Y-60306250D01*
X203787500Y-60306250D02*
X203787500Y-62084250D01*
X203787500Y-71228250D02*
X203787500Y-73006250D01*
X203787500Y-73006250D02*
X202009500Y-73006250D01*
X192865500Y-73006250D02*
X191087500Y-73006250D01*
X191087500Y-73006250D02*
X191087500Y-71228250D01*
X191087500Y-62084250D02*
X191087500Y-60306250D01*
X119743750Y-119178000D02*
X119743750Y-117400000D01*
X119743750Y-130100000D02*
X119743750Y-128322000D01*
X121521750Y-130100000D02*
X119743750Y-130100000D01*
X132443750Y-130100000D02*
X130665750Y-130100000D01*
X132443750Y-128322000D02*
X132443750Y-130100000D01*
X132443750Y-117400000D02*
X132443750Y-119178000D01*
X130665750Y-117400000D02*
X132443750Y-117400000D01*
X119743750Y-117400000D02*
X121521750Y-117400000D01*
X167275000Y-119178000D02*
X167275000Y-117400000D01*
X167275000Y-130100000D02*
X167275000Y-128322000D01*
X169053000Y-130100000D02*
X167275000Y-130100000D01*
X179975000Y-130100000D02*
X178197000Y-130100000D01*
X179975000Y-128322000D02*
X179975000Y-130100000D01*
X179975000Y-117400000D02*
X179975000Y-119178000D01*
X178197000Y-117400000D02*
X179975000Y-117400000D01*
X167275000Y-117400000D02*
X169053000Y-117400000D01*
X133993750Y-100146750D02*
X133993750Y-98368750D01*
X133993750Y-111068750D02*
X133993750Y-109290750D01*
X135771750Y-111068750D02*
X133993750Y-111068750D01*
X146693750Y-111068750D02*
X144915750Y-111068750D01*
X146693750Y-109290750D02*
X146693750Y-111068750D01*
X146693750Y-98368750D02*
X146693750Y-100146750D01*
X144915750Y-98368750D02*
X146693750Y-98368750D01*
X133993750Y-98368750D02*
X135771750Y-98368750D01*
D13*
X207290000Y-53041000D02*
G75*
G03X207040000Y-52791000I-250000J0D01*
G01*
X204440000Y-52791000D02*
G75*
G03X204190000Y-53041000I0J-250000D01*
G01*
X204190000Y-53050000D02*
X204190000Y-61250000D01*
X207040000Y-52791000D02*
X204440000Y-52791000D01*
X207290000Y-53050000D02*
X207290000Y-61250000D01*
X207040000Y-61509000D02*
X204440000Y-61509000D01*
X207040000Y-61509000D02*
G75*
G03X207290000Y-61259000I0J250000D01*
G01*
X204190000Y-61259000D02*
G75*
G03X204440000Y-61509000I250000J0D01*
G01*
X150057000Y-49900000D02*
X152457000Y-49900000D01*
X150057000Y-50075000D02*
X152457000Y-50075000D01*
X150057000Y-50250000D02*
X152457000Y-50250000D01*
X152457000Y-50650000D02*
X150057000Y-50650000D01*
X150057000Y-50425000D02*
X152457000Y-50425000D01*
X150057000Y-50550000D02*
X152457000Y-50550000D01*
X150057000Y-50625000D02*
X150057000Y-44825000D01*
X150057000Y-44825000D02*
X152457000Y-44825000D01*
X152457000Y-44825000D02*
X152457000Y-50625000D01*
X128081250Y-68931250D02*
X130481250Y-68931250D01*
X128081250Y-69106250D02*
X130481250Y-69106250D01*
X128081250Y-69281250D02*
X130481250Y-69281250D01*
X130481250Y-69681250D02*
X128081250Y-69681250D01*
X128081250Y-69456250D02*
X130481250Y-69456250D01*
X128081250Y-69581250D02*
X130481250Y-69581250D01*
X128081250Y-69656250D02*
X128081250Y-63856250D01*
X128081250Y-63856250D02*
X130481250Y-63856250D01*
X130481250Y-63856250D02*
X130481250Y-69656250D01*
X188175000Y-49900000D02*
X190575000Y-49900000D01*
X188175000Y-50075000D02*
X190575000Y-50075000D01*
X188175000Y-50250000D02*
X190575000Y-50250000D01*
X190575000Y-50650000D02*
X188175000Y-50650000D01*
X188175000Y-50425000D02*
X190575000Y-50425000D01*
X188175000Y-50550000D02*
X190575000Y-50550000D01*
X188175000Y-50625000D02*
X188175000Y-44825000D01*
X188175000Y-44825000D02*
X190575000Y-44825000D01*
X190575000Y-44825000D02*
X190575000Y-50625000D01*
X187575000Y-82887500D02*
X187575000Y-88687500D01*
X185175000Y-82887500D02*
X187575000Y-82887500D01*
X185175000Y-88687500D02*
X185175000Y-82887500D01*
X185175000Y-88612500D02*
X187575000Y-88612500D01*
X185175000Y-88487500D02*
X187575000Y-88487500D01*
X187575000Y-88712500D02*
X185175000Y-88712500D01*
X185175000Y-88312500D02*
X187575000Y-88312500D01*
X185175000Y-88137500D02*
X187575000Y-88137500D01*
X185175000Y-87962500D02*
X187575000Y-87962500D01*
X131175000Y-106993750D02*
X133575000Y-106993750D01*
X131175000Y-107168750D02*
X133575000Y-107168750D01*
X131175000Y-107343750D02*
X133575000Y-107343750D01*
X133575000Y-107743750D02*
X131175000Y-107743750D01*
X131175000Y-107518750D02*
X133575000Y-107518750D01*
X131175000Y-107643750D02*
X133575000Y-107643750D01*
X131175000Y-107718750D02*
X131175000Y-101918750D01*
X131175000Y-101918750D02*
X133575000Y-101918750D01*
X133575000Y-101918750D02*
X133575000Y-107718750D01*
X130481250Y-82887500D02*
X130481250Y-88687500D01*
X128081250Y-82887500D02*
X130481250Y-82887500D01*
X128081250Y-88687500D02*
X128081250Y-82887500D01*
X128081250Y-88612500D02*
X130481250Y-88612500D01*
X128081250Y-88487500D02*
X130481250Y-88487500D01*
X130481250Y-88712500D02*
X128081250Y-88712500D01*
X128081250Y-88312500D02*
X130481250Y-88312500D01*
X128081250Y-88137500D02*
X130481250Y-88137500D01*
X128081250Y-87962500D02*
X130481250Y-87962500D01*
X149790000Y-44825000D02*
X149790000Y-50625000D01*
X147390000Y-44825000D02*
X149790000Y-44825000D01*
X147390000Y-50625000D02*
X147390000Y-44825000D01*
X147390000Y-50550000D02*
X149790000Y-50550000D01*
X147390000Y-50425000D02*
X149790000Y-50425000D01*
X149790000Y-50650000D02*
X147390000Y-50650000D01*
X147390000Y-50250000D02*
X149790000Y-50250000D01*
X147390000Y-50075000D02*
X149790000Y-50075000D01*
X147390000Y-49900000D02*
X149790000Y-49900000D01*
X190575000Y-63856250D02*
X190575000Y-69656250D01*
X188175000Y-63856250D02*
X190575000Y-63856250D01*
X188175000Y-69656250D02*
X188175000Y-63856250D01*
X188175000Y-69581250D02*
X190575000Y-69581250D01*
X188175000Y-69456250D02*
X190575000Y-69456250D01*
X190575000Y-69681250D02*
X188175000Y-69681250D01*
X188175000Y-69281250D02*
X190575000Y-69281250D01*
X188175000Y-69106250D02*
X190575000Y-69106250D01*
X188175000Y-68931250D02*
X190575000Y-68931250D01*
X171637500Y-101918750D02*
X171637500Y-107718750D01*
X169237500Y-101918750D02*
X171637500Y-101918750D01*
X169237500Y-107718750D02*
X169237500Y-101918750D01*
X169237500Y-107643750D02*
X171637500Y-107643750D01*
X169237500Y-107518750D02*
X171637500Y-107518750D01*
X171637500Y-107743750D02*
X169237500Y-107743750D01*
X169237500Y-107343750D02*
X171637500Y-107343750D01*
X169237500Y-107168750D02*
X171637500Y-107168750D01*
X169237500Y-106993750D02*
X171637500Y-106993750D01*
X128081250Y-106993750D02*
X130481250Y-106993750D01*
X128081250Y-107168750D02*
X130481250Y-107168750D01*
X128081250Y-107343750D02*
X130481250Y-107343750D01*
X130481250Y-107743750D02*
X128081250Y-107743750D01*
X128081250Y-107518750D02*
X130481250Y-107518750D01*
X128081250Y-107643750D02*
X130481250Y-107643750D01*
X128081250Y-107718750D02*
X128081250Y-101918750D01*
X128081250Y-101918750D02*
X130481250Y-101918750D01*
X130481250Y-101918750D02*
X130481250Y-107718750D01*
X133481250Y-63856250D02*
X133481250Y-69656250D01*
X131081250Y-63856250D02*
X133481250Y-63856250D01*
X131081250Y-69656250D02*
X131081250Y-63856250D01*
X131081250Y-69581250D02*
X133481250Y-69581250D01*
X131081250Y-69456250D02*
X133481250Y-69456250D01*
X133481250Y-69681250D02*
X131081250Y-69681250D01*
X131081250Y-69281250D02*
X133481250Y-69281250D01*
X131081250Y-69106250D02*
X133481250Y-69106250D01*
X131081250Y-68931250D02*
X133481250Y-68931250D01*
X133575000Y-82887500D02*
X133575000Y-88687500D01*
X131175000Y-82887500D02*
X133575000Y-82887500D01*
X131175000Y-88687500D02*
X131175000Y-82887500D01*
X131175000Y-88612500D02*
X133575000Y-88612500D01*
X131175000Y-88487500D02*
X133575000Y-88487500D01*
X133575000Y-88712500D02*
X131175000Y-88712500D01*
X131175000Y-88312500D02*
X133575000Y-88312500D01*
X131175000Y-88137500D02*
X133575000Y-88137500D01*
X131175000Y-87962500D02*
X133575000Y-87962500D01*
X190668750Y-82887500D02*
X190668750Y-88687500D01*
X188268750Y-82887500D02*
X190668750Y-82887500D01*
X188268750Y-88687500D02*
X188268750Y-82887500D01*
X188268750Y-88612500D02*
X190668750Y-88612500D01*
X188268750Y-88487500D02*
X190668750Y-88487500D01*
X190668750Y-88712500D02*
X188268750Y-88712500D01*
X188268750Y-88312500D02*
X190668750Y-88312500D01*
X188268750Y-88137500D02*
X190668750Y-88137500D01*
X188268750Y-87962500D02*
X190668750Y-87962500D01*
X182793750Y-120950000D02*
X182793750Y-126750000D01*
X180393750Y-120950000D02*
X182793750Y-120950000D01*
X180393750Y-126750000D02*
X180393750Y-120950000D01*
X180393750Y-126675000D02*
X182793750Y-126675000D01*
X180393750Y-126550000D02*
X182793750Y-126550000D01*
X182793750Y-126775000D02*
X180393750Y-126775000D01*
X180393750Y-126375000D02*
X182793750Y-126375000D01*
X180393750Y-126200000D02*
X182793750Y-126200000D01*
X180393750Y-126025000D02*
X182793750Y-126025000D01*
X135356250Y-120950000D02*
X135356250Y-126750000D01*
X132956250Y-120950000D02*
X135356250Y-120950000D01*
X132956250Y-126750000D02*
X132956250Y-120950000D01*
X132956250Y-126675000D02*
X135356250Y-126675000D01*
X132956250Y-126550000D02*
X135356250Y-126550000D01*
X135356250Y-126775000D02*
X132956250Y-126775000D01*
X132956250Y-126375000D02*
X135356250Y-126375000D01*
X132956250Y-126200000D02*
X135356250Y-126200000D01*
X132956250Y-126025000D02*
X135356250Y-126025000D01*
X168840000Y-44825000D02*
X168840000Y-50625000D01*
X166440000Y-44825000D02*
X168840000Y-44825000D01*
X166440000Y-50625000D02*
X166440000Y-44825000D01*
X166440000Y-50550000D02*
X168840000Y-50550000D01*
X166440000Y-50425000D02*
X168840000Y-50425000D01*
X168840000Y-50650000D02*
X166440000Y-50650000D01*
X166440000Y-50250000D02*
X168840000Y-50250000D01*
X166440000Y-50075000D02*
X168840000Y-50075000D01*
X166440000Y-49900000D02*
X168840000Y-49900000D01*
X150112500Y-68931250D02*
X152512500Y-68931250D01*
X150112500Y-69106250D02*
X152512500Y-69106250D01*
X150112500Y-69281250D02*
X152512500Y-69281250D01*
X152512500Y-69681250D02*
X150112500Y-69681250D01*
X150112500Y-69456250D02*
X152512500Y-69456250D01*
X150112500Y-69581250D02*
X152512500Y-69581250D01*
X150112500Y-69656250D02*
X150112500Y-63856250D01*
X150112500Y-63856250D02*
X152512500Y-63856250D01*
X152512500Y-63856250D02*
X152512500Y-69656250D01*
X190575000Y-101918750D02*
X190575000Y-107718750D01*
X188175000Y-101918750D02*
X190575000Y-101918750D01*
X188175000Y-107718750D02*
X188175000Y-101918750D01*
X188175000Y-107643750D02*
X190575000Y-107643750D01*
X188175000Y-107518750D02*
X190575000Y-107518750D01*
X190575000Y-107743750D02*
X188175000Y-107743750D01*
X188175000Y-107343750D02*
X190575000Y-107343750D01*
X188175000Y-107168750D02*
X190575000Y-107168750D01*
X188175000Y-106993750D02*
X190575000Y-106993750D01*
X143043750Y-120950000D02*
X143043750Y-126750000D01*
X140643750Y-120950000D02*
X143043750Y-120950000D01*
X140643750Y-126750000D02*
X140643750Y-120950000D01*
X140643750Y-126675000D02*
X143043750Y-126675000D01*
X140643750Y-126550000D02*
X143043750Y-126550000D01*
X143043750Y-126775000D02*
X140643750Y-126775000D01*
X140643750Y-126375000D02*
X143043750Y-126375000D01*
X140643750Y-126200000D02*
X143043750Y-126200000D01*
X140643750Y-126025000D02*
X143043750Y-126025000D01*
X150206250Y-87962500D02*
X152606250Y-87962500D01*
X150206250Y-88137500D02*
X152606250Y-88137500D01*
X150206250Y-88312500D02*
X152606250Y-88312500D01*
X152606250Y-88712500D02*
X150206250Y-88712500D01*
X150206250Y-88487500D02*
X152606250Y-88487500D01*
X150206250Y-88612500D02*
X152606250Y-88612500D01*
X150206250Y-88687500D02*
X150206250Y-82887500D01*
X150206250Y-82887500D02*
X152606250Y-82887500D01*
X152606250Y-82887500D02*
X152606250Y-88687500D01*
X169143750Y-49900000D02*
X171543750Y-49900000D01*
X169143750Y-50075000D02*
X171543750Y-50075000D01*
X169143750Y-50250000D02*
X171543750Y-50250000D01*
X171543750Y-50650000D02*
X169143750Y-50650000D01*
X169143750Y-50425000D02*
X171543750Y-50425000D01*
X169143750Y-50550000D02*
X171543750Y-50550000D01*
X169143750Y-50625000D02*
X169143750Y-44825000D01*
X169143750Y-44825000D02*
X171543750Y-44825000D01*
X171543750Y-44825000D02*
X171543750Y-50625000D01*
X171543750Y-63856250D02*
X171543750Y-69656250D01*
X169143750Y-63856250D02*
X171543750Y-63856250D01*
X169143750Y-69656250D02*
X169143750Y-63856250D01*
X169143750Y-69581250D02*
X171543750Y-69581250D01*
X169143750Y-69456250D02*
X171543750Y-69456250D01*
X171543750Y-69681250D02*
X169143750Y-69681250D01*
X169143750Y-69281250D02*
X171543750Y-69281250D01*
X169143750Y-69106250D02*
X171543750Y-69106250D01*
X169143750Y-68931250D02*
X171543750Y-68931250D01*
X150112500Y-106993750D02*
X152512500Y-106993750D01*
X150112500Y-107168750D02*
X152512500Y-107168750D01*
X150112500Y-107343750D02*
X152512500Y-107343750D01*
X152512500Y-107743750D02*
X150112500Y-107743750D01*
X150112500Y-107518750D02*
X152512500Y-107518750D01*
X150112500Y-107643750D02*
X152512500Y-107643750D01*
X150112500Y-107718750D02*
X150112500Y-101918750D01*
X150112500Y-101918750D02*
X152512500Y-101918750D01*
X152512500Y-101918750D02*
X152512500Y-107718750D01*
D12*
X133993750Y-43053000D02*
X133993750Y-41275000D01*
X133993750Y-53975000D02*
X133993750Y-52197000D01*
X135771750Y-53975000D02*
X133993750Y-53975000D01*
X146693750Y-53975000D02*
X144915750Y-53975000D01*
X146693750Y-52197000D02*
X146693750Y-53975000D01*
X146693750Y-41275000D02*
X146693750Y-43053000D01*
X144915750Y-41275000D02*
X146693750Y-41275000D01*
X133993750Y-41275000D02*
X135771750Y-41275000D01*
X153025000Y-43053000D02*
X153025000Y-41275000D01*
X153025000Y-53975000D02*
X153025000Y-52197000D01*
X154803000Y-53975000D02*
X153025000Y-53975000D01*
X165725000Y-53975000D02*
X163947000Y-53975000D01*
X165725000Y-52197000D02*
X165725000Y-53975000D01*
X165725000Y-41275000D02*
X165725000Y-43053000D01*
X163947000Y-41275000D02*
X165725000Y-41275000D01*
X153025000Y-41275000D02*
X154803000Y-41275000D01*
X172056250Y-41275000D02*
X173834250Y-41275000D01*
X182978250Y-41275000D02*
X184756250Y-41275000D01*
X184756250Y-41275000D02*
X184756250Y-43053000D01*
X184756250Y-52197000D02*
X184756250Y-53975000D01*
X184756250Y-53975000D02*
X182978250Y-53975000D01*
X173834250Y-53975000D02*
X172056250Y-53975000D01*
X172056250Y-53975000D02*
X172056250Y-52197000D01*
X172056250Y-43053000D02*
X172056250Y-41275000D01*
X114962500Y-43053000D02*
X114962500Y-41275000D01*
X114962500Y-53975000D02*
X114962500Y-52197000D01*
X116740500Y-53975000D02*
X114962500Y-53975000D01*
X127662500Y-53975000D02*
X125884500Y-53975000D01*
X127662500Y-52197000D02*
X127662500Y-53975000D01*
X127662500Y-41275000D02*
X127662500Y-43053000D01*
X125884500Y-41275000D02*
X127662500Y-41275000D01*
X114962500Y-41275000D02*
X116740500Y-41275000D01*
X114962500Y-62084250D02*
X114962500Y-60306250D01*
X114962500Y-73006250D02*
X114962500Y-71228250D01*
X116740500Y-73006250D02*
X114962500Y-73006250D01*
X127662500Y-73006250D02*
X125884500Y-73006250D01*
X127662500Y-71228250D02*
X127662500Y-73006250D01*
X127662500Y-60306250D02*
X127662500Y-62084250D01*
X125884500Y-60306250D02*
X127662500Y-60306250D01*
X114962500Y-60306250D02*
X116740500Y-60306250D01*
X191087500Y-81115500D02*
X191087500Y-79337500D01*
X191087500Y-92037500D02*
X191087500Y-90259500D01*
X192865500Y-92037500D02*
X191087500Y-92037500D01*
X203787500Y-92037500D02*
X202009500Y-92037500D01*
X203787500Y-90259500D02*
X203787500Y-92037500D01*
X203787500Y-79337500D02*
X203787500Y-81115500D01*
X202009500Y-79337500D02*
X203787500Y-79337500D01*
X191087500Y-79337500D02*
X192865500Y-79337500D01*
X191087500Y-98368750D02*
X192865500Y-98368750D01*
X202009500Y-98368750D02*
X203787500Y-98368750D01*
X203787500Y-98368750D02*
X203787500Y-100146750D01*
X203787500Y-109290750D02*
X203787500Y-111068750D01*
X203787500Y-111068750D02*
X202009500Y-111068750D01*
X192865500Y-111068750D02*
X191087500Y-111068750D01*
X191087500Y-111068750D02*
X191087500Y-109290750D01*
X191087500Y-100146750D02*
X191087500Y-98368750D01*
X172056250Y-81115500D02*
X172056250Y-79337500D01*
X172056250Y-92037500D02*
X172056250Y-90259500D01*
X173834250Y-92037500D02*
X172056250Y-92037500D01*
X184756250Y-92037500D02*
X182978250Y-92037500D01*
X184756250Y-90259500D02*
X184756250Y-92037500D01*
X184756250Y-79337500D02*
X184756250Y-81115500D01*
X182978250Y-79337500D02*
X184756250Y-79337500D01*
X172056250Y-79337500D02*
X173834250Y-79337500D01*
X172056250Y-98368750D02*
X173834250Y-98368750D01*
X182978250Y-98368750D02*
X184756250Y-98368750D01*
X184756250Y-98368750D02*
X184756250Y-100146750D01*
X184756250Y-109290750D02*
X184756250Y-111068750D01*
X184756250Y-111068750D02*
X182978250Y-111068750D01*
X173834250Y-111068750D02*
X172056250Y-111068750D01*
X172056250Y-111068750D02*
X172056250Y-109290750D01*
X172056250Y-100146750D02*
X172056250Y-98368750D01*
X153025000Y-79337500D02*
X154803000Y-79337500D01*
X163947000Y-79337500D02*
X165725000Y-79337500D01*
X165725000Y-79337500D02*
X165725000Y-81115500D01*
X165725000Y-90259500D02*
X165725000Y-92037500D01*
X165725000Y-92037500D02*
X163947000Y-92037500D01*
X154803000Y-92037500D02*
X153025000Y-92037500D01*
X153025000Y-92037500D02*
X153025000Y-90259500D01*
X153025000Y-81115500D02*
X153025000Y-79337500D01*
X153025000Y-98368750D02*
X154803000Y-98368750D01*
X163947000Y-98368750D02*
X165725000Y-98368750D01*
X165725000Y-98368750D02*
X165725000Y-100146750D01*
X165725000Y-109290750D02*
X165725000Y-111068750D01*
X165725000Y-111068750D02*
X163947000Y-111068750D01*
X154803000Y-111068750D02*
X153025000Y-111068750D01*
X153025000Y-111068750D02*
X153025000Y-109290750D01*
X153025000Y-100146750D02*
X153025000Y-98368750D01*
X143462500Y-119178000D02*
X143462500Y-117400000D01*
X143462500Y-130100000D02*
X143462500Y-128322000D01*
X145240500Y-130100000D02*
X143462500Y-130100000D01*
X156162500Y-130100000D02*
X154384500Y-130100000D01*
X156162500Y-128322000D02*
X156162500Y-130100000D01*
X156162500Y-117400000D02*
X156162500Y-119178000D01*
X154384500Y-117400000D02*
X156162500Y-117400000D01*
X143462500Y-117400000D02*
X145240500Y-117400000D01*
X114962500Y-100146750D02*
X114962500Y-98368750D01*
X114962500Y-111068750D02*
X114962500Y-109290750D01*
X116740500Y-111068750D02*
X114962500Y-111068750D01*
X127662500Y-111068750D02*
X125884500Y-111068750D01*
X127662500Y-109290750D02*
X127662500Y-111068750D01*
X127662500Y-98368750D02*
X127662500Y-100146750D01*
X125884500Y-98368750D02*
X127662500Y-98368750D01*
X114962500Y-98368750D02*
X116740500Y-98368750D01*
D13*
X114893750Y-103206000D02*
G75*
G03X114643750Y-102956000I-250000J0D01*
G01*
X112043750Y-102956000D02*
G75*
G03X111793750Y-103206000I0J-250000D01*
G01*
X112043750Y-102956000D02*
X114643750Y-102956000D01*
X111793750Y-125394000D02*
X111793750Y-103206000D01*
X112043750Y-125644000D02*
X114643750Y-125644000D01*
X114893750Y-125394000D02*
X114893750Y-103206000D01*
X114643750Y-125644000D02*
G75*
G03X114893750Y-125394000I0J250000D01*
G01*
X111793750Y-125394000D02*
G75*
G03X112043750Y-125644000I250000J0D01*
G01*
X203950000Y-125394000D02*
G75*
G03X204200000Y-125644000I250000J0D01*
G01*
X206800000Y-125644000D02*
G75*
G03X207050000Y-125394000I0J250000D01*
G01*
X207050000Y-125394000D02*
X207050000Y-103206000D01*
X204200000Y-125644000D02*
X206800000Y-125644000D01*
X203950000Y-125394000D02*
X203950000Y-103206000D01*
X204200000Y-102956000D02*
X206800000Y-102956000D01*
X204200000Y-102956000D02*
G75*
G03X203950000Y-103206000I0J-250000D01*
G01*
X207050000Y-103206000D02*
G75*
G03X206800000Y-102956000I-250000J0D01*
G01*
D12*
X153025000Y-117400000D02*
X154803000Y-117400000D01*
X163947000Y-117400000D02*
X165725000Y-117400000D01*
X165725000Y-117400000D02*
X165725000Y-119178000D01*
X165725000Y-128322000D02*
X165725000Y-130100000D01*
X165725000Y-130100000D02*
X163947000Y-130100000D01*
X154803000Y-130100000D02*
X153025000Y-130100000D01*
X153025000Y-130100000D02*
X153025000Y-128322000D01*
X153025000Y-119178000D02*
X153025000Y-117400000D01*
D14*
X138130321Y-90262023D02*
X138130321Y-88992023D01*
X139001178Y-90262023D02*
X138348035Y-89536309D01*
X139001178Y-88992023D02*
X138130321Y-89717738D01*
X139509178Y-88992023D02*
X140452607Y-88992023D01*
X139944607Y-89475833D01*
X140162321Y-89475833D01*
X140307464Y-89536309D01*
X140380035Y-89596785D01*
X140452607Y-89717738D01*
X140452607Y-90020119D01*
X140380035Y-90141071D01*
X140307464Y-90201547D01*
X140162321Y-90262023D01*
X139726892Y-90262023D01*
X139581750Y-90201547D01*
X139509178Y-90141071D01*
X141105750Y-90141071D02*
X141178321Y-90201547D01*
X141105750Y-90262023D01*
X141033178Y-90201547D01*
X141105750Y-90141071D01*
X141105750Y-90262023D01*
X141758892Y-89112976D02*
X141831464Y-89052500D01*
X141976607Y-88992023D01*
X142339464Y-88992023D01*
X142484607Y-89052500D01*
X142557178Y-89112976D01*
X142629750Y-89233928D01*
X142629750Y-89354880D01*
X142557178Y-89536309D01*
X141686321Y-90262023D01*
X142629750Y-90262023D01*
X195224071Y-52199523D02*
X195224071Y-50929523D01*
X196094928Y-52199523D02*
X195441785Y-51473809D01*
X196094928Y-50929523D02*
X195224071Y-51655238D01*
X197546357Y-52199523D02*
X196675500Y-52199523D01*
X197110928Y-52199523D02*
X197110928Y-50929523D01*
X196965785Y-51110952D01*
X196820642Y-51231904D01*
X196675500Y-51292380D01*
X198199500Y-52078571D02*
X198272071Y-52139047D01*
X198199500Y-52199523D01*
X198126928Y-52139047D01*
X198199500Y-52078571D01*
X198199500Y-52199523D01*
X199650928Y-50929523D02*
X198925214Y-50929523D01*
X198852642Y-51534285D01*
X198925214Y-51473809D01*
X199070357Y-51413333D01*
X199433214Y-51413333D01*
X199578357Y-51473809D01*
X199650928Y-51534285D01*
X199723500Y-51655238D01*
X199723500Y-51957619D01*
X199650928Y-52078571D01*
X199578357Y-52139047D01*
X199433214Y-52199523D01*
X199070357Y-52199523D01*
X198925214Y-52139047D01*
X198852642Y-52078571D01*
X138130321Y-71230773D02*
X138130321Y-69960773D01*
X139001178Y-71230773D02*
X138348035Y-70505059D01*
X139001178Y-69960773D02*
X138130321Y-70686488D01*
X139581750Y-70081726D02*
X139654321Y-70021250D01*
X139799464Y-69960773D01*
X140162321Y-69960773D01*
X140307464Y-70021250D01*
X140380035Y-70081726D01*
X140452607Y-70202678D01*
X140452607Y-70323630D01*
X140380035Y-70505059D01*
X139509178Y-71230773D01*
X140452607Y-71230773D01*
X141105750Y-71109821D02*
X141178321Y-71170297D01*
X141105750Y-71230773D01*
X141033178Y-71170297D01*
X141105750Y-71109821D01*
X141105750Y-71230773D01*
X141758892Y-70081726D02*
X141831464Y-70021250D01*
X141976607Y-69960773D01*
X142339464Y-69960773D01*
X142484607Y-70021250D01*
X142557178Y-70081726D01*
X142629750Y-70202678D01*
X142629750Y-70323630D01*
X142557178Y-70505059D01*
X141686321Y-71230773D01*
X142629750Y-71230773D01*
X119099071Y-90262023D02*
X119099071Y-88992023D01*
X119969928Y-90262023D02*
X119316785Y-89536309D01*
X119969928Y-88992023D02*
X119099071Y-89717738D01*
X120477928Y-88992023D02*
X121421357Y-88992023D01*
X120913357Y-89475833D01*
X121131071Y-89475833D01*
X121276214Y-89536309D01*
X121348785Y-89596785D01*
X121421357Y-89717738D01*
X121421357Y-90020119D01*
X121348785Y-90141071D01*
X121276214Y-90201547D01*
X121131071Y-90262023D01*
X120695642Y-90262023D01*
X120550500Y-90201547D01*
X120477928Y-90141071D01*
X122074500Y-90141071D02*
X122147071Y-90201547D01*
X122074500Y-90262023D01*
X122001928Y-90201547D01*
X122074500Y-90141071D01*
X122074500Y-90262023D01*
X123598500Y-90262023D02*
X122727642Y-90262023D01*
X123163071Y-90262023D02*
X123163071Y-88992023D01*
X123017928Y-89173452D01*
X122872785Y-89294404D01*
X122727642Y-89354880D01*
X157161571Y-71230773D02*
X157161571Y-69960773D01*
X158032428Y-71230773D02*
X157379285Y-70505059D01*
X158032428Y-69960773D02*
X157161571Y-70686488D01*
X158613000Y-70081726D02*
X158685571Y-70021250D01*
X158830714Y-69960773D01*
X159193571Y-69960773D01*
X159338714Y-70021250D01*
X159411285Y-70081726D01*
X159483857Y-70202678D01*
X159483857Y-70323630D01*
X159411285Y-70505059D01*
X158540428Y-71230773D01*
X159483857Y-71230773D01*
X160137000Y-71109821D02*
X160209571Y-71170297D01*
X160137000Y-71230773D01*
X160064428Y-71170297D01*
X160137000Y-71109821D01*
X160137000Y-71230773D01*
X160717571Y-69960773D02*
X161661000Y-69960773D01*
X161153000Y-70444583D01*
X161370714Y-70444583D01*
X161515857Y-70505059D01*
X161588428Y-70565535D01*
X161661000Y-70686488D01*
X161661000Y-70988869D01*
X161588428Y-71109821D01*
X161515857Y-71170297D01*
X161370714Y-71230773D01*
X160935285Y-71230773D01*
X160790142Y-71170297D01*
X160717571Y-71109821D01*
X176192821Y-71230773D02*
X176192821Y-69960773D01*
X177063678Y-71230773D02*
X176410535Y-70505059D01*
X177063678Y-69960773D02*
X176192821Y-70686488D01*
X177644250Y-70081726D02*
X177716821Y-70021250D01*
X177861964Y-69960773D01*
X178224821Y-69960773D01*
X178369964Y-70021250D01*
X178442535Y-70081726D01*
X178515107Y-70202678D01*
X178515107Y-70323630D01*
X178442535Y-70505059D01*
X177571678Y-71230773D01*
X178515107Y-71230773D01*
X179168250Y-71109821D02*
X179240821Y-71170297D01*
X179168250Y-71230773D01*
X179095678Y-71170297D01*
X179168250Y-71109821D01*
X179168250Y-71230773D01*
X180547107Y-70384107D02*
X180547107Y-71230773D01*
X180184250Y-69900297D02*
X179821392Y-70807440D01*
X180764821Y-70807440D01*
X195224071Y-71230773D02*
X195224071Y-69960773D01*
X196094928Y-71230773D02*
X195441785Y-70505059D01*
X196094928Y-69960773D02*
X195224071Y-70686488D01*
X196675500Y-70081726D02*
X196748071Y-70021250D01*
X196893214Y-69960773D01*
X197256071Y-69960773D01*
X197401214Y-70021250D01*
X197473785Y-70081726D01*
X197546357Y-70202678D01*
X197546357Y-70323630D01*
X197473785Y-70505059D01*
X196602928Y-71230773D01*
X197546357Y-71230773D01*
X198199500Y-71109821D02*
X198272071Y-71170297D01*
X198199500Y-71230773D01*
X198126928Y-71170297D01*
X198199500Y-71109821D01*
X198199500Y-71230773D01*
X199650928Y-69960773D02*
X198925214Y-69960773D01*
X198852642Y-70565535D01*
X198925214Y-70505059D01*
X199070357Y-70444583D01*
X199433214Y-70444583D01*
X199578357Y-70505059D01*
X199650928Y-70565535D01*
X199723500Y-70686488D01*
X199723500Y-70988869D01*
X199650928Y-71109821D01*
X199578357Y-71170297D01*
X199433214Y-71230773D01*
X199070357Y-71230773D01*
X198925214Y-71170297D01*
X198852642Y-71109821D01*
X123880321Y-127499523D02*
X123880321Y-126229523D01*
X124751178Y-127499523D02*
X124098035Y-126773809D01*
X124751178Y-126229523D02*
X123880321Y-126955238D01*
X126130035Y-126229523D02*
X125404321Y-126229523D01*
X125331750Y-126834285D01*
X125404321Y-126773809D01*
X125549464Y-126713333D01*
X125912321Y-126713333D01*
X126057464Y-126773809D01*
X126130035Y-126834285D01*
X126202607Y-126955238D01*
X126202607Y-127257619D01*
X126130035Y-127378571D01*
X126057464Y-127439047D01*
X125912321Y-127499523D01*
X125549464Y-127499523D01*
X125404321Y-127439047D01*
X125331750Y-127378571D01*
X126855750Y-127378571D02*
X126928321Y-127439047D01*
X126855750Y-127499523D01*
X126783178Y-127439047D01*
X126855750Y-127378571D01*
X126855750Y-127499523D01*
X128379750Y-127499523D02*
X127508892Y-127499523D01*
X127944321Y-127499523D02*
X127944321Y-126229523D01*
X127799178Y-126410952D01*
X127654035Y-126531904D01*
X127508892Y-126592380D01*
X171411571Y-127499523D02*
X171411571Y-126229523D01*
X172282428Y-127499523D02*
X171629285Y-126773809D01*
X172282428Y-126229523D02*
X171411571Y-126955238D01*
X173661285Y-126229523D02*
X172935571Y-126229523D01*
X172863000Y-126834285D01*
X172935571Y-126773809D01*
X173080714Y-126713333D01*
X173443571Y-126713333D01*
X173588714Y-126773809D01*
X173661285Y-126834285D01*
X173733857Y-126955238D01*
X173733857Y-127257619D01*
X173661285Y-127378571D01*
X173588714Y-127439047D01*
X173443571Y-127499523D01*
X173080714Y-127499523D01*
X172935571Y-127439047D01*
X172863000Y-127378571D01*
X174387000Y-127378571D02*
X174459571Y-127439047D01*
X174387000Y-127499523D01*
X174314428Y-127439047D01*
X174387000Y-127378571D01*
X174387000Y-127499523D01*
X175765857Y-126652857D02*
X175765857Y-127499523D01*
X175403000Y-126169047D02*
X175040142Y-127076190D01*
X175983571Y-127076190D01*
X138130321Y-108468273D02*
X138130321Y-107198273D01*
X139001178Y-108468273D02*
X138348035Y-107742559D01*
X139001178Y-107198273D02*
X138130321Y-107923988D01*
X140307464Y-107621607D02*
X140307464Y-108468273D01*
X139944607Y-107137797D02*
X139581750Y-108044940D01*
X140525178Y-108044940D01*
X141105750Y-108347321D02*
X141178321Y-108407797D01*
X141105750Y-108468273D01*
X141033178Y-108407797D01*
X141105750Y-108347321D01*
X141105750Y-108468273D01*
X141758892Y-107319226D02*
X141831464Y-107258750D01*
X141976607Y-107198273D01*
X142339464Y-107198273D01*
X142484607Y-107258750D01*
X142557178Y-107319226D01*
X142629750Y-107440178D01*
X142629750Y-107561130D01*
X142557178Y-107742559D01*
X141686321Y-108468273D01*
X142629750Y-108468273D01*
D10*
X203015857Y-61911904D02*
X203015857Y-62178571D01*
X203434904Y-62178571D02*
X202634904Y-62178571D01*
X202634904Y-61797619D01*
X203434904Y-61492857D02*
X202901571Y-61492857D01*
X203053952Y-61492857D02*
X202977761Y-61454761D01*
X202939666Y-61416666D01*
X202901571Y-61340476D01*
X202901571Y-61264285D01*
X203434904Y-60883333D02*
X203396809Y-60959523D01*
X203358714Y-60997619D01*
X203282523Y-61035714D01*
X203053952Y-61035714D01*
X202977761Y-60997619D01*
X202939666Y-60959523D01*
X202901571Y-60883333D01*
X202901571Y-60769047D01*
X202939666Y-60692857D01*
X202977761Y-60654761D01*
X203053952Y-60616666D01*
X203282523Y-60616666D01*
X203358714Y-60654761D01*
X203396809Y-60692857D01*
X203434904Y-60769047D01*
X203434904Y-60883333D01*
X203434904Y-60273809D02*
X202901571Y-60273809D01*
X202977761Y-60273809D02*
X202939666Y-60235714D01*
X202901571Y-60159523D01*
X202901571Y-60045238D01*
X202939666Y-59969047D01*
X203015857Y-59930952D01*
X203434904Y-59930952D01*
X203015857Y-59930952D02*
X202939666Y-59892857D01*
X202901571Y-59816666D01*
X202901571Y-59702380D01*
X202939666Y-59626190D01*
X203015857Y-59588095D01*
X203434904Y-59588095D01*
X203358714Y-58140476D02*
X203396809Y-58178571D01*
X203434904Y-58292857D01*
X203434904Y-58369047D01*
X203396809Y-58483333D01*
X203320619Y-58559523D01*
X203244428Y-58597619D01*
X203092047Y-58635714D01*
X202977761Y-58635714D01*
X202825380Y-58597619D01*
X202749190Y-58559523D01*
X202673000Y-58483333D01*
X202634904Y-58369047D01*
X202634904Y-58292857D01*
X202673000Y-58178571D01*
X202711095Y-58140476D01*
X203396809Y-57492857D02*
X203434904Y-57569047D01*
X203434904Y-57721428D01*
X203396809Y-57797619D01*
X203320619Y-57835714D01*
X203015857Y-57835714D01*
X202939666Y-57797619D01*
X202901571Y-57721428D01*
X202901571Y-57569047D01*
X202939666Y-57492857D01*
X203015857Y-57454761D01*
X203092047Y-57454761D01*
X203168238Y-57835714D01*
X202901571Y-57111904D02*
X203434904Y-57111904D01*
X202977761Y-57111904D02*
X202939666Y-57073809D01*
X202901571Y-56997619D01*
X202901571Y-56883333D01*
X202939666Y-56807142D01*
X203015857Y-56769047D01*
X203434904Y-56769047D01*
X202901571Y-56502380D02*
X202901571Y-56197619D01*
X202634904Y-56388095D02*
X203320619Y-56388095D01*
X203396809Y-56350000D01*
X203434904Y-56273809D01*
X203434904Y-56197619D01*
X203396809Y-55626190D02*
X203434904Y-55702380D01*
X203434904Y-55854761D01*
X203396809Y-55930952D01*
X203320619Y-55969047D01*
X203015857Y-55969047D01*
X202939666Y-55930952D01*
X202901571Y-55854761D01*
X202901571Y-55702380D01*
X202939666Y-55626190D01*
X203015857Y-55588095D01*
X203092047Y-55588095D01*
X203168238Y-55969047D01*
X203434904Y-55245238D02*
X202901571Y-55245238D01*
X203053952Y-55245238D02*
X202977761Y-55207142D01*
X202939666Y-55169047D01*
X202901571Y-55092857D01*
X202901571Y-55016666D01*
X203434904Y-54140476D02*
X202634904Y-54140476D01*
X202634904Y-53835714D01*
X202673000Y-53759523D01*
X202711095Y-53721428D01*
X202787285Y-53683333D01*
X202901571Y-53683333D01*
X202977761Y-53721428D01*
X203015857Y-53759523D01*
X203053952Y-53835714D01*
X203053952Y-54140476D01*
X203358714Y-52883333D02*
X203396809Y-52921428D01*
X203434904Y-53035714D01*
X203434904Y-53111904D01*
X203396809Y-53226190D01*
X203320619Y-53302380D01*
X203244428Y-53340476D01*
X203092047Y-53378571D01*
X202977761Y-53378571D01*
X202825380Y-53340476D01*
X202749190Y-53302380D01*
X202673000Y-53226190D01*
X202634904Y-53111904D01*
X202634904Y-53035714D01*
X202673000Y-52921428D01*
X202711095Y-52883333D01*
X203015857Y-52273809D02*
X203053952Y-52159523D01*
X203092047Y-52121428D01*
X203168238Y-52083333D01*
X203282523Y-52083333D01*
X203358714Y-52121428D01*
X203396809Y-52159523D01*
X203434904Y-52235714D01*
X203434904Y-52540476D01*
X202634904Y-52540476D01*
X202634904Y-52273809D01*
X202673000Y-52197619D01*
X202711095Y-52159523D01*
X202787285Y-52121428D01*
X202863476Y-52121428D01*
X202939666Y-52159523D01*
X202977761Y-52197619D01*
X203015857Y-52273809D01*
X203015857Y-52540476D01*
X151618904Y-48215476D02*
X150818904Y-48215476D01*
X150818904Y-48025000D01*
X150857000Y-47910714D01*
X150933190Y-47834523D01*
X151009380Y-47796428D01*
X151161761Y-47758333D01*
X151276047Y-47758333D01*
X151428428Y-47796428D01*
X151504619Y-47834523D01*
X151580809Y-47910714D01*
X151618904Y-48025000D01*
X151618904Y-48215476D01*
X151618904Y-46996428D02*
X151618904Y-47453571D01*
X151618904Y-47225000D02*
X150818904Y-47225000D01*
X150933190Y-47301190D01*
X151009380Y-47377380D01*
X151047476Y-47453571D01*
X129643154Y-67246726D02*
X128843154Y-67246726D01*
X128843154Y-67056250D01*
X128881250Y-66941964D01*
X128957440Y-66865773D01*
X129033630Y-66827678D01*
X129186011Y-66789583D01*
X129300297Y-66789583D01*
X129452678Y-66827678D01*
X129528869Y-66865773D01*
X129605059Y-66941964D01*
X129643154Y-67056250D01*
X129643154Y-67246726D01*
X128919345Y-66484821D02*
X128881250Y-66446726D01*
X128843154Y-66370535D01*
X128843154Y-66180059D01*
X128881250Y-66103869D01*
X128919345Y-66065773D01*
X128995535Y-66027678D01*
X129071726Y-66027678D01*
X129186011Y-66065773D01*
X129643154Y-66522916D01*
X129643154Y-66027678D01*
X189736904Y-48215476D02*
X188936904Y-48215476D01*
X188936904Y-48025000D01*
X188975000Y-47910714D01*
X189051190Y-47834523D01*
X189127380Y-47796428D01*
X189279761Y-47758333D01*
X189394047Y-47758333D01*
X189546428Y-47796428D01*
X189622619Y-47834523D01*
X189698809Y-47910714D01*
X189736904Y-48025000D01*
X189736904Y-48215476D01*
X188936904Y-47491666D02*
X188936904Y-46996428D01*
X189241666Y-47263095D01*
X189241666Y-47148809D01*
X189279761Y-47072619D01*
X189317857Y-47034523D01*
X189394047Y-46996428D01*
X189584523Y-46996428D01*
X189660714Y-47034523D01*
X189698809Y-47072619D01*
X189736904Y-47148809D01*
X189736904Y-47377380D01*
X189698809Y-47453571D01*
X189660714Y-47491666D01*
X186736904Y-86277976D02*
X185936904Y-86277976D01*
X185936904Y-86087500D01*
X185975000Y-85973214D01*
X186051190Y-85897023D01*
X186127380Y-85858928D01*
X186279761Y-85820833D01*
X186394047Y-85820833D01*
X186546428Y-85858928D01*
X186622619Y-85897023D01*
X186698809Y-85973214D01*
X186736904Y-86087500D01*
X186736904Y-86277976D01*
X186203571Y-85135119D02*
X186736904Y-85135119D01*
X185898809Y-85325595D02*
X186470238Y-85516071D01*
X186470238Y-85020833D01*
X132736904Y-105309226D02*
X131936904Y-105309226D01*
X131936904Y-105118750D01*
X131975000Y-105004464D01*
X132051190Y-104928273D01*
X132127380Y-104890178D01*
X132279761Y-104852083D01*
X132394047Y-104852083D01*
X132546428Y-104890178D01*
X132622619Y-104928273D01*
X132698809Y-105004464D01*
X132736904Y-105118750D01*
X132736904Y-105309226D01*
X131936904Y-104128273D02*
X131936904Y-104509226D01*
X132317857Y-104547321D01*
X132279761Y-104509226D01*
X132241666Y-104433035D01*
X132241666Y-104242559D01*
X132279761Y-104166369D01*
X132317857Y-104128273D01*
X132394047Y-104090178D01*
X132584523Y-104090178D01*
X132660714Y-104128273D01*
X132698809Y-104166369D01*
X132736904Y-104242559D01*
X132736904Y-104433035D01*
X132698809Y-104509226D01*
X132660714Y-104547321D01*
X129643154Y-86277976D02*
X128843154Y-86277976D01*
X128843154Y-86087500D01*
X128881250Y-85973214D01*
X128957440Y-85897023D01*
X129033630Y-85858928D01*
X129186011Y-85820833D01*
X129300297Y-85820833D01*
X129452678Y-85858928D01*
X129528869Y-85897023D01*
X129605059Y-85973214D01*
X129643154Y-86087500D01*
X129643154Y-86277976D01*
X128843154Y-85135119D02*
X128843154Y-85287500D01*
X128881250Y-85363690D01*
X128919345Y-85401785D01*
X129033630Y-85477976D01*
X129186011Y-85516071D01*
X129490773Y-85516071D01*
X129566964Y-85477976D01*
X129605059Y-85439880D01*
X129643154Y-85363690D01*
X129643154Y-85211309D01*
X129605059Y-85135119D01*
X129566964Y-85097023D01*
X129490773Y-85058928D01*
X129300297Y-85058928D01*
X129224107Y-85097023D01*
X129186011Y-85135119D01*
X129147916Y-85211309D01*
X129147916Y-85363690D01*
X129186011Y-85439880D01*
X129224107Y-85477976D01*
X129300297Y-85516071D01*
X148951904Y-48215476D02*
X148151904Y-48215476D01*
X148151904Y-48025000D01*
X148190000Y-47910714D01*
X148266190Y-47834523D01*
X148342380Y-47796428D01*
X148494761Y-47758333D01*
X148609047Y-47758333D01*
X148761428Y-47796428D01*
X148837619Y-47834523D01*
X148913809Y-47910714D01*
X148951904Y-48025000D01*
X148951904Y-48215476D01*
X148151904Y-47491666D02*
X148151904Y-46958333D01*
X148951904Y-47301190D01*
X189736904Y-67246726D02*
X188936904Y-67246726D01*
X188936904Y-67056250D01*
X188975000Y-66941964D01*
X189051190Y-66865773D01*
X189127380Y-66827678D01*
X189279761Y-66789583D01*
X189394047Y-66789583D01*
X189546428Y-66827678D01*
X189622619Y-66865773D01*
X189698809Y-66941964D01*
X189736904Y-67056250D01*
X189736904Y-67246726D01*
X189279761Y-66332440D02*
X189241666Y-66408630D01*
X189203571Y-66446726D01*
X189127380Y-66484821D01*
X189089285Y-66484821D01*
X189013095Y-66446726D01*
X188975000Y-66408630D01*
X188936904Y-66332440D01*
X188936904Y-66180059D01*
X188975000Y-66103869D01*
X189013095Y-66065773D01*
X189089285Y-66027678D01*
X189127380Y-66027678D01*
X189203571Y-66065773D01*
X189241666Y-66103869D01*
X189279761Y-66180059D01*
X189279761Y-66332440D01*
X189317857Y-66408630D01*
X189355952Y-66446726D01*
X189432142Y-66484821D01*
X189584523Y-66484821D01*
X189660714Y-66446726D01*
X189698809Y-66408630D01*
X189736904Y-66332440D01*
X189736904Y-66180059D01*
X189698809Y-66103869D01*
X189660714Y-66065773D01*
X189584523Y-66027678D01*
X189432142Y-66027678D01*
X189355952Y-66065773D01*
X189317857Y-66103869D01*
X189279761Y-66180059D01*
X170799404Y-105309226D02*
X169999404Y-105309226D01*
X169999404Y-105118750D01*
X170037500Y-105004464D01*
X170113690Y-104928273D01*
X170189880Y-104890178D01*
X170342261Y-104852083D01*
X170456547Y-104852083D01*
X170608928Y-104890178D01*
X170685119Y-104928273D01*
X170761309Y-105004464D01*
X170799404Y-105118750D01*
X170799404Y-105309226D01*
X170799404Y-104471130D02*
X170799404Y-104318750D01*
X170761309Y-104242559D01*
X170723214Y-104204464D01*
X170608928Y-104128273D01*
X170456547Y-104090178D01*
X170151785Y-104090178D01*
X170075595Y-104128273D01*
X170037500Y-104166369D01*
X169999404Y-104242559D01*
X169999404Y-104394940D01*
X170037500Y-104471130D01*
X170075595Y-104509226D01*
X170151785Y-104547321D01*
X170342261Y-104547321D01*
X170418452Y-104509226D01*
X170456547Y-104471130D01*
X170494642Y-104394940D01*
X170494642Y-104242559D01*
X170456547Y-104166369D01*
X170418452Y-104128273D01*
X170342261Y-104090178D01*
X129643154Y-105690178D02*
X128843154Y-105690178D01*
X128843154Y-105499702D01*
X128881250Y-105385416D01*
X128957440Y-105309226D01*
X129033630Y-105271130D01*
X129186011Y-105233035D01*
X129300297Y-105233035D01*
X129452678Y-105271130D01*
X129528869Y-105309226D01*
X129605059Y-105385416D01*
X129643154Y-105499702D01*
X129643154Y-105690178D01*
X129643154Y-104471130D02*
X129643154Y-104928273D01*
X129643154Y-104699702D02*
X128843154Y-104699702D01*
X128957440Y-104775892D01*
X129033630Y-104852083D01*
X129071726Y-104928273D01*
X128843154Y-103975892D02*
X128843154Y-103899702D01*
X128881250Y-103823511D01*
X128919345Y-103785416D01*
X128995535Y-103747321D01*
X129147916Y-103709226D01*
X129338392Y-103709226D01*
X129490773Y-103747321D01*
X129566964Y-103785416D01*
X129605059Y-103823511D01*
X129643154Y-103899702D01*
X129643154Y-103975892D01*
X129605059Y-104052083D01*
X129566964Y-104090178D01*
X129490773Y-104128273D01*
X129338392Y-104166369D01*
X129147916Y-104166369D01*
X128995535Y-104128273D01*
X128919345Y-104090178D01*
X128881250Y-104052083D01*
X128843154Y-103975892D01*
X132643154Y-67627678D02*
X131843154Y-67627678D01*
X131843154Y-67437202D01*
X131881250Y-67322916D01*
X131957440Y-67246726D01*
X132033630Y-67208630D01*
X132186011Y-67170535D01*
X132300297Y-67170535D01*
X132452678Y-67208630D01*
X132528869Y-67246726D01*
X132605059Y-67322916D01*
X132643154Y-67437202D01*
X132643154Y-67627678D01*
X132643154Y-66408630D02*
X132643154Y-66865773D01*
X132643154Y-66637202D02*
X131843154Y-66637202D01*
X131957440Y-66713392D01*
X132033630Y-66789583D01*
X132071726Y-66865773D01*
X132643154Y-65646726D02*
X132643154Y-66103869D01*
X132643154Y-65875297D02*
X131843154Y-65875297D01*
X131957440Y-65951488D01*
X132033630Y-66027678D01*
X132071726Y-66103869D01*
X132736904Y-86658928D02*
X131936904Y-86658928D01*
X131936904Y-86468452D01*
X131975000Y-86354166D01*
X132051190Y-86277976D01*
X132127380Y-86239880D01*
X132279761Y-86201785D01*
X132394047Y-86201785D01*
X132546428Y-86239880D01*
X132622619Y-86277976D01*
X132698809Y-86354166D01*
X132736904Y-86468452D01*
X132736904Y-86658928D01*
X132736904Y-85439880D02*
X132736904Y-85897023D01*
X132736904Y-85668452D02*
X131936904Y-85668452D01*
X132051190Y-85744642D01*
X132127380Y-85820833D01*
X132165476Y-85897023D01*
X132013095Y-85135119D02*
X131975000Y-85097023D01*
X131936904Y-85020833D01*
X131936904Y-84830357D01*
X131975000Y-84754166D01*
X132013095Y-84716071D01*
X132089285Y-84677976D01*
X132165476Y-84677976D01*
X132279761Y-84716071D01*
X132736904Y-85173214D01*
X132736904Y-84677976D01*
X189830654Y-86658928D02*
X189030654Y-86658928D01*
X189030654Y-86468452D01*
X189068750Y-86354166D01*
X189144940Y-86277976D01*
X189221130Y-86239880D01*
X189373511Y-86201785D01*
X189487797Y-86201785D01*
X189640178Y-86239880D01*
X189716369Y-86277976D01*
X189792559Y-86354166D01*
X189830654Y-86468452D01*
X189830654Y-86658928D01*
X189830654Y-85439880D02*
X189830654Y-85897023D01*
X189830654Y-85668452D02*
X189030654Y-85668452D01*
X189144940Y-85744642D01*
X189221130Y-85820833D01*
X189259226Y-85897023D01*
X189030654Y-85173214D02*
X189030654Y-84677976D01*
X189335416Y-84944642D01*
X189335416Y-84830357D01*
X189373511Y-84754166D01*
X189411607Y-84716071D01*
X189487797Y-84677976D01*
X189678273Y-84677976D01*
X189754464Y-84716071D01*
X189792559Y-84754166D01*
X189830654Y-84830357D01*
X189830654Y-85058928D01*
X189792559Y-85135119D01*
X189754464Y-85173214D01*
X181955654Y-124721428D02*
X181155654Y-124721428D01*
X181155654Y-124530952D01*
X181193750Y-124416666D01*
X181269940Y-124340476D01*
X181346130Y-124302380D01*
X181498511Y-124264285D01*
X181612797Y-124264285D01*
X181765178Y-124302380D01*
X181841369Y-124340476D01*
X181917559Y-124416666D01*
X181955654Y-124530952D01*
X181955654Y-124721428D01*
X181955654Y-123502380D02*
X181955654Y-123959523D01*
X181955654Y-123730952D02*
X181155654Y-123730952D01*
X181269940Y-123807142D01*
X181346130Y-123883333D01*
X181384226Y-123959523D01*
X181422321Y-122816666D02*
X181955654Y-122816666D01*
X181117559Y-123007142D02*
X181688988Y-123197619D01*
X181688988Y-122702380D01*
X134518154Y-124721428D02*
X133718154Y-124721428D01*
X133718154Y-124530952D01*
X133756250Y-124416666D01*
X133832440Y-124340476D01*
X133908630Y-124302380D01*
X134061011Y-124264285D01*
X134175297Y-124264285D01*
X134327678Y-124302380D01*
X134403869Y-124340476D01*
X134480059Y-124416666D01*
X134518154Y-124530952D01*
X134518154Y-124721428D01*
X134518154Y-123502380D02*
X134518154Y-123959523D01*
X134518154Y-123730952D02*
X133718154Y-123730952D01*
X133832440Y-123807142D01*
X133908630Y-123883333D01*
X133946726Y-123959523D01*
X133718154Y-122778571D02*
X133718154Y-123159523D01*
X134099107Y-123197619D01*
X134061011Y-123159523D01*
X134022916Y-123083333D01*
X134022916Y-122892857D01*
X134061011Y-122816666D01*
X134099107Y-122778571D01*
X134175297Y-122740476D01*
X134365773Y-122740476D01*
X134441964Y-122778571D01*
X134480059Y-122816666D01*
X134518154Y-122892857D01*
X134518154Y-123083333D01*
X134480059Y-123159523D01*
X134441964Y-123197619D01*
X168001904Y-48596428D02*
X167201904Y-48596428D01*
X167201904Y-48405952D01*
X167240000Y-48291666D01*
X167316190Y-48215476D01*
X167392380Y-48177380D01*
X167544761Y-48139285D01*
X167659047Y-48139285D01*
X167811428Y-48177380D01*
X167887619Y-48215476D01*
X167963809Y-48291666D01*
X168001904Y-48405952D01*
X168001904Y-48596428D01*
X168001904Y-47377380D02*
X168001904Y-47834523D01*
X168001904Y-47605952D02*
X167201904Y-47605952D01*
X167316190Y-47682142D01*
X167392380Y-47758333D01*
X167430476Y-47834523D01*
X167201904Y-46691666D02*
X167201904Y-46844047D01*
X167240000Y-46920238D01*
X167278095Y-46958333D01*
X167392380Y-47034523D01*
X167544761Y-47072619D01*
X167849523Y-47072619D01*
X167925714Y-47034523D01*
X167963809Y-46996428D01*
X168001904Y-46920238D01*
X168001904Y-46767857D01*
X167963809Y-46691666D01*
X167925714Y-46653571D01*
X167849523Y-46615476D01*
X167659047Y-46615476D01*
X167582857Y-46653571D01*
X167544761Y-46691666D01*
X167506666Y-46767857D01*
X167506666Y-46920238D01*
X167544761Y-46996428D01*
X167582857Y-47034523D01*
X167659047Y-47072619D01*
X151674404Y-67627678D02*
X150874404Y-67627678D01*
X150874404Y-67437202D01*
X150912500Y-67322916D01*
X150988690Y-67246726D01*
X151064880Y-67208630D01*
X151217261Y-67170535D01*
X151331547Y-67170535D01*
X151483928Y-67208630D01*
X151560119Y-67246726D01*
X151636309Y-67322916D01*
X151674404Y-67437202D01*
X151674404Y-67627678D01*
X151674404Y-66408630D02*
X151674404Y-66865773D01*
X151674404Y-66637202D02*
X150874404Y-66637202D01*
X150988690Y-66713392D01*
X151064880Y-66789583D01*
X151102976Y-66865773D01*
X150874404Y-66141964D02*
X150874404Y-65608630D01*
X151674404Y-65951488D01*
X189736904Y-105690178D02*
X188936904Y-105690178D01*
X188936904Y-105499702D01*
X188975000Y-105385416D01*
X189051190Y-105309226D01*
X189127380Y-105271130D01*
X189279761Y-105233035D01*
X189394047Y-105233035D01*
X189546428Y-105271130D01*
X189622619Y-105309226D01*
X189698809Y-105385416D01*
X189736904Y-105499702D01*
X189736904Y-105690178D01*
X189736904Y-104471130D02*
X189736904Y-104928273D01*
X189736904Y-104699702D02*
X188936904Y-104699702D01*
X189051190Y-104775892D01*
X189127380Y-104852083D01*
X189165476Y-104928273D01*
X189279761Y-104013988D02*
X189241666Y-104090178D01*
X189203571Y-104128273D01*
X189127380Y-104166369D01*
X189089285Y-104166369D01*
X189013095Y-104128273D01*
X188975000Y-104090178D01*
X188936904Y-104013988D01*
X188936904Y-103861607D01*
X188975000Y-103785416D01*
X189013095Y-103747321D01*
X189089285Y-103709226D01*
X189127380Y-103709226D01*
X189203571Y-103747321D01*
X189241666Y-103785416D01*
X189279761Y-103861607D01*
X189279761Y-104013988D01*
X189317857Y-104090178D01*
X189355952Y-104128273D01*
X189432142Y-104166369D01*
X189584523Y-104166369D01*
X189660714Y-104128273D01*
X189698809Y-104090178D01*
X189736904Y-104013988D01*
X189736904Y-103861607D01*
X189698809Y-103785416D01*
X189660714Y-103747321D01*
X189584523Y-103709226D01*
X189432142Y-103709226D01*
X189355952Y-103747321D01*
X189317857Y-103785416D01*
X189279761Y-103861607D01*
X142205654Y-124721428D02*
X141405654Y-124721428D01*
X141405654Y-124530952D01*
X141443750Y-124416666D01*
X141519940Y-124340476D01*
X141596130Y-124302380D01*
X141748511Y-124264285D01*
X141862797Y-124264285D01*
X142015178Y-124302380D01*
X142091369Y-124340476D01*
X142167559Y-124416666D01*
X142205654Y-124530952D01*
X142205654Y-124721428D01*
X142205654Y-123502380D02*
X142205654Y-123959523D01*
X142205654Y-123730952D02*
X141405654Y-123730952D01*
X141519940Y-123807142D01*
X141596130Y-123883333D01*
X141634226Y-123959523D01*
X142205654Y-123121428D02*
X142205654Y-122969047D01*
X142167559Y-122892857D01*
X142129464Y-122854761D01*
X142015178Y-122778571D01*
X141862797Y-122740476D01*
X141558035Y-122740476D01*
X141481845Y-122778571D01*
X141443750Y-122816666D01*
X141405654Y-122892857D01*
X141405654Y-123045238D01*
X141443750Y-123121428D01*
X141481845Y-123159523D01*
X141558035Y-123197619D01*
X141748511Y-123197619D01*
X141824702Y-123159523D01*
X141862797Y-123121428D01*
X141900892Y-123045238D01*
X141900892Y-122892857D01*
X141862797Y-122816666D01*
X141824702Y-122778571D01*
X141748511Y-122740476D01*
X151768154Y-86658928D02*
X150968154Y-86658928D01*
X150968154Y-86468452D01*
X151006250Y-86354166D01*
X151082440Y-86277976D01*
X151158630Y-86239880D01*
X151311011Y-86201785D01*
X151425297Y-86201785D01*
X151577678Y-86239880D01*
X151653869Y-86277976D01*
X151730059Y-86354166D01*
X151768154Y-86468452D01*
X151768154Y-86658928D01*
X151044345Y-85897023D02*
X151006250Y-85858928D01*
X150968154Y-85782738D01*
X150968154Y-85592261D01*
X151006250Y-85516071D01*
X151044345Y-85477976D01*
X151120535Y-85439880D01*
X151196726Y-85439880D01*
X151311011Y-85477976D01*
X151768154Y-85935119D01*
X151768154Y-85439880D01*
X151768154Y-84677976D02*
X151768154Y-85135119D01*
X151768154Y-84906547D02*
X150968154Y-84906547D01*
X151082440Y-84982738D01*
X151158630Y-85058928D01*
X151196726Y-85135119D01*
X170705654Y-48596428D02*
X169905654Y-48596428D01*
X169905654Y-48405952D01*
X169943750Y-48291666D01*
X170019940Y-48215476D01*
X170096130Y-48177380D01*
X170248511Y-48139285D01*
X170362797Y-48139285D01*
X170515178Y-48177380D01*
X170591369Y-48215476D01*
X170667559Y-48291666D01*
X170705654Y-48405952D01*
X170705654Y-48596428D01*
X169981845Y-47834523D02*
X169943750Y-47796428D01*
X169905654Y-47720238D01*
X169905654Y-47529761D01*
X169943750Y-47453571D01*
X169981845Y-47415476D01*
X170058035Y-47377380D01*
X170134226Y-47377380D01*
X170248511Y-47415476D01*
X170705654Y-47872619D01*
X170705654Y-47377380D01*
X169981845Y-47072619D02*
X169943750Y-47034523D01*
X169905654Y-46958333D01*
X169905654Y-46767857D01*
X169943750Y-46691666D01*
X169981845Y-46653571D01*
X170058035Y-46615476D01*
X170134226Y-46615476D01*
X170248511Y-46653571D01*
X170705654Y-47110714D01*
X170705654Y-46615476D01*
X170705654Y-67627678D02*
X169905654Y-67627678D01*
X169905654Y-67437202D01*
X169943750Y-67322916D01*
X170019940Y-67246726D01*
X170096130Y-67208630D01*
X170248511Y-67170535D01*
X170362797Y-67170535D01*
X170515178Y-67208630D01*
X170591369Y-67246726D01*
X170667559Y-67322916D01*
X170705654Y-67437202D01*
X170705654Y-67627678D01*
X169981845Y-66865773D02*
X169943750Y-66827678D01*
X169905654Y-66751488D01*
X169905654Y-66561011D01*
X169943750Y-66484821D01*
X169981845Y-66446726D01*
X170058035Y-66408630D01*
X170134226Y-66408630D01*
X170248511Y-66446726D01*
X170705654Y-66903869D01*
X170705654Y-66408630D01*
X169905654Y-66141964D02*
X169905654Y-65646726D01*
X170210416Y-65913392D01*
X170210416Y-65799107D01*
X170248511Y-65722916D01*
X170286607Y-65684821D01*
X170362797Y-65646726D01*
X170553273Y-65646726D01*
X170629464Y-65684821D01*
X170667559Y-65722916D01*
X170705654Y-65799107D01*
X170705654Y-66027678D01*
X170667559Y-66103869D01*
X170629464Y-66141964D01*
X151674404Y-105690178D02*
X150874404Y-105690178D01*
X150874404Y-105499702D01*
X150912500Y-105385416D01*
X150988690Y-105309226D01*
X151064880Y-105271130D01*
X151217261Y-105233035D01*
X151331547Y-105233035D01*
X151483928Y-105271130D01*
X151560119Y-105309226D01*
X151636309Y-105385416D01*
X151674404Y-105499702D01*
X151674404Y-105690178D01*
X150950595Y-104928273D02*
X150912500Y-104890178D01*
X150874404Y-104813988D01*
X150874404Y-104623511D01*
X150912500Y-104547321D01*
X150950595Y-104509226D01*
X151026785Y-104471130D01*
X151102976Y-104471130D01*
X151217261Y-104509226D01*
X151674404Y-104966369D01*
X151674404Y-104471130D01*
X151141071Y-103785416D02*
X151674404Y-103785416D01*
X150836309Y-103975892D02*
X151407738Y-104166369D01*
X151407738Y-103671130D01*
D14*
X138130321Y-52199523D02*
X138130321Y-50929523D01*
X139001178Y-52199523D02*
X138348035Y-51473809D01*
X139001178Y-50929523D02*
X138130321Y-51655238D01*
X140452607Y-52199523D02*
X139581750Y-52199523D01*
X140017178Y-52199523D02*
X140017178Y-50929523D01*
X139872035Y-51110952D01*
X139726892Y-51231904D01*
X139581750Y-51292380D01*
X141105750Y-52078571D02*
X141178321Y-52139047D01*
X141105750Y-52199523D01*
X141033178Y-52139047D01*
X141105750Y-52078571D01*
X141105750Y-52199523D01*
X141758892Y-51050476D02*
X141831464Y-50990000D01*
X141976607Y-50929523D01*
X142339464Y-50929523D01*
X142484607Y-50990000D01*
X142557178Y-51050476D01*
X142629750Y-51171428D01*
X142629750Y-51292380D01*
X142557178Y-51473809D01*
X141686321Y-52199523D01*
X142629750Y-52199523D01*
X157161571Y-52199523D02*
X157161571Y-50929523D01*
X158032428Y-52199523D02*
X157379285Y-51473809D01*
X158032428Y-50929523D02*
X157161571Y-51655238D01*
X159483857Y-52199523D02*
X158613000Y-52199523D01*
X159048428Y-52199523D02*
X159048428Y-50929523D01*
X158903285Y-51110952D01*
X158758142Y-51231904D01*
X158613000Y-51292380D01*
X160137000Y-52078571D02*
X160209571Y-52139047D01*
X160137000Y-52199523D01*
X160064428Y-52139047D01*
X160137000Y-52078571D01*
X160137000Y-52199523D01*
X160717571Y-50929523D02*
X161661000Y-50929523D01*
X161153000Y-51413333D01*
X161370714Y-51413333D01*
X161515857Y-51473809D01*
X161588428Y-51534285D01*
X161661000Y-51655238D01*
X161661000Y-51957619D01*
X161588428Y-52078571D01*
X161515857Y-52139047D01*
X161370714Y-52199523D01*
X160935285Y-52199523D01*
X160790142Y-52139047D01*
X160717571Y-52078571D01*
X176192821Y-52199523D02*
X176192821Y-50929523D01*
X177063678Y-52199523D02*
X176410535Y-51473809D01*
X177063678Y-50929523D02*
X176192821Y-51655238D01*
X178515107Y-52199523D02*
X177644250Y-52199523D01*
X178079678Y-52199523D02*
X178079678Y-50929523D01*
X177934535Y-51110952D01*
X177789392Y-51231904D01*
X177644250Y-51292380D01*
X179168250Y-52078571D02*
X179240821Y-52139047D01*
X179168250Y-52199523D01*
X179095678Y-52139047D01*
X179168250Y-52078571D01*
X179168250Y-52199523D01*
X180547107Y-51352857D02*
X180547107Y-52199523D01*
X180184250Y-50869047D02*
X179821392Y-51776190D01*
X180764821Y-51776190D01*
X119099071Y-52199523D02*
X119099071Y-50929523D01*
X119969928Y-52199523D02*
X119316785Y-51473809D01*
X119969928Y-50929523D02*
X119099071Y-51655238D01*
X121421357Y-52199523D02*
X120550500Y-52199523D01*
X120985928Y-52199523D02*
X120985928Y-50929523D01*
X120840785Y-51110952D01*
X120695642Y-51231904D01*
X120550500Y-51292380D01*
X122074500Y-52078571D02*
X122147071Y-52139047D01*
X122074500Y-52199523D01*
X122001928Y-52139047D01*
X122074500Y-52078571D01*
X122074500Y-52199523D01*
X123598500Y-52199523D02*
X122727642Y-52199523D01*
X123163071Y-52199523D02*
X123163071Y-50929523D01*
X123017928Y-51110952D01*
X122872785Y-51231904D01*
X122727642Y-51292380D01*
X119099071Y-71230773D02*
X119099071Y-69960773D01*
X119969928Y-71230773D02*
X119316785Y-70505059D01*
X119969928Y-69960773D02*
X119099071Y-70686488D01*
X120550500Y-70081726D02*
X120623071Y-70021250D01*
X120768214Y-69960773D01*
X121131071Y-69960773D01*
X121276214Y-70021250D01*
X121348785Y-70081726D01*
X121421357Y-70202678D01*
X121421357Y-70323630D01*
X121348785Y-70505059D01*
X120477928Y-71230773D01*
X121421357Y-71230773D01*
X122074500Y-71109821D02*
X122147071Y-71170297D01*
X122074500Y-71230773D01*
X122001928Y-71170297D01*
X122074500Y-71109821D01*
X122074500Y-71230773D01*
X123598500Y-71230773D02*
X122727642Y-71230773D01*
X123163071Y-71230773D02*
X123163071Y-69960773D01*
X123017928Y-70142202D01*
X122872785Y-70263154D01*
X122727642Y-70323630D01*
X195224071Y-90262023D02*
X195224071Y-88992023D01*
X196094928Y-90262023D02*
X195441785Y-89536309D01*
X196094928Y-88992023D02*
X195224071Y-89717738D01*
X196602928Y-88992023D02*
X197546357Y-88992023D01*
X197038357Y-89475833D01*
X197256071Y-89475833D01*
X197401214Y-89536309D01*
X197473785Y-89596785D01*
X197546357Y-89717738D01*
X197546357Y-90020119D01*
X197473785Y-90141071D01*
X197401214Y-90201547D01*
X197256071Y-90262023D01*
X196820642Y-90262023D01*
X196675500Y-90201547D01*
X196602928Y-90141071D01*
X198199500Y-90141071D02*
X198272071Y-90201547D01*
X198199500Y-90262023D01*
X198126928Y-90201547D01*
X198199500Y-90141071D01*
X198199500Y-90262023D01*
X199650928Y-88992023D02*
X198925214Y-88992023D01*
X198852642Y-89596785D01*
X198925214Y-89536309D01*
X199070357Y-89475833D01*
X199433214Y-89475833D01*
X199578357Y-89536309D01*
X199650928Y-89596785D01*
X199723500Y-89717738D01*
X199723500Y-90020119D01*
X199650928Y-90141071D01*
X199578357Y-90201547D01*
X199433214Y-90262023D01*
X199070357Y-90262023D01*
X198925214Y-90201547D01*
X198852642Y-90141071D01*
X195224071Y-109293273D02*
X195224071Y-108023273D01*
X196094928Y-109293273D02*
X195441785Y-108567559D01*
X196094928Y-108023273D02*
X195224071Y-108748988D01*
X197401214Y-108446607D02*
X197401214Y-109293273D01*
X197038357Y-107962797D02*
X196675500Y-108869940D01*
X197618928Y-108869940D01*
X198199500Y-109172321D02*
X198272071Y-109232797D01*
X198199500Y-109293273D01*
X198126928Y-109232797D01*
X198199500Y-109172321D01*
X198199500Y-109293273D01*
X199650928Y-108023273D02*
X198925214Y-108023273D01*
X198852642Y-108628035D01*
X198925214Y-108567559D01*
X199070357Y-108507083D01*
X199433214Y-108507083D01*
X199578357Y-108567559D01*
X199650928Y-108628035D01*
X199723500Y-108748988D01*
X199723500Y-109051369D01*
X199650928Y-109172321D01*
X199578357Y-109232797D01*
X199433214Y-109293273D01*
X199070357Y-109293273D01*
X198925214Y-109232797D01*
X198852642Y-109172321D01*
X176192821Y-90262023D02*
X176192821Y-88992023D01*
X177063678Y-90262023D02*
X176410535Y-89536309D01*
X177063678Y-88992023D02*
X176192821Y-89717738D01*
X177571678Y-88992023D02*
X178515107Y-88992023D01*
X178007107Y-89475833D01*
X178224821Y-89475833D01*
X178369964Y-89536309D01*
X178442535Y-89596785D01*
X178515107Y-89717738D01*
X178515107Y-90020119D01*
X178442535Y-90141071D01*
X178369964Y-90201547D01*
X178224821Y-90262023D01*
X177789392Y-90262023D01*
X177644250Y-90201547D01*
X177571678Y-90141071D01*
X179168250Y-90141071D02*
X179240821Y-90201547D01*
X179168250Y-90262023D01*
X179095678Y-90201547D01*
X179168250Y-90141071D01*
X179168250Y-90262023D01*
X180547107Y-89415357D02*
X180547107Y-90262023D01*
X180184250Y-88931547D02*
X179821392Y-89838690D01*
X180764821Y-89838690D01*
X176192821Y-109293273D02*
X176192821Y-108023273D01*
X177063678Y-109293273D02*
X176410535Y-108567559D01*
X177063678Y-108023273D02*
X176192821Y-108748988D01*
X178369964Y-108446607D02*
X178369964Y-109293273D01*
X178007107Y-107962797D02*
X177644250Y-108869940D01*
X178587678Y-108869940D01*
X179168250Y-109172321D02*
X179240821Y-109232797D01*
X179168250Y-109293273D01*
X179095678Y-109232797D01*
X179168250Y-109172321D01*
X179168250Y-109293273D01*
X180547107Y-108446607D02*
X180547107Y-109293273D01*
X180184250Y-107962797D02*
X179821392Y-108869940D01*
X180764821Y-108869940D01*
X157161571Y-90262023D02*
X157161571Y-88992023D01*
X158032428Y-90262023D02*
X157379285Y-89536309D01*
X158032428Y-88992023D02*
X157161571Y-89717738D01*
X158540428Y-88992023D02*
X159483857Y-88992023D01*
X158975857Y-89475833D01*
X159193571Y-89475833D01*
X159338714Y-89536309D01*
X159411285Y-89596785D01*
X159483857Y-89717738D01*
X159483857Y-90020119D01*
X159411285Y-90141071D01*
X159338714Y-90201547D01*
X159193571Y-90262023D01*
X158758142Y-90262023D01*
X158613000Y-90201547D01*
X158540428Y-90141071D01*
X160137000Y-90141071D02*
X160209571Y-90201547D01*
X160137000Y-90262023D01*
X160064428Y-90201547D01*
X160137000Y-90141071D01*
X160137000Y-90262023D01*
X160717571Y-88992023D02*
X161661000Y-88992023D01*
X161153000Y-89475833D01*
X161370714Y-89475833D01*
X161515857Y-89536309D01*
X161588428Y-89596785D01*
X161661000Y-89717738D01*
X161661000Y-90020119D01*
X161588428Y-90141071D01*
X161515857Y-90201547D01*
X161370714Y-90262023D01*
X160935285Y-90262023D01*
X160790142Y-90201547D01*
X160717571Y-90141071D01*
X157161571Y-109293273D02*
X157161571Y-108023273D01*
X158032428Y-109293273D02*
X157379285Y-108567559D01*
X158032428Y-108023273D02*
X157161571Y-108748988D01*
X159338714Y-108446607D02*
X159338714Y-109293273D01*
X158975857Y-107962797D02*
X158613000Y-108869940D01*
X159556428Y-108869940D01*
X160137000Y-109172321D02*
X160209571Y-109232797D01*
X160137000Y-109293273D01*
X160064428Y-109232797D01*
X160137000Y-109172321D01*
X160137000Y-109293273D01*
X160717571Y-108023273D02*
X161661000Y-108023273D01*
X161153000Y-108507083D01*
X161370714Y-108507083D01*
X161515857Y-108567559D01*
X161588428Y-108628035D01*
X161661000Y-108748988D01*
X161661000Y-109051369D01*
X161588428Y-109172321D01*
X161515857Y-109232797D01*
X161370714Y-109293273D01*
X160935285Y-109293273D01*
X160790142Y-109232797D01*
X160717571Y-109172321D01*
X147599071Y-128324523D02*
X147599071Y-127054523D01*
X148469928Y-128324523D02*
X147816785Y-127598809D01*
X148469928Y-127054523D02*
X147599071Y-127780238D01*
X149848785Y-127054523D02*
X149123071Y-127054523D01*
X149050500Y-127659285D01*
X149123071Y-127598809D01*
X149268214Y-127538333D01*
X149631071Y-127538333D01*
X149776214Y-127598809D01*
X149848785Y-127659285D01*
X149921357Y-127780238D01*
X149921357Y-128082619D01*
X149848785Y-128203571D01*
X149776214Y-128264047D01*
X149631071Y-128324523D01*
X149268214Y-128324523D01*
X149123071Y-128264047D01*
X149050500Y-128203571D01*
X150574500Y-128203571D02*
X150647071Y-128264047D01*
X150574500Y-128324523D01*
X150501928Y-128264047D01*
X150574500Y-128203571D01*
X150574500Y-128324523D01*
X151227642Y-127175476D02*
X151300214Y-127115000D01*
X151445357Y-127054523D01*
X151808214Y-127054523D01*
X151953357Y-127115000D01*
X152025928Y-127175476D01*
X152098500Y-127296428D01*
X152098500Y-127417380D01*
X152025928Y-127598809D01*
X151155071Y-128324523D01*
X152098500Y-128324523D01*
X119099071Y-109293273D02*
X119099071Y-108023273D01*
X119969928Y-109293273D02*
X119316785Y-108567559D01*
X119969928Y-108023273D02*
X119099071Y-108748988D01*
X121276214Y-108446607D02*
X121276214Y-109293273D01*
X120913357Y-107962797D02*
X120550500Y-108869940D01*
X121493928Y-108869940D01*
X122074500Y-109172321D02*
X122147071Y-109232797D01*
X122074500Y-109293273D01*
X122001928Y-109232797D01*
X122074500Y-109172321D01*
X122074500Y-109293273D01*
X123598500Y-109293273D02*
X122727642Y-109293273D01*
X123163071Y-109293273D02*
X123163071Y-108023273D01*
X123017928Y-108204702D01*
X122872785Y-108325654D01*
X122727642Y-108386130D01*
X157161571Y-128324523D02*
X157161571Y-127054523D01*
X158032428Y-128324523D02*
X157379285Y-127598809D01*
X158032428Y-127054523D02*
X157161571Y-127780238D01*
X159411285Y-127054523D02*
X158685571Y-127054523D01*
X158613000Y-127659285D01*
X158685571Y-127598809D01*
X158830714Y-127538333D01*
X159193571Y-127538333D01*
X159338714Y-127598809D01*
X159411285Y-127659285D01*
X159483857Y-127780238D01*
X159483857Y-128082619D01*
X159411285Y-128203571D01*
X159338714Y-128264047D01*
X159193571Y-128324523D01*
X158830714Y-128324523D01*
X158685571Y-128264047D01*
X158613000Y-128203571D01*
X160137000Y-128203571D02*
X160209571Y-128264047D01*
X160137000Y-128324523D01*
X160064428Y-128264047D01*
X160137000Y-128203571D01*
X160137000Y-128324523D01*
X160717571Y-127054523D02*
X161661000Y-127054523D01*
X161153000Y-127538333D01*
X161370714Y-127538333D01*
X161515857Y-127598809D01*
X161588428Y-127659285D01*
X161661000Y-127780238D01*
X161661000Y-128082619D01*
X161588428Y-128203571D01*
X161515857Y-128264047D01*
X161370714Y-128324523D01*
X160935285Y-128324523D01*
X160790142Y-128264047D01*
X160717571Y-128203571D01*
M02*
