G04 #@! TF.GenerationSoftware,KiCad,Pcbnew,(5.1.4-0-10_14)*
G04 #@! TF.CreationDate,2020-01-29T22:53:13+01:00*
G04 #@! TF.ProjectId,tripel,74726970-656c-42e6-9b69-6361645f7063,rev?*
G04 #@! TF.SameCoordinates,Original*
G04 #@! TF.FileFunction,Soldermask,Bot*
G04 #@! TF.FilePolarity,Negative*
%FSLAX46Y46*%
G04 Gerber Fmt 4.6, Leading zero omitted, Abs format (unit mm)*
G04 Created by KiCad (PCBNEW (5.1.4-0-10_14)) date 2020-01-29 22:53:13*
%MOMM*%
%LPD*%
G04 APERTURE LIST*
%ADD10C,2.686000*%
%ADD11R,2.000000X2.000000*%
%ADD12C,2.000000*%
%ADD13C,2.101800*%
%ADD14O,2.400000X2.400000*%
%ADD15C,1.500000*%
%ADD16R,1.500000X1.500000*%
%ADD17R,2.900000X2.152600*%
%ADD18O,11.000000X3.900000*%
%ADD19R,2.400000X2.400000*%
%ADD20C,2.400000*%
%ADD21R,2.152600X2.152600*%
%ADD22C,2.152600*%
%ADD23R,2.152600X4.400000*%
G04 APERTURE END LIST*
D10*
X190490000Y-42507500D03*
X184140000Y-45047500D03*
D11*
X163275000Y-58700000D03*
D12*
X155475000Y-58700000D03*
D13*
X202517500Y-85687500D03*
X192357500Y-85687500D03*
D10*
X193627500Y-83147500D03*
X199977500Y-80607500D03*
D13*
X126392500Y-47625000D03*
X116232500Y-47625000D03*
D10*
X117502500Y-45085000D03*
X123852500Y-42545000D03*
D11*
X201375000Y-58700000D03*
D12*
X193575000Y-58700000D03*
D10*
X185727500Y-61557500D03*
X179377500Y-64097500D03*
D14*
X126887500Y-45043750D03*
X126887500Y-40343750D03*
X134687500Y-40343750D03*
X134687500Y-45043750D03*
D15*
X129187500Y-46793750D03*
X129987500Y-45043750D03*
X130787500Y-46793750D03*
X131587500Y-45043750D03*
D16*
X132387500Y-46793750D03*
D13*
X202517500Y-47587500D03*
X192357500Y-47587500D03*
D10*
X193627500Y-45047500D03*
X199977500Y-42507500D03*
D13*
X135263750Y-47625000D03*
X145423750Y-47625000D03*
D10*
X144153750Y-50165000D03*
X137803750Y-52705000D03*
D13*
X145423750Y-66656250D03*
X135263750Y-66656250D03*
D10*
X136533750Y-64116250D03*
X142883750Y-61576250D03*
D13*
X126392500Y-66656250D03*
X116232500Y-66656250D03*
D10*
X117502500Y-64116250D03*
X123852500Y-61576250D03*
D13*
X126355000Y-123787500D03*
X116195000Y-123787500D03*
D10*
X117465000Y-121247500D03*
X123815000Y-118707500D03*
D17*
X112940625Y-78702500D03*
X112940625Y-73622500D03*
X112940625Y-76162500D03*
X205857000Y-73559000D03*
X205857000Y-78639000D03*
X205857000Y-76099000D03*
X113157000Y-59690000D03*
X113157000Y-54610000D03*
X113157000Y-57150000D03*
X205781250Y-59746000D03*
X205781250Y-54666000D03*
X205781250Y-57206000D03*
D18*
X204618750Y-94968750D03*
D10*
X141277500Y-121247500D03*
X147627500Y-118707500D03*
X188902500Y-121247500D03*
X195252500Y-118707500D03*
X122227500Y-121247500D03*
X128577500Y-118707500D03*
X169852500Y-121247500D03*
X176202500Y-118707500D03*
D13*
X183505000Y-123787500D03*
X173345000Y-123787500D03*
D10*
X174615000Y-121247500D03*
X180965000Y-118707500D03*
D13*
X183486250Y-47587500D03*
X173326250Y-47587500D03*
D10*
X174596250Y-45047500D03*
X180946250Y-42507500D03*
D13*
X164455000Y-47625000D03*
X154295000Y-47625000D03*
D10*
X155565000Y-45085000D03*
X161915000Y-42545000D03*
D13*
X202517500Y-66656250D03*
X192357500Y-66656250D03*
D10*
X193627500Y-64116250D03*
X199977500Y-61576250D03*
D13*
X183486250Y-66656250D03*
X173326250Y-66656250D03*
D10*
X174596250Y-64116250D03*
X180946250Y-61576250D03*
D13*
X164455000Y-66656250D03*
X154295000Y-66656250D03*
D10*
X155565000Y-64116250D03*
X161915000Y-61576250D03*
D13*
X183486250Y-85687500D03*
X173326250Y-85687500D03*
D10*
X174596250Y-83147500D03*
X180946250Y-80607500D03*
D13*
X126392500Y-85687500D03*
X116232500Y-85687500D03*
D10*
X117502500Y-83147500D03*
X123852500Y-80607500D03*
D13*
X145423750Y-85687500D03*
X135263750Y-85687500D03*
D10*
X136533750Y-83147500D03*
X142883750Y-80607500D03*
D13*
X164455000Y-85687500D03*
X154295000Y-85687500D03*
D10*
X155565000Y-83147500D03*
X161915000Y-80607500D03*
D13*
X145423750Y-104718750D03*
X135263750Y-104718750D03*
D10*
X136533750Y-102178750D03*
X142883750Y-99638750D03*
D13*
X126355000Y-104737500D03*
X116195000Y-104737500D03*
D10*
X117465000Y-102197500D03*
X123815000Y-99657500D03*
D13*
X183486250Y-104718750D03*
X173326250Y-104718750D03*
D10*
X174596250Y-102178750D03*
X180946250Y-99638750D03*
D13*
X164455000Y-104718750D03*
X154295000Y-104718750D03*
D10*
X155565000Y-102178750D03*
X161915000Y-99638750D03*
D13*
X202517500Y-104718750D03*
X192357500Y-104718750D03*
D10*
X193627500Y-102178750D03*
X199977500Y-99638750D03*
D13*
X154930000Y-123787500D03*
X144770000Y-123787500D03*
D10*
X146040000Y-121247500D03*
X152390000Y-118707500D03*
D13*
X173980000Y-123787500D03*
X163820000Y-123787500D03*
D10*
X165090000Y-121247500D03*
X171440000Y-118707500D03*
D17*
X113343750Y-123190000D03*
X113343750Y-120650000D03*
X113343750Y-118110000D03*
X113343750Y-115570000D03*
X113343750Y-113030000D03*
X113343750Y-110490000D03*
X113343750Y-107950000D03*
X113343750Y-105410000D03*
X205500000Y-123190000D03*
X205500000Y-120650000D03*
X205500000Y-118110000D03*
X205500000Y-115570000D03*
X205500000Y-113030000D03*
X205500000Y-110490000D03*
X205500000Y-107950000D03*
X205500000Y-105410000D03*
D18*
X114036000Y-94968750D03*
D19*
X189537500Y-62443500D03*
D20*
X189537500Y-68043500D03*
X189537500Y-65243500D03*
X189537500Y-70843500D03*
D11*
X151437500Y-108637500D03*
D12*
X151437500Y-100837500D03*
D11*
X125175000Y-55525000D03*
D12*
X117375000Y-55525000D03*
D11*
X125175000Y-58700000D03*
D12*
X117375000Y-58700000D03*
X167312500Y-43687500D03*
D11*
X167312500Y-51487500D03*
D12*
X174525000Y-74575000D03*
D11*
X182325000Y-74575000D03*
X134700000Y-96800000D03*
D12*
X126900000Y-96800000D03*
D11*
X125175000Y-77750000D03*
D12*
X117375000Y-77750000D03*
D11*
X148262500Y-51525000D03*
D12*
X148262500Y-43725000D03*
X167381250Y-96800000D03*
D11*
X175181250Y-96800000D03*
D12*
X126900000Y-93625000D03*
D11*
X134700000Y-93625000D03*
D12*
X136425000Y-58700000D03*
D11*
X144225000Y-58700000D03*
D12*
X136425000Y-77750000D03*
D11*
X144225000Y-77750000D03*
D12*
X193575000Y-74575000D03*
D11*
X201375000Y-74575000D03*
D12*
X148262500Y-100837500D03*
D11*
X148262500Y-108637500D03*
D12*
X126900000Y-115850000D03*
D11*
X134700000Y-115850000D03*
D12*
X151437500Y-43725000D03*
D11*
X151437500Y-51525000D03*
X195818750Y-96800000D03*
D12*
X188018750Y-96800000D03*
D11*
X148262500Y-89587500D03*
D12*
X148262500Y-81787500D03*
D11*
X151437500Y-70537500D03*
D12*
X151437500Y-62737500D03*
D11*
X170343750Y-51487500D03*
D12*
X170343750Y-43687500D03*
D11*
X167312500Y-70537500D03*
D12*
X167312500Y-62737500D03*
X148262500Y-62737500D03*
D11*
X148262500Y-70537500D03*
D21*
X190871000Y-93228125D03*
D22*
X188331000Y-93228125D03*
X185791000Y-93228125D03*
X183251000Y-93228125D03*
X180711000Y-93228125D03*
X178171000Y-93228125D03*
X175631000Y-93228125D03*
X173091000Y-93228125D03*
X170551000Y-93228125D03*
X168011000Y-93228125D03*
X165471000Y-93228125D03*
X162931000Y-93228125D03*
X162931000Y-77988125D03*
X165471000Y-77988125D03*
X168011000Y-77988125D03*
X170551000Y-77988125D03*
X173091000Y-77988125D03*
X175631000Y-77988125D03*
X178171000Y-77988125D03*
X180711000Y-77988125D03*
X183251000Y-77988125D03*
X185791000Y-77988125D03*
X188331000Y-77988125D03*
X190871000Y-77988125D03*
D10*
X200015000Y-118707500D03*
X193665000Y-121247500D03*
D13*
X192395000Y-123787500D03*
X202555000Y-123787500D03*
X145405000Y-123787500D03*
X135245000Y-123787500D03*
D10*
X136515000Y-121247500D03*
X142865000Y-118707500D03*
X161915000Y-118707500D03*
X155565000Y-121247500D03*
X131752500Y-64097500D03*
X138102500Y-61557500D03*
X129371250Y-83147500D03*
X135721250Y-80607500D03*
X167471250Y-83147500D03*
X173821250Y-80607500D03*
X135721250Y-99657500D03*
X129371250Y-102197500D03*
X173821250Y-99657500D03*
X167471250Y-102197500D03*
D23*
X141825000Y-91243750D03*
X138825000Y-91243750D03*
D17*
X113337500Y-100312500D03*
X113337500Y-102812500D03*
X205412500Y-102812500D03*
X205412500Y-100312500D03*
X205809375Y-86878125D03*
X205809375Y-84338125D03*
X205809375Y-89418125D03*
X112940625Y-89815000D03*
X112940625Y-84735000D03*
X112940625Y-87275000D03*
D10*
X188108750Y-80607500D03*
X181758750Y-83147500D03*
X164296250Y-99657500D03*
X157946250Y-102197500D03*
X185727500Y-99657500D03*
X179377500Y-102197500D03*
D13*
X178107500Y-104737500D03*
X188267500Y-104737500D03*
M02*
