M48
; DRILL file {KiCad (5.1.4-0-10_14)} date 2019 October 25, Friday 20:11:33
; FORMAT={-:-/ absolute / inch / decimal}
; #@! TF.CreationDate,2019-10-25T20:11:33+02:00
; #@! TF.GenerationSoftware,Kicad,Pcbnew,(5.1.4-0-10_14)
; #@! TF.FileFunction,NonPlated,1,2,NPTH
FMAT,2
INCH
T1C0.0670
T2C0.1200
T3C0.1570
%
G90
G05
T1
X5.3253Y-3.3735
X5.7253Y-3.3735
X5.1643Y-4.872
X5.3253Y-4.1228
X5.7253Y-4.1228
X6.6356Y-4.872
X7.0356Y-4.872
X7.5731Y-2.6243
X7.9731Y-2.6243
X4.7643Y-4.872
X7.2239Y-2.6243
X5.0463Y-4.8719
X5.4463Y-4.8719
X6.8239Y-2.6243
X6.4746Y-2.6243
X7.5731Y-1.875
X7.9731Y-1.875
X5.3253Y-2.6243
X5.7253Y-2.6243
X6.0746Y-2.6243
X4.5761Y-3.3735
X4.9761Y-3.3735
X5.6981Y-4.872
X6.0981Y-4.872
X6.0746Y-3.3735
X7.3195Y-4.8723
X6.4746Y-3.3735
X4.5746Y-4.1235
X4.9746Y-4.1235
X6.9195Y-4.8723
X7.5731Y-3.3735
X6.8239Y-4.1228
X6.0746Y-4.1228
X6.4746Y-4.1228
X6.8239Y-3.3735
X7.2239Y-3.3735
X7.5731Y-4.1228
X7.9731Y-4.1228
X7.5731Y-4.8723
X7.9731Y-3.3735
X7.9731Y-4.8723
X5.3253Y-1.875
X5.7253Y-1.875
X6.4746Y-1.875
X6.8239Y-1.875
X7.2239Y-1.875
X4.5761Y-1.875
X4.9761Y-1.875
X4.5761Y-2.6243
X4.9761Y-2.6243
X7.2239Y-4.1228
X6.0746Y-1.875
X6.0746Y-4.872
X6.4746Y-4.872
T2
X4.7763Y-4.5969
X5.7163Y-4.5969
X7.7783Y-4.597
X6.6495Y-4.5973
X7.5895Y-4.5973
T3
X5.5253Y-3.3735
X6.6495Y-5.1973
X7.1195Y-4.8723
X5.5253Y-2.6243
X6.8356Y-4.872
X4.9643Y-4.872
X4.7746Y-4.1235
X5.7163Y-5.1969
X4.7761Y-3.3735
X4.7763Y-5.1969
X7.7731Y-2.6243
X5.2463Y-4.8719
X7.7731Y-1.875
X7.0239Y-2.6243
X6.2746Y-2.6243
X5.5253Y-4.1228
X6.2746Y-3.3735
X6.2746Y-4.1228
X7.0239Y-4.1228
X5.8981Y-4.872
X7.0239Y-3.3735
X7.5895Y-5.1973
X7.7731Y-3.3735
X7.7731Y-4.1228
X4.7761Y-2.6243
X4.7761Y-1.875
X7.0239Y-1.875
X6.2746Y-1.875
X7.7731Y-4.8723
X6.2746Y-4.872
X7.7783Y-5.197
X5.5253Y-1.875
T0
M30
